<?xml version="1.0" encoding="UTF-8"?>
<svg xmlns="http://www.w3.org/2000/svg" version="1.1" width="780" height="906" viewBox="0 0 780 906"><text x="40" y="18" font-size="13" font-family="sans-serif" font-weight="bold">benchmarkserversave -- x86-lxc/pentium3 (pentium-iii-coppermine, i686, n=5)</text><g transform="translate(40,28)"><rect x="0" y="0" width="720" height="120" fill="white" stroke="#888" stroke-width="0.5"/><text x="4" y="-4" font-size="11" font-family="sans-serif">branch-misses</text><text x="2" y="10" font-size="8" fill="#444" font-family="sans-serif">1.39e+06</text><text x="2" y="118" font-size="8" fill="#444" font-family="sans-serif">1.22e+06</text><line x1="10.0" y1="0" x2="10.0" y2="120" stroke="#2ca02c" stroke-width="0.7" stroke-dasharray="3,2"/><polyline points="10.0,12.59 185.0,95.37 360.0,84.23 535.0,107.41 710.0,48.32" fill="none" stroke="#1f77b4" stroke-width="1.2"/><circle cx="10.0" cy="12.59" r="2" fill="#1f77b4"/><polygon points="10.0,-0.41379310344825626 15.0,4.586206896551744 10.0,9.586206896551744 5.0,4.586206896551744" fill="#dca100" stroke="black" stroke-width="0.5"/><circle cx="185.0" cy="95.37" r="2" fill="#1f77b4"/><circle cx="360.0" cy="84.23" r="2" fill="#1f77b4"/><polygon points="360.0,71.23122199130653 365.0,76.23122199130653 360.0,81.23122199130653 355.0,76.23122199130653" fill="#dca100" stroke="black" stroke-width="0.5"/><circle cx="535.0" cy="107.41" r="2" fill="#1f77b4"/><polygon points="535.0,94.41379310344826 540.0,99.41379310344826 535.0,104.41379310344826 530.0,99.41379310344826" fill="#dca100" stroke="black" stroke-width="0.5"/><circle cx="710.0" cy="48.32" r="2" fill="#1f77b4"/><polygon points="710.0,35.315171301831995 715.0,40.315171301831995 710.0,45.315171301831995 705.0,40.315171301831995" fill="#dca100" stroke="black" stroke-width="0.5"/><text x="716" y="12" font-size="9" text-anchor="end" fill="#1f77b4" font-family="sans-serif">perf-stat.branch-misses (lower=better)</text></g><g transform="translate(40,166)"><rect x="0" y="0" width="720" height="120" fill="white" stroke="#888" stroke-width="0.5"/><text x="4" y="-4" font-size="11" font-family="sans-serif">cache-misses</text><text x="2" y="10" font-size="8" fill="#444" font-family="sans-serif">1.16e+06</text><text x="2" y="118" font-size="8" fill="#444" font-family="sans-serif">1.04e+06</text><line x1="10.0" y1="0" x2="10.0" y2="120" stroke="#2ca02c" stroke-width="0.7" stroke-dasharray="3,2"/><polyline points="10.0,85.80 185.0,107.41 360.0,21.92 535.0,12.59 710.0,14.28" fill="none" stroke="#1f77b4" stroke-width="1.2"/><circle cx="10.0" cy="85.80" r="2" fill="#1f77b4"/><polygon points="10.0,72.80170431427703 15.0,77.80170431427703 10.0,82.80170431427703 5.0,77.80170431427703" fill="#dca100" stroke="black" stroke-width="0.5"/><circle cx="185.0" cy="107.41" r="2" fill="#1f77b4"/><circle cx="360.0" cy="21.92" r="2" fill="#1f77b4"/><polygon points="360.0,8.922579206871774 365.0,13.922579206871774 360.0,18.922579206871774 355.0,13.922579206871774" fill="#dca100" stroke="black" stroke-width="0.5"/><circle cx="535.0" cy="12.59" r="2" fill="#1f77b4"/><polygon points="535.0,-0.41379310344835574 540.0,4.586206896551644 535.0,9.586206896551644 530.0,4.586206896551644" fill="#dca100" stroke="black" stroke-width="0.5"/><circle cx="710.0" cy="14.28" r="2" fill="#1f77b4"/><polygon points="710.0,1.277960776463189 715.0,6.277960776463189 710.0,11.277960776463189 705.0,6.277960776463189" fill="#dca100" stroke="black" stroke-width="0.5"/><text x="716" y="12" font-size="9" text-anchor="end" fill="#1f77b4" font-family="sans-serif">perf-stat.cache-misses (lower=better)</text></g><g transform="translate(40,304)"><rect x="0" y="0" width="720" height="120" fill="white" stroke="#888" stroke-width="0.5"/><text x="4" y="-4" font-size="11" font-family="sans-serif">cycles</text><text x="2" y="10" font-size="8" fill="#444" font-family="sans-serif">3.77e+08</text><text x="2" y="118" font-size="8" fill="#444" font-family="sans-serif">3.63e+08</text><line x1="10.0" y1="0" x2="10.0" y2="120" stroke="#2ca02c" stroke-width="0.7" stroke-dasharray="3,2"/><polyline points="10.0,107.41 185.0,62.61 360.0,62.59 535.0,61.84 710.0,12.59" fill="none" stroke="#1f77b4" stroke-width="1.2"/><circle cx="10.0" cy="107.41" r="2" fill="#1f77b4"/><polygon points="10.0,94.41379310344843 15.0,99.41379310344843 10.0,104.41379310344843 5.0,99.41379310344843" fill="#dca100" stroke="black" stroke-width="0.5"/><circle cx="185.0" cy="62.61" r="2" fill="#1f77b4"/><circle cx="360.0" cy="62.59" r="2" fill="#1f77b4"/><polygon points="360.0,49.59476536527089 365.0,54.59476536527089 360.0,59.59476536527089 355.0,54.59476536527089" fill="#dca100" stroke="black" stroke-width="0.5"/><circle cx="535.0" cy="61.84" r="2" fill="#1f77b4"/><polygon points="535.0,48.84022661894258 540.0,53.84022661894258 535.0,58.84022661894258 530.0,53.84022661894258" fill="#dca100" stroke="black" stroke-width="0.5"/><circle cx="710.0" cy="12.59" r="2" fill="#1f77b4"/><polygon points="710.0,-0.4137931034484126 715.0,4.586206896551587 710.0,9.586206896551587 705.0,4.586206896551587" fill="#dca100" stroke="black" stroke-width="0.5"/><text x="716" y="12" font-size="9" text-anchor="end" fill="#1f77b4" font-family="sans-serif">perf-stat.cycles (lower=better)</text></g><g transform="translate(40,442)"><rect x="0" y="0" width="720" height="120" fill="white" stroke="#888" stroke-width="0.5"/><text x="4" y="-4" font-size="11" font-family="sans-serif">instructions</text><text x="2" y="10" font-size="8" fill="#444" font-family="sans-serif">1.51e+08</text><text x="2" y="118" font-size="8" fill="#444" font-family="sans-serif">1.17e+08</text><line x1="10.0" y1="0" x2="10.0" y2="120" stroke="#2ca02c" stroke-width="0.7" stroke-dasharray="3,2"/><polyline points="10.0,107.41 185.0,70.79 360.0,37.63 535.0,12.59 710.0,54.55" fill="none" stroke="#1f77b4" stroke-width="1.2"/><circle cx="10.0" cy="107.41" r="2" fill="#1f77b4"/><polygon points="10.0,94.41379310344826 15.0,99.41379310344826 10.0,104.41379310344826 5.0,99.41379310344826" fill="#dca100" stroke="black" stroke-width="0.5"/><circle cx="185.0" cy="70.79" r="2" fill="#1f77b4"/><circle cx="360.0" cy="37.63" r="2" fill="#1f77b4"/><polygon points="360.0,24.63114485858152 365.0,29.63114485858152 360.0,34.63114485858152 355.0,29.63114485858152" fill="#dca100" stroke="black" stroke-width="0.5"/><circle cx="535.0" cy="12.59" r="2" fill="#1f77b4"/><polygon points="535.0,-0.41379310344825626 540.0,4.586206896551744 535.0,9.586206896551744 530.0,4.586206896551744" fill="#dca100" stroke="black" stroke-width="0.5"/><circle cx="710.0" cy="54.55" r="2" fill="#1f77b4"/><polygon points="710.0,41.548121237330854 715.0,46.548121237330854 710.0,51.548121237330854 705.0,46.548121237330854" fill="#dca100" stroke="black" stroke-width="0.5"/><text x="716" y="12" font-size="9" text-anchor="end" fill="#1f77b4" font-family="sans-serif">perf-stat.instructions (lower=better)</text></g><g transform="translate(40,580)"><rect x="0" y="0" width="720" height="120" fill="white" stroke="#888" stroke-width="0.5"/><text x="4" y="-4" font-size="11" font-family="sans-serif">max_rss_kb</text><text x="2" y="10" font-size="8" fill="#444" font-family="sans-serif">8.17e+03</text><text x="2" y="118" font-size="8" fill="#444" font-family="sans-serif">7.79e+03</text><line x1="10.0" y1="0" x2="10.0" y2="120" stroke="#2ca02c" stroke-width="0.7" stroke-dasharray="3,2"/><polyline points="10.0,88.91 185.0,12.59 360.0,75.03 535.0,107.41 710.0,99.32" fill="none" stroke="#1f77b4" stroke-width="1.2"/><circle cx="10.0" cy="88.91" r="2" fill="#1f77b4"/><polygon points="10.0,75.91084945332216 15.0,80.91084945332216 10.0,85.91084945332216 5.0,80.91084945332216" fill="#dca100" stroke="black" stroke-width="0.5"/><circle cx="185.0" cy="12.59" r="2" fill="#1f77b4"/><circle cx="360.0" cy="75.03" r="2" fill="#1f77b4"/><polygon points="360.0,62.033641715727526 365.0,67.03364171572753 360.0,72.03364171572753 355.0,67.03364171572753" fill="#dca100" stroke="black" stroke-width="0.5"/><circle cx="535.0" cy="107.41" r="2" fill="#1f77b4"/><polygon points="535.0,94.41379310344833 540.0,99.41379310344833 535.0,104.41379310344833 530.0,99.41379310344833" fill="#dca100" stroke="black" stroke-width="0.5"/><circle cx="710.0" cy="99.32" r="2" fill="#1f77b4"/><polygon points="710.0,86.31875525651813 715.0,91.31875525651813 710.0,96.31875525651813 705.0,91.31875525651813" fill="#dca100" stroke="black" stroke-width="0.5"/><text x="716" y="12" font-size="9" text-anchor="end" fill="#1f77b4" font-family="sans-serif">rusage.default.max_rss_kb (lower=better)</text><polyline points="10.0,88.91 185.0,12.59 360.0,75.03 535.0,107.41 710.0,99.32" fill="none" stroke="#ff7f0e" stroke-width="1.2"/><circle cx="10.0" cy="88.91" r="2" fill="#ff7f0e"/><polygon points="10.0,75.91084945332216 15.0,80.91084945332216 10.0,85.91084945332216 5.0,80.91084945332216" fill="#dca100" stroke="black" stroke-width="0.5"/><circle cx="185.0" cy="12.59" r="2" fill="#ff7f0e"/><circle cx="360.0" cy="75.03" r="2" fill="#ff7f0e"/><polygon points="360.0,62.033641715727526 365.0,67.03364171572753 360.0,72.03364171572753 355.0,67.03364171572753" fill="#dca100" stroke="black" stroke-width="0.5"/><circle cx="535.0" cy="107.41" r="2" fill="#ff7f0e"/><polygon points="535.0,94.41379310344833 540.0,99.41379310344833 535.0,104.41379310344833 530.0,99.41379310344833" fill="#dca100" stroke="black" stroke-width="0.5"/><circle cx="710.0" cy="99.32" r="2" fill="#ff7f0e"/><polygon points="710.0,86.31875525651813 715.0,91.31875525651813 710.0,96.31875525651813 705.0,91.31875525651813" fill="#dca100" stroke="black" stroke-width="0.5"/><text x="716" y="23" font-size="9" text-anchor="end" fill="#ff7f0e" font-family="sans-serif">rusage.max_rss_kb (lower=better)</text></g><g transform="translate(40,718)"><rect x="0" y="0" width="720" height="120" fill="white" stroke="#888" stroke-width="0.5"/><text x="4" y="-4" font-size="11" font-family="sans-serif">wall_s</text><text x="2" y="10" font-size="8" fill="#444" font-family="sans-serif">1.75</text><text x="2" y="118" font-size="8" fill="#444" font-family="sans-serif">0.815</text><line x1="10.0" y1="0" x2="10.0" y2="120" stroke="#2ca02c" stroke-width="0.7" stroke-dasharray="3,2"/><polyline points="10.0,12.59 185.0,107.41 360.0,101.56 535.0,106.24 710.0,102.73" fill="none" stroke="#1f77b4" stroke-width="1.2"/><circle cx="10.0" cy="12.59" r="2" fill="#1f77b4"/><polygon points="10.0,-0.41379310344827047 15.0,4.5862068965517295 10.0,9.58620689655173 5.0,4.5862068965517295" fill="#dca100" stroke="black" stroke-width="0.5"/><circle cx="185.0" cy="107.41" r="2" fill="#1f77b4"/><circle cx="360.0" cy="101.56" r="2" fill="#1f77b4"/><polygon points="360.0,88.56023839931885 365.0,93.56023839931885 360.0,98.56023839931885 355.0,93.56023839931885" fill="#dca100" stroke="black" stroke-width="0.5"/><circle cx="535.0" cy="106.24" r="2" fill="#1f77b4"/><polygon points="535.0,93.2430821626224 540.0,98.2430821626224 535.0,103.2430821626224 530.0,98.2430821626224" fill="#dca100" stroke="black" stroke-width="0.5"/><circle cx="710.0" cy="102.73" r="2" fill="#1f77b4"/><polygon points="710.0,89.73094934014475 715.0,94.73094934014475 710.0,99.73094934014475 705.0,94.73094934014475" fill="#dca100" stroke="black" stroke-width="0.5"/><text x="716" y="12" font-size="9" text-anchor="end" fill="#1f77b4" font-family="sans-serif">rusage.default.wall_s (lower=better)</text><polyline points="10.0,12.59 185.0,107.41 360.0,101.56 535.0,106.24 710.0,102.73" fill="none" stroke="#ff7f0e" stroke-width="1.2"/><circle cx="10.0" cy="12.59" r="2" fill="#ff7f0e"/><polygon points="10.0,-0.41379310344827047 15.0,4.5862068965517295 10.0,9.58620689655173 5.0,4.5862068965517295" fill="#dca100" stroke="black" stroke-width="0.5"/><circle cx="185.0" cy="107.41" r="2" fill="#ff7f0e"/><circle cx="360.0" cy="101.56" r="2" fill="#ff7f0e"/><polygon points="360.0,88.56023839931885 365.0,93.56023839931885 360.0,98.56023839931885 355.0,93.56023839931885" fill="#dca100" stroke="black" stroke-width="0.5"/><circle cx="535.0" cy="106.24" r="2" fill="#ff7f0e"/><polygon points="535.0,93.2430821626224 540.0,98.2430821626224 535.0,103.2430821626224 530.0,98.2430821626224" fill="#dca100" stroke="black" stroke-width="0.5"/><circle cx="710.0" cy="102.73" r="2" fill="#ff7f0e"/><polygon points="710.0,89.73094934014475 715.0,94.73094934014475 710.0,99.73094934014475 705.0,94.73094934014475" fill="#dca100" stroke="black" stroke-width="0.5"/><text x="716" y="23" font-size="9" text-anchor="end" fill="#ff7f0e" font-family="sans-serif">rusage.wall_s (lower=better)</text></g><g transform="translate(40,856)"><text x="10.0" y="10" font-size="8" fill="#2ca02c" text-anchor="middle" font-family="monospace" transform="rotate(45 10.0 10)">3d5154e</text><text x="185.0" y="10" font-size="8" fill="#222" text-anchor="middle" font-family="monospace" transform="rotate(45 185.0 10)">3d5154e</text><text x="360.0" y="10" font-size="8" fill="#222" text-anchor="middle" font-family="monospace" transform="rotate(45 360.0 10)">3d5154e</text><text x="535.0" y="10" font-size="8" fill="#222" text-anchor="middle" font-family="monospace" transform="rotate(45 535.0 10)">3d5154e</text><text x="710.0" y="10" font-size="8" fill="#222" text-anchor="middle" font-family="monospace" transform="rotate(45 710.0 10)">3d5154e</text></g><g transform="translate(540,892)"><text x="0" y="0" font-size="9" font-family="sans-serif">decisions:</text><polygon points="60,-9 55,1 65,1" fill="#2ca02c" stroke="black" stroke-width="0.5"/><text x="68" y="0" font-size="9" font-family="sans-serif">KEEP</text><polygon points="125,1 120,-9 130,-9" fill="#d62728" stroke="black" stroke-width="0.5"/><text x="133" y="0" font-size="9" font-family="sans-serif">DISCARD</text><polygon points="190,-9 195,-4 190,1 185,-4" fill="#dca100" stroke="black" stroke-width="0.5"/><text x="198" y="0" font-size="9" font-family="sans-serif">ESCALATE</text></g></svg>
