<?xml version="1.0" encoding="UTF-8"?>
<svg xmlns="http://www.w3.org/2000/svg" version="1.1" width="780" height="906" viewBox="0 0 780 906"><text x="40" y="18" font-size="13" font-family="sans-serif" font-weight="bold">benchmarkserversave -- x86-lxc/pentium3 (intel-r-celeron-tm-cpu-1100mhz, i686, n=9)</text><g transform="translate(40,28)"><rect x="0" y="0" width="720" height="120" fill="white" stroke="#888" stroke-width="0.5"/><text x="4" y="-4" font-size="11" font-family="sans-serif">branch-misses</text><text x="2" y="10" font-size="8" fill="#444" font-family="sans-serif">1.45e+06</text><text x="2" y="118" font-size="8" fill="#444" font-family="sans-serif">1.06e+06</text><line x1="10.0" y1="0" x2="10.0" y2="120" stroke="#2ca02c" stroke-width="0.7" stroke-dasharray="3,2"/><polyline points="10.0,89.45 97.5,42.53 185.0,27.63 272.5,107.41 360.0,92.30 447.5,88.97 535.0,67.94 622.5,12.59 710.0,78.91" fill="none" stroke="#1f77b4" stroke-width="1.2"/><circle cx="10.0" cy="89.45" r="2" fill="#1f77b4"/><polygon points="10.0,76.45192803800734 5.0,86.45192803800734 15.0,86.45192803800734" fill="#2ca02c" stroke="black" stroke-width="0.5"/><circle cx="97.5" cy="42.53" r="2" fill="#1f77b4"/><polygon points="97.5,29.533973641345483 102.5,34.53397364134548 97.5,39.53397364134548 92.5,34.53397364134548" fill="#dca100" stroke="black" stroke-width="0.5"/><circle cx="185.0" cy="27.63" r="2" fill="#1f77b4"/><polygon points="185.0,14.629293256107502 190.0,19.629293256107502 185.0,24.629293256107502 180.0,19.629293256107502" fill="#dca100" stroke="black" stroke-width="0.5"/><circle cx="272.5" cy="107.41" r="2" fill="#1f77b4"/><polygon points="272.5,94.41379310344828 277.5,99.41379310344828 272.5,104.41379310344828 267.5,99.41379310344828" fill="#dca100" stroke="black" stroke-width="0.5"/><circle cx="360.0" cy="92.30" r="2" fill="#1f77b4"/><polygon points="360.0,79.30136451531074 365.0,84.30136451531074 360.0,89.30136451531074 355.0,84.30136451531074" fill="#dca100" stroke="black" stroke-width="0.5"/><circle cx="447.5" cy="88.97" r="2" fill="#1f77b4"/><polygon points="447.5,75.96736788647218 452.5,80.96736788647218 447.5,85.96736788647218 442.5,80.96736788647218" fill="#dca100" stroke="black" stroke-width="0.5"/><circle cx="535.0" cy="67.94" r="2" fill="#1f77b4"/><polygon points="535.0,54.93940668976555 540.0,59.93940668976555 535.0,64.93940668976555 530.0,59.93940668976555" fill="#dca100" stroke="black" stroke-width="0.5"/><circle cx="622.5" cy="12.59" r="2" fill="#1f77b4"/><polygon points="622.5,-0.4137931034482847 627.5,4.586206896551715 622.5,9.586206896551715 617.5,4.586206896551715" fill="#dca100" stroke="black" stroke-width="0.5"/><circle cx="710.0" cy="78.91" r="2" fill="#1f77b4"/><polygon points="710.0,65.90522570528313 715.0,70.90522570528313 710.0,75.90522570528313 705.0,70.90522570528313" fill="#dca100" stroke="black" stroke-width="0.5"/><text x="716" y="12" font-size="9" text-anchor="end" fill="#1f77b4" font-family="sans-serif">perf-stat.branch-misses (lower=better)</text></g><g transform="translate(40,166)"><rect x="0" y="0" width="720" height="120" fill="white" stroke="#888" stroke-width="0.5"/><text x="4" y="-4" font-size="11" font-family="sans-serif">cache-misses</text><text x="2" y="10" font-size="8" fill="#444" font-family="sans-serif">1.02e+06</text><text x="2" y="118" font-size="8" fill="#444" font-family="sans-serif">9.05e+05</text><line x1="10.0" y1="0" x2="10.0" y2="120" stroke="#2ca02c" stroke-width="0.7" stroke-dasharray="3,2"/><polyline points="10.0,107.41 97.5,12.59 185.0,77.63 272.5,71.01 360.0,68.03 447.5,107.01 535.0,55.75 622.5,104.85 710.0,104.79" fill="none" stroke="#1f77b4" stroke-width="1.2"/><circle cx="10.0" cy="107.41" r="2" fill="#1f77b4"/><polygon points="10.0,94.41379310344823 5.0,104.41379310344823 15.0,104.41379310344823" fill="#2ca02c" stroke="black" stroke-width="0.5"/><circle cx="97.5" cy="12.59" r="2" fill="#1f77b4"/><polygon points="97.5,-0.41379310344824205 102.5,4.586206896551758 97.5,9.586206896551758 92.5,4.586206896551758" fill="#dca100" stroke="black" stroke-width="0.5"/><circle cx="185.0" cy="77.63" r="2" fill="#1f77b4"/><polygon points="185.0,64.6276313419654 190.0,69.6276313419654 185.0,74.6276313419654 180.0,69.6276313419654" fill="#dca100" stroke="black" stroke-width="0.5"/><circle cx="272.5" cy="71.01" r="2" fill="#1f77b4"/><polygon points="272.5,58.01080493042761 277.5,63.01080493042761 272.5,68.01080493042761 267.5,63.01080493042761" fill="#dca100" stroke="black" stroke-width="0.5"/><circle cx="360.0" cy="68.03" r="2" fill="#1f77b4"/><polygon points="360.0,55.02612192110476 365.0,60.02612192110476 360.0,65.02612192110476 355.0,60.02612192110476" fill="#dca100" stroke="black" stroke-width="0.5"/><circle cx="447.5" cy="107.01" r="2" fill="#1f77b4"/><polygon points="447.5,94.01000060035423 452.5,99.01000060035423 447.5,104.01000060035423 442.5,99.01000060035423" fill="#dca100" stroke="black" stroke-width="0.5"/><circle cx="535.0" cy="55.75" r="2" fill="#1f77b4"/><polygon points="535.0,42.74625483809602 540.0,47.74625483809602 535.0,52.74625483809602 530.0,47.74625483809602" fill="#dca100" stroke="black" stroke-width="0.5"/><circle cx="622.5" cy="104.85" r="2" fill="#1f77b4"/><polygon points="622.5,91.85080472789842 627.5,96.85080472789842 622.5,101.85080472789842 617.5,96.85080472789842" fill="#dca100" stroke="black" stroke-width="0.5"/><circle cx="710.0" cy="104.79" r="2" fill="#1f77b4"/><polygon points="710.0,91.79113095896827 715.0,96.79113095896827 710.0,101.79113095896827 705.0,96.79113095896827" fill="#dca100" stroke="black" stroke-width="0.5"/><text x="716" y="12" font-size="9" text-anchor="end" fill="#1f77b4" font-family="sans-serif">perf-stat.cache-misses (lower=better)</text></g><g transform="translate(40,304)"><rect x="0" y="0" width="720" height="120" fill="white" stroke="#888" stroke-width="0.5"/><text x="4" y="-4" font-size="11" font-family="sans-serif">cycles</text><text x="2" y="10" font-size="8" fill="#444" font-family="sans-serif">3.42e+08</text><text x="2" y="118" font-size="8" fill="#444" font-family="sans-serif">3.23e+08</text><line x1="10.0" y1="0" x2="10.0" y2="120" stroke="#2ca02c" stroke-width="0.7" stroke-dasharray="3,2"/><polyline points="10.0,76.34 97.5,67.48 185.0,12.59 272.5,72.49 360.0,66.38 447.5,85.61 535.0,57.60 622.5,107.41 710.0,69.39" fill="none" stroke="#1f77b4" stroke-width="1.2"/><circle cx="10.0" cy="76.34" r="2" fill="#1f77b4"/><polygon points="10.0,63.34391115808823 5.0,73.34391115808823 15.0,73.34391115808823" fill="#2ca02c" stroke="black" stroke-width="0.5"/><circle cx="97.5" cy="67.48" r="2" fill="#1f77b4"/><polygon points="97.5,54.48393429729626 102.5,59.48393429729626 97.5,64.48393429729626 92.5,59.48393429729626" fill="#dca100" stroke="black" stroke-width="0.5"/><circle cx="185.0" cy="12.59" r="2" fill="#1f77b4"/><polygon points="185.0,-0.413793103448171 190.0,4.586206896551829 185.0,9.586206896551829 180.0,4.586206896551829" fill="#dca100" stroke="black" stroke-width="0.5"/><circle cx="272.5" cy="72.49" r="2" fill="#1f77b4"/><polygon points="272.5,59.493509084218545 277.5,64.49350908421854 272.5,69.49350908421854 267.5,64.49350908421854" fill="#dca100" stroke="black" stroke-width="0.5"/><circle cx="360.0" cy="66.38" r="2" fill="#1f77b4"/><polygon points="360.0,53.38024317902351 365.0,58.38024317902351 360.0,63.38024317902351 355.0,58.38024317902351" fill="#dca100" stroke="black" stroke-width="0.5"/><circle cx="447.5" cy="85.61" r="2" fill="#1f77b4"/><polygon points="447.5,72.60581766160814 452.5,77.60581766160814 447.5,82.60581766160814 442.5,77.60581766160814" fill="#dca100" stroke="black" stroke-width="0.5"/><circle cx="535.0" cy="57.60" r="2" fill="#1f77b4"/><polygon points="535.0,44.59712440945276 540.0,49.59712440945276 535.0,54.59712440945276 530.0,49.59712440945276" fill="#dca100" stroke="black" stroke-width="0.5"/><circle cx="622.5" cy="107.41" r="2" fill="#1f77b4"/><polygon points="622.5,94.41379310344817 627.5,99.41379310344817 622.5,104.41379310344817 617.5,99.41379310344817" fill="#dca100" stroke="black" stroke-width="0.5"/><circle cx="710.0" cy="69.39" r="2" fill="#1f77b4"/><polygon points="710.0,56.39046595500973 715.0,61.39046595500973 710.0,66.39046595500973 705.0,61.39046595500973" fill="#dca100" stroke="black" stroke-width="0.5"/><text x="716" y="12" font-size="9" text-anchor="end" fill="#1f77b4" font-family="sans-serif">perf-stat.cycles (lower=better)</text></g><g transform="translate(40,442)"><rect x="0" y="0" width="720" height="120" fill="white" stroke="#888" stroke-width="0.5"/><text x="4" y="-4" font-size="11" font-family="sans-serif">instructions</text><text x="2" y="10" font-size="8" fill="#444" font-family="sans-serif">1.56e+08</text><text x="2" y="118" font-size="8" fill="#444" font-family="sans-serif">1.11e+08</text><line x1="10.0" y1="0" x2="10.0" y2="120" stroke="#2ca02c" stroke-width="0.7" stroke-dasharray="3,2"/><polyline points="10.0,62.47 97.5,107.41 185.0,35.15 272.5,94.44 360.0,74.22 447.5,66.65 535.0,12.59 622.5,52.74 710.0,34.39" fill="none" stroke="#1f77b4" stroke-width="1.2"/><circle cx="10.0" cy="62.47" r="2" fill="#1f77b4"/><polygon points="10.0,49.47139143277019 5.0,59.47139143277019 15.0,59.47139143277019" fill="#2ca02c" stroke="black" stroke-width="0.5"/><circle cx="97.5" cy="107.41" r="2" fill="#1f77b4"/><polygon points="97.5,94.41379310344828 102.5,99.41379310344828 97.5,104.41379310344828 92.5,99.41379310344828" fill="#dca100" stroke="black" stroke-width="0.5"/><circle cx="185.0" cy="35.15" r="2" fill="#1f77b4"/><polygon points="185.0,22.153578557391427 190.0,27.153578557391427 185.0,32.15357855739143 180.0,27.153578557391427" fill="#dca100" stroke="black" stroke-width="0.5"/><circle cx="272.5" cy="94.44" r="2" fill="#1f77b4"/><polygon points="272.5,81.44158187760648 277.5,86.44158187760648 272.5,91.44158187760648 267.5,86.44158187760648" fill="#dca100" stroke="black" stroke-width="0.5"/><circle cx="360.0" cy="74.22" r="2" fill="#1f77b4"/><polygon points="360.0,61.219011727374195 365.0,66.2190117273742 360.0,71.2190117273742 355.0,66.2190117273742" fill="#dca100" stroke="black" stroke-width="0.5"/><circle cx="447.5" cy="66.65" r="2" fill="#1f77b4"/><polygon points="447.5,53.648600641650745 452.5,58.648600641650745 447.5,63.648600641650745 442.5,58.648600641650745" fill="#dca100" stroke="black" stroke-width="0.5"/><circle cx="535.0" cy="12.59" r="2" fill="#1f77b4"/><polygon points="535.0,-0.4137931034482847 540.0,4.586206896551715 535.0,9.586206896551715 530.0,4.586206896551715" fill="#dca100" stroke="black" stroke-width="0.5"/><circle cx="622.5" cy="52.74" r="2" fill="#1f77b4"/><polygon points="622.5,39.736854190178306 627.5,44.736854190178306 622.5,49.736854190178306 617.5,44.736854190178306" fill="#dca100" stroke="black" stroke-width="0.5"/><circle cx="710.0" cy="34.39" r="2" fill="#1f77b4"/><polygon points="710.0,21.3927381677144 715.0,26.3927381677144 710.0,31.3927381677144 705.0,26.3927381677144" fill="#dca100" stroke="black" stroke-width="0.5"/><text x="716" y="12" font-size="9" text-anchor="end" fill="#1f77b4" font-family="sans-serif">perf-stat.instructions (lower=better)</text></g><g transform="translate(40,580)"><rect x="0" y="0" width="720" height="120" fill="white" stroke="#888" stroke-width="0.5"/><text x="4" y="-4" font-size="11" font-family="sans-serif">max_rss_kb</text><text x="2" y="10" font-size="8" fill="#444" font-family="sans-serif">7.77e+03</text><text x="2" y="118" font-size="8" fill="#444" font-family="sans-serif">7.43e+03</text><line x1="10.0" y1="0" x2="10.0" y2="120" stroke="#2ca02c" stroke-width="0.7" stroke-dasharray="3,2"/><polyline points="10.0,12.59 97.5,97.02 185.0,65.85 272.5,107.41 360.0,73.64 447.5,71.04 535.0,78.84 622.5,91.83 710.0,45.06" fill="none" stroke="#1f77b4" stroke-width="1.2"/><circle cx="10.0" cy="12.59" r="2" fill="#1f77b4"/><polygon points="10.0,-0.41379310344836995 5.0,9.58620689655163 15.0,9.58620689655163" fill="#2ca02c" stroke="black" stroke-width="0.5"/><circle cx="97.5" cy="97.02" r="2" fill="#1f77b4"/><polygon points="97.5,84.02172886159667 102.5,89.02172886159667 97.5,94.02172886159667 92.5,89.02172886159667" fill="#dca100" stroke="black" stroke-width="0.5"/><circle cx="185.0" cy="65.85" r="2" fill="#1f77b4"/><polygon points="185.0,52.845536136041574 190.0,57.845536136041574 185.0,62.845536136041574 180.0,57.845536136041574" fill="#dca100" stroke="black" stroke-width="0.5"/><circle cx="272.5" cy="107.41" r="2" fill="#1f77b4"/><polygon points="272.5,94.41379310344837 277.5,99.41379310344837 272.5,104.41379310344837 267.5,99.41379310344837" fill="#dca100" stroke="black" stroke-width="0.5"/><circle cx="360.0" cy="73.64" r="2" fill="#1f77b4"/><polygon points="360.0,60.63958431743035 365.0,65.63958431743035 360.0,70.63958431743035 355.0,65.63958431743035" fill="#dca100" stroke="black" stroke-width="0.5"/><circle cx="447.5" cy="71.04" r="2" fill="#1f77b4"/><polygon points="447.5,58.04156825696742 452.5,63.04156825696742 447.5,68.04156825696742 442.5,63.04156825696742" fill="#dca100" stroke="black" stroke-width="0.5"/><circle cx="535.0" cy="78.84" r="2" fill="#1f77b4"/><polygon points="535.0,65.8356164383562 540.0,70.8356164383562 535.0,75.8356164383562 530.0,70.8356164383562" fill="#dca100" stroke="black" stroke-width="0.5"/><circle cx="622.5" cy="91.83" r="2" fill="#1f77b4"/><polygon points="622.5,78.82569674067082 627.5,83.82569674067082 622.5,88.82569674067082 617.5,83.82569674067082" fill="#dca100" stroke="black" stroke-width="0.5"/><circle cx="710.0" cy="45.06" r="2" fill="#1f77b4"/><polygon points="710.0,32.06140765233819 715.0,37.06140765233819 710.0,42.06140765233819 705.0,37.06140765233819" fill="#dca100" stroke="black" stroke-width="0.5"/><text x="716" y="12" font-size="9" text-anchor="end" fill="#1f77b4" font-family="sans-serif">rusage.default.max_rss_kb (lower=better)</text><polyline points="10.0,12.59 97.5,97.02 185.0,65.85 272.5,107.41 360.0,73.64 447.5,71.04 535.0,78.84 622.5,91.83 710.0,45.06" fill="none" stroke="#ff7f0e" stroke-width="1.2"/><circle cx="10.0" cy="12.59" r="2" fill="#ff7f0e"/><polygon points="10.0,-0.41379310344836995 5.0,9.58620689655163 15.0,9.58620689655163" fill="#2ca02c" stroke="black" stroke-width="0.5"/><circle cx="97.5" cy="97.02" r="2" fill="#ff7f0e"/><polygon points="97.5,84.02172886159667 102.5,89.02172886159667 97.5,94.02172886159667 92.5,89.02172886159667" fill="#dca100" stroke="black" stroke-width="0.5"/><circle cx="185.0" cy="65.85" r="2" fill="#ff7f0e"/><polygon points="185.0,52.845536136041574 190.0,57.845536136041574 185.0,62.845536136041574 180.0,57.845536136041574" fill="#dca100" stroke="black" stroke-width="0.5"/><circle cx="272.5" cy="107.41" r="2" fill="#ff7f0e"/><polygon points="272.5,94.41379310344837 277.5,99.41379310344837 272.5,104.41379310344837 267.5,99.41379310344837" fill="#dca100" stroke="black" stroke-width="0.5"/><circle cx="360.0" cy="73.64" r="2" fill="#ff7f0e"/><polygon points="360.0,60.63958431743035 365.0,65.63958431743035 360.0,70.63958431743035 355.0,65.63958431743035" fill="#dca100" stroke="black" stroke-width="0.5"/><circle cx="447.5" cy="71.04" r="2" fill="#ff7f0e"/><polygon points="447.5,58.04156825696742 452.5,63.04156825696742 447.5,68.04156825696742 442.5,63.04156825696742" fill="#dca100" stroke="black" stroke-width="0.5"/><circle cx="535.0" cy="78.84" r="2" fill="#ff7f0e"/><polygon points="535.0,65.8356164383562 540.0,70.8356164383562 535.0,75.8356164383562 530.0,70.8356164383562" fill="#dca100" stroke="black" stroke-width="0.5"/><circle cx="622.5" cy="91.83" r="2" fill="#ff7f0e"/><polygon points="622.5,78.82569674067082 627.5,83.82569674067082 622.5,88.82569674067082 617.5,83.82569674067082" fill="#dca100" stroke="black" stroke-width="0.5"/><circle cx="710.0" cy="45.06" r="2" fill="#ff7f0e"/><polygon points="710.0,32.06140765233819 715.0,37.06140765233819 710.0,42.06140765233819 705.0,37.06140765233819" fill="#dca100" stroke="black" stroke-width="0.5"/><text x="716" y="23" font-size="9" text-anchor="end" fill="#ff7f0e" font-family="sans-serif">rusage.max_rss_kb (lower=better)</text></g><g transform="translate(40,718)"><rect x="0" y="0" width="720" height="120" fill="white" stroke="#888" stroke-width="0.5"/><text x="4" y="-4" font-size="11" font-family="sans-serif">wall_s</text><text x="2" y="10" font-size="8" fill="#444" font-family="sans-serif">0.685</text><text x="2" y="118" font-size="8" fill="#444" font-family="sans-serif">0.325</text><line x1="10.0" y1="0" x2="10.0" y2="120" stroke="#2ca02c" stroke-width="0.7" stroke-dasharray="3,2"/><polyline points="10.0,107.41 97.5,107.41 185.0,12.59 272.5,107.41 360.0,98.24 447.5,101.30 535.0,104.35 622.5,104.35 710.0,104.35" fill="none" stroke="#1f77b4" stroke-width="1.2"/><circle cx="10.0" cy="107.41" r="2" fill="#1f77b4"/><polygon points="10.0,94.41379310344828 5.0,104.41379310344828 15.0,104.41379310344828" fill="#2ca02c" stroke="black" stroke-width="0.5"/><circle cx="97.5" cy="107.41" r="2" fill="#1f77b4"/><polygon points="97.5,94.41379310344828 102.5,99.41379310344828 97.5,104.41379310344828 92.5,99.41379310344828" fill="#dca100" stroke="black" stroke-width="0.5"/><circle cx="185.0" cy="12.59" r="2" fill="#1f77b4"/><polygon points="185.0,-0.41379310344825626 190.0,4.586206896551744 185.0,9.586206896551744 180.0,4.586206896551744" fill="#dca100" stroke="black" stroke-width="0.5"/><circle cx="272.5" cy="107.41" r="2" fill="#1f77b4"/><polygon points="272.5,94.41379310344828 277.5,99.41379310344828 272.5,104.41379310344828 267.5,99.41379310344828" fill="#dca100" stroke="black" stroke-width="0.5"/><circle cx="360.0" cy="98.24" r="2" fill="#1f77b4"/><polygon points="360.0,85.23692992213572 365.0,90.23692992213572 360.0,95.23692992213572 355.0,90.23692992213572" fill="#dca100" stroke="black" stroke-width="0.5"/><circle cx="447.5" cy="101.30" r="2" fill="#1f77b4"/><polygon points="447.5,88.29588431590656 452.5,93.29588431590656 447.5,98.29588431590656 442.5,93.29588431590656" fill="#dca100" stroke="black" stroke-width="0.5"/><circle cx="535.0" cy="104.35" r="2" fill="#1f77b4"/><polygon points="535.0,91.35483870967742 540.0,96.35483870967742 535.0,101.35483870967742 530.0,96.35483870967742" fill="#dca100" stroke="black" stroke-width="0.5"/><circle cx="622.5" cy="104.35" r="2" fill="#1f77b4"/><polygon points="622.5,91.35483870967742 627.5,96.35483870967742 622.5,101.35483870967742 617.5,96.35483870967742" fill="#dca100" stroke="black" stroke-width="0.5"/><circle cx="710.0" cy="104.35" r="2" fill="#1f77b4"/><polygon points="710.0,91.35483870967742 715.0,96.35483870967742 710.0,101.35483870967742 705.0,96.35483870967742" fill="#dca100" stroke="black" stroke-width="0.5"/><text x="716" y="12" font-size="9" text-anchor="end" fill="#1f77b4" font-family="sans-serif">rusage.default.wall_s (lower=better)</text><polyline points="10.0,107.41 97.5,107.41 185.0,12.59 272.5,107.41 360.0,98.24 447.5,101.30 535.0,104.35 622.5,104.35 710.0,104.35" fill="none" stroke="#ff7f0e" stroke-width="1.2"/><circle cx="10.0" cy="107.41" r="2" fill="#ff7f0e"/><polygon points="10.0,94.41379310344828 5.0,104.41379310344828 15.0,104.41379310344828" fill="#2ca02c" stroke="black" stroke-width="0.5"/><circle cx="97.5" cy="107.41" r="2" fill="#ff7f0e"/><polygon points="97.5,94.41379310344828 102.5,99.41379310344828 97.5,104.41379310344828 92.5,99.41379310344828" fill="#dca100" stroke="black" stroke-width="0.5"/><circle cx="185.0" cy="12.59" r="2" fill="#ff7f0e"/><polygon points="185.0,-0.41379310344825626 190.0,4.586206896551744 185.0,9.586206896551744 180.0,4.586206896551744" fill="#dca100" stroke="black" stroke-width="0.5"/><circle cx="272.5" cy="107.41" r="2" fill="#ff7f0e"/><polygon points="272.5,94.41379310344828 277.5,99.41379310344828 272.5,104.41379310344828 267.5,99.41379310344828" fill="#dca100" stroke="black" stroke-width="0.5"/><circle cx="360.0" cy="98.24" r="2" fill="#ff7f0e"/><polygon points="360.0,85.23692992213572 365.0,90.23692992213572 360.0,95.23692992213572 355.0,90.23692992213572" fill="#dca100" stroke="black" stroke-width="0.5"/><circle cx="447.5" cy="101.30" r="2" fill="#ff7f0e"/><polygon points="447.5,88.29588431590656 452.5,93.29588431590656 447.5,98.29588431590656 442.5,93.29588431590656" fill="#dca100" stroke="black" stroke-width="0.5"/><circle cx="535.0" cy="104.35" r="2" fill="#ff7f0e"/><polygon points="535.0,91.35483870967742 540.0,96.35483870967742 535.0,101.35483870967742 530.0,96.35483870967742" fill="#dca100" stroke="black" stroke-width="0.5"/><circle cx="622.5" cy="104.35" r="2" fill="#ff7f0e"/><polygon points="622.5,91.35483870967742 627.5,96.35483870967742 622.5,101.35483870967742 617.5,96.35483870967742" fill="#dca100" stroke="black" stroke-width="0.5"/><circle cx="710.0" cy="104.35" r="2" fill="#ff7f0e"/><polygon points="710.0,91.35483870967742 715.0,96.35483870967742 710.0,101.35483870967742 705.0,96.35483870967742" fill="#dca100" stroke="black" stroke-width="0.5"/><text x="716" y="23" font-size="9" text-anchor="end" fill="#ff7f0e" font-family="sans-serif">rusage.wall_s (lower=better)</text></g><g transform="translate(40,856)"><text x="10.0" y="10" font-size="8" fill="#2ca02c" text-anchor="middle" font-family="monospace" transform="rotate(45 10.0 10)">edca85f</text><text x="97.5" y="10" font-size="8" fill="#222" text-anchor="middle" font-family="monospace" transform="rotate(45 97.5 10)">90ce69c</text><text x="185.0" y="10" font-size="8" fill="#222" text-anchor="middle" font-family="monospace" transform="rotate(45 185.0 10)">90ce69c</text><text x="272.5" y="10" font-size="8" fill="#222" text-anchor="middle" font-family="monospace" transform="rotate(45 272.5 10)">1856b24</text><text x="360.0" y="10" font-size="8" fill="#222" text-anchor="middle" font-family="monospace" transform="rotate(45 360.0 10)">a166d07</text><text x="447.5" y="10" font-size="8" fill="#222" text-anchor="middle" font-family="monospace" transform="rotate(45 447.5 10)">a166d07</text><text x="535.0" y="10" font-size="8" fill="#222" text-anchor="middle" font-family="monospace" transform="rotate(45 535.0 10)">a166d07</text><text x="622.5" y="10" font-size="8" fill="#222" text-anchor="middle" font-family="monospace" transform="rotate(45 622.5 10)">a166d07</text><text x="710.0" y="10" font-size="8" fill="#222" text-anchor="middle" font-family="monospace" transform="rotate(45 710.0 10)">a166d07</text></g><g transform="translate(540,892)"><text x="0" y="0" font-size="9" font-family="sans-serif">decisions:</text><polygon points="60,-9 55,1 65,1" fill="#2ca02c" stroke="black" stroke-width="0.5"/><text x="68" y="0" font-size="9" font-family="sans-serif">KEEP</text><polygon points="125,1 120,-9 130,-9" fill="#d62728" stroke="black" stroke-width="0.5"/><text x="133" y="0" font-size="9" font-family="sans-serif">DISCARD</text><polygon points="190,-9 195,-4 190,1 185,-4" fill="#dca100" stroke="black" stroke-width="0.5"/><text x="198" y="0" font-size="9" font-family="sans-serif">ESCALATE</text></g></svg>
