<?xml version="1.0" encoding="UTF-8"?>
<svg xmlns="http://www.w3.org/2000/svg" version="1.1" width="780" height="5460" viewBox="0 0 780 5460"><text x="40" y="18" font-size="13" font-family="sans-serif" font-weight="bold">benchmarkmapmanager -- LXC armv8-debian-13-armv8/odroid-n2 (armv8-processor-rev-4-v8l, aarch64, n=1)</text><g transform="translate(40,28)"><rect x="0" y="0" width="720" height="120" fill="white" stroke="#888" stroke-width="0.5"/><text x="4" y="-4" font-size="11" font-family="sans-serif">binary_size_bytes</text><text x="2" y="10" font-size="8" fill="#444" font-family="sans-serif">1.07e+06</text><text x="2" y="118" font-size="8" fill="#444" font-family="sans-serif">1.07e+06</text><line x1="360.0" y1="0" x2="360.0" y2="120" stroke="#2ca02c" stroke-width="0.7" stroke-dasharray="3,2"/><polyline points="360.0,60.00" fill="none" stroke="#1f77b4" stroke-width="1.2"/><circle cx="360.0" cy="60.00" r="2" fill="#1f77b4"/><polygon points="360.0,47.0 355.0,57.0 365.0,57.0" fill="#2ca02c" stroke="black" stroke-width="0.5"/><text x="716" y="12" font-size="9" text-anchor="end" fill="#1f77b4" font-family="sans-serif">binary-size.binary_size_bytes (lower=better)</text></g><g transform="translate(40,166)"><rect x="0" y="0" width="720" height="120" fill="white" stroke="#888" stroke-width="0.5"/><text x="4" y="-4" font-size="11" font-family="sans-serif">callgrind_ir</text><text x="2" y="10" font-size="8" fill="#444" font-family="sans-serif">2.14e+05</text><text x="2" y="118" font-size="8" fill="#444" font-family="sans-serif">2.14e+05</text><line x1="360.0" y1="0" x2="360.0" y2="120" stroke="#2ca02c" stroke-width="0.7" stroke-dasharray="3,2"/><polyline points="360.0,60.00" fill="none" stroke="#1f77b4" stroke-width="1.2"/><circle cx="360.0" cy="60.00" r="2" fill="#1f77b4"/><polygon points="360.0,47.0 355.0,57.0 365.0,57.0" fill="#2ca02c" stroke="black" stroke-width="0.5"/><text x="716" y="12" font-size="9" text-anchor="end" fill="#1f77b4" font-family="sans-serif">callgrind.callgrind_ir (lower=better)</text></g><g transform="translate(40,304)"><rect x="0" y="0" width="720" height="120" fill="white" stroke="#888" stroke-width="0.5"/><text x="4" y="-4" font-size="11" font-family="sans-serif">max_rss_kb</text><text x="2" y="10" font-size="8" fill="#444" font-family="sans-serif">6.15e+03</text><text x="2" y="118" font-size="8" fill="#444" font-family="sans-serif">6.15e+03</text><line x1="360.0" y1="0" x2="360.0" y2="120" stroke="#2ca02c" stroke-width="0.7" stroke-dasharray="3,2"/><polyline points="360.0,60.00" fill="none" stroke="#1f77b4" stroke-width="1.2"/><circle cx="360.0" cy="60.00" r="2" fill="#1f77b4"/><polygon points="360.0,47.0 355.0,57.0 365.0,57.0" fill="#2ca02c" stroke="black" stroke-width="0.5"/><text x="716" y="12" font-size="9" text-anchor="end" fill="#1f77b4" font-family="sans-serif">rusage.max_rss_kb (lower=better)</text></g><g transform="translate(40,442)"><rect x="0" y="0" width="720" height="120" fill="white" stroke="#888" stroke-width="0.5"/><text x="4" y="-4" font-size="11" font-family="sans-serif">p100_bytes_sent</text><text x="2" y="10" font-size="8" fill="#444" font-family="sans-serif">1.47e+08</text><text x="2" y="118" font-size="8" fill="#444" font-family="sans-serif">1.47e+08</text><line x1="360.0" y1="0" x2="360.0" y2="120" stroke="#2ca02c" stroke-width="0.7" stroke-dasharray="3,2"/><polyline points="360.0,60.00" fill="none" stroke="#1f77b4" stroke-width="1.2"/><circle cx="360.0" cy="60.00" r="2" fill="#1f77b4"/><polygon points="360.0,47.0 355.0,57.0 365.0,57.0" fill="#2ca02c" stroke="black" stroke-width="0.5"/><text x="716" y="12" font-size="9" text-anchor="end" fill="#1f77b4" font-family="sans-serif">rusage.p100_bytes_sent (lower=better)</text></g><g transform="translate(40,580)"><rect x="0" y="0" width="720" height="120" fill="white" stroke="#888" stroke-width="0.5"/><text x="4" y="-4" font-size="11" font-family="sans-serif">p100_median_tick_ns</text><text x="2" y="10" font-size="8" fill="#444" font-family="sans-serif">4.81e+05</text><text x="2" y="118" font-size="8" fill="#444" font-family="sans-serif">4.81e+05</text><line x1="360.0" y1="0" x2="360.0" y2="120" stroke="#2ca02c" stroke-width="0.7" stroke-dasharray="3,2"/><polyline points="360.0,60.00" fill="none" stroke="#1f77b4" stroke-width="1.2"/><circle cx="360.0" cy="60.00" r="2" fill="#1f77b4"/><polygon points="360.0,47.0 355.0,57.0 365.0,57.0" fill="#2ca02c" stroke="black" stroke-width="0.5"/><text x="716" y="12" font-size="9" text-anchor="end" fill="#1f77b4" font-family="sans-serif">rusage.p100_median_tick_ns (lower=better)</text></g><g transform="translate(40,718)"><rect x="0" y="0" width="720" height="120" fill="white" stroke="#888" stroke-width="0.5"/><text x="4" y="-4" font-size="11" font-family="sans-serif">p100_p95_tick_ns</text><text x="2" y="10" font-size="8" fill="#444" font-family="sans-serif">4.96e+05</text><text x="2" y="118" font-size="8" fill="#444" font-family="sans-serif">4.96e+05</text><line x1="360.0" y1="0" x2="360.0" y2="120" stroke="#2ca02c" stroke-width="0.7" stroke-dasharray="3,2"/><polyline points="360.0,60.00" fill="none" stroke="#1f77b4" stroke-width="1.2"/><circle cx="360.0" cy="60.00" r="2" fill="#1f77b4"/><polygon points="360.0,47.0 355.0,57.0 365.0,57.0" fill="#2ca02c" stroke="black" stroke-width="0.5"/><text x="716" y="12" font-size="9" text-anchor="end" fill="#1f77b4" font-family="sans-serif">rusage.p100_p95_tick_ns (lower=better)</text></g><g transform="translate(40,856)"><rect x="0" y="0" width="720" height="120" fill="white" stroke="#888" stroke-width="0.5"/><text x="4" y="-4" font-size="11" font-family="sans-serif">p100_ticks</text><text x="2" y="10" font-size="8" fill="#444" font-family="sans-serif">4.95e+03</text><text x="2" y="118" font-size="8" fill="#444" font-family="sans-serif">4.94e+03</text><line x1="360.0" y1="0" x2="360.0" y2="120" stroke="#2ca02c" stroke-width="0.7" stroke-dasharray="3,2"/><polyline points="360.0,60.00" fill="none" stroke="#1f77b4" stroke-width="1.2"/><circle cx="360.0" cy="60.00" r="2" fill="#1f77b4"/><polygon points="360.0,47.0 355.0,57.0 365.0,57.0" fill="#2ca02c" stroke="black" stroke-width="0.5"/><text x="716" y="12" font-size="9" text-anchor="end" fill="#1f77b4" font-family="sans-serif">rusage.p100_ticks (higher=better)</text></g><g transform="translate(40,994)"><rect x="0" y="0" width="720" height="120" fill="white" stroke="#888" stroke-width="0.5"/><text x="4" y="-4" font-size="11" font-family="sans-serif">p100_ticks_per_s</text><text x="2" y="10" font-size="8" fill="#444" font-family="sans-serif">2.47e+03</text><text x="2" y="118" font-size="8" fill="#444" font-family="sans-serif">2.47e+03</text><line x1="360.0" y1="0" x2="360.0" y2="120" stroke="#2ca02c" stroke-width="0.7" stroke-dasharray="3,2"/><polyline points="360.0,60.00" fill="none" stroke="#1f77b4" stroke-width="1.2"/><circle cx="360.0" cy="60.00" r="2" fill="#1f77b4"/><polygon points="360.0,47.0 355.0,57.0 365.0,57.0" fill="#2ca02c" stroke="black" stroke-width="0.5"/><text x="716" y="12" font-size="9" text-anchor="end" fill="#1f77b4" font-family="sans-serif">rusage.p100_ticks_per_s (higher=better)</text></g><g transform="translate(40,1132)"><rect x="0" y="0" width="720" height="120" fill="white" stroke="#888" stroke-width="0.5"/><text x="4" y="-4" font-size="11" font-family="sans-serif">p10_bytes_sent</text><text x="2" y="10" font-size="8" fill="#444" font-family="sans-serif">2.14e+07</text><text x="2" y="118" font-size="8" fill="#444" font-family="sans-serif">2.14e+07</text><line x1="360.0" y1="0" x2="360.0" y2="120" stroke="#2ca02c" stroke-width="0.7" stroke-dasharray="3,2"/><polyline points="360.0,60.00" fill="none" stroke="#1f77b4" stroke-width="1.2"/><circle cx="360.0" cy="60.00" r="2" fill="#1f77b4"/><polygon points="360.0,47.0 355.0,57.0 365.0,57.0" fill="#2ca02c" stroke="black" stroke-width="0.5"/><text x="716" y="12" font-size="9" text-anchor="end" fill="#1f77b4" font-family="sans-serif">rusage.p10_bytes_sent (lower=better)</text></g><g transform="translate(40,1270)"><rect x="0" y="0" width="720" height="120" fill="white" stroke="#888" stroke-width="0.5"/><text x="4" y="-4" font-size="11" font-family="sans-serif">p10_median_tick_ns</text><text x="2" y="10" font-size="8" fill="#444" font-family="sans-serif">5.96e+03</text><text x="2" y="118" font-size="8" fill="#444" font-family="sans-serif">5.96e+03</text><line x1="360.0" y1="0" x2="360.0" y2="120" stroke="#2ca02c" stroke-width="0.7" stroke-dasharray="3,2"/><polyline points="360.0,60.00" fill="none" stroke="#1f77b4" stroke-width="1.2"/><circle cx="360.0" cy="60.00" r="2" fill="#1f77b4"/><polygon points="360.0,47.0 355.0,57.0 365.0,57.0" fill="#2ca02c" stroke="black" stroke-width="0.5"/><text x="716" y="12" font-size="9" text-anchor="end" fill="#1f77b4" font-family="sans-serif">rusage.p10_median_tick_ns (lower=better)</text></g><g transform="translate(40,1408)"><rect x="0" y="0" width="720" height="120" fill="white" stroke="#888" stroke-width="0.5"/><text x="4" y="-4" font-size="11" font-family="sans-serif">p10_p95_tick_ns</text><text x="2" y="10" font-size="8" fill="#444" font-family="sans-serif">6.29e+03</text><text x="2" y="118" font-size="8" fill="#444" font-family="sans-serif">6.29e+03</text><line x1="360.0" y1="0" x2="360.0" y2="120" stroke="#2ca02c" stroke-width="0.7" stroke-dasharray="3,2"/><polyline points="360.0,60.00" fill="none" stroke="#1f77b4" stroke-width="1.2"/><circle cx="360.0" cy="60.00" r="2" fill="#1f77b4"/><polygon points="360.0,47.0 355.0,57.0 365.0,57.0" fill="#2ca02c" stroke="black" stroke-width="0.5"/><text x="716" y="12" font-size="9" text-anchor="end" fill="#1f77b4" font-family="sans-serif">rusage.p10_p95_tick_ns (lower=better)</text></g><g transform="translate(40,1546)"><rect x="0" y="0" width="720" height="120" fill="white" stroke="#888" stroke-width="0.5"/><text x="4" y="-4" font-size="11" font-family="sans-serif">p10_ticks</text><text x="2" y="10" font-size="8" fill="#444" font-family="sans-serif">6.3e+04</text><text x="2" y="118" font-size="8" fill="#444" font-family="sans-serif">6.3e+04</text><line x1="360.0" y1="0" x2="360.0" y2="120" stroke="#2ca02c" stroke-width="0.7" stroke-dasharray="3,2"/><polyline points="360.0,60.00" fill="none" stroke="#1f77b4" stroke-width="1.2"/><circle cx="360.0" cy="60.00" r="2" fill="#1f77b4"/><polygon points="360.0,47.0 355.0,57.0 365.0,57.0" fill="#2ca02c" stroke="black" stroke-width="0.5"/><text x="716" y="12" font-size="9" text-anchor="end" fill="#1f77b4" font-family="sans-serif">rusage.p10_ticks (higher=better)</text></g><g transform="translate(40,1684)"><rect x="0" y="0" width="720" height="120" fill="white" stroke="#888" stroke-width="0.5"/><text x="4" y="-4" font-size="11" font-family="sans-serif">p10_ticks_per_s</text><text x="2" y="10" font-size="8" fill="#444" font-family="sans-serif">3.11e+04</text><text x="2" y="118" font-size="8" fill="#444" font-family="sans-serif">3.11e+04</text><line x1="360.0" y1="0" x2="360.0" y2="120" stroke="#2ca02c" stroke-width="0.7" stroke-dasharray="3,2"/><polyline points="360.0,60.00" fill="none" stroke="#1f77b4" stroke-width="1.2"/><circle cx="360.0" cy="60.00" r="2" fill="#1f77b4"/><polygon points="360.0,47.0 355.0,57.0 365.0,57.0" fill="#2ca02c" stroke="black" stroke-width="0.5"/><text x="716" y="12" font-size="9" text-anchor="end" fill="#1f77b4" font-family="sans-serif">rusage.p10_ticks_per_s (higher=better)</text></g><g transform="translate(40,1822)"><rect x="0" y="0" width="720" height="120" fill="white" stroke="#888" stroke-width="0.5"/><text x="4" y="-4" font-size="11" font-family="sans-serif">p200_bytes_sent</text><text x="2" y="10" font-size="8" fill="#444" font-family="sans-serif">1.41e+08</text><text x="2" y="118" font-size="8" fill="#444" font-family="sans-serif">1.41e+08</text><line x1="360.0" y1="0" x2="360.0" y2="120" stroke="#2ca02c" stroke-width="0.7" stroke-dasharray="3,2"/><polyline points="360.0,60.00" fill="none" stroke="#1f77b4" stroke-width="1.2"/><circle cx="360.0" cy="60.00" r="2" fill="#1f77b4"/><polygon points="360.0,47.0 355.0,57.0 365.0,57.0" fill="#2ca02c" stroke="black" stroke-width="0.5"/><text x="716" y="12" font-size="9" text-anchor="end" fill="#1f77b4" font-family="sans-serif">rusage.p200_bytes_sent (lower=better)</text></g><g transform="translate(40,1960)"><rect x="0" y="0" width="720" height="120" fill="white" stroke="#888" stroke-width="0.5"/><text x="4" y="-4" font-size="11" font-family="sans-serif">p200_median_tick_ns</text><text x="2" y="10" font-size="8" fill="#444" font-family="sans-serif">1.98e+06</text><text x="2" y="118" font-size="8" fill="#444" font-family="sans-serif">1.98e+06</text><line x1="360.0" y1="0" x2="360.0" y2="120" stroke="#2ca02c" stroke-width="0.7" stroke-dasharray="3,2"/><polyline points="360.0,60.00" fill="none" stroke="#1f77b4" stroke-width="1.2"/><circle cx="360.0" cy="60.00" r="2" fill="#1f77b4"/><polygon points="360.0,47.0 355.0,57.0 365.0,57.0" fill="#2ca02c" stroke="black" stroke-width="0.5"/><text x="716" y="12" font-size="9" text-anchor="end" fill="#1f77b4" font-family="sans-serif">rusage.p200_median_tick_ns (lower=better)</text></g><g transform="translate(40,2098)"><rect x="0" y="0" width="720" height="120" fill="white" stroke="#888" stroke-width="0.5"/><text x="4" y="-4" font-size="11" font-family="sans-serif">p200_p95_tick_ns</text><text x="2" y="10" font-size="8" fill="#444" font-family="sans-serif">2.01e+06</text><text x="2" y="118" font-size="8" fill="#444" font-family="sans-serif">2.01e+06</text><line x1="360.0" y1="0" x2="360.0" y2="120" stroke="#2ca02c" stroke-width="0.7" stroke-dasharray="3,2"/><polyline points="360.0,60.00" fill="none" stroke="#1f77b4" stroke-width="1.2"/><circle cx="360.0" cy="60.00" r="2" fill="#1f77b4"/><polygon points="360.0,47.0 355.0,57.0 365.0,57.0" fill="#2ca02c" stroke="black" stroke-width="0.5"/><text x="716" y="12" font-size="9" text-anchor="end" fill="#1f77b4" font-family="sans-serif">rusage.p200_p95_tick_ns (lower=better)</text></g><g transform="translate(40,2236)"><rect x="0" y="0" width="720" height="120" fill="white" stroke="#888" stroke-width="0.5"/><text x="4" y="-4" font-size="11" font-family="sans-serif">p200_ticks</text><text x="2" y="10" font-size="8" fill="#444" font-family="sans-serif">1.29e+03</text><text x="2" y="118" font-size="8" fill="#444" font-family="sans-serif">1.29e+03</text><line x1="360.0" y1="0" x2="360.0" y2="120" stroke="#2ca02c" stroke-width="0.7" stroke-dasharray="3,2"/><polyline points="360.0,60.00" fill="none" stroke="#1f77b4" stroke-width="1.2"/><circle cx="360.0" cy="60.00" r="2" fill="#1f77b4"/><polygon points="360.0,47.0 355.0,57.0 365.0,57.0" fill="#2ca02c" stroke="black" stroke-width="0.5"/><text x="716" y="12" font-size="9" text-anchor="end" fill="#1f77b4" font-family="sans-serif">rusage.p200_ticks (higher=better)</text></g><g transform="translate(40,2374)"><rect x="0" y="0" width="720" height="120" fill="white" stroke="#888" stroke-width="0.5"/><text x="4" y="-4" font-size="11" font-family="sans-serif">p200_ticks_per_s</text><text x="2" y="10" font-size="8" fill="#444" font-family="sans-serif">645</text><text x="2" y="118" font-size="8" fill="#444" font-family="sans-serif">643</text><line x1="360.0" y1="0" x2="360.0" y2="120" stroke="#2ca02c" stroke-width="0.7" stroke-dasharray="3,2"/><polyline points="360.0,60.00" fill="none" stroke="#1f77b4" stroke-width="1.2"/><circle cx="360.0" cy="60.00" r="2" fill="#1f77b4"/><polygon points="360.0,47.0 355.0,57.0 365.0,57.0" fill="#2ca02c" stroke="black" stroke-width="0.5"/><text x="716" y="12" font-size="9" text-anchor="end" fill="#1f77b4" font-family="sans-serif">rusage.p200_ticks_per_s (higher=better)</text></g><g transform="translate(40,2512)"><rect x="0" y="0" width="720" height="120" fill="white" stroke="#888" stroke-width="0.5"/><text x="4" y="-4" font-size="11" font-family="sans-serif">p20_bytes_sent</text><text x="2" y="10" font-size="8" fill="#444" font-family="sans-serif">6.48e+07</text><text x="2" y="118" font-size="8" fill="#444" font-family="sans-serif">6.48e+07</text><line x1="360.0" y1="0" x2="360.0" y2="120" stroke="#2ca02c" stroke-width="0.7" stroke-dasharray="3,2"/><polyline points="360.0,60.00" fill="none" stroke="#1f77b4" stroke-width="1.2"/><circle cx="360.0" cy="60.00" r="2" fill="#1f77b4"/><polygon points="360.0,47.0 355.0,57.0 365.0,57.0" fill="#2ca02c" stroke="black" stroke-width="0.5"/><text x="716" y="12" font-size="9" text-anchor="end" fill="#1f77b4" font-family="sans-serif">rusage.p20_bytes_sent (lower=better)</text></g><g transform="translate(40,2650)"><rect x="0" y="0" width="720" height="120" fill="white" stroke="#888" stroke-width="0.5"/><text x="4" y="-4" font-size="11" font-family="sans-serif">p20_median_tick_ns</text><text x="2" y="10" font-size="8" fill="#444" font-family="sans-serif">2.08e+04</text><text x="2" y="118" font-size="8" fill="#444" font-family="sans-serif">2.07e+04</text><line x1="360.0" y1="0" x2="360.0" y2="120" stroke="#2ca02c" stroke-width="0.7" stroke-dasharray="3,2"/><polyline points="360.0,60.00" fill="none" stroke="#1f77b4" stroke-width="1.2"/><circle cx="360.0" cy="60.00" r="2" fill="#1f77b4"/><polygon points="360.0,47.0 355.0,57.0 365.0,57.0" fill="#2ca02c" stroke="black" stroke-width="0.5"/><text x="716" y="12" font-size="9" text-anchor="end" fill="#1f77b4" font-family="sans-serif">rusage.p20_median_tick_ns (lower=better)</text></g><g transform="translate(40,2788)"><rect x="0" y="0" width="720" height="120" fill="white" stroke="#888" stroke-width="0.5"/><text x="4" y="-4" font-size="11" font-family="sans-serif">p20_p95_tick_ns</text><text x="2" y="10" font-size="8" fill="#444" font-family="sans-serif">2.14e+04</text><text x="2" y="118" font-size="8" fill="#444" font-family="sans-serif">2.14e+04</text><line x1="360.0" y1="0" x2="360.0" y2="120" stroke="#2ca02c" stroke-width="0.7" stroke-dasharray="3,2"/><polyline points="360.0,60.00" fill="none" stroke="#1f77b4" stroke-width="1.2"/><circle cx="360.0" cy="60.00" r="2" fill="#1f77b4"/><polygon points="360.0,47.0 355.0,57.0 365.0,57.0" fill="#2ca02c" stroke="black" stroke-width="0.5"/><text x="716" y="12" font-size="9" text-anchor="end" fill="#1f77b4" font-family="sans-serif">rusage.p20_p95_tick_ns (lower=better)</text></g><g transform="translate(40,2926)"><rect x="0" y="0" width="720" height="120" fill="white" stroke="#888" stroke-width="0.5"/><text x="4" y="-4" font-size="11" font-family="sans-serif">p20_ticks</text><text x="2" y="10" font-size="8" fill="#444" font-family="sans-serif">5.08e+04</text><text x="2" y="118" font-size="8" fill="#444" font-family="sans-serif">5.08e+04</text><line x1="360.0" y1="0" x2="360.0" y2="120" stroke="#2ca02c" stroke-width="0.7" stroke-dasharray="3,2"/><polyline points="360.0,60.00" fill="none" stroke="#1f77b4" stroke-width="1.2"/><circle cx="360.0" cy="60.00" r="2" fill="#1f77b4"/><polygon points="360.0,47.0 355.0,57.0 365.0,57.0" fill="#2ca02c" stroke="black" stroke-width="0.5"/><text x="716" y="12" font-size="9" text-anchor="end" fill="#1f77b4" font-family="sans-serif">rusage.p20_ticks (higher=better)</text></g><g transform="translate(40,3064)"><rect x="0" y="0" width="720" height="120" fill="white" stroke="#888" stroke-width="0.5"/><text x="4" y="-4" font-size="11" font-family="sans-serif">p20_ticks_per_s</text><text x="2" y="10" font-size="8" fill="#444" font-family="sans-serif">2.54e+04</text><text x="2" y="118" font-size="8" fill="#444" font-family="sans-serif">2.54e+04</text><line x1="360.0" y1="0" x2="360.0" y2="120" stroke="#2ca02c" stroke-width="0.7" stroke-dasharray="3,2"/><polyline points="360.0,60.00" fill="none" stroke="#1f77b4" stroke-width="1.2"/><circle cx="360.0" cy="60.00" r="2" fill="#1f77b4"/><polygon points="360.0,47.0 355.0,57.0 365.0,57.0" fill="#2ca02c" stroke="black" stroke-width="0.5"/><text x="716" y="12" font-size="9" text-anchor="end" fill="#1f77b4" font-family="sans-serif">rusage.p20_ticks_per_s (higher=better)</text></g><g transform="translate(40,3202)"><rect x="0" y="0" width="720" height="120" fill="white" stroke="#888" stroke-width="0.5"/><text x="4" y="-4" font-size="11" font-family="sans-serif">p300_bytes_sent</text><text x="2" y="10" font-size="8" fill="#444" font-family="sans-serif">1.47e+08</text><text x="2" y="118" font-size="8" fill="#444" font-family="sans-serif">1.47e+08</text><line x1="360.0" y1="0" x2="360.0" y2="120" stroke="#2ca02c" stroke-width="0.7" stroke-dasharray="3,2"/><polyline points="360.0,60.00" fill="none" stroke="#1f77b4" stroke-width="1.2"/><circle cx="360.0" cy="60.00" r="2" fill="#1f77b4"/><polygon points="360.0,47.0 355.0,57.0 365.0,57.0" fill="#2ca02c" stroke="black" stroke-width="0.5"/><text x="716" y="12" font-size="9" text-anchor="end" fill="#1f77b4" font-family="sans-serif">rusage.p300_bytes_sent (lower=better)</text></g><g transform="translate(40,3340)"><rect x="0" y="0" width="720" height="120" fill="white" stroke="#888" stroke-width="0.5"/><text x="4" y="-4" font-size="11" font-family="sans-serif">p300_median_tick_ns</text><text x="2" y="10" font-size="8" fill="#444" font-family="sans-serif">3.99e+06</text><text x="2" y="118" font-size="8" fill="#444" font-family="sans-serif">3.99e+06</text><line x1="360.0" y1="0" x2="360.0" y2="120" stroke="#2ca02c" stroke-width="0.7" stroke-dasharray="3,2"/><polyline points="360.0,60.00" fill="none" stroke="#1f77b4" stroke-width="1.2"/><circle cx="360.0" cy="60.00" r="2" fill="#1f77b4"/><polygon points="360.0,47.0 355.0,57.0 365.0,57.0" fill="#2ca02c" stroke="black" stroke-width="0.5"/><text x="716" y="12" font-size="9" text-anchor="end" fill="#1f77b4" font-family="sans-serif">rusage.p300_median_tick_ns (lower=better)</text></g><g transform="translate(40,3478)"><rect x="0" y="0" width="720" height="120" fill="white" stroke="#888" stroke-width="0.5"/><text x="4" y="-4" font-size="11" font-family="sans-serif">p300_p95_tick_ns</text><text x="2" y="10" font-size="8" fill="#444" font-family="sans-serif">4.01e+06</text><text x="2" y="118" font-size="8" fill="#444" font-family="sans-serif">4.01e+06</text><line x1="360.0" y1="0" x2="360.0" y2="120" stroke="#2ca02c" stroke-width="0.7" stroke-dasharray="3,2"/><polyline points="360.0,60.00" fill="none" stroke="#1f77b4" stroke-width="1.2"/><circle cx="360.0" cy="60.00" r="2" fill="#1f77b4"/><polygon points="360.0,47.0 355.0,57.0 365.0,57.0" fill="#2ca02c" stroke="black" stroke-width="0.5"/><text x="716" y="12" font-size="9" text-anchor="end" fill="#1f77b4" font-family="sans-serif">rusage.p300_p95_tick_ns (lower=better)</text></g><g transform="translate(40,3616)"><rect x="0" y="0" width="720" height="120" fill="white" stroke="#888" stroke-width="0.5"/><text x="4" y="-4" font-size="11" font-family="sans-serif">p300_ticks</text><text x="2" y="10" font-size="8" fill="#444" font-family="sans-serif">533</text><text x="2" y="118" font-size="8" fill="#444" font-family="sans-serif">531</text><line x1="360.0" y1="0" x2="360.0" y2="120" stroke="#2ca02c" stroke-width="0.7" stroke-dasharray="3,2"/><polyline points="360.0,60.00" fill="none" stroke="#1f77b4" stroke-width="1.2"/><circle cx="360.0" cy="60.00" r="2" fill="#1f77b4"/><polygon points="360.0,47.0 355.0,57.0 365.0,57.0" fill="#2ca02c" stroke="black" stroke-width="0.5"/><text x="716" y="12" font-size="9" text-anchor="end" fill="#1f77b4" font-family="sans-serif">rusage.p300_ticks (higher=better)</text></g><g transform="translate(40,3754)"><rect x="0" y="0" width="720" height="120" fill="white" stroke="#888" stroke-width="0.5"/><text x="4" y="-4" font-size="11" font-family="sans-serif">p300_ticks_per_s</text><text x="2" y="10" font-size="8" fill="#444" font-family="sans-serif">267</text><text x="2" y="118" font-size="8" fill="#444" font-family="sans-serif">265</text><line x1="360.0" y1="0" x2="360.0" y2="120" stroke="#2ca02c" stroke-width="0.7" stroke-dasharray="3,2"/><polyline points="360.0,60.00" fill="none" stroke="#1f77b4" stroke-width="1.2"/><circle cx="360.0" cy="60.00" r="2" fill="#1f77b4"/><polygon points="360.0,47.0 355.0,57.0 365.0,57.0" fill="#2ca02c" stroke="black" stroke-width="0.5"/><text x="716" y="12" font-size="9" text-anchor="end" fill="#1f77b4" font-family="sans-serif">rusage.p300_ticks_per_s (higher=better)</text></g><g transform="translate(40,3892)"><rect x="0" y="0" width="720" height="120" fill="white" stroke="#888" stroke-width="0.5"/><text x="4" y="-4" font-size="11" font-family="sans-serif">p50_bytes_sent</text><text x="2" y="10" font-size="8" fill="#444" font-family="sans-serif">1.4e+08</text><text x="2" y="118" font-size="8" fill="#444" font-family="sans-serif">1.4e+08</text><line x1="360.0" y1="0" x2="360.0" y2="120" stroke="#2ca02c" stroke-width="0.7" stroke-dasharray="3,2"/><polyline points="360.0,60.00" fill="none" stroke="#1f77b4" stroke-width="1.2"/><circle cx="360.0" cy="60.00" r="2" fill="#1f77b4"/><polygon points="360.0,47.0 355.0,57.0 365.0,57.0" fill="#2ca02c" stroke="black" stroke-width="0.5"/><text x="716" y="12" font-size="9" text-anchor="end" fill="#1f77b4" font-family="sans-serif">rusage.p50_bytes_sent (lower=better)</text></g><g transform="translate(40,4030)"><rect x="0" y="0" width="720" height="120" fill="white" stroke="#888" stroke-width="0.5"/><text x="4" y="-4" font-size="11" font-family="sans-serif">p50_median_tick_ns</text><text x="2" y="10" font-size="8" fill="#444" font-family="sans-serif">1.21e+05</text><text x="2" y="118" font-size="8" fill="#444" font-family="sans-serif">1.21e+05</text><line x1="360.0" y1="0" x2="360.0" y2="120" stroke="#2ca02c" stroke-width="0.7" stroke-dasharray="3,2"/><polyline points="360.0,60.00" fill="none" stroke="#1f77b4" stroke-width="1.2"/><circle cx="360.0" cy="60.00" r="2" fill="#1f77b4"/><polygon points="360.0,47.0 355.0,57.0 365.0,57.0" fill="#2ca02c" stroke="black" stroke-width="0.5"/><text x="716" y="12" font-size="9" text-anchor="end" fill="#1f77b4" font-family="sans-serif">rusage.p50_median_tick_ns (lower=better)</text></g><g transform="translate(40,4168)"><rect x="0" y="0" width="720" height="120" fill="white" stroke="#888" stroke-width="0.5"/><text x="4" y="-4" font-size="11" font-family="sans-serif">p50_p95_tick_ns</text><text x="2" y="10" font-size="8" fill="#444" font-family="sans-serif">1.25e+05</text><text x="2" y="118" font-size="8" fill="#444" font-family="sans-serif">1.25e+05</text><line x1="360.0" y1="0" x2="360.0" y2="120" stroke="#2ca02c" stroke-width="0.7" stroke-dasharray="3,2"/><polyline points="360.0,60.00" fill="none" stroke="#1f77b4" stroke-width="1.2"/><circle cx="360.0" cy="60.00" r="2" fill="#1f77b4"/><polygon points="360.0,47.0 355.0,57.0 365.0,57.0" fill="#2ca02c" stroke="black" stroke-width="0.5"/><text x="716" y="12" font-size="9" text-anchor="end" fill="#1f77b4" font-family="sans-serif">rusage.p50_p95_tick_ns (lower=better)</text></g><g transform="translate(40,4306)"><rect x="0" y="0" width="720" height="120" fill="white" stroke="#888" stroke-width="0.5"/><text x="4" y="-4" font-size="11" font-family="sans-serif">p50_ticks</text><text x="2" y="10" font-size="8" fill="#444" font-family="sans-serif">1.76e+04</text><text x="2" y="118" font-size="8" fill="#444" font-family="sans-serif">1.76e+04</text><line x1="360.0" y1="0" x2="360.0" y2="120" stroke="#2ca02c" stroke-width="0.7" stroke-dasharray="3,2"/><polyline points="360.0,60.00" fill="none" stroke="#1f77b4" stroke-width="1.2"/><circle cx="360.0" cy="60.00" r="2" fill="#1f77b4"/><polygon points="360.0,47.0 355.0,57.0 365.0,57.0" fill="#2ca02c" stroke="black" stroke-width="0.5"/><text x="716" y="12" font-size="9" text-anchor="end" fill="#1f77b4" font-family="sans-serif">rusage.p50_ticks (higher=better)</text></g><g transform="translate(40,4444)"><rect x="0" y="0" width="720" height="120" fill="white" stroke="#888" stroke-width="0.5"/><text x="4" y="-4" font-size="11" font-family="sans-serif">p50_ticks_per_s</text><text x="2" y="10" font-size="8" fill="#444" font-family="sans-serif">8.8e+03</text><text x="2" y="118" font-size="8" fill="#444" font-family="sans-serif">8.8e+03</text><line x1="360.0" y1="0" x2="360.0" y2="120" stroke="#2ca02c" stroke-width="0.7" stroke-dasharray="3,2"/><polyline points="360.0,60.00" fill="none" stroke="#1f77b4" stroke-width="1.2"/><circle cx="360.0" cy="60.00" r="2" fill="#1f77b4"/><polygon points="360.0,47.0 355.0,57.0 365.0,57.0" fill="#2ca02c" stroke="black" stroke-width="0.5"/><text x="716" y="12" font-size="9" text-anchor="end" fill="#1f77b4" font-family="sans-serif">rusage.p50_ticks_per_s (higher=better)</text></g><g transform="translate(40,4582)"><rect x="0" y="0" width="720" height="120" fill="white" stroke="#888" stroke-width="0.5"/><text x="4" y="-4" font-size="11" font-family="sans-serif">p5_bytes_sent</text><text x="2" y="10" font-size="8" fill="#444" font-family="sans-serif">5.4e+06</text><text x="2" y="118" font-size="8" fill="#444" font-family="sans-serif">5.4e+06</text><line x1="360.0" y1="0" x2="360.0" y2="120" stroke="#2ca02c" stroke-width="0.7" stroke-dasharray="3,2"/><polyline points="360.0,60.00" fill="none" stroke="#1f77b4" stroke-width="1.2"/><circle cx="360.0" cy="60.00" r="2" fill="#1f77b4"/><polygon points="360.0,47.0 355.0,57.0 365.0,57.0" fill="#2ca02c" stroke="black" stroke-width="0.5"/><text x="716" y="12" font-size="9" text-anchor="end" fill="#1f77b4" font-family="sans-serif">rusage.p5_bytes_sent (lower=better)</text></g><g transform="translate(40,4720)"><rect x="0" y="0" width="720" height="120" fill="white" stroke="#888" stroke-width="0.5"/><text x="4" y="-4" font-size="11" font-family="sans-serif">p5_median_tick_ns</text><text x="2" y="10" font-size="8" fill="#444" font-family="sans-serif">1.96e+03</text><text x="2" y="118" font-size="8" fill="#444" font-family="sans-serif">1.96e+03</text><line x1="360.0" y1="0" x2="360.0" y2="120" stroke="#2ca02c" stroke-width="0.7" stroke-dasharray="3,2"/><polyline points="360.0,60.00" fill="none" stroke="#1f77b4" stroke-width="1.2"/><circle cx="360.0" cy="60.00" r="2" fill="#1f77b4"/><polygon points="360.0,47.0 355.0,57.0 365.0,57.0" fill="#2ca02c" stroke="black" stroke-width="0.5"/><text x="716" y="12" font-size="9" text-anchor="end" fill="#1f77b4" font-family="sans-serif">rusage.p5_median_tick_ns (lower=better)</text></g><g transform="translate(40,4858)"><rect x="0" y="0" width="720" height="120" fill="white" stroke="#888" stroke-width="0.5"/><text x="4" y="-4" font-size="11" font-family="sans-serif">p5_p95_tick_ns</text><text x="2" y="10" font-size="8" fill="#444" font-family="sans-serif">2.5e+03</text><text x="2" y="118" font-size="8" fill="#444" font-family="sans-serif">2.5e+03</text><line x1="360.0" y1="0" x2="360.0" y2="120" stroke="#2ca02c" stroke-width="0.7" stroke-dasharray="3,2"/><polyline points="360.0,60.00" fill="none" stroke="#1f77b4" stroke-width="1.2"/><circle cx="360.0" cy="60.00" r="2" fill="#1f77b4"/><polygon points="360.0,47.0 355.0,57.0 365.0,57.0" fill="#2ca02c" stroke="black" stroke-width="0.5"/><text x="716" y="12" font-size="9" text-anchor="end" fill="#1f77b4" font-family="sans-serif">rusage.p5_p95_tick_ns (lower=better)</text></g><g transform="translate(40,4996)"><rect x="0" y="0" width="720" height="120" fill="white" stroke="#888" stroke-width="0.5"/><text x="4" y="-4" font-size="11" font-family="sans-serif">p5_ticks</text><text x="2" y="10" font-size="8" fill="#444" font-family="sans-serif">5.74e+04</text><text x="2" y="118" font-size="8" fill="#444" font-family="sans-serif">5.74e+04</text><line x1="360.0" y1="0" x2="360.0" y2="120" stroke="#2ca02c" stroke-width="0.7" stroke-dasharray="3,2"/><polyline points="360.0,60.00" fill="none" stroke="#1f77b4" stroke-width="1.2"/><circle cx="360.0" cy="60.00" r="2" fill="#1f77b4"/><polygon points="360.0,47.0 355.0,57.0 365.0,57.0" fill="#2ca02c" stroke="black" stroke-width="0.5"/><text x="716" y="12" font-size="9" text-anchor="end" fill="#1f77b4" font-family="sans-serif">rusage.p5_ticks (higher=better)</text></g><g transform="translate(40,5134)"><rect x="0" y="0" width="720" height="120" fill="white" stroke="#888" stroke-width="0.5"/><text x="4" y="-4" font-size="11" font-family="sans-serif">p5_ticks_per_s</text><text x="2" y="10" font-size="8" fill="#444" font-family="sans-serif">2.57e+04</text><text x="2" y="118" font-size="8" fill="#444" font-family="sans-serif">2.57e+04</text><line x1="360.0" y1="0" x2="360.0" y2="120" stroke="#2ca02c" stroke-width="0.7" stroke-dasharray="3,2"/><polyline points="360.0,60.00" fill="none" stroke="#1f77b4" stroke-width="1.2"/><circle cx="360.0" cy="60.00" r="2" fill="#1f77b4"/><polygon points="360.0,47.0 355.0,57.0 365.0,57.0" fill="#2ca02c" stroke="black" stroke-width="0.5"/><text x="716" y="12" font-size="9" text-anchor="end" fill="#1f77b4" font-family="sans-serif">rusage.p5_ticks_per_s (higher=better)</text></g><g transform="translate(40,5272)"><rect x="0" y="0" width="720" height="120" fill="white" stroke="#888" stroke-width="0.5"/><text x="4" y="-4" font-size="11" font-family="sans-serif">wall_s</text><text x="2" y="10" font-size="8" fill="#444" font-family="sans-serif">15.4</text><text x="2" y="118" font-size="8" fill="#444" font-family="sans-serif">13.1</text><line x1="360.0" y1="0" x2="360.0" y2="120" stroke="#2ca02c" stroke-width="0.7" stroke-dasharray="3,2"/><polyline points="360.0,60.00" fill="none" stroke="#1f77b4" stroke-width="1.2"/><circle cx="360.0" cy="60.00" r="2" fill="#1f77b4"/><polygon points="360.0,47.0 355.0,57.0 365.0,57.0" fill="#2ca02c" stroke="black" stroke-width="0.5"/><text x="716" y="12" font-size="9" text-anchor="end" fill="#1f77b4" font-family="sans-serif">rusage.wall_s (lower=better)</text></g><g transform="translate(40,5410)"><text x="360.0" y="10" font-size="8" fill="#2ca02c" text-anchor="middle" font-family="monospace" transform="rotate(45 360.0 10)">edca85f</text></g><g transform="translate(540,5446)"><text x="0" y="0" font-size="9" font-family="sans-serif">decisions:</text><polygon points="60,-9 55,1 65,1" fill="#2ca02c" stroke="black" stroke-width="0.5"/><text x="68" y="0" font-size="9" font-family="sans-serif">KEEP</text><polygon points="125,1 120,-9 130,-9" fill="#d62728" stroke="black" stroke-width="0.5"/><text x="133" y="0" font-size="9" font-family="sans-serif">DISCARD</text><polygon points="190,-9 195,-4 190,1 185,-4" fill="#dca100" stroke="black" stroke-width="0.5"/><text x="198" y="0" font-size="9" font-family="sans-serif">ESCALATE</text></g></svg>
