<?xml version="1.0" encoding="UTF-8"?>
<svg xmlns="http://www.w3.org/2000/svg" version="1.1" width="780" height="4908" viewBox="0 0 780 4908"><text x="40" y="18" font-size="13" font-family="sans-serif" font-weight="bold">benchmarkbotactions -- amd64-lxc/laptopHB (11th-gen-intel-r-core-tm-i7-11370h-3-30ghz, x86_64, n=3)</text><g transform="translate(40,28)"><rect x="0" y="0" width="720" height="120" fill="white" stroke="#888" stroke-width="0.5"/><text x="4" y="-4" font-size="11" font-family="sans-serif">b128_invol_ctx</text><text x="2" y="10" font-size="8" fill="#444" font-family="sans-serif">51.2</text><text x="2" y="118" font-size="8" fill="#444" font-family="sans-serif">48.8</text><line x1="10.0" y1="0" x2="10.0" y2="120" stroke="#2ca02c" stroke-width="0.7" stroke-dasharray="3,2"/><polyline points="710.0,60.00" fill="none" stroke="#1f77b4" stroke-width="1.2"/><circle cx="710.0" cy="60.00" r="2" fill="#1f77b4"/><polygon points="710.0,47.0 715.0,52.0 710.0,57.0 705.0,52.0" fill="#dca100" stroke="black" stroke-width="0.5"/><text x="716" y="12" font-size="9" text-anchor="end" fill="#1f77b4" font-family="sans-serif">rusage.b128_invol_ctx (lower=better)</text></g><g transform="translate(40,166)"><rect x="0" y="0" width="720" height="120" fill="white" stroke="#888" stroke-width="0.5"/><text x="4" y="-4" font-size="11" font-family="sans-serif">b128_major_pf</text><text x="2" y="10" font-size="8" fill="#444" font-family="sans-serif">1.16</text><text x="2" y="118" font-size="8" fill="#444" font-family="sans-serif">-1.16</text><line x1="10.0" y1="0" x2="10.0" y2="120" stroke="#2ca02c" stroke-width="0.7" stroke-dasharray="3,2"/><polyline points="710.0,60.00" fill="none" stroke="#1f77b4" stroke-width="1.2"/><circle cx="710.0" cy="60.00" r="2" fill="#1f77b4"/><polygon points="710.0,47.0 715.0,52.0 710.0,57.0 705.0,52.0" fill="#dca100" stroke="black" stroke-width="0.5"/><text x="716" y="12" font-size="9" text-anchor="end" fill="#1f77b4" font-family="sans-serif">rusage.b128_major_pf (lower=better)</text></g><g transform="translate(40,304)"><rect x="0" y="0" width="720" height="120" fill="white" stroke="#888" stroke-width="0.5"/><text x="4" y="-4" font-size="11" font-family="sans-serif">b128_max_rss_kb</text><text x="2" y="10" font-size="8" fill="#444" font-family="sans-serif">8.88e+04</text><text x="2" y="118" font-size="8" fill="#444" font-family="sans-serif">8.88e+04</text><line x1="10.0" y1="0" x2="10.0" y2="120" stroke="#2ca02c" stroke-width="0.7" stroke-dasharray="3,2"/><polyline points="710.0,60.00" fill="none" stroke="#1f77b4" stroke-width="1.2"/><circle cx="710.0" cy="60.00" r="2" fill="#1f77b4"/><polygon points="710.0,47.0 715.0,52.0 710.0,57.0 705.0,52.0" fill="#dca100" stroke="black" stroke-width="0.5"/><text x="716" y="12" font-size="9" text-anchor="end" fill="#1f77b4" font-family="sans-serif">rusage.b128_max_rss_kb (lower=better)</text></g><g transform="translate(40,442)"><rect x="0" y="0" width="720" height="120" fill="white" stroke="#888" stroke-width="0.5"/><text x="4" y="-4" font-size="11" font-family="sans-serif">b128_minor_pf</text><text x="2" y="10" font-size="8" fill="#444" font-family="sans-serif">1.53e+04</text><text x="2" y="118" font-size="8" fill="#444" font-family="sans-serif">1.53e+04</text><line x1="10.0" y1="0" x2="10.0" y2="120" stroke="#2ca02c" stroke-width="0.7" stroke-dasharray="3,2"/><polyline points="710.0,60.00" fill="none" stroke="#1f77b4" stroke-width="1.2"/><circle cx="710.0" cy="60.00" r="2" fill="#1f77b4"/><polygon points="710.0,47.0 715.0,52.0 710.0,57.0 705.0,52.0" fill="#dca100" stroke="black" stroke-width="0.5"/><text x="716" y="12" font-size="9" text-anchor="end" fill="#1f77b4" font-family="sans-serif">rusage.b128_minor_pf (lower=better)</text></g><g transform="translate(40,580)"><rect x="0" y="0" width="720" height="120" fill="white" stroke="#888" stroke-width="0.5"/><text x="4" y="-4" font-size="11" font-family="sans-serif">b128_sys_s</text><text x="2" y="10" font-size="8" fill="#444" font-family="sans-serif">1.21</text><text x="2" y="118" font-size="8" fill="#444" font-family="sans-serif">-1.11</text><line x1="10.0" y1="0" x2="10.0" y2="120" stroke="#2ca02c" stroke-width="0.7" stroke-dasharray="3,2"/><polyline points="710.0,60.00" fill="none" stroke="#1f77b4" stroke-width="1.2"/><circle cx="710.0" cy="60.00" r="2" fill="#1f77b4"/><polygon points="710.0,47.0 715.0,52.0 710.0,57.0 705.0,52.0" fill="#dca100" stroke="black" stroke-width="0.5"/><text x="716" y="12" font-size="9" text-anchor="end" fill="#1f77b4" font-family="sans-serif">rusage.b128_sys_s (lower=better)</text></g><g transform="translate(40,718)"><rect x="0" y="0" width="720" height="120" fill="white" stroke="#888" stroke-width="0.5"/><text x="4" y="-4" font-size="11" font-family="sans-serif">b128_tcp_retrans</text><text x="2" y="10" font-size="8" fill="#444" font-family="sans-serif">4.16</text><text x="2" y="118" font-size="8" fill="#444" font-family="sans-serif">1.84</text><line x1="10.0" y1="0" x2="10.0" y2="120" stroke="#2ca02c" stroke-width="0.7" stroke-dasharray="3,2"/><polyline points="710.0,60.00" fill="none" stroke="#1f77b4" stroke-width="1.2"/><circle cx="710.0" cy="60.00" r="2" fill="#1f77b4"/><polygon points="710.0,47.000000000000014 715.0,52.000000000000014 710.0,57.000000000000014 705.0,52.000000000000014" fill="#dca100" stroke="black" stroke-width="0.5"/><text x="716" y="12" font-size="9" text-anchor="end" fill="#1f77b4" font-family="sans-serif">rusage.b128_tcp_retrans (lower=better)</text></g><g transform="translate(40,856)"><rect x="0" y="0" width="720" height="120" fill="white" stroke="#888" stroke-width="0.5"/><text x="4" y="-4" font-size="11" font-family="sans-serif">b128_user_s</text><text x="2" y="10" font-size="8" fill="#444" font-family="sans-serif">1.3</text><text x="2" y="118" font-size="8" fill="#444" font-family="sans-serif">-1.01</text><line x1="10.0" y1="0" x2="10.0" y2="120" stroke="#2ca02c" stroke-width="0.7" stroke-dasharray="3,2"/><polyline points="710.0,60.00" fill="none" stroke="#1f77b4" stroke-width="1.2"/><circle cx="710.0" cy="60.00" r="2" fill="#1f77b4"/><polygon points="710.0,47.0 715.0,52.0 710.0,57.0 705.0,52.0" fill="#dca100" stroke="black" stroke-width="0.5"/><text x="716" y="12" font-size="9" text-anchor="end" fill="#1f77b4" font-family="sans-serif">rusage.b128_user_s (lower=better)</text></g><g transform="translate(40,994)"><rect x="0" y="0" width="720" height="120" fill="white" stroke="#888" stroke-width="0.5"/><text x="4" y="-4" font-size="11" font-family="sans-serif">b128_vol_ctx</text><text x="2" y="10" font-size="8" fill="#444" font-family="sans-serif">775</text><text x="2" y="118" font-size="8" fill="#444" font-family="sans-serif">773</text><line x1="10.0" y1="0" x2="10.0" y2="120" stroke="#2ca02c" stroke-width="0.7" stroke-dasharray="3,2"/><polyline points="710.0,60.00" fill="none" stroke="#1f77b4" stroke-width="1.2"/><circle cx="710.0" cy="60.00" r="2" fill="#1f77b4"/><polygon points="710.0,47.0 715.0,52.0 710.0,57.0 705.0,52.0" fill="#dca100" stroke="black" stroke-width="0.5"/><text x="716" y="12" font-size="9" text-anchor="end" fill="#1f77b4" font-family="sans-serif">rusage.b128_vol_ctx (lower=better)</text></g><g transform="translate(40,1132)"><rect x="0" y="0" width="720" height="120" fill="white" stroke="#888" stroke-width="0.5"/><text x="4" y="-4" font-size="11" font-family="sans-serif">b128_wall_s</text><text x="2" y="10" font-size="8" fill="#444" font-family="sans-serif">31.2</text><text x="2" y="118" font-size="8" fill="#444" font-family="sans-serif">28.8</text><line x1="10.0" y1="0" x2="10.0" y2="120" stroke="#2ca02c" stroke-width="0.7" stroke-dasharray="3,2"/><polyline points="710.0,60.00" fill="none" stroke="#1f77b4" stroke-width="1.2"/><circle cx="710.0" cy="60.00" r="2" fill="#1f77b4"/><polygon points="710.0,47.0 715.0,52.0 710.0,57.0 705.0,52.0" fill="#dca100" stroke="black" stroke-width="0.5"/><text x="716" y="12" font-size="9" text-anchor="end" fill="#1f77b4" font-family="sans-serif">rusage.b128_wall_s (lower=better)</text></g><g transform="translate(40,1270)"><rect x="0" y="0" width="720" height="120" fill="white" stroke="#888" stroke-width="0.5"/><text x="4" y="-4" font-size="11" font-family="sans-serif">b32_invol_ctx</text><text x="2" y="10" font-size="8" fill="#444" font-family="sans-serif">24.2</text><text x="2" y="118" font-size="8" fill="#444" font-family="sans-serif">21.8</text><line x1="10.0" y1="0" x2="10.0" y2="120" stroke="#2ca02c" stroke-width="0.7" stroke-dasharray="3,2"/><polyline points="710.0,60.00" fill="none" stroke="#1f77b4" stroke-width="1.2"/><circle cx="710.0" cy="60.00" r="2" fill="#1f77b4"/><polygon points="710.0,47.0 715.0,52.0 710.0,57.0 705.0,52.0" fill="#dca100" stroke="black" stroke-width="0.5"/><text x="716" y="12" font-size="9" text-anchor="end" fill="#1f77b4" font-family="sans-serif">rusage.b32_invol_ctx (lower=better)</text></g><g transform="translate(40,1408)"><rect x="0" y="0" width="720" height="120" fill="white" stroke="#888" stroke-width="0.5"/><text x="4" y="-4" font-size="11" font-family="sans-serif">b32_major_pf</text><text x="2" y="10" font-size="8" fill="#444" font-family="sans-serif">1.16</text><text x="2" y="118" font-size="8" fill="#444" font-family="sans-serif">-1.16</text><line x1="10.0" y1="0" x2="10.0" y2="120" stroke="#2ca02c" stroke-width="0.7" stroke-dasharray="3,2"/><polyline points="710.0,60.00" fill="none" stroke="#1f77b4" stroke-width="1.2"/><circle cx="710.0" cy="60.00" r="2" fill="#1f77b4"/><polygon points="710.0,47.0 715.0,52.0 710.0,57.0 705.0,52.0" fill="#dca100" stroke="black" stroke-width="0.5"/><text x="716" y="12" font-size="9" text-anchor="end" fill="#1f77b4" font-family="sans-serif">rusage.b32_major_pf (lower=better)</text></g><g transform="translate(40,1546)"><rect x="0" y="0" width="720" height="120" fill="white" stroke="#888" stroke-width="0.5"/><text x="4" y="-4" font-size="11" font-family="sans-serif">b32_max_rss_kb</text><text x="2" y="10" font-size="8" fill="#444" font-family="sans-serif">8.85e+04</text><text x="2" y="118" font-size="8" fill="#444" font-family="sans-serif">8.85e+04</text><line x1="10.0" y1="0" x2="10.0" y2="120" stroke="#2ca02c" stroke-width="0.7" stroke-dasharray="3,2"/><polyline points="710.0,60.00" fill="none" stroke="#1f77b4" stroke-width="1.2"/><circle cx="710.0" cy="60.00" r="2" fill="#1f77b4"/><polygon points="710.0,47.0 715.0,52.0 710.0,57.0 705.0,52.0" fill="#dca100" stroke="black" stroke-width="0.5"/><text x="716" y="12" font-size="9" text-anchor="end" fill="#1f77b4" font-family="sans-serif">rusage.b32_max_rss_kb (lower=better)</text></g><g transform="translate(40,1684)"><rect x="0" y="0" width="720" height="120" fill="white" stroke="#888" stroke-width="0.5"/><text x="4" y="-4" font-size="11" font-family="sans-serif">b32_minor_pf</text><text x="2" y="10" font-size="8" fill="#444" font-family="sans-serif">1.53e+04</text><text x="2" y="118" font-size="8" fill="#444" font-family="sans-serif">1.53e+04</text><line x1="10.0" y1="0" x2="10.0" y2="120" stroke="#2ca02c" stroke-width="0.7" stroke-dasharray="3,2"/><polyline points="710.0,60.00" fill="none" stroke="#1f77b4" stroke-width="1.2"/><circle cx="710.0" cy="60.00" r="2" fill="#1f77b4"/><polygon points="710.0,47.0 715.0,52.0 710.0,57.0 705.0,52.0" fill="#dca100" stroke="black" stroke-width="0.5"/><text x="716" y="12" font-size="9" text-anchor="end" fill="#1f77b4" font-family="sans-serif">rusage.b32_minor_pf (lower=better)</text></g><g transform="translate(40,1822)"><rect x="0" y="0" width="720" height="120" fill="white" stroke="#888" stroke-width="0.5"/><text x="4" y="-4" font-size="11" font-family="sans-serif">b32_sys_s</text><text x="2" y="10" font-size="8" fill="#444" font-family="sans-serif">1.2</text><text x="2" y="118" font-size="8" fill="#444" font-family="sans-serif">-1.12</text><line x1="10.0" y1="0" x2="10.0" y2="120" stroke="#2ca02c" stroke-width="0.7" stroke-dasharray="3,2"/><polyline points="710.0,60.00" fill="none" stroke="#1f77b4" stroke-width="1.2"/><circle cx="710.0" cy="60.00" r="2" fill="#1f77b4"/><polygon points="710.0,47.0 715.0,52.0 710.0,57.0 705.0,52.0" fill="#dca100" stroke="black" stroke-width="0.5"/><text x="716" y="12" font-size="9" text-anchor="end" fill="#1f77b4" font-family="sans-serif">rusage.b32_sys_s (lower=better)</text></g><g transform="translate(40,1960)"><rect x="0" y="0" width="720" height="120" fill="white" stroke="#888" stroke-width="0.5"/><text x="4" y="-4" font-size="11" font-family="sans-serif">b32_tcp_retrans</text><text x="2" y="10" font-size="8" fill="#444" font-family="sans-serif">21.2</text><text x="2" y="118" font-size="8" fill="#444" font-family="sans-serif">18.8</text><line x1="10.0" y1="0" x2="10.0" y2="120" stroke="#2ca02c" stroke-width="0.7" stroke-dasharray="3,2"/><polyline points="710.0,60.00" fill="none" stroke="#1f77b4" stroke-width="1.2"/><circle cx="710.0" cy="60.00" r="2" fill="#1f77b4"/><polygon points="710.0,47.0 715.0,52.0 710.0,57.0 705.0,52.0" fill="#dca100" stroke="black" stroke-width="0.5"/><text x="716" y="12" font-size="9" text-anchor="end" fill="#1f77b4" font-family="sans-serif">rusage.b32_tcp_retrans (lower=better)</text></g><g transform="translate(40,2098)"><rect x="0" y="0" width="720" height="120" fill="white" stroke="#888" stroke-width="0.5"/><text x="4" y="-4" font-size="11" font-family="sans-serif">b32_user_s</text><text x="2" y="10" font-size="8" fill="#444" font-family="sans-serif">1.34</text><text x="2" y="118" font-size="8" fill="#444" font-family="sans-serif">-0.975</text><line x1="10.0" y1="0" x2="10.0" y2="120" stroke="#2ca02c" stroke-width="0.7" stroke-dasharray="3,2"/><polyline points="710.0,60.00" fill="none" stroke="#1f77b4" stroke-width="1.2"/><circle cx="710.0" cy="60.00" r="2" fill="#1f77b4"/><polygon points="710.0,47.0 715.0,52.0 710.0,57.0 705.0,52.0" fill="#dca100" stroke="black" stroke-width="0.5"/><text x="716" y="12" font-size="9" text-anchor="end" fill="#1f77b4" font-family="sans-serif">rusage.b32_user_s (lower=better)</text></g><g transform="translate(40,2236)"><rect x="0" y="0" width="720" height="120" fill="white" stroke="#888" stroke-width="0.5"/><text x="4" y="-4" font-size="11" font-family="sans-serif">b32_vol_ctx</text><text x="2" y="10" font-size="8" fill="#444" font-family="sans-serif">736</text><text x="2" y="118" font-size="8" fill="#444" font-family="sans-serif">734</text><line x1="10.0" y1="0" x2="10.0" y2="120" stroke="#2ca02c" stroke-width="0.7" stroke-dasharray="3,2"/><polyline points="710.0,60.00" fill="none" stroke="#1f77b4" stroke-width="1.2"/><circle cx="710.0" cy="60.00" r="2" fill="#1f77b4"/><polygon points="710.0,47.0 715.0,52.0 710.0,57.0 705.0,52.0" fill="#dca100" stroke="black" stroke-width="0.5"/><text x="716" y="12" font-size="9" text-anchor="end" fill="#1f77b4" font-family="sans-serif">rusage.b32_vol_ctx (lower=better)</text></g><g transform="translate(40,2374)"><rect x="0" y="0" width="720" height="120" fill="white" stroke="#888" stroke-width="0.5"/><text x="4" y="-4" font-size="11" font-family="sans-serif">b32_wall_s</text><text x="2" y="10" font-size="8" fill="#444" font-family="sans-serif">31.2</text><text x="2" y="118" font-size="8" fill="#444" font-family="sans-serif">28.8</text><line x1="10.0" y1="0" x2="10.0" y2="120" stroke="#2ca02c" stroke-width="0.7" stroke-dasharray="3,2"/><polyline points="710.0,60.00" fill="none" stroke="#1f77b4" stroke-width="1.2"/><circle cx="710.0" cy="60.00" r="2" fill="#1f77b4"/><polygon points="710.0,47.0 715.0,52.0 710.0,57.0 705.0,52.0" fill="#dca100" stroke="black" stroke-width="0.5"/><text x="716" y="12" font-size="9" text-anchor="end" fill="#1f77b4" font-family="sans-serif">rusage.b32_wall_s (lower=better)</text></g><g transform="translate(40,2512)"><rect x="0" y="0" width="720" height="120" fill="white" stroke="#888" stroke-width="0.5"/><text x="4" y="-4" font-size="11" font-family="sans-serif">b4_invol_ctx</text><text x="2" y="10" font-size="8" fill="#444" font-family="sans-serif">63.7</text><text x="2" y="118" font-size="8" fill="#444" font-family="sans-serif">61.3</text><line x1="10.0" y1="0" x2="10.0" y2="120" stroke="#2ca02c" stroke-width="0.7" stroke-dasharray="3,2"/><polyline points="710.0,60.00" fill="none" stroke="#1f77b4" stroke-width="1.2"/><circle cx="710.0" cy="60.00" r="2" fill="#1f77b4"/><polygon points="710.0,47.0 715.0,52.0 710.0,57.0 705.0,52.0" fill="#dca100" stroke="black" stroke-width="0.5"/><text x="716" y="12" font-size="9" text-anchor="end" fill="#1f77b4" font-family="sans-serif">rusage.b4_invol_ctx (lower=better)</text></g><g transform="translate(40,2650)"><rect x="0" y="0" width="720" height="120" fill="white" stroke="#888" stroke-width="0.5"/><text x="4" y="-4" font-size="11" font-family="sans-serif">b4_major_pf</text><text x="2" y="10" font-size="8" fill="#444" font-family="sans-serif">1.16</text><text x="2" y="118" font-size="8" fill="#444" font-family="sans-serif">-1.16</text><line x1="10.0" y1="0" x2="10.0" y2="120" stroke="#2ca02c" stroke-width="0.7" stroke-dasharray="3,2"/><polyline points="710.0,60.00" fill="none" stroke="#1f77b4" stroke-width="1.2"/><circle cx="710.0" cy="60.00" r="2" fill="#1f77b4"/><polygon points="710.0,47.0 715.0,52.0 710.0,57.0 705.0,52.0" fill="#dca100" stroke="black" stroke-width="0.5"/><text x="716" y="12" font-size="9" text-anchor="end" fill="#1f77b4" font-family="sans-serif">rusage.b4_major_pf (lower=better)</text></g><g transform="translate(40,2788)"><rect x="0" y="0" width="720" height="120" fill="white" stroke="#888" stroke-width="0.5"/><text x="4" y="-4" font-size="11" font-family="sans-serif">b4_max_rss_kb</text><text x="2" y="10" font-size="8" fill="#444" font-family="sans-serif">8.88e+04</text><text x="2" y="118" font-size="8" fill="#444" font-family="sans-serif">8.88e+04</text><line x1="10.0" y1="0" x2="10.0" y2="120" stroke="#2ca02c" stroke-width="0.7" stroke-dasharray="3,2"/><polyline points="710.0,60.00" fill="none" stroke="#1f77b4" stroke-width="1.2"/><circle cx="710.0" cy="60.00" r="2" fill="#1f77b4"/><polygon points="710.0,47.0 715.0,52.0 710.0,57.0 705.0,52.0" fill="#dca100" stroke="black" stroke-width="0.5"/><text x="716" y="12" font-size="9" text-anchor="end" fill="#1f77b4" font-family="sans-serif">rusage.b4_max_rss_kb (lower=better)</text></g><g transform="translate(40,2926)"><rect x="0" y="0" width="720" height="120" fill="white" stroke="#888" stroke-width="0.5"/><text x="4" y="-4" font-size="11" font-family="sans-serif">b4_minor_pf</text><text x="2" y="10" font-size="8" fill="#444" font-family="sans-serif">1.32e+04</text><text x="2" y="118" font-size="8" fill="#444" font-family="sans-serif">1.32e+04</text><line x1="10.0" y1="0" x2="10.0" y2="120" stroke="#2ca02c" stroke-width="0.7" stroke-dasharray="3,2"/><polyline points="710.0,60.00" fill="none" stroke="#1f77b4" stroke-width="1.2"/><circle cx="710.0" cy="60.00" r="2" fill="#1f77b4"/><polygon points="710.0,47.0 715.0,52.0 710.0,57.0 705.0,52.0" fill="#dca100" stroke="black" stroke-width="0.5"/><text x="716" y="12" font-size="9" text-anchor="end" fill="#1f77b4" font-family="sans-serif">rusage.b4_minor_pf (lower=better)</text></g><g transform="translate(40,3064)"><rect x="0" y="0" width="720" height="120" fill="white" stroke="#888" stroke-width="0.5"/><text x="4" y="-4" font-size="11" font-family="sans-serif">b4_sys_s</text><text x="2" y="10" font-size="8" fill="#444" font-family="sans-serif">1.22</text><text x="2" y="118" font-size="8" fill="#444" font-family="sans-serif">-1.1</text><line x1="10.0" y1="0" x2="10.0" y2="120" stroke="#2ca02c" stroke-width="0.7" stroke-dasharray="3,2"/><polyline points="710.0,60.00" fill="none" stroke="#1f77b4" stroke-width="1.2"/><circle cx="710.0" cy="60.00" r="2" fill="#1f77b4"/><polygon points="710.0,47.0 715.0,52.0 710.0,57.0 705.0,52.0" fill="#dca100" stroke="black" stroke-width="0.5"/><text x="716" y="12" font-size="9" text-anchor="end" fill="#1f77b4" font-family="sans-serif">rusage.b4_sys_s (lower=better)</text></g><g transform="translate(40,3202)"><rect x="0" y="0" width="720" height="120" fill="white" stroke="#888" stroke-width="0.5"/><text x="4" y="-4" font-size="11" font-family="sans-serif">b4_tcp_retrans</text><text x="2" y="10" font-size="8" fill="#444" font-family="sans-serif">9.16</text><text x="2" y="118" font-size="8" fill="#444" font-family="sans-serif">6.84</text><line x1="10.0" y1="0" x2="10.0" y2="120" stroke="#2ca02c" stroke-width="0.7" stroke-dasharray="3,2"/><polyline points="710.0,60.00" fill="none" stroke="#1f77b4" stroke-width="1.2"/><circle cx="710.0" cy="60.00" r="2" fill="#1f77b4"/><polygon points="710.0,47.0 715.0,52.0 710.0,57.0 705.0,52.0" fill="#dca100" stroke="black" stroke-width="0.5"/><text x="716" y="12" font-size="9" text-anchor="end" fill="#1f77b4" font-family="sans-serif">rusage.b4_tcp_retrans (lower=better)</text></g><g transform="translate(40,3340)"><rect x="0" y="0" width="720" height="120" fill="white" stroke="#888" stroke-width="0.5"/><text x="4" y="-4" font-size="11" font-family="sans-serif">b4_user_s</text><text x="2" y="10" font-size="8" fill="#444" font-family="sans-serif">1.33</text><text x="2" y="118" font-size="8" fill="#444" font-family="sans-serif">-0.99</text><line x1="10.0" y1="0" x2="10.0" y2="120" stroke="#2ca02c" stroke-width="0.7" stroke-dasharray="3,2"/><polyline points="710.0,60.00" fill="none" stroke="#1f77b4" stroke-width="1.2"/><circle cx="710.0" cy="60.00" r="2" fill="#1f77b4"/><polygon points="710.0,47.0 715.0,52.0 710.0,57.0 705.0,52.0" fill="#dca100" stroke="black" stroke-width="0.5"/><text x="716" y="12" font-size="9" text-anchor="end" fill="#1f77b4" font-family="sans-serif">rusage.b4_user_s (lower=better)</text></g><g transform="translate(40,3478)"><rect x="0" y="0" width="720" height="120" fill="white" stroke="#888" stroke-width="0.5"/><text x="4" y="-4" font-size="11" font-family="sans-serif">b4_vol_ctx</text><text x="2" y="10" font-size="8" fill="#444" font-family="sans-serif">618</text><text x="2" y="118" font-size="8" fill="#444" font-family="sans-serif">616</text><line x1="10.0" y1="0" x2="10.0" y2="120" stroke="#2ca02c" stroke-width="0.7" stroke-dasharray="3,2"/><polyline points="710.0,60.00" fill="none" stroke="#1f77b4" stroke-width="1.2"/><circle cx="710.0" cy="60.00" r="2" fill="#1f77b4"/><polygon points="710.0,47.0 715.0,52.0 710.0,57.0 705.0,52.0" fill="#dca100" stroke="black" stroke-width="0.5"/><text x="716" y="12" font-size="9" text-anchor="end" fill="#1f77b4" font-family="sans-serif">rusage.b4_vol_ctx (lower=better)</text></g><g transform="translate(40,3616)"><rect x="0" y="0" width="720" height="120" fill="white" stroke="#888" stroke-width="0.5"/><text x="4" y="-4" font-size="11" font-family="sans-serif">b4_wall_s</text><text x="2" y="10" font-size="8" fill="#444" font-family="sans-serif">31.2</text><text x="2" y="118" font-size="8" fill="#444" font-family="sans-serif">28.8</text><line x1="10.0" y1="0" x2="10.0" y2="120" stroke="#2ca02c" stroke-width="0.7" stroke-dasharray="3,2"/><polyline points="710.0,60.00" fill="none" stroke="#1f77b4" stroke-width="1.2"/><circle cx="710.0" cy="60.00" r="2" fill="#1f77b4"/><polygon points="710.0,47.0 715.0,52.0 710.0,57.0 705.0,52.0" fill="#dca100" stroke="black" stroke-width="0.5"/><text x="716" y="12" font-size="9" text-anchor="end" fill="#1f77b4" font-family="sans-serif">rusage.b4_wall_s (lower=better)</text></g><g transform="translate(40,3754)"><rect x="0" y="0" width="720" height="120" fill="white" stroke="#888" stroke-width="0.5"/><text x="4" y="-4" font-size="11" font-family="sans-serif">binary_size_bytes</text><text x="2" y="10" font-size="8" fill="#444" font-family="sans-serif">7.35e+06</text><text x="2" y="118" font-size="8" fill="#444" font-family="sans-serif">7.35e+06</text><line x1="10.0" y1="0" x2="10.0" y2="120" stroke="#2ca02c" stroke-width="0.7" stroke-dasharray="3,2"/><polyline points="710.0,60.00" fill="none" stroke="#1f77b4" stroke-width="1.2"/><circle cx="710.0" cy="60.00" r="2" fill="#1f77b4"/><polygon points="710.0,47.0 715.0,52.0 710.0,57.0 705.0,52.0" fill="#dca100" stroke="black" stroke-width="0.5"/><text x="716" y="12" font-size="9" text-anchor="end" fill="#1f77b4" font-family="sans-serif">binary-size.binary_size_bytes (lower=better)</text></g><g transform="translate(40,3892)"><rect x="0" y="0" width="720" height="120" fill="white" stroke="#888" stroke-width="0.5"/><text x="4" y="-4" font-size="11" font-family="sans-serif">boot_no_cache_s</text><text x="2" y="10" font-size="8" fill="#444" font-family="sans-serif">2.08</text><text x="2" y="118" font-size="8" fill="#444" font-family="sans-serif">-0.24</text><line x1="10.0" y1="0" x2="10.0" y2="120" stroke="#2ca02c" stroke-width="0.7" stroke-dasharray="3,2"/><polyline points="710.0,60.00" fill="none" stroke="#1f77b4" stroke-width="1.2"/><circle cx="710.0" cy="60.00" r="2" fill="#1f77b4"/><polygon points="710.0,47.000000000000014 715.0,52.000000000000014 710.0,57.000000000000014 705.0,52.000000000000014" fill="#dca100" stroke="black" stroke-width="0.5"/><text x="716" y="12" font-size="9" text-anchor="end" fill="#1f77b4" font-family="sans-serif">server-boot.boot_no_cache_s (lower=better)</text></g><g transform="translate(40,4030)"><rect x="0" y="0" width="720" height="120" fill="white" stroke="#888" stroke-width="0.5"/><text x="4" y="-4" font-size="11" font-family="sans-serif">boot_to_bind_s</text><text x="2" y="10" font-size="8" fill="#444" font-family="sans-serif">0.921</text><text x="2" y="118" font-size="8" fill="#444" font-family="sans-serif">0.906</text><line x1="10.0" y1="0" x2="10.0" y2="120" stroke="#2ca02c" stroke-width="0.7" stroke-dasharray="3,2"/><polyline points="710.0,12.59" fill="none" stroke="#1f77b4" stroke-width="1.2"/><circle cx="710.0" cy="12.59" r="2" fill="#1f77b4"/><polygon points="710.0,-0.41379310344809994 715.0,4.5862068965519 710.0,9.5862068965519 705.0,4.5862068965519" fill="#dca100" stroke="black" stroke-width="0.5"/><text x="716" y="12" font-size="9" text-anchor="end" fill="#1f77b4" font-family="sans-serif">server-boot.no-cache.boot_to_bind_s (lower=better)</text><polyline points="710.0,107.41" fill="none" stroke="#ff7f0e" stroke-width="1.2"/><circle cx="710.0" cy="107.41" r="2" fill="#ff7f0e"/><polygon points="710.0,94.4137931034481 715.0,99.4137931034481 710.0,104.4137931034481 705.0,99.4137931034481" fill="#dca100" stroke="black" stroke-width="0.5"/><text x="716" y="23" font-size="9" text-anchor="end" fill="#ff7f0e" font-family="sans-serif">server-boot.with-cache.boot_to_bind_s (lower=better)</text></g><g transform="translate(40,4168)"><rect x="0" y="0" width="720" height="120" fill="white" stroke="#888" stroke-width="0.5"/><text x="4" y="-4" font-size="11" font-family="sans-serif">boot_with_cache_s</text><text x="2" y="10" font-size="8" fill="#444" font-family="sans-serif">2.07</text><text x="2" y="118" font-size="8" fill="#444" font-family="sans-serif">-0.253</text><line x1="10.0" y1="0" x2="10.0" y2="120" stroke="#2ca02c" stroke-width="0.7" stroke-dasharray="3,2"/><polyline points="710.0,60.00" fill="none" stroke="#1f77b4" stroke-width="1.2"/><circle cx="710.0" cy="60.00" r="2" fill="#1f77b4"/><polygon points="710.0,47.0 715.0,52.0 710.0,57.0 705.0,52.0" fill="#dca100" stroke="black" stroke-width="0.5"/><text x="716" y="12" font-size="9" text-anchor="end" fill="#1f77b4" font-family="sans-serif">server-boot.boot_with_cache_s (lower=better)</text></g><g transform="translate(40,4306)"><rect x="0" y="0" width="720" height="120" fill="white" stroke="#888" stroke-width="0.5"/><text x="4" y="-4" font-size="11" font-family="sans-serif">perf_branch-misses:u</text><text x="2" y="10" font-size="8" fill="#444" font-family="sans-serif">2.83e+06</text><text x="2" y="118" font-size="8" fill="#444" font-family="sans-serif">2.83e+06</text><line x1="10.0" y1="0" x2="10.0" y2="120" stroke="#2ca02c" stroke-width="0.7" stroke-dasharray="3,2"/><polyline points="710.0,60.00" fill="none" stroke="#1f77b4" stroke-width="1.2"/><circle cx="710.0" cy="60.00" r="2" fill="#1f77b4"/><polygon points="710.0,47.0 715.0,52.0 710.0,57.0 705.0,52.0" fill="#dca100" stroke="black" stroke-width="0.5"/><text x="716" y="12" font-size="9" text-anchor="end" fill="#1f77b4" font-family="sans-serif">perf-stat.perf_branch-misses:u (lower=better)</text></g><g transform="translate(40,4444)"><rect x="0" y="0" width="720" height="120" fill="white" stroke="#888" stroke-width="0.5"/><text x="4" y="-4" font-size="11" font-family="sans-serif">perf_cache-misses:u</text><text x="2" y="10" font-size="8" fill="#444" font-family="sans-serif">5.08e+06</text><text x="2" y="118" font-size="8" fill="#444" font-family="sans-serif">5.08e+06</text><line x1="10.0" y1="0" x2="10.0" y2="120" stroke="#2ca02c" stroke-width="0.7" stroke-dasharray="3,2"/><polyline points="710.0,60.00" fill="none" stroke="#1f77b4" stroke-width="1.2"/><circle cx="710.0" cy="60.00" r="2" fill="#1f77b4"/><polygon points="710.0,47.0 715.0,52.0 710.0,57.0 705.0,52.0" fill="#dca100" stroke="black" stroke-width="0.5"/><text x="716" y="12" font-size="9" text-anchor="end" fill="#1f77b4" font-family="sans-serif">perf-stat.perf_cache-misses:u (lower=better)</text></g><g transform="translate(40,4582)"><rect x="0" y="0" width="720" height="120" fill="white" stroke="#888" stroke-width="0.5"/><text x="4" y="-4" font-size="11" font-family="sans-serif">perf_cycles:u</text><text x="2" y="10" font-size="8" fill="#444" font-family="sans-serif">4.33e+08</text><text x="2" y="118" font-size="8" fill="#444" font-family="sans-serif">4.33e+08</text><line x1="10.0" y1="0" x2="10.0" y2="120" stroke="#2ca02c" stroke-width="0.7" stroke-dasharray="3,2"/><polyline points="710.0,60.00" fill="none" stroke="#1f77b4" stroke-width="1.2"/><circle cx="710.0" cy="60.00" r="2" fill="#1f77b4"/><polygon points="710.0,47.0 715.0,52.0 710.0,57.0 705.0,52.0" fill="#dca100" stroke="black" stroke-width="0.5"/><text x="716" y="12" font-size="9" text-anchor="end" fill="#1f77b4" font-family="sans-serif">perf-stat.perf_cycles:u (lower=better)</text></g><g transform="translate(40,4720)"><rect x="0" y="0" width="720" height="120" fill="white" stroke="#888" stroke-width="0.5"/><text x="4" y="-4" font-size="11" font-family="sans-serif">perf_instructions:u</text><text x="2" y="10" font-size="8" fill="#444" font-family="sans-serif">8.69e+08</text><text x="2" y="118" font-size="8" fill="#444" font-family="sans-serif">8.69e+08</text><line x1="10.0" y1="0" x2="10.0" y2="120" stroke="#2ca02c" stroke-width="0.7" stroke-dasharray="3,2"/><polyline points="710.0,60.00" fill="none" stroke="#1f77b4" stroke-width="1.2"/><circle cx="710.0" cy="60.00" r="2" fill="#1f77b4"/><polygon points="710.0,47.0 715.0,52.0 710.0,57.0 705.0,52.0" fill="#dca100" stroke="black" stroke-width="0.5"/><text x="716" y="12" font-size="9" text-anchor="end" fill="#1f77b4" font-family="sans-serif">perf-stat.perf_instructions:u (lower=better)</text></g><g transform="translate(40,4858)"><text x="10.0" y="10" font-size="8" fill="#2ca02c" text-anchor="middle" font-family="monospace" transform="rotate(45 10.0 10)">3d5154e</text><text x="360.0" y="10" font-size="8" fill="#222" text-anchor="middle" font-family="monospace" transform="rotate(45 360.0 10)">3d5154e</text><text x="710.0" y="10" font-size="8" fill="#222" text-anchor="middle" font-family="monospace" transform="rotate(45 710.0 10)">3d5154e</text></g><g transform="translate(540,4894)"><text x="0" y="0" font-size="9" font-family="sans-serif">decisions:</text><polygon points="60,-9 55,1 65,1" fill="#2ca02c" stroke="black" stroke-width="0.5"/><text x="68" y="0" font-size="9" font-family="sans-serif">KEEP</text><polygon points="125,1 120,-9 130,-9" fill="#d62728" stroke="black" stroke-width="0.5"/><text x="133" y="0" font-size="9" font-family="sans-serif">DISCARD</text><polygon points="190,-9 195,-4 190,1 185,-4" fill="#dca100" stroke="black" stroke-width="0.5"/><text x="198" y="0" font-size="9" font-family="sans-serif">ESCALATE</text></g></svg>
