<?xml version="1.0" encoding="UTF-8"?>
<svg xmlns="http://www.w3.org/2000/svg" version="1.1" width="828" height="354" viewBox="0 0 828 354"><text x="40" y="18" font-size="13" font-family="sans-serif" font-weight="bold">benchmarkserversave -- mips-lxc/rtl9607c (unknown-cpu, unknown, n=26)</text><g transform="translate(40,28)"><rect x="0" y="0" width="720" height="120" fill="white" stroke="#888" stroke-width="0.5"/><text x="4" y="-4" font-size="11" font-family="sans-serif">max_rss_kb (lower=better)</text><text x="2" y="10" font-size="8" fill="#444" font-family="sans-serif">7.53MB</text><text x="2" y="118" font-size="8" fill="#444" font-family="sans-serif">7.14MB</text><line x1="515.5555555555555" y1="0" x2="515.5555555555555" y2="120" stroke="#2ca02c" stroke-width="0.7" stroke-dasharray="3,2"/><polyline points="48.9,12.59 87.8,12.59 126.7,12.59 165.6,12.59 204.4,77.29 243.3,77.52 282.2,107.41 321.1,102.95 360.0,94.03 398.9,79.52 437.8,79.52 476.7,87.33 515.6,104.07 554.4,73.95 593.3,73.95 632.2,72.83 671.1,72.83" fill="none" stroke="#1f77b4" stroke-width="1.2"/><circle cx="48.9" cy="12.59" r="2" fill="#1f77b4"/><polygon points="48.89,-0.41 43.89,9.59 53.89,9.59" fill="#2ca02c" stroke="black" stroke-width="0.5"/><circle cx="87.8" cy="12.59" r="2" fill="#1f77b4"/><polygon points="87.78,-0.41 92.78,4.59 87.78,9.59 82.78,4.59" fill="#dca100" stroke="black" stroke-width="0.5"/><circle cx="126.7" cy="12.59" r="2" fill="#1f77b4"/><polygon points="126.67,9.59 121.67,-0.41 131.67,-0.41" fill="#d62728" stroke="black" stroke-width="0.5"/><circle cx="165.6" cy="12.59" r="2" fill="#1f77b4"/><polygon points="165.56,-0.41 170.56,4.59 165.56,9.59 160.56,4.59" fill="#dca100" stroke="black" stroke-width="0.5"/><circle cx="204.4" cy="77.29" r="2" fill="#1f77b4"/><polygon points="204.44,64.29 209.44,69.29 204.44,74.29 199.44,69.29" fill="#dca100" stroke="black" stroke-width="0.5"/><circle cx="243.3" cy="77.52" r="2" fill="#1f77b4"/><polygon points="243.33,64.52 248.33,69.52 243.33,74.52 238.33,69.52" fill="#dca100" stroke="black" stroke-width="0.5"/><circle cx="282.2" cy="107.41" r="2" fill="#1f77b4"/><polygon points="282.22,94.41 287.22,99.41 282.22,104.41 277.22,99.41" fill="#dca100" stroke="black" stroke-width="0.5"/><circle cx="321.1" cy="102.95" r="2" fill="#1f77b4"/><polygon points="321.11,89.95 326.11,94.95 321.11,99.95 316.11,94.95" fill="#dca100" stroke="black" stroke-width="0.5"/><circle cx="360.0" cy="94.03" r="2" fill="#1f77b4"/><polygon points="360,81.03 365,86.03 360,91.03 355,86.03" fill="#dca100" stroke="black" stroke-width="0.5"/><circle cx="398.9" cy="79.52" r="2" fill="#1f77b4"/><polygon points="398.89,66.52 403.89,71.52 398.89,76.52 393.89,71.52" fill="#dca100" stroke="black" stroke-width="0.5"/><circle cx="437.8" cy="79.52" r="2" fill="#1f77b4"/><polygon points="437.78,66.52 442.78,71.52 437.78,76.52 432.78,71.52" fill="#dca100" stroke="black" stroke-width="0.5"/><circle cx="476.7" cy="87.33" r="2" fill="#1f77b4"/><polygon points="476.67,74.33 481.67,79.33 476.67,84.33 471.67,79.33" fill="#dca100" stroke="black" stroke-width="0.5"/><circle cx="515.6" cy="104.07" r="2" fill="#1f77b4"/><polygon points="515.56,91.07 520.56,96.07 515.56,101.07 510.56,96.07" fill="#dca100" stroke="black" stroke-width="0.5"/><circle cx="554.4" cy="73.95" r="2" fill="#1f77b4"/><polygon points="554.44,60.95 549.44,70.95 559.44,70.95" fill="#2ca02c" stroke="black" stroke-width="0.5"/><circle cx="593.3" cy="73.95" r="2" fill="#1f77b4"/><polygon points="593.33,60.95 598.33,65.95 593.33,70.95 588.33,65.95" fill="#dca100" stroke="black" stroke-width="0.5"/><circle cx="632.2" cy="72.83" r="2" fill="#1f77b4"/><polygon points="632.22,59.83 637.22,64.83 632.22,69.83 627.22,64.83" fill="#dca100" stroke="black" stroke-width="0.5"/><circle cx="671.1" cy="72.83" r="2" fill="#1f77b4"/><polygon points="671.11,59.83 676.11,64.83 671.11,69.83 666.11,64.83" fill="#dca100" stroke="black" stroke-width="0.5"/><text x="716" y="12" font-size="9" text-anchor="end" fill="#1f77b4" font-family="sans-serif">rusage.default</text><polyline points="48.9,12.59 87.8,12.59 126.7,12.59 165.6,12.59 204.4,77.29 243.3,77.52 282.2,107.41 321.1,102.95 360.0,94.03 398.9,79.52 437.8,79.52 476.7,87.33 515.6,104.07 554.4,73.95 593.3,73.95 632.2,72.83 671.1,72.83" fill="none" stroke="#ff7f0e" stroke-width="1.2"/><circle cx="48.9" cy="12.59" r="2" fill="#ff7f0e"/><polygon points="48.89,-0.41 43.89,9.59 53.89,9.59" fill="#2ca02c" stroke="black" stroke-width="0.5"/><circle cx="87.8" cy="12.59" r="2" fill="#ff7f0e"/><polygon points="87.78,-0.41 92.78,4.59 87.78,9.59 82.78,4.59" fill="#dca100" stroke="black" stroke-width="0.5"/><circle cx="126.7" cy="12.59" r="2" fill="#ff7f0e"/><polygon points="126.67,9.59 121.67,-0.41 131.67,-0.41" fill="#d62728" stroke="black" stroke-width="0.5"/><circle cx="165.6" cy="12.59" r="2" fill="#ff7f0e"/><polygon points="165.56,-0.41 170.56,4.59 165.56,9.59 160.56,4.59" fill="#dca100" stroke="black" stroke-width="0.5"/><circle cx="204.4" cy="77.29" r="2" fill="#ff7f0e"/><polygon points="204.44,64.29 209.44,69.29 204.44,74.29 199.44,69.29" fill="#dca100" stroke="black" stroke-width="0.5"/><circle cx="243.3" cy="77.52" r="2" fill="#ff7f0e"/><polygon points="243.33,64.52 248.33,69.52 243.33,74.52 238.33,69.52" fill="#dca100" stroke="black" stroke-width="0.5"/><circle cx="282.2" cy="107.41" r="2" fill="#ff7f0e"/><polygon points="282.22,94.41 287.22,99.41 282.22,104.41 277.22,99.41" fill="#dca100" stroke="black" stroke-width="0.5"/><circle cx="321.1" cy="102.95" r="2" fill="#ff7f0e"/><polygon points="321.11,89.95 326.11,94.95 321.11,99.95 316.11,94.95" fill="#dca100" stroke="black" stroke-width="0.5"/><circle cx="360.0" cy="94.03" r="2" fill="#ff7f0e"/><polygon points="360,81.03 365,86.03 360,91.03 355,86.03" fill="#dca100" stroke="black" stroke-width="0.5"/><circle cx="398.9" cy="79.52" r="2" fill="#ff7f0e"/><polygon points="398.89,66.52 403.89,71.52 398.89,76.52 393.89,71.52" fill="#dca100" stroke="black" stroke-width="0.5"/><circle cx="437.8" cy="79.52" r="2" fill="#ff7f0e"/><polygon points="437.78,66.52 442.78,71.52 437.78,76.52 432.78,71.52" fill="#dca100" stroke="black" stroke-width="0.5"/><circle cx="476.7" cy="87.33" r="2" fill="#ff7f0e"/><polygon points="476.67,74.33 481.67,79.33 476.67,84.33 471.67,79.33" fill="#dca100" stroke="black" stroke-width="0.5"/><circle cx="515.6" cy="104.07" r="2" fill="#ff7f0e"/><polygon points="515.56,91.07 520.56,96.07 515.56,101.07 510.56,96.07" fill="#dca100" stroke="black" stroke-width="0.5"/><circle cx="554.4" cy="73.95" r="2" fill="#ff7f0e"/><polygon points="554.44,60.95 549.44,70.95 559.44,70.95" fill="#2ca02c" stroke="black" stroke-width="0.5"/><circle cx="593.3" cy="73.95" r="2" fill="#ff7f0e"/><polygon points="593.33,60.95 598.33,65.95 593.33,70.95 588.33,65.95" fill="#dca100" stroke="black" stroke-width="0.5"/><circle cx="632.2" cy="72.83" r="2" fill="#ff7f0e"/><polygon points="632.22,59.83 637.22,64.83 632.22,69.83 627.22,64.83" fill="#dca100" stroke="black" stroke-width="0.5"/><circle cx="671.1" cy="72.83" r="2" fill="#ff7f0e"/><polygon points="671.11,59.83 676.11,64.83 671.11,69.83 666.11,64.83" fill="#dca100" stroke="black" stroke-width="0.5"/><text x="716" y="23" font-size="9" text-anchor="end" fill="#ff7f0e" font-family="sans-serif">rusage</text><text x="730" y="-4" font-size="8" fill="#444" font-family="sans-serif">per-node spread</text><line x1="738.0" y1="12.59" x2="738.0" y2="107.41" stroke="#1f77b4" stroke-width="0.6"/><line x1="734.6" y1="107.41" x2="741.4" y2="107.41" stroke="#1f77b4" stroke-width="0.6"/><line x1="734.6" y1="12.59" x2="741.4" y2="12.59" stroke="#1f77b4" stroke-width="0.6"/><rect x="733.6" y="72.83" width="8.8" height="14.50" fill="#1f77b4" fill-opacity="0.22" stroke="#1f77b4" stroke-width="0.7"/><line x1="733.6" y1="77.29" x2="742.4" y2="77.29" stroke="#1f77b4" stroke-width="1.2"/><line x1="754.0" y1="12.59" x2="754.0" y2="107.41" stroke="#ff7f0e" stroke-width="0.6"/><line x1="750.6" y1="107.41" x2="757.4" y2="107.41" stroke="#ff7f0e" stroke-width="0.6"/><line x1="750.6" y1="12.59" x2="757.4" y2="12.59" stroke="#ff7f0e" stroke-width="0.6"/><rect x="749.6" y="72.83" width="8.8" height="14.50" fill="#ff7f0e" fill-opacity="0.22" stroke="#ff7f0e" stroke-width="0.7"/><line x1="749.6" y1="77.29" x2="758.4" y2="77.29" stroke="#ff7f0e" stroke-width="1.2"/></g><g transform="translate(40,166)"><rect x="0" y="0" width="720" height="120" fill="white" stroke="#888" stroke-width="0.5"/><text x="4" y="-4" font-size="11" font-family="sans-serif">wall_s (lower=better)</text><text x="2" y="10" font-size="8" fill="#444" font-family="sans-serif">699ms</text><text x="2" y="118" font-size="8" fill="#444" font-family="sans-serif">281ms</text><line x1="515.5555555555555" y1="0" x2="515.5555555555555" y2="120" stroke="#2ca02c" stroke-width="0.7" stroke-dasharray="3,2"/><polyline points="48.9,91.61 87.8,96.88 126.7,91.61 165.6,96.88 204.4,99.51 243.3,104.78 282.2,78.44 321.1,81.07 360.0,91.61 398.9,46.83 437.8,107.41 476.7,62.63 515.6,81.07 554.4,104.78 593.3,107.41 632.2,12.59 671.1,104.78" fill="none" stroke="#1f77b4" stroke-width="1.2"/><circle cx="48.9" cy="91.61" r="2" fill="#1f77b4"/><polygon points="48.89,78.61 43.89,88.61 53.89,88.61" fill="#2ca02c" stroke="black" stroke-width="0.5"/><circle cx="87.8" cy="96.88" r="2" fill="#1f77b4"/><polygon points="87.78,83.88 92.78,88.88 87.78,93.88 82.78,88.88" fill="#dca100" stroke="black" stroke-width="0.5"/><circle cx="126.7" cy="91.61" r="2" fill="#1f77b4"/><polygon points="126.67,88.61 121.67,78.61 131.67,78.61" fill="#d62728" stroke="black" stroke-width="0.5"/><circle cx="165.6" cy="96.88" r="2" fill="#1f77b4"/><polygon points="165.56,83.88 170.56,88.88 165.56,93.88 160.56,88.88" fill="#dca100" stroke="black" stroke-width="0.5"/><circle cx="204.4" cy="99.51" r="2" fill="#1f77b4"/><polygon points="204.44,86.51 209.44,91.51 204.44,96.51 199.44,91.51" fill="#dca100" stroke="black" stroke-width="0.5"/><circle cx="243.3" cy="104.78" r="2" fill="#1f77b4"/><polygon points="243.33,91.78 248.33,96.78 243.33,101.78 238.33,96.78" fill="#dca100" stroke="black" stroke-width="0.5"/><circle cx="282.2" cy="78.44" r="2" fill="#1f77b4"/><polygon points="282.22,65.44 287.22,70.44 282.22,75.44 277.22,70.44" fill="#dca100" stroke="black" stroke-width="0.5"/><circle cx="321.1" cy="81.07" r="2" fill="#1f77b4"/><polygon points="321.11,68.07 326.11,73.07 321.11,78.07 316.11,73.07" fill="#dca100" stroke="black" stroke-width="0.5"/><circle cx="360.0" cy="91.61" r="2" fill="#1f77b4"/><polygon points="360,78.61 365,83.61 360,88.61 355,83.61" fill="#dca100" stroke="black" stroke-width="0.5"/><circle cx="398.9" cy="46.83" r="2" fill="#1f77b4"/><polygon points="398.89,33.83 403.89,38.83 398.89,43.83 393.89,38.83" fill="#dca100" stroke="black" stroke-width="0.5"/><circle cx="437.8" cy="107.41" r="2" fill="#1f77b4"/><polygon points="437.78,94.41 442.78,99.41 437.78,104.41 432.78,99.41" fill="#dca100" stroke="black" stroke-width="0.5"/><circle cx="476.7" cy="62.63" r="2" fill="#1f77b4"/><polygon points="476.67,49.63 481.67,54.63 476.67,59.63 471.67,54.63" fill="#dca100" stroke="black" stroke-width="0.5"/><circle cx="515.6" cy="81.07" r="2" fill="#1f77b4"/><polygon points="515.56,68.07 520.56,73.07 515.56,78.07 510.56,73.07" fill="#dca100" stroke="black" stroke-width="0.5"/><circle cx="554.4" cy="104.78" r="2" fill="#1f77b4"/><polygon points="554.44,91.78 549.44,101.78 559.44,101.78" fill="#2ca02c" stroke="black" stroke-width="0.5"/><circle cx="593.3" cy="107.41" r="2" fill="#1f77b4"/><polygon points="593.33,94.41 598.33,99.41 593.33,104.41 588.33,99.41" fill="#dca100" stroke="black" stroke-width="0.5"/><circle cx="632.2" cy="12.59" r="2" fill="#1f77b4"/><polygon points="632.22,-0.41 637.22,4.59 632.22,9.59 627.22,4.59" fill="#dca100" stroke="black" stroke-width="0.5"/><circle cx="671.1" cy="104.78" r="2" fill="#1f77b4"/><polygon points="671.11,91.78 676.11,96.78 671.11,101.78 666.11,96.78" fill="#dca100" stroke="black" stroke-width="0.5"/><text x="716" y="12" font-size="9" text-anchor="end" fill="#1f77b4" font-family="sans-serif">rusage.default</text><polyline points="48.9,91.61 87.8,96.88 126.7,91.61 165.6,96.88 204.4,99.51 243.3,104.78 282.2,78.44 321.1,81.07 360.0,91.61 398.9,46.83 437.8,107.41 476.7,62.63 515.6,81.07 554.4,104.78 593.3,107.41 632.2,12.59 671.1,104.78" fill="none" stroke="#ff7f0e" stroke-width="1.2"/><circle cx="48.9" cy="91.61" r="2" fill="#ff7f0e"/><polygon points="48.89,78.61 43.89,88.61 53.89,88.61" fill="#2ca02c" stroke="black" stroke-width="0.5"/><circle cx="87.8" cy="96.88" r="2" fill="#ff7f0e"/><polygon points="87.78,83.88 92.78,88.88 87.78,93.88 82.78,88.88" fill="#dca100" stroke="black" stroke-width="0.5"/><circle cx="126.7" cy="91.61" r="2" fill="#ff7f0e"/><polygon points="126.67,88.61 121.67,78.61 131.67,78.61" fill="#d62728" stroke="black" stroke-width="0.5"/><circle cx="165.6" cy="96.88" r="2" fill="#ff7f0e"/><polygon points="165.56,83.88 170.56,88.88 165.56,93.88 160.56,88.88" fill="#dca100" stroke="black" stroke-width="0.5"/><circle cx="204.4" cy="99.51" r="2" fill="#ff7f0e"/><polygon points="204.44,86.51 209.44,91.51 204.44,96.51 199.44,91.51" fill="#dca100" stroke="black" stroke-width="0.5"/><circle cx="243.3" cy="104.78" r="2" fill="#ff7f0e"/><polygon points="243.33,91.78 248.33,96.78 243.33,101.78 238.33,96.78" fill="#dca100" stroke="black" stroke-width="0.5"/><circle cx="282.2" cy="78.44" r="2" fill="#ff7f0e"/><polygon points="282.22,65.44 287.22,70.44 282.22,75.44 277.22,70.44" fill="#dca100" stroke="black" stroke-width="0.5"/><circle cx="321.1" cy="81.07" r="2" fill="#ff7f0e"/><polygon points="321.11,68.07 326.11,73.07 321.11,78.07 316.11,73.07" fill="#dca100" stroke="black" stroke-width="0.5"/><circle cx="360.0" cy="91.61" r="2" fill="#ff7f0e"/><polygon points="360,78.61 365,83.61 360,88.61 355,83.61" fill="#dca100" stroke="black" stroke-width="0.5"/><circle cx="398.9" cy="46.83" r="2" fill="#ff7f0e"/><polygon points="398.89,33.83 403.89,38.83 398.89,43.83 393.89,38.83" fill="#dca100" stroke="black" stroke-width="0.5"/><circle cx="437.8" cy="107.41" r="2" fill="#ff7f0e"/><polygon points="437.78,94.41 442.78,99.41 437.78,104.41 432.78,99.41" fill="#dca100" stroke="black" stroke-width="0.5"/><circle cx="476.7" cy="62.63" r="2" fill="#ff7f0e"/><polygon points="476.67,49.63 481.67,54.63 476.67,59.63 471.67,54.63" fill="#dca100" stroke="black" stroke-width="0.5"/><circle cx="515.6" cy="81.07" r="2" fill="#ff7f0e"/><polygon points="515.56,68.07 520.56,73.07 515.56,78.07 510.56,73.07" fill="#dca100" stroke="black" stroke-width="0.5"/><circle cx="554.4" cy="104.78" r="2" fill="#ff7f0e"/><polygon points="554.44,91.78 549.44,101.78 559.44,101.78" fill="#2ca02c" stroke="black" stroke-width="0.5"/><circle cx="593.3" cy="107.41" r="2" fill="#ff7f0e"/><polygon points="593.33,94.41 598.33,99.41 593.33,104.41 588.33,99.41" fill="#dca100" stroke="black" stroke-width="0.5"/><circle cx="632.2" cy="12.59" r="2" fill="#ff7f0e"/><polygon points="632.22,-0.41 637.22,4.59 632.22,9.59 627.22,4.59" fill="#dca100" stroke="black" stroke-width="0.5"/><circle cx="671.1" cy="104.78" r="2" fill="#ff7f0e"/><polygon points="671.11,91.78 676.11,96.78 671.11,101.78 666.11,96.78" fill="#dca100" stroke="black" stroke-width="0.5"/><text x="716" y="23" font-size="9" text-anchor="end" fill="#ff7f0e" font-family="sans-serif">rusage</text><text x="730" y="-4" font-size="8" fill="#444" font-family="sans-serif">per-node spread</text><line x1="738.0" y1="12.59" x2="738.0" y2="107.41" stroke="#1f77b4" stroke-width="0.6"/><line x1="734.6" y1="107.41" x2="741.4" y2="107.41" stroke="#1f77b4" stroke-width="0.6"/><line x1="734.6" y1="12.59" x2="741.4" y2="12.59" stroke="#1f77b4" stroke-width="0.6"/><rect x="733.6" y="81.07" width="8.8" height="23.71" fill="#1f77b4" fill-opacity="0.22" stroke="#1f77b4" stroke-width="0.7"/><line x1="733.6" y1="91.61" x2="742.4" y2="91.61" stroke="#1f77b4" stroke-width="1.2"/><line x1="754.0" y1="12.59" x2="754.0" y2="107.41" stroke="#ff7f0e" stroke-width="0.6"/><line x1="750.6" y1="107.41" x2="757.4" y2="107.41" stroke="#ff7f0e" stroke-width="0.6"/><line x1="750.6" y1="12.59" x2="757.4" y2="12.59" stroke="#ff7f0e" stroke-width="0.6"/><rect x="749.6" y="81.07" width="8.8" height="23.71" fill="#ff7f0e" fill-opacity="0.22" stroke="#ff7f0e" stroke-width="0.7"/><line x1="749.6" y1="91.61" x2="758.4" y2="91.61" stroke="#ff7f0e" stroke-width="1.2"/></g><g transform="translate(40,304)"><text x="10.0" y="10" font-size="8" fill="#222" text-anchor="middle" font-family="monospace" transform="rotate(45 10.0 10)">5462b5b</text><text x="48.9" y="10" font-size="8" fill="#222" text-anchor="middle" font-family="monospace" transform="rotate(45 48.9 10)">7dead07</text><text x="87.8" y="10" font-size="8" fill="#222" text-anchor="middle" font-family="monospace" transform="rotate(45 87.8 10)">7dead07</text><text x="126.7" y="10" font-size="8" fill="#222" text-anchor="middle" font-family="monospace" transform="rotate(45 126.7 10)">7dead07</text><text x="165.6" y="10" font-size="8" fill="#222" text-anchor="middle" font-family="monospace" transform="rotate(45 165.6 10)">7dead07..ef13d54</text><text x="204.4" y="10" font-size="8" fill="#222" text-anchor="middle" font-family="monospace" transform="rotate(45 204.4 10)">cc66783</text><text x="243.3" y="10" font-size="8" fill="#222" text-anchor="middle" font-family="monospace" transform="rotate(45 243.3 10)">f4dcacf..f4dcacf</text><text x="282.2" y="10" font-size="8" fill="#222" text-anchor="middle" font-family="monospace" transform="rotate(45 282.2 10)">f4dcacf</text><text x="321.1" y="10" font-size="8" fill="#222" text-anchor="middle" font-family="monospace" transform="rotate(45 321.1 10)">0aa4edd</text><text x="360.0" y="10" font-size="8" fill="#222" text-anchor="middle" font-family="monospace" transform="rotate(45 360.0 10)">e77e4d5</text><text x="398.9" y="10" font-size="8" fill="#222" text-anchor="middle" font-family="monospace" transform="rotate(45 398.9 10)">2e3a07a</text><text x="437.8" y="10" font-size="8" fill="#222" text-anchor="middle" font-family="monospace" transform="rotate(45 437.8 10)">bd324c6..60d7d19</text><text x="476.7" y="10" font-size="8" fill="#222" text-anchor="middle" font-family="monospace" transform="rotate(45 476.7 10)">7f9a6e4</text><text x="515.6" y="10" font-size="8" fill="#2ca02c" text-anchor="middle" font-family="monospace" transform="rotate(45 515.6 10)">6280625</text><text x="554.4" y="10" font-size="8" fill="#222" text-anchor="middle" font-family="monospace" transform="rotate(45 554.4 10)">6280625..6280625</text><text x="593.3" y="10" font-size="8" fill="#222" text-anchor="middle" font-family="monospace" transform="rotate(45 593.3 10)">6280625</text><text x="632.2" y="10" font-size="8" fill="#222" text-anchor="middle" font-family="monospace" transform="rotate(45 632.2 10)">6280625</text><text x="671.1" y="10" font-size="8" fill="#222" text-anchor="middle" font-family="monospace" transform="rotate(45 671.1 10)">6280625</text><text x="710.0" y="10" font-size="8" fill="#222" text-anchor="middle" font-family="monospace" transform="rotate(45 710.0 10)">5462b5b</text></g><g transform="translate(540,340)"><text x="0" y="0" font-size="9" font-family="sans-serif">decisions:</text><polygon points="60,-9 55,1 65,1" fill="#2ca02c" stroke="black" stroke-width="0.5"/><text x="68" y="0" font-size="9" font-family="sans-serif">KEEP</text><polygon points="125,1 120,-9 130,-9" fill="#d62728" stroke="black" stroke-width="0.5"/><text x="133" y="0" font-size="9" font-family="sans-serif">DISCARD</text><polygon points="190,-9 195,-4 190,1 185,-4" fill="#dca100" stroke="black" stroke-width="0.5"/><text x="198" y="0" font-size="9" font-family="sans-serif">ESCALATE</text></g></svg>
