<?xml version="1.0" encoding="UTF-8"?>
<svg xmlns="http://www.w3.org/2000/svg" version="1.1" width="780" height="906" viewBox="0 0 780 906"><text x="40" y="18" font-size="13" font-family="sans-serif" font-weight="bold">benchmarkserversave -- amd64-lxc/laptopHB (11th-gen-intel-r-core-tm-i7-11370h-3-30ghz, x86_64, n=9)</text><g transform="translate(40,28)"><rect x="0" y="0" width="720" height="120" fill="white" stroke="#888" stroke-width="0.5"/><text x="4" y="-4" font-size="11" font-family="sans-serif">branch-misses</text><text x="2" y="10" font-size="8" fill="#444" font-family="sans-serif">2.39e+05</text><text x="2" y="118" font-size="8" fill="#444" font-family="sans-serif">1.56e+04</text><line x1="10.0" y1="0" x2="10.0" y2="120" stroke="#2ca02c" stroke-width="0.7" stroke-dasharray="3,2"/><polyline points="10.0,107.41 97.5,105.79 185.0,12.69 272.5,12.59 360.0,14.09 447.5,14.58 535.0,15.21 622.5,14.42 710.0,14.21" fill="none" stroke="#1f77b4" stroke-width="1.2"/><circle cx="10.0" cy="107.41" r="2" fill="#1f77b4"/><polygon points="10.0,94.41379310344827 5.0,104.41379310344827 15.0,104.41379310344827" fill="#2ca02c" stroke="black" stroke-width="0.5"/><circle cx="97.5" cy="105.79" r="2" fill="#1f77b4"/><polygon points="97.5,92.7852293816892 102.5,97.7852293816892 97.5,102.7852293816892 92.5,97.7852293816892" fill="#dca100" stroke="black" stroke-width="0.5"/><circle cx="185.0" cy="12.69" r="2" fill="#1f77b4"/><polygon points="185.0,-0.31367243854303695 190.0,4.686327561456963 185.0,9.686327561456963 180.0,4.686327561456963" fill="#dca100" stroke="black" stroke-width="0.5"/><circle cx="272.5" cy="12.59" r="2" fill="#1f77b4"/><polygon points="272.5,-0.41379310344827047 277.5,4.5862068965517295 272.5,9.58620689655173 267.5,4.5862068965517295" fill="#dca100" stroke="black" stroke-width="0.5"/><circle cx="360.0" cy="14.09" r="2" fill="#1f77b4"/><polygon points="360.0,1.0885100753761208 365.0,6.088510075376121 360.0,11.08851007537612 355.0,6.088510075376121" fill="#dca100" stroke="black" stroke-width="0.5"/><circle cx="447.5" cy="14.58" r="2" fill="#1f77b4"/><polygon points="447.5,1.5817153212147161 452.5,6.581715321214716 447.5,11.581715321214716 442.5,6.581715321214716" fill="#dca100" stroke="black" stroke-width="0.5"/><circle cx="535.0" cy="15.21" r="2" fill="#1f77b4"/><polygon points="535.0,2.2100588044130944 540.0,7.210058804413094 535.0,12.210058804413094 530.0,7.210058804413094" fill="#dca100" stroke="black" stroke-width="0.5"/><circle cx="622.5" cy="14.42" r="2" fill="#1f77b4"/><polygon points="622.5,1.4174779743504615 627.5,6.4174779743504615 622.5,11.417477974350462 617.5,6.4174779743504615" fill="#dca100" stroke="black" stroke-width="0.5"/><circle cx="710.0" cy="14.21" r="2" fill="#1f77b4"/><polygon points="710.0,1.2068793343773763 715.0,6.206879334377376 710.0,11.206879334377376 705.0,6.206879334377376" fill="#dca100" stroke="black" stroke-width="0.5"/><text x="716" y="12" font-size="9" text-anchor="end" fill="#1f77b4" font-family="sans-serif">perf-stat.branch-misses (lower=better)</text></g><g transform="translate(40,166)"><rect x="0" y="0" width="720" height="120" fill="white" stroke="#888" stroke-width="0.5"/><text x="4" y="-4" font-size="11" font-family="sans-serif">cache-misses</text><text x="2" y="10" font-size="8" fill="#444" font-family="sans-serif">2.02e+05</text><text x="2" y="118" font-size="8" fill="#444" font-family="sans-serif">2.35e+04</text><line x1="10.0" y1="0" x2="10.0" y2="120" stroke="#2ca02c" stroke-width="0.7" stroke-dasharray="3,2"/><polyline points="10.0,107.14 97.5,107.41 185.0,22.64 272.5,21.85 360.0,24.19 447.5,24.20 535.0,24.71 622.5,22.06 710.0,12.59" fill="none" stroke="#1f77b4" stroke-width="1.2"/><circle cx="10.0" cy="107.14" r="2" fill="#1f77b4"/><polygon points="10.0,94.14369595388065 5.0,104.14369595388065 15.0,104.14369595388065" fill="#2ca02c" stroke="black" stroke-width="0.5"/><circle cx="97.5" cy="107.41" r="2" fill="#1f77b4"/><polygon points="97.5,94.41379310344827 102.5,99.41379310344827 97.5,104.41379310344827 92.5,99.41379310344827" fill="#dca100" stroke="black" stroke-width="0.5"/><circle cx="185.0" cy="22.64" r="2" fill="#1f77b4"/><polygon points="185.0,9.640990487321119 190.0,14.640990487321119 185.0,19.64099048732112 180.0,14.640990487321119" fill="#dca100" stroke="black" stroke-width="0.5"/><circle cx="272.5" cy="21.85" r="2" fill="#1f77b4"/><polygon points="272.5,8.851713462154365 277.5,13.851713462154365 272.5,18.851713462154365 267.5,13.851713462154365" fill="#dca100" stroke="black" stroke-width="0.5"/><circle cx="360.0" cy="24.19" r="2" fill="#1f77b4"/><polygon points="360.0,11.186168688508928 365.0,16.18616868850893 360.0,21.18616868850893 355.0,16.18616868850893" fill="#dca100" stroke="black" stroke-width="0.5"/><circle cx="447.5" cy="24.20" r="2" fill="#1f77b4"/><polygon points="447.5,11.19791204283797 452.5,16.19791204283797 447.5,21.19791204283797 442.5,16.19791204283797" fill="#dca100" stroke="black" stroke-width="0.5"/><circle cx="535.0" cy="24.71" r="2" fill="#1f77b4"/><polygon points="535.0,11.71214734819327 540.0,16.71214734819327 535.0,21.71214734819327 530.0,16.71214734819327" fill="#dca100" stroke="black" stroke-width="0.5"/><circle cx="622.5" cy="22.06" r="2" fill="#1f77b4"/><polygon points="622.5,9.064329982637815 627.5,14.064329982637815 622.5,19.064329982637815 617.5,14.064329982637815" fill="#dca100" stroke="black" stroke-width="0.5"/><circle cx="710.0" cy="12.59" r="2" fill="#1f77b4"/><polygon points="710.0,-0.41379310344827047 715.0,4.5862068965517295 710.0,9.58620689655173 705.0,4.5862068965517295" fill="#dca100" stroke="black" stroke-width="0.5"/><text x="716" y="12" font-size="9" text-anchor="end" fill="#1f77b4" font-family="sans-serif">perf-stat.cache-misses (lower=better)</text></g><g transform="translate(40,304)"><rect x="0" y="0" width="720" height="120" fill="white" stroke="#888" stroke-width="0.5"/><text x="4" y="-4" font-size="11" font-family="sans-serif">cycles</text><text x="2" y="10" font-size="8" fill="#444" font-family="sans-serif">5.72e+07</text><text x="2" y="118" font-size="8" fill="#444" font-family="sans-serif">8.6e+05</text><line x1="10.0" y1="0" x2="10.0" y2="120" stroke="#2ca02c" stroke-width="0.7" stroke-dasharray="3,2"/><polyline points="10.0,107.41 97.5,106.79 185.0,14.40 272.5,12.59 360.0,14.08 447.5,13.60 535.0,15.01 622.5,13.98 710.0,12.90" fill="none" stroke="#1f77b4" stroke-width="1.2"/><circle cx="10.0" cy="107.41" r="2" fill="#1f77b4"/><polygon points="10.0,94.41379310344827 5.0,104.41379310344827 15.0,104.41379310344827" fill="#2ca02c" stroke="black" stroke-width="0.5"/><circle cx="97.5" cy="106.79" r="2" fill="#1f77b4"/><polygon points="97.5,93.7858352800484 102.5,98.7858352800484 97.5,103.7858352800484 92.5,98.7858352800484" fill="#dca100" stroke="black" stroke-width="0.5"/><circle cx="185.0" cy="14.40" r="2" fill="#1f77b4"/><polygon points="185.0,1.4010913596581247 190.0,6.401091359658125 185.0,11.401091359658125 180.0,6.401091359658125" fill="#dca100" stroke="black" stroke-width="0.5"/><circle cx="272.5" cy="12.59" r="2" fill="#1f77b4"/><polygon points="272.5,-0.4137931034482847 277.5,4.586206896551715 272.5,9.586206896551715 267.5,4.586206896551715" fill="#dca100" stroke="black" stroke-width="0.5"/><circle cx="360.0" cy="14.08" r="2" fill="#1f77b4"/><polygon points="360.0,1.0808781955331028 365.0,6.080878195533103 360.0,11.080878195533103 355.0,6.080878195533103" fill="#dca100" stroke="black" stroke-width="0.5"/><circle cx="447.5" cy="13.60" r="2" fill="#1f77b4"/><polygon points="447.5,0.6021360610137947 452.5,5.602136061013795 447.5,10.602136061013795 442.5,5.602136061013795" fill="#dca100" stroke="black" stroke-width="0.5"/><circle cx="535.0" cy="15.01" r="2" fill="#1f77b4"/><polygon points="535.0,2.0080273854729427 540.0,7.008027385472943 535.0,12.008027385472943 530.0,7.008027385472943" fill="#dca100" stroke="black" stroke-width="0.5"/><circle cx="622.5" cy="13.98" r="2" fill="#1f77b4"/><polygon points="622.5,0.9803350013770995 627.5,5.9803350013770995 622.5,10.9803350013771 617.5,5.9803350013770995" fill="#dca100" stroke="black" stroke-width="0.5"/><circle cx="710.0" cy="12.90" r="2" fill="#1f77b4"/><polygon points="710.0,-0.10387593126314698 715.0,4.896124068736853 710.0,9.896124068736853 705.0,4.896124068736853" fill="#dca100" stroke="black" stroke-width="0.5"/><text x="716" y="12" font-size="9" text-anchor="end" fill="#1f77b4" font-family="sans-serif">perf-stat.cycles (lower=better)</text></g><g transform="translate(40,442)"><rect x="0" y="0" width="720" height="120" fill="white" stroke="#888" stroke-width="0.5"/><text x="4" y="-4" font-size="11" font-family="sans-serif">instructions</text><text x="2" y="10" font-size="8" fill="#444" font-family="sans-serif">1.13e+08</text><text x="2" y="118" font-size="8" fill="#444" font-family="sans-serif">-3.45e+06</text><line x1="10.0" y1="0" x2="10.0" y2="120" stroke="#2ca02c" stroke-width="0.7" stroke-dasharray="3,2"/><polyline points="10.0,107.41 97.5,107.39 185.0,12.85 272.5,12.82 360.0,12.95 447.5,12.94 535.0,12.98 622.5,12.93 710.0,12.59" fill="none" stroke="#1f77b4" stroke-width="1.2"/><circle cx="10.0" cy="107.41" r="2" fill="#1f77b4"/><polygon points="10.0,94.41379310344827 5.0,104.41379310344827 15.0,104.41379310344827" fill="#2ca02c" stroke="black" stroke-width="0.5"/><circle cx="97.5" cy="107.39" r="2" fill="#1f77b4"/><polygon points="97.5,94.39377412806544 102.5,99.39377412806544 97.5,104.39377412806544 92.5,99.39377412806544" fill="#dca100" stroke="black" stroke-width="0.5"/><circle cx="185.0" cy="12.85" r="2" fill="#1f77b4"/><polygon points="185.0,-0.14643634028509211 190.0,4.853563659714908 185.0,9.853563659714908 180.0,4.853563659714908" fill="#dca100" stroke="black" stroke-width="0.5"/><circle cx="272.5" cy="12.82" r="2" fill="#1f77b4"/><polygon points="272.5,-0.1756171684255463 277.5,4.824382831574454 272.5,9.824382831574454 267.5,4.824382831574454" fill="#dca100" stroke="black" stroke-width="0.5"/><circle cx="360.0" cy="12.95" r="2" fill="#1f77b4"/><polygon points="360.0,-0.05048197987639469 365.0,4.949518020123605 360.0,9.949518020123605 355.0,4.949518020123605" fill="#dca100" stroke="black" stroke-width="0.5"/><circle cx="447.5" cy="12.94" r="2" fill="#1f77b4"/><polygon points="447.5,-0.06273191650358001 452.5,4.93726808349642 447.5,9.93726808349642 442.5,4.93726808349642" fill="#dca100" stroke="black" stroke-width="0.5"/><circle cx="535.0" cy="12.98" r="2" fill="#1f77b4"/><polygon points="535.0,-0.018844527447924975 540.0,4.981155472552075 535.0,9.981155472552075 530.0,4.981155472552075" fill="#dca100" stroke="black" stroke-width="0.5"/><circle cx="622.5" cy="12.93" r="2" fill="#1f77b4"/><polygon points="622.5,-0.06730952440109661 627.5,4.932690475598903 622.5,9.932690475598903 617.5,4.932690475598903" fill="#dca100" stroke="black" stroke-width="0.5"/><circle cx="710.0" cy="12.59" r="2" fill="#1f77b4"/><polygon points="710.0,-0.41379310344827047 715.0,4.5862068965517295 710.0,9.58620689655173 705.0,4.5862068965517295" fill="#dca100" stroke="black" stroke-width="0.5"/><text x="716" y="12" font-size="9" text-anchor="end" fill="#1f77b4" font-family="sans-serif">perf-stat.instructions (lower=better)</text></g><g transform="translate(40,580)"><rect x="0" y="0" width="720" height="120" fill="white" stroke="#888" stroke-width="0.5"/><text x="4" y="-4" font-size="11" font-family="sans-serif">max_rss_kb</text><text x="2" y="10" font-size="8" fill="#444" font-family="sans-serif">8.28e+03</text><text x="2" y="118" font-size="8" fill="#444" font-family="sans-serif">8.01e+03</text><line x1="10.0" y1="0" x2="10.0" y2="120" stroke="#2ca02c" stroke-width="0.7" stroke-dasharray="3,2"/><polyline points="185.0,39.20 272.5,75.80 360.0,64.16 447.5,69.15 535.0,12.59 622.5,94.10 710.0,107.41" fill="none" stroke="#1f77b4" stroke-width="1.2"/><circle cx="185.0" cy="39.20" r="2" fill="#1f77b4"/><polygon points="185.0,26.204476709013875 190.0,31.204476709013875 185.0,36.204476709013875 180.0,31.204476709013875" fill="#dca100" stroke="black" stroke-width="0.5"/><circle cx="272.5" cy="75.80" r="2" fill="#1f77b4"/><polygon points="272.5,62.80459770114945 277.5,67.80459770114945 272.5,72.80459770114945 267.5,67.80459770114945" fill="#dca100" stroke="black" stroke-width="0.5"/><circle cx="360.0" cy="64.16" r="2" fill="#1f77b4"/><polygon points="360.0,51.15910465819722 365.0,56.15910465819722 360.0,61.15910465819722 355.0,56.15910465819722" fill="#dca100" stroke="black" stroke-width="0.5"/><circle cx="447.5" cy="69.15" r="2" fill="#1f77b4"/><polygon points="447.5,56.150030248033886 452.5,61.150030248033886 447.5,66.15003024803389 442.5,61.150030248033886" fill="#dca100" stroke="black" stroke-width="0.5"/><circle cx="535.0" cy="12.59" r="2" fill="#1f77b4"/><polygon points="535.0,-0.41379310344835574 540.0,4.586206896551644 535.0,9.586206896551644 530.0,4.586206896551644" fill="#dca100" stroke="black" stroke-width="0.5"/><circle cx="622.5" cy="94.10" r="2" fill="#1f77b4"/><polygon points="622.5,81.10465819721723 627.5,86.10465819721723 622.5,91.10465819721723 617.5,86.10465819721723" fill="#dca100" stroke="black" stroke-width="0.5"/><circle cx="710.0" cy="107.41" r="2" fill="#1f77b4"/><polygon points="710.0,94.41379310344836 715.0,99.41379310344836 710.0,104.41379310344836 705.0,99.41379310344836" fill="#dca100" stroke="black" stroke-width="0.5"/><text x="716" y="12" font-size="9" text-anchor="end" fill="#1f77b4" font-family="sans-serif">rusage.default.max_rss_kb (lower=better)</text><polyline points="185.0,39.20 272.5,75.80 360.0,64.16 447.5,69.15 535.0,12.59 622.5,94.10 710.0,107.41" fill="none" stroke="#ff7f0e" stroke-width="1.2"/><circle cx="185.0" cy="39.20" r="2" fill="#ff7f0e"/><polygon points="185.0,26.204476709013875 190.0,31.204476709013875 185.0,36.204476709013875 180.0,31.204476709013875" fill="#dca100" stroke="black" stroke-width="0.5"/><circle cx="272.5" cy="75.80" r="2" fill="#ff7f0e"/><polygon points="272.5,62.80459770114945 277.5,67.80459770114945 272.5,72.80459770114945 267.5,67.80459770114945" fill="#dca100" stroke="black" stroke-width="0.5"/><circle cx="360.0" cy="64.16" r="2" fill="#ff7f0e"/><polygon points="360.0,51.15910465819722 365.0,56.15910465819722 360.0,61.15910465819722 355.0,56.15910465819722" fill="#dca100" stroke="black" stroke-width="0.5"/><circle cx="447.5" cy="69.15" r="2" fill="#ff7f0e"/><polygon points="447.5,56.150030248033886 452.5,61.150030248033886 447.5,66.15003024803389 442.5,61.150030248033886" fill="#dca100" stroke="black" stroke-width="0.5"/><circle cx="535.0" cy="12.59" r="2" fill="#ff7f0e"/><polygon points="535.0,-0.41379310344835574 540.0,4.586206896551644 535.0,9.586206896551644 530.0,4.586206896551644" fill="#dca100" stroke="black" stroke-width="0.5"/><circle cx="622.5" cy="94.10" r="2" fill="#ff7f0e"/><polygon points="622.5,81.10465819721723 627.5,86.10465819721723 622.5,91.10465819721723 617.5,86.10465819721723" fill="#dca100" stroke="black" stroke-width="0.5"/><circle cx="710.0" cy="107.41" r="2" fill="#ff7f0e"/><polygon points="710.0,94.41379310344836 715.0,99.41379310344836 710.0,104.41379310344836 705.0,99.41379310344836" fill="#dca100" stroke="black" stroke-width="0.5"/><text x="716" y="23" font-size="9" text-anchor="end" fill="#ff7f0e" font-family="sans-serif">rusage.max_rss_kb (lower=better)</text></g><g transform="translate(40,718)"><rect x="0" y="0" width="720" height="120" fill="white" stroke="#888" stroke-width="0.5"/><text x="4" y="-4" font-size="11" font-family="sans-serif">wall_s</text><text x="2" y="10" font-size="8" fill="#444" font-family="sans-serif">1.19</text><text x="2" y="118" font-size="8" fill="#444" font-family="sans-serif">-1.13</text><line x1="10.0" y1="0" x2="10.0" y2="120" stroke="#2ca02c" stroke-width="0.7" stroke-dasharray="3,2"/><polyline points="185.0,60.00 272.5,60.00 360.0,60.00 447.5,60.00 535.0,60.00 622.5,60.00 710.0,60.00" fill="none" stroke="#1f77b4" stroke-width="1.2"/><circle cx="185.0" cy="60.00" r="2" fill="#1f77b4"/><polygon points="185.0,47.0 190.0,52.0 185.0,57.0 180.0,52.0" fill="#dca100" stroke="black" stroke-width="0.5"/><circle cx="272.5" cy="60.00" r="2" fill="#1f77b4"/><polygon points="272.5,47.0 277.5,52.0 272.5,57.0 267.5,52.0" fill="#dca100" stroke="black" stroke-width="0.5"/><circle cx="360.0" cy="60.00" r="2" fill="#1f77b4"/><polygon points="360.0,47.0 365.0,52.0 360.0,57.0 355.0,52.0" fill="#dca100" stroke="black" stroke-width="0.5"/><circle cx="447.5" cy="60.00" r="2" fill="#1f77b4"/><polygon points="447.5,47.0 452.5,52.0 447.5,57.0 442.5,52.0" fill="#dca100" stroke="black" stroke-width="0.5"/><circle cx="535.0" cy="60.00" r="2" fill="#1f77b4"/><polygon points="535.0,47.0 540.0,52.0 535.0,57.0 530.0,52.0" fill="#dca100" stroke="black" stroke-width="0.5"/><circle cx="622.5" cy="60.00" r="2" fill="#1f77b4"/><polygon points="622.5,47.0 627.5,52.0 622.5,57.0 617.5,52.0" fill="#dca100" stroke="black" stroke-width="0.5"/><circle cx="710.0" cy="60.00" r="2" fill="#1f77b4"/><polygon points="710.0,47.0 715.0,52.0 710.0,57.0 705.0,52.0" fill="#dca100" stroke="black" stroke-width="0.5"/><text x="716" y="12" font-size="9" text-anchor="end" fill="#1f77b4" font-family="sans-serif">rusage.default.wall_s (lower=better)</text><polyline points="185.0,60.00 272.5,60.00 360.0,60.00 447.5,60.00 535.0,60.00 622.5,60.00 710.0,60.00" fill="none" stroke="#ff7f0e" stroke-width="1.2"/><circle cx="185.0" cy="60.00" r="2" fill="#ff7f0e"/><polygon points="185.0,47.0 190.0,52.0 185.0,57.0 180.0,52.0" fill="#dca100" stroke="black" stroke-width="0.5"/><circle cx="272.5" cy="60.00" r="2" fill="#ff7f0e"/><polygon points="272.5,47.0 277.5,52.0 272.5,57.0 267.5,52.0" fill="#dca100" stroke="black" stroke-width="0.5"/><circle cx="360.0" cy="60.00" r="2" fill="#ff7f0e"/><polygon points="360.0,47.0 365.0,52.0 360.0,57.0 355.0,52.0" fill="#dca100" stroke="black" stroke-width="0.5"/><circle cx="447.5" cy="60.00" r="2" fill="#ff7f0e"/><polygon points="447.5,47.0 452.5,52.0 447.5,57.0 442.5,52.0" fill="#dca100" stroke="black" stroke-width="0.5"/><circle cx="535.0" cy="60.00" r="2" fill="#ff7f0e"/><polygon points="535.0,47.0 540.0,52.0 535.0,57.0 530.0,52.0" fill="#dca100" stroke="black" stroke-width="0.5"/><circle cx="622.5" cy="60.00" r="2" fill="#ff7f0e"/><polygon points="622.5,47.0 627.5,52.0 622.5,57.0 617.5,52.0" fill="#dca100" stroke="black" stroke-width="0.5"/><circle cx="710.0" cy="60.00" r="2" fill="#ff7f0e"/><polygon points="710.0,47.0 715.0,52.0 710.0,57.0 705.0,52.0" fill="#dca100" stroke="black" stroke-width="0.5"/><text x="716" y="23" font-size="9" text-anchor="end" fill="#ff7f0e" font-family="sans-serif">rusage.wall_s (lower=better)</text></g><g transform="translate(40,856)"><text x="10.0" y="10" font-size="8" fill="#2ca02c" text-anchor="middle" font-family="monospace" transform="rotate(45 10.0 10)">edca85f</text><text x="97.5" y="10" font-size="8" fill="#222" text-anchor="middle" font-family="monospace" transform="rotate(45 97.5 10)">90ce69c</text><text x="185.0" y="10" font-size="8" fill="#222" text-anchor="middle" font-family="monospace" transform="rotate(45 185.0 10)">90ce69c</text><text x="272.5" y="10" font-size="8" fill="#222" text-anchor="middle" font-family="monospace" transform="rotate(45 272.5 10)">1856b24</text><text x="360.0" y="10" font-size="8" fill="#222" text-anchor="middle" font-family="monospace" transform="rotate(45 360.0 10)">a166d07</text><text x="447.5" y="10" font-size="8" fill="#222" text-anchor="middle" font-family="monospace" transform="rotate(45 447.5 10)">a166d07</text><text x="535.0" y="10" font-size="8" fill="#222" text-anchor="middle" font-family="monospace" transform="rotate(45 535.0 10)">a166d07</text><text x="622.5" y="10" font-size="8" fill="#222" text-anchor="middle" font-family="monospace" transform="rotate(45 622.5 10)">a166d07</text><text x="710.0" y="10" font-size="8" fill="#222" text-anchor="middle" font-family="monospace" transform="rotate(45 710.0 10)">a166d07</text></g><g transform="translate(540,892)"><text x="0" y="0" font-size="9" font-family="sans-serif">decisions:</text><polygon points="60,-9 55,1 65,1" fill="#2ca02c" stroke="black" stroke-width="0.5"/><text x="68" y="0" font-size="9" font-family="sans-serif">KEEP</text><polygon points="125,1 120,-9 130,-9" fill="#d62728" stroke="black" stroke-width="0.5"/><text x="133" y="0" font-size="9" font-family="sans-serif">DISCARD</text><polygon points="190,-9 195,-4 190,1 185,-4" fill="#dca100" stroke="black" stroke-width="0.5"/><text x="198" y="0" font-size="9" font-family="sans-serif">ESCALATE</text></g></svg>
