<?xml version="1.0" encoding="UTF-8"?>
<svg xmlns="http://www.w3.org/2000/svg" version="1.1" width="780" height="630" viewBox="0 0 780 630"><text x="40" y="18" font-size="13" font-family="sans-serif" font-weight="bold">benchmarkserversave -- amd64-lxc/laptopHB (11th-gen-intel-r-core-tm-i7-11370h-3-30ghz, x86_64, n=1)</text><g transform="translate(40,28)"><rect x="0" y="0" width="720" height="120" fill="white" stroke="#888" stroke-width="0.5"/><text x="4" y="-4" font-size="11" font-family="sans-serif">branch-misses</text><text x="2" y="10" font-size="8" fill="#444" font-family="sans-serif">3.09e+04</text><text x="2" y="118" font-size="8" fill="#444" font-family="sans-serif">3.09e+04</text><line x1="360.0" y1="0" x2="360.0" y2="120" stroke="#2ca02c" stroke-width="0.7" stroke-dasharray="3,2"/><polyline points="360.0,60.00" fill="none" stroke="#1f77b4" stroke-width="1.2"/><circle cx="360.0" cy="60.00" r="2" fill="#1f77b4"/><polygon points="360.0,47.0 355.0,57.0 365.0,57.0" fill="#2ca02c" stroke="black" stroke-width="0.5"/><text x="716" y="12" font-size="9" text-anchor="end" fill="#1f77b4" font-family="sans-serif">perf-stat.branch-misses (lower=better)</text></g><g transform="translate(40,166)"><rect x="0" y="0" width="720" height="120" fill="white" stroke="#888" stroke-width="0.5"/><text x="4" y="-4" font-size="11" font-family="sans-serif">cache-misses</text><text x="2" y="10" font-size="8" fill="#444" font-family="sans-serif">3.62e+04</text><text x="2" y="118" font-size="8" fill="#444" font-family="sans-serif">3.62e+04</text><line x1="360.0" y1="0" x2="360.0" y2="120" stroke="#2ca02c" stroke-width="0.7" stroke-dasharray="3,2"/><polyline points="360.0,60.00" fill="none" stroke="#1f77b4" stroke-width="1.2"/><circle cx="360.0" cy="60.00" r="2" fill="#1f77b4"/><polygon points="360.0,47.0 355.0,57.0 365.0,57.0" fill="#2ca02c" stroke="black" stroke-width="0.5"/><text x="716" y="12" font-size="9" text-anchor="end" fill="#1f77b4" font-family="sans-serif">perf-stat.cache-misses (lower=better)</text></g><g transform="translate(40,304)"><rect x="0" y="0" width="720" height="120" fill="white" stroke="#888" stroke-width="0.5"/><text x="4" y="-4" font-size="11" font-family="sans-serif">cycles</text><text x="2" y="10" font-size="8" fill="#444" font-family="sans-serif">4.74e+06</text><text x="2" y="118" font-size="8" fill="#444" font-family="sans-serif">4.74e+06</text><line x1="360.0" y1="0" x2="360.0" y2="120" stroke="#2ca02c" stroke-width="0.7" stroke-dasharray="3,2"/><polyline points="360.0,60.00" fill="none" stroke="#1f77b4" stroke-width="1.2"/><circle cx="360.0" cy="60.00" r="2" fill="#1f77b4"/><polygon points="360.0,47.0 355.0,57.0 365.0,57.0" fill="#2ca02c" stroke="black" stroke-width="0.5"/><text x="716" y="12" font-size="9" text-anchor="end" fill="#1f77b4" font-family="sans-serif">perf-stat.cycles (lower=better)</text></g><g transform="translate(40,442)"><rect x="0" y="0" width="720" height="120" fill="white" stroke="#888" stroke-width="0.5"/><text x="4" y="-4" font-size="11" font-family="sans-serif">instructions</text><text x="2" y="10" font-size="8" fill="#444" font-family="sans-serif">4.55e+06</text><text x="2" y="118" font-size="8" fill="#444" font-family="sans-serif">4.55e+06</text><line x1="360.0" y1="0" x2="360.0" y2="120" stroke="#2ca02c" stroke-width="0.7" stroke-dasharray="3,2"/><polyline points="360.0,60.00" fill="none" stroke="#1f77b4" stroke-width="1.2"/><circle cx="360.0" cy="60.00" r="2" fill="#1f77b4"/><polygon points="360.0,47.0 355.0,57.0 365.0,57.0" fill="#2ca02c" stroke="black" stroke-width="0.5"/><text x="716" y="12" font-size="9" text-anchor="end" fill="#1f77b4" font-family="sans-serif">perf-stat.instructions (lower=better)</text></g><g transform="translate(40,580)"><text x="360.0" y="10" font-size="8" fill="#2ca02c" text-anchor="middle" font-family="monospace" transform="rotate(45 360.0 10)">edca85f</text></g><g transform="translate(540,616)"><text x="0" y="0" font-size="9" font-family="sans-serif">decisions:</text><polygon points="60,-9 55,1 65,1" fill="#2ca02c" stroke="black" stroke-width="0.5"/><text x="68" y="0" font-size="9" font-family="sans-serif">KEEP</text><polygon points="125,1 120,-9 130,-9" fill="#d62728" stroke="black" stroke-width="0.5"/><text x="133" y="0" font-size="9" font-family="sans-serif">DISCARD</text><polygon points="190,-9 195,-4 190,1 185,-4" fill="#dca100" stroke="black" stroke-width="0.5"/><text x="198" y="0" font-size="9" font-family="sans-serif">ESCALATE</text></g></svg>
