<?xml version="1.0" encoding="UTF-8"?>
<svg xmlns="http://www.w3.org/2000/svg" version="1.1" width="780" height="906" viewBox="0 0 780 906"><text x="40" y="18" font-size="13" font-family="sans-serif" font-weight="bold">benchmarkserversave -- amd64-lxc/laptopHB (11th-gen-intel-r-core-tm-i7-11370h-3-30ghz, x86_64, n=5)</text><g transform="translate(40,28)"><rect x="0" y="0" width="720" height="120" fill="white" stroke="#888" stroke-width="0.5"/><text x="4" y="-4" font-size="11" font-family="sans-serif">branch-misses</text><text x="2" y="10" font-size="8" fill="#444" font-family="sans-serif">2.22e+05</text><text x="2" y="118" font-size="8" fill="#444" font-family="sans-serif">2.2e+05</text><line x1="10.0" y1="0" x2="10.0" y2="120" stroke="#2ca02c" stroke-width="0.7" stroke-dasharray="3,2"/><polyline points="10.0,38.48 185.0,12.59 360.0,107.41 535.0,28.08 710.0,13.50" fill="none" stroke="#1f77b4" stroke-width="1.2"/><circle cx="10.0" cy="38.48" r="2" fill="#1f77b4"/><polygon points="10.0,25.477515058185773 5.0,35.47751505818577 15.0,35.47751505818577" fill="#2ca02c" stroke="black" stroke-width="0.5"/><circle cx="185.0" cy="12.59" r="2" fill="#1f77b4"/><polygon points="185.0,-0.41379310344876785 190.0,4.586206896551232 185.0,9.586206896551232 180.0,4.586206896551232" fill="#dca100" stroke="black" stroke-width="0.5"/><circle cx="360.0" cy="107.41" r="2" fill="#1f77b4"/><polygon points="360.0,94.41379310344875 365.0,99.41379310344875 360.0,104.41379310344875 355.0,99.41379310344875" fill="#dca100" stroke="black" stroke-width="0.5"/><circle cx="535.0" cy="28.08" r="2" fill="#1f77b4"/><polygon points="535.0,15.078107639226971 540.0,20.07810763922697 535.0,25.07810763922697 530.0,20.07810763922697" fill="#dca100" stroke="black" stroke-width="0.5"/><circle cx="710.0" cy="13.50" r="2" fill="#1f77b4"/><polygon points="710.0,0.4974951755321655 715.0,5.4974951755321655 710.0,10.497495175532165 705.0,5.4974951755321655" fill="#dca100" stroke="black" stroke-width="0.5"/><text x="716" y="12" font-size="9" text-anchor="end" fill="#1f77b4" font-family="sans-serif">perf-stat.branch-misses (lower=better)</text></g><g transform="translate(40,166)"><rect x="0" y="0" width="720" height="120" fill="white" stroke="#888" stroke-width="0.5"/><text x="4" y="-4" font-size="11" font-family="sans-serif">cache-misses</text><text x="2" y="10" font-size="8" fill="#444" font-family="sans-serif">1.8e+05</text><text x="2" y="118" font-size="8" fill="#444" font-family="sans-serif">1.67e+05</text><line x1="10.0" y1="0" x2="10.0" y2="120" stroke="#2ca02c" stroke-width="0.7" stroke-dasharray="3,2"/><polyline points="10.0,12.59 185.0,107.41 360.0,104.10 535.0,70.87 710.0,96.94" fill="none" stroke="#1f77b4" stroke-width="1.2"/><circle cx="10.0" cy="12.59" r="2" fill="#1f77b4"/><polygon points="10.0,-0.41379310344824205 5.0,9.586206896551758 15.0,9.586206896551758" fill="#2ca02c" stroke="black" stroke-width="0.5"/><circle cx="185.0" cy="107.41" r="2" fill="#1f77b4"/><polygon points="185.0,94.41379310344824 190.0,99.41379310344824 185.0,104.41379310344824 180.0,99.41379310344824" fill="#dca100" stroke="black" stroke-width="0.5"/><circle cx="360.0" cy="104.10" r="2" fill="#1f77b4"/><polygon points="360.0,91.09939607940217 365.0,96.09939607940217 360.0,101.09939607940217 355.0,96.09939607940217" fill="#dca100" stroke="black" stroke-width="0.5"/><circle cx="535.0" cy="70.87" r="2" fill="#1f77b4"/><polygon points="535.0,57.874805370789005 540.0,62.874805370789005 535.0,67.874805370789 530.0,62.874805370789005" fill="#dca100" stroke="black" stroke-width="0.5"/><circle cx="710.0" cy="96.94" r="2" fill="#1f77b4"/><polygon points="710.0,83.9420900734216 715.0,88.9420900734216 710.0,93.9420900734216 705.0,88.9420900734216" fill="#dca100" stroke="black" stroke-width="0.5"/><text x="716" y="12" font-size="9" text-anchor="end" fill="#1f77b4" font-family="sans-serif">perf-stat.cache-misses (lower=better)</text></g><g transform="translate(40,304)"><rect x="0" y="0" width="720" height="120" fill="white" stroke="#888" stroke-width="0.5"/><text x="4" y="-4" font-size="11" font-family="sans-serif">cycles</text><text x="2" y="10" font-size="8" fill="#444" font-family="sans-serif">5.25e+07</text><text x="2" y="118" font-size="8" fill="#444" font-family="sans-serif">5.07e+07</text><line x1="10.0" y1="0" x2="10.0" y2="120" stroke="#2ca02c" stroke-width="0.7" stroke-dasharray="3,2"/><polyline points="10.0,27.17 185.0,107.41 360.0,96.61 535.0,12.59 710.0,86.17" fill="none" stroke="#1f77b4" stroke-width="1.2"/><circle cx="10.0" cy="27.17" r="2" fill="#1f77b4"/><polygon points="10.0,14.172220901348169 5.0,24.17222090134817 15.0,24.17222090134817" fill="#2ca02c" stroke="black" stroke-width="0.5"/><circle cx="185.0" cy="107.41" r="2" fill="#1f77b4"/><polygon points="185.0,94.41379310344824 190.0,99.41379310344824 185.0,104.41379310344824 180.0,99.41379310344824" fill="#dca100" stroke="black" stroke-width="0.5"/><circle cx="360.0" cy="96.61" r="2" fill="#1f77b4"/><polygon points="360.0,83.60791989279241 365.0,88.60791989279241 360.0,93.60791989279241 355.0,88.60791989279241" fill="#dca100" stroke="black" stroke-width="0.5"/><circle cx="535.0" cy="12.59" r="2" fill="#1f77b4"/><polygon points="535.0,-0.41379310344824205 540.0,4.586206896551758 535.0,9.586206896551758 530.0,4.586206896551758" fill="#dca100" stroke="black" stroke-width="0.5"/><circle cx="710.0" cy="86.17" r="2" fill="#1f77b4"/><polygon points="710.0,73.17260331670181 715.0,78.17260331670181 710.0,83.17260331670181 705.0,78.17260331670181" fill="#dca100" stroke="black" stroke-width="0.5"/><text x="716" y="12" font-size="9" text-anchor="end" fill="#1f77b4" font-family="sans-serif">perf-stat.cycles (lower=better)</text></g><g transform="translate(40,442)"><rect x="0" y="0" width="720" height="120" fill="white" stroke="#888" stroke-width="0.5"/><text x="4" y="-4" font-size="11" font-family="sans-serif">instructions</text><text x="2" y="10" font-size="8" fill="#444" font-family="sans-serif">1.02e+08</text><text x="2" y="118" font-size="8" fill="#444" font-family="sans-serif">1.01e+08</text><line x1="10.0" y1="0" x2="10.0" y2="120" stroke="#2ca02c" stroke-width="0.7" stroke-dasharray="3,2"/><polyline points="10.0,12.59 185.0,107.41 360.0,58.37 535.0,25.05 710.0,39.61" fill="none" stroke="#1f77b4" stroke-width="1.2"/><circle cx="10.0" cy="12.59" r="2" fill="#1f77b4"/><polygon points="10.0,-0.41379310344927944 5.0,9.58620689655072 15.0,9.58620689655072" fill="#2ca02c" stroke="black" stroke-width="0.5"/><circle cx="185.0" cy="107.41" r="2" fill="#1f77b4"/><polygon points="185.0,94.41379310344928 190.0,99.41379310344928 185.0,104.41379310344928 180.0,99.41379310344928" fill="#dca100" stroke="black" stroke-width="0.5"/><circle cx="360.0" cy="58.37" r="2" fill="#1f77b4"/><polygon points="360.0,45.370709784160994 365.0,50.370709784160994 360.0,55.370709784160994 355.0,50.370709784160994" fill="#dca100" stroke="black" stroke-width="0.5"/><circle cx="535.0" cy="25.05" r="2" fill="#1f77b4"/><polygon points="535.0,12.051850057916113 540.0,17.051850057916113 535.0,22.051850057916113 530.0,17.051850057916113" fill="#dca100" stroke="black" stroke-width="0.5"/><circle cx="710.0" cy="39.61" r="2" fill="#1f77b4"/><polygon points="710.0,26.614114423067136 715.0,31.614114423067136 710.0,36.614114423067136 705.0,31.614114423067136" fill="#dca100" stroke="black" stroke-width="0.5"/><text x="716" y="12" font-size="9" text-anchor="end" fill="#1f77b4" font-family="sans-serif">perf-stat.instructions (lower=better)</text></g><g transform="translate(40,580)"><rect x="0" y="0" width="720" height="120" fill="white" stroke="#888" stroke-width="0.5"/><text x="4" y="-4" font-size="11" font-family="sans-serif">max_rss_kb</text><text x="2" y="10" font-size="8" fill="#444" font-family="sans-serif">8.28e+03</text><text x="2" y="118" font-size="8" fill="#444" font-family="sans-serif">8.01e+03</text><line x1="10.0" y1="0" x2="10.0" y2="120" stroke="#2ca02c" stroke-width="0.7" stroke-dasharray="3,2"/><polyline points="10.0,36.69 185.0,30.27 360.0,107.41 535.0,12.59 710.0,38.30" fill="none" stroke="#1f77b4" stroke-width="1.2"/><circle cx="10.0" cy="36.69" r="2" fill="#1f77b4"/><polygon points="10.0,23.694915254237046 5.0,33.694915254237046 15.0,33.694915254237046" fill="#2ca02c" stroke="black" stroke-width="0.5"/><circle cx="185.0" cy="30.27" r="2" fill="#1f77b4"/><polygon points="185.0,17.265926358854216 190.0,22.265926358854216 185.0,27.265926358854216 180.0,22.265926358854216" fill="#dca100" stroke="black" stroke-width="0.5"/><circle cx="360.0" cy="107.41" r="2" fill="#1f77b4"/><polygon points="360.0,94.41379310344821 365.0,99.41379310344821 360.0,104.41379310344821 355.0,99.41379310344821" fill="#dca100" stroke="black" stroke-width="0.5"/><circle cx="535.0" cy="12.59" r="2" fill="#1f77b4"/><polygon points="535.0,-0.4137931034485831 540.0,4.586206896551417 535.0,9.586206896551417 530.0,4.586206896551417" fill="#dca100" stroke="black" stroke-width="0.5"/><circle cx="710.0" cy="38.30" r="2" fill="#1f77b4"/><polygon points="710.0,25.302162478082764 715.0,30.302162478082764 710.0,35.302162478082764 705.0,30.302162478082764" fill="#dca100" stroke="black" stroke-width="0.5"/><text x="716" y="12" font-size="9" text-anchor="end" fill="#1f77b4" font-family="sans-serif">rusage.default.max_rss_kb (lower=better)</text><polyline points="10.0,36.69 185.0,30.27 360.0,107.41 535.0,12.59 710.0,38.30" fill="none" stroke="#ff7f0e" stroke-width="1.2"/><circle cx="10.0" cy="36.69" r="2" fill="#ff7f0e"/><polygon points="10.0,23.694915254237046 5.0,33.694915254237046 15.0,33.694915254237046" fill="#2ca02c" stroke="black" stroke-width="0.5"/><circle cx="185.0" cy="30.27" r="2" fill="#ff7f0e"/><polygon points="185.0,17.265926358854216 190.0,22.265926358854216 185.0,27.265926358854216 180.0,22.265926358854216" fill="#dca100" stroke="black" stroke-width="0.5"/><circle cx="360.0" cy="107.41" r="2" fill="#ff7f0e"/><polygon points="360.0,94.41379310344821 365.0,99.41379310344821 360.0,104.41379310344821 355.0,99.41379310344821" fill="#dca100" stroke="black" stroke-width="0.5"/><circle cx="535.0" cy="12.59" r="2" fill="#ff7f0e"/><polygon points="535.0,-0.4137931034485831 540.0,4.586206896551417 535.0,9.586206896551417 530.0,4.586206896551417" fill="#dca100" stroke="black" stroke-width="0.5"/><circle cx="710.0" cy="38.30" r="2" fill="#ff7f0e"/><polygon points="710.0,25.302162478082764 715.0,30.302162478082764 710.0,35.302162478082764 705.0,30.302162478082764" fill="#dca100" stroke="black" stroke-width="0.5"/><text x="716" y="23" font-size="9" text-anchor="end" fill="#ff7f0e" font-family="sans-serif">rusage.max_rss_kb (lower=better)</text></g><g transform="translate(40,718)"><rect x="0" y="0" width="720" height="120" fill="white" stroke="#888" stroke-width="0.5"/><text x="4" y="-4" font-size="11" font-family="sans-serif">wall_s</text><text x="2" y="10" font-size="8" fill="#444" font-family="sans-serif">0.0308</text><text x="2" y="118" font-size="8" fill="#444" font-family="sans-serif">0.0192</text><line x1="10.0" y1="0" x2="10.0" y2="120" stroke="#2ca02c" stroke-width="0.7" stroke-dasharray="3,2"/><polyline points="10.0,12.59 185.0,12.59 360.0,12.59 535.0,12.59 710.0,107.41" fill="none" stroke="#1f77b4" stroke-width="1.2"/><circle cx="10.0" cy="12.59" r="2" fill="#1f77b4"/><polygon points="10.0,-0.4137931034482847 5.0,9.586206896551715 15.0,9.586206896551715" fill="#2ca02c" stroke="black" stroke-width="0.5"/><circle cx="185.0" cy="12.59" r="2" fill="#1f77b4"/><polygon points="185.0,-0.4137931034482847 190.0,4.586206896551715 185.0,9.586206896551715 180.0,4.586206896551715" fill="#dca100" stroke="black" stroke-width="0.5"/><circle cx="360.0" cy="12.59" r="2" fill="#1f77b4"/><polygon points="360.0,-0.4137931034482847 365.0,4.586206896551715 360.0,9.586206896551715 355.0,4.586206896551715" fill="#dca100" stroke="black" stroke-width="0.5"/><circle cx="535.0" cy="12.59" r="2" fill="#1f77b4"/><polygon points="535.0,-0.4137931034482847 540.0,4.586206896551715 535.0,9.586206896551715 530.0,4.586206896551715" fill="#dca100" stroke="black" stroke-width="0.5"/><circle cx="710.0" cy="107.41" r="2" fill="#1f77b4"/><polygon points="710.0,94.41379310344828 715.0,99.41379310344828 710.0,104.41379310344828 705.0,99.41379310344828" fill="#dca100" stroke="black" stroke-width="0.5"/><text x="716" y="12" font-size="9" text-anchor="end" fill="#1f77b4" font-family="sans-serif">rusage.default.wall_s (lower=better)</text><polyline points="10.0,12.59 185.0,12.59 360.0,12.59 535.0,12.59 710.0,107.41" fill="none" stroke="#ff7f0e" stroke-width="1.2"/><circle cx="10.0" cy="12.59" r="2" fill="#ff7f0e"/><polygon points="10.0,-0.4137931034482847 5.0,9.586206896551715 15.0,9.586206896551715" fill="#2ca02c" stroke="black" stroke-width="0.5"/><circle cx="185.0" cy="12.59" r="2" fill="#ff7f0e"/><polygon points="185.0,-0.4137931034482847 190.0,4.586206896551715 185.0,9.586206896551715 180.0,4.586206896551715" fill="#dca100" stroke="black" stroke-width="0.5"/><circle cx="360.0" cy="12.59" r="2" fill="#ff7f0e"/><polygon points="360.0,-0.4137931034482847 365.0,4.586206896551715 360.0,9.586206896551715 355.0,4.586206896551715" fill="#dca100" stroke="black" stroke-width="0.5"/><circle cx="535.0" cy="12.59" r="2" fill="#ff7f0e"/><polygon points="535.0,-0.4137931034482847 540.0,4.586206896551715 535.0,9.586206896551715 530.0,4.586206896551715" fill="#dca100" stroke="black" stroke-width="0.5"/><circle cx="710.0" cy="107.41" r="2" fill="#ff7f0e"/><polygon points="710.0,94.41379310344828 715.0,99.41379310344828 710.0,104.41379310344828 705.0,99.41379310344828" fill="#dca100" stroke="black" stroke-width="0.5"/><text x="716" y="23" font-size="9" text-anchor="end" fill="#ff7f0e" font-family="sans-serif">rusage.wall_s (lower=better)</text></g><g transform="translate(40,856)"><text x="10.0" y="10" font-size="8" fill="#2ca02c" text-anchor="middle" font-family="monospace" transform="rotate(45 10.0 10)">3d5154e</text><text x="185.0" y="10" font-size="8" fill="#222" text-anchor="middle" font-family="monospace" transform="rotate(45 185.0 10)">3d5154e</text><text x="360.0" y="10" font-size="8" fill="#222" text-anchor="middle" font-family="monospace" transform="rotate(45 360.0 10)">3d5154e</text><text x="535.0" y="10" font-size="8" fill="#222" text-anchor="middle" font-family="monospace" transform="rotate(45 535.0 10)">3d5154e</text><text x="710.0" y="10" font-size="8" fill="#222" text-anchor="middle" font-family="monospace" transform="rotate(45 710.0 10)">3d5154e</text></g><g transform="translate(540,892)"><text x="0" y="0" font-size="9" font-family="sans-serif">decisions:</text><polygon points="60,-9 55,1 65,1" fill="#2ca02c" stroke="black" stroke-width="0.5"/><text x="68" y="0" font-size="9" font-family="sans-serif">KEEP</text><polygon points="125,1 120,-9 130,-9" fill="#d62728" stroke="black" stroke-width="0.5"/><text x="133" y="0" font-size="9" font-family="sans-serif">DISCARD</text><polygon points="190,-9 195,-4 190,1 185,-4" fill="#dca100" stroke="black" stroke-width="0.5"/><text x="198" y="0" font-size="9" font-family="sans-serif">ESCALATE</text></g></svg>
