<?xml version="1.0" encoding="UTF-8"?>
<svg xmlns="http://www.w3.org/2000/svg" version="1.1" width="780" height="4356" viewBox="0 0 780 4356"><text x="40" y="18" font-size="13" font-family="sans-serif" font-weight="bold">benchmarkbotactions -- LXC armv8-debian-13-armv8/odroid-n2 (armv8-processor-rev-4-v8l, aarch64, n=12)</text><g transform="translate(40,28)"><rect x="0" y="0" width="720" height="120" fill="white" stroke="#888" stroke-width="0.5"/><text x="4" y="-4" font-size="11" font-family="sans-serif">b128_invol_ctx</text><text x="2" y="10" font-size="8" fill="#444" font-family="sans-serif">14.1</text><text x="2" y="118" font-size="8" fill="#444" font-family="sans-serif">12.9</text><line x1="10.0" y1="0" x2="10.0" y2="120" stroke="#2ca02c" stroke-width="0.7" stroke-dasharray="3,2"/><polyline points="455.5,12.59 519.1,107.41" fill="none" stroke="#1f77b4" stroke-width="1.2"/><circle cx="455.5" cy="12.59" r="2" fill="#1f77b4"/><polygon points="455.45454545454544,-0.41379310344827047 460.45454545454544,4.5862068965517295 455.45454545454544,9.58620689655173 450.45454545454544,4.5862068965517295" fill="#dca100" stroke="black" stroke-width="0.5"/><circle cx="519.1" cy="107.41" r="2" fill="#1f77b4"/><polygon points="519.0909090909091,104.41379310344827 514.0909090909091,94.41379310344827 524.0909090909091,94.41379310344827" fill="#d62728" stroke="black" stroke-width="0.5"/><text x="716" y="12" font-size="9" text-anchor="end" fill="#1f77b4" font-family="sans-serif">rusage.b128_invol_ctx (lower=better)</text></g><g transform="translate(40,166)"><rect x="0" y="0" width="720" height="120" fill="white" stroke="#888" stroke-width="0.5"/><text x="4" y="-4" font-size="11" font-family="sans-serif">b128_major_pf</text><text x="2" y="10" font-size="8" fill="#444" font-family="sans-serif">1.16</text><text x="2" y="118" font-size="8" fill="#444" font-family="sans-serif">-1.16</text><line x1="10.0" y1="0" x2="10.0" y2="120" stroke="#2ca02c" stroke-width="0.7" stroke-dasharray="3,2"/><polyline points="455.5,60.00 519.1,60.00" fill="none" stroke="#1f77b4" stroke-width="1.2"/><circle cx="455.5" cy="60.00" r="2" fill="#1f77b4"/><polygon points="455.45454545454544,47.0 460.45454545454544,52.0 455.45454545454544,57.0 450.45454545454544,52.0" fill="#dca100" stroke="black" stroke-width="0.5"/><circle cx="519.1" cy="60.00" r="2" fill="#1f77b4"/><polygon points="519.0909090909091,57.0 514.0909090909091,47.0 524.0909090909091,47.0" fill="#d62728" stroke="black" stroke-width="0.5"/><text x="716" y="12" font-size="9" text-anchor="end" fill="#1f77b4" font-family="sans-serif">rusage.b128_major_pf (lower=better)</text></g><g transform="translate(40,304)"><rect x="0" y="0" width="720" height="120" fill="white" stroke="#888" stroke-width="0.5"/><text x="4" y="-4" font-size="11" font-family="sans-serif">b128_max_rss_kb</text><text x="2" y="10" font-size="8" fill="#444" font-family="sans-serif">1.11e+05</text><text x="2" y="118" font-size="8" fill="#444" font-family="sans-serif">1.03e+05</text><line x1="10.0" y1="0" x2="10.0" y2="120" stroke="#2ca02c" stroke-width="0.7" stroke-dasharray="3,2"/><polyline points="455.5,12.59 519.1,107.41" fill="none" stroke="#1f77b4" stroke-width="1.2"/><circle cx="455.5" cy="12.59" r="2" fill="#1f77b4"/><polygon points="455.45454545454544,-0.4137931034483273 460.45454545454544,4.586206896551673 455.45454545454544,9.586206896551673 450.45454545454544,4.586206896551673" fill="#dca100" stroke="black" stroke-width="0.5"/><circle cx="519.1" cy="107.41" r="2" fill="#1f77b4"/><polygon points="519.0909090909091,104.41379310344831 514.0909090909091,94.41379310344831 524.0909090909091,94.41379310344831" fill="#d62728" stroke="black" stroke-width="0.5"/><text x="716" y="12" font-size="9" text-anchor="end" fill="#1f77b4" font-family="sans-serif">rusage.b128_max_rss_kb (lower=better)</text></g><g transform="translate(40,442)"><rect x="0" y="0" width="720" height="120" fill="white" stroke="#888" stroke-width="0.5"/><text x="4" y="-4" font-size="11" font-family="sans-serif">b128_minor_pf</text><text x="2" y="10" font-size="8" fill="#444" font-family="sans-serif">2.06e+04</text><text x="2" y="118" font-size="8" fill="#444" font-family="sans-serif">1.85e+04</text><line x1="10.0" y1="0" x2="10.0" y2="120" stroke="#2ca02c" stroke-width="0.7" stroke-dasharray="3,2"/><polyline points="455.5,12.59 519.1,107.41" fill="none" stroke="#1f77b4" stroke-width="1.2"/><circle cx="455.5" cy="12.59" r="2" fill="#1f77b4"/><polygon points="455.45454545454544,-0.41379310344825626 460.45454545454544,4.586206896551744 455.45454545454544,9.586206896551744 450.45454545454544,4.586206896551744" fill="#dca100" stroke="black" stroke-width="0.5"/><circle cx="519.1" cy="107.41" r="2" fill="#1f77b4"/><polygon points="519.0909090909091,104.41379310344826 514.0909090909091,94.41379310344826 524.0909090909091,94.41379310344826" fill="#d62728" stroke="black" stroke-width="0.5"/><text x="716" y="12" font-size="9" text-anchor="end" fill="#1f77b4" font-family="sans-serif">rusage.b128_minor_pf (lower=better)</text></g><g transform="translate(40,580)"><rect x="0" y="0" width="720" height="120" fill="white" stroke="#888" stroke-width="0.5"/><text x="4" y="-4" font-size="11" font-family="sans-serif">b128_sys_s</text><text x="2" y="10" font-size="8" fill="#444" font-family="sans-serif">0.18</text><text x="2" y="118" font-size="8" fill="#444" font-family="sans-serif">0.175</text><line x1="10.0" y1="0" x2="10.0" y2="120" stroke="#2ca02c" stroke-width="0.7" stroke-dasharray="3,2"/><polyline points="455.5,12.59 519.1,107.41" fill="none" stroke="#1f77b4" stroke-width="1.2"/><circle cx="455.5" cy="12.59" r="2" fill="#1f77b4"/><polygon points="455.45454545454544,-0.41379310344808573 460.45454545454544,4.586206896551914 455.45454545454544,9.586206896551914 450.45454545454544,4.586206896551914" fill="#dca100" stroke="black" stroke-width="0.5"/><circle cx="519.1" cy="107.41" r="2" fill="#1f77b4"/><polygon points="519.0909090909091,104.4137931034481 514.0909090909091,94.4137931034481 524.0909090909091,94.4137931034481" fill="#d62728" stroke="black" stroke-width="0.5"/><text x="716" y="12" font-size="9" text-anchor="end" fill="#1f77b4" font-family="sans-serif">rusage.b128_sys_s (lower=better)</text></g><g transform="translate(40,718)"><rect x="0" y="0" width="720" height="120" fill="white" stroke="#888" stroke-width="0.5"/><text x="4" y="-4" font-size="11" font-family="sans-serif">b128_tcp_retrans</text><text x="2" y="10" font-size="8" fill="#444" font-family="sans-serif">1.16</text><text x="2" y="118" font-size="8" fill="#444" font-family="sans-serif">-1.16</text><line x1="10.0" y1="0" x2="10.0" y2="120" stroke="#2ca02c" stroke-width="0.7" stroke-dasharray="3,2"/><polyline points="455.5,60.00 519.1,60.00" fill="none" stroke="#1f77b4" stroke-width="1.2"/><circle cx="455.5" cy="60.00" r="2" fill="#1f77b4"/><polygon points="455.45454545454544,47.0 460.45454545454544,52.0 455.45454545454544,57.0 450.45454545454544,52.0" fill="#dca100" stroke="black" stroke-width="0.5"/><circle cx="519.1" cy="60.00" r="2" fill="#1f77b4"/><polygon points="519.0909090909091,57.0 514.0909090909091,47.0 524.0909090909091,47.0" fill="#d62728" stroke="black" stroke-width="0.5"/><text x="716" y="12" font-size="9" text-anchor="end" fill="#1f77b4" font-family="sans-serif">rusage.b128_tcp_retrans (lower=better)</text></g><g transform="translate(40,856)"><rect x="0" y="0" width="720" height="120" fill="white" stroke="#888" stroke-width="0.5"/><text x="4" y="-4" font-size="11" font-family="sans-serif">b128_user_s</text><text x="2" y="10" font-size="8" fill="#444" font-family="sans-serif">0.346</text><text x="2" y="118" font-size="8" fill="#444" font-family="sans-serif">0.254</text><line x1="10.0" y1="0" x2="10.0" y2="120" stroke="#2ca02c" stroke-width="0.7" stroke-dasharray="3,2"/><polyline points="455.5,12.59 519.1,107.41" fill="none" stroke="#1f77b4" stroke-width="1.2"/><circle cx="455.5" cy="12.59" r="2" fill="#1f77b4"/><polygon points="455.45454545454544,-0.41379310344825626 460.45454545454544,4.586206896551744 455.45454545454544,9.586206896551744 450.45454545454544,4.586206896551744" fill="#dca100" stroke="black" stroke-width="0.5"/><circle cx="519.1" cy="107.41" r="2" fill="#1f77b4"/><polygon points="519.0909090909091,104.41379310344826 514.0909090909091,94.41379310344826 524.0909090909091,94.41379310344826" fill="#d62728" stroke="black" stroke-width="0.5"/><text x="716" y="12" font-size="9" text-anchor="end" fill="#1f77b4" font-family="sans-serif">rusage.b128_user_s (lower=better)</text></g><g transform="translate(40,994)"><rect x="0" y="0" width="720" height="120" fill="white" stroke="#888" stroke-width="0.5"/><text x="4" y="-4" font-size="11" font-family="sans-serif">b128_vol_ctx</text><text x="2" y="10" font-size="8" fill="#444" font-family="sans-serif">2.77e+03</text><text x="2" y="118" font-size="8" fill="#444" font-family="sans-serif">2.32e+03</text><line x1="10.0" y1="0" x2="10.0" y2="120" stroke="#2ca02c" stroke-width="0.7" stroke-dasharray="3,2"/><polyline points="455.5,107.41 519.1,12.59" fill="none" stroke="#1f77b4" stroke-width="1.2"/><circle cx="455.5" cy="107.41" r="2" fill="#1f77b4"/><polygon points="455.45454545454544,94.41379310344824 460.45454545454544,99.41379310344824 455.45454545454544,104.41379310344824 450.45454545454544,99.41379310344824" fill="#dca100" stroke="black" stroke-width="0.5"/><circle cx="519.1" cy="12.59" r="2" fill="#1f77b4"/><polygon points="519.0909090909091,9.586206896551758 514.0909090909091,-0.41379310344824205 524.0909090909091,-0.41379310344824205" fill="#d62728" stroke="black" stroke-width="0.5"/><text x="716" y="12" font-size="9" text-anchor="end" fill="#1f77b4" font-family="sans-serif">rusage.b128_vol_ctx (lower=better)</text></g><g transform="translate(40,1132)"><rect x="0" y="0" width="720" height="120" fill="white" stroke="#888" stroke-width="0.5"/><text x="4" y="-4" font-size="11" font-family="sans-serif">b128_wall_s</text><text x="2" y="10" font-size="8" fill="#444" font-family="sans-serif">31.2</text><text x="2" y="118" font-size="8" fill="#444" font-family="sans-serif">28.8</text><line x1="10.0" y1="0" x2="10.0" y2="120" stroke="#2ca02c" stroke-width="0.7" stroke-dasharray="3,2"/><polyline points="455.5,60.00 519.1,60.00" fill="none" stroke="#1f77b4" stroke-width="1.2"/><circle cx="455.5" cy="60.00" r="2" fill="#1f77b4"/><polygon points="455.45454545454544,47.0 460.45454545454544,52.0 455.45454545454544,57.0 450.45454545454544,52.0" fill="#dca100" stroke="black" stroke-width="0.5"/><circle cx="519.1" cy="60.00" r="2" fill="#1f77b4"/><polygon points="519.0909090909091,57.0 514.0909090909091,47.0 524.0909090909091,47.0" fill="#d62728" stroke="black" stroke-width="0.5"/><text x="716" y="12" font-size="9" text-anchor="end" fill="#1f77b4" font-family="sans-serif">rusage.b128_wall_s (lower=better)</text></g><g transform="translate(40,1270)"><rect x="0" y="0" width="720" height="120" fill="white" stroke="#888" stroke-width="0.5"/><text x="4" y="-4" font-size="11" font-family="sans-serif">b32_invol_ctx</text><text x="2" y="10" font-size="8" fill="#444" font-family="sans-serif">16.2</text><text x="2" y="118" font-size="8" fill="#444" font-family="sans-serif">12.8</text><line x1="10.0" y1="0" x2="10.0" y2="120" stroke="#2ca02c" stroke-width="0.7" stroke-dasharray="3,2"/><polyline points="455.5,107.41 519.1,12.59" fill="none" stroke="#1f77b4" stroke-width="1.2"/><circle cx="455.5" cy="107.41" r="2" fill="#1f77b4"/><polygon points="455.45454545454544,94.41379310344827 460.45454545454544,99.41379310344827 455.45454545454544,104.41379310344827 450.45454545454544,99.41379310344827" fill="#dca100" stroke="black" stroke-width="0.5"/><circle cx="519.1" cy="12.59" r="2" fill="#1f77b4"/><polygon points="519.0909090909091,9.586206896551673 514.0909090909091,-0.4137931034483273 524.0909090909091,-0.4137931034483273" fill="#d62728" stroke="black" stroke-width="0.5"/><text x="716" y="12" font-size="9" text-anchor="end" fill="#1f77b4" font-family="sans-serif">rusage.b32_invol_ctx (lower=better)</text></g><g transform="translate(40,1408)"><rect x="0" y="0" width="720" height="120" fill="white" stroke="#888" stroke-width="0.5"/><text x="4" y="-4" font-size="11" font-family="sans-serif">b32_major_pf</text><text x="2" y="10" font-size="8" fill="#444" font-family="sans-serif">1.16</text><text x="2" y="118" font-size="8" fill="#444" font-family="sans-serif">-1.16</text><line x1="10.0" y1="0" x2="10.0" y2="120" stroke="#2ca02c" stroke-width="0.7" stroke-dasharray="3,2"/><polyline points="455.5,60.00 519.1,60.00" fill="none" stroke="#1f77b4" stroke-width="1.2"/><circle cx="455.5" cy="60.00" r="2" fill="#1f77b4"/><polygon points="455.45454545454544,47.0 460.45454545454544,52.0 455.45454545454544,57.0 450.45454545454544,52.0" fill="#dca100" stroke="black" stroke-width="0.5"/><circle cx="519.1" cy="60.00" r="2" fill="#1f77b4"/><polygon points="519.0909090909091,57.0 514.0909090909091,47.0 524.0909090909091,47.0" fill="#d62728" stroke="black" stroke-width="0.5"/><text x="716" y="12" font-size="9" text-anchor="end" fill="#1f77b4" font-family="sans-serif">rusage.b32_major_pf (lower=better)</text></g><g transform="translate(40,1546)"><rect x="0" y="0" width="720" height="120" fill="white" stroke="#888" stroke-width="0.5"/><text x="4" y="-4" font-size="11" font-family="sans-serif">b32_max_rss_kb</text><text x="2" y="10" font-size="8" fill="#444" font-family="sans-serif">1.09e+05</text><text x="2" y="118" font-size="8" fill="#444" font-family="sans-serif">9.21e+04</text><line x1="10.0" y1="0" x2="10.0" y2="120" stroke="#2ca02c" stroke-width="0.7" stroke-dasharray="3,2"/><polyline points="455.5,12.59 519.1,107.41" fill="none" stroke="#1f77b4" stroke-width="1.2"/><circle cx="455.5" cy="12.59" r="2" fill="#1f77b4"/><polygon points="455.45454545454544,-0.41379310344824205 460.45454545454544,4.586206896551758 455.45454545454544,9.586206896551758 450.45454545454544,4.586206896551758" fill="#dca100" stroke="black" stroke-width="0.5"/><circle cx="519.1" cy="107.41" r="2" fill="#1f77b4"/><polygon points="519.0909090909091,104.41379310344826 514.0909090909091,94.41379310344826 524.0909090909091,94.41379310344826" fill="#d62728" stroke="black" stroke-width="0.5"/><text x="716" y="12" font-size="9" text-anchor="end" fill="#1f77b4" font-family="sans-serif">rusage.b32_max_rss_kb (lower=better)</text></g><g transform="translate(40,1684)"><rect x="0" y="0" width="720" height="120" fill="white" stroke="#888" stroke-width="0.5"/><text x="4" y="-4" font-size="11" font-family="sans-serif">b32_minor_pf</text><text x="2" y="10" font-size="8" fill="#444" font-family="sans-serif">2.01e+04</text><text x="2" y="118" font-size="8" fill="#444" font-family="sans-serif">1.58e+04</text><line x1="10.0" y1="0" x2="10.0" y2="120" stroke="#2ca02c" stroke-width="0.7" stroke-dasharray="3,2"/><polyline points="455.5,12.59 519.1,107.41" fill="none" stroke="#1f77b4" stroke-width="1.2"/><circle cx="455.5" cy="12.59" r="2" fill="#1f77b4"/><polygon points="455.45454545454544,-0.4137931034482847 460.45454545454544,4.586206896551715 455.45454545454544,9.586206896551715 450.45454545454544,4.586206896551715" fill="#dca100" stroke="black" stroke-width="0.5"/><circle cx="519.1" cy="107.41" r="2" fill="#1f77b4"/><polygon points="519.0909090909091,104.41379310344828 514.0909090909091,94.41379310344828 524.0909090909091,94.41379310344828" fill="#d62728" stroke="black" stroke-width="0.5"/><text x="716" y="12" font-size="9" text-anchor="end" fill="#1f77b4" font-family="sans-serif">rusage.b32_minor_pf (lower=better)</text></g><g transform="translate(40,1822)"><rect x="0" y="0" width="720" height="120" fill="white" stroke="#888" stroke-width="0.5"/><text x="4" y="-4" font-size="11" font-family="sans-serif">b32_sys_s</text><text x="2" y="10" font-size="8" fill="#444" font-family="sans-serif">0.087</text><text x="2" y="118" font-size="8" fill="#444" font-family="sans-serif">0.058</text><line x1="10.0" y1="0" x2="10.0" y2="120" stroke="#2ca02c" stroke-width="0.7" stroke-dasharray="3,2"/><polyline points="455.5,12.59 519.1,107.41" fill="none" stroke="#1f77b4" stroke-width="1.2"/><circle cx="455.5" cy="12.59" r="2" fill="#1f77b4"/><polygon points="455.45454545454544,-0.41379310344825626 460.45454545454544,4.586206896551744 455.45454545454544,9.586206896551744 450.45454545454544,4.586206896551744" fill="#dca100" stroke="black" stroke-width="0.5"/><circle cx="519.1" cy="107.41" r="2" fill="#1f77b4"/><polygon points="519.0909090909091,104.41379310344827 514.0909090909091,94.41379310344827 524.0909090909091,94.41379310344827" fill="#d62728" stroke="black" stroke-width="0.5"/><text x="716" y="12" font-size="9" text-anchor="end" fill="#1f77b4" font-family="sans-serif">rusage.b32_sys_s (lower=better)</text></g><g transform="translate(40,1960)"><rect x="0" y="0" width="720" height="120" fill="white" stroke="#888" stroke-width="0.5"/><text x="4" y="-4" font-size="11" font-family="sans-serif">b32_tcp_retrans</text><text x="2" y="10" font-size="8" fill="#444" font-family="sans-serif">1.16</text><text x="2" y="118" font-size="8" fill="#444" font-family="sans-serif">-1.16</text><line x1="10.0" y1="0" x2="10.0" y2="120" stroke="#2ca02c" stroke-width="0.7" stroke-dasharray="3,2"/><polyline points="455.5,60.00 519.1,60.00" fill="none" stroke="#1f77b4" stroke-width="1.2"/><circle cx="455.5" cy="60.00" r="2" fill="#1f77b4"/><polygon points="455.45454545454544,47.0 460.45454545454544,52.0 455.45454545454544,57.0 450.45454545454544,52.0" fill="#dca100" stroke="black" stroke-width="0.5"/><circle cx="519.1" cy="60.00" r="2" fill="#1f77b4"/><polygon points="519.0909090909091,57.0 514.0909090909091,47.0 524.0909090909091,47.0" fill="#d62728" stroke="black" stroke-width="0.5"/><text x="716" y="12" font-size="9" text-anchor="end" fill="#1f77b4" font-family="sans-serif">rusage.b32_tcp_retrans (lower=better)</text></g><g transform="translate(40,2098)"><rect x="0" y="0" width="720" height="120" fill="white" stroke="#888" stroke-width="0.5"/><text x="4" y="-4" font-size="11" font-family="sans-serif">b32_user_s</text><text x="2" y="10" font-size="8" fill="#444" font-family="sans-serif">0.166</text><text x="2" y="118" font-size="8" fill="#444" font-family="sans-serif">0.154</text><line x1="10.0" y1="0" x2="10.0" y2="120" stroke="#2ca02c" stroke-width="0.7" stroke-dasharray="3,2"/><polyline points="455.5,12.59 519.1,107.41" fill="none" stroke="#1f77b4" stroke-width="1.2"/><circle cx="455.5" cy="12.59" r="2" fill="#1f77b4"/><polygon points="455.45454545454544,-0.4137931034483273 460.45454545454544,4.586206896551673 455.45454545454544,9.586206896551673 450.45454545454544,4.586206896551673" fill="#dca100" stroke="black" stroke-width="0.5"/><circle cx="519.1" cy="107.41" r="2" fill="#1f77b4"/><polygon points="519.0909090909091,104.41379310344833 514.0909090909091,94.41379310344833 524.0909090909091,94.41379310344833" fill="#d62728" stroke="black" stroke-width="0.5"/><text x="716" y="12" font-size="9" text-anchor="end" fill="#1f77b4" font-family="sans-serif">rusage.b32_user_s (lower=better)</text></g><g transform="translate(40,2236)"><rect x="0" y="0" width="720" height="120" fill="white" stroke="#888" stroke-width="0.5"/><text x="4" y="-4" font-size="11" font-family="sans-serif">b32_vol_ctx</text><text x="2" y="10" font-size="8" fill="#444" font-family="sans-serif">1.61e+03</text><text x="2" y="118" font-size="8" fill="#444" font-family="sans-serif">1.58e+03</text><line x1="10.0" y1="0" x2="10.0" y2="120" stroke="#2ca02c" stroke-width="0.7" stroke-dasharray="3,2"/><polyline points="455.5,107.41 519.1,12.59" fill="none" stroke="#1f77b4" stroke-width="1.2"/><circle cx="455.5" cy="107.41" r="2" fill="#1f77b4"/><polygon points="455.45454545454544,94.41379310344851 460.45454545454544,99.41379310344851 455.45454545454544,104.41379310344851 450.45454545454544,99.41379310344851" fill="#dca100" stroke="black" stroke-width="0.5"/><circle cx="519.1" cy="12.59" r="2" fill="#1f77b4"/><polygon points="519.0909090909091,9.586206896551488 514.0909090909091,-0.41379310344851206 524.0909090909091,-0.41379310344851206" fill="#d62728" stroke="black" stroke-width="0.5"/><text x="716" y="12" font-size="9" text-anchor="end" fill="#1f77b4" font-family="sans-serif">rusage.b32_vol_ctx (lower=better)</text></g><g transform="translate(40,2374)"><rect x="0" y="0" width="720" height="120" fill="white" stroke="#888" stroke-width="0.5"/><text x="4" y="-4" font-size="11" font-family="sans-serif">b32_wall_s</text><text x="2" y="10" font-size="8" fill="#444" font-family="sans-serif">30</text><text x="2" y="118" font-size="8" fill="#444" font-family="sans-serif">30</text><line x1="10.0" y1="0" x2="10.0" y2="120" stroke="#2ca02c" stroke-width="0.7" stroke-dasharray="3,2"/><polyline points="455.5,12.59 519.1,107.41" fill="none" stroke="#1f77b4" stroke-width="1.2"/><circle cx="455.5" cy="12.59" r="2" fill="#1f77b4"/><polygon points="455.45454545454544,-0.41379310346685827 460.45454545454544,4.586206896533142 455.45454545454544,9.586206896533142 450.45454545454544,4.586206896533142" fill="#dca100" stroke="black" stroke-width="0.5"/><circle cx="519.1" cy="107.41" r="2" fill="#1f77b4"/><polygon points="519.0909090909091,104.41379310346686 514.0909090909091,94.41379310346686 524.0909090909091,94.41379310346686" fill="#d62728" stroke="black" stroke-width="0.5"/><text x="716" y="12" font-size="9" text-anchor="end" fill="#1f77b4" font-family="sans-serif">rusage.b32_wall_s (lower=better)</text></g><g transform="translate(40,2512)"><rect x="0" y="0" width="720" height="120" fill="white" stroke="#888" stroke-width="0.5"/><text x="4" y="-4" font-size="11" font-family="sans-serif">b4_invol_ctx</text><text x="2" y="10" font-size="8" fill="#444" font-family="sans-serif">12.3</text><text x="2" y="118" font-size="8" fill="#444" font-family="sans-serif">8.22</text><line x1="10.0" y1="0" x2="10.0" y2="120" stroke="#2ca02c" stroke-width="0.7" stroke-dasharray="3,2"/><polyline points="455.5,12.59 519.1,107.41" fill="none" stroke="#1f77b4" stroke-width="1.2"/><circle cx="455.5" cy="12.59" r="2" fill="#1f77b4"/><polygon points="455.45454545454544,-0.4137931034482847 460.45454545454544,4.586206896551715 455.45454545454544,9.586206896551715 450.45454545454544,4.586206896551715" fill="#dca100" stroke="black" stroke-width="0.5"/><circle cx="519.1" cy="107.41" r="2" fill="#1f77b4"/><polygon points="519.0909090909091,104.41379310344828 514.0909090909091,94.41379310344828 524.0909090909091,94.41379310344828" fill="#d62728" stroke="black" stroke-width="0.5"/><text x="716" y="12" font-size="9" text-anchor="end" fill="#1f77b4" font-family="sans-serif">rusage.b4_invol_ctx (lower=better)</text></g><g transform="translate(40,2650)"><rect x="0" y="0" width="720" height="120" fill="white" stroke="#888" stroke-width="0.5"/><text x="4" y="-4" font-size="11" font-family="sans-serif">b4_major_pf</text><text x="2" y="10" font-size="8" fill="#444" font-family="sans-serif">1.16</text><text x="2" y="118" font-size="8" fill="#444" font-family="sans-serif">-1.16</text><line x1="10.0" y1="0" x2="10.0" y2="120" stroke="#2ca02c" stroke-width="0.7" stroke-dasharray="3,2"/><polyline points="455.5,60.00 519.1,60.00" fill="none" stroke="#1f77b4" stroke-width="1.2"/><circle cx="455.5" cy="60.00" r="2" fill="#1f77b4"/><polygon points="455.45454545454544,47.0 460.45454545454544,52.0 455.45454545454544,57.0 450.45454545454544,52.0" fill="#dca100" stroke="black" stroke-width="0.5"/><circle cx="519.1" cy="60.00" r="2" fill="#1f77b4"/><polygon points="519.0909090909091,57.0 514.0909090909091,47.0 524.0909090909091,47.0" fill="#d62728" stroke="black" stroke-width="0.5"/><text x="716" y="12" font-size="9" text-anchor="end" fill="#1f77b4" font-family="sans-serif">rusage.b4_major_pf (lower=better)</text></g><g transform="translate(40,2788)"><rect x="0" y="0" width="720" height="120" fill="white" stroke="#888" stroke-width="0.5"/><text x="4" y="-4" font-size="11" font-family="sans-serif">b4_max_rss_kb</text><text x="2" y="10" font-size="8" fill="#444" font-family="sans-serif">9.05e+04</text><text x="2" y="118" font-size="8" fill="#444" font-family="sans-serif">8.99e+04</text><line x1="10.0" y1="0" x2="10.0" y2="120" stroke="#2ca02c" stroke-width="0.7" stroke-dasharray="3,2"/><polyline points="455.5,12.59 519.1,107.41" fill="none" stroke="#1f77b4" stroke-width="1.2"/><circle cx="455.5" cy="12.59" r="2" fill="#1f77b4"/><polygon points="455.45454545454544,-0.41379310344954945 460.45454545454544,4.5862068965504506 455.45454545454544,9.58620689655045 450.45454545454544,4.5862068965504506" fill="#dca100" stroke="black" stroke-width="0.5"/><circle cx="519.1" cy="107.41" r="2" fill="#1f77b4"/><polygon points="519.0909090909091,104.41379310344956 514.0909090909091,94.41379310344956 524.0909090909091,94.41379310344956" fill="#d62728" stroke="black" stroke-width="0.5"/><text x="716" y="12" font-size="9" text-anchor="end" fill="#1f77b4" font-family="sans-serif">rusage.b4_max_rss_kb (lower=better)</text></g><g transform="translate(40,2926)"><rect x="0" y="0" width="720" height="120" fill="white" stroke="#888" stroke-width="0.5"/><text x="4" y="-4" font-size="11" font-family="sans-serif">b4_minor_pf</text><text x="2" y="10" font-size="8" fill="#444" font-family="sans-serif">1.54e+04</text><text x="2" y="118" font-size="8" fill="#444" font-family="sans-serif">1.54e+04</text><line x1="10.0" y1="0" x2="10.0" y2="120" stroke="#2ca02c" stroke-width="0.7" stroke-dasharray="3,2"/><polyline points="455.5,12.59 519.1,107.41" fill="none" stroke="#1f77b4" stroke-width="1.2"/><circle cx="455.5" cy="12.59" r="2" fill="#1f77b4"/><polygon points="455.45454545454544,-0.41379310340465736 460.45454545454544,4.586206896595343 455.45454545454544,9.586206896595343 450.45454545454544,4.586206896595343" fill="#dca100" stroke="black" stroke-width="0.5"/><circle cx="519.1" cy="107.41" r="2" fill="#1f77b4"/><polygon points="519.0909090909091,104.41379310340466 514.0909090909091,94.41379310340466 524.0909090909091,94.41379310340466" fill="#d62728" stroke="black" stroke-width="0.5"/><text x="716" y="12" font-size="9" text-anchor="end" fill="#1f77b4" font-family="sans-serif">rusage.b4_minor_pf (lower=better)</text></g><g transform="translate(40,3064)"><rect x="0" y="0" width="720" height="120" fill="white" stroke="#888" stroke-width="0.5"/><text x="4" y="-4" font-size="11" font-family="sans-serif">b4_sys_s</text><text x="2" y="10" font-size="8" fill="#444" font-family="sans-serif">0.0728</text><text x="2" y="118" font-size="8" fill="#444" font-family="sans-serif">0.0322</text><line x1="10.0" y1="0" x2="10.0" y2="120" stroke="#2ca02c" stroke-width="0.7" stroke-dasharray="3,2"/><polyline points="455.5,12.59 519.1,107.41" fill="none" stroke="#1f77b4" stroke-width="1.2"/><circle cx="455.5" cy="12.59" r="2" fill="#1f77b4"/><polygon points="455.45454545454544,-0.4137931034482847 460.45454545454544,4.586206896551715 455.45454545454544,9.586206896551715 450.45454545454544,4.586206896551715" fill="#dca100" stroke="black" stroke-width="0.5"/><circle cx="519.1" cy="107.41" r="2" fill="#1f77b4"/><polygon points="519.0909090909091,104.41379310344828 514.0909090909091,94.41379310344828 524.0909090909091,94.41379310344828" fill="#d62728" stroke="black" stroke-width="0.5"/><text x="716" y="12" font-size="9" text-anchor="end" fill="#1f77b4" font-family="sans-serif">rusage.b4_sys_s (lower=better)</text></g><g transform="translate(40,3202)"><rect x="0" y="0" width="720" height="120" fill="white" stroke="#888" stroke-width="0.5"/><text x="4" y="-4" font-size="11" font-family="sans-serif">b4_tcp_retrans</text><text x="2" y="10" font-size="8" fill="#444" font-family="sans-serif">4.32</text><text x="2" y="118" font-size="8" fill="#444" font-family="sans-serif">-0.32</text><line x1="10.0" y1="0" x2="10.0" y2="120" stroke="#2ca02c" stroke-width="0.7" stroke-dasharray="3,2"/><polyline points="455.5,12.59 519.1,107.41" fill="none" stroke="#1f77b4" stroke-width="1.2"/><circle cx="455.5" cy="12.59" r="2" fill="#1f77b4"/><polygon points="455.45454545454544,-0.41379310344827047 460.45454545454544,4.5862068965517295 455.45454545454544,9.58620689655173 450.45454545454544,4.5862068965517295" fill="#dca100" stroke="black" stroke-width="0.5"/><circle cx="519.1" cy="107.41" r="2" fill="#1f77b4"/><polygon points="519.0909090909091,104.41379310344827 514.0909090909091,94.41379310344827 524.0909090909091,94.41379310344827" fill="#d62728" stroke="black" stroke-width="0.5"/><text x="716" y="12" font-size="9" text-anchor="end" fill="#1f77b4" font-family="sans-serif">rusage.b4_tcp_retrans (lower=better)</text></g><g transform="translate(40,3340)"><rect x="0" y="0" width="720" height="120" fill="white" stroke="#888" stroke-width="0.5"/><text x="4" y="-4" font-size="11" font-family="sans-serif">b4_user_s</text><text x="2" y="10" font-size="8" fill="#444" font-family="sans-serif">0.12</text><text x="2" y="118" font-size="8" fill="#444" font-family="sans-serif">0.115</text><line x1="10.0" y1="0" x2="10.0" y2="120" stroke="#2ca02c" stroke-width="0.7" stroke-dasharray="3,2"/><polyline points="455.5,107.41 519.1,12.59" fill="none" stroke="#1f77b4" stroke-width="1.2"/><circle cx="455.5" cy="107.41" r="2" fill="#1f77b4"/><polygon points="455.45454545454544,94.4137931034483 460.45454545454544,99.4137931034483 455.45454545454544,104.4137931034483 450.45454545454544,99.4137931034483" fill="#dca100" stroke="black" stroke-width="0.5"/><circle cx="519.1" cy="12.59" r="2" fill="#1f77b4"/><polygon points="519.0909090909091,9.586206896551701 514.0909090909091,-0.4137931034482989 524.0909090909091,-0.4137931034482989" fill="#d62728" stroke="black" stroke-width="0.5"/><text x="716" y="12" font-size="9" text-anchor="end" fill="#1f77b4" font-family="sans-serif">rusage.b4_user_s (lower=better)</text></g><g transform="translate(40,3478)"><rect x="0" y="0" width="720" height="120" fill="white" stroke="#888" stroke-width="0.5"/><text x="4" y="-4" font-size="11" font-family="sans-serif">b4_vol_ctx</text><text x="2" y="10" font-size="8" fill="#444" font-family="sans-serif">1.45e+03</text><text x="2" y="118" font-size="8" fill="#444" font-family="sans-serif">1.45e+03</text><line x1="10.0" y1="0" x2="10.0" y2="120" stroke="#2ca02c" stroke-width="0.7" stroke-dasharray="3,2"/><polyline points="455.5,107.41 519.1,12.59" fill="none" stroke="#1f77b4" stroke-width="1.2"/><circle cx="455.5" cy="107.41" r="2" fill="#1f77b4"/><polygon points="455.45454545454544,94.41379310344803 460.45454545454544,99.41379310344803 455.45454545454544,104.41379310344803 450.45454545454544,99.41379310344803" fill="#dca100" stroke="black" stroke-width="0.5"/><circle cx="519.1" cy="12.59" r="2" fill="#1f77b4"/><polygon points="519.0909090909091,9.586206896551971 514.0909090909091,-0.4137931034480289 524.0909090909091,-0.4137931034480289" fill="#d62728" stroke="black" stroke-width="0.5"/><text x="716" y="12" font-size="9" text-anchor="end" fill="#1f77b4" font-family="sans-serif">rusage.b4_vol_ctx (lower=better)</text></g><g transform="translate(40,3616)"><rect x="0" y="0" width="720" height="120" fill="white" stroke="#888" stroke-width="0.5"/><text x="4" y="-4" font-size="11" font-family="sans-serif">b4_wall_s</text><text x="2" y="10" font-size="8" fill="#444" font-family="sans-serif">31.2</text><text x="2" y="118" font-size="8" fill="#444" font-family="sans-serif">28.8</text><line x1="10.0" y1="0" x2="10.0" y2="120" stroke="#2ca02c" stroke-width="0.7" stroke-dasharray="3,2"/><polyline points="455.5,60.00 519.1,60.00" fill="none" stroke="#1f77b4" stroke-width="1.2"/><circle cx="455.5" cy="60.00" r="2" fill="#1f77b4"/><polygon points="455.45454545454544,47.0 460.45454545454544,52.0 455.45454545454544,57.0 450.45454545454544,52.0" fill="#dca100" stroke="black" stroke-width="0.5"/><circle cx="519.1" cy="60.00" r="2" fill="#1f77b4"/><polygon points="519.0909090909091,57.0 514.0909090909091,47.0 524.0909090909091,47.0" fill="#d62728" stroke="black" stroke-width="0.5"/><text x="716" y="12" font-size="9" text-anchor="end" fill="#1f77b4" font-family="sans-serif">rusage.b4_wall_s (lower=better)</text></g><g transform="translate(40,3754)"><rect x="0" y="0" width="720" height="120" fill="white" stroke="#888" stroke-width="0.5"/><text x="4" y="-4" font-size="11" font-family="sans-serif">binary_size_bytes</text><text x="2" y="10" font-size="8" fill="#444" font-family="sans-serif">7.35e+06</text><text x="2" y="118" font-size="8" fill="#444" font-family="sans-serif">7.35e+06</text><line x1="10.0" y1="0" x2="10.0" y2="120" stroke="#2ca02c" stroke-width="0.7" stroke-dasharray="3,2"/><polyline points="391.8,12.59 455.5,12.59 519.1,12.59 582.7,107.41 646.4,107.41 710.0,107.41" fill="none" stroke="#1f77b4" stroke-width="1.2"/><circle cx="391.8" cy="12.59" r="2" fill="#1f77b4"/><polygon points="391.8181818181818,-0.41379310330552244 396.8181818181818,4.586206896694478 391.8181818181818,9.586206896694478 386.8181818181818,4.586206896694478" fill="#dca100" stroke="black" stroke-width="0.5"/><circle cx="455.5" cy="12.59" r="2" fill="#1f77b4"/><polygon points="455.45454545454544,-0.41379310330552244 460.45454545454544,4.586206896694478 455.45454545454544,9.586206896694478 450.45454545454544,4.586206896694478" fill="#dca100" stroke="black" stroke-width="0.5"/><circle cx="519.1" cy="12.59" r="2" fill="#1f77b4"/><polygon points="519.0909090909091,9.586206896694478 514.0909090909091,-0.41379310330552244 524.0909090909091,-0.41379310330552244" fill="#d62728" stroke="black" stroke-width="0.5"/><circle cx="582.7" cy="107.41" r="2" fill="#1f77b4"/><polygon points="582.7272727272727,104.41379310330552 577.7272727272727,94.41379310330552 587.7272727272727,94.41379310330552" fill="#d62728" stroke="black" stroke-width="0.5"/><circle cx="646.4" cy="107.41" r="2" fill="#1f77b4"/><polygon points="646.3636363636364,104.41379310330552 641.3636363636364,94.41379310330552 651.3636363636364,94.41379310330552" fill="#d62728" stroke="black" stroke-width="0.5"/><circle cx="710.0" cy="107.41" r="2" fill="#1f77b4"/><polygon points="710.0,104.41379310330552 705.0,94.41379310330552 715.0,94.41379310330552" fill="#d62728" stroke="black" stroke-width="0.5"/><text x="716" y="12" font-size="9" text-anchor="end" fill="#1f77b4" font-family="sans-serif">binary-size.binary_size_bytes (lower=better)</text></g><g transform="translate(40,3892)"><rect x="0" y="0" width="720" height="120" fill="white" stroke="#888" stroke-width="0.5"/><text x="4" y="-4" font-size="11" font-family="sans-serif">boot_no_cache_s</text><text x="2" y="10" font-size="8" fill="#444" font-family="sans-serif">1.41</text><text x="2" y="118" font-size="8" fill="#444" font-family="sans-serif">1.39</text><line x1="10.0" y1="0" x2="10.0" y2="120" stroke="#2ca02c" stroke-width="0.7" stroke-dasharray="3,2"/><polyline points="455.5,71.80 519.1,86.82 582.7,91.12 646.4,12.59 710.0,107.41" fill="none" stroke="#1f77b4" stroke-width="1.2"/><circle cx="455.5" cy="71.80" r="2" fill="#1f77b4"/><polygon points="455.45454545454544,58.80401186423262 460.45454545454544,63.80401186423262 455.45454545454544,68.80401186423262 450.45454545454544,63.80401186423262" fill="#dca100" stroke="black" stroke-width="0.5"/><circle cx="519.1" cy="86.82" r="2" fill="#1f77b4"/><polygon points="519.0909090909091,83.82230939681958 514.0909090909091,73.82230939681958 524.0909090909091,73.82230939681958" fill="#d62728" stroke="black" stroke-width="0.5"/><circle cx="582.7" cy="91.12" r="2" fill="#1f77b4"/><polygon points="582.7272727272727,88.11609004178007 577.7272727272727,78.11609004178007 587.7272727272727,78.11609004178007" fill="#d62728" stroke="black" stroke-width="0.5"/><circle cx="646.4" cy="12.59" r="2" fill="#1f77b4"/><polygon points="646.3636363636364,9.586206896551914 641.3636363636364,-0.41379310344808573 651.3636363636364,-0.41379310344808573" fill="#d62728" stroke="black" stroke-width="0.5"/><circle cx="710.0" cy="107.41" r="2" fill="#1f77b4"/><polygon points="710.0,104.41379310344809 705.0,94.41379310344809 715.0,94.41379310344809" fill="#d62728" stroke="black" stroke-width="0.5"/><text x="716" y="12" font-size="9" text-anchor="end" fill="#1f77b4" font-family="sans-serif">server-boot.boot_no_cache_s (lower=better)</text></g><g transform="translate(40,4030)"><rect x="0" y="0" width="720" height="120" fill="white" stroke="#888" stroke-width="0.5"/><text x="4" y="-4" font-size="11" font-family="sans-serif">boot_to_bind_s</text><text x="2" y="10" font-size="8" fill="#444" font-family="sans-serif">1.41</text><text x="2" y="118" font-size="8" fill="#444" font-family="sans-serif">1.39</text><line x1="10.0" y1="0" x2="10.0" y2="120" stroke="#2ca02c" stroke-width="0.7" stroke-dasharray="3,2"/><polyline points="455.5,71.80 519.1,86.82 582.7,91.12 646.4,12.59 710.0,107.41" fill="none" stroke="#1f77b4" stroke-width="1.2"/><circle cx="455.5" cy="71.80" r="2" fill="#1f77b4"/><polygon points="455.45454545454544,58.80401186423262 460.45454545454544,63.80401186423262 455.45454545454544,68.80401186423262 450.45454545454544,63.80401186423262" fill="#dca100" stroke="black" stroke-width="0.5"/><circle cx="519.1" cy="86.82" r="2" fill="#1f77b4"/><polygon points="519.0909090909091,83.82230939681958 514.0909090909091,73.82230939681958 524.0909090909091,73.82230939681958" fill="#d62728" stroke="black" stroke-width="0.5"/><circle cx="582.7" cy="91.12" r="2" fill="#1f77b4"/><polygon points="582.7272727272727,88.11609004178007 577.7272727272727,78.11609004178007 587.7272727272727,78.11609004178007" fill="#d62728" stroke="black" stroke-width="0.5"/><circle cx="646.4" cy="12.59" r="2" fill="#1f77b4"/><polygon points="646.3636363636364,9.586206896551914 641.3636363636364,-0.41379310344808573 651.3636363636364,-0.41379310344808573" fill="#d62728" stroke="black" stroke-width="0.5"/><circle cx="710.0" cy="107.41" r="2" fill="#1f77b4"/><polygon points="710.0,104.41379310344809 705.0,94.41379310344809 715.0,94.41379310344809" fill="#d62728" stroke="black" stroke-width="0.5"/><text x="716" y="12" font-size="9" text-anchor="end" fill="#1f77b4" font-family="sans-serif">server-boot.no-cache.boot_to_bind_s (lower=better)</text><polyline points="455.5,60.98 519.1,106.89 582.7,107.32 646.4,26.01 710.0,89.11" fill="none" stroke="#ff7f0e" stroke-width="1.2"/><circle cx="455.5" cy="60.98" r="2" fill="#ff7f0e"/><polygon points="455.45454545454544,47.97780148626563 460.45454545454544,52.97780148626563 455.45454545454544,57.97780148626563 450.45454545454544,52.97780148626563" fill="#dca100" stroke="black" stroke-width="0.5"/><circle cx="519.1" cy="106.89" r="2" fill="#ff7f0e"/><polygon points="519.0909090909091,103.89087190194368 514.0909090909091,93.89087190194368 524.0909090909091,93.89087190194368" fill="#d62728" stroke="black" stroke-width="0.5"/><circle cx="582.7" cy="107.32" r="2" fill="#ff7f0e"/><polygon points="582.7272727272727,104.32447989515083 577.7272727272727,94.32447989515083 587.7272727272727,94.32447989515083" fill="#d62728" stroke="black" stroke-width="0.5"/><circle cx="646.4" cy="26.01" r="2" fill="#ff7f0e"/><polygon points="646.3636363636364,23.012413305575606 641.3636363636364,13.012413305575606 651.3636363636364,13.012413305575606" fill="#d62728" stroke="black" stroke-width="0.5"/><circle cx="710.0" cy="89.11" r="2" fill="#ff7f0e"/><polygon points="710.0,86.11482103239304 705.0,76.11482103239304 715.0,76.11482103239304" fill="#d62728" stroke="black" stroke-width="0.5"/><text x="716" y="23" font-size="9" text-anchor="end" fill="#ff7f0e" font-family="sans-serif">server-boot.with-cache.boot_to_bind_s (lower=better)</text></g><g transform="translate(40,4168)"><rect x="0" y="0" width="720" height="120" fill="white" stroke="#888" stroke-width="0.5"/><text x="4" y="-4" font-size="11" font-family="sans-serif">boot_with_cache_s</text><text x="2" y="10" font-size="8" fill="#444" font-family="sans-serif">1.41</text><text x="2" y="118" font-size="8" fill="#444" font-family="sans-serif">1.39</text><line x1="10.0" y1="0" x2="10.0" y2="120" stroke="#2ca02c" stroke-width="0.7" stroke-dasharray="3,2"/><polyline points="455.5,53.36 519.1,106.91 582.7,107.41 646.4,12.59 710.0,86.18" fill="none" stroke="#1f77b4" stroke-width="1.2"/><circle cx="455.5" cy="53.36" r="2" fill="#1f77b4"/><polygon points="455.45454545454544,40.36346789888215 460.45454545454544,45.36346789888215 455.45454545454544,50.36346789888215 450.45454545454544,45.36346789888215" fill="#dca100" stroke="black" stroke-width="0.5"/><circle cx="519.1" cy="106.91" r="2" fill="#1f77b4"/><polygon points="519.0909090909091,103.90811170731111 514.0909090909091,93.90811170731111 524.0909090909091,93.90811170731111" fill="#d62728" stroke="black" stroke-width="0.5"/><circle cx="582.7" cy="107.41" r="2" fill="#1f77b4"/><polygon points="582.7272727272727,104.41379310344871 577.7272727272727,94.41379310344871 587.7272727272727,94.41379310344871" fill="#d62728" stroke="black" stroke-width="0.5"/><circle cx="646.4" cy="12.59" r="2" fill="#1f77b4"/><polygon points="646.3636363636364,9.586206896551289 641.3636363636364,-0.413793103448711 651.3636363636364,-0.413793103448711" fill="#d62728" stroke="black" stroke-width="0.5"/><circle cx="710.0" cy="86.18" r="2" fill="#1f77b4"/><polygon points="710.0,83.17736328396921 705.0,73.17736328396921 715.0,73.17736328396921" fill="#d62728" stroke="black" stroke-width="0.5"/><text x="716" y="12" font-size="9" text-anchor="end" fill="#1f77b4" font-family="sans-serif">server-boot.boot_with_cache_s (lower=better)</text></g><g transform="translate(40,4306)"><text x="10.0" y="10" font-size="8" fill="#2ca02c" text-anchor="middle" font-family="monospace" transform="rotate(45 10.0 10)">edca85f</text><text x="73.6" y="10" font-size="8" fill="#222" text-anchor="middle" font-family="monospace" transform="rotate(45 73.6 10)">edca85f</text><text x="137.3" y="10" font-size="8" fill="#222" text-anchor="middle" font-family="monospace" transform="rotate(45 137.3 10)">90ce69c</text><text x="200.9" y="10" font-size="8" fill="#222" text-anchor="middle" font-family="monospace" transform="rotate(45 200.9 10)">1856b24</text><text x="264.5" y="10" font-size="8" fill="#222" text-anchor="middle" font-family="monospace" transform="rotate(45 264.5 10)">a166d07</text><text x="328.2" y="10" font-size="8" fill="#222" text-anchor="middle" font-family="monospace" transform="rotate(45 328.2 10)">a166d07</text><text x="391.8" y="10" font-size="8" fill="#222" text-anchor="middle" font-family="monospace" transform="rotate(45 391.8 10)">a166d07</text><text x="455.5" y="10" font-size="8" fill="#222" text-anchor="middle" font-family="monospace" transform="rotate(45 455.5 10)">a166d07</text><text x="519.1" y="10" font-size="8" fill="#222" text-anchor="middle" font-family="monospace" transform="rotate(45 519.1 10)">a166d07</text><text x="582.7" y="10" font-size="8" fill="#222" text-anchor="middle" font-family="monospace" transform="rotate(45 582.7 10)">a166d07</text><text x="646.4" y="10" font-size="8" fill="#222" text-anchor="middle" font-family="monospace" transform="rotate(45 646.4 10)">a166d07</text><text x="710.0" y="10" font-size="8" fill="#222" text-anchor="middle" font-family="monospace" transform="rotate(45 710.0 10)">a166d07</text></g><g transform="translate(540,4342)"><text x="0" y="0" font-size="9" font-family="sans-serif">decisions:</text><polygon points="60,-9 55,1 65,1" fill="#2ca02c" stroke="black" stroke-width="0.5"/><text x="68" y="0" font-size="9" font-family="sans-serif">KEEP</text><polygon points="125,1 120,-9 130,-9" fill="#d62728" stroke="black" stroke-width="0.5"/><text x="133" y="0" font-size="9" font-family="sans-serif">DISCARD</text><polygon points="190,-9 195,-4 190,1 185,-4" fill="#dca100" stroke="black" stroke-width="0.5"/><text x="198" y="0" font-size="9" font-family="sans-serif">ESCALATE</text></g></svg>
