<?xml version="1.0" encoding="UTF-8"?>
<svg xmlns="http://www.w3.org/2000/svg" version="1.1" width="780" height="906" viewBox="0 0 780 906"><text x="40" y="18" font-size="13" font-family="sans-serif" font-weight="bold">benchmarkserversave -- lxc armv7-debian-13-armv7/cb2 (armv7-processor-rev-4-v7l, armv7, n=5)</text><g transform="translate(40,28)"><rect x="0" y="0" width="720" height="120" fill="white" stroke="#888" stroke-width="0.5"/><text x="4" y="-4" font-size="11" font-family="sans-serif">branch-misses</text><text x="2" y="10" font-size="8" fill="#444" font-family="sans-serif">2.11e+06</text><text x="2" y="118" font-size="8" fill="#444" font-family="sans-serif">2.07e+06</text><line x1="10.0" y1="0" x2="10.0" y2="120" stroke="#2ca02c" stroke-width="0.7" stroke-dasharray="3,2"/><polyline points="10.0,68.93 185.0,61.16 360.0,107.41 535.0,100.00 710.0,12.59" fill="none" stroke="#1f77b4" stroke-width="1.2"/><circle cx="10.0" cy="68.93" r="2" fill="#1f77b4"/><polygon points="10.0,55.92606292224282 5.0,65.92606292224282 15.0,65.92606292224282" fill="#2ca02c" stroke="black" stroke-width="0.5"/><circle cx="185.0" cy="61.16" r="2" fill="#1f77b4"/><polygon points="185.0,48.15637157949351 190.0,53.15637157949351 185.0,58.15637157949351 180.0,53.15637157949351" fill="#dca100" stroke="black" stroke-width="0.5"/><circle cx="360.0" cy="107.41" r="2" fill="#1f77b4"/><polygon points="360.0,94.41379310344817 365.0,99.41379310344817 360.0,104.41379310344817 355.0,99.41379310344817" fill="#dca100" stroke="black" stroke-width="0.5"/><circle cx="535.0" cy="100.00" r="2" fill="#1f77b4"/><polygon points="535.0,87.00482829324007 540.0,92.00482829324007 535.0,97.00482829324007 530.0,92.00482829324007" fill="#dca100" stroke="black" stroke-width="0.5"/><circle cx="710.0" cy="12.59" r="2" fill="#1f77b4"/><polygon points="710.0,-0.41379310344876785 715.0,4.586206896551232 710.0,9.586206896551232 705.0,4.586206896551232" fill="#dca100" stroke="black" stroke-width="0.5"/><text x="716" y="12" font-size="9" text-anchor="end" fill="#1f77b4" font-family="sans-serif">perf-stat.branch-misses (lower=better)</text></g><g transform="translate(40,166)"><rect x="0" y="0" width="720" height="120" fill="white" stroke="#888" stroke-width="0.5"/><text x="4" y="-4" font-size="11" font-family="sans-serif">cache-misses</text><text x="2" y="10" font-size="8" fill="#444" font-family="sans-serif">5.2e+05</text><text x="2" y="118" font-size="8" fill="#444" font-family="sans-serif">4.97e+05</text><line x1="10.0" y1="0" x2="10.0" y2="120" stroke="#2ca02c" stroke-width="0.7" stroke-dasharray="3,2"/><polyline points="10.0,79.52 185.0,107.41 360.0,89.42 535.0,99.73 710.0,12.59" fill="none" stroke="#1f77b4" stroke-width="1.2"/><circle cx="10.0" cy="79.52" r="2" fill="#1f77b4"/><polygon points="10.0,66.52245680693954 5.0,76.52245680693954 15.0,76.52245680693954" fill="#2ca02c" stroke="black" stroke-width="0.5"/><circle cx="185.0" cy="107.41" r="2" fill="#1f77b4"/><polygon points="185.0,94.41379310344823 190.0,99.41379310344823 185.0,104.41379310344823 180.0,99.41379310344823" fill="#dca100" stroke="black" stroke-width="0.5"/><circle cx="360.0" cy="89.42" r="2" fill="#1f77b4"/><polygon points="360.0,76.41922360025805 365.0,81.41922360025805 360.0,86.41922360025805 355.0,81.41922360025805" fill="#dca100" stroke="black" stroke-width="0.5"/><circle cx="535.0" cy="99.73" r="2" fill="#1f77b4"/><polygon points="535.0,86.7349272349272 540.0,91.7349272349272 535.0,96.7349272349272 530.0,91.7349272349272" fill="#dca100" stroke="black" stroke-width="0.5"/><circle cx="710.0" cy="12.59" r="2" fill="#1f77b4"/><polygon points="710.0,-0.41379310344822784 715.0,4.586206896551772 710.0,9.586206896551772 705.0,4.586206896551772" fill="#dca100" stroke="black" stroke-width="0.5"/><text x="716" y="12" font-size="9" text-anchor="end" fill="#1f77b4" font-family="sans-serif">perf-stat.cache-misses (lower=better)</text></g><g transform="translate(40,304)"><rect x="0" y="0" width="720" height="120" fill="white" stroke="#888" stroke-width="0.5"/><text x="4" y="-4" font-size="11" font-family="sans-serif">cycles</text><text x="2" y="10" font-size="8" fill="#444" font-family="sans-serif">2.5e+08</text><text x="2" y="118" font-size="8" fill="#444" font-family="sans-serif">2.42e+08</text><line x1="10.0" y1="0" x2="10.0" y2="120" stroke="#2ca02c" stroke-width="0.7" stroke-dasharray="3,2"/><polyline points="10.0,107.41 185.0,60.51 360.0,103.73 535.0,106.59 710.0,12.59" fill="none" stroke="#1f77b4" stroke-width="1.2"/><circle cx="10.0" cy="107.41" r="2" fill="#1f77b4"/><polygon points="10.0,94.41379310344841 5.0,104.41379310344841 15.0,104.41379310344841" fill="#2ca02c" stroke="black" stroke-width="0.5"/><circle cx="185.0" cy="60.51" r="2" fill="#1f77b4"/><polygon points="185.0,47.51042525839452 190.0,52.51042525839452 185.0,57.51042525839452 180.0,52.51042525839452" fill="#dca100" stroke="black" stroke-width="0.5"/><circle cx="360.0" cy="103.73" r="2" fill="#1f77b4"/><polygon points="360.0,90.73077029871205 365.0,95.73077029871205 360.0,100.73077029871205 355.0,95.73077029871205" fill="#dca100" stroke="black" stroke-width="0.5"/><circle cx="535.0" cy="106.59" r="2" fill="#1f77b4"/><polygon points="535.0,93.59380518018419 540.0,98.59380518018419 535.0,103.59380518018419 530.0,98.59380518018419" fill="#dca100" stroke="black" stroke-width="0.5"/><circle cx="710.0" cy="12.59" r="2" fill="#1f77b4"/><polygon points="710.0,-0.4137931034484126 715.0,4.586206896551587 710.0,9.586206896551587 705.0,4.586206896551587" fill="#dca100" stroke="black" stroke-width="0.5"/><text x="716" y="12" font-size="9" text-anchor="end" fill="#1f77b4" font-family="sans-serif">perf-stat.cycles (lower=better)</text></g><g transform="translate(40,442)"><rect x="0" y="0" width="720" height="120" fill="white" stroke="#888" stroke-width="0.5"/><text x="4" y="-4" font-size="11" font-family="sans-serif">instructions</text><text x="2" y="10" font-size="8" fill="#444" font-family="sans-serif">1.18e+08</text><text x="2" y="118" font-size="8" fill="#444" font-family="sans-serif">1.17e+08</text><line x1="10.0" y1="0" x2="10.0" y2="120" stroke="#2ca02c" stroke-width="0.7" stroke-dasharray="3,2"/><polyline points="10.0,22.48 185.0,72.84 360.0,107.41 535.0,105.36 710.0,12.59" fill="none" stroke="#1f77b4" stroke-width="1.2"/><circle cx="10.0" cy="22.48" r="2" fill="#1f77b4"/><polygon points="10.0,9.47713901246405 5.0,19.47713901246405 15.0,19.47713901246405" fill="#2ca02c" stroke="black" stroke-width="0.5"/><circle cx="185.0" cy="72.84" r="2" fill="#1f77b4"/><polygon points="185.0,59.844972809576305 190.0,64.8449728095763 185.0,69.8449728095763 180.0,64.8449728095763" fill="#dca100" stroke="black" stroke-width="0.5"/><circle cx="360.0" cy="107.41" r="2" fill="#1f77b4"/><polygon points="360.0,94.41379310344789 365.0,99.41379310344789 360.0,104.41379310344789 355.0,99.41379310344789" fill="#dca100" stroke="black" stroke-width="0.5"/><circle cx="535.0" cy="105.36" r="2" fill="#1f77b4"/><polygon points="535.0,92.36219643809589 540.0,97.36219643809589 535.0,102.36219643809589 530.0,97.36219643809589" fill="#dca100" stroke="black" stroke-width="0.5"/><circle cx="710.0" cy="12.59" r="2" fill="#1f77b4"/><polygon points="710.0,-0.413793103447901 715.0,4.586206896552099 710.0,9.586206896552099 705.0,4.586206896552099" fill="#dca100" stroke="black" stroke-width="0.5"/><text x="716" y="12" font-size="9" text-anchor="end" fill="#1f77b4" font-family="sans-serif">perf-stat.instructions (lower=better)</text></g><g transform="translate(40,580)"><rect x="0" y="0" width="720" height="120" fill="white" stroke="#888" stroke-width="0.5"/><text x="4" y="-4" font-size="11" font-family="sans-serif">max_rss_kb</text><text x="2" y="10" font-size="8" fill="#444" font-family="sans-serif">5.55e+03</text><text x="2" y="118" font-size="8" fill="#444" font-family="sans-serif">5.29e+03</text><line x1="10.0" y1="0" x2="10.0" y2="120" stroke="#2ca02c" stroke-width="0.7" stroke-dasharray="3,2"/><polyline points="10.0,107.41 185.0,52.51 360.0,89.11 535.0,12.59 710.0,89.11" fill="none" stroke="#1f77b4" stroke-width="1.2"/><circle cx="10.0" cy="107.41" r="2" fill="#1f77b4"/><polygon points="10.0,94.41379310344836 5.0,104.41379310344836 15.0,104.41379310344836" fill="#2ca02c" stroke="black" stroke-width="0.5"/><circle cx="185.0" cy="52.51" r="2" fill="#1f77b4"/><polygon points="185.0,39.513611615245 190.0,44.513611615245 185.0,49.513611615245 180.0,44.513611615245" fill="#dca100" stroke="black" stroke-width="0.5"/><circle cx="360.0" cy="89.11" r="2" fill="#1f77b4"/><polygon points="360.0,76.11373260738057 365.0,81.11373260738057 360.0,86.11373260738057 355.0,81.11373260738057" fill="#dca100" stroke="black" stroke-width="0.5"/><circle cx="535.0" cy="12.59" r="2" fill="#1f77b4"/><polygon points="535.0,-0.41379310344835574 540.0,4.586206896551644 535.0,9.586206896551644 530.0,4.586206896551644" fill="#dca100" stroke="black" stroke-width="0.5"/><circle cx="710.0" cy="89.11" r="2" fill="#1f77b4"/><polygon points="710.0,76.11373260738057 715.0,81.11373260738057 710.0,86.11373260738057 705.0,81.11373260738057" fill="#dca100" stroke="black" stroke-width="0.5"/><text x="716" y="12" font-size="9" text-anchor="end" fill="#1f77b4" font-family="sans-serif">rusage.default.max_rss_kb (lower=better)</text><polyline points="10.0,107.41 185.0,52.51 360.0,89.11 535.0,12.59 710.0,89.11" fill="none" stroke="#ff7f0e" stroke-width="1.2"/><circle cx="10.0" cy="107.41" r="2" fill="#ff7f0e"/><polygon points="10.0,94.41379310344836 5.0,104.41379310344836 15.0,104.41379310344836" fill="#2ca02c" stroke="black" stroke-width="0.5"/><circle cx="185.0" cy="52.51" r="2" fill="#ff7f0e"/><polygon points="185.0,39.513611615245 190.0,44.513611615245 185.0,49.513611615245 180.0,44.513611615245" fill="#dca100" stroke="black" stroke-width="0.5"/><circle cx="360.0" cy="89.11" r="2" fill="#ff7f0e"/><polygon points="360.0,76.11373260738057 365.0,81.11373260738057 360.0,86.11373260738057 355.0,81.11373260738057" fill="#dca100" stroke="black" stroke-width="0.5"/><circle cx="535.0" cy="12.59" r="2" fill="#ff7f0e"/><polygon points="535.0,-0.41379310344835574 540.0,4.586206896551644 535.0,9.586206896551644 530.0,4.586206896551644" fill="#dca100" stroke="black" stroke-width="0.5"/><circle cx="710.0" cy="89.11" r="2" fill="#ff7f0e"/><polygon points="710.0,76.11373260738057 715.0,81.11373260738057 710.0,86.11373260738057 705.0,81.11373260738057" fill="#dca100" stroke="black" stroke-width="0.5"/><text x="716" y="23" font-size="9" text-anchor="end" fill="#ff7f0e" font-family="sans-serif">rusage.max_rss_kb (lower=better)</text></g><g transform="translate(40,718)"><rect x="0" y="0" width="720" height="120" fill="white" stroke="#888" stroke-width="0.5"/><text x="4" y="-4" font-size="11" font-family="sans-serif">wall_s</text><text x="2" y="10" font-size="8" fill="#444" font-family="sans-serif">0.789</text><text x="2" y="118" font-size="8" fill="#444" font-family="sans-serif">0.221</text><line x1="10.0" y1="0" x2="10.0" y2="120" stroke="#2ca02c" stroke-width="0.7" stroke-dasharray="3,2"/><polyline points="10.0,12.59 185.0,105.48 360.0,105.48 535.0,105.48 710.0,107.41" fill="none" stroke="#1f77b4" stroke-width="1.2"/><circle cx="10.0" cy="12.59" r="2" fill="#1f77b4"/><polygon points="10.0,-0.41379310344827047 5.0,9.58620689655173 15.0,9.58620689655173" fill="#2ca02c" stroke="black" stroke-width="0.5"/><circle cx="185.0" cy="105.48" r="2" fill="#1f77b4"/><polygon points="185.0,92.47853624208304 190.0,97.47853624208304 185.0,102.47853624208304 180.0,97.47853624208304" fill="#dca100" stroke="black" stroke-width="0.5"/><circle cx="360.0" cy="105.48" r="2" fill="#1f77b4"/><polygon points="360.0,92.47853624208304 365.0,97.47853624208304 360.0,102.47853624208304 355.0,97.47853624208304" fill="#dca100" stroke="black" stroke-width="0.5"/><circle cx="535.0" cy="105.48" r="2" fill="#1f77b4"/><polygon points="535.0,92.47853624208304 540.0,97.47853624208304 535.0,102.47853624208304 530.0,97.47853624208304" fill="#dca100" stroke="black" stroke-width="0.5"/><circle cx="710.0" cy="107.41" r="2" fill="#1f77b4"/><polygon points="710.0,94.41379310344827 715.0,99.41379310344827 710.0,104.41379310344827 705.0,99.41379310344827" fill="#dca100" stroke="black" stroke-width="0.5"/><text x="716" y="12" font-size="9" text-anchor="end" fill="#1f77b4" font-family="sans-serif">rusage.default.wall_s (lower=better)</text><polyline points="10.0,12.59 185.0,105.48 360.0,105.48 535.0,105.48 710.0,107.41" fill="none" stroke="#ff7f0e" stroke-width="1.2"/><circle cx="10.0" cy="12.59" r="2" fill="#ff7f0e"/><polygon points="10.0,-0.41379310344827047 5.0,9.58620689655173 15.0,9.58620689655173" fill="#2ca02c" stroke="black" stroke-width="0.5"/><circle cx="185.0" cy="105.48" r="2" fill="#ff7f0e"/><polygon points="185.0,92.47853624208304 190.0,97.47853624208304 185.0,102.47853624208304 180.0,97.47853624208304" fill="#dca100" stroke="black" stroke-width="0.5"/><circle cx="360.0" cy="105.48" r="2" fill="#ff7f0e"/><polygon points="360.0,92.47853624208304 365.0,97.47853624208304 360.0,102.47853624208304 355.0,97.47853624208304" fill="#dca100" stroke="black" stroke-width="0.5"/><circle cx="535.0" cy="105.48" r="2" fill="#ff7f0e"/><polygon points="535.0,92.47853624208304 540.0,97.47853624208304 535.0,102.47853624208304 530.0,97.47853624208304" fill="#dca100" stroke="black" stroke-width="0.5"/><circle cx="710.0" cy="107.41" r="2" fill="#ff7f0e"/><polygon points="710.0,94.41379310344827 715.0,99.41379310344827 710.0,104.41379310344827 705.0,99.41379310344827" fill="#dca100" stroke="black" stroke-width="0.5"/><text x="716" y="23" font-size="9" text-anchor="end" fill="#ff7f0e" font-family="sans-serif">rusage.wall_s (lower=better)</text></g><g transform="translate(40,856)"><text x="10.0" y="10" font-size="8" fill="#2ca02c" text-anchor="middle" font-family="monospace" transform="rotate(45 10.0 10)">3d5154e</text><text x="185.0" y="10" font-size="8" fill="#222" text-anchor="middle" font-family="monospace" transform="rotate(45 185.0 10)">3d5154e</text><text x="360.0" y="10" font-size="8" fill="#222" text-anchor="middle" font-family="monospace" transform="rotate(45 360.0 10)">3d5154e</text><text x="535.0" y="10" font-size="8" fill="#222" text-anchor="middle" font-family="monospace" transform="rotate(45 535.0 10)">3d5154e</text><text x="710.0" y="10" font-size="8" fill="#222" text-anchor="middle" font-family="monospace" transform="rotate(45 710.0 10)">3d5154e</text></g><g transform="translate(540,892)"><text x="0" y="0" font-size="9" font-family="sans-serif">decisions:</text><polygon points="60,-9 55,1 65,1" fill="#2ca02c" stroke="black" stroke-width="0.5"/><text x="68" y="0" font-size="9" font-family="sans-serif">KEEP</text><polygon points="125,1 120,-9 130,-9" fill="#d62728" stroke="black" stroke-width="0.5"/><text x="133" y="0" font-size="9" font-family="sans-serif">DISCARD</text><polygon points="190,-9 195,-4 190,1 185,-4" fill="#dca100" stroke="black" stroke-width="0.5"/><text x="198" y="0" font-size="9" font-family="sans-serif">ESCALATE</text></g></svg>
