<?xml version="1.0" encoding="UTF-8"?>
<svg xmlns="http://www.w3.org/2000/svg" version="1.1" width="780" height="906" viewBox="0 0 780 906"><text x="40" y="18" font-size="13" font-family="sans-serif" font-weight="bold">benchmarkserversave -- lxc armv7-debian-13-armv7/cb2 (armv7-processor-rev-4-v7l, armv7, n=9)</text><g transform="translate(40,28)"><rect x="0" y="0" width="720" height="120" fill="white" stroke="#888" stroke-width="0.5"/><text x="4" y="-4" font-size="11" font-family="sans-serif">branch-misses</text><text x="2" y="10" font-size="8" fill="#444" font-family="sans-serif">2.14e+06</text><text x="2" y="118" font-size="8" fill="#444" font-family="sans-serif">2.08e+06</text><line x1="10.0" y1="0" x2="10.0" y2="120" stroke="#2ca02c" stroke-width="0.7" stroke-dasharray="3,2"/><polyline points="10.0,83.79 97.5,83.46 185.0,12.59 272.5,82.85 360.0,82.17 447.5,37.30 535.0,80.93 622.5,33.69 710.0,107.41" fill="none" stroke="#1f77b4" stroke-width="1.2"/><circle cx="10.0" cy="83.79" r="2" fill="#1f77b4"/><polygon points="10.0,70.78685469617758 5.0,80.78685469617758 15.0,80.78685469617758" fill="#2ca02c" stroke="black" stroke-width="0.5"/><circle cx="97.5" cy="83.46" r="2" fill="#1f77b4"/><polygon points="97.5,70.45962714546656 102.5,75.45962714546656 97.5,80.45962714546656 92.5,75.45962714546656" fill="#dca100" stroke="black" stroke-width="0.5"/><circle cx="185.0" cy="12.59" r="2" fill="#1f77b4"/><polygon points="185.0,-0.41379310344836995 190.0,4.58620689655163 185.0,9.58620689655163 180.0,4.58620689655163" fill="#dca100" stroke="black" stroke-width="0.5"/><circle cx="272.5" cy="82.85" r="2" fill="#1f77b4"/><polygon points="272.5,69.84584439498033 277.5,74.84584439498033 272.5,79.84584439498033 267.5,74.84584439498033" fill="#dca100" stroke="black" stroke-width="0.5"/><circle cx="360.0" cy="82.17" r="2" fill="#1f77b4"/><polygon points="360.0,69.16735563164166 365.0,74.16735563164166 360.0,79.16735563164166 355.0,74.16735563164166" fill="#dca100" stroke="black" stroke-width="0.5"/><circle cx="447.5" cy="37.30" r="2" fill="#1f77b4"/><polygon points="447.5,24.30205506296815 452.5,29.30205506296815 447.5,34.30205506296815 442.5,29.30205506296815" fill="#dca100" stroke="black" stroke-width="0.5"/><circle cx="535.0" cy="80.93" r="2" fill="#1f77b4"/><polygon points="535.0,67.9268489280987 540.0,72.9268489280987 535.0,77.9268489280987 530.0,72.9268489280987" fill="#dca100" stroke="black" stroke-width="0.5"/><circle cx="622.5" cy="33.69" r="2" fill="#1f77b4"/><polygon points="622.5,20.685913316127653 627.5,25.685913316127653 622.5,30.685913316127653 617.5,25.685913316127653" fill="#dca100" stroke="black" stroke-width="0.5"/><circle cx="710.0" cy="107.41" r="2" fill="#1f77b4"/><polygon points="710.0,94.41379310344837 715.0,99.41379310344837 710.0,104.41379310344837 705.0,99.41379310344837" fill="#dca100" stroke="black" stroke-width="0.5"/><text x="716" y="12" font-size="9" text-anchor="end" fill="#1f77b4" font-family="sans-serif">perf-stat.branch-misses (lower=better)</text></g><g transform="translate(40,166)"><rect x="0" y="0" width="720" height="120" fill="white" stroke="#888" stroke-width="0.5"/><text x="4" y="-4" font-size="11" font-family="sans-serif">cache-misses</text><text x="2" y="10" font-size="8" fill="#444" font-family="sans-serif">5.45e+05</text><text x="2" y="118" font-size="8" fill="#444" font-family="sans-serif">5.02e+05</text><line x1="10.0" y1="0" x2="10.0" y2="120" stroke="#2ca02c" stroke-width="0.7" stroke-dasharray="3,2"/><polyline points="10.0,64.86 97.5,107.41 185.0,20.67 272.5,96.75 360.0,62.61 447.5,26.11 535.0,65.54 622.5,12.59 710.0,80.66" fill="none" stroke="#1f77b4" stroke-width="1.2"/><circle cx="10.0" cy="64.86" r="2" fill="#1f77b4"/><polygon points="10.0,51.859820557593935 5.0,61.859820557593935 15.0,61.859820557593935" fill="#2ca02c" stroke="black" stroke-width="0.5"/><circle cx="97.5" cy="107.41" r="2" fill="#1f77b4"/><polygon points="97.5,94.41379310344823 102.5,99.41379310344823 97.5,104.41379310344823 92.5,99.41379310344823" fill="#dca100" stroke="black" stroke-width="0.5"/><circle cx="185.0" cy="20.67" r="2" fill="#1f77b4"/><polygon points="185.0,7.6700470725336345 190.0,12.670047072533634 185.0,17.670047072533634 180.0,12.670047072533634" fill="#dca100" stroke="black" stroke-width="0.5"/><circle cx="272.5" cy="96.75" r="2" fill="#1f77b4"/><polygon points="272.5,83.74765081588959 277.5,88.74765081588959 272.5,93.74765081588959 267.5,88.74765081588959" fill="#dca100" stroke="black" stroke-width="0.5"/><circle cx="360.0" cy="62.61" r="2" fill="#1f77b4"/><polygon points="360.0,49.614452287268705 365.0,54.614452287268705 360.0,59.614452287268705 355.0,54.614452287268705" fill="#dca100" stroke="black" stroke-width="0.5"/><circle cx="447.5" cy="26.11" r="2" fill="#1f77b4"/><polygon points="447.5,13.107284785554853 452.5,18.107284785554853 447.5,23.107284785554853 442.5,18.107284785554853" fill="#dca100" stroke="black" stroke-width="0.5"/><circle cx="535.0" cy="65.54" r="2" fill="#1f77b4"/><polygon points="535.0,52.54397629631846 540.0,57.54397629631846 535.0,62.54397629631846 530.0,57.54397629631846" fill="#dca100" stroke="black" stroke-width="0.5"/><circle cx="622.5" cy="12.59" r="2" fill="#1f77b4"/><polygon points="622.5,-0.41379310344824205 627.5,4.586206896551758 622.5,9.586206896551758 617.5,4.586206896551758" fill="#dca100" stroke="black" stroke-width="0.5"/><circle cx="710.0" cy="80.66" r="2" fill="#1f77b4"/><polygon points="710.0,67.65970289964187 715.0,72.65970289964187 710.0,77.65970289964187 705.0,72.65970289964187" fill="#dca100" stroke="black" stroke-width="0.5"/><text x="716" y="12" font-size="9" text-anchor="end" fill="#1f77b4" font-family="sans-serif">perf-stat.cache-misses (lower=better)</text></g><g transform="translate(40,304)"><rect x="0" y="0" width="720" height="120" fill="white" stroke="#888" stroke-width="0.5"/><text x="4" y="-4" font-size="11" font-family="sans-serif">cycles</text><text x="2" y="10" font-size="8" fill="#444" font-family="sans-serif">2.59e+08</text><text x="2" y="118" font-size="8" fill="#444" font-family="sans-serif">2.49e+08</text><line x1="10.0" y1="0" x2="10.0" y2="120" stroke="#2ca02c" stroke-width="0.7" stroke-dasharray="3,2"/><polyline points="10.0,98.33 97.5,103.18 185.0,18.04 272.5,107.41 360.0,94.80 447.5,12.59 535.0,98.99 622.5,24.14 710.0,102.94" fill="none" stroke="#1f77b4" stroke-width="1.2"/><circle cx="10.0" cy="98.33" r="2" fill="#1f77b4"/><polygon points="10.0,85.32506705563814 5.0,95.32506705563814 15.0,95.32506705563814" fill="#2ca02c" stroke="black" stroke-width="0.5"/><circle cx="97.5" cy="103.18" r="2" fill="#1f77b4"/><polygon points="97.5,90.17563424412714 102.5,95.17563424412714 97.5,100.17563424412714 92.5,95.17563424412714" fill="#dca100" stroke="black" stroke-width="0.5"/><circle cx="185.0" cy="18.04" r="2" fill="#1f77b4"/><polygon points="185.0,5.041527702240927 190.0,10.041527702240927 185.0,15.041527702240927 180.0,10.041527702240927" fill="#dca100" stroke="black" stroke-width="0.5"/><circle cx="272.5" cy="107.41" r="2" fill="#1f77b4"/><polygon points="272.5,94.41379310344836 277.5,99.41379310344836 272.5,104.41379310344836 267.5,99.41379310344836" fill="#dca100" stroke="black" stroke-width="0.5"/><circle cx="360.0" cy="94.80" r="2" fill="#1f77b4"/><polygon points="360.0,81.80174535570511 365.0,86.80174535570511 360.0,91.80174535570511 355.0,86.80174535570511" fill="#dca100" stroke="black" stroke-width="0.5"/><circle cx="447.5" cy="12.59" r="2" fill="#1f77b4"/><polygon points="447.5,-0.4137931034483415 452.5,4.5862068965516585 447.5,9.586206896551658 442.5,4.5862068965516585" fill="#dca100" stroke="black" stroke-width="0.5"/><circle cx="535.0" cy="98.99" r="2" fill="#1f77b4"/><polygon points="535.0,85.98780616171769 540.0,90.98780616171769 535.0,95.98780616171769 530.0,90.98780616171769" fill="#dca100" stroke="black" stroke-width="0.5"/><circle cx="622.5" cy="24.14" r="2" fill="#1f77b4"/><polygon points="622.5,11.143797156262664 627.5,16.143797156262664 622.5,21.143797156262664 617.5,16.143797156262664" fill="#dca100" stroke="black" stroke-width="0.5"/><circle cx="710.0" cy="102.94" r="2" fill="#1f77b4"/><polygon points="710.0,89.94321125479799 715.0,94.94321125479799 710.0,99.94321125479799 705.0,94.94321125479799" fill="#dca100" stroke="black" stroke-width="0.5"/><text x="716" y="12" font-size="9" text-anchor="end" fill="#1f77b4" font-family="sans-serif">perf-stat.cycles (lower=better)</text></g><g transform="translate(40,442)"><rect x="0" y="0" width="720" height="120" fill="white" stroke="#888" stroke-width="0.5"/><text x="4" y="-4" font-size="11" font-family="sans-serif">instructions</text><text x="2" y="10" font-size="8" fill="#444" font-family="sans-serif">1.2e+08</text><text x="2" y="118" font-size="8" fill="#444" font-family="sans-serif">1.19e+08</text><line x1="10.0" y1="0" x2="10.0" y2="120" stroke="#2ca02c" stroke-width="0.7" stroke-dasharray="3,2"/><polyline points="10.0,84.77 97.5,73.31 185.0,12.59 272.5,76.26 360.0,50.44 447.5,29.94 535.0,49.10 622.5,29.91 710.0,107.41" fill="none" stroke="#1f77b4" stroke-width="1.2"/><circle cx="10.0" cy="84.77" r="2" fill="#1f77b4"/><polygon points="10.0,71.76782180868791 5.0,81.76782180868791 15.0,81.76782180868791" fill="#2ca02c" stroke="black" stroke-width="0.5"/><circle cx="97.5" cy="73.31" r="2" fill="#1f77b4"/><polygon points="97.5,60.31355709334903 102.5,65.31355709334903 97.5,70.31355709334903 92.5,65.31355709334903" fill="#dca100" stroke="black" stroke-width="0.5"/><circle cx="185.0" cy="12.59" r="2" fill="#1f77b4"/><polygon points="185.0,-0.4137931034477731 190.0,4.586206896552227 185.0,9.586206896552227 180.0,4.586206896552227" fill="#dca100" stroke="black" stroke-width="0.5"/><circle cx="272.5" cy="76.26" r="2" fill="#1f77b4"/><polygon points="272.5,63.26058399498396 277.5,68.26058399498396 272.5,73.26058399498396 267.5,68.26058399498396" fill="#dca100" stroke="black" stroke-width="0.5"/><circle cx="360.0" cy="50.44" r="2" fill="#1f77b4"/><polygon points="360.0,37.441068526522386 365.0,42.441068526522386 360.0,47.441068526522386 355.0,42.441068526522386" fill="#dca100" stroke="black" stroke-width="0.5"/><circle cx="447.5" cy="29.94" r="2" fill="#1f77b4"/><polygon points="447.5,16.940989747006498 452.5,21.940989747006498 447.5,26.940989747006498 442.5,21.940989747006498" fill="#dca100" stroke="black" stroke-width="0.5"/><circle cx="535.0" cy="49.10" r="2" fill="#1f77b4"/><polygon points="535.0,36.10357170193424 540.0,41.10357170193424 535.0,46.10357170193424 530.0,41.10357170193424" fill="#dca100" stroke="black" stroke-width="0.5"/><circle cx="622.5" cy="29.91" r="2" fill="#1f77b4"/><polygon points="622.5,16.905037435646406 627.5,21.905037435646406 622.5,26.905037435646406 617.5,21.905037435646406" fill="#dca100" stroke="black" stroke-width="0.5"/><circle cx="710.0" cy="107.41" r="2" fill="#1f77b4"/><polygon points="710.0,94.41379310344777 715.0,99.41379310344777 710.0,104.41379310344777 705.0,99.41379310344777" fill="#dca100" stroke="black" stroke-width="0.5"/><text x="716" y="12" font-size="9" text-anchor="end" fill="#1f77b4" font-family="sans-serif">perf-stat.instructions (lower=better)</text></g><g transform="translate(40,580)"><rect x="0" y="0" width="720" height="120" fill="white" stroke="#888" stroke-width="0.5"/><text x="4" y="-4" font-size="11" font-family="sans-serif">max_rss_kb</text><text x="2" y="10" font-size="8" fill="#444" font-family="sans-serif">5.68e+03</text><text x="2" y="118" font-size="8" fill="#444" font-family="sans-serif">5.46e+03</text><line x1="10.0" y1="0" x2="10.0" y2="120" stroke="#2ca02c" stroke-width="0.7" stroke-dasharray="3,2"/><polyline points="10.0,14.60 97.5,95.31 185.0,95.31 272.5,12.59 360.0,26.71 447.5,26.71 535.0,26.71 622.5,107.41 710.0,107.41" fill="none" stroke="#1f77b4" stroke-width="1.2"/><circle cx="10.0" cy="14.60" r="2" fill="#1f77b4"/><polygon points="10.0,1.603815113719719 5.0,11.603815113719719 15.0,11.603815113719719" fill="#2ca02c" stroke="black" stroke-width="0.5"/><circle cx="97.5" cy="95.31" r="2" fill="#1f77b4"/><polygon points="97.5,82.30814380044022 102.5,87.30814380044022 97.5,92.30814380044022 92.5,87.30814380044022" fill="#dca100" stroke="black" stroke-width="0.5"/><circle cx="185.0" cy="95.31" r="2" fill="#1f77b4"/><polygon points="185.0,82.30814380044022 190.0,87.30814380044022 185.0,92.30814380044022 180.0,87.30814380044022" fill="#dca100" stroke="black" stroke-width="0.5"/><circle cx="272.5" cy="12.59" r="2" fill="#1f77b4"/><polygon points="272.5,-0.4137931034482989 277.5,4.586206896551701 272.5,9.586206896551701 267.5,4.586206896551701" fill="#dca100" stroke="black" stroke-width="0.5"/><circle cx="360.0" cy="26.71" r="2" fill="#1f77b4"/><polygon points="360.0,13.709464416727798 365.0,18.709464416727798 360.0,23.709464416727798 355.0,18.709464416727798" fill="#dca100" stroke="black" stroke-width="0.5"/><circle cx="447.5" cy="26.71" r="2" fill="#1f77b4"/><polygon points="447.5,13.709464416727798 452.5,18.709464416727798 447.5,23.709464416727798 442.5,18.709464416727798" fill="#dca100" stroke="black" stroke-width="0.5"/><circle cx="535.0" cy="26.71" r="2" fill="#1f77b4"/><polygon points="535.0,13.709464416727798 540.0,18.709464416727798 535.0,23.709464416727798 530.0,18.709464416727798" fill="#dca100" stroke="black" stroke-width="0.5"/><circle cx="622.5" cy="107.41" r="2" fill="#1f77b4"/><polygon points="622.5,94.41379310344828 627.5,99.41379310344828 622.5,104.41379310344828 617.5,99.41379310344828" fill="#dca100" stroke="black" stroke-width="0.5"/><circle cx="710.0" cy="107.41" r="2" fill="#1f77b4"/><polygon points="710.0,94.41379310344828 715.0,99.41379310344828 710.0,104.41379310344828 705.0,99.41379310344828" fill="#dca100" stroke="black" stroke-width="0.5"/><text x="716" y="12" font-size="9" text-anchor="end" fill="#1f77b4" font-family="sans-serif">rusage.default.max_rss_kb (lower=better)</text><polyline points="10.0,14.60 97.5,95.31 185.0,95.31 272.5,12.59 360.0,26.71 447.5,26.71 535.0,26.71 622.5,107.41 710.0,107.41" fill="none" stroke="#ff7f0e" stroke-width="1.2"/><circle cx="10.0" cy="14.60" r="2" fill="#ff7f0e"/><polygon points="10.0,1.603815113719719 5.0,11.603815113719719 15.0,11.603815113719719" fill="#2ca02c" stroke="black" stroke-width="0.5"/><circle cx="97.5" cy="95.31" r="2" fill="#ff7f0e"/><polygon points="97.5,82.30814380044022 102.5,87.30814380044022 97.5,92.30814380044022 92.5,87.30814380044022" fill="#dca100" stroke="black" stroke-width="0.5"/><circle cx="185.0" cy="95.31" r="2" fill="#ff7f0e"/><polygon points="185.0,82.30814380044022 190.0,87.30814380044022 185.0,92.30814380044022 180.0,87.30814380044022" fill="#dca100" stroke="black" stroke-width="0.5"/><circle cx="272.5" cy="12.59" r="2" fill="#ff7f0e"/><polygon points="272.5,-0.4137931034482989 277.5,4.586206896551701 272.5,9.586206896551701 267.5,4.586206896551701" fill="#dca100" stroke="black" stroke-width="0.5"/><circle cx="360.0" cy="26.71" r="2" fill="#ff7f0e"/><polygon points="360.0,13.709464416727798 365.0,18.709464416727798 360.0,23.709464416727798 355.0,18.709464416727798" fill="#dca100" stroke="black" stroke-width="0.5"/><circle cx="447.5" cy="26.71" r="2" fill="#ff7f0e"/><polygon points="447.5,13.709464416727798 452.5,18.709464416727798 447.5,23.709464416727798 442.5,18.709464416727798" fill="#dca100" stroke="black" stroke-width="0.5"/><circle cx="535.0" cy="26.71" r="2" fill="#ff7f0e"/><polygon points="535.0,13.709464416727798 540.0,18.709464416727798 535.0,23.709464416727798 530.0,18.709464416727798" fill="#dca100" stroke="black" stroke-width="0.5"/><circle cx="622.5" cy="107.41" r="2" fill="#ff7f0e"/><polygon points="622.5,94.41379310344828 627.5,99.41379310344828 622.5,104.41379310344828 617.5,99.41379310344828" fill="#dca100" stroke="black" stroke-width="0.5"/><circle cx="710.0" cy="107.41" r="2" fill="#ff7f0e"/><polygon points="710.0,94.41379310344828 715.0,99.41379310344828 710.0,104.41379310344828 705.0,99.41379310344828" fill="#dca100" stroke="black" stroke-width="0.5"/><text x="716" y="23" font-size="9" text-anchor="end" fill="#ff7f0e" font-family="sans-serif">rusage.max_rss_kb (lower=better)</text></g><g transform="translate(40,718)"><rect x="0" y="0" width="720" height="120" fill="white" stroke="#888" stroke-width="0.5"/><text x="4" y="-4" font-size="11" font-family="sans-serif">wall_s</text><text x="2" y="10" font-size="8" fill="#444" font-family="sans-serif">0.313</text><text x="2" y="118" font-size="8" fill="#444" font-family="sans-serif">0.267</text><line x1="10.0" y1="0" x2="10.0" y2="120" stroke="#2ca02c" stroke-width="0.7" stroke-dasharray="3,2"/><polyline points="10.0,107.41 97.5,83.71 185.0,83.71 272.5,107.41 360.0,36.29 447.5,83.71 535.0,12.59 622.5,83.71 710.0,107.41" fill="none" stroke="#1f77b4" stroke-width="1.2"/><circle cx="10.0" cy="107.41" r="2" fill="#1f77b4"/><polygon points="10.0,94.41379310344831 5.0,104.41379310344831 15.0,104.41379310344831" fill="#2ca02c" stroke="black" stroke-width="0.5"/><circle cx="97.5" cy="83.71" r="2" fill="#1f77b4"/><polygon points="97.5,70.70689655172413 102.5,75.70689655172413 97.5,80.70689655172413 92.5,75.70689655172413" fill="#dca100" stroke="black" stroke-width="0.5"/><circle cx="185.0" cy="83.71" r="2" fill="#1f77b4"/><polygon points="185.0,70.70689655172413 190.0,75.70689655172413 185.0,80.70689655172413 180.0,75.70689655172413" fill="#dca100" stroke="black" stroke-width="0.5"/><circle cx="272.5" cy="107.41" r="2" fill="#1f77b4"/><polygon points="272.5,94.41379310344831 277.5,99.41379310344831 272.5,104.41379310344831 267.5,99.41379310344831" fill="#dca100" stroke="black" stroke-width="0.5"/><circle cx="360.0" cy="36.29" r="2" fill="#1f77b4"/><polygon points="360.0,23.293103448275886 365.0,28.293103448275886 360.0,33.293103448275886 355.0,28.293103448275886" fill="#dca100" stroke="black" stroke-width="0.5"/><circle cx="447.5" cy="83.71" r="2" fill="#1f77b4"/><polygon points="447.5,70.70689655172413 452.5,75.70689655172413 447.5,80.70689655172413 442.5,75.70689655172413" fill="#dca100" stroke="black" stroke-width="0.5"/><circle cx="535.0" cy="12.59" r="2" fill="#1f77b4"/><polygon points="535.0,-0.4137931034483131 540.0,4.586206896551687 535.0,9.586206896551687 530.0,4.586206896551687" fill="#dca100" stroke="black" stroke-width="0.5"/><circle cx="622.5" cy="83.71" r="2" fill="#1f77b4"/><polygon points="622.5,70.70689655172413 627.5,75.70689655172413 622.5,80.70689655172413 617.5,75.70689655172413" fill="#dca100" stroke="black" stroke-width="0.5"/><circle cx="710.0" cy="107.41" r="2" fill="#1f77b4"/><polygon points="710.0,94.41379310344831 715.0,99.41379310344831 710.0,104.41379310344831 705.0,99.41379310344831" fill="#dca100" stroke="black" stroke-width="0.5"/><text x="716" y="12" font-size="9" text-anchor="end" fill="#1f77b4" font-family="sans-serif">rusage.default.wall_s (lower=better)</text><polyline points="10.0,107.41 97.5,83.71 185.0,83.71 272.5,107.41 360.0,36.29 447.5,83.71 535.0,12.59 622.5,83.71 710.0,107.41" fill="none" stroke="#ff7f0e" stroke-width="1.2"/><circle cx="10.0" cy="107.41" r="2" fill="#ff7f0e"/><polygon points="10.0,94.41379310344831 5.0,104.41379310344831 15.0,104.41379310344831" fill="#2ca02c" stroke="black" stroke-width="0.5"/><circle cx="97.5" cy="83.71" r="2" fill="#ff7f0e"/><polygon points="97.5,70.70689655172413 102.5,75.70689655172413 97.5,80.70689655172413 92.5,75.70689655172413" fill="#dca100" stroke="black" stroke-width="0.5"/><circle cx="185.0" cy="83.71" r="2" fill="#ff7f0e"/><polygon points="185.0,70.70689655172413 190.0,75.70689655172413 185.0,80.70689655172413 180.0,75.70689655172413" fill="#dca100" stroke="black" stroke-width="0.5"/><circle cx="272.5" cy="107.41" r="2" fill="#ff7f0e"/><polygon points="272.5,94.41379310344831 277.5,99.41379310344831 272.5,104.41379310344831 267.5,99.41379310344831" fill="#dca100" stroke="black" stroke-width="0.5"/><circle cx="360.0" cy="36.29" r="2" fill="#ff7f0e"/><polygon points="360.0,23.293103448275886 365.0,28.293103448275886 360.0,33.293103448275886 355.0,28.293103448275886" fill="#dca100" stroke="black" stroke-width="0.5"/><circle cx="447.5" cy="83.71" r="2" fill="#ff7f0e"/><polygon points="447.5,70.70689655172413 452.5,75.70689655172413 447.5,80.70689655172413 442.5,75.70689655172413" fill="#dca100" stroke="black" stroke-width="0.5"/><circle cx="535.0" cy="12.59" r="2" fill="#ff7f0e"/><polygon points="535.0,-0.4137931034483131 540.0,4.586206896551687 535.0,9.586206896551687 530.0,4.586206896551687" fill="#dca100" stroke="black" stroke-width="0.5"/><circle cx="622.5" cy="83.71" r="2" fill="#ff7f0e"/><polygon points="622.5,70.70689655172413 627.5,75.70689655172413 622.5,80.70689655172413 617.5,75.70689655172413" fill="#dca100" stroke="black" stroke-width="0.5"/><circle cx="710.0" cy="107.41" r="2" fill="#ff7f0e"/><polygon points="710.0,94.41379310344831 715.0,99.41379310344831 710.0,104.41379310344831 705.0,99.41379310344831" fill="#dca100" stroke="black" stroke-width="0.5"/><text x="716" y="23" font-size="9" text-anchor="end" fill="#ff7f0e" font-family="sans-serif">rusage.wall_s (lower=better)</text></g><g transform="translate(40,856)"><text x="10.0" y="10" font-size="8" fill="#2ca02c" text-anchor="middle" font-family="monospace" transform="rotate(45 10.0 10)">edca85f</text><text x="97.5" y="10" font-size="8" fill="#222" text-anchor="middle" font-family="monospace" transform="rotate(45 97.5 10)">90ce69c</text><text x="185.0" y="10" font-size="8" fill="#222" text-anchor="middle" font-family="monospace" transform="rotate(45 185.0 10)">90ce69c</text><text x="272.5" y="10" font-size="8" fill="#222" text-anchor="middle" font-family="monospace" transform="rotate(45 272.5 10)">1856b24</text><text x="360.0" y="10" font-size="8" fill="#222" text-anchor="middle" font-family="monospace" transform="rotate(45 360.0 10)">a166d07</text><text x="447.5" y="10" font-size="8" fill="#222" text-anchor="middle" font-family="monospace" transform="rotate(45 447.5 10)">a166d07</text><text x="535.0" y="10" font-size="8" fill="#222" text-anchor="middle" font-family="monospace" transform="rotate(45 535.0 10)">a166d07</text><text x="622.5" y="10" font-size="8" fill="#222" text-anchor="middle" font-family="monospace" transform="rotate(45 622.5 10)">a166d07</text><text x="710.0" y="10" font-size="8" fill="#222" text-anchor="middle" font-family="monospace" transform="rotate(45 710.0 10)">a166d07</text></g><g transform="translate(540,892)"><text x="0" y="0" font-size="9" font-family="sans-serif">decisions:</text><polygon points="60,-9 55,1 65,1" fill="#2ca02c" stroke="black" stroke-width="0.5"/><text x="68" y="0" font-size="9" font-family="sans-serif">KEEP</text><polygon points="125,1 120,-9 130,-9" fill="#d62728" stroke="black" stroke-width="0.5"/><text x="133" y="0" font-size="9" font-family="sans-serif">DISCARD</text><polygon points="190,-9 195,-4 190,1 185,-4" fill="#dca100" stroke="black" stroke-width="0.5"/><text x="198" y="0" font-size="9" font-family="sans-serif">ESCALATE</text></g></svg>
