<?xml version="1.0" encoding="UTF-8"?>
<svg xmlns="http://www.w3.org/2000/svg" version="1.1" width="780" height="2700" viewBox="0 0 780 2700"><text x="40" y="18" font-size="13" font-family="sans-serif" font-weight="bold">benchmarkserversave -- cross-node session chart (1 batches, 84 series)</text><g transform="translate(40,28)"><rect x="0" y="0" width="720" height="120" fill="white" stroke="#888" stroke-width="0.5"/><text x="4" y="-4" font-size="11" font-family="sans-serif">cpu_percent</text><text x="2" y="10" font-size="8" fill="#444" font-family="sans-serif">103</text><text x="2" y="118" font-size="8" fill="#444" font-family="sans-serif">0</text><line x1="0" y1="19.03" x2="720" y2="19.03" stroke="#d62728" stroke-width="0.7" stroke-dasharray="4,3" opacity="0.7"/><text x="716" y="17.03" font-size="8" fill="#d62728" text-anchor="end" font-family="sans-serif">90% saturation</text><line x1="360.0" y1="0" x2="360.0" y2="120" stroke="#2ca02c" stroke-width="0.7" stroke-dasharray="3,2"/><polyline points="360.0,8.37" fill="none" stroke="#1f77b4" stroke-width="1.2"/><circle cx="360.0" cy="8.37" r="5" fill="none" stroke="#d62728" stroke-width="1.5"/><circle cx="360.0" cy="8.37" r="2" fill="#1f77b4"/><polygon points="360.0,-4.630476929042274 355.0,5.369523070957726 365.0,5.369523070957726" fill="#2ca02c" stroke="black" stroke-width="0.5"/><text x="716" y="12" font-size="9" text-anchor="end" fill="#1f77b4" font-family="sans-serif">local.rusage.cpu_percent (lower=better)</text><polyline points="360.0,8.37" fill="none" stroke="#ff7f0e" stroke-width="1.2"/><circle cx="360.0" cy="8.37" r="5" fill="none" stroke="#d62728" stroke-width="1.5"/><circle cx="360.0" cy="8.37" r="2" fill="#ff7f0e"/><polygon points="360.0,-4.630476929042274 355.0,5.369523070957726 365.0,5.369523070957726" fill="#2ca02c" stroke="black" stroke-width="0.5"/><text x="716" y="23" font-size="9" text-anchor="end" fill="#ff7f0e" font-family="sans-serif">local.rusage.default.cpu_percent (lower=better)</text></g><g transform="translate(40,166)"><rect x="0" y="0" width="720" height="120" fill="white" stroke="#888" stroke-width="0.5"/><text x="4" y="-4" font-size="11" font-family="sans-serif">binary_size_bytes</text><text x="2" y="10" font-size="8" fill="#444" font-family="sans-serif">2.86e+06</text><text x="2" y="118" font-size="8" fill="#444" font-family="sans-serif">2.86e+06</text><line x1="360.0" y1="0" x2="360.0" y2="120" stroke="#2ca02c" stroke-width="0.7" stroke-dasharray="3,2"/><polyline points="360.0,60.00" fill="none" stroke="#1f77b4" stroke-width="1.2"/><circle cx="360.0" cy="60.00" r="2" fill="#1f77b4"/><polygon points="360.0,47.0 355.0,57.0 365.0,57.0" fill="#2ca02c" stroke="black" stroke-width="0.5"/><text x="716" y="12" font-size="9" text-anchor="end" fill="#1f77b4" font-family="sans-serif">local.binary-size.binary_size_bytes (lower=better)</text></g><g transform="translate(40,304)"><rect x="0" y="0" width="720" height="120" fill="white" stroke="#888" stroke-width="0.5"/><text x="4" y="-4" font-size="11" font-family="sans-serif">branch-misses</text><text x="2" y="10" font-size="8" fill="#444" font-family="sans-serif">2.26e+06</text><text x="2" y="118" font-size="8" fill="#444" font-family="sans-serif">-1.34e+05</text><line x1="360.0" y1="0" x2="360.0" y2="120" stroke="#2ca02c" stroke-width="0.7" stroke-dasharray="3,2"/><polyline points="360.0,12.59" fill="none" stroke="#1f77b4" stroke-width="1.2"/><circle cx="360.0" cy="12.59" r="2" fill="#1f77b4"/><polygon points="360.0,-0.4137931034482847 355.0,9.586206896551715 365.0,9.586206896551715" fill="#2ca02c" stroke="black" stroke-width="0.5"/><text x="716" y="12" font-size="9" text-anchor="end" fill="#1f77b4" font-family="sans-serif">cb2.perf-stat.branch-misses (lower=better)</text><polyline points="360.0,107.41" fill="none" stroke="#ff7f0e" stroke-width="1.2"/><circle cx="360.0" cy="107.41" r="2" fill="#ff7f0e"/><polygon points="360.0,94.41379310344827 355.0,104.41379310344827 365.0,104.41379310344827" fill="#2ca02c" stroke="black" stroke-width="0.5"/><text x="716" y="23" font-size="9" text-anchor="end" fill="#ff7f0e" font-family="sans-serif">laptopHB.perf-stat.branch-misses (lower=better)</text><polyline points="360.0,65.12" fill="none" stroke="#2ca02c" stroke-width="1.2"/><circle cx="360.0" cy="65.12" r="2" fill="#2ca02c"/><polygon points="360.0,52.116824851649454 355.0,62.116824851649454 365.0,62.116824851649454" fill="#2ca02c" stroke="black" stroke-width="0.5"/><text x="716" y="34" font-size="9" text-anchor="end" fill="#2ca02c" font-family="sans-serif">odroid-c2.perf-stat.branch-misses (lower=better)</text><polyline points="360.0,55.98" fill="none" stroke="#d62728" stroke-width="1.2"/><circle cx="360.0" cy="55.98" r="2" fill="#d62728"/><polygon points="360.0,42.98247395757865 355.0,52.98247395757865 365.0,52.98247395757865" fill="#2ca02c" stroke="black" stroke-width="0.5"/><text x="716" y="45" font-size="9" text-anchor="end" fill="#d62728" font-family="sans-serif">pentium3.perf-stat.branch-misses (lower=better)</text><polyline points="360.0,40.23" fill="none" stroke="#9467bd" stroke-width="1.2"/><circle cx="360.0" cy="40.23" r="2" fill="#9467bd"/><polygon points="360.0,27.227971816530342 355.0,37.22797181653034 365.0,37.22797181653034" fill="#2ca02c" stroke="black" stroke-width="0.5"/><text x="716" y="56" font-size="9" text-anchor="end" fill="#9467bd" font-family="sans-serif">rpi-zero-w.perf-stat.branch-misses (lower=better)</text><polyline points="360.0,67.99" fill="none" stroke="#8c564b" stroke-width="1.2"/><circle cx="360.0" cy="67.99" r="2" fill="#8c564b"/><polygon points="360.0,54.99148273532353 355.0,64.99148273532353 365.0,64.99148273532353" fill="#2ca02c" stroke="black" stroke-width="0.5"/><text x="716" y="67" font-size="9" text-anchor="end" fill="#8c564b" font-family="sans-serif">rpi3.perf-stat.branch-misses (lower=better)</text><polyline points="360.0,88.70" fill="none" stroke="#e377c2" stroke-width="1.2"/><circle cx="360.0" cy="88.70" r="2" fill="#e377c2"/><polygon points="360.0,75.70277969107443 355.0,85.70277969107443 365.0,85.70277969107443" fill="#2ca02c" stroke="black" stroke-width="0.5"/><text x="716" y="78" font-size="9" text-anchor="end" fill="#e377c2" font-family="sans-serif">rpi4.perf-stat.branch-misses (lower=better)</text></g><g transform="translate(40,442)"><rect x="0" y="0" width="720" height="120" fill="white" stroke="#888" stroke-width="0.5"/><text x="4" y="-4" font-size="11" font-family="sans-serif">branch-misses:u</text><text x="2" y="10" font-size="8" fill="#444" font-family="sans-serif">2.93e+05</text><text x="2" y="118" font-size="8" fill="#444" font-family="sans-serif">2.93e+05</text><line x1="360.0" y1="0" x2="360.0" y2="120" stroke="#2ca02c" stroke-width="0.7" stroke-dasharray="3,2"/><polyline points="360.0,60.00" fill="none" stroke="#1f77b4" stroke-width="1.2"/><circle cx="360.0" cy="60.00" r="2" fill="#1f77b4"/><polygon points="360.0,47.0 355.0,57.0 365.0,57.0" fill="#2ca02c" stroke="black" stroke-width="0.5"/><text x="716" y="12" font-size="9" text-anchor="end" fill="#1f77b4" font-family="sans-serif">pentium-m.perf-stat.branch-misses:u (lower=better)</text></g><g transform="translate(40,580)"><rect x="0" y="0" width="720" height="120" fill="white" stroke="#888" stroke-width="0.5"/><text x="4" y="-4" font-size="11" font-family="sans-serif">cache-misses</text><text x="2" y="10" font-size="8" fill="#444" font-family="sans-serif">9.83e+05</text><text x="2" y="118" font-size="8" fill="#444" font-family="sans-serif">-3.39e+04</text><line x1="360.0" y1="0" x2="360.0" y2="120" stroke="#2ca02c" stroke-width="0.7" stroke-dasharray="3,2"/><polyline points="360.0,54.95" fill="none" stroke="#1f77b4" stroke-width="1.2"/><circle cx="360.0" cy="54.95" r="2" fill="#1f77b4"/><polygon points="360.0,41.94746317619151 355.0,51.94746317619151 365.0,51.94746317619151" fill="#2ca02c" stroke="black" stroke-width="0.5"/><text x="716" y="12" font-size="9" text-anchor="end" fill="#1f77b4" font-family="sans-serif">cb2.perf-stat.cache-misses (lower=better)</text><polyline points="360.0,107.41" fill="none" stroke="#ff7f0e" stroke-width="1.2"/><circle cx="360.0" cy="107.41" r="2" fill="#ff7f0e"/><polygon points="360.0,94.41379310344827 355.0,104.41379310344827 365.0,104.41379310344827" fill="#2ca02c" stroke="black" stroke-width="0.5"/><text x="716" y="23" font-size="9" text-anchor="end" fill="#ff7f0e" font-family="sans-serif">laptopHB.perf-stat.cache-misses (lower=better)</text><polyline points="360.0,59.77" fill="none" stroke="#2ca02c" stroke-width="1.2"/><circle cx="360.0" cy="59.77" r="2" fill="#2ca02c"/><polygon points="360.0,46.77476968917313 355.0,56.77476968917313 365.0,56.77476968917313" fill="#2ca02c" stroke="black" stroke-width="0.5"/><text x="716" y="34" font-size="9" text-anchor="end" fill="#2ca02c" font-family="sans-serif">odroid-c2.perf-stat.cache-misses (lower=better)</text><polyline points="360.0,12.59" fill="none" stroke="#d62728" stroke-width="1.2"/><circle cx="360.0" cy="12.59" r="2" fill="#d62728"/><polygon points="360.0,-0.41379310344827047 355.0,9.58620689655173 365.0,9.58620689655173" fill="#2ca02c" stroke="black" stroke-width="0.5"/><text x="716" y="45" font-size="9" text-anchor="end" fill="#d62728" font-family="sans-serif">pentium3.perf-stat.cache-misses (lower=better)</text><polyline points="360.0,69.38" fill="none" stroke="#9467bd" stroke-width="1.2"/><circle cx="360.0" cy="69.38" r="2" fill="#9467bd"/><polygon points="360.0,56.380160913298596 355.0,66.3801609132986 365.0,66.3801609132986" fill="#2ca02c" stroke="black" stroke-width="0.5"/><text x="716" y="56" font-size="9" text-anchor="end" fill="#9467bd" font-family="sans-serif">rpi3.perf-stat.cache-misses (lower=better)</text><polyline points="360.0,65.64" fill="none" stroke="#8c564b" stroke-width="1.2"/><circle cx="360.0" cy="65.64" r="2" fill="#8c564b"/><polygon points="360.0,52.64298208629317 355.0,62.64298208629317 365.0,62.64298208629317" fill="#2ca02c" stroke="black" stroke-width="0.5"/><text x="716" y="67" font-size="9" text-anchor="end" fill="#8c564b" font-family="sans-serif">rpi4.perf-stat.cache-misses (lower=better)</text></g><g transform="translate(40,718)"><rect x="0" y="0" width="720" height="120" fill="white" stroke="#888" stroke-width="0.5"/><text x="4" y="-4" font-size="11" font-family="sans-serif">cache-misses:u</text><text x="2" y="10" font-size="8" fill="#444" font-family="sans-serif">2.92e+04</text><text x="2" y="118" font-size="8" fill="#444" font-family="sans-serif">2.92e+04</text><line x1="360.0" y1="0" x2="360.0" y2="120" stroke="#2ca02c" stroke-width="0.7" stroke-dasharray="3,2"/><polyline points="360.0,60.00" fill="none" stroke="#1f77b4" stroke-width="1.2"/><circle cx="360.0" cy="60.00" r="2" fill="#1f77b4"/><polygon points="360.0,47.0 355.0,57.0 365.0,57.0" fill="#2ca02c" stroke="black" stroke-width="0.5"/><text x="716" y="12" font-size="9" text-anchor="end" fill="#1f77b4" font-family="sans-serif">pentium-m.perf-stat.cache-misses:u (lower=better)</text></g><g transform="translate(40,856)"><rect x="0" y="0" width="720" height="120" fill="white" stroke="#888" stroke-width="0.5"/><text x="4" y="-4" font-size="11" font-family="sans-serif">cache_bytes</text><text x="2" y="10" font-size="8" fill="#444" font-family="sans-serif">5.13e+04</text><text x="2" y="118" font-size="8" fill="#444" font-family="sans-serif">5.13e+04</text><line x1="360.0" y1="0" x2="360.0" y2="120" stroke="#2ca02c" stroke-width="0.7" stroke-dasharray="3,2"/><polyline points="360.0,60.00" fill="none" stroke="#1f77b4" stroke-width="1.2"/><circle cx="360.0" cy="60.00" r="2" fill="#1f77b4"/><polygon points="360.0,47.0 355.0,57.0 365.0,57.0" fill="#2ca02c" stroke="black" stroke-width="0.5"/><text x="716" y="12" font-size="9" text-anchor="end" fill="#1f77b4" font-family="sans-serif">local.rusage.cache_bytes (lower=better)</text><polyline points="360.0,60.00" fill="none" stroke="#ff7f0e" stroke-width="1.2"/><circle cx="360.0" cy="60.00" r="2" fill="#ff7f0e"/><polygon points="360.0,47.0 355.0,57.0 365.0,57.0" fill="#2ca02c" stroke="black" stroke-width="0.5"/><text x="716" y="23" font-size="9" text-anchor="end" fill="#ff7f0e" font-family="sans-serif">local.rusage.default.cache_bytes (lower=better)</text></g><g transform="translate(40,994)"><rect x="0" y="0" width="720" height="120" fill="white" stroke="#888" stroke-width="0.5"/><text x="4" y="-4" font-size="11" font-family="sans-serif">cycles</text><text x="2" y="10" font-size="8" fill="#444" font-family="sans-serif">4.43e+08</text><text x="2" y="118" font-size="8" fill="#444" font-family="sans-serif">-2.77e+07</text><line x1="360.0" y1="0" x2="360.0" y2="120" stroke="#2ca02c" stroke-width="0.7" stroke-dasharray="3,2"/><polyline points="360.0,50.07" fill="none" stroke="#1f77b4" stroke-width="1.2"/><circle cx="360.0" cy="50.07" r="2" fill="#1f77b4"/><polygon points="360.0,37.07001718666426 355.0,47.07001718666426 365.0,47.07001718666426" fill="#2ca02c" stroke="black" stroke-width="0.5"/><text x="716" y="12" font-size="9" text-anchor="end" fill="#1f77b4" font-family="sans-serif">cb2.perf-stat.cycles (lower=better)</text><polyline points="360.0,107.41" fill="none" stroke="#ff7f0e" stroke-width="1.2"/><circle cx="360.0" cy="107.41" r="2" fill="#ff7f0e"/><polygon points="360.0,94.41379310344827 355.0,104.41379310344827 365.0,104.41379310344827" fill="#2ca02c" stroke="black" stroke-width="0.5"/><text x="716" y="23" font-size="9" text-anchor="end" fill="#ff7f0e" font-family="sans-serif">laptopHB.perf-stat.cycles (lower=better)</text><polyline points="360.0,69.55" fill="none" stroke="#2ca02c" stroke-width="1.2"/><circle cx="360.0" cy="69.55" r="2" fill="#2ca02c"/><polygon points="360.0,56.554082873757096 355.0,66.5540828737571 365.0,66.5540828737571" fill="#2ca02c" stroke="black" stroke-width="0.5"/><text x="716" y="34" font-size="9" text-anchor="end" fill="#2ca02c" font-family="sans-serif">odroid-c2.perf-stat.cycles (lower=better)</text><polyline points="360.0,31.59" fill="none" stroke="#d62728" stroke-width="1.2"/><circle cx="360.0" cy="31.59" r="2" fill="#d62728"/><polygon points="360.0,18.585731595069547 355.0,28.585731595069547 365.0,28.585731595069547" fill="#2ca02c" stroke="black" stroke-width="0.5"/><text x="716" y="45" font-size="9" text-anchor="end" fill="#d62728" font-family="sans-serif">pentium3.perf-stat.cycles (lower=better)</text><polyline points="360.0,12.59" fill="none" stroke="#9467bd" stroke-width="1.2"/><circle cx="360.0" cy="12.59" r="2" fill="#9467bd"/><polygon points="360.0,-0.41379310344827047 355.0,9.58620689655173 365.0,9.58620689655173" fill="#2ca02c" stroke="black" stroke-width="0.5"/><text x="716" y="56" font-size="9" text-anchor="end" fill="#9467bd" font-family="sans-serif">rpi-zero-w.perf-stat.cycles (lower=better)</text><polyline points="360.0,75.30" fill="none" stroke="#8c564b" stroke-width="1.2"/><circle cx="360.0" cy="75.30" r="2" fill="#8c564b"/><polygon points="360.0,62.30110439711797 355.0,72.30110439711797 365.0,72.30110439711797" fill="#2ca02c" stroke="black" stroke-width="0.5"/><text x="716" y="67" font-size="9" text-anchor="end" fill="#8c564b" font-family="sans-serif">rpi3.perf-stat.cycles (lower=better)</text><polyline points="360.0,86.89" fill="none" stroke="#e377c2" stroke-width="1.2"/><circle cx="360.0" cy="86.89" r="2" fill="#e377c2"/><polygon points="360.0,73.89246455128826 355.0,83.89246455128826 365.0,83.89246455128826" fill="#2ca02c" stroke="black" stroke-width="0.5"/><text x="716" y="78" font-size="9" text-anchor="end" fill="#e377c2" font-family="sans-serif">rpi4.perf-stat.cycles (lower=better)</text></g><g transform="translate(40,1132)"><rect x="0" y="0" width="720" height="120" fill="white" stroke="#888" stroke-width="0.5"/><text x="4" y="-4" font-size="11" font-family="sans-serif">cycles:u</text><text x="2" y="10" font-size="8" fill="#444" font-family="sans-serif">6.33e+07</text><text x="2" y="118" font-size="8" fill="#444" font-family="sans-serif">6.33e+07</text><line x1="360.0" y1="0" x2="360.0" y2="120" stroke="#2ca02c" stroke-width="0.7" stroke-dasharray="3,2"/><polyline points="360.0,60.00" fill="none" stroke="#1f77b4" stroke-width="1.2"/><circle cx="360.0" cy="60.00" r="2" fill="#1f77b4"/><polygon points="360.0,47.0 355.0,57.0 365.0,57.0" fill="#2ca02c" stroke="black" stroke-width="0.5"/><text x="716" y="12" font-size="9" text-anchor="end" fill="#1f77b4" font-family="sans-serif">pentium-m.perf-stat.cycles:u (lower=better)</text></g><g transform="translate(40,1270)"><rect x="0" y="0" width="720" height="120" fill="white" stroke="#888" stroke-width="0.5"/><text x="4" y="-4" font-size="11" font-family="sans-serif">instructions</text><text x="2" y="10" font-size="8" fill="#444" font-family="sans-serif">1.43e+08</text><text x="2" y="118" font-size="8" fill="#444" font-family="sans-serif">-5.67e+06</text><line x1="360.0" y1="0" x2="360.0" y2="120" stroke="#2ca02c" stroke-width="0.7" stroke-dasharray="3,2"/><polyline points="360.0,22.30" fill="none" stroke="#1f77b4" stroke-width="1.2"/><circle cx="360.0" cy="22.30" r="2" fill="#1f77b4"/><polygon points="360.0,9.304133928885193 355.0,19.304133928885193 365.0,19.304133928885193" fill="#2ca02c" stroke="black" stroke-width="0.5"/><text x="716" y="12" font-size="9" text-anchor="end" fill="#1f77b4" font-family="sans-serif">cb2.perf-stat.instructions (lower=better)</text><polyline points="360.0,107.41" fill="none" stroke="#ff7f0e" stroke-width="1.2"/><circle cx="360.0" cy="107.41" r="2" fill="#ff7f0e"/><polygon points="360.0,94.41379310344827 355.0,104.41379310344827 365.0,104.41379310344827" fill="#2ca02c" stroke="black" stroke-width="0.5"/><text x="716" y="23" font-size="9" text-anchor="end" fill="#ff7f0e" font-family="sans-serif">laptopHB.perf-stat.instructions (lower=better)</text><polyline points="360.0,34.31" fill="none" stroke="#2ca02c" stroke-width="1.2"/><circle cx="360.0" cy="34.31" r="2" fill="#2ca02c"/><polygon points="360.0,21.314851535850636 355.0,31.314851535850636 365.0,31.314851535850636" fill="#2ca02c" stroke="black" stroke-width="0.5"/><text x="716" y="34" font-size="9" text-anchor="end" fill="#2ca02c" font-family="sans-serif">odroid-c2.perf-stat.instructions (lower=better)</text><polyline points="360.0,12.59" fill="none" stroke="#d62728" stroke-width="1.2"/><circle cx="360.0" cy="12.59" r="2" fill="#d62728"/><polygon points="360.0,-0.41379310344827047 355.0,9.58620689655173 365.0,9.58620689655173" fill="#2ca02c" stroke="black" stroke-width="0.5"/><text x="716" y="45" font-size="9" text-anchor="end" fill="#d62728" font-family="sans-serif">pentium3.perf-stat.instructions (lower=better)</text><polyline points="360.0,29.46" fill="none" stroke="#9467bd" stroke-width="1.2"/><circle cx="360.0" cy="29.46" r="2" fill="#9467bd"/><polygon points="360.0,16.462690676333196 355.0,26.462690676333196 365.0,26.462690676333196" fill="#2ca02c" stroke="black" stroke-width="0.5"/><text x="716" y="56" font-size="9" text-anchor="end" fill="#9467bd" font-family="sans-serif">rpi-zero-w.perf-stat.instructions (lower=better)</text><polyline points="360.0,37.28" fill="none" stroke="#8c564b" stroke-width="1.2"/><circle cx="360.0" cy="37.28" r="2" fill="#8c564b"/><polygon points="360.0,24.2844956892597 355.0,34.2844956892597 365.0,34.2844956892597" fill="#2ca02c" stroke="black" stroke-width="0.5"/><text x="716" y="67" font-size="9" text-anchor="end" fill="#8c564b" font-family="sans-serif">rpi3.perf-stat.instructions (lower=better)</text><polyline points="360.0,37.22" fill="none" stroke="#e377c2" stroke-width="1.2"/><circle cx="360.0" cy="37.22" r="2" fill="#e377c2"/><polygon points="360.0,24.220658740183993 355.0,34.22065874018399 365.0,34.22065874018399" fill="#2ca02c" stroke="black" stroke-width="0.5"/><text x="716" y="78" font-size="9" text-anchor="end" fill="#e377c2" font-family="sans-serif">rpi4.perf-stat.instructions (lower=better)</text></g><g transform="translate(40,1408)"><rect x="0" y="0" width="720" height="120" fill="white" stroke="#888" stroke-width="0.5"/><text x="4" y="-4" font-size="11" font-family="sans-serif">instructions:u</text><text x="2" y="10" font-size="8" fill="#444" font-family="sans-serif">1.21e+08</text><text x="2" y="118" font-size="8" fill="#444" font-family="sans-serif">1.21e+08</text><line x1="360.0" y1="0" x2="360.0" y2="120" stroke="#2ca02c" stroke-width="0.7" stroke-dasharray="3,2"/><polyline points="360.0,60.00" fill="none" stroke="#1f77b4" stroke-width="1.2"/><circle cx="360.0" cy="60.00" r="2" fill="#1f77b4"/><polygon points="360.0,47.0 355.0,57.0 365.0,57.0" fill="#2ca02c" stroke="black" stroke-width="0.5"/><text x="716" y="12" font-size="9" text-anchor="end" fill="#1f77b4" font-family="sans-serif">pentium-m.perf-stat.instructions:u (lower=better)</text></g><g transform="translate(40,1546)"><rect x="0" y="0" width="720" height="120" fill="white" stroke="#888" stroke-width="0.5"/><text x="4" y="-4" font-size="11" font-family="sans-serif">max_rss_kb</text><text x="2" y="10" font-size="8" fill="#444" font-family="sans-serif">8.53e+03</text><text x="2" y="118" font-size="8" fill="#444" font-family="sans-serif">5.45e+03</text><line x1="360.0" y1="0" x2="360.0" y2="120" stroke="#2ca02c" stroke-width="0.7" stroke-dasharray="3,2"/><polyline points="360.0,24.17" fill="none" stroke="#1f77b4" stroke-width="1.2"/><circle cx="360.0" cy="24.17" r="2" fill="#1f77b4"/><polygon points="360.0,11.171477609611472 355.0,21.171477609611472 365.0,21.171477609611472" fill="#2ca02c" stroke="black" stroke-width="0.5"/><text x="716" y="12" font-size="9" text-anchor="end" fill="#1f77b4" font-family="sans-serif">atom-n455.rusage.default.max_rss_kb (lower=better)</text><polyline points="360.0,24.17" fill="none" stroke="#ff7f0e" stroke-width="1.2"/><circle cx="360.0" cy="24.17" r="2" fill="#ff7f0e"/><polygon points="360.0,11.171477609611472 355.0,21.171477609611472 365.0,21.171477609611472" fill="#2ca02c" stroke="black" stroke-width="0.5"/><text x="716" y="23" font-size="9" text-anchor="end" fill="#ff7f0e" font-family="sans-serif">atom-n455.rusage.max_rss_kb (lower=better)</text><polyline points="360.0,107.41" fill="none" stroke="#2ca02c" stroke-width="1.2"/><circle cx="360.0" cy="107.41" r="2" fill="#2ca02c"/><polygon points="360.0,94.41379310344828 355.0,104.41379310344828 365.0,104.41379310344828" fill="#2ca02c" stroke="black" stroke-width="0.5"/><text x="716" y="34" font-size="9" text-anchor="end" fill="#2ca02c" font-family="sans-serif">cb2.rusage.default.max_rss_kb (lower=better)</text><polyline points="360.0,107.41" fill="none" stroke="#d62728" stroke-width="1.2"/><circle cx="360.0" cy="107.41" r="2" fill="#d62728"/><polygon points="360.0,94.41379310344828 355.0,104.41379310344828 365.0,104.41379310344828" fill="#2ca02c" stroke="black" stroke-width="0.5"/><text x="716" y="45" font-size="9" text-anchor="end" fill="#d62728" font-family="sans-serif">cb2.rusage.max_rss_kb (lower=better)</text><polyline points="360.0,12.59" fill="none" stroke="#9467bd" stroke-width="1.2"/><circle cx="360.0" cy="12.59" r="2" fill="#9467bd"/><polygon points="360.0,-0.4137931034482847 355.0,9.586206896551715 365.0,9.586206896551715" fill="#2ca02c" stroke="black" stroke-width="0.5"/><text x="716" y="56" font-size="9" text-anchor="end" fill="#9467bd" font-family="sans-serif">local.rusage.default.max_rss_kb (lower=better)</text><polyline points="360.0,12.59" fill="none" stroke="#8c564b" stroke-width="1.2"/><circle cx="360.0" cy="12.59" r="2" fill="#8c564b"/><polygon points="360.0,-0.4137931034482847 355.0,9.586206896551715 365.0,9.586206896551715" fill="#2ca02c" stroke="black" stroke-width="0.5"/><text x="716" y="67" font-size="9" text-anchor="end" fill="#8c564b" font-family="sans-serif">local.rusage.max_rss_kb (lower=better)</text><polyline points="360.0,40.48" fill="none" stroke="#e377c2" stroke-width="1.2"/><circle cx="360.0" cy="40.48" r="2" fill="#e377c2"/><polygon points="360.0,27.476673427991884 355.0,37.476673427991884 365.0,37.476673427991884" fill="#2ca02c" stroke="black" stroke-width="0.5"/><text x="716" y="78" font-size="9" text-anchor="end" fill="#e377c2" font-family="sans-serif">odroid-c2.rusage.default.max_rss_kb (lower=better)</text><polyline points="360.0,40.48" fill="none" stroke="#7f7f7f" stroke-width="1.2"/><circle cx="360.0" cy="40.48" r="2" fill="#7f7f7f"/><polygon points="360.0,27.476673427991884 355.0,37.476673427991884 365.0,37.476673427991884" fill="#2ca02c" stroke="black" stroke-width="0.5"/><text x="716" y="89" font-size="9" text-anchor="end" fill="#7f7f7f" font-family="sans-serif">odroid-c2.rusage.max_rss_kb (lower=better)</text><polyline points="360.0,40.48" fill="none" stroke="#bcbd22" stroke-width="1.2"/><circle cx="360.0" cy="40.48" r="2" fill="#bcbd22"/><polygon points="360.0,27.476673427991884 355.0,37.476673427991884 365.0,37.476673427991884" fill="#2ca02c" stroke="black" stroke-width="0.5"/><text x="716" y="100" font-size="9" text-anchor="end" fill="#bcbd22" font-family="sans-serif">odroid-n2.rusage.default.max_rss_kb (lower=better)</text><polyline points="360.0,40.48" fill="none" stroke="#17becf" stroke-width="1.2"/><circle cx="360.0" cy="40.48" r="2" fill="#17becf"/><polygon points="360.0,27.476673427991884 355.0,37.476673427991884 365.0,37.476673427991884" fill="#2ca02c" stroke="black" stroke-width="0.5"/><text x="716" y="111" font-size="9" text-anchor="end" fill="#17becf" font-family="sans-serif">odroid-n2.rusage.max_rss_kb (lower=better)</text><polyline points="360.0,29.75" fill="none" stroke="#1f77b4" stroke-width="1.2"/><circle cx="360.0" cy="29.75" r="2" fill="#1f77b4"/><polygon points="360.0,16.74957091589951 355.0,26.74957091589951 365.0,26.74957091589951" fill="#2ca02c" stroke="black" stroke-width="0.5"/><text x="716" y="122" font-size="9" text-anchor="end" fill="#1f77b4" font-family="sans-serif">pentium-m.rusage.default.max_rss_kb (lower=better)</text><polyline points="360.0,29.75" fill="none" stroke="#ff7f0e" stroke-width="1.2"/><circle cx="360.0" cy="29.75" r="2" fill="#ff7f0e"/><polygon points="360.0,16.74957091589951 355.0,26.74957091589951 365.0,26.74957091589951" fill="#2ca02c" stroke="black" stroke-width="0.5"/><text x="716" y="133" font-size="9" text-anchor="end" fill="#ff7f0e" font-family="sans-serif">pentium-m.rusage.max_rss_kb (lower=better)</text><polyline points="360.0,33.04" fill="none" stroke="#2ca02c" stroke-width="1.2"/><circle cx="360.0" cy="33.04" r="2" fill="#2ca02c"/><polygon points="360.0,20.039215686274503 355.0,30.039215686274503 365.0,30.039215686274503" fill="#2ca02c" stroke="black" stroke-width="0.5"/><text x="716" y="144" font-size="9" text-anchor="end" fill="#2ca02c" font-family="sans-serif">pentium3.rusage.default.max_rss_kb (lower=better)</text><polyline points="360.0,33.04" fill="none" stroke="#d62728" stroke-width="1.2"/><circle cx="360.0" cy="33.04" r="2" fill="#d62728"/><polygon points="360.0,20.039215686274503 355.0,30.039215686274503 365.0,30.039215686274503" fill="#2ca02c" stroke="black" stroke-width="0.5"/><text x="716" y="155" font-size="9" text-anchor="end" fill="#d62728" font-family="sans-serif">pentium3.rusage.max_rss_kb (lower=better)</text><polyline points="360.0,69.23" fill="none" stroke="#9467bd" stroke-width="1.2"/><circle cx="360.0" cy="69.23" r="2" fill="#9467bd"/><polygon points="360.0,56.225308160399436 355.0,66.22530816039944 365.0,66.22530816039944" fill="#2ca02c" stroke="black" stroke-width="0.5"/><text x="716" y="166" font-size="9" text-anchor="end" fill="#9467bd" font-family="sans-serif">rpi-zero-w.rusage.default.max_rss_kb (lower=better)</text><polyline points="360.0,69.23" fill="none" stroke="#8c564b" stroke-width="1.2"/><circle cx="360.0" cy="69.23" r="2" fill="#8c564b"/><polygon points="360.0,56.225308160399436 355.0,66.22530816039944 365.0,66.22530816039944" fill="#2ca02c" stroke="black" stroke-width="0.5"/><text x="716" y="177" font-size="9" text-anchor="end" fill="#8c564b" font-family="sans-serif">rpi-zero-w.rusage.max_rss_kb (lower=better)</text><polyline points="360.0,50.35" fill="none" stroke="#e377c2" stroke-width="1.2"/><circle cx="360.0" cy="50.35" r="2" fill="#e377c2"/><polygon points="360.0,37.34560773911686 355.0,47.34560773911686 365.0,47.34560773911686" fill="#2ca02c" stroke="black" stroke-width="0.5"/><text x="716" y="188" font-size="9" text-anchor="end" fill="#e377c2" font-family="sans-serif">rpi3.rusage.default.max_rss_kb (lower=better)</text><polyline points="360.0,50.35" fill="none" stroke="#7f7f7f" stroke-width="1.2"/><circle cx="360.0" cy="50.35" r="2" fill="#7f7f7f"/><polygon points="360.0,37.34560773911686 355.0,47.34560773911686 365.0,47.34560773911686" fill="#2ca02c" stroke="black" stroke-width="0.5"/><text x="716" y="199" font-size="9" text-anchor="end" fill="#7f7f7f" font-family="sans-serif">rpi3.rusage.max_rss_kb (lower=better)</text><polyline points="360.0,48.63" fill="none" stroke="#bcbd22" stroke-width="1.2"/><circle cx="360.0" cy="48.63" r="2" fill="#bcbd22"/><polygon points="360.0,35.62927133718209 355.0,45.62927133718209 365.0,45.62927133718209" fill="#2ca02c" stroke="black" stroke-width="0.5"/><text x="716" y="210" font-size="9" text-anchor="end" fill="#bcbd22" font-family="sans-serif">rpi4.rusage.default.max_rss_kb (lower=better)</text><polyline points="360.0,48.63" fill="none" stroke="#17becf" stroke-width="1.2"/><circle cx="360.0" cy="48.63" r="2" fill="#17becf"/><polygon points="360.0,35.62927133718209 355.0,45.62927133718209 365.0,45.62927133718209" fill="#2ca02c" stroke="black" stroke-width="0.5"/><text x="716" y="221" font-size="9" text-anchor="end" fill="#17becf" font-family="sans-serif">rpi4.rusage.max_rss_kb (lower=better)</text></g><g transform="translate(40,1684)"><rect x="0" y="0" width="720" height="120" fill="white" stroke="#888" stroke-width="0.5"/><text x="4" y="-4" font-size="11" font-family="sans-serif">perf_branch-misses:u</text><text x="2" y="10" font-size="8" fill="#444" font-family="sans-serif">1.66e+05</text><text x="2" y="118" font-size="8" fill="#444" font-family="sans-serif">1.66e+05</text><line x1="360.0" y1="0" x2="360.0" y2="120" stroke="#2ca02c" stroke-width="0.7" stroke-dasharray="3,2"/><polyline points="360.0,60.00" fill="none" stroke="#1f77b4" stroke-width="1.2"/><circle cx="360.0" cy="60.00" r="2" fill="#1f77b4"/><polygon points="360.0,47.0 355.0,57.0 365.0,57.0" fill="#2ca02c" stroke="black" stroke-width="0.5"/><text x="716" y="12" font-size="9" text-anchor="end" fill="#1f77b4" font-family="sans-serif">local.perf-stat.perf_branch-misses:u (lower=better)</text></g><g transform="translate(40,1822)"><rect x="0" y="0" width="720" height="120" fill="white" stroke="#888" stroke-width="0.5"/><text x="4" y="-4" font-size="11" font-family="sans-serif">perf_cache-misses:u</text><text x="2" y="10" font-size="8" fill="#444" font-family="sans-serif">7.34e+04</text><text x="2" y="118" font-size="8" fill="#444" font-family="sans-serif">7.34e+04</text><line x1="360.0" y1="0" x2="360.0" y2="120" stroke="#2ca02c" stroke-width="0.7" stroke-dasharray="3,2"/><polyline points="360.0,60.00" fill="none" stroke="#1f77b4" stroke-width="1.2"/><circle cx="360.0" cy="60.00" r="2" fill="#1f77b4"/><polygon points="360.0,47.0 355.0,57.0 365.0,57.0" fill="#2ca02c" stroke="black" stroke-width="0.5"/><text x="716" y="12" font-size="9" text-anchor="end" fill="#1f77b4" font-family="sans-serif">local.perf-stat.perf_cache-misses:u (lower=better)</text></g><g transform="translate(40,1960)"><rect x="0" y="0" width="720" height="120" fill="white" stroke="#888" stroke-width="0.5"/><text x="4" y="-4" font-size="11" font-family="sans-serif">perf_cycles:u</text><text x="2" y="10" font-size="8" fill="#444" font-family="sans-serif">2.33e+07</text><text x="2" y="118" font-size="8" fill="#444" font-family="sans-serif">2.33e+07</text><line x1="360.0" y1="0" x2="360.0" y2="120" stroke="#2ca02c" stroke-width="0.7" stroke-dasharray="3,2"/><polyline points="360.0,60.00" fill="none" stroke="#1f77b4" stroke-width="1.2"/><circle cx="360.0" cy="60.00" r="2" fill="#1f77b4"/><polygon points="360.0,47.0 355.0,57.0 365.0,57.0" fill="#2ca02c" stroke="black" stroke-width="0.5"/><text x="716" y="12" font-size="9" text-anchor="end" fill="#1f77b4" font-family="sans-serif">local.perf-stat.perf_cycles:u (lower=better)</text></g><g transform="translate(40,2098)"><rect x="0" y="0" width="720" height="120" fill="white" stroke="#888" stroke-width="0.5"/><text x="4" y="-4" font-size="11" font-family="sans-serif">perf_instructions:u</text><text x="2" y="10" font-size="8" fill="#444" font-family="sans-serif">5e+07</text><text x="2" y="118" font-size="8" fill="#444" font-family="sans-serif">5e+07</text><line x1="360.0" y1="0" x2="360.0" y2="120" stroke="#2ca02c" stroke-width="0.7" stroke-dasharray="3,2"/><polyline points="360.0,60.00" fill="none" stroke="#1f77b4" stroke-width="1.2"/><circle cx="360.0" cy="60.00" r="2" fill="#1f77b4"/><polygon points="360.0,47.0 355.0,57.0 365.0,57.0" fill="#2ca02c" stroke="black" stroke-width="0.5"/><text x="716" y="12" font-size="9" text-anchor="end" fill="#1f77b4" font-family="sans-serif">local.perf-stat.perf_instructions:u (lower=better)</text></g><g transform="translate(40,2236)"><rect x="0" y="0" width="720" height="120" fill="white" stroke="#888" stroke-width="0.5"/><text x="4" y="-4" font-size="11" font-family="sans-serif">sys_s</text><text x="2" y="10" font-size="8" fill="#444" font-family="sans-serif">1.16</text><text x="2" y="118" font-size="8" fill="#444" font-family="sans-serif">-1.16</text><line x1="360.0" y1="0" x2="360.0" y2="120" stroke="#2ca02c" stroke-width="0.7" stroke-dasharray="3,2"/><polyline points="360.0,60.00" fill="none" stroke="#1f77b4" stroke-width="1.2"/><circle cx="360.0" cy="60.00" r="2" fill="#1f77b4"/><polygon points="360.0,47.0 355.0,57.0 365.0,57.0" fill="#2ca02c" stroke="black" stroke-width="0.5"/><text x="716" y="12" font-size="9" text-anchor="end" fill="#1f77b4" font-family="sans-serif">local.rusage.default.sys_s (lower=better)</text><polyline points="360.0,60.00" fill="none" stroke="#ff7f0e" stroke-width="1.2"/><circle cx="360.0" cy="60.00" r="2" fill="#ff7f0e"/><polygon points="360.0,47.0 355.0,57.0 365.0,57.0" fill="#2ca02c" stroke="black" stroke-width="0.5"/><text x="716" y="23" font-size="9" text-anchor="end" fill="#ff7f0e" font-family="sans-serif">local.rusage.sys_s (lower=better)</text></g><g transform="translate(40,2374)"><rect x="0" y="0" width="720" height="120" fill="white" stroke="#888" stroke-width="0.5"/><text x="4" y="-4" font-size="11" font-family="sans-serif">user_s</text><text x="2" y="10" font-size="8" fill="#444" font-family="sans-serif">1.16</text><text x="2" y="118" font-size="8" fill="#444" font-family="sans-serif">-1.16</text><line x1="360.0" y1="0" x2="360.0" y2="120" stroke="#2ca02c" stroke-width="0.7" stroke-dasharray="3,2"/><polyline points="360.0,60.00" fill="none" stroke="#1f77b4" stroke-width="1.2"/><circle cx="360.0" cy="60.00" r="2" fill="#1f77b4"/><polygon points="360.0,47.0 355.0,57.0 365.0,57.0" fill="#2ca02c" stroke="black" stroke-width="0.5"/><text x="716" y="12" font-size="9" text-anchor="end" fill="#1f77b4" font-family="sans-serif">local.rusage.default.user_s (lower=better)</text><polyline points="360.0,60.00" fill="none" stroke="#ff7f0e" stroke-width="1.2"/><circle cx="360.0" cy="60.00" r="2" fill="#ff7f0e"/><polygon points="360.0,47.0 355.0,57.0 365.0,57.0" fill="#2ca02c" stroke="black" stroke-width="0.5"/><text x="716" y="23" font-size="9" text-anchor="end" fill="#ff7f0e" font-family="sans-serif">local.rusage.user_s (lower=better)</text></g><g transform="translate(40,2512)"><rect x="0" y="0" width="720" height="120" fill="white" stroke="#888" stroke-width="0.5"/><text x="4" y="-4" font-size="11" font-family="sans-serif">wall_s</text><text x="2" y="10" font-size="8" fill="#444" font-family="sans-serif">0.528</text><text x="2" y="118" font-size="8" fill="#444" font-family="sans-serif">-0.0284</text><line x1="360.0" y1="0" x2="360.0" y2="120" stroke="#2ca02c" stroke-width="0.7" stroke-dasharray="3,2"/><polyline points="360.0,77.78" fill="none" stroke="#1f77b4" stroke-width="1.2"/><circle cx="360.0" cy="77.78" r="2" fill="#1f77b4"/><polygon points="360.0,64.7801724137931 355.0,74.7801724137931 365.0,74.7801724137931" fill="#2ca02c" stroke="black" stroke-width="0.5"/><text x="716" y="12" font-size="9" text-anchor="end" fill="#1f77b4" font-family="sans-serif">atom-n455.rusage.default.wall_s (lower=better)</text><polyline points="360.0,77.78" fill="none" stroke="#ff7f0e" stroke-width="1.2"/><circle cx="360.0" cy="77.78" r="2" fill="#ff7f0e"/><polygon points="360.0,64.7801724137931 355.0,74.7801724137931 365.0,74.7801724137931" fill="#2ca02c" stroke="black" stroke-width="0.5"/><text x="716" y="23" font-size="9" text-anchor="end" fill="#ff7f0e" font-family="sans-serif">atom-n455.rusage.wall_s (lower=better)</text><polyline points="360.0,56.05" fill="none" stroke="#2ca02c" stroke-width="1.2"/><circle cx="360.0" cy="56.05" r="2" fill="#2ca02c"/><polygon points="360.0,43.04885057471264 355.0,53.04885057471264 365.0,53.04885057471264" fill="#2ca02c" stroke="black" stroke-width="0.5"/><text x="716" y="34" font-size="9" text-anchor="end" fill="#2ca02c" font-family="sans-serif">cb2.rusage.default.wall_s (lower=better)</text><polyline points="360.0,56.05" fill="none" stroke="#d62728" stroke-width="1.2"/><circle cx="360.0" cy="56.05" r="2" fill="#d62728"/><polygon points="360.0,43.04885057471264 355.0,53.04885057471264 365.0,53.04885057471264" fill="#2ca02c" stroke="black" stroke-width="0.5"/><text x="716" y="45" font-size="9" text-anchor="end" fill="#d62728" font-family="sans-serif">cb2.rusage.wall_s (lower=better)</text><polyline points="360.0,107.41" fill="none" stroke="#9467bd" stroke-width="1.2"/><circle cx="360.0" cy="107.41" r="2" fill="#9467bd"/><polygon points="360.0,94.41379310344827 355.0,104.41379310344827 365.0,104.41379310344827" fill="#2ca02c" stroke="black" stroke-width="0.5"/><text x="716" y="56" font-size="9" text-anchor="end" fill="#9467bd" font-family="sans-serif">local.rusage.default.wall_s (lower=better)</text><polyline points="360.0,107.41" fill="none" stroke="#8c564b" stroke-width="1.2"/><circle cx="360.0" cy="107.41" r="2" fill="#8c564b"/><polygon points="360.0,94.41379310344827 355.0,104.41379310344827 365.0,104.41379310344827" fill="#2ca02c" stroke="black" stroke-width="0.5"/><text x="716" y="67" font-size="9" text-anchor="end" fill="#8c564b" font-family="sans-serif">local.rusage.wall_s (lower=better)</text><polyline points="360.0,85.68" fill="none" stroke="#e377c2" stroke-width="1.2"/><circle cx="360.0" cy="85.68" r="2" fill="#e377c2"/><polygon points="360.0,72.68247126436782 355.0,82.68247126436782 365.0,82.68247126436782" fill="#2ca02c" stroke="black" stroke-width="0.5"/><text x="716" y="78" font-size="9" text-anchor="end" fill="#e377c2" font-family="sans-serif">odroid-c2.rusage.default.wall_s (lower=better)</text><polyline points="360.0,85.68" fill="none" stroke="#7f7f7f" stroke-width="1.2"/><circle cx="360.0" cy="85.68" r="2" fill="#7f7f7f"/><polygon points="360.0,72.68247126436782 355.0,82.68247126436782 365.0,82.68247126436782" fill="#2ca02c" stroke="black" stroke-width="0.5"/><text x="716" y="89" font-size="9" text-anchor="end" fill="#7f7f7f" font-family="sans-serif">odroid-c2.rusage.wall_s (lower=better)</text><polyline points="360.0,101.49" fill="none" stroke="#bcbd22" stroke-width="1.2"/><circle cx="360.0" cy="101.49" r="2" fill="#bcbd22"/><polygon points="360.0,88.48706896551724 355.0,98.48706896551724 365.0,98.48706896551724" fill="#2ca02c" stroke="black" stroke-width="0.5"/><text x="716" y="100" font-size="9" text-anchor="end" fill="#bcbd22" font-family="sans-serif">odroid-n2.rusage.default.wall_s (lower=better)</text><polyline points="360.0,101.49" fill="none" stroke="#17becf" stroke-width="1.2"/><circle cx="360.0" cy="101.49" r="2" fill="#17becf"/><polygon points="360.0,88.48706896551724 355.0,98.48706896551724 365.0,98.48706896551724" fill="#2ca02c" stroke="black" stroke-width="0.5"/><text x="716" y="111" font-size="9" text-anchor="end" fill="#17becf" font-family="sans-serif">odroid-n2.rusage.wall_s (lower=better)</text><polyline points="360.0,91.61" fill="none" stroke="#1f77b4" stroke-width="1.2"/><circle cx="360.0" cy="91.61" r="2" fill="#1f77b4"/><polygon points="360.0,78.60919540229885 355.0,88.60919540229885 365.0,88.60919540229885" fill="#2ca02c" stroke="black" stroke-width="0.5"/><text x="716" y="122" font-size="9" text-anchor="end" fill="#1f77b4" font-family="sans-serif">pentium-m.rusage.default.wall_s (lower=better)</text><polyline points="360.0,91.61" fill="none" stroke="#ff7f0e" stroke-width="1.2"/><circle cx="360.0" cy="91.61" r="2" fill="#ff7f0e"/><polygon points="360.0,78.60919540229885 355.0,88.60919540229885 365.0,88.60919540229885" fill="#2ca02c" stroke="black" stroke-width="0.5"/><text x="716" y="133" font-size="9" text-anchor="end" fill="#ff7f0e" font-family="sans-serif">pentium-m.rusage.wall_s (lower=better)</text><polyline points="360.0,40.24" fill="none" stroke="#2ca02c" stroke-width="1.2"/><circle cx="360.0" cy="40.24" r="2" fill="#2ca02c"/><polygon points="360.0,27.244252873563212 355.0,37.24425287356321 365.0,37.24425287356321" fill="#2ca02c" stroke="black" stroke-width="0.5"/><text x="716" y="144" font-size="9" text-anchor="end" fill="#2ca02c" font-family="sans-serif">pentium3.rusage.default.wall_s (lower=better)</text><polyline points="360.0,40.24" fill="none" stroke="#d62728" stroke-width="1.2"/><circle cx="360.0" cy="40.24" r="2" fill="#d62728"/><polygon points="360.0,27.244252873563212 355.0,37.24425287356321 365.0,37.24425287356321" fill="#2ca02c" stroke="black" stroke-width="0.5"/><text x="716" y="155" font-size="9" text-anchor="end" fill="#d62728" font-family="sans-serif">pentium3.rusage.wall_s (lower=better)</text><polyline points="360.0,12.59" fill="none" stroke="#9467bd" stroke-width="1.2"/><circle cx="360.0" cy="12.59" r="2" fill="#9467bd"/><polygon points="360.0,-0.41379310344827047 355.0,9.58620689655173 365.0,9.58620689655173" fill="#2ca02c" stroke="black" stroke-width="0.5"/><text x="716" y="166" font-size="9" text-anchor="end" fill="#9467bd" font-family="sans-serif">rpi-zero-w.rusage.default.wall_s (lower=better)</text><polyline points="360.0,12.59" fill="none" stroke="#8c564b" stroke-width="1.2"/><circle cx="360.0" cy="12.59" r="2" fill="#8c564b"/><polygon points="360.0,-0.41379310344827047 355.0,9.58620689655173 365.0,9.58620689655173" fill="#2ca02c" stroke="black" stroke-width="0.5"/><text x="716" y="177" font-size="9" text-anchor="end" fill="#8c564b" font-family="sans-serif">rpi-zero-w.rusage.wall_s (lower=better)</text><polyline points="360.0,67.90" fill="none" stroke="#e377c2" stroke-width="1.2"/><circle cx="360.0" cy="67.90" r="2" fill="#e377c2"/><polygon points="360.0,54.90229885057471 355.0,64.90229885057471 365.0,64.90229885057471" fill="#2ca02c" stroke="black" stroke-width="0.5"/><text x="716" y="188" font-size="9" text-anchor="end" fill="#e377c2" font-family="sans-serif">rpi3.rusage.default.wall_s (lower=better)</text><polyline points="360.0,67.90" fill="none" stroke="#7f7f7f" stroke-width="1.2"/><circle cx="360.0" cy="67.90" r="2" fill="#7f7f7f"/><polygon points="360.0,54.90229885057471 355.0,64.90229885057471 365.0,64.90229885057471" fill="#2ca02c" stroke="black" stroke-width="0.5"/><text x="716" y="199" font-size="9" text-anchor="end" fill="#7f7f7f" font-family="sans-serif">rpi3.rusage.wall_s (lower=better)</text><polyline points="360.0,97.54" fill="none" stroke="#bcbd22" stroke-width="1.2"/><circle cx="360.0" cy="97.54" r="2" fill="#bcbd22"/><polygon points="360.0,84.53591954022988 355.0,94.53591954022988 365.0,94.53591954022988" fill="#2ca02c" stroke="black" stroke-width="0.5"/><text x="716" y="210" font-size="9" text-anchor="end" fill="#bcbd22" font-family="sans-serif">rpi4.rusage.default.wall_s (lower=better)</text><polyline points="360.0,97.54" fill="none" stroke="#17becf" stroke-width="1.2"/><circle cx="360.0" cy="97.54" r="2" fill="#17becf"/><polygon points="360.0,84.53591954022988 355.0,94.53591954022988 365.0,94.53591954022988" fill="#2ca02c" stroke="black" stroke-width="0.5"/><text x="716" y="221" font-size="9" text-anchor="end" fill="#17becf" font-family="sans-serif">rpi4.rusage.wall_s (lower=better)</text></g><g transform="translate(40,2650)"><text x="360.0" y="10" font-size="8" fill="#2ca02c" text-anchor="middle" font-family="monospace" transform="rotate(45 360.0 10)">edca85f</text></g><g transform="translate(540,2686)"><text x="0" y="0" font-size="9" font-family="sans-serif">decisions:</text><polygon points="60,-9 55,1 65,1" fill="#2ca02c" stroke="black" stroke-width="0.5"/><text x="68" y="0" font-size="9" font-family="sans-serif">KEEP</text><polygon points="125,1 120,-9 130,-9" fill="#d62728" stroke="black" stroke-width="0.5"/><text x="133" y="0" font-size="9" font-family="sans-serif">DISCARD</text><polygon points="190,-9 195,-4 190,1 185,-4" fill="#dca100" stroke="black" stroke-width="0.5"/><text x="198" y="0" font-size="9" font-family="sans-serif">ESCALATE</text></g></svg>
