<?xml version="1.0" encoding="UTF-8"?>
<svg xmlns="http://www.w3.org/2000/svg" version="1.1" width="780" height="768" viewBox="0 0 780 768"><text x="40" y="18" font-size="13" font-family="sans-serif" font-weight="bold">benchmarkserversave -- lxc-armv6-debian-13-armv6/rpi-zero-w (armv6-compatible-processor-rev-7-v6l, armv6, n=6)</text><g transform="translate(40,28)"><rect x="0" y="0" width="720" height="120" fill="white" stroke="#888" stroke-width="0.5"/><text x="4" y="-4" font-size="11" font-family="sans-serif">branch-misses</text><text x="2" y="10" font-size="8" fill="#444" font-family="sans-serif">1.37e+06</text><text x="2" y="118" font-size="8" fill="#444" font-family="sans-serif">1.37e+06</text><line x1="10.0" y1="0" x2="10.0" y2="120" stroke="#2ca02c" stroke-width="0.7" stroke-dasharray="3,2"/><polyline points="10.0,56.76 150.0,92.67 290.0,85.14 430.0,12.59 570.0,107.41 710.0,20.06" fill="none" stroke="#1f77b4" stroke-width="1.2"/><circle cx="10.0" cy="56.76" r="2" fill="#1f77b4"/><polygon points="10.0,43.75864688240767 5.0,53.75864688240767 15.0,53.75864688240767" fill="#2ca02c" stroke="black" stroke-width="0.5"/><circle cx="150.0" cy="92.67" r="2" fill="#1f77b4"/><polygon points="150.0,79.66563641840273 155.0,84.66563641840273 150.0,89.66563641840273 145.0,84.66563641840273" fill="#dca100" stroke="black" stroke-width="0.5"/><circle cx="290.0" cy="85.14" r="2" fill="#1f77b4"/><circle cx="430.0" cy="12.59" r="2" fill="#1f77b4"/><polygon points="430.0,-0.41379310344784415 435.0,4.586206896552156 430.0,9.586206896552156 425.0,4.586206896552156" fill="#dca100" stroke="black" stroke-width="0.5"/><circle cx="570.0" cy="107.41" r="2" fill="#1f77b4"/><polygon points="570.0,94.41379310344784 575.0,99.41379310344784 570.0,104.41379310344784 565.0,99.41379310344784" fill="#dca100" stroke="black" stroke-width="0.5"/><circle cx="710.0" cy="20.06" r="2" fill="#1f77b4"/><polygon points="710.0,7.059326584334485 715.0,12.059326584334485 710.0,17.059326584334485 705.0,12.059326584334485" fill="#dca100" stroke="black" stroke-width="0.5"/><text x="716" y="12" font-size="9" text-anchor="end" fill="#1f77b4" font-family="sans-serif">perf-stat.branch-misses (lower=better)</text></g><g transform="translate(40,166)"><rect x="0" y="0" width="720" height="120" fill="white" stroke="#888" stroke-width="0.5"/><text x="4" y="-4" font-size="11" font-family="sans-serif">cycles</text><text x="2" y="10" font-size="8" fill="#444" font-family="sans-serif">3.92e+08</text><text x="2" y="118" font-size="8" fill="#444" font-family="sans-serif">3.82e+08</text><line x1="10.0" y1="0" x2="10.0" y2="120" stroke="#2ca02c" stroke-width="0.7" stroke-dasharray="3,2"/><polyline points="10.0,77.80 150.0,46.42 290.0,74.55 430.0,107.41 570.0,37.59 710.0,12.59" fill="none" stroke="#1f77b4" stroke-width="1.2"/><circle cx="10.0" cy="77.80" r="2" fill="#1f77b4"/><polygon points="10.0,64.79591781077536 5.0,74.79591781077536 15.0,74.79591781077536" fill="#2ca02c" stroke="black" stroke-width="0.5"/><circle cx="150.0" cy="46.42" r="2" fill="#1f77b4"/><polygon points="150.0,33.417978194187015 155.0,38.417978194187015 150.0,43.417978194187015 145.0,38.417978194187015" fill="#dca100" stroke="black" stroke-width="0.5"/><circle cx="290.0" cy="74.55" r="2" fill="#1f77b4"/><circle cx="430.0" cy="107.41" r="2" fill="#1f77b4"/><polygon points="430.0,94.41379310344814 435.0,99.41379310344814 430.0,104.41379310344814 425.0,99.41379310344814" fill="#dca100" stroke="black" stroke-width="0.5"/><circle cx="570.0" cy="37.59" r="2" fill="#1f77b4"/><polygon points="570.0,24.592225040238702 575.0,29.592225040238702 570.0,34.5922250402387 565.0,29.592225040238702" fill="#dca100" stroke="black" stroke-width="0.5"/><circle cx="710.0" cy="12.59" r="2" fill="#1f77b4"/><polygon points="710.0,-0.4137931034481568 715.0,4.586206896551843 710.0,9.586206896551843 705.0,4.586206896551843" fill="#dca100" stroke="black" stroke-width="0.5"/><text x="716" y="12" font-size="9" text-anchor="end" fill="#1f77b4" font-family="sans-serif">perf-stat.cycles (lower=better)</text></g><g transform="translate(40,304)"><rect x="0" y="0" width="720" height="120" fill="white" stroke="#888" stroke-width="0.5"/><text x="4" y="-4" font-size="11" font-family="sans-serif">instructions</text><text x="2" y="10" font-size="8" fill="#444" font-family="sans-serif">1.05e+08</text><text x="2" y="118" font-size="8" fill="#444" font-family="sans-serif">1.05e+08</text><line x1="10.0" y1="0" x2="10.0" y2="120" stroke="#2ca02c" stroke-width="0.7" stroke-dasharray="3,2"/><polyline points="10.0,56.75 150.0,107.41 290.0,85.90 430.0,12.59 570.0,101.62 710.0,21.23" fill="none" stroke="#1f77b4" stroke-width="1.2"/><circle cx="10.0" cy="56.75" r="2" fill="#1f77b4"/><polygon points="10.0,43.748441899078436 5.0,53.748441899078436 15.0,53.748441899078436" fill="#2ca02c" stroke="black" stroke-width="0.5"/><circle cx="150.0" cy="107.41" r="2" fill="#1f77b4"/><polygon points="150.0,94.41379310344739 155.0,99.41379310344739 150.0,104.41379310344739 145.0,99.41379310344739" fill="#dca100" stroke="black" stroke-width="0.5"/><circle cx="290.0" cy="85.90" r="2" fill="#1f77b4"/><circle cx="430.0" cy="12.59" r="2" fill="#1f77b4"/><polygon points="430.0,-0.4137931034473894 435.0,4.586206896552611 430.0,9.58620689655261 425.0,4.586206896552611" fill="#dca100" stroke="black" stroke-width="0.5"/><circle cx="570.0" cy="101.62" r="2" fill="#1f77b4"/><polygon points="570.0,88.61839676313694 575.0,93.61839676313694 570.0,98.61839676313694 565.0,93.61839676313694" fill="#dca100" stroke="black" stroke-width="0.5"/><circle cx="710.0" cy="21.23" r="2" fill="#1f77b4"/><polygon points="710.0,8.225803457558158 715.0,13.225803457558158 710.0,18.225803457558158 705.0,13.225803457558158" fill="#dca100" stroke="black" stroke-width="0.5"/><text x="716" y="12" font-size="9" text-anchor="end" fill="#1f77b4" font-family="sans-serif">perf-stat.instructions (lower=better)</text></g><g transform="translate(40,442)"><rect x="0" y="0" width="720" height="120" fill="white" stroke="#888" stroke-width="0.5"/><text x="4" y="-4" font-size="11" font-family="sans-serif">max_rss_kb</text><text x="2" y="10" font-size="8" fill="#444" font-family="sans-serif">6.62e+03</text><text x="2" y="118" font-size="8" fill="#444" font-family="sans-serif">6.61e+03</text><line x1="10.0" y1="0" x2="10.0" y2="120" stroke="#2ca02c" stroke-width="0.7" stroke-dasharray="3,2"/><polyline points="10.0,60.00 150.0,60.00 290.0,60.00 430.0,60.00 570.0,60.00 710.0,60.00" fill="none" stroke="#1f77b4" stroke-width="1.2"/><circle cx="10.0" cy="60.00" r="2" fill="#1f77b4"/><polygon points="10.0,47.0 5.0,57.0 15.0,57.0" fill="#2ca02c" stroke="black" stroke-width="0.5"/><circle cx="150.0" cy="60.00" r="2" fill="#1f77b4"/><polygon points="150.0,47.0 155.0,52.0 150.0,57.0 145.0,52.0" fill="#dca100" stroke="black" stroke-width="0.5"/><circle cx="290.0" cy="60.00" r="2" fill="#1f77b4"/><circle cx="430.0" cy="60.00" r="2" fill="#1f77b4"/><polygon points="430.0,47.0 435.0,52.0 430.0,57.0 425.0,52.0" fill="#dca100" stroke="black" stroke-width="0.5"/><circle cx="570.0" cy="60.00" r="2" fill="#1f77b4"/><polygon points="570.0,47.0 575.0,52.0 570.0,57.0 565.0,52.0" fill="#dca100" stroke="black" stroke-width="0.5"/><circle cx="710.0" cy="60.00" r="2" fill="#1f77b4"/><polygon points="710.0,47.0 715.0,52.0 710.0,57.0 705.0,52.0" fill="#dca100" stroke="black" stroke-width="0.5"/><text x="716" y="12" font-size="9" text-anchor="end" fill="#1f77b4" font-family="sans-serif">rusage.default.max_rss_kb (lower=better)</text><polyline points="10.0,60.00 150.0,60.00 290.0,60.00 430.0,60.00 570.0,60.00 710.0,60.00" fill="none" stroke="#ff7f0e" stroke-width="1.2"/><circle cx="10.0" cy="60.00" r="2" fill="#ff7f0e"/><polygon points="10.0,47.0 5.0,57.0 15.0,57.0" fill="#2ca02c" stroke="black" stroke-width="0.5"/><circle cx="150.0" cy="60.00" r="2" fill="#ff7f0e"/><polygon points="150.0,47.0 155.0,52.0 150.0,57.0 145.0,52.0" fill="#dca100" stroke="black" stroke-width="0.5"/><circle cx="290.0" cy="60.00" r="2" fill="#ff7f0e"/><circle cx="430.0" cy="60.00" r="2" fill="#ff7f0e"/><polygon points="430.0,47.0 435.0,52.0 430.0,57.0 425.0,52.0" fill="#dca100" stroke="black" stroke-width="0.5"/><circle cx="570.0" cy="60.00" r="2" fill="#ff7f0e"/><polygon points="570.0,47.0 575.0,52.0 570.0,57.0 565.0,52.0" fill="#dca100" stroke="black" stroke-width="0.5"/><circle cx="710.0" cy="60.00" r="2" fill="#ff7f0e"/><polygon points="710.0,47.0 715.0,52.0 710.0,57.0 705.0,52.0" fill="#dca100" stroke="black" stroke-width="0.5"/><text x="716" y="23" font-size="9" text-anchor="end" fill="#ff7f0e" font-family="sans-serif">rusage.max_rss_kb (lower=better)</text></g><g transform="translate(40,580)"><rect x="0" y="0" width="720" height="120" fill="white" stroke="#888" stroke-width="0.5"/><text x="4" y="-4" font-size="11" font-family="sans-serif">wall_s</text><text x="2" y="10" font-size="8" fill="#444" font-family="sans-serif">0.612</text><text x="2" y="118" font-size="8" fill="#444" font-family="sans-serif">0.438</text><line x1="10.0" y1="0" x2="10.0" y2="120" stroke="#2ca02c" stroke-width="0.7" stroke-dasharray="3,2"/><polyline points="10.0,94.77 150.0,94.77 290.0,94.77 430.0,82.13 570.0,107.41 710.0,12.59" fill="none" stroke="#1f77b4" stroke-width="1.2"/><circle cx="10.0" cy="94.77" r="2" fill="#1f77b4"/><polygon points="10.0,81.77011494252875 5.0,91.77011494252875 15.0,91.77011494252875" fill="#2ca02c" stroke="black" stroke-width="0.5"/><circle cx="150.0" cy="94.77" r="2" fill="#1f77b4"/><polygon points="150.0,81.77011494252875 155.0,86.77011494252875 150.0,91.77011494252875 145.0,86.77011494252875" fill="#dca100" stroke="black" stroke-width="0.5"/><circle cx="290.0" cy="94.77" r="2" fill="#1f77b4"/><circle cx="430.0" cy="82.13" r="2" fill="#1f77b4"/><polygon points="430.0,69.1264367816092 435.0,74.1264367816092 430.0,79.1264367816092 425.0,74.1264367816092" fill="#dca100" stroke="black" stroke-width="0.5"/><circle cx="570.0" cy="107.41" r="2" fill="#1f77b4"/><polygon points="570.0,94.41379310344827 575.0,99.41379310344827 570.0,104.41379310344827 565.0,99.41379310344827" fill="#dca100" stroke="black" stroke-width="0.5"/><circle cx="710.0" cy="12.59" r="2" fill="#1f77b4"/><polygon points="710.0,-0.41379310344827047 715.0,4.5862068965517295 710.0,9.58620689655173 705.0,4.5862068965517295" fill="#dca100" stroke="black" stroke-width="0.5"/><text x="716" y="12" font-size="9" text-anchor="end" fill="#1f77b4" font-family="sans-serif">rusage.default.wall_s (lower=better)</text><polyline points="10.0,94.77 150.0,94.77 290.0,94.77 430.0,82.13 570.0,107.41 710.0,12.59" fill="none" stroke="#ff7f0e" stroke-width="1.2"/><circle cx="10.0" cy="94.77" r="2" fill="#ff7f0e"/><polygon points="10.0,81.77011494252875 5.0,91.77011494252875 15.0,91.77011494252875" fill="#2ca02c" stroke="black" stroke-width="0.5"/><circle cx="150.0" cy="94.77" r="2" fill="#ff7f0e"/><polygon points="150.0,81.77011494252875 155.0,86.77011494252875 150.0,91.77011494252875 145.0,86.77011494252875" fill="#dca100" stroke="black" stroke-width="0.5"/><circle cx="290.0" cy="94.77" r="2" fill="#ff7f0e"/><circle cx="430.0" cy="82.13" r="2" fill="#ff7f0e"/><polygon points="430.0,69.1264367816092 435.0,74.1264367816092 430.0,79.1264367816092 425.0,74.1264367816092" fill="#dca100" stroke="black" stroke-width="0.5"/><circle cx="570.0" cy="107.41" r="2" fill="#ff7f0e"/><polygon points="570.0,94.41379310344827 575.0,99.41379310344827 570.0,104.41379310344827 565.0,99.41379310344827" fill="#dca100" stroke="black" stroke-width="0.5"/><circle cx="710.0" cy="12.59" r="2" fill="#ff7f0e"/><polygon points="710.0,-0.41379310344827047 715.0,4.5862068965517295 710.0,9.58620689655173 705.0,4.5862068965517295" fill="#dca100" stroke="black" stroke-width="0.5"/><text x="716" y="23" font-size="9" text-anchor="end" fill="#ff7f0e" font-family="sans-serif">rusage.wall_s (lower=better)</text></g><g transform="translate(40,718)"><text x="10.0" y="10" font-size="8" fill="#2ca02c" text-anchor="middle" font-family="monospace" transform="rotate(45 10.0 10)">3d5154e</text><text x="150.0" y="10" font-size="8" fill="#222" text-anchor="middle" font-family="monospace" transform="rotate(45 150.0 10)">3d5154e</text><text x="290.0" y="10" font-size="8" fill="#222" text-anchor="middle" font-family="monospace" transform="rotate(45 290.0 10)">3d5154e</text><text x="430.0" y="10" font-size="8" fill="#222" text-anchor="middle" font-family="monospace" transform="rotate(45 430.0 10)">3d5154e</text><text x="570.0" y="10" font-size="8" fill="#222" text-anchor="middle" font-family="monospace" transform="rotate(45 570.0 10)">3d5154e</text><text x="710.0" y="10" font-size="8" fill="#222" text-anchor="middle" font-family="monospace" transform="rotate(45 710.0 10)">3d5154e</text></g><g transform="translate(540,754)"><text x="0" y="0" font-size="9" font-family="sans-serif">decisions:</text><polygon points="60,-9 55,1 65,1" fill="#2ca02c" stroke="black" stroke-width="0.5"/><text x="68" y="0" font-size="9" font-family="sans-serif">KEEP</text><polygon points="125,1 120,-9 130,-9" fill="#d62728" stroke="black" stroke-width="0.5"/><text x="133" y="0" font-size="9" font-family="sans-serif">DISCARD</text><polygon points="190,-9 195,-4 190,1 185,-4" fill="#dca100" stroke="black" stroke-width="0.5"/><text x="198" y="0" font-size="9" font-family="sans-serif">ESCALATE</text></g></svg>
