<?xml version="1.0" encoding="UTF-8"?>
<svg xmlns="http://www.w3.org/2000/svg" version="1.1" width="780" height="768" viewBox="0 0 780 768"><text x="40" y="18" font-size="13" font-family="sans-serif" font-weight="bold">benchmarkserversave -- lxc-armv6-debian-13-armv6/rpi-zero-w (armv6-compatible-processor-rev-7-v6l, armv6, n=9)</text><g transform="translate(40,28)"><rect x="0" y="0" width="720" height="120" fill="white" stroke="#888" stroke-width="0.5"/><text x="4" y="-4" font-size="11" font-family="sans-serif">branch-misses</text><text x="2" y="10" font-size="8" fill="#444" font-family="sans-serif">1.49e+06</text><text x="2" y="118" font-size="8" fill="#444" font-family="sans-serif">1.48e+06</text><line x1="10.0" y1="0" x2="10.0" y2="120" stroke="#2ca02c" stroke-width="0.7" stroke-dasharray="3,2"/><polyline points="10.0,14.71 97.5,57.28 185.0,12.59 272.5,65.71 447.5,107.41 622.5,101.97 710.0,64.22" fill="none" stroke="#1f77b4" stroke-width="1.2"/><circle cx="10.0" cy="14.71" r="2" fill="#1f77b4"/><polygon points="10.0,1.7101449275367884 5.0,11.710144927536788 15.0,11.710144927536788" fill="#2ca02c" stroke="black" stroke-width="0.5"/><circle cx="97.5" cy="57.28" r="2" fill="#1f77b4"/><polygon points="97.5,44.27814664096527 102.5,49.27814664096527 97.5,54.27814664096527 92.5,49.27814664096527" fill="#dca100" stroke="black" stroke-width="0.5"/><circle cx="185.0" cy="12.59" r="2" fill="#1f77b4"/><polygon points="185.0,-0.41379310344770204 190.0,4.586206896552298 185.0,9.586206896552298 180.0,4.586206896552298" fill="#dca100" stroke="black" stroke-width="0.5"/><circle cx="272.5" cy="65.71" r="2" fill="#1f77b4"/><polygon points="272.5,52.711429999286 277.5,57.711429999286 272.5,62.711429999286 267.5,57.711429999286" fill="#dca100" stroke="black" stroke-width="0.5"/><circle cx="447.5" cy="107.41" r="2" fill="#1f77b4"/><polygon points="447.5,94.4137931034477 452.5,99.4137931034477 447.5,104.4137931034477 442.5,99.4137931034477" fill="#dca100" stroke="black" stroke-width="0.5"/><circle cx="622.5" cy="101.97" r="2" fill="#1f77b4"/><polygon points="622.5,88.97008638537824 627.5,93.97008638537824 622.5,98.97008638537824 617.5,93.97008638537824" fill="#dca100" stroke="black" stroke-width="0.5"/><circle cx="710.0" cy="64.22" r="2" fill="#1f77b4"/><polygon points="710.0,51.221103733847315 715.0,56.221103733847315 710.0,61.221103733847315 705.0,56.221103733847315" fill="#dca100" stroke="black" stroke-width="0.5"/><text x="716" y="12" font-size="9" text-anchor="end" fill="#1f77b4" font-family="sans-serif">perf-stat.branch-misses (lower=better)</text></g><g transform="translate(40,166)"><rect x="0" y="0" width="720" height="120" fill="white" stroke="#888" stroke-width="0.5"/><text x="4" y="-4" font-size="11" font-family="sans-serif">cycles</text><text x="2" y="10" font-size="8" fill="#444" font-family="sans-serif">4.13e+08</text><text x="2" y="118" font-size="8" fill="#444" font-family="sans-serif">4.01e+08</text><line x1="10.0" y1="0" x2="10.0" y2="120" stroke="#2ca02c" stroke-width="0.7" stroke-dasharray="3,2"/><polyline points="10.0,24.47 97.5,101.37 185.0,105.66 272.5,77.95 447.5,107.41 622.5,50.50 710.0,12.59" fill="none" stroke="#1f77b4" stroke-width="1.2"/><circle cx="10.0" cy="24.47" r="2" fill="#1f77b4"/><polygon points="10.0,11.469786488911268 5.0,21.469786488911268 15.0,21.469786488911268" fill="#2ca02c" stroke="black" stroke-width="0.5"/><circle cx="97.5" cy="101.37" r="2" fill="#1f77b4"/><polygon points="97.5,88.36710570870832 102.5,93.36710570870832 97.5,98.36710570870832 92.5,93.36710570870832" fill="#dca100" stroke="black" stroke-width="0.5"/><circle cx="185.0" cy="105.66" r="2" fill="#1f77b4"/><polygon points="185.0,92.6556943800698 190.0,97.6556943800698 185.0,102.6556943800698 180.0,97.6556943800698" fill="#dca100" stroke="black" stroke-width="0.5"/><circle cx="272.5" cy="77.95" r="2" fill="#1f77b4"/><polygon points="272.5,64.95419829686341 277.5,69.95419829686341 272.5,74.95419829686341 267.5,69.95419829686341" fill="#dca100" stroke="black" stroke-width="0.5"/><circle cx="447.5" cy="107.41" r="2" fill="#1f77b4"/><polygon points="447.5,94.41379310344843 452.5,99.41379310344843 447.5,104.41379310344843 442.5,99.41379310344843" fill="#dca100" stroke="black" stroke-width="0.5"/><circle cx="622.5" cy="50.50" r="2" fill="#1f77b4"/><polygon points="622.5,37.49700581419799 627.5,42.49700581419799 622.5,47.49700581419799 617.5,42.49700581419799" fill="#dca100" stroke="black" stroke-width="0.5"/><circle cx="710.0" cy="12.59" r="2" fill="#1f77b4"/><polygon points="710.0,-0.4137931034484268 715.0,4.586206896551573 710.0,9.586206896551573 705.0,4.586206896551573" fill="#dca100" stroke="black" stroke-width="0.5"/><text x="716" y="12" font-size="9" text-anchor="end" fill="#1f77b4" font-family="sans-serif">perf-stat.cycles (lower=better)</text></g><g transform="translate(40,304)"><rect x="0" y="0" width="720" height="120" fill="white" stroke="#888" stroke-width="0.5"/><text x="4" y="-4" font-size="11" font-family="sans-serif">instructions</text><text x="2" y="10" font-size="8" fill="#444" font-family="sans-serif">1.1e+08</text><text x="2" y="118" font-size="8" fill="#444" font-family="sans-serif">1.09e+08</text><line x1="10.0" y1="0" x2="10.0" y2="120" stroke="#2ca02c" stroke-width="0.7" stroke-dasharray="3,2"/><polyline points="10.0,32.27 97.5,64.00 185.0,12.59 272.5,68.99 447.5,104.52 622.5,107.41 710.0,67.72" fill="none" stroke="#1f77b4" stroke-width="1.2"/><circle cx="10.0" cy="32.27" r="2" fill="#1f77b4"/><polygon points="10.0,19.270153131819697 5.0,29.270153131819697 15.0,29.270153131819697" fill="#2ca02c" stroke="black" stroke-width="0.5"/><circle cx="97.5" cy="64.00" r="2" fill="#1f77b4"/><polygon points="97.5,51.003604425841246 102.5,56.003604425841246 97.5,61.003604425841246 92.5,56.003604425841246" fill="#dca100" stroke="black" stroke-width="0.5"/><circle cx="185.0" cy="12.59" r="2" fill="#1f77b4"/><polygon points="185.0,-0.41379310344758835 190.0,4.586206896552412 185.0,9.586206896552412 180.0,4.586206896552412" fill="#dca100" stroke="black" stroke-width="0.5"/><circle cx="272.5" cy="68.99" r="2" fill="#1f77b4"/><polygon points="272.5,55.99042228672313 277.5,60.99042228672313 272.5,65.99042228672313 267.5,60.99042228672313" fill="#dca100" stroke="black" stroke-width="0.5"/><circle cx="447.5" cy="104.52" r="2" fill="#1f77b4"/><polygon points="447.5,91.52207992222506 452.5,96.52207992222506 447.5,101.52207992222506 442.5,96.52207992222506" fill="#dca100" stroke="black" stroke-width="0.5"/><circle cx="622.5" cy="107.41" r="2" fill="#1f77b4"/><polygon points="622.5,94.41379310344759 627.5,99.41379310344759 622.5,104.41379310344759 617.5,99.41379310344759" fill="#dca100" stroke="black" stroke-width="0.5"/><circle cx="710.0" cy="67.72" r="2" fill="#1f77b4"/><polygon points="710.0,54.716246656828986 715.0,59.716246656828986 710.0,64.71624665682899 705.0,59.716246656828986" fill="#dca100" stroke="black" stroke-width="0.5"/><text x="716" y="12" font-size="9" text-anchor="end" fill="#1f77b4" font-family="sans-serif">perf-stat.instructions (lower=better)</text></g><g transform="translate(40,442)"><rect x="0" y="0" width="720" height="120" fill="white" stroke="#888" stroke-width="0.5"/><text x="4" y="-4" font-size="11" font-family="sans-serif">max_rss_kb</text><text x="2" y="10" font-size="8" fill="#444" font-family="sans-serif">6.73e+03</text><text x="2" y="118" font-size="8" fill="#444" font-family="sans-serif">6.7e+03</text><line x1="10.0" y1="0" x2="10.0" y2="120" stroke="#2ca02c" stroke-width="0.7" stroke-dasharray="3,2"/><polyline points="10.0,12.59 97.5,12.59 185.0,12.59 272.5,12.59 447.5,107.41 622.5,107.41 710.0,107.41" fill="none" stroke="#1f77b4" stroke-width="1.2"/><circle cx="10.0" cy="12.59" r="2" fill="#1f77b4"/><polygon points="10.0,-0.4137931034472615 5.0,9.586206896552738 15.0,9.586206896552738" fill="#2ca02c" stroke="black" stroke-width="0.5"/><circle cx="97.5" cy="12.59" r="2" fill="#1f77b4"/><polygon points="97.5,-0.4137931034472615 102.5,4.5862068965527385 97.5,9.586206896552738 92.5,4.5862068965527385" fill="#dca100" stroke="black" stroke-width="0.5"/><circle cx="185.0" cy="12.59" r="2" fill="#1f77b4"/><polygon points="185.0,-0.4137931034472615 190.0,4.5862068965527385 185.0,9.586206896552738 180.0,4.5862068965527385" fill="#dca100" stroke="black" stroke-width="0.5"/><circle cx="272.5" cy="12.59" r="2" fill="#1f77b4"/><polygon points="272.5,-0.4137931034472615 277.5,4.5862068965527385 272.5,9.586206896552738 267.5,4.5862068965527385" fill="#dca100" stroke="black" stroke-width="0.5"/><circle cx="447.5" cy="107.41" r="2" fill="#1f77b4"/><polygon points="447.5,94.41379310344725 452.5,99.41379310344725 447.5,104.41379310344725 442.5,99.41379310344725" fill="#dca100" stroke="black" stroke-width="0.5"/><circle cx="622.5" cy="107.41" r="2" fill="#1f77b4"/><polygon points="622.5,94.41379310344725 627.5,99.41379310344725 622.5,104.41379310344725 617.5,99.41379310344725" fill="#dca100" stroke="black" stroke-width="0.5"/><circle cx="710.0" cy="107.41" r="2" fill="#1f77b4"/><polygon points="710.0,94.41379310344725 715.0,99.41379310344725 710.0,104.41379310344725 705.0,99.41379310344725" fill="#dca100" stroke="black" stroke-width="0.5"/><text x="716" y="12" font-size="9" text-anchor="end" fill="#1f77b4" font-family="sans-serif">rusage.default.max_rss_kb (lower=better)</text><polyline points="10.0,12.59 97.5,12.59 185.0,12.59 272.5,12.59 447.5,107.41 622.5,107.41 710.0,107.41" fill="none" stroke="#ff7f0e" stroke-width="1.2"/><circle cx="10.0" cy="12.59" r="2" fill="#ff7f0e"/><polygon points="10.0,-0.4137931034472615 5.0,9.586206896552738 15.0,9.586206896552738" fill="#2ca02c" stroke="black" stroke-width="0.5"/><circle cx="97.5" cy="12.59" r="2" fill="#ff7f0e"/><polygon points="97.5,-0.4137931034472615 102.5,4.5862068965527385 97.5,9.586206896552738 92.5,4.5862068965527385" fill="#dca100" stroke="black" stroke-width="0.5"/><circle cx="185.0" cy="12.59" r="2" fill="#ff7f0e"/><polygon points="185.0,-0.4137931034472615 190.0,4.5862068965527385 185.0,9.586206896552738 180.0,4.5862068965527385" fill="#dca100" stroke="black" stroke-width="0.5"/><circle cx="272.5" cy="12.59" r="2" fill="#ff7f0e"/><polygon points="272.5,-0.4137931034472615 277.5,4.5862068965527385 272.5,9.586206896552738 267.5,4.5862068965527385" fill="#dca100" stroke="black" stroke-width="0.5"/><circle cx="447.5" cy="107.41" r="2" fill="#ff7f0e"/><polygon points="447.5,94.41379310344725 452.5,99.41379310344725 447.5,104.41379310344725 442.5,99.41379310344725" fill="#dca100" stroke="black" stroke-width="0.5"/><circle cx="622.5" cy="107.41" r="2" fill="#ff7f0e"/><polygon points="622.5,94.41379310344725 627.5,99.41379310344725 622.5,104.41379310344725 617.5,99.41379310344725" fill="#dca100" stroke="black" stroke-width="0.5"/><circle cx="710.0" cy="107.41" r="2" fill="#ff7f0e"/><polygon points="710.0,94.41379310344725 715.0,99.41379310344725 710.0,104.41379310344725 705.0,99.41379310344725" fill="#dca100" stroke="black" stroke-width="0.5"/><text x="716" y="23" font-size="9" text-anchor="end" fill="#ff7f0e" font-family="sans-serif">rusage.max_rss_kb (lower=better)</text></g><g transform="translate(40,580)"><rect x="0" y="0" width="720" height="120" fill="white" stroke="#888" stroke-width="0.5"/><text x="4" y="-4" font-size="11" font-family="sans-serif">wall_s</text><text x="2" y="10" font-size="8" fill="#444" font-family="sans-serif">0.491</text><text x="2" y="118" font-size="8" fill="#444" font-family="sans-serif">0.479</text><line x1="10.0" y1="0" x2="10.0" y2="120" stroke="#2ca02c" stroke-width="0.7" stroke-dasharray="3,2"/><polyline points="10.0,12.59 97.5,12.59 185.0,12.59 272.5,107.41 447.5,107.41 622.5,12.59 710.0,107.41" fill="none" stroke="#1f77b4" stroke-width="1.2"/><circle cx="10.0" cy="12.59" r="2" fill="#1f77b4"/><polygon points="10.0,-0.41379310344808573 5.0,9.586206896551914 15.0,9.586206896551914" fill="#2ca02c" stroke="black" stroke-width="0.5"/><circle cx="97.5" cy="12.59" r="2" fill="#1f77b4"/><polygon points="97.5,-0.41379310344808573 102.5,4.586206896551914 97.5,9.586206896551914 92.5,4.586206896551914" fill="#dca100" stroke="black" stroke-width="0.5"/><circle cx="185.0" cy="12.59" r="2" fill="#1f77b4"/><polygon points="185.0,-0.41379310344808573 190.0,4.586206896551914 185.0,9.586206896551914 180.0,4.586206896551914" fill="#dca100" stroke="black" stroke-width="0.5"/><circle cx="272.5" cy="107.41" r="2" fill="#1f77b4"/><polygon points="272.5,94.4137931034481 277.5,99.4137931034481 272.5,104.4137931034481 267.5,99.4137931034481" fill="#dca100" stroke="black" stroke-width="0.5"/><circle cx="447.5" cy="107.41" r="2" fill="#1f77b4"/><polygon points="447.5,94.4137931034481 452.5,99.4137931034481 447.5,104.4137931034481 442.5,99.4137931034481" fill="#dca100" stroke="black" stroke-width="0.5"/><circle cx="622.5" cy="12.59" r="2" fill="#1f77b4"/><polygon points="622.5,-0.41379310344808573 627.5,4.586206896551914 622.5,9.586206896551914 617.5,4.586206896551914" fill="#dca100" stroke="black" stroke-width="0.5"/><circle cx="710.0" cy="107.41" r="2" fill="#1f77b4"/><polygon points="710.0,94.4137931034481 715.0,99.4137931034481 710.0,104.4137931034481 705.0,99.4137931034481" fill="#dca100" stroke="black" stroke-width="0.5"/><text x="716" y="12" font-size="9" text-anchor="end" fill="#1f77b4" font-family="sans-serif">rusage.default.wall_s (lower=better)</text><polyline points="10.0,12.59 97.5,12.59 185.0,12.59 272.5,107.41 447.5,107.41 622.5,12.59 710.0,107.41" fill="none" stroke="#ff7f0e" stroke-width="1.2"/><circle cx="10.0" cy="12.59" r="2" fill="#ff7f0e"/><polygon points="10.0,-0.41379310344808573 5.0,9.586206896551914 15.0,9.586206896551914" fill="#2ca02c" stroke="black" stroke-width="0.5"/><circle cx="97.5" cy="12.59" r="2" fill="#ff7f0e"/><polygon points="97.5,-0.41379310344808573 102.5,4.586206896551914 97.5,9.586206896551914 92.5,4.586206896551914" fill="#dca100" stroke="black" stroke-width="0.5"/><circle cx="185.0" cy="12.59" r="2" fill="#ff7f0e"/><polygon points="185.0,-0.41379310344808573 190.0,4.586206896551914 185.0,9.586206896551914 180.0,4.586206896551914" fill="#dca100" stroke="black" stroke-width="0.5"/><circle cx="272.5" cy="107.41" r="2" fill="#ff7f0e"/><polygon points="272.5,94.4137931034481 277.5,99.4137931034481 272.5,104.4137931034481 267.5,99.4137931034481" fill="#dca100" stroke="black" stroke-width="0.5"/><circle cx="447.5" cy="107.41" r="2" fill="#ff7f0e"/><polygon points="447.5,94.4137931034481 452.5,99.4137931034481 447.5,104.4137931034481 442.5,99.4137931034481" fill="#dca100" stroke="black" stroke-width="0.5"/><circle cx="622.5" cy="12.59" r="2" fill="#ff7f0e"/><polygon points="622.5,-0.41379310344808573 627.5,4.586206896551914 622.5,9.586206896551914 617.5,4.586206896551914" fill="#dca100" stroke="black" stroke-width="0.5"/><circle cx="710.0" cy="107.41" r="2" fill="#ff7f0e"/><polygon points="710.0,94.4137931034481 715.0,99.4137931034481 710.0,104.4137931034481 705.0,99.4137931034481" fill="#dca100" stroke="black" stroke-width="0.5"/><text x="716" y="23" font-size="9" text-anchor="end" fill="#ff7f0e" font-family="sans-serif">rusage.wall_s (lower=better)</text></g><g transform="translate(40,718)"><text x="10.0" y="10" font-size="8" fill="#2ca02c" text-anchor="middle" font-family="monospace" transform="rotate(45 10.0 10)">edca85f</text><text x="97.5" y="10" font-size="8" fill="#222" text-anchor="middle" font-family="monospace" transform="rotate(45 97.5 10)">90ce69c</text><text x="185.0" y="10" font-size="8" fill="#222" text-anchor="middle" font-family="monospace" transform="rotate(45 185.0 10)">90ce69c</text><text x="272.5" y="10" font-size="8" fill="#222" text-anchor="middle" font-family="monospace" transform="rotate(45 272.5 10)">1856b24</text><text x="360.0" y="10" font-size="8" fill="#222" text-anchor="middle" font-family="monospace" transform="rotate(45 360.0 10)">a166d07</text><text x="447.5" y="10" font-size="8" fill="#222" text-anchor="middle" font-family="monospace" transform="rotate(45 447.5 10)">a166d07</text><text x="535.0" y="10" font-size="8" fill="#222" text-anchor="middle" font-family="monospace" transform="rotate(45 535.0 10)">a166d07</text><text x="622.5" y="10" font-size="8" fill="#222" text-anchor="middle" font-family="monospace" transform="rotate(45 622.5 10)">a166d07</text><text x="710.0" y="10" font-size="8" fill="#222" text-anchor="middle" font-family="monospace" transform="rotate(45 710.0 10)">a166d07</text></g><g transform="translate(540,754)"><text x="0" y="0" font-size="9" font-family="sans-serif">decisions:</text><polygon points="60,-9 55,1 65,1" fill="#2ca02c" stroke="black" stroke-width="0.5"/><text x="68" y="0" font-size="9" font-family="sans-serif">KEEP</text><polygon points="125,1 120,-9 130,-9" fill="#d62728" stroke="black" stroke-width="0.5"/><text x="133" y="0" font-size="9" font-family="sans-serif">DISCARD</text><polygon points="190,-9 195,-4 190,1 185,-4" fill="#dca100" stroke="black" stroke-width="0.5"/><text x="198" y="0" font-size="9" font-family="sans-serif">ESCALATE</text></g></svg>
