<?xml version="1.0" encoding="UTF-8"?>
<svg xmlns="http://www.w3.org/2000/svg" version="1.1" width="828" height="768" viewBox="0 0 828 768"><text x="40" y="18" font-size="13" font-family="sans-serif" font-weight="bold">benchmarkserversave -- lxc-armv6-debian-13-armv6/rpi-zero-w (armv6-compatible-processor-rev-7-v6l, armv6, n=16)</text><g transform="translate(40,28)"><rect x="0" y="0" width="720" height="120" fill="white" stroke="#888" stroke-width="0.5"/><text x="4" y="-4" font-size="11" font-family="sans-serif">branch-misses (lower=better)</text><text x="2" y="10" font-size="8" fill="#444" font-family="sans-serif">1.12M</text><text x="2" y="118" font-size="8" fill="#444" font-family="sans-serif">1.11M</text><line x1="56.666666666666664" y1="0" x2="56.666666666666664" y2="120" stroke="#2ca02c" stroke-width="0.7" stroke-dasharray="3,2"/><polyline points="56.7,99.79 103.3,107.41 150.0,12.59 196.7,32.94" fill="none" stroke="#1f77b4" stroke-width="1.2"/><circle cx="56.7" cy="99.79" r="2" fill="#1f77b4"/><polygon points="56.67,86.79 51.67,96.79 61.67,96.79" fill="#2ca02c" stroke="black" stroke-width="0.5"/><circle cx="103.3" cy="107.41" r="2" fill="#1f77b4"/><polygon points="103.33,94.41 108.33,99.41 103.33,104.41 98.33,99.41" fill="#dca100" stroke="black" stroke-width="0.5"/><circle cx="150.0" cy="12.59" r="2" fill="#1f77b4"/><polygon points="150,9.59 145,-0.41 155,-0.41" fill="#d62728" stroke="black" stroke-width="0.5"/><circle cx="196.7" cy="32.94" r="2" fill="#1f77b4"/><polygon points="196.67,19.94 201.67,24.94 196.67,29.94 191.67,24.94" fill="#dca100" stroke="black" stroke-width="0.5"/><text x="716" y="12" font-size="9" text-anchor="end" fill="#1f77b4" font-family="sans-serif">perf-stat.branch-misses</text><text x="730" y="-4" font-size="8" fill="#444" font-family="sans-serif">per-node spread</text><line x1="738.0" y1="12.59" x2="738.0" y2="107.41" stroke="#1f77b4" stroke-width="0.6"/><line x1="734.6" y1="107.41" x2="741.4" y2="107.41" stroke="#1f77b4" stroke-width="0.6"/><line x1="734.6" y1="12.59" x2="741.4" y2="12.59" stroke="#1f77b4" stroke-width="0.6"/><rect x="733.6" y="27.85" width="8.8" height="73.85" fill="#1f77b4" fill-opacity="0.22" stroke="#1f77b4" stroke-width="0.7"/><line x1="733.6" y1="66.37" x2="742.4" y2="66.37" stroke="#1f77b4" stroke-width="1.2"/></g><g transform="translate(40,166)"><rect x="0" y="0" width="720" height="120" fill="white" stroke="#888" stroke-width="0.5"/><text x="4" y="-4" font-size="11" font-family="sans-serif">cycles (lower=better)</text><text x="2" y="10" font-size="8" fill="#444" font-family="sans-serif">260M</text><text x="2" y="118" font-size="8" fill="#444" font-family="sans-serif">251M</text><line x1="56.666666666666664" y1="0" x2="56.666666666666664" y2="120" stroke="#2ca02c" stroke-width="0.7" stroke-dasharray="3,2"/><polyline points="56.7,77.49 103.3,90.55 150.0,12.59 196.7,107.41" fill="none" stroke="#1f77b4" stroke-width="1.2"/><circle cx="56.7" cy="77.49" r="2" fill="#1f77b4"/><polygon points="56.67,64.49 51.67,74.49 61.67,74.49" fill="#2ca02c" stroke="black" stroke-width="0.5"/><circle cx="103.3" cy="90.55" r="2" fill="#1f77b4"/><polygon points="103.33,77.55 108.33,82.55 103.33,87.55 98.33,82.55" fill="#dca100" stroke="black" stroke-width="0.5"/><circle cx="150.0" cy="12.59" r="2" fill="#1f77b4"/><polygon points="150,9.59 145,-0.41 155,-0.41" fill="#d62728" stroke="black" stroke-width="0.5"/><circle cx="196.7" cy="107.41" r="2" fill="#1f77b4"/><polygon points="196.67,94.41 201.67,99.41 196.67,104.41 191.67,99.41" fill="#dca100" stroke="black" stroke-width="0.5"/><text x="716" y="12" font-size="9" text-anchor="end" fill="#1f77b4" font-family="sans-serif">perf-stat.cycles</text><text x="730" y="-4" font-size="8" fill="#444" font-family="sans-serif">per-node spread</text><line x1="738.0" y1="12.59" x2="738.0" y2="107.41" stroke="#1f77b4" stroke-width="0.6"/><line x1="734.6" y1="107.41" x2="741.4" y2="107.41" stroke="#1f77b4" stroke-width="0.6"/><line x1="734.6" y1="12.59" x2="741.4" y2="12.59" stroke="#1f77b4" stroke-width="0.6"/><rect x="733.6" y="61.27" width="8.8" height="33.50" fill="#1f77b4" fill-opacity="0.22" stroke="#1f77b4" stroke-width="0.7"/><line x1="733.6" y1="84.02" x2="742.4" y2="84.02" stroke="#1f77b4" stroke-width="1.2"/></g><g transform="translate(40,304)"><rect x="0" y="0" width="720" height="120" fill="white" stroke="#888" stroke-width="0.5"/><text x="4" y="-4" font-size="11" font-family="sans-serif">instructions (lower=better)</text><text x="2" y="10" font-size="8" fill="#444" font-family="sans-serif">64.4M</text><text x="2" y="118" font-size="8" fill="#444" font-family="sans-serif">64.2M</text><line x1="56.666666666666664" y1="0" x2="56.666666666666664" y2="120" stroke="#2ca02c" stroke-width="0.7" stroke-dasharray="3,2"/><polyline points="56.7,102.54 103.3,107.41 150.0,12.59 196.7,20.03" fill="none" stroke="#1f77b4" stroke-width="1.2"/><circle cx="56.7" cy="102.54" r="2" fill="#1f77b4"/><polygon points="56.67,89.54 51.67,99.54 61.67,99.54" fill="#2ca02c" stroke="black" stroke-width="0.5"/><circle cx="103.3" cy="107.41" r="2" fill="#1f77b4"/><polygon points="103.33,94.41 108.33,99.41 103.33,104.41 98.33,99.41" fill="#dca100" stroke="black" stroke-width="0.5"/><circle cx="150.0" cy="12.59" r="2" fill="#1f77b4"/><polygon points="150,9.59 145,-0.41 155,-0.41" fill="#d62728" stroke="black" stroke-width="0.5"/><circle cx="196.7" cy="20.03" r="2" fill="#1f77b4"/><polygon points="196.67,7.03 201.67,12.03 196.67,17.03 191.67,12.03" fill="#dca100" stroke="black" stroke-width="0.5"/><text x="716" y="12" font-size="9" text-anchor="end" fill="#1f77b4" font-family="sans-serif">perf-stat.instructions</text><text x="730" y="-4" font-size="8" fill="#444" font-family="sans-serif">per-node spread</text><line x1="738.0" y1="12.59" x2="738.0" y2="107.41" stroke="#1f77b4" stroke-width="0.6"/><line x1="734.6" y1="107.41" x2="741.4" y2="107.41" stroke="#1f77b4" stroke-width="0.6"/><line x1="734.6" y1="12.59" x2="741.4" y2="12.59" stroke="#1f77b4" stroke-width="0.6"/><rect x="733.6" y="18.17" width="8.8" height="85.59" fill="#1f77b4" fill-opacity="0.22" stroke="#1f77b4" stroke-width="0.7"/><line x1="733.6" y1="61.29" x2="742.4" y2="61.29" stroke="#1f77b4" stroke-width="1.2"/></g><g transform="translate(40,442)"><rect x="0" y="0" width="720" height="120" fill="white" stroke="#888" stroke-width="0.5"/><text x="4" y="-4" font-size="11" font-family="sans-serif">max_rss_kb (lower=better)</text><text x="2" y="10" font-size="8" fill="#444" font-family="sans-serif">6.45MB</text><text x="2" y="118" font-size="8" fill="#444" font-family="sans-serif">6.45MB</text><line x1="56.666666666666664" y1="0" x2="56.666666666666664" y2="120" stroke="#2ca02c" stroke-width="0.7" stroke-dasharray="3,2"/><polyline points="56.7,60.00 103.3,60.00 150.0,60.00 196.7,60.00" fill="none" stroke="#1f77b4" stroke-width="1.2"/><circle cx="56.7" cy="60.00" r="2" fill="#1f77b4"/><polygon points="56.67,47 51.67,57 61.67,57" fill="#2ca02c" stroke="black" stroke-width="0.5"/><circle cx="103.3" cy="60.00" r="2" fill="#1f77b4"/><polygon points="103.33,47 108.33,52 103.33,57 98.33,52" fill="#dca100" stroke="black" stroke-width="0.5"/><circle cx="150.0" cy="60.00" r="2" fill="#1f77b4"/><polygon points="150,57 145,47 155,47" fill="#d62728" stroke="black" stroke-width="0.5"/><circle cx="196.7" cy="60.00" r="2" fill="#1f77b4"/><polygon points="196.67,47 201.67,52 196.67,57 191.67,52" fill="#dca100" stroke="black" stroke-width="0.5"/><text x="716" y="12" font-size="9" text-anchor="end" fill="#1f77b4" font-family="sans-serif">rusage.default</text><polyline points="56.7,60.00 103.3,60.00 150.0,60.00 196.7,60.00" fill="none" stroke="#ff7f0e" stroke-width="1.2"/><circle cx="56.7" cy="60.00" r="2" fill="#ff7f0e"/><polygon points="56.67,47 51.67,57 61.67,57" fill="#2ca02c" stroke="black" stroke-width="0.5"/><circle cx="103.3" cy="60.00" r="2" fill="#ff7f0e"/><polygon points="103.33,47 108.33,52 103.33,57 98.33,52" fill="#dca100" stroke="black" stroke-width="0.5"/><circle cx="150.0" cy="60.00" r="2" fill="#ff7f0e"/><polygon points="150,57 145,47 155,47" fill="#d62728" stroke="black" stroke-width="0.5"/><circle cx="196.7" cy="60.00" r="2" fill="#ff7f0e"/><polygon points="196.67,47 201.67,52 196.67,57 191.67,52" fill="#dca100" stroke="black" stroke-width="0.5"/><text x="716" y="23" font-size="9" text-anchor="end" fill="#ff7f0e" font-family="sans-serif">rusage</text><text x="730" y="-4" font-size="8" fill="#444" font-family="sans-serif">per-node spread</text><line x1="738.0" y1="60.00" x2="738.0" y2="60.00" stroke="#1f77b4" stroke-width="0.6"/><line x1="734.6" y1="60.00" x2="741.4" y2="60.00" stroke="#1f77b4" stroke-width="0.6"/><line x1="734.6" y1="60.00" x2="741.4" y2="60.00" stroke="#1f77b4" stroke-width="0.6"/><rect x="733.6" y="60.00" width="8.8" height="0.50" fill="#1f77b4" fill-opacity="0.22" stroke="#1f77b4" stroke-width="0.7"/><line x1="733.6" y1="60.00" x2="742.4" y2="60.00" stroke="#1f77b4" stroke-width="1.2"/><line x1="754.0" y1="60.00" x2="754.0" y2="60.00" stroke="#ff7f0e" stroke-width="0.6"/><line x1="750.6" y1="60.00" x2="757.4" y2="60.00" stroke="#ff7f0e" stroke-width="0.6"/><line x1="750.6" y1="60.00" x2="757.4" y2="60.00" stroke="#ff7f0e" stroke-width="0.6"/><rect x="749.6" y="60.00" width="8.8" height="0.50" fill="#ff7f0e" fill-opacity="0.22" stroke="#ff7f0e" stroke-width="0.7"/><line x1="749.6" y1="60.00" x2="758.4" y2="60.00" stroke="#ff7f0e" stroke-width="1.2"/></g><g transform="translate(40,580)"><rect x="0" y="0" width="720" height="120" fill="white" stroke="#888" stroke-width="0.5"/><text x="4" y="-4" font-size="11" font-family="sans-serif">wall_s (lower=better)</text><text x="2" y="10" font-size="8" fill="#444" font-family="sans-serif">352ms</text><text x="2" y="118" font-size="8" fill="#444" font-family="sans-serif">318ms</text><line x1="56.666666666666664" y1="0" x2="56.666666666666664" y2="120" stroke="#2ca02c" stroke-width="0.7" stroke-dasharray="3,2"/><polyline points="56.7,12.59 103.3,107.41 150.0,12.59 196.7,107.41" fill="none" stroke="#1f77b4" stroke-width="1.2"/><circle cx="56.7" cy="12.59" r="2" fill="#1f77b4"/><polygon points="56.67,-0.41 51.67,9.59 61.67,9.59" fill="#2ca02c" stroke="black" stroke-width="0.5"/><circle cx="103.3" cy="107.41" r="2" fill="#1f77b4"/><polygon points="103.33,94.41 108.33,99.41 103.33,104.41 98.33,99.41" fill="#dca100" stroke="black" stroke-width="0.5"/><circle cx="150.0" cy="12.59" r="2" fill="#1f77b4"/><polygon points="150,9.59 145,-0.41 155,-0.41" fill="#d62728" stroke="black" stroke-width="0.5"/><circle cx="196.7" cy="107.41" r="2" fill="#1f77b4"/><polygon points="196.67,94.41 201.67,99.41 196.67,104.41 191.67,99.41" fill="#dca100" stroke="black" stroke-width="0.5"/><text x="716" y="12" font-size="9" text-anchor="end" fill="#1f77b4" font-family="sans-serif">rusage.default</text><polyline points="56.7,12.59 103.3,107.41 150.0,12.59 196.7,107.41" fill="none" stroke="#ff7f0e" stroke-width="1.2"/><circle cx="56.7" cy="12.59" r="2" fill="#ff7f0e"/><polygon points="56.67,-0.41 51.67,9.59 61.67,9.59" fill="#2ca02c" stroke="black" stroke-width="0.5"/><circle cx="103.3" cy="107.41" r="2" fill="#ff7f0e"/><polygon points="103.33,94.41 108.33,99.41 103.33,104.41 98.33,99.41" fill="#dca100" stroke="black" stroke-width="0.5"/><circle cx="150.0" cy="12.59" r="2" fill="#ff7f0e"/><polygon points="150,9.59 145,-0.41 155,-0.41" fill="#d62728" stroke="black" stroke-width="0.5"/><circle cx="196.7" cy="107.41" r="2" fill="#ff7f0e"/><polygon points="196.67,94.41 201.67,99.41 196.67,104.41 191.67,99.41" fill="#dca100" stroke="black" stroke-width="0.5"/><text x="716" y="23" font-size="9" text-anchor="end" fill="#ff7f0e" font-family="sans-serif">rusage</text><text x="730" y="-4" font-size="8" fill="#444" font-family="sans-serif">per-node spread</text><line x1="738.0" y1="12.59" x2="738.0" y2="107.41" stroke="#1f77b4" stroke-width="0.6"/><line x1="734.6" y1="107.41" x2="741.4" y2="107.41" stroke="#1f77b4" stroke-width="0.6"/><line x1="734.6" y1="12.59" x2="741.4" y2="12.59" stroke="#1f77b4" stroke-width="0.6"/><rect x="733.6" y="12.59" width="8.8" height="94.83" fill="#1f77b4" fill-opacity="0.22" stroke="#1f77b4" stroke-width="0.7"/><line x1="733.6" y1="60.00" x2="742.4" y2="60.00" stroke="#1f77b4" stroke-width="1.2"/><line x1="754.0" y1="12.59" x2="754.0" y2="107.41" stroke="#ff7f0e" stroke-width="0.6"/><line x1="750.6" y1="107.41" x2="757.4" y2="107.41" stroke="#ff7f0e" stroke-width="0.6"/><line x1="750.6" y1="12.59" x2="757.4" y2="12.59" stroke="#ff7f0e" stroke-width="0.6"/><rect x="749.6" y="12.59" width="8.8" height="94.83" fill="#ff7f0e" fill-opacity="0.22" stroke="#ff7f0e" stroke-width="0.7"/><line x1="749.6" y1="60.00" x2="758.4" y2="60.00" stroke="#ff7f0e" stroke-width="1.2"/></g><g transform="translate(40,718)"><text x="10.0" y="10" font-size="8" fill="#222" text-anchor="middle" font-family="monospace" transform="rotate(45 10.0 10)">5462b5b</text><text x="56.7" y="10" font-size="8" fill="#2ca02c" text-anchor="middle" font-family="monospace" transform="rotate(45 56.7 10)">7dead07</text><text x="103.3" y="10" font-size="8" fill="#222" text-anchor="middle" font-family="monospace" transform="rotate(45 103.3 10)">7dead07</text><text x="150.0" y="10" font-size="8" fill="#222" text-anchor="middle" font-family="monospace" transform="rotate(45 150.0 10)">7dead07</text><text x="196.7" y="10" font-size="8" fill="#222" text-anchor="middle" font-family="monospace" transform="rotate(45 196.7 10)">7dead07</text><text x="243.3" y="10" font-size="8" fill="#222" text-anchor="middle" font-family="monospace" transform="rotate(45 243.3 10)">ef13d54</text><text x="290.0" y="10" font-size="8" fill="#222" text-anchor="middle" font-family="monospace" transform="rotate(45 290.0 10)">cc66783</text><text x="336.7" y="10" font-size="8" fill="#222" text-anchor="middle" font-family="monospace" transform="rotate(45 336.7 10)">f4dcacf</text><text x="383.3" y="10" font-size="8" fill="#222" text-anchor="middle" font-family="monospace" transform="rotate(45 383.3 10)">f4dcacf</text><text x="430.0" y="10" font-size="8" fill="#222" text-anchor="middle" font-family="monospace" transform="rotate(45 430.0 10)">f4dcacf</text><text x="476.7" y="10" font-size="8" fill="#222" text-anchor="middle" font-family="monospace" transform="rotate(45 476.7 10)">f4dcacf</text><text x="523.3" y="10" font-size="8" fill="#222" text-anchor="middle" font-family="monospace" transform="rotate(45 523.3 10)">f4dcacf</text><text x="570.0" y="10" font-size="8" fill="#222" text-anchor="middle" font-family="monospace" transform="rotate(45 570.0 10)">f4dcacf</text><text x="616.7" y="10" font-size="8" fill="#222" text-anchor="middle" font-family="monospace" transform="rotate(45 616.7 10)">0aa4edd</text><text x="663.3" y="10" font-size="8" fill="#222" text-anchor="middle" font-family="monospace" transform="rotate(45 663.3 10)">e77e4d5</text><text x="710.0" y="10" font-size="8" fill="#222" text-anchor="middle" font-family="monospace" transform="rotate(45 710.0 10)">5462b5b</text></g><g transform="translate(540,754)"><text x="0" y="0" font-size="9" font-family="sans-serif">decisions:</text><polygon points="60,-9 55,1 65,1" fill="#2ca02c" stroke="black" stroke-width="0.5"/><text x="68" y="0" font-size="9" font-family="sans-serif">KEEP</text><polygon points="125,1 120,-9 130,-9" fill="#d62728" stroke="black" stroke-width="0.5"/><text x="133" y="0" font-size="9" font-family="sans-serif">DISCARD</text><polygon points="190,-9 195,-4 190,1 185,-4" fill="#dca100" stroke="black" stroke-width="0.5"/><text x="198" y="0" font-size="9" font-family="sans-serif">ESCALATE</text></g></svg>
