<?xml version="1.0" encoding="UTF-8"?>
<svg xmlns="http://www.w3.org/2000/svg" version="1.1" width="780" height="354" viewBox="0 0 780 354"><text x="40" y="18" font-size="13" font-family="sans-serif" font-weight="bold">benchmarkserversave -- LXC armv8-debian-13-armv8/odroid-n2 (armv8-processor-rev-4-v8l, aarch64, n=15)</text><g transform="translate(40,28)"><rect x="0" y="0" width="720" height="120" fill="white" stroke="#888" stroke-width="0.5"/><text x="4" y="-4" font-size="11" font-family="sans-serif">max_rss_kb</text><text x="2" y="10" font-size="8" fill="#444" font-family="sans-serif">7.55e+03</text><text x="2" y="118" font-size="8" fill="#444" font-family="sans-serif">7.36e+03</text><line x1="10.0" y1="0" x2="10.0" y2="120" stroke="#2ca02c" stroke-width="0.7" stroke-dasharray="3,2"/><polyline points="10.0,12.59 60.0,19.70 110.0,14.96 160.0,93.19 210.0,95.56 260.0,17.33 310.0,17.33 360.0,95.56 410.0,57.63 460.0,19.70 510.0,100.30 560.0,100.30 610.0,107.41 660.0,100.30 710.0,100.30" fill="none" stroke="#1f77b4" stroke-width="1.2"/><circle cx="10.0" cy="12.59" r="2" fill="#1f77b4"/><polygon points="10.0,-0.4137931034481852 5.0,9.586206896551815 15.0,9.586206896551815" fill="#2ca02c" stroke="black" stroke-width="0.5"/><circle cx="60.0" cy="19.70" r="2" fill="#1f77b4"/><polygon points="60.0,6.698275862069053 65.0,11.698275862069053 60.0,16.698275862069053 55.0,11.698275862069053" fill="#dca100" stroke="black" stroke-width="0.5"/><circle cx="110.0" cy="14.96" r="2" fill="#1f77b4"/><polygon points="110.0,1.9568965517242276 115.0,6.956896551724228 110.0,11.956896551724228 105.0,6.956896551724228" fill="#dca100" stroke="black" stroke-width="0.5"/><circle cx="160.0" cy="93.19" r="2" fill="#1f77b4"/><polygon points="160.0,80.18965517241372 165.0,85.18965517241372 160.0,90.18965517241372 155.0,85.18965517241372" fill="#dca100" stroke="black" stroke-width="0.5"/><circle cx="210.0" cy="95.56" r="2" fill="#1f77b4"/><polygon points="210.0,82.56034482758614 215.0,87.56034482758614 210.0,92.56034482758614 205.0,87.56034482758614" fill="#dca100" stroke="black" stroke-width="0.5"/><circle cx="260.0" cy="17.33" r="2" fill="#1f77b4"/><polygon points="260.0,4.327586206896626 265.0,9.327586206896626 260.0,14.327586206896626 255.0,9.327586206896626" fill="#dca100" stroke="black" stroke-width="0.5"/><circle cx="310.0" cy="17.33" r="2" fill="#1f77b4"/><polygon points="310.0,4.327586206896626 315.0,9.327586206896626 310.0,14.327586206896626 305.0,9.327586206896626" fill="#dca100" stroke="black" stroke-width="0.5"/><circle cx="360.0" cy="95.56" r="2" fill="#1f77b4"/><polygon points="360.0,82.56034482758614 365.0,87.56034482758614 360.0,92.56034482758614 355.0,87.56034482758614" fill="#dca100" stroke="black" stroke-width="0.5"/><circle cx="410.0" cy="57.63" r="2" fill="#1f77b4"/><polygon points="410.0,44.629310344827594 415.0,49.629310344827594 410.0,54.629310344827594 405.0,49.629310344827594" fill="#dca100" stroke="black" stroke-width="0.5"/><circle cx="460.0" cy="19.70" r="2" fill="#1f77b4"/><polygon points="460.00000000000006,16.698275862069053 455.00000000000006,6.698275862069053 465.00000000000006,6.698275862069053" fill="#d62728" stroke="black" stroke-width="0.5"/><circle cx="510.0" cy="100.30" r="2" fill="#1f77b4"/><polygon points="510.0,87.30172413793096 515.0,92.30172413793096 510.0,97.30172413793096 505.0,92.30172413793096" fill="#dca100" stroke="black" stroke-width="0.5"/><circle cx="560.0" cy="100.30" r="2" fill="#1f77b4"/><polygon points="560.0,87.30172413793096 565.0,92.30172413793096 560.0,97.30172413793096 555.0,92.30172413793096" fill="#dca100" stroke="black" stroke-width="0.5"/><circle cx="610.0" cy="107.41" r="2" fill="#1f77b4"/><polygon points="610.0,94.41379310344819 615.0,99.41379310344819 610.0,104.41379310344819 605.0,99.41379310344819" fill="#dca100" stroke="black" stroke-width="0.5"/><circle cx="660.0" cy="100.30" r="2" fill="#1f77b4"/><polygon points="660.0,87.30172413793096 665.0,92.30172413793096 660.0,97.30172413793096 655.0,92.30172413793096" fill="#dca100" stroke="black" stroke-width="0.5"/><circle cx="710.0" cy="100.30" r="2" fill="#1f77b4"/><polygon points="710.0,87.30172413793096 715.0,92.30172413793096 710.0,97.30172413793096 705.0,92.30172413793096" fill="#dca100" stroke="black" stroke-width="0.5"/><text x="716" y="12" font-size="9" text-anchor="end" fill="#1f77b4" font-family="sans-serif">rusage.default.max_rss_kb (lower=better)</text><polyline points="10.0,12.59 60.0,19.70 110.0,14.96 160.0,93.19 210.0,95.56 260.0,17.33 310.0,17.33 360.0,95.56 410.0,57.63 460.0,19.70 510.0,100.30 560.0,100.30 610.0,107.41 660.0,100.30 710.0,100.30" fill="none" stroke="#ff7f0e" stroke-width="1.2"/><circle cx="10.0" cy="12.59" r="2" fill="#ff7f0e"/><polygon points="10.0,-0.4137931034481852 5.0,9.586206896551815 15.0,9.586206896551815" fill="#2ca02c" stroke="black" stroke-width="0.5"/><circle cx="60.0" cy="19.70" r="2" fill="#ff7f0e"/><polygon points="60.0,6.698275862069053 65.0,11.698275862069053 60.0,16.698275862069053 55.0,11.698275862069053" fill="#dca100" stroke="black" stroke-width="0.5"/><circle cx="110.0" cy="14.96" r="2" fill="#ff7f0e"/><polygon points="110.0,1.9568965517242276 115.0,6.956896551724228 110.0,11.956896551724228 105.0,6.956896551724228" fill="#dca100" stroke="black" stroke-width="0.5"/><circle cx="160.0" cy="93.19" r="2" fill="#ff7f0e"/><polygon points="160.0,80.18965517241372 165.0,85.18965517241372 160.0,90.18965517241372 155.0,85.18965517241372" fill="#dca100" stroke="black" stroke-width="0.5"/><circle cx="210.0" cy="95.56" r="2" fill="#ff7f0e"/><polygon points="210.0,82.56034482758614 215.0,87.56034482758614 210.0,92.56034482758614 205.0,87.56034482758614" fill="#dca100" stroke="black" stroke-width="0.5"/><circle cx="260.0" cy="17.33" r="2" fill="#ff7f0e"/><polygon points="260.0,4.327586206896626 265.0,9.327586206896626 260.0,14.327586206896626 255.0,9.327586206896626" fill="#dca100" stroke="black" stroke-width="0.5"/><circle cx="310.0" cy="17.33" r="2" fill="#ff7f0e"/><polygon points="310.0,4.327586206896626 315.0,9.327586206896626 310.0,14.327586206896626 305.0,9.327586206896626" fill="#dca100" stroke="black" stroke-width="0.5"/><circle cx="360.0" cy="95.56" r="2" fill="#ff7f0e"/><polygon points="360.0,82.56034482758614 365.0,87.56034482758614 360.0,92.56034482758614 355.0,87.56034482758614" fill="#dca100" stroke="black" stroke-width="0.5"/><circle cx="410.0" cy="57.63" r="2" fill="#ff7f0e"/><polygon points="410.0,44.629310344827594 415.0,49.629310344827594 410.0,54.629310344827594 405.0,49.629310344827594" fill="#dca100" stroke="black" stroke-width="0.5"/><circle cx="460.0" cy="19.70" r="2" fill="#ff7f0e"/><polygon points="460.00000000000006,16.698275862069053 455.00000000000006,6.698275862069053 465.00000000000006,6.698275862069053" fill="#d62728" stroke="black" stroke-width="0.5"/><circle cx="510.0" cy="100.30" r="2" fill="#ff7f0e"/><polygon points="510.0,87.30172413793096 515.0,92.30172413793096 510.0,97.30172413793096 505.0,92.30172413793096" fill="#dca100" stroke="black" stroke-width="0.5"/><circle cx="560.0" cy="100.30" r="2" fill="#ff7f0e"/><polygon points="560.0,87.30172413793096 565.0,92.30172413793096 560.0,97.30172413793096 555.0,92.30172413793096" fill="#dca100" stroke="black" stroke-width="0.5"/><circle cx="610.0" cy="107.41" r="2" fill="#ff7f0e"/><polygon points="610.0,94.41379310344819 615.0,99.41379310344819 610.0,104.41379310344819 605.0,99.41379310344819" fill="#dca100" stroke="black" stroke-width="0.5"/><circle cx="660.0" cy="100.30" r="2" fill="#ff7f0e"/><polygon points="660.0,87.30172413793096 665.0,92.30172413793096 660.0,97.30172413793096 655.0,92.30172413793096" fill="#dca100" stroke="black" stroke-width="0.5"/><circle cx="710.0" cy="100.30" r="2" fill="#ff7f0e"/><polygon points="710.0,87.30172413793096 715.0,92.30172413793096 710.0,97.30172413793096 705.0,92.30172413793096" fill="#dca100" stroke="black" stroke-width="0.5"/><text x="716" y="23" font-size="9" text-anchor="end" fill="#ff7f0e" font-family="sans-serif">rusage.max_rss_kb (lower=better)</text></g><g transform="translate(40,166)"><rect x="0" y="0" width="720" height="120" fill="white" stroke="#888" stroke-width="0.5"/><text x="4" y="-4" font-size="11" font-family="sans-serif">wall_s</text><text x="2" y="10" font-size="8" fill="#444" font-family="sans-serif">0.0624</text><text x="2" y="118" font-size="8" fill="#444" font-family="sans-serif">0.0276</text><line x1="10.0" y1="0" x2="10.0" y2="120" stroke="#2ca02c" stroke-width="0.7" stroke-dasharray="3,2"/><polyline points="10.0,75.80 60.0,44.20 110.0,75.80 160.0,44.20 210.0,44.20 260.0,75.80 310.0,75.80 360.0,44.20 410.0,12.59 460.0,44.20 510.0,107.41 560.0,107.41 610.0,107.41 660.0,107.41 710.0,107.41" fill="none" stroke="#1f77b4" stroke-width="1.2"/><circle cx="10.0" cy="75.80" r="2" fill="#1f77b4"/><polygon points="10.0,62.80459770114942 5.0,72.80459770114942 15.0,72.80459770114942" fill="#2ca02c" stroke="black" stroke-width="0.5"/><circle cx="60.0" cy="44.20" r="2" fill="#1f77b4"/><polygon points="60.0,31.195402298850567 65.0,36.19540229885057 60.0,41.19540229885057 55.0,36.19540229885057" fill="#dca100" stroke="black" stroke-width="0.5"/><circle cx="110.0" cy="75.80" r="2" fill="#1f77b4"/><polygon points="110.0,62.80459770114942 115.0,67.80459770114942 110.0,72.80459770114942 105.0,67.80459770114942" fill="#dca100" stroke="black" stroke-width="0.5"/><circle cx="160.0" cy="44.20" r="2" fill="#1f77b4"/><polygon points="160.0,31.195402298850567 165.0,36.19540229885057 160.0,41.19540229885057 155.0,36.19540229885057" fill="#dca100" stroke="black" stroke-width="0.5"/><circle cx="210.0" cy="44.20" r="2" fill="#1f77b4"/><polygon points="210.0,31.195402298850567 215.0,36.19540229885057 210.0,41.19540229885057 205.0,36.19540229885057" fill="#dca100" stroke="black" stroke-width="0.5"/><circle cx="260.0" cy="75.80" r="2" fill="#1f77b4"/><polygon points="260.0,62.80459770114942 265.0,67.80459770114942 260.0,72.80459770114942 255.0,67.80459770114942" fill="#dca100" stroke="black" stroke-width="0.5"/><circle cx="310.0" cy="75.80" r="2" fill="#1f77b4"/><polygon points="310.0,62.80459770114942 315.0,67.80459770114942 310.0,72.80459770114942 305.0,67.80459770114942" fill="#dca100" stroke="black" stroke-width="0.5"/><circle cx="360.0" cy="44.20" r="2" fill="#1f77b4"/><polygon points="360.0,31.195402298850567 365.0,36.19540229885057 360.0,41.19540229885057 355.0,36.19540229885057" fill="#dca100" stroke="black" stroke-width="0.5"/><circle cx="410.0" cy="12.59" r="2" fill="#1f77b4"/><polygon points="410.0,-0.41379310344827047 415.0,4.5862068965517295 410.0,9.58620689655173 405.0,4.5862068965517295" fill="#dca100" stroke="black" stroke-width="0.5"/><circle cx="460.0" cy="44.20" r="2" fill="#1f77b4"/><polygon points="460.00000000000006,41.19540229885057 455.00000000000006,31.195402298850567 465.00000000000006,31.195402298850567" fill="#d62728" stroke="black" stroke-width="0.5"/><circle cx="510.0" cy="107.41" r="2" fill="#1f77b4"/><polygon points="510.0,94.41379310344828 515.0,99.41379310344828 510.0,104.41379310344828 505.0,99.41379310344828" fill="#dca100" stroke="black" stroke-width="0.5"/><circle cx="560.0" cy="107.41" r="2" fill="#1f77b4"/><polygon points="560.0,94.41379310344828 565.0,99.41379310344828 560.0,104.41379310344828 555.0,99.41379310344828" fill="#dca100" stroke="black" stroke-width="0.5"/><circle cx="610.0" cy="107.41" r="2" fill="#1f77b4"/><polygon points="610.0,94.41379310344828 615.0,99.41379310344828 610.0,104.41379310344828 605.0,99.41379310344828" fill="#dca100" stroke="black" stroke-width="0.5"/><circle cx="660.0" cy="107.41" r="2" fill="#1f77b4"/><polygon points="660.0,94.41379310344828 665.0,99.41379310344828 660.0,104.41379310344828 655.0,99.41379310344828" fill="#dca100" stroke="black" stroke-width="0.5"/><circle cx="710.0" cy="107.41" r="2" fill="#1f77b4"/><polygon points="710.0,94.41379310344828 715.0,99.41379310344828 710.0,104.41379310344828 705.0,99.41379310344828" fill="#dca100" stroke="black" stroke-width="0.5"/><text x="716" y="12" font-size="9" text-anchor="end" fill="#1f77b4" font-family="sans-serif">rusage.default.wall_s (lower=better)</text><polyline points="10.0,75.80 60.0,44.20 110.0,75.80 160.0,44.20 210.0,44.20 260.0,75.80 310.0,75.80 360.0,44.20 410.0,12.59 460.0,44.20 510.0,107.41 560.0,107.41 610.0,107.41 660.0,107.41 710.0,107.41" fill="none" stroke="#ff7f0e" stroke-width="1.2"/><circle cx="10.0" cy="75.80" r="2" fill="#ff7f0e"/><polygon points="10.0,62.80459770114942 5.0,72.80459770114942 15.0,72.80459770114942" fill="#2ca02c" stroke="black" stroke-width="0.5"/><circle cx="60.0" cy="44.20" r="2" fill="#ff7f0e"/><polygon points="60.0,31.195402298850567 65.0,36.19540229885057 60.0,41.19540229885057 55.0,36.19540229885057" fill="#dca100" stroke="black" stroke-width="0.5"/><circle cx="110.0" cy="75.80" r="2" fill="#ff7f0e"/><polygon points="110.0,62.80459770114942 115.0,67.80459770114942 110.0,72.80459770114942 105.0,67.80459770114942" fill="#dca100" stroke="black" stroke-width="0.5"/><circle cx="160.0" cy="44.20" r="2" fill="#ff7f0e"/><polygon points="160.0,31.195402298850567 165.0,36.19540229885057 160.0,41.19540229885057 155.0,36.19540229885057" fill="#dca100" stroke="black" stroke-width="0.5"/><circle cx="210.0" cy="44.20" r="2" fill="#ff7f0e"/><polygon points="210.0,31.195402298850567 215.0,36.19540229885057 210.0,41.19540229885057 205.0,36.19540229885057" fill="#dca100" stroke="black" stroke-width="0.5"/><circle cx="260.0" cy="75.80" r="2" fill="#ff7f0e"/><polygon points="260.0,62.80459770114942 265.0,67.80459770114942 260.0,72.80459770114942 255.0,67.80459770114942" fill="#dca100" stroke="black" stroke-width="0.5"/><circle cx="310.0" cy="75.80" r="2" fill="#ff7f0e"/><polygon points="310.0,62.80459770114942 315.0,67.80459770114942 310.0,72.80459770114942 305.0,67.80459770114942" fill="#dca100" stroke="black" stroke-width="0.5"/><circle cx="360.0" cy="44.20" r="2" fill="#ff7f0e"/><polygon points="360.0,31.195402298850567 365.0,36.19540229885057 360.0,41.19540229885057 355.0,36.19540229885057" fill="#dca100" stroke="black" stroke-width="0.5"/><circle cx="410.0" cy="12.59" r="2" fill="#ff7f0e"/><polygon points="410.0,-0.41379310344827047 415.0,4.5862068965517295 410.0,9.58620689655173 405.0,4.5862068965517295" fill="#dca100" stroke="black" stroke-width="0.5"/><circle cx="460.0" cy="44.20" r="2" fill="#ff7f0e"/><polygon points="460.00000000000006,41.19540229885057 455.00000000000006,31.195402298850567 465.00000000000006,31.195402298850567" fill="#d62728" stroke="black" stroke-width="0.5"/><circle cx="510.0" cy="107.41" r="2" fill="#ff7f0e"/><polygon points="510.0,94.41379310344828 515.0,99.41379310344828 510.0,104.41379310344828 505.0,99.41379310344828" fill="#dca100" stroke="black" stroke-width="0.5"/><circle cx="560.0" cy="107.41" r="2" fill="#ff7f0e"/><polygon points="560.0,94.41379310344828 565.0,99.41379310344828 560.0,104.41379310344828 555.0,99.41379310344828" fill="#dca100" stroke="black" stroke-width="0.5"/><circle cx="610.0" cy="107.41" r="2" fill="#ff7f0e"/><polygon points="610.0,94.41379310344828 615.0,99.41379310344828 610.0,104.41379310344828 605.0,99.41379310344828" fill="#dca100" stroke="black" stroke-width="0.5"/><circle cx="660.0" cy="107.41" r="2" fill="#ff7f0e"/><polygon points="660.0,94.41379310344828 665.0,99.41379310344828 660.0,104.41379310344828 655.0,99.41379310344828" fill="#dca100" stroke="black" stroke-width="0.5"/><circle cx="710.0" cy="107.41" r="2" fill="#ff7f0e"/><polygon points="710.0,94.41379310344828 715.0,99.41379310344828 710.0,104.41379310344828 705.0,99.41379310344828" fill="#dca100" stroke="black" stroke-width="0.5"/><text x="716" y="23" font-size="9" text-anchor="end" fill="#ff7f0e" font-family="sans-serif">rusage.wall_s (lower=better)</text></g><g transform="translate(40,304)"><text x="10.0" y="10" font-size="8" fill="#2ca02c" text-anchor="middle" font-family="monospace" transform="rotate(45 10.0 10)">edca85f</text><text x="60.0" y="10" font-size="8" fill="#222" text-anchor="middle" font-family="monospace" transform="rotate(45 60.0 10)">90ce69c</text><text x="110.0" y="10" font-size="8" fill="#222" text-anchor="middle" font-family="monospace" transform="rotate(45 110.0 10)">90ce69c</text><text x="160.0" y="10" font-size="8" fill="#222" text-anchor="middle" font-family="monospace" transform="rotate(45 160.0 10)">1856b24</text><text x="210.0" y="10" font-size="8" fill="#222" text-anchor="middle" font-family="monospace" transform="rotate(45 210.0 10)">a166d07</text><text x="260.0" y="10" font-size="8" fill="#222" text-anchor="middle" font-family="monospace" transform="rotate(45 260.0 10)">a166d07</text><text x="310.0" y="10" font-size="8" fill="#222" text-anchor="middle" font-family="monospace" transform="rotate(45 310.0 10)">a166d07</text><text x="360.0" y="10" font-size="8" fill="#222" text-anchor="middle" font-family="monospace" transform="rotate(45 360.0 10)">a166d07</text><text x="410.0" y="10" font-size="8" fill="#222" text-anchor="middle" font-family="monospace" transform="rotate(45 410.0 10)">a166d07</text><text x="460.0" y="10" font-size="8" fill="#222" text-anchor="middle" font-family="monospace" transform="rotate(45 460.0 10)">a166d07</text><text x="510.0" y="10" font-size="8" fill="#222" text-anchor="middle" font-family="monospace" transform="rotate(45 510.0 10)">a166d07</text><text x="560.0" y="10" font-size="8" fill="#222" text-anchor="middle" font-family="monospace" transform="rotate(45 560.0 10)">a166d07</text><text x="610.0" y="10" font-size="8" fill="#222" text-anchor="middle" font-family="monospace" transform="rotate(45 610.0 10)">a166d07</text><text x="660.0" y="10" font-size="8" fill="#222" text-anchor="middle" font-family="monospace" transform="rotate(45 660.0 10)">a166d07</text><text x="710.0" y="10" font-size="8" fill="#222" text-anchor="middle" font-family="monospace" transform="rotate(45 710.0 10)">a166d07</text></g><g transform="translate(540,340)"><text x="0" y="0" font-size="9" font-family="sans-serif">decisions:</text><polygon points="60,-9 55,1 65,1" fill="#2ca02c" stroke="black" stroke-width="0.5"/><text x="68" y="0" font-size="9" font-family="sans-serif">KEEP</text><polygon points="125,1 120,-9 130,-9" fill="#d62728" stroke="black" stroke-width="0.5"/><text x="133" y="0" font-size="9" font-family="sans-serif">DISCARD</text><polygon points="190,-9 195,-4 190,1 185,-4" fill="#dca100" stroke="black" stroke-width="0.5"/><text x="198" y="0" font-size="9" font-family="sans-serif">ESCALATE</text></g></svg>
