<?xml version="1.0" encoding="UTF-8"?>
<svg xmlns="http://www.w3.org/2000/svg" version="1.1" width="780" height="354" viewBox="0 0 780 354"><text x="40" y="18" font-size="13" font-family="sans-serif" font-weight="bold">benchmarkserversave -- LXC armv8-debian-13-armv8/odroid-n2 (armv8-processor-rev-4-v8l, aarch64, n=5)</text><g transform="translate(40,28)"><rect x="0" y="0" width="720" height="120" fill="white" stroke="#888" stroke-width="0.5"/><text x="4" y="-4" font-size="11" font-family="sans-serif">max_rss_kb</text><text x="2" y="10" font-size="8" fill="#444" font-family="sans-serif">7.8e+03</text><text x="2" y="118" font-size="8" fill="#444" font-family="sans-serif">7.63e+03</text><line x1="10.0" y1="0" x2="10.0" y2="120" stroke="#2ca02c" stroke-width="0.7" stroke-dasharray="3,2"/><polyline points="10.0,58.72 185.0,12.59 360.0,12.59 535.0,107.41 710.0,12.59" fill="none" stroke="#1f77b4" stroke-width="1.2"/><circle cx="10.0" cy="58.72" r="2" fill="#1f77b4"/><polygon points="10.0,45.71854613233924 5.0,55.71854613233924 15.0,55.71854613233924" fill="#2ca02c" stroke="black" stroke-width="0.5"/><circle cx="185.0" cy="12.59" r="2" fill="#1f77b4"/><polygon points="185.0,-0.4137931034481994 190.0,4.586206896551801 185.0,9.5862068965518 180.0,4.586206896551801" fill="#dca100" stroke="black" stroke-width="0.5"/><circle cx="360.0" cy="12.59" r="2" fill="#1f77b4"/><polygon points="360.0,-0.4137931034481994 365.0,4.586206896551801 360.0,9.5862068965518 355.0,4.586206896551801" fill="#dca100" stroke="black" stroke-width="0.5"/><circle cx="535.0" cy="107.41" r="2" fill="#1f77b4"/><polygon points="535.0,94.4137931034482 540.0,99.4137931034482 535.0,104.4137931034482 530.0,99.4137931034482" fill="#dca100" stroke="black" stroke-width="0.5"/><circle cx="710.0" cy="12.59" r="2" fill="#1f77b4"/><polygon points="710.0,-0.4137931034481994 715.0,4.586206896551801 710.0,9.5862068965518 705.0,4.586206896551801" fill="#dca100" stroke="black" stroke-width="0.5"/><text x="716" y="12" font-size="9" text-anchor="end" fill="#1f77b4" font-family="sans-serif">rusage.default.max_rss_kb (lower=better)</text><polyline points="10.0,58.72 185.0,12.59 360.0,12.59 535.0,107.41 710.0,12.59" fill="none" stroke="#ff7f0e" stroke-width="1.2"/><circle cx="10.0" cy="58.72" r="2" fill="#ff7f0e"/><polygon points="10.0,45.71854613233924 5.0,55.71854613233924 15.0,55.71854613233924" fill="#2ca02c" stroke="black" stroke-width="0.5"/><circle cx="185.0" cy="12.59" r="2" fill="#ff7f0e"/><polygon points="185.0,-0.4137931034481994 190.0,4.586206896551801 185.0,9.5862068965518 180.0,4.586206896551801" fill="#dca100" stroke="black" stroke-width="0.5"/><circle cx="360.0" cy="12.59" r="2" fill="#ff7f0e"/><polygon points="360.0,-0.4137931034481994 365.0,4.586206896551801 360.0,9.5862068965518 355.0,4.586206896551801" fill="#dca100" stroke="black" stroke-width="0.5"/><circle cx="535.0" cy="107.41" r="2" fill="#ff7f0e"/><polygon points="535.0,94.4137931034482 540.0,99.4137931034482 535.0,104.4137931034482 530.0,99.4137931034482" fill="#dca100" stroke="black" stroke-width="0.5"/><circle cx="710.0" cy="12.59" r="2" fill="#ff7f0e"/><polygon points="710.0,-0.4137931034481994 715.0,4.586206896551801 710.0,9.5862068965518 705.0,4.586206896551801" fill="#dca100" stroke="black" stroke-width="0.5"/><text x="716" y="23" font-size="9" text-anchor="end" fill="#ff7f0e" font-family="sans-serif">rusage.max_rss_kb (lower=better)</text></g><g transform="translate(40,166)"><rect x="0" y="0" width="720" height="120" fill="white" stroke="#888" stroke-width="0.5"/><text x="4" y="-4" font-size="11" font-family="sans-serif">wall_s</text><text x="2" y="10" font-size="8" fill="#444" font-family="sans-serif">0.612</text><text x="2" y="118" font-size="8" fill="#444" font-family="sans-serif">-0.0024</text><line x1="10.0" y1="0" x2="10.0" y2="120" stroke="#2ca02c" stroke-width="0.7" stroke-dasharray="3,2"/><polyline points="10.0,12.59 185.0,107.41 360.0,107.41 535.0,107.41 710.0,107.41" fill="none" stroke="#1f77b4" stroke-width="1.2"/><circle cx="10.0" cy="12.59" r="2" fill="#1f77b4"/><polygon points="10.0,-0.41379310344827047 5.0,9.58620689655173 15.0,9.58620689655173" fill="#2ca02c" stroke="black" stroke-width="0.5"/><circle cx="185.0" cy="107.41" r="2" fill="#1f77b4"/><polygon points="185.0,94.41379310344827 190.0,99.41379310344827 185.0,104.41379310344827 180.0,99.41379310344827" fill="#dca100" stroke="black" stroke-width="0.5"/><circle cx="360.0" cy="107.41" r="2" fill="#1f77b4"/><polygon points="360.0,94.41379310344827 365.0,99.41379310344827 360.0,104.41379310344827 355.0,99.41379310344827" fill="#dca100" stroke="black" stroke-width="0.5"/><circle cx="535.0" cy="107.41" r="2" fill="#1f77b4"/><polygon points="535.0,94.41379310344827 540.0,99.41379310344827 535.0,104.41379310344827 530.0,99.41379310344827" fill="#dca100" stroke="black" stroke-width="0.5"/><circle cx="710.0" cy="107.41" r="2" fill="#1f77b4"/><polygon points="710.0,94.41379310344827 715.0,99.41379310344827 710.0,104.41379310344827 705.0,99.41379310344827" fill="#dca100" stroke="black" stroke-width="0.5"/><text x="716" y="12" font-size="9" text-anchor="end" fill="#1f77b4" font-family="sans-serif">rusage.default.wall_s (lower=better)</text><polyline points="10.0,12.59 185.0,107.41 360.0,107.41 535.0,107.41 710.0,107.41" fill="none" stroke="#ff7f0e" stroke-width="1.2"/><circle cx="10.0" cy="12.59" r="2" fill="#ff7f0e"/><polygon points="10.0,-0.41379310344827047 5.0,9.58620689655173 15.0,9.58620689655173" fill="#2ca02c" stroke="black" stroke-width="0.5"/><circle cx="185.0" cy="107.41" r="2" fill="#ff7f0e"/><polygon points="185.0,94.41379310344827 190.0,99.41379310344827 185.0,104.41379310344827 180.0,99.41379310344827" fill="#dca100" stroke="black" stroke-width="0.5"/><circle cx="360.0" cy="107.41" r="2" fill="#ff7f0e"/><polygon points="360.0,94.41379310344827 365.0,99.41379310344827 360.0,104.41379310344827 355.0,99.41379310344827" fill="#dca100" stroke="black" stroke-width="0.5"/><circle cx="535.0" cy="107.41" r="2" fill="#ff7f0e"/><polygon points="535.0,94.41379310344827 540.0,99.41379310344827 535.0,104.41379310344827 530.0,99.41379310344827" fill="#dca100" stroke="black" stroke-width="0.5"/><circle cx="710.0" cy="107.41" r="2" fill="#ff7f0e"/><polygon points="710.0,94.41379310344827 715.0,99.41379310344827 710.0,104.41379310344827 705.0,99.41379310344827" fill="#dca100" stroke="black" stroke-width="0.5"/><text x="716" y="23" font-size="9" text-anchor="end" fill="#ff7f0e" font-family="sans-serif">rusage.wall_s (lower=better)</text></g><g transform="translate(40,304)"><text x="10.0" y="10" font-size="8" fill="#2ca02c" text-anchor="middle" font-family="monospace" transform="rotate(45 10.0 10)">3d5154e</text><text x="185.0" y="10" font-size="8" fill="#222" text-anchor="middle" font-family="monospace" transform="rotate(45 185.0 10)">3d5154e</text><text x="360.0" y="10" font-size="8" fill="#222" text-anchor="middle" font-family="monospace" transform="rotate(45 360.0 10)">3d5154e</text><text x="535.0" y="10" font-size="8" fill="#222" text-anchor="middle" font-family="monospace" transform="rotate(45 535.0 10)">3d5154e</text><text x="710.0" y="10" font-size="8" fill="#222" text-anchor="middle" font-family="monospace" transform="rotate(45 710.0 10)">3d5154e</text></g><g transform="translate(540,340)"><text x="0" y="0" font-size="9" font-family="sans-serif">decisions:</text><polygon points="60,-9 55,1 65,1" fill="#2ca02c" stroke="black" stroke-width="0.5"/><text x="68" y="0" font-size="9" font-family="sans-serif">KEEP</text><polygon points="125,1 120,-9 130,-9" fill="#d62728" stroke="black" stroke-width="0.5"/><text x="133" y="0" font-size="9" font-family="sans-serif">DISCARD</text><polygon points="190,-9 195,-4 190,1 185,-4" fill="#dca100" stroke="black" stroke-width="0.5"/><text x="198" y="0" font-size="9" font-family="sans-serif">ESCALATE</text></g></svg>
