<?xml version="1.0" encoding="UTF-8"?>
<svg xmlns="http://www.w3.org/2000/svg" version="1.1" width="780" height="906" viewBox="0 0 780 906"><text x="40" y="18" font-size="13" font-family="sans-serif" font-weight="bold">benchmarkserversave -- LXC armv8-debian-13-armv8/rpi4 (unknown-cpu, aarch64, n=6)</text><g transform="translate(40,28)"><rect x="0" y="0" width="720" height="120" fill="white" stroke="#888" stroke-width="0.5"/><text x="4" y="-4" font-size="11" font-family="sans-serif">branch-misses</text><text x="2" y="10" font-size="8" fill="#444" font-family="sans-serif">4.27e+05</text><text x="2" y="118" font-size="8" fill="#444" font-family="sans-serif">4.03e+05</text><line x1="10.0" y1="0" x2="10.0" y2="120" stroke="#2ca02c" stroke-width="0.7" stroke-dasharray="3,2"/><polyline points="10.0,104.74 150.0,105.21 290.0,12.59 430.0,86.86 570.0,107.41 710.0,78.74" fill="none" stroke="#1f77b4" stroke-width="1.2"/><circle cx="10.0" cy="104.74" r="2" fill="#1f77b4"/><polygon points="10.0,91.73823282793575 5.0,101.73823282793575 15.0,101.73823282793575" fill="#2ca02c" stroke="black" stroke-width="0.5"/><circle cx="150.0" cy="105.21" r="2" fill="#1f77b4"/><polygon points="150.0,92.20957505263745 155.0,97.20957505263745 150.0,102.20957505263745 145.0,97.20957505263745" fill="#dca100" stroke="black" stroke-width="0.5"/><circle cx="290.0" cy="12.59" r="2" fill="#1f77b4"/><circle cx="430.0" cy="86.86" r="2" fill="#1f77b4"/><polygon points="430.0,73.8595753046921 435.0,78.8595753046921 430.0,83.8595753046921 425.0,78.8595753046921" fill="#dca100" stroke="black" stroke-width="0.5"/><circle cx="570.0" cy="107.41" r="2" fill="#1f77b4"/><polygon points="570.0,94.4137931034483 575.0,99.4137931034483 570.0,104.4137931034483 565.0,99.4137931034483" fill="#dca100" stroke="black" stroke-width="0.5"/><circle cx="710.0" cy="78.74" r="2" fill="#1f77b4"/><polygon points="710.0,65.74047443409528 715.0,70.74047443409528 710.0,75.74047443409528 705.0,70.74047443409528" fill="#dca100" stroke="black" stroke-width="0.5"/><text x="716" y="12" font-size="9" text-anchor="end" fill="#1f77b4" font-family="sans-serif">perf-stat.branch-misses (lower=better)</text></g><g transform="translate(40,166)"><rect x="0" y="0" width="720" height="120" fill="white" stroke="#888" stroke-width="0.5"/><text x="4" y="-4" font-size="11" font-family="sans-serif">cache-misses</text><text x="2" y="10" font-size="8" fill="#444" font-family="sans-serif">3.81e+05</text><text x="2" y="118" font-size="8" fill="#444" font-family="sans-serif">3.51e+05</text><line x1="10.0" y1="0" x2="10.0" y2="120" stroke="#2ca02c" stroke-width="0.7" stroke-dasharray="3,2"/><polyline points="10.0,70.66 150.0,107.41 290.0,12.59 430.0,94.46 570.0,59.41 710.0,37.93" fill="none" stroke="#1f77b4" stroke-width="1.2"/><circle cx="10.0" cy="70.66" r="2" fill="#1f77b4"/><polygon points="10.0,57.661264564973095 5.0,67.6612645649731 15.0,67.6612645649731" fill="#2ca02c" stroke="black" stroke-width="0.5"/><circle cx="150.0" cy="107.41" r="2" fill="#1f77b4"/><polygon points="150.0,94.41379310344836 155.0,99.41379310344836 150.0,104.41379310344836 145.0,99.41379310344836" fill="#dca100" stroke="black" stroke-width="0.5"/><circle cx="290.0" cy="12.59" r="2" fill="#1f77b4"/><circle cx="430.0" cy="94.46" r="2" fill="#1f77b4"/><polygon points="430.0,81.46057845862666 435.0,86.46057845862666 430.0,91.46057845862666 425.0,86.46057845862666" fill="#dca100" stroke="black" stroke-width="0.5"/><circle cx="570.0" cy="59.41" r="2" fill="#1f77b4"/><polygon points="570.0,46.40852901165198 575.0,51.40852901165198 570.0,56.40852901165198 565.0,51.40852901165198" fill="#dca100" stroke="black" stroke-width="0.5"/><circle cx="710.0" cy="37.93" r="2" fill="#1f77b4"/><polygon points="710.0,24.92704205358723 715.0,29.92704205358723 710.0,34.92704205358723 705.0,29.92704205358723" fill="#dca100" stroke="black" stroke-width="0.5"/><text x="716" y="12" font-size="9" text-anchor="end" fill="#1f77b4" font-family="sans-serif">perf-stat.cache-misses (lower=better)</text></g><g transform="translate(40,304)"><rect x="0" y="0" width="720" height="120" fill="white" stroke="#888" stroke-width="0.5"/><text x="4" y="-4" font-size="11" font-family="sans-serif">cycles</text><text x="2" y="10" font-size="8" fill="#444" font-family="sans-serif">8.9e+07</text><text x="2" y="118" font-size="8" fill="#444" font-family="sans-serif">8.52e+07</text><line x1="10.0" y1="0" x2="10.0" y2="120" stroke="#2ca02c" stroke-width="0.7" stroke-dasharray="3,2"/><polyline points="10.0,106.38 150.0,106.53 290.0,12.59 430.0,105.79 570.0,107.41 710.0,84.32" fill="none" stroke="#1f77b4" stroke-width="1.2"/><circle cx="10.0" cy="106.38" r="2" fill="#1f77b4"/><polygon points="10.0,93.38256081553601 5.0,103.38256081553601 15.0,103.38256081553601" fill="#2ca02c" stroke="black" stroke-width="0.5"/><circle cx="150.0" cy="106.53" r="2" fill="#1f77b4"/><polygon points="150.0,93.52996245399353 155.0,98.52996245399353 150.0,103.52996245399353 145.0,98.52996245399353" fill="#dca100" stroke="black" stroke-width="0.5"/><circle cx="290.0" cy="12.59" r="2" fill="#1f77b4"/><circle cx="430.0" cy="105.79" r="2" fill="#1f77b4"/><polygon points="430.0,92.78861040202636 435.0,97.78861040202636 430.0,102.78861040202636 425.0,97.78861040202636" fill="#dca100" stroke="black" stroke-width="0.5"/><circle cx="570.0" cy="107.41" r="2" fill="#1f77b4"/><polygon points="570.0,94.41379310344816 575.0,99.41379310344816 570.0,104.41379310344816 565.0,99.41379310344816" fill="#dca100" stroke="black" stroke-width="0.5"/><circle cx="710.0" cy="84.32" r="2" fill="#1f77b4"/><polygon points="710.0,71.32351467299455 715.0,76.32351467299455 710.0,81.32351467299455 705.0,76.32351467299455" fill="#dca100" stroke="black" stroke-width="0.5"/><text x="716" y="12" font-size="9" text-anchor="end" fill="#1f77b4" font-family="sans-serif">perf-stat.cycles (lower=better)</text></g><g transform="translate(40,442)"><rect x="0" y="0" width="720" height="120" fill="white" stroke="#888" stroke-width="0.5"/><text x="4" y="-4" font-size="11" font-family="sans-serif">instructions</text><text x="2" y="10" font-size="8" fill="#444" font-family="sans-serif">9.39e+07</text><text x="2" y="118" font-size="8" fill="#444" font-family="sans-serif">9.29e+07</text><line x1="10.0" y1="0" x2="10.0" y2="120" stroke="#2ca02c" stroke-width="0.7" stroke-dasharray="3,2"/><polyline points="10.0,107.41 150.0,102.74 290.0,12.59 430.0,99.93 570.0,104.63 710.0,104.74" fill="none" stroke="#1f77b4" stroke-width="1.2"/><circle cx="10.0" cy="107.41" r="2" fill="#1f77b4"/><polygon points="10.0,94.41379310344895 5.0,104.41379310344895 15.0,104.41379310344895" fill="#2ca02c" stroke="black" stroke-width="0.5"/><circle cx="150.0" cy="102.74" r="2" fill="#1f77b4"/><polygon points="150.0,89.74170062885526 155.0,94.74170062885526 150.0,99.74170062885526 145.0,94.74170062885526" fill="#dca100" stroke="black" stroke-width="0.5"/><circle cx="290.0" cy="12.59" r="2" fill="#1f77b4"/><circle cx="430.0" cy="99.93" r="2" fill="#1f77b4"/><polygon points="430.0,86.92772793960447 435.0,91.92772793960447 430.0,96.92772793960447 425.0,91.92772793960447" fill="#dca100" stroke="black" stroke-width="0.5"/><circle cx="570.0" cy="104.63" r="2" fill="#1f77b4"/><polygon points="570.0,91.6250373659501 575.0,96.6250373659501 570.0,101.6250373659501 565.0,96.6250373659501" fill="#dca100" stroke="black" stroke-width="0.5"/><circle cx="710.0" cy="104.74" r="2" fill="#1f77b4"/><polygon points="710.0,91.73623107992529 715.0,96.73623107992529 710.0,101.73623107992529 705.0,96.73623107992529" fill="#dca100" stroke="black" stroke-width="0.5"/><text x="716" y="12" font-size="9" text-anchor="end" fill="#1f77b4" font-family="sans-serif">perf-stat.instructions (lower=better)</text></g><g transform="translate(40,580)"><rect x="0" y="0" width="720" height="120" fill="white" stroke="#888" stroke-width="0.5"/><text x="4" y="-4" font-size="11" font-family="sans-serif">max_rss_kb</text><text x="2" y="10" font-size="8" fill="#444" font-family="sans-serif">7.25e+03</text><text x="2" y="118" font-size="8" fill="#444" font-family="sans-serif">7.06e+03</text><line x1="10.0" y1="0" x2="10.0" y2="120" stroke="#2ca02c" stroke-width="0.7" stroke-dasharray="3,2"/><polyline points="10.0,12.59 150.0,12.59 290.0,102.79 430.0,107.41 570.0,19.52 710.0,14.90" fill="none" stroke="#1f77b4" stroke-width="1.2"/><circle cx="10.0" cy="12.59" r="2" fill="#1f77b4"/><polygon points="10.0,-0.4137931034483273 5.0,9.586206896551673 15.0,9.586206896551673" fill="#2ca02c" stroke="black" stroke-width="0.5"/><circle cx="150.0" cy="12.59" r="2" fill="#1f77b4"/><polygon points="150.0,-0.4137931034483273 155.0,4.586206896551673 150.0,9.586206896551673 145.0,4.586206896551673" fill="#dca100" stroke="black" stroke-width="0.5"/><circle cx="290.0" cy="102.79" r="2" fill="#1f77b4"/><circle cx="430.0" cy="107.41" r="2" fill="#1f77b4"/><polygon points="430.0,94.41379310344833 435.0,99.41379310344833 430.0,104.41379310344833 425.0,99.41379310344833" fill="#dca100" stroke="black" stroke-width="0.5"/><circle cx="570.0" cy="19.52" r="2" fill="#1f77b4"/><polygon points="570.0,6.524810765348988 575.0,11.524810765348988 570.0,16.524810765348988 565.0,11.524810765348988" fill="#dca100" stroke="black" stroke-width="0.5"/><circle cx="710.0" cy="14.90" r="2" fill="#1f77b4"/><polygon points="710.0,1.8990748528174493 715.0,6.899074852817449 710.0,11.89907485281745 705.0,6.899074852817449" fill="#dca100" stroke="black" stroke-width="0.5"/><text x="716" y="12" font-size="9" text-anchor="end" fill="#1f77b4" font-family="sans-serif">rusage.default.max_rss_kb (lower=better)</text><polyline points="10.0,12.59 150.0,12.59 290.0,102.79 430.0,107.41 570.0,19.52 710.0,14.90" fill="none" stroke="#ff7f0e" stroke-width="1.2"/><circle cx="10.0" cy="12.59" r="2" fill="#ff7f0e"/><polygon points="10.0,-0.4137931034483273 5.0,9.586206896551673 15.0,9.586206896551673" fill="#2ca02c" stroke="black" stroke-width="0.5"/><circle cx="150.0" cy="12.59" r="2" fill="#ff7f0e"/><polygon points="150.0,-0.4137931034483273 155.0,4.586206896551673 150.0,9.586206896551673 145.0,4.586206896551673" fill="#dca100" stroke="black" stroke-width="0.5"/><circle cx="290.0" cy="102.79" r="2" fill="#ff7f0e"/><circle cx="430.0" cy="107.41" r="2" fill="#ff7f0e"/><polygon points="430.0,94.41379310344833 435.0,99.41379310344833 430.0,104.41379310344833 425.0,99.41379310344833" fill="#dca100" stroke="black" stroke-width="0.5"/><circle cx="570.0" cy="19.52" r="2" fill="#ff7f0e"/><polygon points="570.0,6.524810765348988 575.0,11.524810765348988 570.0,16.524810765348988 565.0,11.524810765348988" fill="#dca100" stroke="black" stroke-width="0.5"/><circle cx="710.0" cy="14.90" r="2" fill="#ff7f0e"/><polygon points="710.0,1.8990748528174493 715.0,6.899074852817449 710.0,11.89907485281745 705.0,6.899074852817449" fill="#dca100" stroke="black" stroke-width="0.5"/><text x="716" y="23" font-size="9" text-anchor="end" fill="#ff7f0e" font-family="sans-serif">rusage.max_rss_kb (lower=better)</text></g><g transform="translate(40,718)"><rect x="0" y="0" width="720" height="120" fill="white" stroke="#888" stroke-width="0.5"/><text x="4" y="-4" font-size="11" font-family="sans-serif">wall_s</text><text x="2" y="10" font-size="8" fill="#444" font-family="sans-serif">0.103</text><text x="2" y="118" font-size="8" fill="#444" font-family="sans-serif">0.0568</text><line x1="10.0" y1="0" x2="10.0" y2="120" stroke="#2ca02c" stroke-width="0.7" stroke-dasharray="3,2"/><polyline points="10.0,107.41 150.0,12.59 290.0,36.29 430.0,107.41 570.0,107.41 710.0,83.71" fill="none" stroke="#1f77b4" stroke-width="1.2"/><circle cx="10.0" cy="107.41" r="2" fill="#1f77b4"/><polygon points="10.0,94.41379310344827 5.0,104.41379310344827 15.0,104.41379310344827" fill="#2ca02c" stroke="black" stroke-width="0.5"/><circle cx="150.0" cy="12.59" r="2" fill="#1f77b4"/><polygon points="150.0,-0.4137931034482847 155.0,4.586206896551715 150.0,9.586206896551715 145.0,4.586206896551715" fill="#dca100" stroke="black" stroke-width="0.5"/><circle cx="290.0" cy="36.29" r="2" fill="#1f77b4"/><circle cx="430.0" cy="107.41" r="2" fill="#1f77b4"/><polygon points="430.0,94.41379310344827 435.0,99.41379310344827 430.0,104.41379310344827 425.0,99.41379310344827" fill="#dca100" stroke="black" stroke-width="0.5"/><circle cx="570.0" cy="107.41" r="2" fill="#1f77b4"/><polygon points="570.0,94.41379310344827 575.0,99.41379310344827 570.0,104.41379310344827 565.0,99.41379310344827" fill="#dca100" stroke="black" stroke-width="0.5"/><circle cx="710.0" cy="83.71" r="2" fill="#1f77b4"/><polygon points="710.0,70.70689655172411 715.0,75.70689655172411 710.0,80.70689655172411 705.0,75.70689655172411" fill="#dca100" stroke="black" stroke-width="0.5"/><text x="716" y="12" font-size="9" text-anchor="end" fill="#1f77b4" font-family="sans-serif">rusage.default.wall_s (lower=better)</text><polyline points="10.0,107.41 150.0,12.59 290.0,36.29 430.0,107.41 570.0,107.41 710.0,83.71" fill="none" stroke="#ff7f0e" stroke-width="1.2"/><circle cx="10.0" cy="107.41" r="2" fill="#ff7f0e"/><polygon points="10.0,94.41379310344827 5.0,104.41379310344827 15.0,104.41379310344827" fill="#2ca02c" stroke="black" stroke-width="0.5"/><circle cx="150.0" cy="12.59" r="2" fill="#ff7f0e"/><polygon points="150.0,-0.4137931034482847 155.0,4.586206896551715 150.0,9.586206896551715 145.0,4.586206896551715" fill="#dca100" stroke="black" stroke-width="0.5"/><circle cx="290.0" cy="36.29" r="2" fill="#ff7f0e"/><circle cx="430.0" cy="107.41" r="2" fill="#ff7f0e"/><polygon points="430.0,94.41379310344827 435.0,99.41379310344827 430.0,104.41379310344827 425.0,99.41379310344827" fill="#dca100" stroke="black" stroke-width="0.5"/><circle cx="570.0" cy="107.41" r="2" fill="#ff7f0e"/><polygon points="570.0,94.41379310344827 575.0,99.41379310344827 570.0,104.41379310344827 565.0,99.41379310344827" fill="#dca100" stroke="black" stroke-width="0.5"/><circle cx="710.0" cy="83.71" r="2" fill="#ff7f0e"/><polygon points="710.0,70.70689655172411 715.0,75.70689655172411 710.0,80.70689655172411 705.0,75.70689655172411" fill="#dca100" stroke="black" stroke-width="0.5"/><text x="716" y="23" font-size="9" text-anchor="end" fill="#ff7f0e" font-family="sans-serif">rusage.wall_s (lower=better)</text></g><g transform="translate(40,856)"><text x="10.0" y="10" font-size="8" fill="#2ca02c" text-anchor="middle" font-family="monospace" transform="rotate(45 10.0 10)">3d5154e</text><text x="150.0" y="10" font-size="8" fill="#222" text-anchor="middle" font-family="monospace" transform="rotate(45 150.0 10)">3d5154e</text><text x="290.0" y="10" font-size="8" fill="#222" text-anchor="middle" font-family="monospace" transform="rotate(45 290.0 10)">3d5154e</text><text x="430.0" y="10" font-size="8" fill="#222" text-anchor="middle" font-family="monospace" transform="rotate(45 430.0 10)">3d5154e</text><text x="570.0" y="10" font-size="8" fill="#222" text-anchor="middle" font-family="monospace" transform="rotate(45 570.0 10)">3d5154e</text><text x="710.0" y="10" font-size="8" fill="#222" text-anchor="middle" font-family="monospace" transform="rotate(45 710.0 10)">3d5154e</text></g><g transform="translate(540,892)"><text x="0" y="0" font-size="9" font-family="sans-serif">decisions:</text><polygon points="60,-9 55,1 65,1" fill="#2ca02c" stroke="black" stroke-width="0.5"/><text x="68" y="0" font-size="9" font-family="sans-serif">KEEP</text><polygon points="125,1 120,-9 130,-9" fill="#d62728" stroke="black" stroke-width="0.5"/><text x="133" y="0" font-size="9" font-family="sans-serif">DISCARD</text><polygon points="190,-9 195,-4 190,1 185,-4" fill="#dca100" stroke="black" stroke-width="0.5"/><text x="198" y="0" font-size="9" font-family="sans-serif">ESCALATE</text></g></svg>
