<?xml version="1.0" encoding="UTF-8"?>
<svg xmlns="http://www.w3.org/2000/svg" version="1.1" width="780" height="906" viewBox="0 0 780 906"><text x="40" y="18" font-size="13" font-family="sans-serif" font-weight="bold">benchmarkserversave -- LXC armv8-debian-13-armv8/rpi4 (unknown-cpu, aarch64, n=9)</text><g transform="translate(40,28)"><rect x="0" y="0" width="720" height="120" fill="white" stroke="#888" stroke-width="0.5"/><text x="4" y="-4" font-size="11" font-family="sans-serif">branch-misses</text><text x="2" y="10" font-size="8" fill="#444" font-family="sans-serif">4.53e+05</text><text x="2" y="118" font-size="8" fill="#444" font-family="sans-serif">4.11e+05</text><line x1="10.0" y1="0" x2="10.0" y2="120" stroke="#2ca02c" stroke-width="0.7" stroke-dasharray="3,2"/><polyline points="10.0,44.01 97.5,107.41 185.0,103.40 272.5,92.17 360.0,102.46 447.5,89.70 535.0,12.59 622.5,104.32 710.0,91.81" fill="none" stroke="#1f77b4" stroke-width="1.2"/><circle cx="10.0" cy="44.01" r="2" fill="#1f77b4"/><polygon points="10.0,31.00625953138865 5.0,41.00625953138865 15.0,41.00625953138865" fill="#2ca02c" stroke="black" stroke-width="0.5"/><circle cx="97.5" cy="107.41" r="2" fill="#1f77b4"/><polygon points="97.5,94.41379310344821 102.5,99.41379310344821 97.5,104.41379310344821 92.5,99.41379310344821" fill="#dca100" stroke="black" stroke-width="0.5"/><circle cx="185.0" cy="103.40" r="2" fill="#1f77b4"/><polygon points="185.0,90.39794825429036 190.0,95.39794825429036 185.0,100.39794825429036 180.0,95.39794825429036" fill="#dca100" stroke="black" stroke-width="0.5"/><circle cx="272.5" cy="92.17" r="2" fill="#1f77b4"/><polygon points="272.5,79.17318474527623 277.5,84.17318474527623 272.5,89.17318474527623 267.5,84.17318474527623" fill="#dca100" stroke="black" stroke-width="0.5"/><circle cx="360.0" cy="102.46" r="2" fill="#1f77b4"/><polygon points="360.0,89.45653311624115 365.0,94.45653311624115 360.0,99.45653311624115 355.0,94.45653311624115" fill="#dca100" stroke="black" stroke-width="0.5"/><circle cx="447.5" cy="89.70" r="2" fill="#1f77b4"/><polygon points="447.5,76.7022924103416 452.5,81.7022924103416 447.5,86.7022924103416 442.5,81.7022924103416" fill="#dca100" stroke="black" stroke-width="0.5"/><circle cx="535.0" cy="12.59" r="2" fill="#1f77b4"/><polygon points="535.0,-0.41379310344821363 540.0,4.586206896551786 535.0,9.586206896551786 530.0,4.586206896551786" fill="#dca100" stroke="black" stroke-width="0.5"/><circle cx="622.5" cy="104.32" r="2" fill="#1f77b4"/><polygon points="622.5,91.31872963588917 627.5,96.31872963588917 622.5,101.31872963588917 617.5,96.31872963588917" fill="#dca100" stroke="black" stroke-width="0.5"/><circle cx="710.0" cy="91.81" r="2" fill="#1f77b4"/><polygon points="710.0,78.81467322695065 715.0,83.81467322695065 710.0,88.81467322695065 705.0,83.81467322695065" fill="#dca100" stroke="black" stroke-width="0.5"/><text x="716" y="12" font-size="9" text-anchor="end" fill="#1f77b4" font-family="sans-serif">perf-stat.branch-misses (lower=better)</text></g><g transform="translate(40,166)"><rect x="0" y="0" width="720" height="120" fill="white" stroke="#888" stroke-width="0.5"/><text x="4" y="-4" font-size="11" font-family="sans-serif">cache-misses</text><text x="2" y="10" font-size="8" fill="#444" font-family="sans-serif">4.53e+05</text><text x="2" y="118" font-size="8" fill="#444" font-family="sans-serif">3.64e+05</text><line x1="10.0" y1="0" x2="10.0" y2="120" stroke="#2ca02c" stroke-width="0.7" stroke-dasharray="3,2"/><polyline points="10.0,43.03 97.5,87.26 185.0,97.59 272.5,50.30 360.0,107.41 447.5,95.25 535.0,12.59 622.5,64.86 710.0,100.53" fill="none" stroke="#1f77b4" stroke-width="1.2"/><circle cx="10.0" cy="43.03" r="2" fill="#1f77b4"/><polygon points="10.0,30.033098865369922 5.0,40.03309886536992 15.0,40.03309886536992" fill="#2ca02c" stroke="black" stroke-width="0.5"/><circle cx="97.5" cy="87.26" r="2" fill="#1f77b4"/><polygon points="97.5,74.26017102899772 102.5,79.26017102899772 97.5,84.26017102899772 92.5,79.26017102899772" fill="#dca100" stroke="black" stroke-width="0.5"/><circle cx="185.0" cy="97.59" r="2" fill="#1f77b4"/><polygon points="185.0,84.59065448046718 190.0,89.59065448046718 185.0,94.59065448046718 180.0,89.59065448046718" fill="#dca100" stroke="black" stroke-width="0.5"/><circle cx="272.5" cy="50.30" r="2" fill="#1f77b4"/><polygon points="272.5,37.29966611545494 277.5,42.29966611545494 272.5,47.29966611545494 267.5,42.29966611545494" fill="#dca100" stroke="black" stroke-width="0.5"/><circle cx="360.0" cy="107.41" r="2" fill="#1f77b4"/><polygon points="360.0,94.41379310344828 365.0,99.41379310344828 360.0,104.41379310344828 355.0,99.41379310344828" fill="#dca100" stroke="black" stroke-width="0.5"/><circle cx="447.5" cy="95.25" r="2" fill="#1f77b4"/><polygon points="447.5,82.24868128685834 452.5,87.24868128685834 447.5,92.24868128685834 442.5,87.24868128685834" fill="#dca100" stroke="black" stroke-width="0.5"/><circle cx="535.0" cy="12.59" r="2" fill="#1f77b4"/><polygon points="535.0,-0.4137931034482847 540.0,4.586206896551715 535.0,9.586206896551715 530.0,4.586206896551715" fill="#dca100" stroke="black" stroke-width="0.5"/><circle cx="622.5" cy="64.86" r="2" fill="#1f77b4"/><polygon points="622.5,51.855128749886106 627.5,56.855128749886106 622.5,61.855128749886106 617.5,56.855128749886106" fill="#dca100" stroke="black" stroke-width="0.5"/><circle cx="710.0" cy="100.53" r="2" fill="#1f77b4"/><polygon points="710.0,87.53424684722233 715.0,92.53424684722233 710.0,97.53424684722233 705.0,92.53424684722233" fill="#dca100" stroke="black" stroke-width="0.5"/><text x="716" y="12" font-size="9" text-anchor="end" fill="#1f77b4" font-family="sans-serif">perf-stat.cache-misses (lower=better)</text></g><g transform="translate(40,304)"><rect x="0" y="0" width="720" height="120" fill="white" stroke="#888" stroke-width="0.5"/><text x="4" y="-4" font-size="11" font-family="sans-serif">cycles</text><text x="2" y="10" font-size="8" fill="#444" font-family="sans-serif">9.85e+07</text><text x="2" y="118" font-size="8" fill="#444" font-family="sans-serif">8.88e+07</text><line x1="10.0" y1="0" x2="10.0" y2="120" stroke="#2ca02c" stroke-width="0.7" stroke-dasharray="3,2"/><polyline points="10.0,71.41 97.5,103.03 185.0,104.45 272.5,100.02 360.0,107.41 447.5,102.76 535.0,12.59 622.5,104.65 710.0,103.50" fill="none" stroke="#1f77b4" stroke-width="1.2"/><circle cx="10.0" cy="71.41" r="2" fill="#1f77b4"/><polygon points="10.0,58.41202776392086 5.0,68.41202776392086 15.0,68.41202776392086" fill="#2ca02c" stroke="black" stroke-width="0.5"/><circle cx="97.5" cy="103.03" r="2" fill="#1f77b4"/><polygon points="97.5,90.02945256873429 102.5,95.02945256873429 97.5,100.02945256873429 92.5,95.02945256873429" fill="#dca100" stroke="black" stroke-width="0.5"/><circle cx="185.0" cy="104.45" r="2" fill="#1f77b4"/><polygon points="185.0,91.4518644383752 190.0,96.4518644383752 185.0,101.4518644383752 180.0,96.4518644383752" fill="#dca100" stroke="black" stroke-width="0.5"/><circle cx="272.5" cy="100.02" r="2" fill="#1f77b4"/><polygon points="272.5,87.01678975030383 277.5,92.01678975030383 272.5,97.01678975030383 267.5,92.01678975030383" fill="#dca100" stroke="black" stroke-width="0.5"/><circle cx="360.0" cy="107.41" r="2" fill="#1f77b4"/><polygon points="360.0,94.41379310344833 365.0,99.41379310344833 360.0,104.41379310344833 355.0,99.41379310344833" fill="#dca100" stroke="black" stroke-width="0.5"/><circle cx="447.5" cy="102.76" r="2" fill="#1f77b4"/><polygon points="447.5,89.75957945859179 452.5,94.75957945859179 447.5,99.75957945859179 442.5,94.75957945859179" fill="#dca100" stroke="black" stroke-width="0.5"/><circle cx="535.0" cy="12.59" r="2" fill="#1f77b4"/><polygon points="535.0,-0.4137931034483273 540.0,4.586206896551673 535.0,9.586206896551673 530.0,4.586206896551673" fill="#dca100" stroke="black" stroke-width="0.5"/><circle cx="622.5" cy="104.65" r="2" fill="#1f77b4"/><polygon points="622.5,91.65182534209599 627.5,96.65182534209599 622.5,101.65182534209599 617.5,96.65182534209599" fill="#dca100" stroke="black" stroke-width="0.5"/><circle cx="710.0" cy="103.50" r="2" fill="#1f77b4"/><polygon points="710.0,90.49946761436694 715.0,95.49946761436694 710.0,100.49946761436694 705.0,95.49946761436694" fill="#dca100" stroke="black" stroke-width="0.5"/><text x="716" y="12" font-size="9" text-anchor="end" fill="#1f77b4" font-family="sans-serif">perf-stat.cycles (lower=better)</text></g><g transform="translate(40,442)"><rect x="0" y="0" width="720" height="120" fill="white" stroke="#888" stroke-width="0.5"/><text x="4" y="-4" font-size="11" font-family="sans-serif">instructions</text><text x="2" y="10" font-size="8" fill="#444" font-family="sans-serif">1.04e+08</text><text x="2" y="118" font-size="8" fill="#444" font-family="sans-serif">9.79e+07</text><line x1="10.0" y1="0" x2="10.0" y2="120" stroke="#2ca02c" stroke-width="0.7" stroke-dasharray="3,2"/><polyline points="10.0,90.96 97.5,106.04 185.0,107.04 272.5,104.53 360.0,106.58 447.5,107.41 535.0,12.59 622.5,106.13 710.0,105.88" fill="none" stroke="#1f77b4" stroke-width="1.2"/><circle cx="10.0" cy="90.96" r="2" fill="#1f77b4"/><polygon points="10.0,77.95797833396637 5.0,87.95797833396637 15.0,87.95797833396637" fill="#2ca02c" stroke="black" stroke-width="0.5"/><circle cx="97.5" cy="106.04" r="2" fill="#1f77b4"/><polygon points="97.5,93.03721696606588 102.5,98.03721696606588 97.5,103.03721696606588 92.5,98.03721696606588" fill="#dca100" stroke="black" stroke-width="0.5"/><circle cx="185.0" cy="107.04" r="2" fill="#1f77b4"/><polygon points="185.0,94.03728022730886 190.0,99.03728022730886 185.0,104.03728022730886 180.0,99.03728022730886" fill="#dca100" stroke="black" stroke-width="0.5"/><circle cx="272.5" cy="104.53" r="2" fill="#1f77b4"/><polygon points="272.5,91.53463933447918 277.5,96.53463933447918 272.5,101.53463933447918 267.5,96.53463933447918" fill="#dca100" stroke="black" stroke-width="0.5"/><circle cx="360.0" cy="106.58" r="2" fill="#1f77b4"/><polygon points="360.0,93.57757103747284 365.0,98.57757103747284 360.0,103.57757103747284 355.0,98.57757103747284" fill="#dca100" stroke="black" stroke-width="0.5"/><circle cx="447.5" cy="107.41" r="2" fill="#1f77b4"/><polygon points="447.5,94.4137931034483 452.5,99.4137931034483 447.5,104.4137931034483 442.5,99.4137931034483" fill="#dca100" stroke="black" stroke-width="0.5"/><circle cx="535.0" cy="12.59" r="2" fill="#1f77b4"/><polygon points="535.0,-0.4137931034482989 540.0,4.586206896551701 535.0,9.586206896551701 530.0,4.586206896551701" fill="#dca100" stroke="black" stroke-width="0.5"/><circle cx="622.5" cy="106.13" r="2" fill="#1f77b4"/><polygon points="622.5,93.13385736442444 627.5,98.13385736442444 622.5,103.13385736442444 617.5,98.13385736442444" fill="#dca100" stroke="black" stroke-width="0.5"/><circle cx="710.0" cy="105.88" r="2" fill="#1f77b4"/><polygon points="710.0,92.87561318050854 715.0,97.87561318050854 710.0,102.87561318050854 705.0,97.87561318050854" fill="#dca100" stroke="black" stroke-width="0.5"/><text x="716" y="12" font-size="9" text-anchor="end" fill="#1f77b4" font-family="sans-serif">perf-stat.instructions (lower=better)</text></g><g transform="translate(40,580)"><rect x="0" y="0" width="720" height="120" fill="white" stroke="#888" stroke-width="0.5"/><text x="4" y="-4" font-size="11" font-family="sans-serif">max_rss_kb</text><text x="2" y="10" font-size="8" fill="#444" font-family="sans-serif">7.32e+03</text><text x="2" y="118" font-size="8" fill="#444" font-family="sans-serif">7.2e+03</text><line x1="10.0" y1="0" x2="10.0" y2="120" stroke="#2ca02c" stroke-width="0.7" stroke-dasharray="3,2"/><polyline points="10.0,16.38 97.5,16.38 185.0,16.38 272.5,12.59 360.0,58.10 447.5,42.93 535.0,16.38 622.5,107.41 710.0,42.93" fill="none" stroke="#1f77b4" stroke-width="1.2"/><circle cx="10.0" cy="16.38" r="2" fill="#1f77b4"/><polygon points="10.0,3.379310344827587 5.0,13.379310344827587 15.0,13.379310344827587" fill="#2ca02c" stroke="black" stroke-width="0.5"/><circle cx="97.5" cy="16.38" r="2" fill="#1f77b4"/><polygon points="97.5,3.379310344827587 102.5,8.379310344827587 97.5,13.379310344827587 92.5,8.379310344827587" fill="#dca100" stroke="black" stroke-width="0.5"/><circle cx="185.0" cy="16.38" r="2" fill="#1f77b4"/><polygon points="185.0,3.379310344827587 190.0,8.379310344827587 185.0,13.379310344827587 180.0,8.379310344827587" fill="#dca100" stroke="black" stroke-width="0.5"/><circle cx="272.5" cy="12.59" r="2" fill="#1f77b4"/><polygon points="272.5,-0.41379310344827047 277.5,4.5862068965517295 272.5,9.58620689655173 267.5,4.5862068965517295" fill="#dca100" stroke="black" stroke-width="0.5"/><circle cx="360.0" cy="58.10" r="2" fill="#1f77b4"/><polygon points="360.0,45.103448275862064 365.0,50.103448275862064 360.0,55.103448275862064 355.0,50.103448275862064" fill="#dca100" stroke="black" stroke-width="0.5"/><circle cx="447.5" cy="42.93" r="2" fill="#1f77b4"/><polygon points="447.5,29.93103448275862 452.5,34.93103448275862 447.5,39.93103448275862 442.5,34.93103448275862" fill="#dca100" stroke="black" stroke-width="0.5"/><circle cx="535.0" cy="16.38" r="2" fill="#1f77b4"/><polygon points="535.0,3.379310344827587 540.0,8.379310344827587 535.0,13.379310344827587 530.0,8.379310344827587" fill="#dca100" stroke="black" stroke-width="0.5"/><circle cx="622.5" cy="107.41" r="2" fill="#1f77b4"/><polygon points="622.5,94.41379310344827 627.5,99.41379310344827 622.5,104.41379310344827 617.5,99.41379310344827" fill="#dca100" stroke="black" stroke-width="0.5"/><circle cx="710.0" cy="42.93" r="2" fill="#1f77b4"/><polygon points="710.0,29.93103448275862 715.0,34.93103448275862 710.0,39.93103448275862 705.0,34.93103448275862" fill="#dca100" stroke="black" stroke-width="0.5"/><text x="716" y="12" font-size="9" text-anchor="end" fill="#1f77b4" font-family="sans-serif">rusage.default.max_rss_kb (lower=better)</text><polyline points="10.0,16.38 97.5,16.38 185.0,16.38 272.5,12.59 360.0,58.10 447.5,42.93 535.0,16.38 622.5,107.41 710.0,42.93" fill="none" stroke="#ff7f0e" stroke-width="1.2"/><circle cx="10.0" cy="16.38" r="2" fill="#ff7f0e"/><polygon points="10.0,3.379310344827587 5.0,13.379310344827587 15.0,13.379310344827587" fill="#2ca02c" stroke="black" stroke-width="0.5"/><circle cx="97.5" cy="16.38" r="2" fill="#ff7f0e"/><polygon points="97.5,3.379310344827587 102.5,8.379310344827587 97.5,13.379310344827587 92.5,8.379310344827587" fill="#dca100" stroke="black" stroke-width="0.5"/><circle cx="185.0" cy="16.38" r="2" fill="#ff7f0e"/><polygon points="185.0,3.379310344827587 190.0,8.379310344827587 185.0,13.379310344827587 180.0,8.379310344827587" fill="#dca100" stroke="black" stroke-width="0.5"/><circle cx="272.5" cy="12.59" r="2" fill="#ff7f0e"/><polygon points="272.5,-0.41379310344827047 277.5,4.5862068965517295 272.5,9.58620689655173 267.5,4.5862068965517295" fill="#dca100" stroke="black" stroke-width="0.5"/><circle cx="360.0" cy="58.10" r="2" fill="#ff7f0e"/><polygon points="360.0,45.103448275862064 365.0,50.103448275862064 360.0,55.103448275862064 355.0,50.103448275862064" fill="#dca100" stroke="black" stroke-width="0.5"/><circle cx="447.5" cy="42.93" r="2" fill="#ff7f0e"/><polygon points="447.5,29.93103448275862 452.5,34.93103448275862 447.5,39.93103448275862 442.5,34.93103448275862" fill="#dca100" stroke="black" stroke-width="0.5"/><circle cx="535.0" cy="16.38" r="2" fill="#ff7f0e"/><polygon points="535.0,3.379310344827587 540.0,8.379310344827587 535.0,13.379310344827587 530.0,8.379310344827587" fill="#dca100" stroke="black" stroke-width="0.5"/><circle cx="622.5" cy="107.41" r="2" fill="#ff7f0e"/><polygon points="622.5,94.41379310344827 627.5,99.41379310344827 622.5,104.41379310344827 617.5,99.41379310344827" fill="#dca100" stroke="black" stroke-width="0.5"/><circle cx="710.0" cy="42.93" r="2" fill="#ff7f0e"/><polygon points="710.0,29.93103448275862 715.0,34.93103448275862 710.0,39.93103448275862 705.0,34.93103448275862" fill="#dca100" stroke="black" stroke-width="0.5"/><text x="716" y="23" font-size="9" text-anchor="end" fill="#ff7f0e" font-family="sans-serif">rusage.max_rss_kb (lower=better)</text></g><g transform="translate(40,718)"><rect x="0" y="0" width="720" height="120" fill="white" stroke="#888" stroke-width="0.5"/><text x="4" y="-4" font-size="11" font-family="sans-serif">wall_s</text><text x="2" y="10" font-size="8" fill="#444" font-family="sans-serif">1.22</text><text x="2" y="118" font-size="8" fill="#444" font-family="sans-serif">-1.1</text><line x1="10.0" y1="0" x2="10.0" y2="120" stroke="#2ca02c" stroke-width="0.7" stroke-dasharray="3,2"/><polyline points="10.0,60.00 97.5,60.00 185.0,60.00 272.5,60.00 360.0,60.00 447.5,60.00 535.0,60.00 622.5,60.00 710.0,60.00" fill="none" stroke="#1f77b4" stroke-width="1.2"/><circle cx="10.0" cy="60.00" r="2" fill="#1f77b4"/><polygon points="10.0,47.0 5.0,57.0 15.0,57.0" fill="#2ca02c" stroke="black" stroke-width="0.5"/><circle cx="97.5" cy="60.00" r="2" fill="#1f77b4"/><polygon points="97.5,47.0 102.5,52.0 97.5,57.0 92.5,52.0" fill="#dca100" stroke="black" stroke-width="0.5"/><circle cx="185.0" cy="60.00" r="2" fill="#1f77b4"/><polygon points="185.0,47.0 190.0,52.0 185.0,57.0 180.0,52.0" fill="#dca100" stroke="black" stroke-width="0.5"/><circle cx="272.5" cy="60.00" r="2" fill="#1f77b4"/><polygon points="272.5,47.0 277.5,52.0 272.5,57.0 267.5,52.0" fill="#dca100" stroke="black" stroke-width="0.5"/><circle cx="360.0" cy="60.00" r="2" fill="#1f77b4"/><polygon points="360.0,47.0 365.0,52.0 360.0,57.0 355.0,52.0" fill="#dca100" stroke="black" stroke-width="0.5"/><circle cx="447.5" cy="60.00" r="2" fill="#1f77b4"/><polygon points="447.5,47.0 452.5,52.0 447.5,57.0 442.5,52.0" fill="#dca100" stroke="black" stroke-width="0.5"/><circle cx="535.0" cy="60.00" r="2" fill="#1f77b4"/><polygon points="535.0,47.0 540.0,52.0 535.0,57.0 530.0,52.0" fill="#dca100" stroke="black" stroke-width="0.5"/><circle cx="622.5" cy="60.00" r="2" fill="#1f77b4"/><polygon points="622.5,47.0 627.5,52.0 622.5,57.0 617.5,52.0" fill="#dca100" stroke="black" stroke-width="0.5"/><circle cx="710.0" cy="60.00" r="2" fill="#1f77b4"/><polygon points="710.0,47.0 715.0,52.0 710.0,57.0 705.0,52.0" fill="#dca100" stroke="black" stroke-width="0.5"/><text x="716" y="12" font-size="9" text-anchor="end" fill="#1f77b4" font-family="sans-serif">rusage.default.wall_s (lower=better)</text><polyline points="10.0,60.00 97.5,60.00 185.0,60.00 272.5,60.00 360.0,60.00 447.5,60.00 535.0,60.00 622.5,60.00 710.0,60.00" fill="none" stroke="#ff7f0e" stroke-width="1.2"/><circle cx="10.0" cy="60.00" r="2" fill="#ff7f0e"/><polygon points="10.0,47.0 5.0,57.0 15.0,57.0" fill="#2ca02c" stroke="black" stroke-width="0.5"/><circle cx="97.5" cy="60.00" r="2" fill="#ff7f0e"/><polygon points="97.5,47.0 102.5,52.0 97.5,57.0 92.5,52.0" fill="#dca100" stroke="black" stroke-width="0.5"/><circle cx="185.0" cy="60.00" r="2" fill="#ff7f0e"/><polygon points="185.0,47.0 190.0,52.0 185.0,57.0 180.0,52.0" fill="#dca100" stroke="black" stroke-width="0.5"/><circle cx="272.5" cy="60.00" r="2" fill="#ff7f0e"/><polygon points="272.5,47.0 277.5,52.0 272.5,57.0 267.5,52.0" fill="#dca100" stroke="black" stroke-width="0.5"/><circle cx="360.0" cy="60.00" r="2" fill="#ff7f0e"/><polygon points="360.0,47.0 365.0,52.0 360.0,57.0 355.0,52.0" fill="#dca100" stroke="black" stroke-width="0.5"/><circle cx="447.5" cy="60.00" r="2" fill="#ff7f0e"/><polygon points="447.5,47.0 452.5,52.0 447.5,57.0 442.5,52.0" fill="#dca100" stroke="black" stroke-width="0.5"/><circle cx="535.0" cy="60.00" r="2" fill="#ff7f0e"/><polygon points="535.0,47.0 540.0,52.0 535.0,57.0 530.0,52.0" fill="#dca100" stroke="black" stroke-width="0.5"/><circle cx="622.5" cy="60.00" r="2" fill="#ff7f0e"/><polygon points="622.5,47.0 627.5,52.0 622.5,57.0 617.5,52.0" fill="#dca100" stroke="black" stroke-width="0.5"/><circle cx="710.0" cy="60.00" r="2" fill="#ff7f0e"/><polygon points="710.0,47.0 715.0,52.0 710.0,57.0 705.0,52.0" fill="#dca100" stroke="black" stroke-width="0.5"/><text x="716" y="23" font-size="9" text-anchor="end" fill="#ff7f0e" font-family="sans-serif">rusage.wall_s (lower=better)</text></g><g transform="translate(40,856)"><text x="10.0" y="10" font-size="8" fill="#2ca02c" text-anchor="middle" font-family="monospace" transform="rotate(45 10.0 10)">edca85f</text><text x="97.5" y="10" font-size="8" fill="#222" text-anchor="middle" font-family="monospace" transform="rotate(45 97.5 10)">90ce69c</text><text x="185.0" y="10" font-size="8" fill="#222" text-anchor="middle" font-family="monospace" transform="rotate(45 185.0 10)">90ce69c</text><text x="272.5" y="10" font-size="8" fill="#222" text-anchor="middle" font-family="monospace" transform="rotate(45 272.5 10)">1856b24</text><text x="360.0" y="10" font-size="8" fill="#222" text-anchor="middle" font-family="monospace" transform="rotate(45 360.0 10)">a166d07</text><text x="447.5" y="10" font-size="8" fill="#222" text-anchor="middle" font-family="monospace" transform="rotate(45 447.5 10)">a166d07</text><text x="535.0" y="10" font-size="8" fill="#222" text-anchor="middle" font-family="monospace" transform="rotate(45 535.0 10)">a166d07</text><text x="622.5" y="10" font-size="8" fill="#222" text-anchor="middle" font-family="monospace" transform="rotate(45 622.5 10)">a166d07</text><text x="710.0" y="10" font-size="8" fill="#222" text-anchor="middle" font-family="monospace" transform="rotate(45 710.0 10)">a166d07</text></g><g transform="translate(540,892)"><text x="0" y="0" font-size="9" font-family="sans-serif">decisions:</text><polygon points="60,-9 55,1 65,1" fill="#2ca02c" stroke="black" stroke-width="0.5"/><text x="68" y="0" font-size="9" font-family="sans-serif">KEEP</text><polygon points="125,1 120,-9 130,-9" fill="#d62728" stroke="black" stroke-width="0.5"/><text x="133" y="0" font-size="9" font-family="sans-serif">DISCARD</text><polygon points="190,-9 195,-4 190,1 185,-4" fill="#dca100" stroke="black" stroke-width="0.5"/><text x="198" y="0" font-size="9" font-family="sans-serif">ESCALATE</text></g></svg>
