<?xml version="1.0" encoding="UTF-8"?>
<svg xmlns="http://www.w3.org/2000/svg" version="1.1" width="780" height="5874" viewBox="0 0 780 5874"><text x="40" y="18" font-size="13" font-family="sans-serif" font-weight="bold">benchmarkmapmanager -- amd64-lxc/laptopHB (11th-gen-intel-r-core-tm-i7-11370h-3-30ghz, x86_64, n=3)</text><g transform="translate(40,28)"><rect x="0" y="0" width="720" height="120" fill="white" stroke="#888" stroke-width="0.5"/><text x="4" y="-4" font-size="11" font-family="sans-serif">binary_size_bytes</text><text x="2" y="10" font-size="8" fill="#444" font-family="sans-serif">1.29e+06</text><text x="2" y="118" font-size="8" fill="#444" font-family="sans-serif">1.29e+06</text><line x1="10.0" y1="0" x2="10.0" y2="120" stroke="#2ca02c" stroke-width="0.7" stroke-dasharray="3,2"/><polyline points="10.0,60.00 360.0,60.00 710.0,60.00" fill="none" stroke="#1f77b4" stroke-width="1.2"/><circle cx="10.0" cy="60.00" r="2" fill="#1f77b4"/><polygon points="10.0,47.0 5.0,57.0 15.0,57.0" fill="#2ca02c" stroke="black" stroke-width="0.5"/><circle cx="360.0" cy="60.00" r="2" fill="#1f77b4"/><polygon points="360.0,57.0 355.0,47.0 365.0,47.0" fill="#d62728" stroke="black" stroke-width="0.5"/><circle cx="710.0" cy="60.00" r="2" fill="#1f77b4"/><polygon points="710.0,57.0 705.0,47.0 715.0,47.0" fill="#d62728" stroke="black" stroke-width="0.5"/><text x="716" y="12" font-size="9" text-anchor="end" fill="#1f77b4" font-family="sans-serif">binary-size.binary_size_bytes (lower=better)</text></g><g transform="translate(40,166)"><rect x="0" y="0" width="720" height="120" fill="white" stroke="#888" stroke-width="0.5"/><text x="4" y="-4" font-size="11" font-family="sans-serif">max_rss_kb</text><text x="2" y="10" font-size="8" fill="#444" font-family="sans-serif">8.13e+03</text><text x="2" y="118" font-size="8" fill="#444" font-family="sans-serif">8.13e+03</text><line x1="10.0" y1="0" x2="10.0" y2="120" stroke="#2ca02c" stroke-width="0.7" stroke-dasharray="3,2"/><polyline points="710.0,60.00" fill="none" stroke="#1f77b4" stroke-width="1.2"/><circle cx="710.0" cy="60.00" r="2" fill="#1f77b4"/><polygon points="710.0,57.0 705.0,47.0 715.0,47.0" fill="#d62728" stroke="black" stroke-width="0.5"/><text x="716" y="12" font-size="9" text-anchor="end" fill="#1f77b4" font-family="sans-serif">rusage.max_rss_kb (lower=better)</text></g><g transform="translate(40,304)"><rect x="0" y="0" width="720" height="120" fill="white" stroke="#888" stroke-width="0.5"/><text x="4" y="-4" font-size="11" font-family="sans-serif">p100_bytes_sent</text><text x="2" y="10" font-size="8" fill="#444" font-family="sans-serif">8.25e+08</text><text x="2" y="118" font-size="8" fill="#444" font-family="sans-serif">8.25e+08</text><line x1="10.0" y1="0" x2="10.0" y2="120" stroke="#2ca02c" stroke-width="0.7" stroke-dasharray="3,2"/><polyline points="710.0,60.00" fill="none" stroke="#1f77b4" stroke-width="1.2"/><circle cx="710.0" cy="60.00" r="2" fill="#1f77b4"/><polygon points="710.0,57.0 705.0,47.0 715.0,47.0" fill="#d62728" stroke="black" stroke-width="0.5"/><text x="716" y="12" font-size="9" text-anchor="end" fill="#1f77b4" font-family="sans-serif">rusage.p100_bytes_sent (lower=better)</text></g><g transform="translate(40,442)"><rect x="0" y="0" width="720" height="120" fill="white" stroke="#888" stroke-width="0.5"/><text x="4" y="-4" font-size="11" font-family="sans-serif">p100_median_tick_ns</text><text x="2" y="10" font-size="8" fill="#444" font-family="sans-serif">8.26e+04</text><text x="2" y="118" font-size="8" fill="#444" font-family="sans-serif">8.26e+04</text><line x1="10.0" y1="0" x2="10.0" y2="120" stroke="#2ca02c" stroke-width="0.7" stroke-dasharray="3,2"/><polyline points="710.0,60.00" fill="none" stroke="#1f77b4" stroke-width="1.2"/><circle cx="710.0" cy="60.00" r="2" fill="#1f77b4"/><polygon points="710.0,57.0 705.0,47.0 715.0,47.0" fill="#d62728" stroke="black" stroke-width="0.5"/><text x="716" y="12" font-size="9" text-anchor="end" fill="#1f77b4" font-family="sans-serif">rusage.p100_median_tick_ns (lower=better)</text></g><g transform="translate(40,580)"><rect x="0" y="0" width="720" height="120" fill="white" stroke="#888" stroke-width="0.5"/><text x="4" y="-4" font-size="11" font-family="sans-serif">p100_p95_tick_ns</text><text x="2" y="10" font-size="8" fill="#444" font-family="sans-serif">8.61e+04</text><text x="2" y="118" font-size="8" fill="#444" font-family="sans-serif">8.61e+04</text><line x1="10.0" y1="0" x2="10.0" y2="120" stroke="#2ca02c" stroke-width="0.7" stroke-dasharray="3,2"/><polyline points="710.0,60.00" fill="none" stroke="#1f77b4" stroke-width="1.2"/><circle cx="710.0" cy="60.00" r="2" fill="#1f77b4"/><polygon points="710.0,57.0 705.0,47.0 715.0,47.0" fill="#d62728" stroke="black" stroke-width="0.5"/><text x="716" y="12" font-size="9" text-anchor="end" fill="#1f77b4" font-family="sans-serif">rusage.p100_p95_tick_ns (lower=better)</text></g><g transform="translate(40,718)"><rect x="0" y="0" width="720" height="120" fill="white" stroke="#888" stroke-width="0.5"/><text x="4" y="-4" font-size="11" font-family="sans-serif">p100_ticks</text><text x="2" y="10" font-size="8" fill="#444" font-family="sans-serif">2.77e+04</text><text x="2" y="118" font-size="8" fill="#444" font-family="sans-serif">2.77e+04</text><line x1="10.0" y1="0" x2="10.0" y2="120" stroke="#2ca02c" stroke-width="0.7" stroke-dasharray="3,2"/><polyline points="710.0,60.00" fill="none" stroke="#1f77b4" stroke-width="1.2"/><circle cx="710.0" cy="60.00" r="2" fill="#1f77b4"/><polygon points="710.0,57.0 705.0,47.0 715.0,47.0" fill="#d62728" stroke="black" stroke-width="0.5"/><text x="716" y="12" font-size="9" text-anchor="end" fill="#1f77b4" font-family="sans-serif">rusage.p100_ticks (higher=better)</text></g><g transform="translate(40,856)"><rect x="0" y="0" width="720" height="120" fill="white" stroke="#888" stroke-width="0.5"/><text x="4" y="-4" font-size="11" font-family="sans-serif">p100_ticks_per_s</text><text x="2" y="10" font-size="8" fill="#444" font-family="sans-serif">1.38e+04</text><text x="2" y="118" font-size="8" fill="#444" font-family="sans-serif">1.38e+04</text><line x1="10.0" y1="0" x2="10.0" y2="120" stroke="#2ca02c" stroke-width="0.7" stroke-dasharray="3,2"/><polyline points="710.0,60.00" fill="none" stroke="#1f77b4" stroke-width="1.2"/><circle cx="710.0" cy="60.00" r="2" fill="#1f77b4"/><polygon points="710.0,57.0 705.0,47.0 715.0,47.0" fill="#d62728" stroke="black" stroke-width="0.5"/><text x="716" y="12" font-size="9" text-anchor="end" fill="#1f77b4" font-family="sans-serif">rusage.p100_ticks_per_s (higher=better)</text></g><g transform="translate(40,994)"><rect x="0" y="0" width="720" height="120" fill="white" stroke="#888" stroke-width="0.5"/><text x="4" y="-4" font-size="11" font-family="sans-serif">p10_bytes_sent</text><text x="2" y="10" font-size="8" fill="#444" font-family="sans-serif">4.1e+07</text><text x="2" y="118" font-size="8" fill="#444" font-family="sans-serif">4.1e+07</text><line x1="10.0" y1="0" x2="10.0" y2="120" stroke="#2ca02c" stroke-width="0.7" stroke-dasharray="3,2"/><polyline points="710.0,60.00" fill="none" stroke="#1f77b4" stroke-width="1.2"/><circle cx="710.0" cy="60.00" r="2" fill="#1f77b4"/><polygon points="710.0,57.0 705.0,47.0 715.0,47.0" fill="#d62728" stroke="black" stroke-width="0.5"/><text x="716" y="12" font-size="9" text-anchor="end" fill="#1f77b4" font-family="sans-serif">rusage.p10_bytes_sent (lower=better)</text></g><g transform="translate(40,1132)"><rect x="0" y="0" width="720" height="120" fill="white" stroke="#888" stroke-width="0.5"/><text x="4" y="-4" font-size="11" font-family="sans-serif">p10_median_tick_ns</text><text x="2" y="10" font-size="8" fill="#444" font-family="sans-serif">960</text><text x="2" y="118" font-size="8" fill="#444" font-family="sans-serif">958</text><line x1="10.0" y1="0" x2="10.0" y2="120" stroke="#2ca02c" stroke-width="0.7" stroke-dasharray="3,2"/><polyline points="710.0,60.00" fill="none" stroke="#1f77b4" stroke-width="1.2"/><circle cx="710.0" cy="60.00" r="2" fill="#1f77b4"/><polygon points="710.0,57.0 705.0,47.0 715.0,47.0" fill="#d62728" stroke="black" stroke-width="0.5"/><text x="716" y="12" font-size="9" text-anchor="end" fill="#1f77b4" font-family="sans-serif">rusage.p10_median_tick_ns (lower=better)</text></g><g transform="translate(40,1270)"><rect x="0" y="0" width="720" height="120" fill="white" stroke="#888" stroke-width="0.5"/><text x="4" y="-4" font-size="11" font-family="sans-serif">p10_p95_tick_ns</text><text x="2" y="10" font-size="8" fill="#444" font-family="sans-serif">1.3e+03</text><text x="2" y="118" font-size="8" fill="#444" font-family="sans-serif">1.3e+03</text><line x1="10.0" y1="0" x2="10.0" y2="120" stroke="#2ca02c" stroke-width="0.7" stroke-dasharray="3,2"/><polyline points="710.0,60.00" fill="none" stroke="#1f77b4" stroke-width="1.2"/><circle cx="710.0" cy="60.00" r="2" fill="#1f77b4"/><polygon points="710.0,57.0 705.0,47.0 715.0,47.0" fill="#d62728" stroke="black" stroke-width="0.5"/><text x="716" y="12" font-size="9" text-anchor="end" fill="#1f77b4" font-family="sans-serif">rusage.p10_p95_tick_ns (lower=better)</text></g><g transform="translate(40,1408)"><rect x="0" y="0" width="720" height="120" fill="white" stroke="#888" stroke-width="0.5"/><text x="4" y="-4" font-size="11" font-family="sans-serif">p10_ticks</text><text x="2" y="10" font-size="8" fill="#444" font-family="sans-serif">1.2e+05</text><text x="2" y="118" font-size="8" fill="#444" font-family="sans-serif">1.2e+05</text><line x1="10.0" y1="0" x2="10.0" y2="120" stroke="#2ca02c" stroke-width="0.7" stroke-dasharray="3,2"/><polyline points="710.0,60.00" fill="none" stroke="#1f77b4" stroke-width="1.2"/><circle cx="710.0" cy="60.00" r="2" fill="#1f77b4"/><polygon points="710.0,57.0 705.0,47.0 715.0,47.0" fill="#d62728" stroke="black" stroke-width="0.5"/><text x="716" y="12" font-size="9" text-anchor="end" fill="#1f77b4" font-family="sans-serif">rusage.p10_ticks (higher=better)</text></g><g transform="translate(40,1546)"><rect x="0" y="0" width="720" height="120" fill="white" stroke="#888" stroke-width="0.5"/><text x="4" y="-4" font-size="11" font-family="sans-serif">p10_ticks_per_s</text><text x="2" y="10" font-size="8" fill="#444" font-family="sans-serif">5.98e+04</text><text x="2" y="118" font-size="8" fill="#444" font-family="sans-serif">5.98e+04</text><line x1="10.0" y1="0" x2="10.0" y2="120" stroke="#2ca02c" stroke-width="0.7" stroke-dasharray="3,2"/><polyline points="710.0,60.00" fill="none" stroke="#1f77b4" stroke-width="1.2"/><circle cx="710.0" cy="60.00" r="2" fill="#1f77b4"/><polygon points="710.0,57.0 705.0,47.0 715.0,47.0" fill="#d62728" stroke="black" stroke-width="0.5"/><text x="716" y="12" font-size="9" text-anchor="end" fill="#1f77b4" font-family="sans-serif">rusage.p10_ticks_per_s (higher=better)</text></g><g transform="translate(40,1684)"><rect x="0" y="0" width="720" height="120" fill="white" stroke="#888" stroke-width="0.5"/><text x="4" y="-4" font-size="11" font-family="sans-serif">p200_bytes_sent</text><text x="2" y="10" font-size="8" fill="#444" font-family="sans-serif">8.67e+08</text><text x="2" y="118" font-size="8" fill="#444" font-family="sans-serif">8.67e+08</text><line x1="10.0" y1="0" x2="10.0" y2="120" stroke="#2ca02c" stroke-width="0.7" stroke-dasharray="3,2"/><polyline points="710.0,60.00" fill="none" stroke="#1f77b4" stroke-width="1.2"/><circle cx="710.0" cy="60.00" r="2" fill="#1f77b4"/><polygon points="710.0,57.0 705.0,47.0 715.0,47.0" fill="#d62728" stroke="black" stroke-width="0.5"/><text x="716" y="12" font-size="9" text-anchor="end" fill="#1f77b4" font-family="sans-serif">rusage.p200_bytes_sent (lower=better)</text></g><g transform="translate(40,1822)"><rect x="0" y="0" width="720" height="120" fill="white" stroke="#888" stroke-width="0.5"/><text x="4" y="-4" font-size="11" font-family="sans-serif">p200_median_tick_ns</text><text x="2" y="10" font-size="8" fill="#444" font-family="sans-serif">3.33e+05</text><text x="2" y="118" font-size="8" fill="#444" font-family="sans-serif">3.33e+05</text><line x1="10.0" y1="0" x2="10.0" y2="120" stroke="#2ca02c" stroke-width="0.7" stroke-dasharray="3,2"/><polyline points="710.0,60.00" fill="none" stroke="#1f77b4" stroke-width="1.2"/><circle cx="710.0" cy="60.00" r="2" fill="#1f77b4"/><polygon points="710.0,57.0 705.0,47.0 715.0,47.0" fill="#d62728" stroke="black" stroke-width="0.5"/><text x="716" y="12" font-size="9" text-anchor="end" fill="#1f77b4" font-family="sans-serif">rusage.p200_median_tick_ns (lower=better)</text></g><g transform="translate(40,1960)"><rect x="0" y="0" width="720" height="120" fill="white" stroke="#888" stroke-width="0.5"/><text x="4" y="-4" font-size="11" font-family="sans-serif">p200_p95_tick_ns</text><text x="2" y="10" font-size="8" fill="#444" font-family="sans-serif">3.45e+05</text><text x="2" y="118" font-size="8" fill="#444" font-family="sans-serif">3.45e+05</text><line x1="10.0" y1="0" x2="10.0" y2="120" stroke="#2ca02c" stroke-width="0.7" stroke-dasharray="3,2"/><polyline points="710.0,60.00" fill="none" stroke="#1f77b4" stroke-width="1.2"/><circle cx="710.0" cy="60.00" r="2" fill="#1f77b4"/><polygon points="710.0,57.0 705.0,47.0 715.0,47.0" fill="#d62728" stroke="black" stroke-width="0.5"/><text x="716" y="12" font-size="9" text-anchor="end" fill="#1f77b4" font-family="sans-serif">rusage.p200_p95_tick_ns (lower=better)</text></g><g transform="translate(40,2098)"><rect x="0" y="0" width="720" height="120" fill="white" stroke="#888" stroke-width="0.5"/><text x="4" y="-4" font-size="11" font-family="sans-serif">p200_ticks</text><text x="2" y="10" font-size="8" fill="#444" font-family="sans-serif">7.19e+03</text><text x="2" y="118" font-size="8" fill="#444" font-family="sans-serif">7.19e+03</text><line x1="10.0" y1="0" x2="10.0" y2="120" stroke="#2ca02c" stroke-width="0.7" stroke-dasharray="3,2"/><polyline points="710.0,60.00" fill="none" stroke="#1f77b4" stroke-width="1.2"/><circle cx="710.0" cy="60.00" r="2" fill="#1f77b4"/><polygon points="710.0,57.0 705.0,47.0 715.0,47.0" fill="#d62728" stroke="black" stroke-width="0.5"/><text x="716" y="12" font-size="9" text-anchor="end" fill="#1f77b4" font-family="sans-serif">rusage.p200_ticks (higher=better)</text></g><g transform="translate(40,2236)"><rect x="0" y="0" width="720" height="120" fill="white" stroke="#888" stroke-width="0.5"/><text x="4" y="-4" font-size="11" font-family="sans-serif">p200_ticks_per_s</text><text x="2" y="10" font-size="8" fill="#444" font-family="sans-serif">3.59e+03</text><text x="2" y="118" font-size="8" fill="#444" font-family="sans-serif">3.59e+03</text><line x1="10.0" y1="0" x2="10.0" y2="120" stroke="#2ca02c" stroke-width="0.7" stroke-dasharray="3,2"/><polyline points="710.0,60.00" fill="none" stroke="#1f77b4" stroke-width="1.2"/><circle cx="710.0" cy="60.00" r="2" fill="#1f77b4"/><polygon points="710.0,57.0 705.0,47.0 715.0,47.0" fill="#d62728" stroke="black" stroke-width="0.5"/><text x="716" y="12" font-size="9" text-anchor="end" fill="#1f77b4" font-family="sans-serif">rusage.p200_ticks_per_s (higher=better)</text></g><g transform="translate(40,2374)"><rect x="0" y="0" width="720" height="120" fill="white" stroke="#888" stroke-width="0.5"/><text x="4" y="-4" font-size="11" font-family="sans-serif">p20_bytes_sent</text><text x="2" y="10" font-size="8" fill="#444" font-family="sans-serif">1.43e+08</text><text x="2" y="118" font-size="8" fill="#444" font-family="sans-serif">1.43e+08</text><line x1="10.0" y1="0" x2="10.0" y2="120" stroke="#2ca02c" stroke-width="0.7" stroke-dasharray="3,2"/><polyline points="710.0,60.00" fill="none" stroke="#1f77b4" stroke-width="1.2"/><circle cx="710.0" cy="60.00" r="2" fill="#1f77b4"/><polygon points="710.0,57.0 705.0,47.0 715.0,47.0" fill="#d62728" stroke="black" stroke-width="0.5"/><text x="716" y="12" font-size="9" text-anchor="end" fill="#1f77b4" font-family="sans-serif">rusage.p20_bytes_sent (lower=better)</text></g><g transform="translate(40,2512)"><rect x="0" y="0" width="720" height="120" fill="white" stroke="#888" stroke-width="0.5"/><text x="4" y="-4" font-size="11" font-family="sans-serif">p20_median_tick_ns</text><text x="2" y="10" font-size="8" fill="#444" font-family="sans-serif">3.43e+03</text><text x="2" y="118" font-size="8" fill="#444" font-family="sans-serif">3.43e+03</text><line x1="10.0" y1="0" x2="10.0" y2="120" stroke="#2ca02c" stroke-width="0.7" stroke-dasharray="3,2"/><polyline points="710.0,60.00" fill="none" stroke="#1f77b4" stroke-width="1.2"/><circle cx="710.0" cy="60.00" r="2" fill="#1f77b4"/><polygon points="710.0,57.0 705.0,47.0 715.0,47.0" fill="#d62728" stroke="black" stroke-width="0.5"/><text x="716" y="12" font-size="9" text-anchor="end" fill="#1f77b4" font-family="sans-serif">rusage.p20_median_tick_ns (lower=better)</text></g><g transform="translate(40,2650)"><rect x="0" y="0" width="720" height="120" fill="white" stroke="#888" stroke-width="0.5"/><text x="4" y="-4" font-size="11" font-family="sans-serif">p20_p95_tick_ns</text><text x="2" y="10" font-size="8" fill="#444" font-family="sans-serif">3.94e+03</text><text x="2" y="118" font-size="8" fill="#444" font-family="sans-serif">3.93e+03</text><line x1="10.0" y1="0" x2="10.0" y2="120" stroke="#2ca02c" stroke-width="0.7" stroke-dasharray="3,2"/><polyline points="710.0,60.00" fill="none" stroke="#1f77b4" stroke-width="1.2"/><circle cx="710.0" cy="60.00" r="2" fill="#1f77b4"/><polygon points="710.0,57.0 705.0,47.0 715.0,47.0" fill="#d62728" stroke="black" stroke-width="0.5"/><text x="716" y="12" font-size="9" text-anchor="end" fill="#1f77b4" font-family="sans-serif">rusage.p20_p95_tick_ns (lower=better)</text></g><g transform="translate(40,2788)"><rect x="0" y="0" width="720" height="120" fill="white" stroke="#888" stroke-width="0.5"/><text x="4" y="-4" font-size="11" font-family="sans-serif">p20_ticks</text><text x="2" y="10" font-size="8" fill="#444" font-family="sans-serif">1.12e+05</text><text x="2" y="118" font-size="8" fill="#444" font-family="sans-serif">1.12e+05</text><line x1="10.0" y1="0" x2="10.0" y2="120" stroke="#2ca02c" stroke-width="0.7" stroke-dasharray="3,2"/><polyline points="710.0,60.00" fill="none" stroke="#1f77b4" stroke-width="1.2"/><circle cx="710.0" cy="60.00" r="2" fill="#1f77b4"/><polygon points="710.0,57.0 705.0,47.0 715.0,47.0" fill="#d62728" stroke="black" stroke-width="0.5"/><text x="716" y="12" font-size="9" text-anchor="end" fill="#1f77b4" font-family="sans-serif">rusage.p20_ticks (higher=better)</text></g><g transform="translate(40,2926)"><rect x="0" y="0" width="720" height="120" fill="white" stroke="#888" stroke-width="0.5"/><text x="4" y="-4" font-size="11" font-family="sans-serif">p20_ticks_per_s</text><text x="2" y="10" font-size="8" fill="#444" font-family="sans-serif">5.5e+04</text><text x="2" y="118" font-size="8" fill="#444" font-family="sans-serif">5.5e+04</text><line x1="10.0" y1="0" x2="10.0" y2="120" stroke="#2ca02c" stroke-width="0.7" stroke-dasharray="3,2"/><polyline points="710.0,60.00" fill="none" stroke="#1f77b4" stroke-width="1.2"/><circle cx="710.0" cy="60.00" r="2" fill="#1f77b4"/><polygon points="710.0,57.0 705.0,47.0 715.0,47.0" fill="#d62728" stroke="black" stroke-width="0.5"/><text x="716" y="12" font-size="9" text-anchor="end" fill="#1f77b4" font-family="sans-serif">rusage.p20_ticks_per_s (higher=better)</text></g><g transform="translate(40,3064)"><rect x="0" y="0" width="720" height="120" fill="white" stroke="#888" stroke-width="0.5"/><text x="4" y="-4" font-size="11" font-family="sans-serif">p300_bytes_sent</text><text x="2" y="10" font-size="8" fill="#444" font-family="sans-serif">9.13e+08</text><text x="2" y="118" font-size="8" fill="#444" font-family="sans-serif">9.13e+08</text><line x1="10.0" y1="0" x2="10.0" y2="120" stroke="#2ca02c" stroke-width="0.7" stroke-dasharray="3,2"/><polyline points="710.0,60.00" fill="none" stroke="#1f77b4" stroke-width="1.2"/><circle cx="710.0" cy="60.00" r="2" fill="#1f77b4"/><polygon points="710.0,57.0 705.0,47.0 715.0,47.0" fill="#d62728" stroke="black" stroke-width="0.5"/><text x="716" y="12" font-size="9" text-anchor="end" fill="#1f77b4" font-family="sans-serif">rusage.p300_bytes_sent (lower=better)</text></g><g transform="translate(40,3202)"><rect x="0" y="0" width="720" height="120" fill="white" stroke="#888" stroke-width="0.5"/><text x="4" y="-4" font-size="11" font-family="sans-serif">p300_median_tick_ns</text><text x="2" y="10" font-size="8" fill="#444" font-family="sans-serif">6.13e+05</text><text x="2" y="118" font-size="8" fill="#444" font-family="sans-serif">6.13e+05</text><line x1="10.0" y1="0" x2="10.0" y2="120" stroke="#2ca02c" stroke-width="0.7" stroke-dasharray="3,2"/><polyline points="710.0,60.00" fill="none" stroke="#1f77b4" stroke-width="1.2"/><circle cx="710.0" cy="60.00" r="2" fill="#1f77b4"/><polygon points="710.0,57.0 705.0,47.0 715.0,47.0" fill="#d62728" stroke="black" stroke-width="0.5"/><text x="716" y="12" font-size="9" text-anchor="end" fill="#1f77b4" font-family="sans-serif">rusage.p300_median_tick_ns (lower=better)</text></g><g transform="translate(40,3340)"><rect x="0" y="0" width="720" height="120" fill="white" stroke="#888" stroke-width="0.5"/><text x="4" y="-4" font-size="11" font-family="sans-serif">p300_p95_tick_ns</text><text x="2" y="10" font-size="8" fill="#444" font-family="sans-serif">6.34e+05</text><text x="2" y="118" font-size="8" fill="#444" font-family="sans-serif">6.34e+05</text><line x1="10.0" y1="0" x2="10.0" y2="120" stroke="#2ca02c" stroke-width="0.7" stroke-dasharray="3,2"/><polyline points="710.0,60.00" fill="none" stroke="#1f77b4" stroke-width="1.2"/><circle cx="710.0" cy="60.00" r="2" fill="#1f77b4"/><polygon points="710.0,57.0 705.0,47.0 715.0,47.0" fill="#d62728" stroke="black" stroke-width="0.5"/><text x="716" y="12" font-size="9" text-anchor="end" fill="#1f77b4" font-family="sans-serif">rusage.p300_p95_tick_ns (lower=better)</text></g><g transform="translate(40,3478)"><rect x="0" y="0" width="720" height="120" fill="white" stroke="#888" stroke-width="0.5"/><text x="4" y="-4" font-size="11" font-family="sans-serif">p300_ticks</text><text x="2" y="10" font-size="8" fill="#444" font-family="sans-serif">3.88e+03</text><text x="2" y="118" font-size="8" fill="#444" font-family="sans-serif">3.87e+03</text><line x1="10.0" y1="0" x2="10.0" y2="120" stroke="#2ca02c" stroke-width="0.7" stroke-dasharray="3,2"/><polyline points="710.0,60.00" fill="none" stroke="#1f77b4" stroke-width="1.2"/><circle cx="710.0" cy="60.00" r="2" fill="#1f77b4"/><polygon points="710.0,57.0 705.0,47.0 715.0,47.0" fill="#d62728" stroke="black" stroke-width="0.5"/><text x="716" y="12" font-size="9" text-anchor="end" fill="#1f77b4" font-family="sans-serif">rusage.p300_ticks (higher=better)</text></g><g transform="translate(40,3616)"><rect x="0" y="0" width="720" height="120" fill="white" stroke="#888" stroke-width="0.5"/><text x="4" y="-4" font-size="11" font-family="sans-serif">p300_ticks_per_s</text><text x="2" y="10" font-size="8" fill="#444" font-family="sans-serif">1.94e+03</text><text x="2" y="118" font-size="8" fill="#444" font-family="sans-serif">1.94e+03</text><line x1="10.0" y1="0" x2="10.0" y2="120" stroke="#2ca02c" stroke-width="0.7" stroke-dasharray="3,2"/><polyline points="710.0,60.00" fill="none" stroke="#1f77b4" stroke-width="1.2"/><circle cx="710.0" cy="60.00" r="2" fill="#1f77b4"/><polygon points="710.0,57.0 705.0,47.0 715.0,47.0" fill="#d62728" stroke="black" stroke-width="0.5"/><text x="716" y="12" font-size="9" text-anchor="end" fill="#1f77b4" font-family="sans-serif">rusage.p300_ticks_per_s (higher=better)</text></g><g transform="translate(40,3754)"><rect x="0" y="0" width="720" height="120" fill="white" stroke="#888" stroke-width="0.5"/><text x="4" y="-4" font-size="11" font-family="sans-serif">p50_bytes_sent</text><text x="2" y="10" font-size="8" fill="#444" font-family="sans-serif">5.66e+08</text><text x="2" y="118" font-size="8" fill="#444" font-family="sans-serif">5.66e+08</text><line x1="10.0" y1="0" x2="10.0" y2="120" stroke="#2ca02c" stroke-width="0.7" stroke-dasharray="3,2"/><polyline points="710.0,60.00" fill="none" stroke="#1f77b4" stroke-width="1.2"/><circle cx="710.0" cy="60.00" r="2" fill="#1f77b4"/><polygon points="710.0,57.0 705.0,47.0 715.0,47.0" fill="#d62728" stroke="black" stroke-width="0.5"/><text x="716" y="12" font-size="9" text-anchor="end" fill="#1f77b4" font-family="sans-serif">rusage.p50_bytes_sent (lower=better)</text></g><g transform="translate(40,3892)"><rect x="0" y="0" width="720" height="120" fill="white" stroke="#888" stroke-width="0.5"/><text x="4" y="-4" font-size="11" font-family="sans-serif">p50_median_tick_ns</text><text x="2" y="10" font-size="8" fill="#444" font-family="sans-serif">2.04e+04</text><text x="2" y="118" font-size="8" fill="#444" font-family="sans-serif">2.04e+04</text><line x1="10.0" y1="0" x2="10.0" y2="120" stroke="#2ca02c" stroke-width="0.7" stroke-dasharray="3,2"/><polyline points="710.0,60.00" fill="none" stroke="#1f77b4" stroke-width="1.2"/><circle cx="710.0" cy="60.00" r="2" fill="#1f77b4"/><polygon points="710.0,57.0 705.0,47.0 715.0,47.0" fill="#d62728" stroke="black" stroke-width="0.5"/><text x="716" y="12" font-size="9" text-anchor="end" fill="#1f77b4" font-family="sans-serif">rusage.p50_median_tick_ns (lower=better)</text></g><g transform="translate(40,4030)"><rect x="0" y="0" width="720" height="120" fill="white" stroke="#888" stroke-width="0.5"/><text x="4" y="-4" font-size="11" font-family="sans-serif">p50_p95_tick_ns</text><text x="2" y="10" font-size="8" fill="#444" font-family="sans-serif">2.14e+04</text><text x="2" y="118" font-size="8" fill="#444" font-family="sans-serif">2.14e+04</text><line x1="10.0" y1="0" x2="10.0" y2="120" stroke="#2ca02c" stroke-width="0.7" stroke-dasharray="3,2"/><polyline points="710.0,60.00" fill="none" stroke="#1f77b4" stroke-width="1.2"/><circle cx="710.0" cy="60.00" r="2" fill="#1f77b4"/><polygon points="710.0,57.0 705.0,47.0 715.0,47.0" fill="#d62728" stroke="black" stroke-width="0.5"/><text x="716" y="12" font-size="9" text-anchor="end" fill="#1f77b4" font-family="sans-serif">rusage.p50_p95_tick_ns (lower=better)</text></g><g transform="translate(40,4168)"><rect x="0" y="0" width="720" height="120" fill="white" stroke="#888" stroke-width="0.5"/><text x="4" y="-4" font-size="11" font-family="sans-serif">p50_ticks</text><text x="2" y="10" font-size="8" fill="#444" font-family="sans-serif">7.28e+04</text><text x="2" y="118" font-size="8" fill="#444" font-family="sans-serif">7.28e+04</text><line x1="10.0" y1="0" x2="10.0" y2="120" stroke="#2ca02c" stroke-width="0.7" stroke-dasharray="3,2"/><polyline points="710.0,60.00" fill="none" stroke="#1f77b4" stroke-width="1.2"/><circle cx="710.0" cy="60.00" r="2" fill="#1f77b4"/><polygon points="710.0,57.0 705.0,47.0 715.0,47.0" fill="#d62728" stroke="black" stroke-width="0.5"/><text x="716" y="12" font-size="9" text-anchor="end" fill="#1f77b4" font-family="sans-serif">rusage.p50_ticks (higher=better)</text></g><g transform="translate(40,4306)"><rect x="0" y="0" width="720" height="120" fill="white" stroke="#888" stroke-width="0.5"/><text x="4" y="-4" font-size="11" font-family="sans-serif">p50_ticks_per_s</text><text x="2" y="10" font-size="8" fill="#444" font-family="sans-serif">3.63e+04</text><text x="2" y="118" font-size="8" fill="#444" font-family="sans-serif">3.63e+04</text><line x1="10.0" y1="0" x2="10.0" y2="120" stroke="#2ca02c" stroke-width="0.7" stroke-dasharray="3,2"/><polyline points="710.0,60.00" fill="none" stroke="#1f77b4" stroke-width="1.2"/><circle cx="710.0" cy="60.00" r="2" fill="#1f77b4"/><polygon points="710.0,57.0 705.0,47.0 715.0,47.0" fill="#d62728" stroke="black" stroke-width="0.5"/><text x="716" y="12" font-size="9" text-anchor="end" fill="#1f77b4" font-family="sans-serif">rusage.p50_ticks_per_s (higher=better)</text></g><g transform="translate(40,4444)"><rect x="0" y="0" width="720" height="120" fill="white" stroke="#888" stroke-width="0.5"/><text x="4" y="-4" font-size="11" font-family="sans-serif">p5_bytes_sent</text><text x="2" y="10" font-size="8" fill="#444" font-family="sans-serif">8.6e+06</text><text x="2" y="118" font-size="8" fill="#444" font-family="sans-serif">8.6e+06</text><line x1="10.0" y1="0" x2="10.0" y2="120" stroke="#2ca02c" stroke-width="0.7" stroke-dasharray="3,2"/><polyline points="710.0,60.00" fill="none" stroke="#1f77b4" stroke-width="1.2"/><circle cx="710.0" cy="60.00" r="2" fill="#1f77b4"/><polygon points="710.0,57.0 705.0,47.0 715.0,47.0" fill="#d62728" stroke="black" stroke-width="0.5"/><text x="716" y="12" font-size="9" text-anchor="end" fill="#1f77b4" font-family="sans-serif">rusage.p5_bytes_sent (lower=better)</text></g><g transform="translate(40,4582)"><rect x="0" y="0" width="720" height="120" fill="white" stroke="#888" stroke-width="0.5"/><text x="4" y="-4" font-size="11" font-family="sans-serif">p5_median_tick_ns</text><text x="2" y="10" font-size="8" fill="#444" font-family="sans-serif">297</text><text x="2" y="118" font-size="8" fill="#444" font-family="sans-serif">295</text><line x1="10.0" y1="0" x2="10.0" y2="120" stroke="#2ca02c" stroke-width="0.7" stroke-dasharray="3,2"/><polyline points="710.0,60.00" fill="none" stroke="#1f77b4" stroke-width="1.2"/><circle cx="710.0" cy="60.00" r="2" fill="#1f77b4"/><polygon points="710.0,57.0 705.0,47.0 715.0,47.0" fill="#d62728" stroke="black" stroke-width="0.5"/><text x="716" y="12" font-size="9" text-anchor="end" fill="#1f77b4" font-family="sans-serif">rusage.p5_median_tick_ns (lower=better)</text></g><g transform="translate(40,4720)"><rect x="0" y="0" width="720" height="120" fill="white" stroke="#888" stroke-width="0.5"/><text x="4" y="-4" font-size="11" font-family="sans-serif">p5_p95_tick_ns</text><text x="2" y="10" font-size="8" fill="#444" font-family="sans-serif">1.07e+03</text><text x="2" y="118" font-size="8" fill="#444" font-family="sans-serif">1.07e+03</text><line x1="10.0" y1="0" x2="10.0" y2="120" stroke="#2ca02c" stroke-width="0.7" stroke-dasharray="3,2"/><polyline points="710.0,60.00" fill="none" stroke="#1f77b4" stroke-width="1.2"/><circle cx="710.0" cy="60.00" r="2" fill="#1f77b4"/><polygon points="710.0,57.0 705.0,47.0 715.0,47.0" fill="#d62728" stroke="black" stroke-width="0.5"/><text x="716" y="12" font-size="9" text-anchor="end" fill="#1f77b4" font-family="sans-serif">rusage.p5_p95_tick_ns (lower=better)</text></g><g transform="translate(40,4858)"><rect x="0" y="0" width="720" height="120" fill="white" stroke="#888" stroke-width="0.5"/><text x="4" y="-4" font-size="11" font-family="sans-serif">p5_ticks</text><text x="2" y="10" font-size="8" fill="#444" font-family="sans-serif">9.06e+04</text><text x="2" y="118" font-size="8" fill="#444" font-family="sans-serif">9.06e+04</text><line x1="10.0" y1="0" x2="10.0" y2="120" stroke="#2ca02c" stroke-width="0.7" stroke-dasharray="3,2"/><polyline points="710.0,60.00" fill="none" stroke="#1f77b4" stroke-width="1.2"/><circle cx="710.0" cy="60.00" r="2" fill="#1f77b4"/><polygon points="710.0,57.0 705.0,47.0 715.0,47.0" fill="#d62728" stroke="black" stroke-width="0.5"/><text x="716" y="12" font-size="9" text-anchor="end" fill="#1f77b4" font-family="sans-serif">rusage.p5_ticks (higher=better)</text></g><g transform="translate(40,4996)"><rect x="0" y="0" width="720" height="120" fill="white" stroke="#888" stroke-width="0.5"/><text x="4" y="-4" font-size="11" font-family="sans-serif">p5_ticks_per_s</text><text x="2" y="10" font-size="8" fill="#444" font-family="sans-serif">4.33e+04</text><text x="2" y="118" font-size="8" fill="#444" font-family="sans-serif">4.33e+04</text><line x1="10.0" y1="0" x2="10.0" y2="120" stroke="#2ca02c" stroke-width="0.7" stroke-dasharray="3,2"/><polyline points="710.0,60.00" fill="none" stroke="#1f77b4" stroke-width="1.2"/><circle cx="710.0" cy="60.00" r="2" fill="#1f77b4"/><polygon points="710.0,57.0 705.0,47.0 715.0,47.0" fill="#d62728" stroke="black" stroke-width="0.5"/><text x="716" y="12" font-size="9" text-anchor="end" fill="#1f77b4" font-family="sans-serif">rusage.p5_ticks_per_s (higher=better)</text></g><g transform="translate(40,5134)"><rect x="0" y="0" width="720" height="120" fill="white" stroke="#888" stroke-width="0.5"/><text x="4" y="-4" font-size="11" font-family="sans-serif">perf_branch-misses</text><text x="2" y="10" font-size="8" fill="#444" font-family="sans-serif">3.66e+07</text><text x="2" y="118" font-size="8" fill="#444" font-family="sans-serif">-2.68e+06</text><line x1="10.0" y1="0" x2="10.0" y2="120" stroke="#2ca02c" stroke-width="0.7" stroke-dasharray="3,2"/><polyline points="10.0,107.41 360.0,107.41 710.0,12.59" fill="none" stroke="#1f77b4" stroke-width="1.2"/><circle cx="10.0" cy="107.41" r="2" fill="#1f77b4"/><polygon points="10.0,94.41361945111171 5.0,104.41361945111171 15.0,104.41361945111171" fill="#2ca02c" stroke="black" stroke-width="0.5"/><circle cx="360.0" cy="107.41" r="2" fill="#1f77b4"/><polygon points="360.0,104.41379310344827 355.0,94.41379310344827 365.0,94.41379310344827" fill="#d62728" stroke="black" stroke-width="0.5"/><circle cx="710.0" cy="12.59" r="2" fill="#1f77b4"/><polygon points="710.0,9.58620689655173 705.0,-0.41379310344827047 715.0,-0.41379310344827047" fill="#d62728" stroke="black" stroke-width="0.5"/><text x="716" y="12" font-size="9" text-anchor="end" fill="#1f77b4" font-family="sans-serif">perf-stat.perf_branch-misses (lower=better)</text></g><g transform="translate(40,5272)"><rect x="0" y="0" width="720" height="120" fill="white" stroke="#888" stroke-width="0.5"/><text x="4" y="-4" font-size="11" font-family="sans-serif">perf_cache-misses</text><text x="2" y="10" font-size="8" fill="#444" font-family="sans-serif">7.47e+05</text><text x="2" y="118" font-size="8" fill="#444" font-family="sans-serif">-2.17e+04</text><line x1="10.0" y1="0" x2="10.0" y2="120" stroke="#2ca02c" stroke-width="0.7" stroke-dasharray="3,2"/><polyline points="10.0,107.30 360.0,107.41 710.0,12.59" fill="none" stroke="#1f77b4" stroke-width="1.2"/><circle cx="10.0" cy="107.30" r="2" fill="#1f77b4"/><polygon points="10.0,94.30486251270379 5.0,104.30486251270379 15.0,104.30486251270379" fill="#2ca02c" stroke="black" stroke-width="0.5"/><circle cx="360.0" cy="107.41" r="2" fill="#1f77b4"/><polygon points="360.0,104.41379310344827 355.0,94.41379310344827 365.0,94.41379310344827" fill="#d62728" stroke="black" stroke-width="0.5"/><circle cx="710.0" cy="12.59" r="2" fill="#1f77b4"/><polygon points="710.0,9.58620689655173 705.0,-0.41379310344827047 715.0,-0.41379310344827047" fill="#d62728" stroke="black" stroke-width="0.5"/><text x="716" y="12" font-size="9" text-anchor="end" fill="#1f77b4" font-family="sans-serif">perf-stat.perf_cache-misses (lower=better)</text></g><g transform="translate(40,5410)"><rect x="0" y="0" width="720" height="120" fill="white" stroke="#888" stroke-width="0.5"/><text x="4" y="-4" font-size="11" font-family="sans-serif">perf_cycles</text><text x="2" y="10" font-size="8" fill="#444" font-family="sans-serif">7.13e+10</text><text x="2" y="118" font-size="8" fill="#444" font-family="sans-serif">-5.28e+09</text><line x1="10.0" y1="0" x2="10.0" y2="120" stroke="#2ca02c" stroke-width="0.7" stroke-dasharray="3,2"/><polyline points="10.0,107.41 360.0,107.41 710.0,12.59" fill="none" stroke="#1f77b4" stroke-width="1.2"/><circle cx="10.0" cy="107.41" r="2" fill="#1f77b4"/><polygon points="10.0,94.41359241739369 5.0,104.41359241739369 15.0,104.41359241739369" fill="#2ca02c" stroke="black" stroke-width="0.5"/><circle cx="360.0" cy="107.41" r="2" fill="#1f77b4"/><polygon points="360.0,104.41379310344827 355.0,94.41379310344827 365.0,94.41379310344827" fill="#d62728" stroke="black" stroke-width="0.5"/><circle cx="710.0" cy="12.59" r="2" fill="#1f77b4"/><polygon points="710.0,9.586206896551715 705.0,-0.4137931034482847 715.0,-0.4137931034482847" fill="#d62728" stroke="black" stroke-width="0.5"/><text x="716" y="12" font-size="9" text-anchor="end" fill="#1f77b4" font-family="sans-serif">perf-stat.perf_cycles (lower=better)</text></g><g transform="translate(40,5548)"><rect x="0" y="0" width="720" height="120" fill="white" stroke="#888" stroke-width="0.5"/><text x="4" y="-4" font-size="11" font-family="sans-serif">perf_instructions</text><text x="2" y="10" font-size="8" fill="#444" font-family="sans-serif">2.04e+11</text><text x="2" y="118" font-size="8" fill="#444" font-family="sans-serif">-1.51e+10</text><line x1="10.0" y1="0" x2="10.0" y2="120" stroke="#2ca02c" stroke-width="0.7" stroke-dasharray="3,2"/><polyline points="10.0,107.41 360.0,107.41 710.0,12.59" fill="none" stroke="#1f77b4" stroke-width="1.2"/><circle cx="10.0" cy="107.41" r="2" fill="#1f77b4"/><polygon points="10.0,94.41378797872258 5.0,104.41378797872258 15.0,104.41378797872258" fill="#2ca02c" stroke="black" stroke-width="0.5"/><circle cx="360.0" cy="107.41" r="2" fill="#1f77b4"/><polygon points="360.0,104.41379310344827 355.0,94.41379310344827 365.0,94.41379310344827" fill="#d62728" stroke="black" stroke-width="0.5"/><circle cx="710.0" cy="12.59" r="2" fill="#1f77b4"/><polygon points="710.0,9.58620689655173 705.0,-0.41379310344827047 715.0,-0.41379310344827047" fill="#d62728" stroke="black" stroke-width="0.5"/><text x="716" y="12" font-size="9" text-anchor="end" fill="#1f77b4" font-family="sans-serif">perf-stat.perf_instructions (lower=better)</text></g><g transform="translate(40,5686)"><rect x="0" y="0" width="720" height="120" fill="white" stroke="#888" stroke-width="0.5"/><text x="4" y="-4" font-size="11" font-family="sans-serif">wall_s</text><text x="2" y="10" font-size="8" fill="#444" font-family="sans-serif">15.3</text><text x="2" y="118" font-size="8" fill="#444" font-family="sans-serif">13</text><line x1="10.0" y1="0" x2="10.0" y2="120" stroke="#2ca02c" stroke-width="0.7" stroke-dasharray="3,2"/><polyline points="710.0,60.00" fill="none" stroke="#1f77b4" stroke-width="1.2"/><circle cx="710.0" cy="60.00" r="2" fill="#1f77b4"/><polygon points="710.0,57.0 705.0,47.0 715.0,47.0" fill="#d62728" stroke="black" stroke-width="0.5"/><text x="716" y="12" font-size="9" text-anchor="end" fill="#1f77b4" font-family="sans-serif">rusage.wall_s (lower=better)</text></g><g transform="translate(40,5824)"><text x="10.0" y="10" font-size="8" fill="#2ca02c" text-anchor="middle" font-family="monospace" transform="rotate(45 10.0 10)">edca85f</text><text x="360.0" y="10" font-size="8" fill="#222" text-anchor="middle" font-family="monospace" transform="rotate(45 360.0 10)">6392504</text><text x="710.0" y="10" font-size="8" fill="#222" text-anchor="middle" font-family="monospace" transform="rotate(45 710.0 10)">90ce69c</text></g><g transform="translate(540,5860)"><text x="0" y="0" font-size="9" font-family="sans-serif">decisions:</text><polygon points="60,-9 55,1 65,1" fill="#2ca02c" stroke="black" stroke-width="0.5"/><text x="68" y="0" font-size="9" font-family="sans-serif">KEEP</text><polygon points="125,1 120,-9 130,-9" fill="#d62728" stroke="black" stroke-width="0.5"/><text x="133" y="0" font-size="9" font-family="sans-serif">DISCARD</text><polygon points="190,-9 195,-4 190,1 185,-4" fill="#dca100" stroke="black" stroke-width="0.5"/><text x="198" y="0" font-size="9" font-family="sans-serif">ESCALATE</text></g></svg>
