<?xml version="1.0" encoding="UTF-8"?>
<svg xmlns="http://www.w3.org/2000/svg" version="1.1" width="828" height="906" viewBox="0 0 828 906"><text x="40" y="18" font-size="13" font-family="sans-serif" font-weight="bold">benchmarkserversave -- LXC armv8-debian-13-armv8/odroid-c2-m32 (armv8-processor-rev-4-v8l, armv7, n=11)</text><g transform="translate(40,28)"><rect x="0" y="0" width="720" height="120" fill="white" stroke="#888" stroke-width="0.5"/><text x="4" y="-4" font-size="11" font-family="sans-serif">branch-misses (lower=better)</text><text x="2" y="10" font-size="8" fill="#444" font-family="sans-serif">1.28M</text><text x="2" y="118" font-size="8" fill="#444" font-family="sans-serif">-28K</text><line x1="360.0" y1="0" x2="360.0" y2="120" stroke="#2ca02c" stroke-width="0.7" stroke-dasharray="3,2"/><polyline points="10.0,107.41 80.0,106.91 150.0,106.58 220.0,13.50 290.0,13.71 360.0,14.19 430.0,13.84 500.0,12.59 570.0,14.18 640.0,13.97" fill="none" stroke="#1f77b4" stroke-width="1.2"/><circle cx="10.0" cy="107.41" r="2" fill="#1f77b4"/><polygon points="10.0,94.41379310344827 15.0,99.41379310344827 10.0,104.41379310344827 5.0,99.41379310344827" fill="#dca100" stroke="black" stroke-width="0.5"/><circle cx="80.0" cy="106.91" r="2" fill="#1f77b4"/><polygon points="80.0,93.91151417752451 85.0,98.91151417752451 80.0,103.91151417752451 75.0,98.91151417752451" fill="#dca100" stroke="black" stroke-width="0.5"/><circle cx="150.0" cy="106.58" r="2" fill="#1f77b4"/><polygon points="150.0,93.57755883739432 155.0,98.57755883739432 150.0,103.57755883739432 145.0,98.57755883739432" fill="#dca100" stroke="black" stroke-width="0.5"/><circle cx="220.0" cy="13.50" r="2" fill="#1f77b4"/><polygon points="220.0,0.5033643457807955 225.0,5.5033643457807955 220.0,10.503364345780795 215.0,5.5033643457807955" fill="#dca100" stroke="black" stroke-width="0.5"/><circle cx="290.0" cy="13.71" r="2" fill="#1f77b4"/><polygon points="290.0,0.7120654034289089 295.0,5.712065403428909 290.0,10.712065403428909 285.0,5.712065403428909" fill="#dca100" stroke="black" stroke-width="0.5"/><circle cx="360.0" cy="14.19" r="2" fill="#1f77b4"/><polygon points="360.0,1.1862483385205564 365.0,6.1862483385205564 360.0,11.186248338520556 355.0,6.1862483385205564" fill="#dca100" stroke="black" stroke-width="0.5"/><circle cx="430.0" cy="13.84" r="2" fill="#1f77b4"/><polygon points="430.0,0.8390020805715892 435.0,5.839002080571589 430.0,10.83900208057159 425.0,5.839002080571589" fill="#dca100" stroke="black" stroke-width="0.5"/><circle cx="500.0" cy="12.59" r="2" fill="#1f77b4"/><polygon points="499.99999999999994,-0.4137931034482847 494.99999999999994,9.586206896551715 504.99999999999994,9.586206896551715" fill="#2ca02c" stroke="black" stroke-width="0.5"/><circle cx="570.0" cy="14.18" r="2" fill="#1f77b4"/><polygon points="570.0,1.184145345194807 575.0,6.184145345194807 570.0,11.184145345194807 565.0,6.184145345194807" fill="#dca100" stroke="black" stroke-width="0.5"/><circle cx="640.0" cy="13.97" r="2" fill="#1f77b4"/><polygon points="640.0,0.9682099905060824 645.0,5.968209990506082 640.0,10.968209990506082 635.0,5.968209990506082" fill="#dca100" stroke="black" stroke-width="0.5"/><text x="716" y="12" font-size="9" text-anchor="end" fill="#1f77b4" font-family="sans-serif">perf-stat.branch-misses</text><text x="730" y="-4" font-size="8" fill="#444" font-family="sans-serif">per-node spread</text><line x1="738.0" y1="12.59" x2="738.0" y2="107.41" stroke="#1f77b4" stroke-width="0.6"/><line x1="734.6" y1="107.41" x2="741.4" y2="107.41" stroke="#1f77b4" stroke-width="0.6"/><line x1="734.6" y1="12.59" x2="741.4" y2="12.59" stroke="#1f77b4" stroke-width="0.6"/><rect x="733.6" y="13.74" width="8.8" height="69.74" fill="#1f77b4" fill-opacity="0.22" stroke="#1f77b4" stroke-width="0.7"/><line x1="733.6" y1="14.08" x2="742.4" y2="14.08" stroke="#1f77b4" stroke-width="1.2"/></g><g transform="translate(40,166)"><rect x="0" y="0" width="720" height="120" fill="white" stroke="#888" stroke-width="0.5"/><text x="4" y="-4" font-size="11" font-family="sans-serif">cache-misses (lower=better)</text><text x="2" y="10" font-size="8" fill="#444" font-family="sans-serif">286K</text><text x="2" y="118" font-size="8" fill="#444" font-family="sans-serif">13.8K</text><line x1="360.0" y1="0" x2="360.0" y2="120" stroke="#2ca02c" stroke-width="0.7" stroke-dasharray="3,2"/><polyline points="10.0,107.41 80.0,106.27 150.0,105.82 220.0,15.19 290.0,19.60 360.0,19.73 430.0,17.21 500.0,12.59 570.0,18.25 640.0,15.93" fill="none" stroke="#1f77b4" stroke-width="1.2"/><circle cx="10.0" cy="107.41" r="2" fill="#1f77b4"/><polygon points="10.0,94.41379310344827 15.0,99.41379310344827 10.0,104.41379310344827 5.0,99.41379310344827" fill="#dca100" stroke="black" stroke-width="0.5"/><circle cx="80.0" cy="106.27" r="2" fill="#1f77b4"/><polygon points="80.0,93.27419108403144 85.0,98.27419108403144 80.0,103.27419108403144 75.0,98.27419108403144" fill="#dca100" stroke="black" stroke-width="0.5"/><circle cx="150.0" cy="105.82" r="2" fill="#1f77b4"/><polygon points="150.0,92.81681355246279 155.0,97.81681355246279 150.0,102.81681355246279 145.0,97.81681355246279" fill="#dca100" stroke="black" stroke-width="0.5"/><circle cx="220.0" cy="15.19" r="2" fill="#1f77b4"/><polygon points="220.0,2.1861009287841 225.0,7.1861009287841 220.0,12.1861009287841 215.0,7.1861009287841" fill="#dca100" stroke="black" stroke-width="0.5"/><circle cx="290.0" cy="19.60" r="2" fill="#1f77b4"/><polygon points="290.0,6.60013784927196 295.0,11.60013784927196 290.0,16.60013784927196 285.0,11.60013784927196" fill="#dca100" stroke="black" stroke-width="0.5"/><circle cx="360.0" cy="19.73" r="2" fill="#1f77b4"/><polygon points="360.0,6.731568174435353 365.0,11.731568174435353 360.0,16.731568174435353 355.0,11.731568174435353" fill="#dca100" stroke="black" stroke-width="0.5"/><circle cx="430.0" cy="17.21" r="2" fill="#1f77b4"/><polygon points="430.0,4.212149941303039 435.0,9.21214994130304 430.0,14.21214994130304 425.0,9.21214994130304" fill="#dca100" stroke="black" stroke-width="0.5"/><circle cx="500.0" cy="12.59" r="2" fill="#1f77b4"/><polygon points="499.99999999999994,-0.41379310344827047 494.99999999999994,9.58620689655173 504.99999999999994,9.58620689655173" fill="#2ca02c" stroke="black" stroke-width="0.5"/><circle cx="570.0" cy="18.25" r="2" fill="#1f77b4"/><polygon points="570.0,5.25065171059417 575.0,10.25065171059417 570.0,15.25065171059417 565.0,10.25065171059417" fill="#dca100" stroke="black" stroke-width="0.5"/><circle cx="640.0" cy="15.93" r="2" fill="#1f77b4"/><polygon points="640.0,2.9338383787137445 645.0,7.9338383787137445 640.0,12.933838378713745 635.0,7.9338383787137445" fill="#dca100" stroke="black" stroke-width="0.5"/><text x="716" y="12" font-size="9" text-anchor="end" fill="#1f77b4" font-family="sans-serif">perf-stat.cache-misses</text><text x="730" y="-4" font-size="8" fill="#444" font-family="sans-serif">per-node spread</text><line x1="738.0" y1="12.59" x2="738.0" y2="107.41" stroke="#1f77b4" stroke-width="0.6"/><line x1="734.6" y1="107.41" x2="741.4" y2="107.41" stroke="#1f77b4" stroke-width="0.6"/><line x1="734.6" y1="12.59" x2="741.4" y2="12.59" stroke="#1f77b4" stroke-width="0.6"/><rect x="733.6" y="16.25" width="8.8" height="68.04" fill="#1f77b4" fill-opacity="0.22" stroke="#1f77b4" stroke-width="0.7"/><line x1="733.6" y1="18.93" x2="742.4" y2="18.93" stroke="#1f77b4" stroke-width="1.2"/></g><g transform="translate(40,304)"><rect x="0" y="0" width="720" height="120" fill="white" stroke="#888" stroke-width="0.5"/><text x="4" y="-4" font-size="11" font-family="sans-serif">cycles (lower=better)</text><text x="2" y="10" font-size="8" fill="#444" font-family="sans-serif">128M</text><text x="2" y="118" font-size="8" fill="#444" font-family="sans-serif">1.48M</text><line x1="360.0" y1="0" x2="360.0" y2="120" stroke="#2ca02c" stroke-width="0.7" stroke-dasharray="3,2"/><polyline points="10.0,107.41 80.0,106.62 150.0,106.28 220.0,13.16 290.0,13.52 360.0,13.41 430.0,13.17 500.0,20.33 570.0,12.71 640.0,12.59" fill="none" stroke="#1f77b4" stroke-width="1.2"/><circle cx="10.0" cy="107.41" r="2" fill="#1f77b4"/><polygon points="10.0,94.41379310344827 15.0,99.41379310344827 10.0,104.41379310344827 5.0,99.41379310344827" fill="#dca100" stroke="black" stroke-width="0.5"/><circle cx="80.0" cy="106.62" r="2" fill="#1f77b4"/><polygon points="80.0,93.61985563089681 85.0,98.61985563089681 80.0,103.61985563089681 75.0,98.61985563089681" fill="#dca100" stroke="black" stroke-width="0.5"/><circle cx="150.0" cy="106.28" r="2" fill="#1f77b4"/><polygon points="150.0,93.28004983526344 155.0,98.28004983526344 150.0,103.28004983526344 145.0,98.28004983526344" fill="#dca100" stroke="black" stroke-width="0.5"/><circle cx="220.0" cy="13.16" r="2" fill="#1f77b4"/><polygon points="220.0,0.16385427969295563 225.0,5.163854279692956 220.0,10.163854279692956 215.0,5.163854279692956" fill="#dca100" stroke="black" stroke-width="0.5"/><circle cx="290.0" cy="13.52" r="2" fill="#1f77b4"/><polygon points="290.0,0.5221590396475051 295.0,5.522159039647505 290.0,10.522159039647505 285.0,5.522159039647505" fill="#dca100" stroke="black" stroke-width="0.5"/><circle cx="360.0" cy="13.41" r="2" fill="#1f77b4"/><polygon points="360.0,0.40993553112636505 365.0,5.409935531126365 360.0,10.409935531126365 355.0,5.409935531126365" fill="#dca100" stroke="black" stroke-width="0.5"/><circle cx="430.0" cy="13.17" r="2" fill="#1f77b4"/><polygon points="430.0,0.17008998349878368 435.0,5.170089983498784 430.0,10.170089983498784 425.0,5.170089983498784" fill="#dca100" stroke="black" stroke-width="0.5"/><circle cx="500.0" cy="20.33" r="2" fill="#1f77b4"/><polygon points="499.99999999999994,7.3317635808826225 494.99999999999994,17.331763580882622 504.99999999999994,17.331763580882622" fill="#2ca02c" stroke="black" stroke-width="0.5"/><circle cx="570.0" cy="12.71" r="2" fill="#1f77b4"/><polygon points="570.0,-0.2921263356580681 575.0,4.707873664341932 570.0,9.707873664341932 565.0,4.707873664341932" fill="#dca100" stroke="black" stroke-width="0.5"/><circle cx="640.0" cy="12.59" r="2" fill="#1f77b4"/><polygon points="640.0,-0.41379310344827047 645.0,4.5862068965517295 640.0,9.58620689655173 635.0,4.5862068965517295" fill="#dca100" stroke="black" stroke-width="0.5"/><text x="716" y="12" font-size="9" text-anchor="end" fill="#1f77b4" font-family="sans-serif">perf-stat.cycles</text><text x="730" y="-4" font-size="8" fill="#444" font-family="sans-serif">per-node spread</text><line x1="738.0" y1="12.59" x2="738.0" y2="107.41" stroke="#1f77b4" stroke-width="0.6"/><line x1="734.6" y1="107.41" x2="741.4" y2="107.41" stroke="#1f77b4" stroke-width="0.6"/><line x1="734.6" y1="12.59" x2="741.4" y2="12.59" stroke="#1f77b4" stroke-width="0.6"/><rect x="733.6" y="13.17" width="8.8" height="71.63" fill="#1f77b4" fill-opacity="0.22" stroke="#1f77b4" stroke-width="0.7"/><line x1="733.6" y1="13.47" x2="742.4" y2="13.47" stroke="#1f77b4" stroke-width="1.2"/></g><g transform="translate(40,442)"><rect x="0" y="0" width="720" height="120" fill="white" stroke="#888" stroke-width="0.5"/><text x="4" y="-4" font-size="11" font-family="sans-serif">instructions (lower=better)</text><text x="2" y="10" font-size="8" fill="#444" font-family="sans-serif">72M</text><text x="2" y="118" font-size="8" fill="#444" font-family="sans-serif">-2.62M</text><line x1="360.0" y1="0" x2="360.0" y2="120" stroke="#2ca02c" stroke-width="0.7" stroke-dasharray="3,2"/><polyline points="10.0,107.41 80.0,107.12 150.0,106.92 220.0,12.99 290.0,12.84 360.0,12.89 430.0,12.87 500.0,12.59 570.0,12.93 640.0,12.79" fill="none" stroke="#1f77b4" stroke-width="1.2"/><circle cx="10.0" cy="107.41" r="2" fill="#1f77b4"/><polygon points="10.0,94.41379310344827 15.0,99.41379310344827 10.0,104.41379310344827 5.0,99.41379310344827" fill="#dca100" stroke="black" stroke-width="0.5"/><circle cx="80.0" cy="107.12" r="2" fill="#1f77b4"/><polygon points="80.0,94.12390847589978 85.0,99.12390847589978 80.0,104.12390847589978 75.0,99.12390847589978" fill="#dca100" stroke="black" stroke-width="0.5"/><circle cx="150.0" cy="106.92" r="2" fill="#1f77b4"/><polygon points="150.0,93.92186052933052 155.0,98.92186052933052 150.0,103.92186052933052 145.0,98.92186052933052" fill="#dca100" stroke="black" stroke-width="0.5"/><circle cx="220.0" cy="12.99" r="2" fill="#1f77b4"/><polygon points="220.0,-0.009797426657186747 225.0,4.990202573342813 220.0,9.990202573342813 215.0,4.990202573342813" fill="#dca100" stroke="black" stroke-width="0.5"/><circle cx="290.0" cy="12.84" r="2" fill="#1f77b4"/><polygon points="290.0,-0.15694450007480043 295.0,4.8430554999252 290.0,9.8430554999252 285.0,4.8430554999252" fill="#dca100" stroke="black" stroke-width="0.5"/><circle cx="360.0" cy="12.89" r="2" fill="#1f77b4"/><polygon points="360.0,-0.10915161874130774 365.0,4.890848381258692 360.0,9.890848381258692 355.0,4.890848381258692" fill="#dca100" stroke="black" stroke-width="0.5"/><circle cx="430.0" cy="12.87" r="2" fill="#1f77b4"/><polygon points="430.0,-0.1336987287814111 435.0,4.866301271218589 430.0,9.866301271218589 425.0,4.866301271218589" fill="#dca100" stroke="black" stroke-width="0.5"/><circle cx="500.0" cy="12.59" r="2" fill="#1f77b4"/><polygon points="499.99999999999994,-0.4137931034482847 494.99999999999994,9.586206896551715 504.99999999999994,9.586206896551715" fill="#2ca02c" stroke="black" stroke-width="0.5"/><circle cx="570.0" cy="12.93" r="2" fill="#1f77b4"/><polygon points="570.0,-0.07207304396352754 575.0,4.9279269560364725 570.0,9.927926956036472 565.0,4.9279269560364725" fill="#dca100" stroke="black" stroke-width="0.5"/><circle cx="640.0" cy="12.79" r="2" fill="#1f77b4"/><polygon points="640.0,-0.21237298282025563 645.0,4.787627017179744 640.0,9.787627017179744 635.0,4.787627017179744" fill="#dca100" stroke="black" stroke-width="0.5"/><text x="716" y="12" font-size="9" text-anchor="end" fill="#1f77b4" font-family="sans-serif">perf-stat.instructions</text><text x="730" y="-4" font-size="8" fill="#444" font-family="sans-serif">per-node spread</text><line x1="738.0" y1="12.59" x2="738.0" y2="107.41" stroke="#1f77b4" stroke-width="0.6"/><line x1="734.6" y1="107.41" x2="741.4" y2="107.41" stroke="#1f77b4" stroke-width="0.6"/><line x1="734.6" y1="12.59" x2="741.4" y2="12.59" stroke="#1f77b4" stroke-width="0.6"/><rect x="733.6" y="12.85" width="8.8" height="70.59" fill="#1f77b4" fill-opacity="0.22" stroke="#1f77b4" stroke-width="0.7"/><line x1="733.6" y1="12.91" x2="742.4" y2="12.91" stroke="#1f77b4" stroke-width="1.2"/></g><g transform="translate(40,580)"><rect x="0" y="0" width="720" height="120" fill="white" stroke="#888" stroke-width="0.5"/><text x="4" y="-4" font-size="11" font-family="sans-serif">max_rss_kb (lower=better)</text><text x="2" y="10" font-size="8" fill="#444" font-family="sans-serif">5.57MB</text><text x="2" y="118" font-size="8" fill="#444" font-family="sans-serif">5.42MB</text><line x1="360.0" y1="0" x2="360.0" y2="120" stroke="#2ca02c" stroke-width="0.7" stroke-dasharray="3,2"/><polyline points="220.0,98.79 290.0,107.41 360.0,15.46 430.0,61.44 500.0,107.41 570.0,15.46 640.0,12.59" fill="none" stroke="#1f77b4" stroke-width="1.2"/><circle cx="220.0" cy="98.79" r="2" fill="#1f77b4"/><polygon points="220.0,85.79310344827566 225.0,90.79310344827566 220.0,95.79310344827566 215.0,90.79310344827566" fill="#dca100" stroke="black" stroke-width="0.5"/><circle cx="290.0" cy="107.41" r="2" fill="#1f77b4"/><polygon points="290.0,94.41379310344803 295.0,99.41379310344803 290.0,104.41379310344803 285.0,99.41379310344803" fill="#dca100" stroke="black" stroke-width="0.5"/><circle cx="360.0" cy="15.46" r="2" fill="#1f77b4"/><polygon points="360.0,2.4597701149427564 365.0,7.459770114942756 360.0,12.459770114942756 355.0,7.459770114942756" fill="#dca100" stroke="black" stroke-width="0.5"/><circle cx="430.0" cy="61.44" r="2" fill="#1f77b4"/><polygon points="430.0,48.43678160919539 435.0,53.43678160919539 430.0,58.43678160919539 425.0,53.43678160919539" fill="#dca100" stroke="black" stroke-width="0.5"/><circle cx="500.0" cy="107.41" r="2" fill="#1f77b4"/><polygon points="499.99999999999994,94.41379310344803 494.99999999999994,104.41379310344803 504.99999999999994,104.41379310344803" fill="#2ca02c" stroke="black" stroke-width="0.5"/><circle cx="570.0" cy="15.46" r="2" fill="#1f77b4"/><polygon points="570.0,2.4597701149427564 575.0,7.459770114942756 570.0,12.459770114942756 565.0,7.459770114942756" fill="#dca100" stroke="black" stroke-width="0.5"/><circle cx="640.0" cy="12.59" r="2" fill="#1f77b4"/><polygon points="640.0,-0.4137931034480289 645.0,4.586206896551971 640.0,9.586206896551971 635.0,4.586206896551971" fill="#dca100" stroke="black" stroke-width="0.5"/><text x="716" y="12" font-size="9" text-anchor="end" fill="#1f77b4" font-family="sans-serif">rusage.default</text><polyline points="220.0,98.79 290.0,107.41 360.0,15.46 430.0,61.44 500.0,107.41 570.0,15.46 640.0,12.59" fill="none" stroke="#ff7f0e" stroke-width="1.2"/><circle cx="220.0" cy="98.79" r="2" fill="#ff7f0e"/><polygon points="220.0,85.79310344827566 225.0,90.79310344827566 220.0,95.79310344827566 215.0,90.79310344827566" fill="#dca100" stroke="black" stroke-width="0.5"/><circle cx="290.0" cy="107.41" r="2" fill="#ff7f0e"/><polygon points="290.0,94.41379310344803 295.0,99.41379310344803 290.0,104.41379310344803 285.0,99.41379310344803" fill="#dca100" stroke="black" stroke-width="0.5"/><circle cx="360.0" cy="15.46" r="2" fill="#ff7f0e"/><polygon points="360.0,2.4597701149427564 365.0,7.459770114942756 360.0,12.459770114942756 355.0,7.459770114942756" fill="#dca100" stroke="black" stroke-width="0.5"/><circle cx="430.0" cy="61.44" r="2" fill="#ff7f0e"/><polygon points="430.0,48.43678160919539 435.0,53.43678160919539 430.0,58.43678160919539 425.0,53.43678160919539" fill="#dca100" stroke="black" stroke-width="0.5"/><circle cx="500.0" cy="107.41" r="2" fill="#ff7f0e"/><polygon points="499.99999999999994,94.41379310344803 494.99999999999994,104.41379310344803 504.99999999999994,104.41379310344803" fill="#2ca02c" stroke="black" stroke-width="0.5"/><circle cx="570.0" cy="15.46" r="2" fill="#ff7f0e"/><polygon points="570.0,2.4597701149427564 575.0,7.459770114942756 570.0,12.459770114942756 565.0,7.459770114942756" fill="#dca100" stroke="black" stroke-width="0.5"/><circle cx="640.0" cy="12.59" r="2" fill="#ff7f0e"/><polygon points="640.0,-0.4137931034480289 645.0,4.586206896551971 640.0,9.586206896551971 635.0,4.586206896551971" fill="#dca100" stroke="black" stroke-width="0.5"/><text x="716" y="23" font-size="9" text-anchor="end" fill="#ff7f0e" font-family="sans-serif">rusage</text><text x="730" y="-4" font-size="8" fill="#444" font-family="sans-serif">per-node spread</text><line x1="738.0" y1="12.59" x2="738.0" y2="107.41" stroke="#1f77b4" stroke-width="0.6"/><line x1="734.6" y1="107.41" x2="741.4" y2="107.41" stroke="#1f77b4" stroke-width="0.6"/><line x1="734.6" y1="12.59" x2="741.4" y2="12.59" stroke="#1f77b4" stroke-width="0.6"/><rect x="733.6" y="15.46" width="8.8" height="87.64" fill="#1f77b4" fill-opacity="0.22" stroke="#1f77b4" stroke-width="0.7"/><line x1="733.6" y1="61.44" x2="742.4" y2="61.44" stroke="#1f77b4" stroke-width="1.2"/><line x1="754.0" y1="12.59" x2="754.0" y2="107.41" stroke="#ff7f0e" stroke-width="0.6"/><line x1="750.6" y1="107.41" x2="757.4" y2="107.41" stroke="#ff7f0e" stroke-width="0.6"/><line x1="750.6" y1="12.59" x2="757.4" y2="12.59" stroke="#ff7f0e" stroke-width="0.6"/><rect x="749.6" y="15.46" width="8.8" height="87.64" fill="#ff7f0e" fill-opacity="0.22" stroke="#ff7f0e" stroke-width="0.7"/><line x1="749.6" y1="61.44" x2="758.4" y2="61.44" stroke="#ff7f0e" stroke-width="1.2"/></g><g transform="translate(40,718)"><rect x="0" y="0" width="720" height="120" fill="white" stroke="#888" stroke-width="0.5"/><text x="4" y="-4" font-size="11" font-family="sans-serif">wall_s (lower=better)</text><text x="2" y="10" font-size="8" fill="#444" font-family="sans-serif">134ms</text><text x="2" y="118" font-size="8" fill="#444" font-family="sans-serif">76ms</text><line x1="360.0" y1="0" x2="360.0" y2="120" stroke="#2ca02c" stroke-width="0.7" stroke-dasharray="3,2"/><polyline points="220.0,107.41 290.0,12.59 360.0,12.59 430.0,107.41 500.0,107.41 570.0,31.55 640.0,107.41" fill="none" stroke="#1f77b4" stroke-width="1.2"/><circle cx="220.0" cy="107.41" r="2" fill="#1f77b4"/><polygon points="220.0,94.41379310344827 225.0,99.41379310344827 220.0,104.41379310344827 215.0,99.41379310344827" fill="#dca100" stroke="black" stroke-width="0.5"/><circle cx="290.0" cy="12.59" r="2" fill="#1f77b4"/><polygon points="290.0,-0.41379310344827047 295.0,4.5862068965517295 290.0,9.58620689655173 285.0,4.5862068965517295" fill="#dca100" stroke="black" stroke-width="0.5"/><circle cx="360.0" cy="12.59" r="2" fill="#1f77b4"/><polygon points="360.0,-0.41379310344827047 365.0,4.5862068965517295 360.0,9.58620689655173 355.0,4.5862068965517295" fill="#dca100" stroke="black" stroke-width="0.5"/><circle cx="430.0" cy="107.41" r="2" fill="#1f77b4"/><polygon points="430.0,94.41379310344827 435.0,99.41379310344827 430.0,104.41379310344827 425.0,99.41379310344827" fill="#dca100" stroke="black" stroke-width="0.5"/><circle cx="500.0" cy="107.41" r="2" fill="#1f77b4"/><polygon points="499.99999999999994,94.41379310344827 494.99999999999994,104.41379310344827 504.99999999999994,104.41379310344827" fill="#2ca02c" stroke="black" stroke-width="0.5"/><circle cx="570.0" cy="31.55" r="2" fill="#1f77b4"/><polygon points="570.0,18.551724137931046 575.0,23.551724137931046 570.0,28.551724137931046 565.0,23.551724137931046" fill="#dca100" stroke="black" stroke-width="0.5"/><circle cx="640.0" cy="107.41" r="2" fill="#1f77b4"/><polygon points="640.0,94.41379310344827 645.0,99.41379310344827 640.0,104.41379310344827 635.0,99.41379310344827" fill="#dca100" stroke="black" stroke-width="0.5"/><text x="716" y="12" font-size="9" text-anchor="end" fill="#1f77b4" font-family="sans-serif">rusage.default</text><polyline points="220.0,107.41 290.0,12.59 360.0,12.59 430.0,107.41 500.0,107.41 570.0,31.55 640.0,107.41" fill="none" stroke="#ff7f0e" stroke-width="1.2"/><circle cx="220.0" cy="107.41" r="2" fill="#ff7f0e"/><polygon points="220.0,94.41379310344827 225.0,99.41379310344827 220.0,104.41379310344827 215.0,99.41379310344827" fill="#dca100" stroke="black" stroke-width="0.5"/><circle cx="290.0" cy="12.59" r="2" fill="#ff7f0e"/><polygon points="290.0,-0.41379310344827047 295.0,4.5862068965517295 290.0,9.58620689655173 285.0,4.5862068965517295" fill="#dca100" stroke="black" stroke-width="0.5"/><circle cx="360.0" cy="12.59" r="2" fill="#ff7f0e"/><polygon points="360.0,-0.41379310344827047 365.0,4.5862068965517295 360.0,9.58620689655173 355.0,4.5862068965517295" fill="#dca100" stroke="black" stroke-width="0.5"/><circle cx="430.0" cy="107.41" r="2" fill="#ff7f0e"/><polygon points="430.0,94.41379310344827 435.0,99.41379310344827 430.0,104.41379310344827 425.0,99.41379310344827" fill="#dca100" stroke="black" stroke-width="0.5"/><circle cx="500.0" cy="107.41" r="2" fill="#ff7f0e"/><polygon points="499.99999999999994,94.41379310344827 494.99999999999994,104.41379310344827 504.99999999999994,104.41379310344827" fill="#2ca02c" stroke="black" stroke-width="0.5"/><circle cx="570.0" cy="31.55" r="2" fill="#ff7f0e"/><polygon points="570.0,18.551724137931046 575.0,23.551724137931046 570.0,28.551724137931046 565.0,23.551724137931046" fill="#dca100" stroke="black" stroke-width="0.5"/><circle cx="640.0" cy="107.41" r="2" fill="#ff7f0e"/><polygon points="640.0,94.41379310344827 645.0,99.41379310344827 640.0,104.41379310344827 635.0,99.41379310344827" fill="#dca100" stroke="black" stroke-width="0.5"/><text x="716" y="23" font-size="9" text-anchor="end" fill="#ff7f0e" font-family="sans-serif">rusage</text><text x="730" y="-4" font-size="8" fill="#444" font-family="sans-serif">per-node spread</text><line x1="738.0" y1="12.59" x2="738.0" y2="107.41" stroke="#1f77b4" stroke-width="0.6"/><line x1="734.6" y1="107.41" x2="741.4" y2="107.41" stroke="#1f77b4" stroke-width="0.6"/><line x1="734.6" y1="12.59" x2="741.4" y2="12.59" stroke="#1f77b4" stroke-width="0.6"/><rect x="733.6" y="22.07" width="8.8" height="85.34" fill="#1f77b4" fill-opacity="0.22" stroke="#1f77b4" stroke-width="0.7"/><line x1="733.6" y1="107.41" x2="742.4" y2="107.41" stroke="#1f77b4" stroke-width="1.2"/><line x1="754.0" y1="12.59" x2="754.0" y2="107.41" stroke="#ff7f0e" stroke-width="0.6"/><line x1="750.6" y1="107.41" x2="757.4" y2="107.41" stroke="#ff7f0e" stroke-width="0.6"/><line x1="750.6" y1="12.59" x2="757.4" y2="12.59" stroke="#ff7f0e" stroke-width="0.6"/><rect x="749.6" y="22.07" width="8.8" height="85.34" fill="#ff7f0e" fill-opacity="0.22" stroke="#ff7f0e" stroke-width="0.7"/><line x1="749.6" y1="107.41" x2="758.4" y2="107.41" stroke="#ff7f0e" stroke-width="1.2"/></g><g transform="translate(40,856)"><text x="10.0" y="10" font-size="8" fill="#222" text-anchor="middle" font-family="monospace" transform="rotate(45 10.0 10)">e77e4d5</text><text x="80.0" y="10" font-size="8" fill="#222" text-anchor="middle" font-family="monospace" transform="rotate(45 80.0 10)">2e3a07a</text><text x="150.0" y="10" font-size="8" fill="#222" text-anchor="middle" font-family="monospace" transform="rotate(45 150.0 10)">bd324c6</text><text x="220.0" y="10" font-size="8" fill="#222" text-anchor="middle" font-family="monospace" transform="rotate(45 220.0 10)">60d7d19</text><text x="290.0" y="10" font-size="8" fill="#222" text-anchor="middle" font-family="monospace" transform="rotate(45 290.0 10)">7f9a6e4</text><text x="360.0" y="10" font-size="8" fill="#2ca02c" text-anchor="middle" font-family="monospace" transform="rotate(45 360.0 10)">6280625</text><text x="430.0" y="10" font-size="8" fill="#222" text-anchor="middle" font-family="monospace" transform="rotate(45 430.0 10)">6280625</text><text x="500.0" y="10" font-size="8" fill="#222" text-anchor="middle" font-family="monospace" transform="rotate(45 500.0 10)">6280625</text><text x="570.0" y="10" font-size="8" fill="#222" text-anchor="middle" font-family="monospace" transform="rotate(45 570.0 10)">6280625</text><text x="640.0" y="10" font-size="8" fill="#222" text-anchor="middle" font-family="monospace" transform="rotate(45 640.0 10)">6280625</text><text x="710.0" y="10" font-size="8" fill="#222" text-anchor="middle" font-family="monospace" transform="rotate(45 710.0 10)">5462b5b</text></g><g transform="translate(540,892)"><text x="0" y="0" font-size="9" font-family="sans-serif">decisions:</text><polygon points="60,-9 55,1 65,1" fill="#2ca02c" stroke="black" stroke-width="0.5"/><text x="68" y="0" font-size="9" font-family="sans-serif">KEEP</text><polygon points="125,1 120,-9 130,-9" fill="#d62728" stroke="black" stroke-width="0.5"/><text x="133" y="0" font-size="9" font-family="sans-serif">DISCARD</text><polygon points="190,-9 195,-4 190,1 185,-4" fill="#dca100" stroke="black" stroke-width="0.5"/><text x="198" y="0" font-size="9" font-family="sans-serif">ESCALATE</text></g></svg>
