<?xml version="1.0" encoding="UTF-8"?>
<svg xmlns="http://www.w3.org/2000/svg" version="1.1" width="780" height="906" viewBox="0 0 780 906"><text x="40" y="18" font-size="13" font-family="sans-serif" font-weight="bold">benchmarkserversave -- LXC armv8-debian-13-armv8/rpi3 (unknown-cpu, aarch64, n=3)</text><g transform="translate(40,28)"><rect x="0" y="0" width="720" height="120" fill="white" stroke="#888" stroke-width="0.5"/><text x="4" y="-4" font-size="11" font-family="sans-serif">branch-misses</text><text x="2" y="10" font-size="8" fill="#444" font-family="sans-serif">8.89e+05</text><text x="2" y="118" font-size="8" fill="#444" font-family="sans-serif">8.79e+05</text><line x1="10.0" y1="0" x2="10.0" y2="120" stroke="#2ca02c" stroke-width="0.7" stroke-dasharray="3,2"/><polyline points="10.0,12.59 360.0,107.41 710.0,83.89" fill="none" stroke="#1f77b4" stroke-width="1.2"/><circle cx="10.0" cy="12.59" r="2" fill="#1f77b4"/><polygon points="10.0,-0.4137931034484126 5.0,9.586206896551587 15.0,9.586206896551587" fill="#2ca02c" stroke="black" stroke-width="0.5"/><circle cx="360.0" cy="107.41" r="2" fill="#1f77b4"/><polygon points="360.0,94.41379310344841 365.0,99.41379310344841 360.0,104.41379310344841 355.0,99.41379310344841" fill="#dca100" stroke="black" stroke-width="0.5"/><circle cx="710.0" cy="83.89" r="2" fill="#1f77b4"/><polygon points="710.0,70.89455008643442 715.0,75.89455008643442 710.0,80.89455008643442 705.0,75.89455008643442" fill="#dca100" stroke="black" stroke-width="0.5"/><text x="716" y="12" font-size="9" text-anchor="end" fill="#1f77b4" font-family="sans-serif">perf-stat.branch-misses (lower=better)</text></g><g transform="translate(40,166)"><rect x="0" y="0" width="720" height="120" fill="white" stroke="#888" stroke-width="0.5"/><text x="4" y="-4" font-size="11" font-family="sans-serif">cache-misses</text><text x="2" y="10" font-size="8" fill="#444" font-family="sans-serif">4.09e+05</text><text x="2" y="118" font-size="8" fill="#444" font-family="sans-serif">3.79e+05</text><line x1="10.0" y1="0" x2="10.0" y2="120" stroke="#2ca02c" stroke-width="0.7" stroke-dasharray="3,2"/><polyline points="10.0,81.61 360.0,12.59 710.0,107.41" fill="none" stroke="#1f77b4" stroke-width="1.2"/><circle cx="10.0" cy="81.61" r="2" fill="#1f77b4"/><polygon points="10.0,68.60671847482374 5.0,78.60671847482374 15.0,78.60671847482374" fill="#2ca02c" stroke="black" stroke-width="0.5"/><circle cx="360.0" cy="12.59" r="2" fill="#1f77b4"/><polygon points="360.0,-0.4137931034483131 365.0,4.586206896551687 360.0,9.586206896551687 355.0,4.586206896551687" fill="#dca100" stroke="black" stroke-width="0.5"/><circle cx="710.0" cy="107.41" r="2" fill="#1f77b4"/><polygon points="710.0,94.41379310344831 715.0,99.41379310344831 710.0,104.41379310344831 705.0,99.41379310344831" fill="#dca100" stroke="black" stroke-width="0.5"/><text x="716" y="12" font-size="9" text-anchor="end" fill="#1f77b4" font-family="sans-serif">perf-stat.cache-misses (lower=better)</text></g><g transform="translate(40,304)"><rect x="0" y="0" width="720" height="120" fill="white" stroke="#888" stroke-width="0.5"/><text x="4" y="-4" font-size="11" font-family="sans-serif">cycles</text><text x="2" y="10" font-size="8" fill="#444" font-family="sans-serif">1.42e+08</text><text x="2" y="118" font-size="8" fill="#444" font-family="sans-serif">1.41e+08</text><line x1="10.0" y1="0" x2="10.0" y2="120" stroke="#2ca02c" stroke-width="0.7" stroke-dasharray="3,2"/><polyline points="10.0,12.59 360.0,107.41 710.0,58.31" fill="none" stroke="#1f77b4" stroke-width="1.2"/><circle cx="10.0" cy="12.59" r="2" fill="#1f77b4"/><polygon points="10.0,-0.41379310344746045 5.0,9.58620689655254 15.0,9.58620689655254" fill="#2ca02c" stroke="black" stroke-width="0.5"/><circle cx="360.0" cy="107.41" r="2" fill="#1f77b4"/><polygon points="360.0,94.41379310344746 365.0,99.41379310344746 360.0,104.41379310344746 355.0,99.41379310344746" fill="#dca100" stroke="black" stroke-width="0.5"/><circle cx="710.0" cy="58.31" r="2" fill="#1f77b4"/><polygon points="710.0,45.30587475398888 715.0,50.30587475398888 710.0,55.30587475398888 705.0,50.30587475398888" fill="#dca100" stroke="black" stroke-width="0.5"/><text x="716" y="12" font-size="9" text-anchor="end" fill="#1f77b4" font-family="sans-serif">perf-stat.cycles (lower=better)</text></g><g transform="translate(40,442)"><rect x="0" y="0" width="720" height="120" fill="white" stroke="#888" stroke-width="0.5"/><text x="4" y="-4" font-size="11" font-family="sans-serif">instructions</text><text x="2" y="10" font-size="8" fill="#444" font-family="sans-serif">9.91e+07</text><text x="2" y="118" font-size="8" fill="#444" font-family="sans-serif">9.88e+07</text><line x1="10.0" y1="0" x2="10.0" y2="120" stroke="#2ca02c" stroke-width="0.7" stroke-dasharray="3,2"/><polyline points="10.0,12.59 360.0,107.41 710.0,67.36" fill="none" stroke="#1f77b4" stroke-width="1.2"/><circle cx="10.0" cy="12.59" r="2" fill="#1f77b4"/><polygon points="10.0,-0.41379310344827047 5.0,9.58620689655173 15.0,9.58620689655173" fill="#2ca02c" stroke="black" stroke-width="0.5"/><circle cx="360.0" cy="107.41" r="2" fill="#1f77b4"/><polygon points="360.0,94.41379310344827 365.0,99.41379310344827 360.0,104.41379310344827 355.0,99.41379310344827" fill="#dca100" stroke="black" stroke-width="0.5"/><circle cx="710.0" cy="67.36" r="2" fill="#1f77b4"/><polygon points="710.0,54.363557979832564 715.0,59.363557979832564 710.0,64.36355797983256 705.0,59.363557979832564" fill="#dca100" stroke="black" stroke-width="0.5"/><text x="716" y="12" font-size="9" text-anchor="end" fill="#1f77b4" font-family="sans-serif">perf-stat.instructions (lower=better)</text></g><g transform="translate(40,580)"><rect x="0" y="0" width="720" height="120" fill="white" stroke="#888" stroke-width="0.5"/><text x="4" y="-4" font-size="11" font-family="sans-serif">max_rss_kb</text><text x="2" y="10" font-size="8" fill="#444" font-family="sans-serif">7.26e+03</text><text x="2" y="118" font-size="8" fill="#444" font-family="sans-serif">7.25e+03</text><line x1="10.0" y1="0" x2="10.0" y2="120" stroke="#2ca02c" stroke-width="0.7" stroke-dasharray="3,2"/><polyline points="10.0,12.59 360.0,12.59 710.0,107.41" fill="none" stroke="#1f77b4" stroke-width="1.2"/><circle cx="10.0" cy="12.59" r="2" fill="#1f77b4"/><polygon points="10.0,-0.4137931034449309 5.0,9.586206896555069 15.0,9.586206896555069" fill="#2ca02c" stroke="black" stroke-width="0.5"/><circle cx="360.0" cy="12.59" r="2" fill="#1f77b4"/><polygon points="360.0,-0.4137931034449309 365.0,4.586206896555069 360.0,9.586206896555069 355.0,4.586206896555069" fill="#dca100" stroke="black" stroke-width="0.5"/><circle cx="710.0" cy="107.41" r="2" fill="#1f77b4"/><polygon points="710.0,94.41379310344493 715.0,99.41379310344493 710.0,104.41379310344493 705.0,99.41379310344493" fill="#dca100" stroke="black" stroke-width="0.5"/><text x="716" y="12" font-size="9" text-anchor="end" fill="#1f77b4" font-family="sans-serif">rusage.default.max_rss_kb (lower=better)</text><polyline points="10.0,12.59 360.0,12.59 710.0,107.41" fill="none" stroke="#ff7f0e" stroke-width="1.2"/><circle cx="10.0" cy="12.59" r="2" fill="#ff7f0e"/><polygon points="10.0,-0.4137931034449309 5.0,9.586206896555069 15.0,9.586206896555069" fill="#2ca02c" stroke="black" stroke-width="0.5"/><circle cx="360.0" cy="12.59" r="2" fill="#ff7f0e"/><polygon points="360.0,-0.4137931034449309 365.0,4.586206896555069 360.0,9.586206896555069 355.0,4.586206896555069" fill="#dca100" stroke="black" stroke-width="0.5"/><circle cx="710.0" cy="107.41" r="2" fill="#ff7f0e"/><polygon points="710.0,94.41379310344493 715.0,99.41379310344493 710.0,104.41379310344493 705.0,99.41379310344493" fill="#dca100" stroke="black" stroke-width="0.5"/><text x="716" y="23" font-size="9" text-anchor="end" fill="#ff7f0e" font-family="sans-serif">rusage.max_rss_kb (lower=better)</text></g><g transform="translate(40,718)"><rect x="0" y="0" width="720" height="120" fill="white" stroke="#888" stroke-width="0.5"/><text x="4" y="-4" font-size="11" font-family="sans-serif">wall_s</text><text x="2" y="10" font-size="8" fill="#444" font-family="sans-serif">0.219</text><text x="2" y="118" font-size="8" fill="#444" font-family="sans-serif">0.0912</text><line x1="10.0" y1="0" x2="10.0" y2="120" stroke="#2ca02c" stroke-width="0.7" stroke-dasharray="3,2"/><polyline points="10.0,12.59 360.0,107.41 710.0,107.41" fill="none" stroke="#1f77b4" stroke-width="1.2"/><circle cx="10.0" cy="12.59" r="2" fill="#1f77b4"/><polygon points="10.0,-0.41379310344827047 5.0,9.58620689655173 15.0,9.58620689655173" fill="#2ca02c" stroke="black" stroke-width="0.5"/><circle cx="360.0" cy="107.41" r="2" fill="#1f77b4"/><polygon points="360.0,94.41379310344827 365.0,99.41379310344827 360.0,104.41379310344827 355.0,99.41379310344827" fill="#dca100" stroke="black" stroke-width="0.5"/><circle cx="710.0" cy="107.41" r="2" fill="#1f77b4"/><polygon points="710.0,94.41379310344827 715.0,99.41379310344827 710.0,104.41379310344827 705.0,99.41379310344827" fill="#dca100" stroke="black" stroke-width="0.5"/><text x="716" y="12" font-size="9" text-anchor="end" fill="#1f77b4" font-family="sans-serif">rusage.default.wall_s (lower=better)</text><polyline points="10.0,12.59 360.0,107.41 710.0,107.41" fill="none" stroke="#ff7f0e" stroke-width="1.2"/><circle cx="10.0" cy="12.59" r="2" fill="#ff7f0e"/><polygon points="10.0,-0.41379310344827047 5.0,9.58620689655173 15.0,9.58620689655173" fill="#2ca02c" stroke="black" stroke-width="0.5"/><circle cx="360.0" cy="107.41" r="2" fill="#ff7f0e"/><polygon points="360.0,94.41379310344827 365.0,99.41379310344827 360.0,104.41379310344827 355.0,99.41379310344827" fill="#dca100" stroke="black" stroke-width="0.5"/><circle cx="710.0" cy="107.41" r="2" fill="#ff7f0e"/><polygon points="710.0,94.41379310344827 715.0,99.41379310344827 710.0,104.41379310344827 705.0,99.41379310344827" fill="#dca100" stroke="black" stroke-width="0.5"/><text x="716" y="23" font-size="9" text-anchor="end" fill="#ff7f0e" font-family="sans-serif">rusage.wall_s (lower=better)</text></g><g transform="translate(40,856)"><text x="10.0" y="10" font-size="8" fill="#2ca02c" text-anchor="middle" font-family="monospace" transform="rotate(45 10.0 10)">edca85f</text><text x="360.0" y="10" font-size="8" fill="#222" text-anchor="middle" font-family="monospace" transform="rotate(45 360.0 10)">90ce69c</text><text x="710.0" y="10" font-size="8" fill="#222" text-anchor="middle" font-family="monospace" transform="rotate(45 710.0 10)">90ce69c</text></g><g transform="translate(540,892)"><text x="0" y="0" font-size="9" font-family="sans-serif">decisions:</text><polygon points="60,-9 55,1 65,1" fill="#2ca02c" stroke="black" stroke-width="0.5"/><text x="68" y="0" font-size="9" font-family="sans-serif">KEEP</text><polygon points="125,1 120,-9 130,-9" fill="#d62728" stroke="black" stroke-width="0.5"/><text x="133" y="0" font-size="9" font-family="sans-serif">DISCARD</text><polygon points="190,-9 195,-4 190,1 185,-4" fill="#dca100" stroke="black" stroke-width="0.5"/><text x="198" y="0" font-size="9" font-family="sans-serif">ESCALATE</text></g></svg>
