<?xml version="1.0" encoding="UTF-8"?>
<svg xmlns="http://www.w3.org/2000/svg" version="1.1" width="780" height="906" viewBox="0 0 780 906"><text x="40" y="18" font-size="13" font-family="sans-serif" font-weight="bold">benchmarkserversave -- LXC armv8-debian-13-armv8/rpi3 (unknown-cpu, aarch64, n=9)</text><g transform="translate(40,28)"><rect x="0" y="0" width="720" height="120" fill="white" stroke="#888" stroke-width="0.5"/><text x="4" y="-4" font-size="11" font-family="sans-serif">branch-misses</text><text x="2" y="10" font-size="8" fill="#444" font-family="sans-serif">8.91e+05</text><text x="2" y="118" font-size="8" fill="#444" font-family="sans-serif">8.76e+05</text><line x1="10.0" y1="0" x2="10.0" y2="120" stroke="#2ca02c" stroke-width="0.7" stroke-dasharray="3,2"/><polyline points="10.0,20.41 97.5,83.87 185.0,68.13 272.5,72.89 360.0,12.59 447.5,95.84 622.5,107.41 710.0,82.01" fill="none" stroke="#1f77b4" stroke-width="1.2"/><circle cx="10.0" cy="20.41" r="2" fill="#1f77b4"/><polygon points="10.0,7.412067112459212 5.0,17.412067112459212 15.0,17.412067112459212" fill="#2ca02c" stroke="black" stroke-width="0.5"/><circle cx="97.5" cy="83.87" r="2" fill="#1f77b4"/><polygon points="97.5,70.8706936260107 102.5,75.8706936260107 97.5,80.8706936260107 92.5,75.8706936260107" fill="#dca100" stroke="black" stroke-width="0.5"/><circle cx="185.0" cy="68.13" r="2" fill="#1f77b4"/><polygon points="185.0,55.131614754575764 190.0,60.131614754575764 185.0,65.13161475457576 180.0,60.131614754575764" fill="#dca100" stroke="black" stroke-width="0.5"/><circle cx="272.5" cy="72.89" r="2" fill="#1f77b4"/><polygon points="272.5,59.892649713835 277.5,64.892649713835 272.5,69.892649713835 267.5,64.892649713835" fill="#dca100" stroke="black" stroke-width="0.5"/><circle cx="360.0" cy="12.59" r="2" fill="#1f77b4"/><polygon points="360.0,-0.4137931034485405 365.0,4.5862068965514595 360.0,9.58620689655146 355.0,4.5862068965514595" fill="#dca100" stroke="black" stroke-width="0.5"/><circle cx="447.5" cy="95.84" r="2" fill="#1f77b4"/><polygon points="447.5,82.83879985387335 452.5,87.83879985387335 447.5,92.83879985387335 442.5,87.83879985387335" fill="#dca100" stroke="black" stroke-width="0.5"/><circle cx="622.5" cy="107.41" r="2" fill="#1f77b4"/><polygon points="622.5,94.41379310344854 627.5,99.41379310344854 622.5,104.41379310344854 617.5,99.41379310344854" fill="#dca100" stroke="black" stroke-width="0.5"/><circle cx="710.0" cy="82.01" r="2" fill="#1f77b4"/><polygon points="710.0,69.00704691412943 715.0,74.00704691412943 710.0,79.00704691412943 705.0,74.00704691412943" fill="#dca100" stroke="black" stroke-width="0.5"/><text x="716" y="12" font-size="9" text-anchor="end" fill="#1f77b4" font-family="sans-serif">perf-stat.branch-misses (lower=better)</text></g><g transform="translate(40,166)"><rect x="0" y="0" width="720" height="120" fill="white" stroke="#888" stroke-width="0.5"/><text x="4" y="-4" font-size="11" font-family="sans-serif">cache-misses</text><text x="2" y="10" font-size="8" fill="#444" font-family="sans-serif">4.09e+05</text><text x="2" y="118" font-size="8" fill="#444" font-family="sans-serif">3.78e+05</text><line x1="10.0" y1="0" x2="10.0" y2="120" stroke="#2ca02c" stroke-width="0.7" stroke-dasharray="3,2"/><polyline points="10.0,81.30 97.5,12.59 185.0,106.99 272.5,107.41 360.0,58.62 447.5,85.75 622.5,79.80 710.0,95.78" fill="none" stroke="#1f77b4" stroke-width="1.2"/><circle cx="10.0" cy="81.30" r="2" fill="#1f77b4"/><polygon points="10.0,68.30143343570921 5.0,78.30143343570921 15.0,78.30143343570921" fill="#2ca02c" stroke="black" stroke-width="0.5"/><circle cx="97.5" cy="12.59" r="2" fill="#1f77b4"/><polygon points="97.5,-0.41379310344835574 102.5,4.586206896551644 97.5,9.586206896551644 92.5,4.586206896551644" fill="#dca100" stroke="black" stroke-width="0.5"/><circle cx="185.0" cy="106.99" r="2" fill="#1f77b4"/><polygon points="185.0,93.99436063761564 190.0,98.99436063761564 185.0,103.99436063761564 180.0,98.99436063761564" fill="#dca100" stroke="black" stroke-width="0.5"/><circle cx="272.5" cy="107.41" r="2" fill="#1f77b4"/><polygon points="272.5,94.41379310344836 277.5,99.41379310344836 272.5,104.41379310344836 267.5,99.41379310344836" fill="#dca100" stroke="black" stroke-width="0.5"/><circle cx="360.0" cy="58.62" r="2" fill="#1f77b4"/><polygon points="360.0,45.623401137779815 365.0,50.623401137779815 360.0,55.623401137779815 355.0,50.623401137779815" fill="#dca100" stroke="black" stroke-width="0.5"/><circle cx="447.5" cy="85.75" r="2" fill="#1f77b4"/><polygon points="447.5,72.75387038070264 452.5,77.75387038070264 447.5,82.75387038070264 442.5,77.75387038070264" fill="#dca100" stroke="black" stroke-width="0.5"/><circle cx="622.5" cy="79.80" r="2" fill="#1f77b4"/><polygon points="622.5,66.80294821589662 627.5,71.80294821589662 622.5,76.80294821589662 617.5,71.80294821589662" fill="#dca100" stroke="black" stroke-width="0.5"/><circle cx="710.0" cy="95.78" r="2" fill="#1f77b4"/><polygon points="710.0,82.78081573911372 715.0,87.78081573911372 710.0,92.78081573911372 705.0,87.78081573911372" fill="#dca100" stroke="black" stroke-width="0.5"/><text x="716" y="12" font-size="9" text-anchor="end" fill="#1f77b4" font-family="sans-serif">perf-stat.cache-misses (lower=better)</text></g><g transform="translate(40,304)"><rect x="0" y="0" width="720" height="120" fill="white" stroke="#888" stroke-width="0.5"/><text x="4" y="-4" font-size="11" font-family="sans-serif">cycles</text><text x="2" y="10" font-size="8" fill="#444" font-family="sans-serif">1.43e+08</text><text x="2" y="118" font-size="8" fill="#444" font-family="sans-serif">1.41e+08</text><line x1="10.0" y1="0" x2="10.0" y2="120" stroke="#2ca02c" stroke-width="0.7" stroke-dasharray="3,2"/><polyline points="10.0,33.01 97.5,78.48 185.0,54.93 272.5,107.41 360.0,12.59 447.5,57.78 622.5,72.55 710.0,73.29" fill="none" stroke="#1f77b4" stroke-width="1.2"/><circle cx="10.0" cy="33.01" r="2" fill="#1f77b4"/><polygon points="10.0,20.011748795461088 5.0,30.011748795461088 15.0,30.011748795461088" fill="#2ca02c" stroke="black" stroke-width="0.5"/><circle cx="97.5" cy="78.48" r="2" fill="#1f77b4"/><polygon points="97.5,65.482392128015 102.5,70.482392128015 97.5,75.482392128015 92.5,70.482392128015" fill="#dca100" stroke="black" stroke-width="0.5"/><circle cx="185.0" cy="54.93" r="2" fill="#1f77b4"/><polygon points="185.0,41.934722832705525 190.0,46.934722832705525 185.0,51.934722832705525 180.0,46.934722832705525" fill="#dca100" stroke="black" stroke-width="0.5"/><circle cx="272.5" cy="107.41" r="2" fill="#1f77b4"/><polygon points="272.5,94.41379310344789 277.5,99.41379310344789 272.5,104.41379310344789 267.5,99.41379310344789" fill="#dca100" stroke="black" stroke-width="0.5"/><circle cx="360.0" cy="12.59" r="2" fill="#1f77b4"/><polygon points="360.0,-0.4137931034478868 365.0,4.586206896552113 360.0,9.586206896552113 355.0,4.586206896552113" fill="#dca100" stroke="black" stroke-width="0.5"/><circle cx="447.5" cy="57.78" r="2" fill="#1f77b4"/><polygon points="447.5,44.781446148470394 452.5,49.781446148470394 447.5,54.781446148470394 442.5,49.781446148470394" fill="#dca100" stroke="black" stroke-width="0.5"/><circle cx="622.5" cy="72.55" r="2" fill="#1f77b4"/><polygon points="622.5,59.5471509637901 627.5,64.5471509637901 622.5,69.5471509637901 617.5,64.5471509637901" fill="#dca100" stroke="black" stroke-width="0.5"/><circle cx="710.0" cy="73.29" r="2" fill="#1f77b4"/><polygon points="710.0,60.28850314324055 715.0,65.28850314324055 710.0,70.28850314324055 705.0,65.28850314324055" fill="#dca100" stroke="black" stroke-width="0.5"/><text x="716" y="12" font-size="9" text-anchor="end" fill="#1f77b4" font-family="sans-serif">perf-stat.cycles (lower=better)</text></g><g transform="translate(40,442)"><rect x="0" y="0" width="720" height="120" fill="white" stroke="#888" stroke-width="0.5"/><text x="4" y="-4" font-size="11" font-family="sans-serif">instructions</text><text x="2" y="10" font-size="8" fill="#444" font-family="sans-serif">9.91e+07</text><text x="2" y="118" font-size="8" fill="#444" font-family="sans-serif">9.88e+07</text><line x1="10.0" y1="0" x2="10.0" y2="120" stroke="#2ca02c" stroke-width="0.7" stroke-dasharray="3,2"/><polyline points="10.0,12.59 97.5,107.41 185.0,67.36 272.5,83.37 360.0,46.17 447.5,79.93 622.5,78.75 710.0,51.00" fill="none" stroke="#1f77b4" stroke-width="1.2"/><circle cx="10.0" cy="12.59" r="2" fill="#1f77b4"/><polygon points="10.0,-0.41379310344827047 5.0,9.58620689655173 15.0,9.58620689655173" fill="#2ca02c" stroke="black" stroke-width="0.5"/><circle cx="97.5" cy="107.41" r="2" fill="#1f77b4"/><polygon points="97.5,94.41379310344827 102.5,99.41379310344827 97.5,104.41379310344827 92.5,99.41379310344827" fill="#dca100" stroke="black" stroke-width="0.5"/><circle cx="185.0" cy="67.36" r="2" fill="#1f77b4"/><polygon points="185.0,54.363557979832564 190.0,59.363557979832564 185.0,64.36355797983256 180.0,59.363557979832564" fill="#dca100" stroke="black" stroke-width="0.5"/><circle cx="272.5" cy="83.37" r="2" fill="#1f77b4"/><polygon points="272.5,70.3704007191297 277.5,75.3704007191297 272.5,80.3704007191297 267.5,75.3704007191297" fill="#dca100" stroke="black" stroke-width="0.5"/><circle cx="360.0" cy="46.17" r="2" fill="#1f77b4"/><polygon points="360.0,33.16886094991163 365.0,38.16886094991163 360.0,43.16886094991163 355.0,38.16886094991163" fill="#dca100" stroke="black" stroke-width="0.5"/><circle cx="447.5" cy="79.93" r="2" fill="#1f77b4"/><polygon points="447.5,66.9270780463643 452.5,71.9270780463643 447.5,76.9270780463643 442.5,71.9270780463643" fill="#dca100" stroke="black" stroke-width="0.5"/><circle cx="622.5" cy="78.75" r="2" fill="#1f77b4"/><polygon points="622.5,65.754303465398 627.5,70.754303465398 622.5,75.754303465398 617.5,70.754303465398" fill="#dca100" stroke="black" stroke-width="0.5"/><circle cx="710.0" cy="51.00" r="2" fill="#1f77b4"/><polygon points="710.0,38.00458017134366 715.0,43.00458017134366 710.0,48.00458017134366 705.0,43.00458017134366" fill="#dca100" stroke="black" stroke-width="0.5"/><text x="716" y="12" font-size="9" text-anchor="end" fill="#1f77b4" font-family="sans-serif">perf-stat.instructions (lower=better)</text></g><g transform="translate(40,580)"><rect x="0" y="0" width="720" height="120" fill="white" stroke="#888" stroke-width="0.5"/><text x="4" y="-4" font-size="11" font-family="sans-serif">max_rss_kb</text><text x="2" y="10" font-size="8" fill="#444" font-family="sans-serif">7.34e+03</text><text x="2" y="118" font-size="8" fill="#444" font-family="sans-serif">7.25e+03</text><line x1="10.0" y1="0" x2="10.0" y2="120" stroke="#2ca02c" stroke-width="0.7" stroke-dasharray="3,2"/><polyline points="10.0,98.38 97.5,98.38 185.0,107.41 272.5,12.59 360.0,102.90 447.5,107.41 622.5,98.38 710.0,107.41" fill="none" stroke="#1f77b4" stroke-width="1.2"/><circle cx="10.0" cy="98.38" r="2" fill="#1f77b4"/><polygon points="10.0,85.38259441707697 5.0,95.38259441707697 15.0,95.38259441707697" fill="#2ca02c" stroke="black" stroke-width="0.5"/><circle cx="97.5" cy="98.38" r="2" fill="#1f77b4"/><polygon points="97.5,85.38259441707697 102.5,90.38259441707697 97.5,95.38259441707697 92.5,90.38259441707697" fill="#dca100" stroke="black" stroke-width="0.5"/><circle cx="185.0" cy="107.41" r="2" fill="#1f77b4"/><polygon points="185.0,94.41379310344803 190.0,99.41379310344803 185.0,104.41379310344803 180.0,99.41379310344803" fill="#dca100" stroke="black" stroke-width="0.5"/><circle cx="272.5" cy="12.59" r="2" fill="#1f77b4"/><polygon points="272.5,-0.4137931034480289 277.5,4.586206896551971 272.5,9.586206896551971 267.5,4.586206896551971" fill="#dca100" stroke="black" stroke-width="0.5"/><circle cx="360.0" cy="102.90" r="2" fill="#1f77b4"/><polygon points="360.0,89.8981937602625 365.0,94.8981937602625 360.0,99.8981937602625 355.0,94.8981937602625" fill="#dca100" stroke="black" stroke-width="0.5"/><circle cx="447.5" cy="107.41" r="2" fill="#1f77b4"/><polygon points="447.5,94.41379310344803 452.5,99.41379310344803 447.5,104.41379310344803 442.5,99.41379310344803" fill="#dca100" stroke="black" stroke-width="0.5"/><circle cx="622.5" cy="98.38" r="2" fill="#1f77b4"/><polygon points="622.5,85.38259441707697 627.5,90.38259441707697 622.5,95.38259441707697 617.5,90.38259441707697" fill="#dca100" stroke="black" stroke-width="0.5"/><circle cx="710.0" cy="107.41" r="2" fill="#1f77b4"/><polygon points="710.0,94.41379310344803 715.0,99.41379310344803 710.0,104.41379310344803 705.0,99.41379310344803" fill="#dca100" stroke="black" stroke-width="0.5"/><text x="716" y="12" font-size="9" text-anchor="end" fill="#1f77b4" font-family="sans-serif">rusage.default.max_rss_kb (lower=better)</text><polyline points="10.0,98.38 97.5,98.38 185.0,107.41 272.5,12.59 360.0,102.90 447.5,107.41 622.5,98.38 710.0,107.41" fill="none" stroke="#ff7f0e" stroke-width="1.2"/><circle cx="10.0" cy="98.38" r="2" fill="#ff7f0e"/><polygon points="10.0,85.38259441707697 5.0,95.38259441707697 15.0,95.38259441707697" fill="#2ca02c" stroke="black" stroke-width="0.5"/><circle cx="97.5" cy="98.38" r="2" fill="#ff7f0e"/><polygon points="97.5,85.38259441707697 102.5,90.38259441707697 97.5,95.38259441707697 92.5,90.38259441707697" fill="#dca100" stroke="black" stroke-width="0.5"/><circle cx="185.0" cy="107.41" r="2" fill="#ff7f0e"/><polygon points="185.0,94.41379310344803 190.0,99.41379310344803 185.0,104.41379310344803 180.0,99.41379310344803" fill="#dca100" stroke="black" stroke-width="0.5"/><circle cx="272.5" cy="12.59" r="2" fill="#ff7f0e"/><polygon points="272.5,-0.4137931034480289 277.5,4.586206896551971 272.5,9.586206896551971 267.5,4.586206896551971" fill="#dca100" stroke="black" stroke-width="0.5"/><circle cx="360.0" cy="102.90" r="2" fill="#ff7f0e"/><polygon points="360.0,89.8981937602625 365.0,94.8981937602625 360.0,99.8981937602625 355.0,94.8981937602625" fill="#dca100" stroke="black" stroke-width="0.5"/><circle cx="447.5" cy="107.41" r="2" fill="#ff7f0e"/><polygon points="447.5,94.41379310344803 452.5,99.41379310344803 447.5,104.41379310344803 442.5,99.41379310344803" fill="#dca100" stroke="black" stroke-width="0.5"/><circle cx="622.5" cy="98.38" r="2" fill="#ff7f0e"/><polygon points="622.5,85.38259441707697 627.5,90.38259441707697 622.5,95.38259441707697 617.5,90.38259441707697" fill="#dca100" stroke="black" stroke-width="0.5"/><circle cx="710.0" cy="107.41" r="2" fill="#ff7f0e"/><polygon points="710.0,94.41379310344803 715.0,99.41379310344803 710.0,104.41379310344803 705.0,99.41379310344803" fill="#dca100" stroke="black" stroke-width="0.5"/><text x="716" y="23" font-size="9" text-anchor="end" fill="#ff7f0e" font-family="sans-serif">rusage.max_rss_kb (lower=better)</text></g><g transform="translate(40,718)"><rect x="0" y="0" width="720" height="120" fill="white" stroke="#888" stroke-width="0.5"/><text x="4" y="-4" font-size="11" font-family="sans-serif">wall_s</text><text x="2" y="10" font-size="8" fill="#444" font-family="sans-serif">0.219</text><text x="2" y="118" font-size="8" fill="#444" font-family="sans-serif">0.0912</text><line x1="10.0" y1="0" x2="10.0" y2="120" stroke="#2ca02c" stroke-width="0.7" stroke-dasharray="3,2"/><polyline points="10.0,12.59 97.5,107.41 185.0,107.41 272.5,107.41 360.0,107.41 447.5,107.41 622.5,107.41 710.0,107.41" fill="none" stroke="#1f77b4" stroke-width="1.2"/><circle cx="10.0" cy="12.59" r="2" fill="#1f77b4"/><polygon points="10.0,-0.41379310344827047 5.0,9.58620689655173 15.0,9.58620689655173" fill="#2ca02c" stroke="black" stroke-width="0.5"/><circle cx="97.5" cy="107.41" r="2" fill="#1f77b4"/><polygon points="97.5,94.41379310344827 102.5,99.41379310344827 97.5,104.41379310344827 92.5,99.41379310344827" fill="#dca100" stroke="black" stroke-width="0.5"/><circle cx="185.0" cy="107.41" r="2" fill="#1f77b4"/><polygon points="185.0,94.41379310344827 190.0,99.41379310344827 185.0,104.41379310344827 180.0,99.41379310344827" fill="#dca100" stroke="black" stroke-width="0.5"/><circle cx="272.5" cy="107.41" r="2" fill="#1f77b4"/><polygon points="272.5,94.41379310344827 277.5,99.41379310344827 272.5,104.41379310344827 267.5,99.41379310344827" fill="#dca100" stroke="black" stroke-width="0.5"/><circle cx="360.0" cy="107.41" r="2" fill="#1f77b4"/><polygon points="360.0,94.41379310344827 365.0,99.41379310344827 360.0,104.41379310344827 355.0,99.41379310344827" fill="#dca100" stroke="black" stroke-width="0.5"/><circle cx="447.5" cy="107.41" r="2" fill="#1f77b4"/><polygon points="447.5,94.41379310344827 452.5,99.41379310344827 447.5,104.41379310344827 442.5,99.41379310344827" fill="#dca100" stroke="black" stroke-width="0.5"/><circle cx="622.5" cy="107.41" r="2" fill="#1f77b4"/><polygon points="622.5,94.41379310344827 627.5,99.41379310344827 622.5,104.41379310344827 617.5,99.41379310344827" fill="#dca100" stroke="black" stroke-width="0.5"/><circle cx="710.0" cy="107.41" r="2" fill="#1f77b4"/><polygon points="710.0,94.41379310344827 715.0,99.41379310344827 710.0,104.41379310344827 705.0,99.41379310344827" fill="#dca100" stroke="black" stroke-width="0.5"/><text x="716" y="12" font-size="9" text-anchor="end" fill="#1f77b4" font-family="sans-serif">rusage.default.wall_s (lower=better)</text><polyline points="10.0,12.59 97.5,107.41 185.0,107.41 272.5,107.41 360.0,107.41 447.5,107.41 622.5,107.41 710.0,107.41" fill="none" stroke="#ff7f0e" stroke-width="1.2"/><circle cx="10.0" cy="12.59" r="2" fill="#ff7f0e"/><polygon points="10.0,-0.41379310344827047 5.0,9.58620689655173 15.0,9.58620689655173" fill="#2ca02c" stroke="black" stroke-width="0.5"/><circle cx="97.5" cy="107.41" r="2" fill="#ff7f0e"/><polygon points="97.5,94.41379310344827 102.5,99.41379310344827 97.5,104.41379310344827 92.5,99.41379310344827" fill="#dca100" stroke="black" stroke-width="0.5"/><circle cx="185.0" cy="107.41" r="2" fill="#ff7f0e"/><polygon points="185.0,94.41379310344827 190.0,99.41379310344827 185.0,104.41379310344827 180.0,99.41379310344827" fill="#dca100" stroke="black" stroke-width="0.5"/><circle cx="272.5" cy="107.41" r="2" fill="#ff7f0e"/><polygon points="272.5,94.41379310344827 277.5,99.41379310344827 272.5,104.41379310344827 267.5,99.41379310344827" fill="#dca100" stroke="black" stroke-width="0.5"/><circle cx="360.0" cy="107.41" r="2" fill="#ff7f0e"/><polygon points="360.0,94.41379310344827 365.0,99.41379310344827 360.0,104.41379310344827 355.0,99.41379310344827" fill="#dca100" stroke="black" stroke-width="0.5"/><circle cx="447.5" cy="107.41" r="2" fill="#ff7f0e"/><polygon points="447.5,94.41379310344827 452.5,99.41379310344827 447.5,104.41379310344827 442.5,99.41379310344827" fill="#dca100" stroke="black" stroke-width="0.5"/><circle cx="622.5" cy="107.41" r="2" fill="#ff7f0e"/><polygon points="622.5,94.41379310344827 627.5,99.41379310344827 622.5,104.41379310344827 617.5,99.41379310344827" fill="#dca100" stroke="black" stroke-width="0.5"/><circle cx="710.0" cy="107.41" r="2" fill="#ff7f0e"/><polygon points="710.0,94.41379310344827 715.0,99.41379310344827 710.0,104.41379310344827 705.0,99.41379310344827" fill="#dca100" stroke="black" stroke-width="0.5"/><text x="716" y="23" font-size="9" text-anchor="end" fill="#ff7f0e" font-family="sans-serif">rusage.wall_s (lower=better)</text></g><g transform="translate(40,856)"><text x="10.0" y="10" font-size="8" fill="#2ca02c" text-anchor="middle" font-family="monospace" transform="rotate(45 10.0 10)">edca85f</text><text x="97.5" y="10" font-size="8" fill="#222" text-anchor="middle" font-family="monospace" transform="rotate(45 97.5 10)">90ce69c</text><text x="185.0" y="10" font-size="8" fill="#222" text-anchor="middle" font-family="monospace" transform="rotate(45 185.0 10)">90ce69c</text><text x="272.5" y="10" font-size="8" fill="#222" text-anchor="middle" font-family="monospace" transform="rotate(45 272.5 10)">1856b24</text><text x="360.0" y="10" font-size="8" fill="#222" text-anchor="middle" font-family="monospace" transform="rotate(45 360.0 10)">a166d07</text><text x="447.5" y="10" font-size="8" fill="#222" text-anchor="middle" font-family="monospace" transform="rotate(45 447.5 10)">a166d07</text><text x="535.0" y="10" font-size="8" fill="#222" text-anchor="middle" font-family="monospace" transform="rotate(45 535.0 10)">a166d07</text><text x="622.5" y="10" font-size="8" fill="#222" text-anchor="middle" font-family="monospace" transform="rotate(45 622.5 10)">a166d07</text><text x="710.0" y="10" font-size="8" fill="#222" text-anchor="middle" font-family="monospace" transform="rotate(45 710.0 10)">a166d07</text></g><g transform="translate(540,892)"><text x="0" y="0" font-size="9" font-family="sans-serif">decisions:</text><polygon points="60,-9 55,1 65,1" fill="#2ca02c" stroke="black" stroke-width="0.5"/><text x="68" y="0" font-size="9" font-family="sans-serif">KEEP</text><polygon points="125,1 120,-9 130,-9" fill="#d62728" stroke="black" stroke-width="0.5"/><text x="133" y="0" font-size="9" font-family="sans-serif">DISCARD</text><polygon points="190,-9 195,-4 190,1 185,-4" fill="#dca100" stroke="black" stroke-width="0.5"/><text x="198" y="0" font-size="9" font-family="sans-serif">ESCALATE</text></g></svg>
