<?xml version="1.0" encoding="UTF-8"?>
<svg xmlns="http://www.w3.org/2000/svg" version="1.1" width="780" height="906" viewBox="0 0 780 906"><text x="40" y="18" font-size="13" font-family="sans-serif" font-weight="bold">benchmarkserversave -- LXC armv8-debian-13-armv8/rpi3 (unknown-cpu, aarch64, n=5)</text><g transform="translate(40,28)"><rect x="0" y="0" width="720" height="120" fill="white" stroke="#888" stroke-width="0.5"/><text x="4" y="-4" font-size="11" font-family="sans-serif">branch-misses</text><text x="2" y="10" font-size="8" fill="#444" font-family="sans-serif">8.12e+05</text><text x="2" y="118" font-size="8" fill="#444" font-family="sans-serif">8.06e+05</text><line x1="10.0" y1="0" x2="10.0" y2="120" stroke="#2ca02c" stroke-width="0.7" stroke-dasharray="3,2"/><polyline points="10.0,83.95 185.0,12.59 360.0,107.41 535.0,16.14 710.0,37.23" fill="none" stroke="#1f77b4" stroke-width="1.2"/><circle cx="10.0" cy="83.95" r="2" fill="#1f77b4"/><polygon points="10.0,70.95112390518756 5.0,80.95112390518756 15.0,80.95112390518756" fill="#2ca02c" stroke="black" stroke-width="0.5"/><circle cx="185.0" cy="12.59" r="2" fill="#1f77b4"/><polygon points="185.0,-0.4137931034479436 190.0,4.586206896552056 185.0,9.586206896552056 180.0,4.586206896552056" fill="#dca100" stroke="black" stroke-width="0.5"/><circle cx="360.0" cy="107.41" r="2" fill="#1f77b4"/><polygon points="360.0,94.41379310344794 365.0,99.41379310344794 360.0,104.41379310344794 355.0,99.41379310344794" fill="#dca100" stroke="black" stroke-width="0.5"/><circle cx="535.0" cy="16.14" r="2" fill="#1f77b4"/><polygon points="535.0,3.1401359710911407 540.0,8.14013597109114 535.0,13.14013597109114 530.0,8.14013597109114" fill="#dca100" stroke="black" stroke-width="0.5"/><circle cx="710.0" cy="37.23" r="2" fill="#1f77b4"/><polygon points="710.0,24.2279046977401 715.0,29.2279046977401 710.0,34.2279046977401 705.0,29.2279046977401" fill="#dca100" stroke="black" stroke-width="0.5"/><text x="716" y="12" font-size="9" text-anchor="end" fill="#1f77b4" font-family="sans-serif">perf-stat.branch-misses (lower=better)</text></g><g transform="translate(40,166)"><rect x="0" y="0" width="720" height="120" fill="white" stroke="#888" stroke-width="0.5"/><text x="4" y="-4" font-size="11" font-family="sans-serif">cache-misses</text><text x="2" y="10" font-size="8" fill="#444" font-family="sans-serif">3.57e+05</text><text x="2" y="118" font-size="8" fill="#444" font-family="sans-serif">3.45e+05</text><line x1="10.0" y1="0" x2="10.0" y2="120" stroke="#2ca02c" stroke-width="0.7" stroke-dasharray="3,2"/><polyline points="10.0,97.02 185.0,12.59 360.0,107.41 535.0,74.96 710.0,73.05" fill="none" stroke="#1f77b4" stroke-width="1.2"/><circle cx="10.0" cy="97.02" r="2" fill="#1f77b4"/><polygon points="10.0,84.0234922779085 5.0,94.0234922779085 15.0,94.0234922779085" fill="#2ca02c" stroke="black" stroke-width="0.5"/><circle cx="185.0" cy="12.59" r="2" fill="#1f77b4"/><polygon points="185.0,-0.413793103448441 190.0,4.586206896551559 185.0,9.586206896551559 180.0,4.586206896551559" fill="#dca100" stroke="black" stroke-width="0.5"/><circle cx="360.0" cy="107.41" r="2" fill="#1f77b4"/><polygon points="360.0,94.41379310344844 365.0,99.41379310344844 360.0,104.41379310344844 355.0,99.41379310344844" fill="#dca100" stroke="black" stroke-width="0.5"/><circle cx="535.0" cy="74.96" r="2" fill="#1f77b4"/><polygon points="535.0,61.95559671923958 540.0,66.95559671923958 535.0,71.95559671923958 530.0,66.95559671923958" fill="#dca100" stroke="black" stroke-width="0.5"/><circle cx="710.0" cy="73.05" r="2" fill="#1f77b4"/><polygon points="710.0,60.052240727304394 715.0,65.0522407273044 710.0,70.0522407273044 705.0,65.0522407273044" fill="#dca100" stroke="black" stroke-width="0.5"/><text x="716" y="12" font-size="9" text-anchor="end" fill="#1f77b4" font-family="sans-serif">perf-stat.cache-misses (lower=better)</text></g><g transform="translate(40,304)"><rect x="0" y="0" width="720" height="120" fill="white" stroke="#888" stroke-width="0.5"/><text x="4" y="-4" font-size="11" font-family="sans-serif">cycles</text><text x="2" y="10" font-size="8" fill="#444" font-family="sans-serif">1.32e+08</text><text x="2" y="118" font-size="8" fill="#444" font-family="sans-serif">1.31e+08</text><line x1="10.0" y1="0" x2="10.0" y2="120" stroke="#2ca02c" stroke-width="0.7" stroke-dasharray="3,2"/><polyline points="10.0,107.41 185.0,51.47 360.0,89.07 535.0,45.51 710.0,12.59" fill="none" stroke="#1f77b4" stroke-width="1.2"/><circle cx="10.0" cy="107.41" r="2" fill="#1f77b4"/><polygon points="10.0,94.41379310344749 5.0,104.41379310344749 15.0,104.41379310344749" fill="#2ca02c" stroke="black" stroke-width="0.5"/><circle cx="185.0" cy="51.47" r="2" fill="#1f77b4"/><polygon points="185.0,38.46661258192249 190.0,43.46661258192249 185.0,48.46661258192249 180.0,43.46661258192249" fill="#dca100" stroke="black" stroke-width="0.5"/><circle cx="360.0" cy="89.07" r="2" fill="#1f77b4"/><polygon points="360.0,76.06645868104354 365.0,81.06645868104354 360.0,86.06645868104354 355.0,81.06645868104354" fill="#dca100" stroke="black" stroke-width="0.5"/><circle cx="535.0" cy="45.51" r="2" fill="#1f77b4"/><polygon points="535.0,32.512473236534234 540.0,37.512473236534234 535.0,42.512473236534234 530.0,37.512473236534234" fill="#dca100" stroke="black" stroke-width="0.5"/><circle cx="710.0" cy="12.59" r="2" fill="#1f77b4"/><polygon points="710.0,-0.4137931034474889 715.0,4.586206896552511 710.0,9.586206896552511 705.0,4.586206896552511" fill="#dca100" stroke="black" stroke-width="0.5"/><text x="716" y="12" font-size="9" text-anchor="end" fill="#1f77b4" font-family="sans-serif">perf-stat.cycles (lower=better)</text></g><g transform="translate(40,442)"><rect x="0" y="0" width="720" height="120" fill="white" stroke="#888" stroke-width="0.5"/><text x="4" y="-4" font-size="11" font-family="sans-serif">instructions</text><text x="2" y="10" font-size="8" fill="#444" font-family="sans-serif">9.37e+07</text><text x="2" y="118" font-size="8" fill="#444" font-family="sans-serif">9.35e+07</text><line x1="10.0" y1="0" x2="10.0" y2="120" stroke="#2ca02c" stroke-width="0.7" stroke-dasharray="3,2"/><polyline points="10.0,49.14 185.0,40.14 360.0,107.41 535.0,23.46 710.0,12.59" fill="none" stroke="#1f77b4" stroke-width="1.2"/><circle cx="10.0" cy="49.14" r="2" fill="#1f77b4"/><polygon points="10.0,36.14282196887477 5.0,46.14282196887477 15.0,46.14282196887477" fill="#2ca02c" stroke="black" stroke-width="0.5"/><circle cx="185.0" cy="40.14" r="2" fill="#1f77b4"/><polygon points="185.0,27.13954760528175 190.0,32.13954760528175 185.0,37.13954760528175 180.0,32.13954760528175" fill="#dca100" stroke="black" stroke-width="0.5"/><circle cx="360.0" cy="107.41" r="2" fill="#1f77b4"/><polygon points="360.0,94.41379310344513 365.0,99.41379310344513 360.0,104.41379310344513 355.0,99.41379310344513" fill="#dca100" stroke="black" stroke-width="0.5"/><circle cx="535.0" cy="23.46" r="2" fill="#1f77b4"/><polygon points="535.0,10.457172014944845 540.0,15.457172014944845 535.0,20.457172014944845 530.0,15.457172014944845" fill="#dca100" stroke="black" stroke-width="0.5"/><circle cx="710.0" cy="12.59" r="2" fill="#1f77b4"/><polygon points="710.0,-0.41379310344511566 715.0,4.586206896554884 710.0,9.586206896554884 705.0,4.586206896554884" fill="#dca100" stroke="black" stroke-width="0.5"/><text x="716" y="12" font-size="9" text-anchor="end" fill="#1f77b4" font-family="sans-serif">perf-stat.instructions (lower=better)</text></g><g transform="translate(40,580)"><rect x="0" y="0" width="720" height="120" fill="white" stroke="#888" stroke-width="0.5"/><text x="4" y="-4" font-size="11" font-family="sans-serif">max_rss_kb</text><text x="2" y="10" font-size="8" fill="#444" font-family="sans-serif">7.19e+03</text><text x="2" y="118" font-size="8" fill="#444" font-family="sans-serif">7.18e+03</text><line x1="10.0" y1="0" x2="10.0" y2="120" stroke="#2ca02c" stroke-width="0.7" stroke-dasharray="3,2"/><polyline points="10.0,12.59 185.0,12.59 360.0,107.41 535.0,12.59 710.0,107.41" fill="none" stroke="#1f77b4" stroke-width="1.2"/><circle cx="10.0" cy="12.59" r="2" fill="#1f77b4"/><polygon points="10.0,-0.4137931034542248 5.0,9.586206896545775 15.0,9.586206896545775" fill="#2ca02c" stroke="black" stroke-width="0.5"/><circle cx="185.0" cy="12.59" r="2" fill="#1f77b4"/><polygon points="185.0,-0.4137931034542248 190.0,4.586206896545775 185.0,9.586206896545775 180.0,4.586206896545775" fill="#dca100" stroke="black" stroke-width="0.5"/><circle cx="360.0" cy="107.41" r="2" fill="#1f77b4"/><polygon points="360.0,94.41379310345422 365.0,99.41379310345422 360.0,104.41379310345422 355.0,99.41379310345422" fill="#dca100" stroke="black" stroke-width="0.5"/><circle cx="535.0" cy="12.59" r="2" fill="#1f77b4"/><polygon points="535.0,-0.4137931034542248 540.0,4.586206896545775 535.0,9.586206896545775 530.0,4.586206896545775" fill="#dca100" stroke="black" stroke-width="0.5"/><circle cx="710.0" cy="107.41" r="2" fill="#1f77b4"/><polygon points="710.0,94.41379310345422 715.0,99.41379310345422 710.0,104.41379310345422 705.0,99.41379310345422" fill="#dca100" stroke="black" stroke-width="0.5"/><text x="716" y="12" font-size="9" text-anchor="end" fill="#1f77b4" font-family="sans-serif">rusage.default.max_rss_kb (lower=better)</text><polyline points="10.0,12.59 185.0,12.59 360.0,107.41 535.0,12.59 710.0,107.41" fill="none" stroke="#ff7f0e" stroke-width="1.2"/><circle cx="10.0" cy="12.59" r="2" fill="#ff7f0e"/><polygon points="10.0,-0.4137931034542248 5.0,9.586206896545775 15.0,9.586206896545775" fill="#2ca02c" stroke="black" stroke-width="0.5"/><circle cx="185.0" cy="12.59" r="2" fill="#ff7f0e"/><polygon points="185.0,-0.4137931034542248 190.0,4.586206896545775 185.0,9.586206896545775 180.0,4.586206896545775" fill="#dca100" stroke="black" stroke-width="0.5"/><circle cx="360.0" cy="107.41" r="2" fill="#ff7f0e"/><polygon points="360.0,94.41379310345422 365.0,99.41379310345422 360.0,104.41379310345422 355.0,99.41379310345422" fill="#dca100" stroke="black" stroke-width="0.5"/><circle cx="535.0" cy="12.59" r="2" fill="#ff7f0e"/><polygon points="535.0,-0.4137931034542248 540.0,4.586206896545775 535.0,9.586206896545775 530.0,4.586206896545775" fill="#dca100" stroke="black" stroke-width="0.5"/><circle cx="710.0" cy="107.41" r="2" fill="#ff7f0e"/><polygon points="710.0,94.41379310345422 715.0,99.41379310345422 710.0,104.41379310345422 705.0,99.41379310345422" fill="#dca100" stroke="black" stroke-width="0.5"/><text x="716" y="23" font-size="9" text-anchor="end" fill="#ff7f0e" font-family="sans-serif">rusage.max_rss_kb (lower=better)</text></g><g transform="translate(40,718)"><rect x="0" y="0" width="720" height="120" fill="white" stroke="#888" stroke-width="0.5"/><text x="4" y="-4" font-size="11" font-family="sans-serif">wall_s</text><text x="2" y="10" font-size="8" fill="#444" font-family="sans-serif">1.26</text><text x="2" y="118" font-size="8" fill="#444" font-family="sans-serif">-1.06</text><line x1="10.0" y1="0" x2="10.0" y2="120" stroke="#2ca02c" stroke-width="0.7" stroke-dasharray="3,2"/><polyline points="10.0,60.00 185.0,60.00 360.0,60.00 535.0,60.00 710.0,60.00" fill="none" stroke="#1f77b4" stroke-width="1.2"/><circle cx="10.0" cy="60.00" r="2" fill="#1f77b4"/><polygon points="10.0,47.0 5.0,57.0 15.0,57.0" fill="#2ca02c" stroke="black" stroke-width="0.5"/><circle cx="185.0" cy="60.00" r="2" fill="#1f77b4"/><polygon points="185.0,47.0 190.0,52.0 185.0,57.0 180.0,52.0" fill="#dca100" stroke="black" stroke-width="0.5"/><circle cx="360.0" cy="60.00" r="2" fill="#1f77b4"/><polygon points="360.0,47.0 365.0,52.0 360.0,57.0 355.0,52.0" fill="#dca100" stroke="black" stroke-width="0.5"/><circle cx="535.0" cy="60.00" r="2" fill="#1f77b4"/><polygon points="535.0,47.0 540.0,52.0 535.0,57.0 530.0,52.0" fill="#dca100" stroke="black" stroke-width="0.5"/><circle cx="710.0" cy="60.00" r="2" fill="#1f77b4"/><polygon points="710.0,47.0 715.0,52.0 710.0,57.0 705.0,52.0" fill="#dca100" stroke="black" stroke-width="0.5"/><text x="716" y="12" font-size="9" text-anchor="end" fill="#1f77b4" font-family="sans-serif">rusage.default.wall_s (lower=better)</text><polyline points="10.0,60.00 185.0,60.00 360.0,60.00 535.0,60.00 710.0,60.00" fill="none" stroke="#ff7f0e" stroke-width="1.2"/><circle cx="10.0" cy="60.00" r="2" fill="#ff7f0e"/><polygon points="10.0,47.0 5.0,57.0 15.0,57.0" fill="#2ca02c" stroke="black" stroke-width="0.5"/><circle cx="185.0" cy="60.00" r="2" fill="#ff7f0e"/><polygon points="185.0,47.0 190.0,52.0 185.0,57.0 180.0,52.0" fill="#dca100" stroke="black" stroke-width="0.5"/><circle cx="360.0" cy="60.00" r="2" fill="#ff7f0e"/><polygon points="360.0,47.0 365.0,52.0 360.0,57.0 355.0,52.0" fill="#dca100" stroke="black" stroke-width="0.5"/><circle cx="535.0" cy="60.00" r="2" fill="#ff7f0e"/><polygon points="535.0,47.0 540.0,52.0 535.0,57.0 530.0,52.0" fill="#dca100" stroke="black" stroke-width="0.5"/><circle cx="710.0" cy="60.00" r="2" fill="#ff7f0e"/><polygon points="710.0,47.0 715.0,52.0 710.0,57.0 705.0,52.0" fill="#dca100" stroke="black" stroke-width="0.5"/><text x="716" y="23" font-size="9" text-anchor="end" fill="#ff7f0e" font-family="sans-serif">rusage.wall_s (lower=better)</text></g><g transform="translate(40,856)"><text x="10.0" y="10" font-size="8" fill="#2ca02c" text-anchor="middle" font-family="monospace" transform="rotate(45 10.0 10)">3d5154e</text><text x="185.0" y="10" font-size="8" fill="#222" text-anchor="middle" font-family="monospace" transform="rotate(45 185.0 10)">3d5154e</text><text x="360.0" y="10" font-size="8" fill="#222" text-anchor="middle" font-family="monospace" transform="rotate(45 360.0 10)">3d5154e</text><text x="535.0" y="10" font-size="8" fill="#222" text-anchor="middle" font-family="monospace" transform="rotate(45 535.0 10)">3d5154e</text><text x="710.0" y="10" font-size="8" fill="#222" text-anchor="middle" font-family="monospace" transform="rotate(45 710.0 10)">3d5154e</text></g><g transform="translate(540,892)"><text x="0" y="0" font-size="9" font-family="sans-serif">decisions:</text><polygon points="60,-9 55,1 65,1" fill="#2ca02c" stroke="black" stroke-width="0.5"/><text x="68" y="0" font-size="9" font-family="sans-serif">KEEP</text><polygon points="125,1 120,-9 130,-9" fill="#d62728" stroke="black" stroke-width="0.5"/><text x="133" y="0" font-size="9" font-family="sans-serif">DISCARD</text><polygon points="190,-9 195,-4 190,1 185,-4" fill="#dca100" stroke="black" stroke-width="0.5"/><text x="198" y="0" font-size="9" font-family="sans-serif">ESCALATE</text></g></svg>
