<?xml version="1.0" encoding="UTF-8"?>
<svg xmlns="http://www.w3.org/2000/svg" version="1.1" width="780" height="6150" viewBox="0 0 780 6150"><text x="40" y="18" font-size="13" font-family="sans-serif" font-weight="bold">benchmarkbotactions -- local/local (amd-ryzen-9-7950x3d-16-core-processor, amd64, n=2)</text><g transform="translate(40,28)"><rect x="0" y="0" width="720" height="120" fill="white" stroke="#888" stroke-width="0.5"/><text x="4" y="-4" font-size="11" font-family="sans-serif">b128_invol_ctx</text><text x="2" y="10" font-size="8" fill="#444" font-family="sans-serif">47.8</text><text x="2" y="118" font-size="8" fill="#444" font-family="sans-serif">36.7</text><line x1="10.0" y1="0" x2="10.0" y2="120" stroke="#2ca02c" stroke-width="0.7" stroke-dasharray="3,2"/><polyline points="10.0,107.41 710.0,12.59" fill="none" stroke="#1f77b4" stroke-width="1.2"/><circle cx="10.0" cy="107.41" r="2" fill="#1f77b4"/><polygon points="10.0,94.4137931034483 5.0,104.4137931034483 15.0,104.4137931034483" fill="#2ca02c" stroke="black" stroke-width="0.5"/><circle cx="710.0" cy="12.59" r="2" fill="#1f77b4"/><polygon points="710.0,-0.4137931034482989 715.0,4.586206896551701 710.0,9.586206896551701 705.0,4.586206896551701" fill="#dca100" stroke="black" stroke-width="0.5"/><text x="716" y="12" font-size="9" text-anchor="end" fill="#1f77b4" font-family="sans-serif">rusage.b128_invol_ctx (lower=better)</text></g><g transform="translate(40,166)"><rect x="0" y="0" width="720" height="120" fill="white" stroke="#888" stroke-width="0.5"/><text x="4" y="-4" font-size="11" font-family="sans-serif">b128_major_pf</text><text x="2" y="10" font-size="8" fill="#444" font-family="sans-serif">1.16</text><text x="2" y="118" font-size="8" fill="#444" font-family="sans-serif">-1.16</text><line x1="10.0" y1="0" x2="10.0" y2="120" stroke="#2ca02c" stroke-width="0.7" stroke-dasharray="3,2"/><polyline points="10.0,60.00 710.0,60.00" fill="none" stroke="#1f77b4" stroke-width="1.2"/><circle cx="10.0" cy="60.00" r="2" fill="#1f77b4"/><polygon points="10.0,47.0 5.0,57.0 15.0,57.0" fill="#2ca02c" stroke="black" stroke-width="0.5"/><circle cx="710.0" cy="60.00" r="2" fill="#1f77b4"/><polygon points="710.0,47.0 715.0,52.0 710.0,57.0 705.0,52.0" fill="#dca100" stroke="black" stroke-width="0.5"/><text x="716" y="12" font-size="9" text-anchor="end" fill="#1f77b4" font-family="sans-serif">rusage.b128_major_pf (lower=better)</text></g><g transform="translate(40,304)"><rect x="0" y="0" width="720" height="120" fill="white" stroke="#888" stroke-width="0.5"/><text x="4" y="-4" font-size="11" font-family="sans-serif">b128_max_rss_kb</text><text x="2" y="10" font-size="8" fill="#444" font-family="sans-serif">1.11e+05</text><text x="2" y="118" font-size="8" fill="#444" font-family="sans-serif">1.1e+05</text><line x1="10.0" y1="0" x2="10.0" y2="120" stroke="#2ca02c" stroke-width="0.7" stroke-dasharray="3,2"/><polyline points="10.0,107.41 710.0,12.59" fill="none" stroke="#1f77b4" stroke-width="1.2"/><circle cx="10.0" cy="107.41" r="2" fill="#1f77b4"/><polygon points="10.0,94.4137931034478 5.0,104.4137931034478 15.0,104.4137931034478" fill="#2ca02c" stroke="black" stroke-width="0.5"/><circle cx="710.0" cy="12.59" r="2" fill="#1f77b4"/><polygon points="710.0,-0.4137931034478157 715.0,4.586206896552184 710.0,9.586206896552184 705.0,4.586206896552184" fill="#dca100" stroke="black" stroke-width="0.5"/><text x="716" y="12" font-size="9" text-anchor="end" fill="#1f77b4" font-family="sans-serif">rusage.b128_max_rss_kb (lower=better)</text></g><g transform="translate(40,442)"><rect x="0" y="0" width="720" height="120" fill="white" stroke="#888" stroke-width="0.5"/><text x="4" y="-4" font-size="11" font-family="sans-serif">b128_minor_pf</text><text x="2" y="10" font-size="8" fill="#444" font-family="sans-serif">2.05e+04</text><text x="2" y="118" font-size="8" fill="#444" font-family="sans-serif">2.01e+04</text><line x1="10.0" y1="0" x2="10.0" y2="120" stroke="#2ca02c" stroke-width="0.7" stroke-dasharray="3,2"/><polyline points="10.0,107.41 710.0,12.59" fill="none" stroke="#1f77b4" stroke-width="1.2"/><circle cx="10.0" cy="107.41" r="2" fill="#1f77b4"/><polygon points="10.0,94.41379310344857 5.0,104.41379310344857 15.0,104.41379310344857" fill="#2ca02c" stroke="black" stroke-width="0.5"/><circle cx="710.0" cy="12.59" r="2" fill="#1f77b4"/><polygon points="710.0,-0.4137931034485689 715.0,4.586206896551431 710.0,9.586206896551431 705.0,4.586206896551431" fill="#dca100" stroke="black" stroke-width="0.5"/><text x="716" y="12" font-size="9" text-anchor="end" fill="#1f77b4" font-family="sans-serif">rusage.b128_minor_pf (lower=better)</text></g><g transform="translate(40,580)"><rect x="0" y="0" width="720" height="120" fill="white" stroke="#888" stroke-width="0.5"/><text x="4" y="-4" font-size="11" font-family="sans-serif">b128_net_rx_bytes</text><text x="2" y="10" font-size="8" fill="#444" font-family="sans-serif">5.07e+05</text><text x="2" y="118" font-size="8" fill="#444" font-family="sans-serif">5.06e+05</text><line x1="10.0" y1="0" x2="10.0" y2="120" stroke="#2ca02c" stroke-width="0.7" stroke-dasharray="3,2"/><polyline points="10.0,12.59 710.0,107.41" fill="none" stroke="#1f77b4" stroke-width="1.2"/><circle cx="10.0" cy="12.59" r="2" fill="#1f77b4"/><polygon points="10.0,-0.41379310344862574 5.0,9.586206896551374 15.0,9.586206896551374" fill="#2ca02c" stroke="black" stroke-width="0.5"/><circle cx="710.0" cy="107.41" r="2" fill="#1f77b4"/><polygon points="710.0,94.41379310344863 715.0,99.41379310344863 710.0,104.41379310344863 705.0,99.41379310344863" fill="#dca100" stroke="black" stroke-width="0.5"/><text x="716" y="12" font-size="9" text-anchor="end" fill="#1f77b4" font-family="sans-serif">rusage.b128_net_rx_bytes (lower=better)</text></g><g transform="translate(40,718)"><rect x="0" y="0" width="720" height="120" fill="white" stroke="#888" stroke-width="0.5"/><text x="4" y="-4" font-size="11" font-family="sans-serif">b128_net_rx_pkts</text><text x="2" y="10" font-size="8" fill="#444" font-family="sans-serif">5.95e+03</text><text x="2" y="118" font-size="8" fill="#444" font-family="sans-serif">5.92e+03</text><line x1="10.0" y1="0" x2="10.0" y2="120" stroke="#2ca02c" stroke-width="0.7" stroke-dasharray="3,2"/><polyline points="10.0,12.59 710.0,107.41" fill="none" stroke="#1f77b4" stroke-width="1.2"/><circle cx="10.0" cy="12.59" r="2" fill="#1f77b4"/><polygon points="10.0,-0.41379310344861153 5.0,9.586206896551388 15.0,9.586206896551388" fill="#2ca02c" stroke="black" stroke-width="0.5"/><circle cx="710.0" cy="107.41" r="2" fill="#1f77b4"/><polygon points="710.0,94.41379310344861 715.0,99.41379310344861 710.0,104.41379310344861 705.0,99.41379310344861" fill="#dca100" stroke="black" stroke-width="0.5"/><text x="716" y="12" font-size="9" text-anchor="end" fill="#1f77b4" font-family="sans-serif">rusage.b128_net_rx_pkts (lower=better)</text></g><g transform="translate(40,856)"><rect x="0" y="0" width="720" height="120" fill="white" stroke="#888" stroke-width="0.5"/><text x="4" y="-4" font-size="11" font-family="sans-serif">b128_net_tx_bytes</text><text x="2" y="10" font-size="8" fill="#444" font-family="sans-serif">5.07e+05</text><text x="2" y="118" font-size="8" fill="#444" font-family="sans-serif">5.06e+05</text><line x1="10.0" y1="0" x2="10.0" y2="120" stroke="#2ca02c" stroke-width="0.7" stroke-dasharray="3,2"/><polyline points="10.0,12.59 710.0,107.41" fill="none" stroke="#1f77b4" stroke-width="1.2"/><circle cx="10.0" cy="12.59" r="2" fill="#1f77b4"/><polygon points="10.0,-0.41379310344862574 5.0,9.586206896551374 15.0,9.586206896551374" fill="#2ca02c" stroke="black" stroke-width="0.5"/><circle cx="710.0" cy="107.41" r="2" fill="#1f77b4"/><polygon points="710.0,94.41379310344863 715.0,99.41379310344863 710.0,104.41379310344863 705.0,99.41379310344863" fill="#dca100" stroke="black" stroke-width="0.5"/><text x="716" y="12" font-size="9" text-anchor="end" fill="#1f77b4" font-family="sans-serif">rusage.b128_net_tx_bytes (lower=better)</text></g><g transform="translate(40,994)"><rect x="0" y="0" width="720" height="120" fill="white" stroke="#888" stroke-width="0.5"/><text x="4" y="-4" font-size="11" font-family="sans-serif">b128_net_tx_pkts</text><text x="2" y="10" font-size="8" fill="#444" font-family="sans-serif">5.95e+03</text><text x="2" y="118" font-size="8" fill="#444" font-family="sans-serif">5.92e+03</text><line x1="10.0" y1="0" x2="10.0" y2="120" stroke="#2ca02c" stroke-width="0.7" stroke-dasharray="3,2"/><polyline points="10.0,12.59 710.0,107.41" fill="none" stroke="#1f77b4" stroke-width="1.2"/><circle cx="10.0" cy="12.59" r="2" fill="#1f77b4"/><polygon points="10.0,-0.41379310344861153 5.0,9.586206896551388 15.0,9.586206896551388" fill="#2ca02c" stroke="black" stroke-width="0.5"/><circle cx="710.0" cy="107.41" r="2" fill="#1f77b4"/><polygon points="710.0,94.41379310344861 715.0,99.41379310344861 710.0,104.41379310344861 705.0,99.41379310344861" fill="#dca100" stroke="black" stroke-width="0.5"/><text x="716" y="12" font-size="9" text-anchor="end" fill="#1f77b4" font-family="sans-serif">rusage.b128_net_tx_pkts (lower=better)</text></g><g transform="translate(40,1132)"><rect x="0" y="0" width="720" height="120" fill="white" stroke="#888" stroke-width="0.5"/><text x="4" y="-4" font-size="11" font-family="sans-serif">b128_sys_s</text><text x="2" y="10" font-size="8" fill="#444" font-family="sans-serif">0.248</text><text x="2" y="118" font-size="8" fill="#444" font-family="sans-serif">0.207</text><line x1="10.0" y1="0" x2="10.0" y2="120" stroke="#2ca02c" stroke-width="0.7" stroke-dasharray="3,2"/><polyline points="10.0,107.41 710.0,12.59" fill="none" stroke="#1f77b4" stroke-width="1.2"/><circle cx="10.0" cy="107.41" r="2" fill="#1f77b4"/><polygon points="10.0,94.41379310344828 5.0,104.41379310344828 15.0,104.41379310344828" fill="#2ca02c" stroke="black" stroke-width="0.5"/><circle cx="710.0" cy="12.59" r="2" fill="#1f77b4"/><polygon points="710.0,-0.41379310344827047 715.0,4.5862068965517295 710.0,9.58620689655173 705.0,4.5862068965517295" fill="#dca100" stroke="black" stroke-width="0.5"/><text x="716" y="12" font-size="9" text-anchor="end" fill="#1f77b4" font-family="sans-serif">rusage.b128_sys_s (lower=better)</text></g><g transform="translate(40,1270)"><rect x="0" y="0" width="720" height="120" fill="white" stroke="#888" stroke-width="0.5"/><text x="4" y="-4" font-size="11" font-family="sans-serif">b128_tcp_retrans</text><text x="2" y="10" font-size="8" fill="#444" font-family="sans-serif">2.7</text><text x="2" y="118" font-size="8" fill="#444" font-family="sans-serif">-0.2</text><line x1="10.0" y1="0" x2="10.0" y2="120" stroke="#2ca02c" stroke-width="0.7" stroke-dasharray="3,2"/><polyline points="10.0,12.59 710.0,107.41" fill="none" stroke="#1f77b4" stroke-width="1.2"/><circle cx="10.0" cy="12.59" r="2" fill="#1f77b4"/><polygon points="10.0,-0.41379310344827047 5.0,9.58620689655173 15.0,9.58620689655173" fill="#2ca02c" stroke="black" stroke-width="0.5"/><circle cx="710.0" cy="107.41" r="2" fill="#1f77b4"/><polygon points="710.0,94.41379310344827 715.0,99.41379310344827 710.0,104.41379310344827 705.0,99.41379310344827" fill="#dca100" stroke="black" stroke-width="0.5"/><text x="716" y="12" font-size="9" text-anchor="end" fill="#1f77b4" font-family="sans-serif">rusage.b128_tcp_retrans (lower=better)</text></g><g transform="translate(40,1408)"><rect x="0" y="0" width="720" height="120" fill="white" stroke="#888" stroke-width="0.5"/><text x="4" y="-4" font-size="11" font-family="sans-serif">b128_user_s</text><text x="2" y="10" font-size="8" fill="#444" font-family="sans-serif">0.418</text><text x="2" y="118" font-size="8" fill="#444" font-family="sans-serif">0.377</text><line x1="10.0" y1="0" x2="10.0" y2="120" stroke="#2ca02c" stroke-width="0.7" stroke-dasharray="3,2"/><polyline points="10.0,12.59 710.0,107.41" fill="none" stroke="#1f77b4" stroke-width="1.2"/><circle cx="10.0" cy="12.59" r="2" fill="#1f77b4"/><polygon points="10.0,-0.41379310344822784 5.0,9.586206896551772 15.0,9.586206896551772" fill="#2ca02c" stroke="black" stroke-width="0.5"/><circle cx="710.0" cy="107.41" r="2" fill="#1f77b4"/><polygon points="710.0,94.41379310344823 715.0,99.41379310344823 710.0,104.41379310344823 705.0,99.41379310344823" fill="#dca100" stroke="black" stroke-width="0.5"/><text x="716" y="12" font-size="9" text-anchor="end" fill="#1f77b4" font-family="sans-serif">rusage.b128_user_s (lower=better)</text></g><g transform="translate(40,1546)"><rect x="0" y="0" width="720" height="120" fill="white" stroke="#888" stroke-width="0.5"/><text x="4" y="-4" font-size="11" font-family="sans-serif">b128_vol_ctx</text><text x="2" y="10" font-size="8" fill="#444" font-family="sans-serif">3.38e+03</text><text x="2" y="118" font-size="8" fill="#444" font-family="sans-serif">3.36e+03</text><line x1="10.0" y1="0" x2="10.0" y2="120" stroke="#2ca02c" stroke-width="0.7" stroke-dasharray="3,2"/><polyline points="10.0,107.41 710.0,12.59" fill="none" stroke="#1f77b4" stroke-width="1.2"/><circle cx="10.0" cy="107.41" r="2" fill="#1f77b4"/><polygon points="10.0,94.41379310344891 5.0,104.41379310344891 15.0,104.41379310344891" fill="#2ca02c" stroke="black" stroke-width="0.5"/><circle cx="710.0" cy="12.59" r="2" fill="#1f77b4"/><polygon points="710.0,-0.41379310344890996 715.0,4.58620689655109 710.0,9.58620689655109 705.0,4.58620689655109" fill="#dca100" stroke="black" stroke-width="0.5"/><text x="716" y="12" font-size="9" text-anchor="end" fill="#1f77b4" font-family="sans-serif">rusage.b128_vol_ctx (lower=better)</text></g><g transform="translate(40,1684)"><rect x="0" y="0" width="720" height="120" fill="white" stroke="#888" stroke-width="0.5"/><text x="4" y="-4" font-size="11" font-family="sans-serif">b128_wall_s</text><text x="2" y="10" font-size="8" fill="#444" font-family="sans-serif">31.2</text><text x="2" y="118" font-size="8" fill="#444" font-family="sans-serif">28.8</text><line x1="10.0" y1="0" x2="10.0" y2="120" stroke="#2ca02c" stroke-width="0.7" stroke-dasharray="3,2"/><polyline points="10.0,60.00 710.0,60.00" fill="none" stroke="#1f77b4" stroke-width="1.2"/><circle cx="10.0" cy="60.00" r="2" fill="#1f77b4"/><polygon points="10.0,47.0 5.0,57.0 15.0,57.0" fill="#2ca02c" stroke="black" stroke-width="0.5"/><circle cx="710.0" cy="60.00" r="2" fill="#1f77b4"/><polygon points="710.0,47.0 715.0,52.0 710.0,57.0 705.0,52.0" fill="#dca100" stroke="black" stroke-width="0.5"/><text x="716" y="12" font-size="9" text-anchor="end" fill="#1f77b4" font-family="sans-serif">rusage.b128_wall_s (lower=better)</text></g><g transform="translate(40,1822)"><rect x="0" y="0" width="720" height="120" fill="white" stroke="#888" stroke-width="0.5"/><text x="4" y="-4" font-size="11" font-family="sans-serif">b32_invol_ctx</text><text x="2" y="10" font-size="8" fill="#444" font-family="sans-serif">17.7</text><text x="2" y="118" font-size="8" fill="#444" font-family="sans-serif">15.3</text><line x1="10.0" y1="0" x2="10.0" y2="120" stroke="#2ca02c" stroke-width="0.7" stroke-dasharray="3,2"/><polyline points="10.0,12.59 710.0,107.41" fill="none" stroke="#1f77b4" stroke-width="1.2"/><circle cx="10.0" cy="12.59" r="2" fill="#1f77b4"/><polygon points="10.0,-0.41379310344827047 5.0,9.58620689655173 15.0,9.58620689655173" fill="#2ca02c" stroke="black" stroke-width="0.5"/><circle cx="710.0" cy="107.41" r="2" fill="#1f77b4"/><polygon points="710.0,94.41379310344827 715.0,99.41379310344827 710.0,104.41379310344827 705.0,99.41379310344827" fill="#dca100" stroke="black" stroke-width="0.5"/><text x="716" y="12" font-size="9" text-anchor="end" fill="#1f77b4" font-family="sans-serif">rusage.b32_invol_ctx (lower=better)</text></g><g transform="translate(40,1960)"><rect x="0" y="0" width="720" height="120" fill="white" stroke="#888" stroke-width="0.5"/><text x="4" y="-4" font-size="11" font-family="sans-serif">b32_major_pf</text><text x="2" y="10" font-size="8" fill="#444" font-family="sans-serif">1.16</text><text x="2" y="118" font-size="8" fill="#444" font-family="sans-serif">-1.16</text><line x1="10.0" y1="0" x2="10.0" y2="120" stroke="#2ca02c" stroke-width="0.7" stroke-dasharray="3,2"/><polyline points="10.0,60.00 710.0,60.00" fill="none" stroke="#1f77b4" stroke-width="1.2"/><circle cx="10.0" cy="60.00" r="2" fill="#1f77b4"/><polygon points="10.0,47.0 5.0,57.0 15.0,57.0" fill="#2ca02c" stroke="black" stroke-width="0.5"/><circle cx="710.0" cy="60.00" r="2" fill="#1f77b4"/><polygon points="710.0,47.0 715.0,52.0 710.0,57.0 705.0,52.0" fill="#dca100" stroke="black" stroke-width="0.5"/><text x="716" y="12" font-size="9" text-anchor="end" fill="#1f77b4" font-family="sans-serif">rusage.b32_major_pf (lower=better)</text></g><g transform="translate(40,2098)"><rect x="0" y="0" width="720" height="120" fill="white" stroke="#888" stroke-width="0.5"/><text x="4" y="-4" font-size="11" font-family="sans-serif">b32_max_rss_kb</text><text x="2" y="10" font-size="8" fill="#444" font-family="sans-serif">9.44e+04</text><text x="2" y="118" font-size="8" fill="#444" font-family="sans-serif">9.29e+04</text><line x1="10.0" y1="0" x2="10.0" y2="120" stroke="#2ca02c" stroke-width="0.7" stroke-dasharray="3,2"/><polyline points="10.0,12.59 710.0,107.41" fill="none" stroke="#1f77b4" stroke-width="1.2"/><circle cx="10.0" cy="12.59" r="2" fill="#1f77b4"/><polygon points="10.0,-0.4137931034481568 5.0,9.586206896551843 15.0,9.586206896551843" fill="#2ca02c" stroke="black" stroke-width="0.5"/><circle cx="710.0" cy="107.41" r="2" fill="#1f77b4"/><polygon points="710.0,94.41379310344817 715.0,99.41379310344817 710.0,104.41379310344817 705.0,99.41379310344817" fill="#dca100" stroke="black" stroke-width="0.5"/><text x="716" y="12" font-size="9" text-anchor="end" fill="#1f77b4" font-family="sans-serif">rusage.b32_max_rss_kb (lower=better)</text></g><g transform="translate(40,2236)"><rect x="0" y="0" width="720" height="120" fill="white" stroke="#888" stroke-width="0.5"/><text x="4" y="-4" font-size="11" font-family="sans-serif">b32_minor_pf</text><text x="2" y="10" font-size="8" fill="#444" font-family="sans-serif">1.61e+04</text><text x="2" y="118" font-size="8" fill="#444" font-family="sans-serif">1.61e+04</text><line x1="10.0" y1="0" x2="10.0" y2="120" stroke="#2ca02c" stroke-width="0.7" stroke-dasharray="3,2"/><polyline points="10.0,12.59 710.0,107.41" fill="none" stroke="#1f77b4" stroke-width="1.2"/><circle cx="10.0" cy="12.59" r="2" fill="#1f77b4"/><polygon points="10.0,-0.4137931034329796 5.0,9.58620689656702 15.0,9.58620689656702" fill="#2ca02c" stroke="black" stroke-width="0.5"/><circle cx="710.0" cy="107.41" r="2" fill="#1f77b4"/><polygon points="710.0,94.41379310343298 715.0,99.41379310343298 710.0,104.41379310343298 705.0,99.41379310343298" fill="#dca100" stroke="black" stroke-width="0.5"/><text x="716" y="12" font-size="9" text-anchor="end" fill="#1f77b4" font-family="sans-serif">rusage.b32_minor_pf (lower=better)</text></g><g transform="translate(40,2374)"><rect x="0" y="0" width="720" height="120" fill="white" stroke="#888" stroke-width="0.5"/><text x="4" y="-4" font-size="11" font-family="sans-serif">b32_net_rx_bytes</text><text x="2" y="10" font-size="8" fill="#444" font-family="sans-serif">1.7e+05</text><text x="2" y="118" font-size="8" fill="#444" font-family="sans-serif">1.65e+05</text><line x1="10.0" y1="0" x2="10.0" y2="120" stroke="#2ca02c" stroke-width="0.7" stroke-dasharray="3,2"/><polyline points="10.0,107.41 710.0,12.59" fill="none" stroke="#1f77b4" stroke-width="1.2"/><circle cx="10.0" cy="107.41" r="2" fill="#1f77b4"/><polygon points="10.0,94.41379310344857 5.0,104.41379310344857 15.0,104.41379310344857" fill="#2ca02c" stroke="black" stroke-width="0.5"/><circle cx="710.0" cy="12.59" r="2" fill="#1f77b4"/><polygon points="710.0,-0.4137931034485689 715.0,4.586206896551431 710.0,9.586206896551431 705.0,4.586206896551431" fill="#dca100" stroke="black" stroke-width="0.5"/><text x="716" y="12" font-size="9" text-anchor="end" fill="#1f77b4" font-family="sans-serif">rusage.b32_net_rx_bytes (lower=better)</text></g><g transform="translate(40,2512)"><rect x="0" y="0" width="720" height="120" fill="white" stroke="#888" stroke-width="0.5"/><text x="4" y="-4" font-size="11" font-family="sans-serif">b32_net_rx_pkts</text><text x="2" y="10" font-size="8" fill="#444" font-family="sans-serif">1.99e+03</text><text x="2" y="118" font-size="8" fill="#444" font-family="sans-serif">1.98e+03</text><line x1="10.0" y1="0" x2="10.0" y2="120" stroke="#2ca02c" stroke-width="0.7" stroke-dasharray="3,2"/><polyline points="10.0,107.41 710.0,12.59" fill="none" stroke="#1f77b4" stroke-width="1.2"/><circle cx="10.0" cy="107.41" r="2" fill="#1f77b4"/><polygon points="10.0,94.41379310344746 5.0,104.41379310344746 15.0,104.41379310344746" fill="#2ca02c" stroke="black" stroke-width="0.5"/><circle cx="710.0" cy="12.59" r="2" fill="#1f77b4"/><polygon points="710.0,-0.41379310344746045 715.0,4.5862068965525395 710.0,9.58620689655254 705.0,4.5862068965525395" fill="#dca100" stroke="black" stroke-width="0.5"/><text x="716" y="12" font-size="9" text-anchor="end" fill="#1f77b4" font-family="sans-serif">rusage.b32_net_rx_pkts (lower=better)</text></g><g transform="translate(40,2650)"><rect x="0" y="0" width="720" height="120" fill="white" stroke="#888" stroke-width="0.5"/><text x="4" y="-4" font-size="11" font-family="sans-serif">b32_net_tx_bytes</text><text x="2" y="10" font-size="8" fill="#444" font-family="sans-serif">1.7e+05</text><text x="2" y="118" font-size="8" fill="#444" font-family="sans-serif">1.65e+05</text><line x1="10.0" y1="0" x2="10.0" y2="120" stroke="#2ca02c" stroke-width="0.7" stroke-dasharray="3,2"/><polyline points="10.0,107.41 710.0,12.59" fill="none" stroke="#1f77b4" stroke-width="1.2"/><circle cx="10.0" cy="107.41" r="2" fill="#1f77b4"/><polygon points="10.0,94.41379310344857 5.0,104.41379310344857 15.0,104.41379310344857" fill="#2ca02c" stroke="black" stroke-width="0.5"/><circle cx="710.0" cy="12.59" r="2" fill="#1f77b4"/><polygon points="710.0,-0.4137931034485689 715.0,4.586206896551431 710.0,9.586206896551431 705.0,4.586206896551431" fill="#dca100" stroke="black" stroke-width="0.5"/><text x="716" y="12" font-size="9" text-anchor="end" fill="#1f77b4" font-family="sans-serif">rusage.b32_net_tx_bytes (lower=better)</text></g><g transform="translate(40,2788)"><rect x="0" y="0" width="720" height="120" fill="white" stroke="#888" stroke-width="0.5"/><text x="4" y="-4" font-size="11" font-family="sans-serif">b32_net_tx_pkts</text><text x="2" y="10" font-size="8" fill="#444" font-family="sans-serif">1.99e+03</text><text x="2" y="118" font-size="8" fill="#444" font-family="sans-serif">1.98e+03</text><line x1="10.0" y1="0" x2="10.0" y2="120" stroke="#2ca02c" stroke-width="0.7" stroke-dasharray="3,2"/><polyline points="10.0,107.41 710.0,12.59" fill="none" stroke="#1f77b4" stroke-width="1.2"/><circle cx="10.0" cy="107.41" r="2" fill="#1f77b4"/><polygon points="10.0,94.41379310344746 5.0,104.41379310344746 15.0,104.41379310344746" fill="#2ca02c" stroke="black" stroke-width="0.5"/><circle cx="710.0" cy="12.59" r="2" fill="#1f77b4"/><polygon points="710.0,-0.41379310344746045 715.0,4.5862068965525395 710.0,9.58620689655254 705.0,4.5862068965525395" fill="#dca100" stroke="black" stroke-width="0.5"/><text x="716" y="12" font-size="9" text-anchor="end" fill="#1f77b4" font-family="sans-serif">rusage.b32_net_tx_pkts (lower=better)</text></g><g transform="translate(40,2926)"><rect x="0" y="0" width="720" height="120" fill="white" stroke="#888" stroke-width="0.5"/><text x="4" y="-4" font-size="11" font-family="sans-serif">b32_sys_s</text><text x="2" y="10" font-size="8" fill="#444" font-family="sans-serif">0.0854</text><text x="2" y="118" font-size="8" fill="#444" font-family="sans-serif">0.0796</text><line x1="10.0" y1="0" x2="10.0" y2="120" stroke="#2ca02c" stroke-width="0.7" stroke-dasharray="3,2"/><polyline points="10.0,12.59 710.0,107.41" fill="none" stroke="#1f77b4" stroke-width="1.2"/><circle cx="10.0" cy="12.59" r="2" fill="#1f77b4"/><polygon points="10.0,-0.4137931034482989 5.0,9.586206896551701 15.0,9.586206896551701" fill="#2ca02c" stroke="black" stroke-width="0.5"/><circle cx="710.0" cy="107.41" r="2" fill="#1f77b4"/><polygon points="710.0,94.4137931034483 715.0,99.4137931034483 710.0,104.4137931034483 705.0,99.4137931034483" fill="#dca100" stroke="black" stroke-width="0.5"/><text x="716" y="12" font-size="9" text-anchor="end" fill="#1f77b4" font-family="sans-serif">rusage.b32_sys_s (lower=better)</text></g><g transform="translate(40,3064)"><rect x="0" y="0" width="720" height="120" fill="white" stroke="#888" stroke-width="0.5"/><text x="4" y="-4" font-size="11" font-family="sans-serif">b32_tcp_retrans</text><text x="2" y="10" font-size="8" fill="#444" font-family="sans-serif">23.8</text><text x="2" y="118" font-size="8" fill="#444" font-family="sans-serif">-1.76</text><line x1="10.0" y1="0" x2="10.0" y2="120" stroke="#2ca02c" stroke-width="0.7" stroke-dasharray="3,2"/><polyline points="10.0,107.41 710.0,12.59" fill="none" stroke="#1f77b4" stroke-width="1.2"/><circle cx="10.0" cy="107.41" r="2" fill="#1f77b4"/><polygon points="10.0,94.41379310344828 5.0,104.41379310344828 15.0,104.41379310344828" fill="#2ca02c" stroke="black" stroke-width="0.5"/><circle cx="710.0" cy="12.59" r="2" fill="#1f77b4"/><polygon points="710.0,-0.41379310344827047 715.0,4.5862068965517295 710.0,9.58620689655173 705.0,4.5862068965517295" fill="#dca100" stroke="black" stroke-width="0.5"/><text x="716" y="12" font-size="9" text-anchor="end" fill="#1f77b4" font-family="sans-serif">rusage.b32_tcp_retrans (lower=better)</text></g><g transform="translate(40,3202)"><rect x="0" y="0" width="720" height="120" fill="white" stroke="#888" stroke-width="0.5"/><text x="4" y="-4" font-size="11" font-family="sans-serif">b32_user_s</text><text x="2" y="10" font-size="8" fill="#444" font-family="sans-serif">0.2</text><text x="2" y="118" font-size="8" fill="#444" font-family="sans-serif">0.195</text><line x1="10.0" y1="0" x2="10.0" y2="120" stroke="#2ca02c" stroke-width="0.7" stroke-dasharray="3,2"/><polyline points="10.0,107.41 710.0,12.59" fill="none" stroke="#1f77b4" stroke-width="1.2"/><circle cx="10.0" cy="107.41" r="2" fill="#1f77b4"/><polygon points="10.0,94.4137931034481 5.0,104.4137931034481 15.0,104.4137931034481" fill="#2ca02c" stroke="black" stroke-width="0.5"/><circle cx="710.0" cy="12.59" r="2" fill="#1f77b4"/><polygon points="710.0,-0.41379310344808573 715.0,4.586206896551914 710.0,9.586206896551914 705.0,4.586206896551914" fill="#dca100" stroke="black" stroke-width="0.5"/><text x="716" y="12" font-size="9" text-anchor="end" fill="#1f77b4" font-family="sans-serif">rusage.b32_user_s (lower=better)</text></g><g transform="translate(40,3340)"><rect x="0" y="0" width="720" height="120" fill="white" stroke="#888" stroke-width="0.5"/><text x="4" y="-4" font-size="11" font-family="sans-serif">b32_vol_ctx</text><text x="2" y="10" font-size="8" fill="#444" font-family="sans-serif">1.92e+03</text><text x="2" y="118" font-size="8" fill="#444" font-family="sans-serif">1.88e+03</text><line x1="10.0" y1="0" x2="10.0" y2="120" stroke="#2ca02c" stroke-width="0.7" stroke-dasharray="3,2"/><polyline points="10.0,107.41 710.0,12.59" fill="none" stroke="#1f77b4" stroke-width="1.2"/><circle cx="10.0" cy="107.41" r="2" fill="#1f77b4"/><polygon points="10.0,94.4137931034483 5.0,104.4137931034483 15.0,104.4137931034483" fill="#2ca02c" stroke="black" stroke-width="0.5"/><circle cx="710.0" cy="12.59" r="2" fill="#1f77b4"/><polygon points="710.0,-0.4137931034482989 715.0,4.586206896551701 710.0,9.586206896551701 705.0,4.586206896551701" fill="#dca100" stroke="black" stroke-width="0.5"/><text x="716" y="12" font-size="9" text-anchor="end" fill="#1f77b4" font-family="sans-serif">rusage.b32_vol_ctx (lower=better)</text></g><g transform="translate(40,3478)"><rect x="0" y="0" width="720" height="120" fill="white" stroke="#888" stroke-width="0.5"/><text x="4" y="-4" font-size="11" font-family="sans-serif">b32_wall_s</text><text x="2" y="10" font-size="8" fill="#444" font-family="sans-serif">31.2</text><text x="2" y="118" font-size="8" fill="#444" font-family="sans-serif">28.8</text><line x1="10.0" y1="0" x2="10.0" y2="120" stroke="#2ca02c" stroke-width="0.7" stroke-dasharray="3,2"/><polyline points="10.0,60.00 710.0,60.00" fill="none" stroke="#1f77b4" stroke-width="1.2"/><circle cx="10.0" cy="60.00" r="2" fill="#1f77b4"/><polygon points="10.0,47.0 5.0,57.0 15.0,57.0" fill="#2ca02c" stroke="black" stroke-width="0.5"/><circle cx="710.0" cy="60.00" r="2" fill="#1f77b4"/><polygon points="710.0,47.0 715.0,52.0 710.0,57.0 705.0,52.0" fill="#dca100" stroke="black" stroke-width="0.5"/><text x="716" y="12" font-size="9" text-anchor="end" fill="#1f77b4" font-family="sans-serif">rusage.b32_wall_s (lower=better)</text></g><g transform="translate(40,3616)"><rect x="0" y="0" width="720" height="120" fill="white" stroke="#888" stroke-width="0.5"/><text x="4" y="-4" font-size="11" font-family="sans-serif">b4_invol_ctx</text><text x="2" y="10" font-size="8" fill="#444" font-family="sans-serif">21</text><text x="2" y="118" font-size="8" fill="#444" font-family="sans-serif">13.5</text><line x1="10.0" y1="0" x2="10.0" y2="120" stroke="#2ca02c" stroke-width="0.7" stroke-dasharray="3,2"/><polyline points="10.0,12.59 710.0,107.41" fill="none" stroke="#1f77b4" stroke-width="1.2"/><circle cx="10.0" cy="12.59" r="2" fill="#1f77b4"/><polygon points="10.0,-0.4137931034482847 5.0,9.586206896551715 15.0,9.586206896551715" fill="#2ca02c" stroke="black" stroke-width="0.5"/><circle cx="710.0" cy="107.41" r="2" fill="#1f77b4"/><polygon points="710.0,94.41379310344828 715.0,99.41379310344828 710.0,104.41379310344828 705.0,99.41379310344828" fill="#dca100" stroke="black" stroke-width="0.5"/><text x="716" y="12" font-size="9" text-anchor="end" fill="#1f77b4" font-family="sans-serif">rusage.b4_invol_ctx (lower=better)</text></g><g transform="translate(40,3754)"><rect x="0" y="0" width="720" height="120" fill="white" stroke="#888" stroke-width="0.5"/><text x="4" y="-4" font-size="11" font-family="sans-serif">b4_major_pf</text><text x="2" y="10" font-size="8" fill="#444" font-family="sans-serif">1.16</text><text x="2" y="118" font-size="8" fill="#444" font-family="sans-serif">-1.16</text><line x1="10.0" y1="0" x2="10.0" y2="120" stroke="#2ca02c" stroke-width="0.7" stroke-dasharray="3,2"/><polyline points="10.0,60.00 710.0,60.00" fill="none" stroke="#1f77b4" stroke-width="1.2"/><circle cx="10.0" cy="60.00" r="2" fill="#1f77b4"/><polygon points="10.0,47.0 5.0,57.0 15.0,57.0" fill="#2ca02c" stroke="black" stroke-width="0.5"/><circle cx="710.0" cy="60.00" r="2" fill="#1f77b4"/><polygon points="710.0,47.0 715.0,52.0 710.0,57.0 705.0,52.0" fill="#dca100" stroke="black" stroke-width="0.5"/><text x="716" y="12" font-size="9" text-anchor="end" fill="#1f77b4" font-family="sans-serif">rusage.b4_major_pf (lower=better)</text></g><g transform="translate(40,3892)"><rect x="0" y="0" width="720" height="120" fill="white" stroke="#888" stroke-width="0.5"/><text x="4" y="-4" font-size="11" font-family="sans-serif">b4_max_rss_kb</text><text x="2" y="10" font-size="8" fill="#444" font-family="sans-serif">9.09e+04</text><text x="2" y="118" font-size="8" fill="#444" font-family="sans-serif">9.06e+04</text><line x1="10.0" y1="0" x2="10.0" y2="120" stroke="#2ca02c" stroke-width="0.7" stroke-dasharray="3,2"/><polyline points="10.0,107.41 710.0,12.59" fill="none" stroke="#1f77b4" stroke-width="1.2"/><circle cx="10.0" cy="107.41" r="2" fill="#1f77b4"/><polygon points="10.0,94.4137931034464 5.0,104.4137931034464 15.0,104.4137931034464" fill="#2ca02c" stroke="black" stroke-width="0.5"/><circle cx="710.0" cy="12.59" r="2" fill="#1f77b4"/><polygon points="710.0,-0.41379310344639464 715.0,4.586206896553605 710.0,9.586206896553605 705.0,4.586206896553605" fill="#dca100" stroke="black" stroke-width="0.5"/><text x="716" y="12" font-size="9" text-anchor="end" fill="#1f77b4" font-family="sans-serif">rusage.b4_max_rss_kb (lower=better)</text></g><g transform="translate(40,4030)"><rect x="0" y="0" width="720" height="120" fill="white" stroke="#888" stroke-width="0.5"/><text x="4" y="-4" font-size="11" font-family="sans-serif">b4_minor_pf</text><text x="2" y="10" font-size="8" fill="#444" font-family="sans-serif">1.53e+04</text><text x="2" y="118" font-size="8" fill="#444" font-family="sans-serif">1.53e+04</text><line x1="10.0" y1="0" x2="10.0" y2="120" stroke="#2ca02c" stroke-width="0.7" stroke-dasharray="3,2"/><polyline points="10.0,12.59 710.0,107.41" fill="none" stroke="#1f77b4" stroke-width="1.2"/><circle cx="10.0" cy="12.59" r="2" fill="#1f77b4"/><polygon points="10.0,-0.4137931034542248 5.0,9.586206896545775 15.0,9.586206896545775" fill="#2ca02c" stroke="black" stroke-width="0.5"/><circle cx="710.0" cy="107.41" r="2" fill="#1f77b4"/><polygon points="710.0,94.41379310345422 715.0,99.41379310345422 710.0,104.41379310345422 705.0,99.41379310345422" fill="#dca100" stroke="black" stroke-width="0.5"/><text x="716" y="12" font-size="9" text-anchor="end" fill="#1f77b4" font-family="sans-serif">rusage.b4_minor_pf (lower=better)</text></g><g transform="translate(40,4168)"><rect x="0" y="0" width="720" height="120" fill="white" stroke="#888" stroke-width="0.5"/><text x="4" y="-4" font-size="11" font-family="sans-serif">b4_net_rx_bytes</text><text x="2" y="10" font-size="8" fill="#444" font-family="sans-serif">1.02e+04</text><text x="2" y="118" font-size="8" fill="#444" font-family="sans-serif">9.5e+03</text><line x1="10.0" y1="0" x2="10.0" y2="120" stroke="#2ca02c" stroke-width="0.7" stroke-dasharray="3,2"/><polyline points="10.0,12.59 710.0,107.41" fill="none" stroke="#1f77b4" stroke-width="1.2"/><circle cx="10.0" cy="12.59" r="2" fill="#1f77b4"/><polygon points="10.0,-0.4137931034481568 5.0,9.586206896551843 15.0,9.586206896551843" fill="#2ca02c" stroke="black" stroke-width="0.5"/><circle cx="710.0" cy="107.41" r="2" fill="#1f77b4"/><polygon points="710.0,94.41379310344816 715.0,99.41379310344816 710.0,104.41379310344816 705.0,99.41379310344816" fill="#dca100" stroke="black" stroke-width="0.5"/><text x="716" y="12" font-size="9" text-anchor="end" fill="#1f77b4" font-family="sans-serif">rusage.b4_net_rx_bytes (lower=better)</text></g><g transform="translate(40,4306)"><rect x="0" y="0" width="720" height="120" fill="white" stroke="#888" stroke-width="0.5"/><text x="4" y="-4" font-size="11" font-family="sans-serif">b4_net_rx_pkts</text><text x="2" y="10" font-size="8" fill="#444" font-family="sans-serif">105</text><text x="2" y="118" font-size="8" fill="#444" font-family="sans-serif">103</text><line x1="10.0" y1="0" x2="10.0" y2="120" stroke="#2ca02c" stroke-width="0.7" stroke-dasharray="3,2"/><polyline points="10.0,60.00 710.0,60.00" fill="none" stroke="#1f77b4" stroke-width="1.2"/><circle cx="10.0" cy="60.00" r="2" fill="#1f77b4"/><polygon points="10.0,47.0 5.0,57.0 15.0,57.0" fill="#2ca02c" stroke="black" stroke-width="0.5"/><circle cx="710.0" cy="60.00" r="2" fill="#1f77b4"/><polygon points="710.0,47.0 715.0,52.0 710.0,57.0 705.0,52.0" fill="#dca100" stroke="black" stroke-width="0.5"/><text x="716" y="12" font-size="9" text-anchor="end" fill="#1f77b4" font-family="sans-serif">rusage.b4_net_rx_pkts (lower=better)</text></g><g transform="translate(40,4444)"><rect x="0" y="0" width="720" height="120" fill="white" stroke="#888" stroke-width="0.5"/><text x="4" y="-4" font-size="11" font-family="sans-serif">b4_net_tx_bytes</text><text x="2" y="10" font-size="8" fill="#444" font-family="sans-serif">1.02e+04</text><text x="2" y="118" font-size="8" fill="#444" font-family="sans-serif">9.5e+03</text><line x1="10.0" y1="0" x2="10.0" y2="120" stroke="#2ca02c" stroke-width="0.7" stroke-dasharray="3,2"/><polyline points="10.0,12.59 710.0,107.41" fill="none" stroke="#1f77b4" stroke-width="1.2"/><circle cx="10.0" cy="12.59" r="2" fill="#1f77b4"/><polygon points="10.0,-0.4137931034481568 5.0,9.586206896551843 15.0,9.586206896551843" fill="#2ca02c" stroke="black" stroke-width="0.5"/><circle cx="710.0" cy="107.41" r="2" fill="#1f77b4"/><polygon points="710.0,94.41379310344816 715.0,99.41379310344816 710.0,104.41379310344816 705.0,99.41379310344816" fill="#dca100" stroke="black" stroke-width="0.5"/><text x="716" y="12" font-size="9" text-anchor="end" fill="#1f77b4" font-family="sans-serif">rusage.b4_net_tx_bytes (lower=better)</text></g><g transform="translate(40,4582)"><rect x="0" y="0" width="720" height="120" fill="white" stroke="#888" stroke-width="0.5"/><text x="4" y="-4" font-size="11" font-family="sans-serif">b4_net_tx_pkts</text><text x="2" y="10" font-size="8" fill="#444" font-family="sans-serif">105</text><text x="2" y="118" font-size="8" fill="#444" font-family="sans-serif">103</text><line x1="10.0" y1="0" x2="10.0" y2="120" stroke="#2ca02c" stroke-width="0.7" stroke-dasharray="3,2"/><polyline points="10.0,60.00 710.0,60.00" fill="none" stroke="#1f77b4" stroke-width="1.2"/><circle cx="10.0" cy="60.00" r="2" fill="#1f77b4"/><polygon points="10.0,47.0 5.0,57.0 15.0,57.0" fill="#2ca02c" stroke="black" stroke-width="0.5"/><circle cx="710.0" cy="60.00" r="2" fill="#1f77b4"/><polygon points="710.0,47.0 715.0,52.0 710.0,57.0 705.0,52.0" fill="#dca100" stroke="black" stroke-width="0.5"/><text x="716" y="12" font-size="9" text-anchor="end" fill="#1f77b4" font-family="sans-serif">rusage.b4_net_tx_pkts (lower=better)</text></g><g transform="translate(40,4720)"><rect x="0" y="0" width="720" height="120" fill="white" stroke="#888" stroke-width="0.5"/><text x="4" y="-4" font-size="11" font-family="sans-serif">b4_sys_s</text><text x="2" y="10" font-size="8" fill="#444" font-family="sans-serif">0.0766</text><text x="2" y="118" font-size="8" fill="#444" font-family="sans-serif">0.0534</text><line x1="10.0" y1="0" x2="10.0" y2="120" stroke="#2ca02c" stroke-width="0.7" stroke-dasharray="3,2"/><polyline points="10.0,107.41 710.0,12.59" fill="none" stroke="#1f77b4" stroke-width="1.2"/><circle cx="10.0" cy="107.41" r="2" fill="#1f77b4"/><polygon points="10.0,94.41379310344826 5.0,104.41379310344826 15.0,104.41379310344826" fill="#2ca02c" stroke="black" stroke-width="0.5"/><circle cx="710.0" cy="12.59" r="2" fill="#1f77b4"/><polygon points="710.0,-0.41379310344825626 715.0,4.586206896551744 710.0,9.586206896551744 705.0,4.586206896551744" fill="#dca100" stroke="black" stroke-width="0.5"/><text x="716" y="12" font-size="9" text-anchor="end" fill="#1f77b4" font-family="sans-serif">rusage.b4_sys_s (lower=better)</text></g><g transform="translate(40,4858)"><rect x="0" y="0" width="720" height="120" fill="white" stroke="#888" stroke-width="0.5"/><text x="4" y="-4" font-size="11" font-family="sans-serif">b4_tcp_retrans</text><text x="2" y="10" font-size="8" fill="#444" font-family="sans-serif">1.16</text><text x="2" y="118" font-size="8" fill="#444" font-family="sans-serif">-1.16</text><line x1="10.0" y1="0" x2="10.0" y2="120" stroke="#2ca02c" stroke-width="0.7" stroke-dasharray="3,2"/><polyline points="10.0,60.00 710.0,60.00" fill="none" stroke="#1f77b4" stroke-width="1.2"/><circle cx="10.0" cy="60.00" r="2" fill="#1f77b4"/><polygon points="10.0,47.0 5.0,57.0 15.0,57.0" fill="#2ca02c" stroke="black" stroke-width="0.5"/><circle cx="710.0" cy="60.00" r="2" fill="#1f77b4"/><polygon points="710.0,47.0 715.0,52.0 710.0,57.0 705.0,52.0" fill="#dca100" stroke="black" stroke-width="0.5"/><text x="716" y="12" font-size="9" text-anchor="end" fill="#1f77b4" font-family="sans-serif">rusage.b4_tcp_retrans (lower=better)</text></g><g transform="translate(40,4996)"><rect x="0" y="0" width="720" height="120" fill="white" stroke="#888" stroke-width="0.5"/><text x="4" y="-4" font-size="11" font-family="sans-serif">b4_user_s</text><text x="2" y="10" font-size="8" fill="#444" font-family="sans-serif">0.132</text><text x="2" y="118" font-size="8" fill="#444" font-family="sans-serif">0.103</text><line x1="10.0" y1="0" x2="10.0" y2="120" stroke="#2ca02c" stroke-width="0.7" stroke-dasharray="3,2"/><polyline points="10.0,12.59 710.0,107.41" fill="none" stroke="#1f77b4" stroke-width="1.2"/><circle cx="10.0" cy="12.59" r="2" fill="#1f77b4"/><polygon points="10.0,-0.41379310344827047 5.0,9.58620689655173 15.0,9.58620689655173" fill="#2ca02c" stroke="black" stroke-width="0.5"/><circle cx="710.0" cy="107.41" r="2" fill="#1f77b4"/><polygon points="710.0,94.41379310344827 715.0,99.41379310344827 710.0,104.41379310344827 705.0,99.41379310344827" fill="#dca100" stroke="black" stroke-width="0.5"/><text x="716" y="12" font-size="9" text-anchor="end" fill="#1f77b4" font-family="sans-serif">rusage.b4_user_s (lower=better)</text></g><g transform="translate(40,5134)"><rect x="0" y="0" width="720" height="120" fill="white" stroke="#888" stroke-width="0.5"/><text x="4" y="-4" font-size="11" font-family="sans-serif">b4_vol_ctx</text><text x="2" y="10" font-size="8" fill="#444" font-family="sans-serif">1.48e+03</text><text x="2" y="118" font-size="8" fill="#444" font-family="sans-serif">1.47e+03</text><line x1="10.0" y1="0" x2="10.0" y2="120" stroke="#2ca02c" stroke-width="0.7" stroke-dasharray="3,2"/><polyline points="10.0,107.41 710.0,12.59" fill="none" stroke="#1f77b4" stroke-width="1.2"/><circle cx="10.0" cy="107.41" r="2" fill="#1f77b4"/><polygon points="10.0,94.41379310344803 5.0,104.41379310344803 15.0,104.41379310344803" fill="#2ca02c" stroke="black" stroke-width="0.5"/><circle cx="710.0" cy="12.59" r="2" fill="#1f77b4"/><polygon points="710.0,-0.4137931034480289 715.0,4.586206896551971 710.0,9.586206896551971 705.0,4.586206896551971" fill="#dca100" stroke="black" stroke-width="0.5"/><text x="716" y="12" font-size="9" text-anchor="end" fill="#1f77b4" font-family="sans-serif">rusage.b4_vol_ctx (lower=better)</text></g><g transform="translate(40,5272)"><rect x="0" y="0" width="720" height="120" fill="white" stroke="#888" stroke-width="0.5"/><text x="4" y="-4" font-size="11" font-family="sans-serif">b4_wall_s</text><text x="2" y="10" font-size="8" fill="#444" font-family="sans-serif">31.2</text><text x="2" y="118" font-size="8" fill="#444" font-family="sans-serif">28.8</text><line x1="10.0" y1="0" x2="10.0" y2="120" stroke="#2ca02c" stroke-width="0.7" stroke-dasharray="3,2"/><polyline points="10.0,60.00 710.0,60.00" fill="none" stroke="#1f77b4" stroke-width="1.2"/><circle cx="10.0" cy="60.00" r="2" fill="#1f77b4"/><polygon points="10.0,47.0 5.0,57.0 15.0,57.0" fill="#2ca02c" stroke="black" stroke-width="0.5"/><circle cx="710.0" cy="60.00" r="2" fill="#1f77b4"/><polygon points="710.0,47.0 715.0,52.0 710.0,57.0 705.0,52.0" fill="#dca100" stroke="black" stroke-width="0.5"/><text x="716" y="12" font-size="9" text-anchor="end" fill="#1f77b4" font-family="sans-serif">rusage.b4_wall_s (lower=better)</text></g><g transform="translate(40,5410)"><rect x="0" y="0" width="720" height="120" fill="white" stroke="#888" stroke-width="0.5"/><text x="4" y="-4" font-size="11" font-family="sans-serif">binary_size_bytes</text><text x="2" y="10" font-size="8" fill="#444" font-family="sans-serif">7.34e+06</text><text x="2" y="118" font-size="8" fill="#444" font-family="sans-serif">7.34e+06</text><line x1="10.0" y1="0" x2="10.0" y2="120" stroke="#2ca02c" stroke-width="0.7" stroke-dasharray="3,2"/><polyline points="10.0,60.00 710.0,60.00" fill="none" stroke="#1f77b4" stroke-width="1.2"/><circle cx="10.0" cy="60.00" r="2" fill="#1f77b4"/><polygon points="10.0,47.0 5.0,57.0 15.0,57.0" fill="#2ca02c" stroke="black" stroke-width="0.5"/><circle cx="710.0" cy="60.00" r="2" fill="#1f77b4"/><polygon points="710.0,47.0 715.0,52.0 710.0,57.0 705.0,52.0" fill="#dca100" stroke="black" stroke-width="0.5"/><text x="716" y="12" font-size="9" text-anchor="end" fill="#1f77b4" font-family="sans-serif">binary-size.binary_size_bytes (lower=better)</text></g><g transform="translate(40,5548)"><rect x="0" y="0" width="720" height="120" fill="white" stroke="#888" stroke-width="0.5"/><text x="4" y="-4" font-size="11" font-family="sans-serif">perf_branch-misses:u</text><text x="2" y="10" font-size="8" fill="#444" font-family="sans-serif">3.82e+06</text><text x="2" y="118" font-size="8" fill="#444" font-family="sans-serif">3.82e+06</text><line x1="10.0" y1="0" x2="10.0" y2="120" stroke="#2ca02c" stroke-width="0.7" stroke-dasharray="3,2"/><polyline points="710.0,60.00" fill="none" stroke="#1f77b4" stroke-width="1.2"/><circle cx="710.0" cy="60.00" r="2" fill="#1f77b4"/><polygon points="710.0,47.0 715.0,52.0 710.0,57.0 705.0,52.0" fill="#dca100" stroke="black" stroke-width="0.5"/><text x="716" y="12" font-size="9" text-anchor="end" fill="#1f77b4" font-family="sans-serif">perf-stat.perf_branch-misses:u (lower=better)</text></g><g transform="translate(40,5686)"><rect x="0" y="0" width="720" height="120" fill="white" stroke="#888" stroke-width="0.5"/><text x="4" y="-4" font-size="11" font-family="sans-serif">perf_cache-misses:u</text><text x="2" y="10" font-size="8" fill="#444" font-family="sans-serif">8.52e+06</text><text x="2" y="118" font-size="8" fill="#444" font-family="sans-serif">8.52e+06</text><line x1="10.0" y1="0" x2="10.0" y2="120" stroke="#2ca02c" stroke-width="0.7" stroke-dasharray="3,2"/><polyline points="710.0,60.00" fill="none" stroke="#1f77b4" stroke-width="1.2"/><circle cx="710.0" cy="60.00" r="2" fill="#1f77b4"/><polygon points="710.0,47.0 715.0,52.0 710.0,57.0 705.0,52.0" fill="#dca100" stroke="black" stroke-width="0.5"/><text x="716" y="12" font-size="9" text-anchor="end" fill="#1f77b4" font-family="sans-serif">perf-stat.perf_cache-misses:u (lower=better)</text></g><g transform="translate(40,5824)"><rect x="0" y="0" width="720" height="120" fill="white" stroke="#888" stroke-width="0.5"/><text x="4" y="-4" font-size="11" font-family="sans-serif">perf_cycles:u</text><text x="2" y="10" font-size="8" fill="#444" font-family="sans-serif">7.28e+08</text><text x="2" y="118" font-size="8" fill="#444" font-family="sans-serif">7.28e+08</text><line x1="10.0" y1="0" x2="10.0" y2="120" stroke="#2ca02c" stroke-width="0.7" stroke-dasharray="3,2"/><polyline points="710.0,60.00" fill="none" stroke="#1f77b4" stroke-width="1.2"/><circle cx="710.0" cy="60.00" r="2" fill="#1f77b4"/><polygon points="710.0,47.0 715.0,52.0 710.0,57.0 705.0,52.0" fill="#dca100" stroke="black" stroke-width="0.5"/><text x="716" y="12" font-size="9" text-anchor="end" fill="#1f77b4" font-family="sans-serif">perf-stat.perf_cycles:u (lower=better)</text></g><g transform="translate(40,5962)"><rect x="0" y="0" width="720" height="120" fill="white" stroke="#888" stroke-width="0.5"/><text x="4" y="-4" font-size="11" font-family="sans-serif">perf_instructions:u</text><text x="2" y="10" font-size="8" fill="#444" font-family="sans-serif">1.1e+09</text><text x="2" y="118" font-size="8" fill="#444" font-family="sans-serif">1.1e+09</text><line x1="10.0" y1="0" x2="10.0" y2="120" stroke="#2ca02c" stroke-width="0.7" stroke-dasharray="3,2"/><polyline points="710.0,60.00" fill="none" stroke="#1f77b4" stroke-width="1.2"/><circle cx="710.0" cy="60.00" r="2" fill="#1f77b4"/><polygon points="710.0,47.0 715.0,52.0 710.0,57.0 705.0,52.0" fill="#dca100" stroke="black" stroke-width="0.5"/><text x="716" y="12" font-size="9" text-anchor="end" fill="#1f77b4" font-family="sans-serif">perf-stat.perf_instructions:u (lower=better)</text></g><g transform="translate(40,6100)"><text x="10.0" y="10" font-size="8" fill="#2ca02c" text-anchor="middle" font-family="monospace" transform="rotate(45 10.0 10)">525a8ba</text><text x="710.0" y="10" font-size="8" fill="#222" text-anchor="middle" font-family="monospace" transform="rotate(45 710.0 10)">fe24abb</text></g><g transform="translate(540,6136)"><text x="0" y="0" font-size="9" font-family="sans-serif">decisions:</text><polygon points="60,-9 55,1 65,1" fill="#2ca02c" stroke="black" stroke-width="0.5"/><text x="68" y="0" font-size="9" font-family="sans-serif">KEEP</text><polygon points="125,1 120,-9 130,-9" fill="#d62728" stroke="black" stroke-width="0.5"/><text x="133" y="0" font-size="9" font-family="sans-serif">DISCARD</text><polygon points="190,-9 195,-4 190,1 185,-4" fill="#dca100" stroke="black" stroke-width="0.5"/><text x="198" y="0" font-size="9" font-family="sans-serif">ESCALATE</text></g></svg>
