<?xml version="1.0" encoding="UTF-8"?>
<svg xmlns="http://www.w3.org/2000/svg" version="1.1" width="780" height="906" viewBox="0 0 780 906"><text x="40" y="18" font-size="13" font-family="sans-serif" font-weight="bold">benchmarkserversave -- x86-lxc/pentium-m (intel-r-pentium-r-m-processor-1-70ghz, i686, n=6)</text><g transform="translate(40,28)"><rect x="0" y="0" width="720" height="120" fill="white" stroke="#888" stroke-width="0.5"/><text x="4" y="-4" font-size="11" font-family="sans-serif">branch-misses:u</text><text x="2" y="10" font-size="8" fill="#444" font-family="sans-serif">3.12e+05</text><text x="2" y="118" font-size="8" fill="#444" font-family="sans-serif">2.34e+05</text><line x1="10.0" y1="0" x2="10.0" y2="120" stroke="#2ca02c" stroke-width="0.7" stroke-dasharray="3,2"/><polyline points="10.0,106.15 150.0,84.66 290.0,85.32 430.0,12.59 570.0,35.82 710.0,107.41" fill="none" stroke="#1f77b4" stroke-width="1.2"/><circle cx="10.0" cy="106.15" r="2" fill="#1f77b4"/><polygon points="10.0,93.14593162461465 5.0,103.14593162461465 15.0,103.14593162461465" fill="#2ca02c" stroke="black" stroke-width="0.5"/><circle cx="150.0" cy="84.66" r="2" fill="#1f77b4"/><polygon points="150.0,71.66413196824352 155.0,76.66413196824352 150.0,81.66413196824352 145.0,76.66413196824352" fill="#dca100" stroke="black" stroke-width="0.5"/><circle cx="290.0" cy="85.32" r="2" fill="#1f77b4"/><circle cx="430.0" cy="12.59" r="2" fill="#1f77b4"/><polygon points="430.0,-0.4137931034482847 435.0,4.586206896551715 430.0,9.586206896551715 425.0,4.586206896551715" fill="#dca100" stroke="black" stroke-width="0.5"/><circle cx="570.0" cy="35.82" r="2" fill="#1f77b4"/><polygon points="570.0,22.821881598642705 575.0,27.821881598642705 570.0,32.821881598642705 565.0,27.821881598642705" fill="#dca100" stroke="black" stroke-width="0.5"/><circle cx="710.0" cy="107.41" r="2" fill="#1f77b4"/><polygon points="710.0,94.41379310344828 715.0,99.41379310344828 710.0,104.41379310344828 705.0,99.41379310344828" fill="#dca100" stroke="black" stroke-width="0.5"/><text x="716" y="12" font-size="9" text-anchor="end" fill="#1f77b4" font-family="sans-serif">perf-stat.branch-misses:u (lower=better)</text></g><g transform="translate(40,166)"><rect x="0" y="0" width="720" height="120" fill="white" stroke="#888" stroke-width="0.5"/><text x="4" y="-4" font-size="11" font-family="sans-serif">cache-misses:u</text><text x="2" y="10" font-size="8" fill="#444" font-family="sans-serif">6.01e+04</text><text x="2" y="118" font-size="8" fill="#444" font-family="sans-serif">1.63e+04</text><line x1="10.0" y1="0" x2="10.0" y2="120" stroke="#2ca02c" stroke-width="0.7" stroke-dasharray="3,2"/><polyline points="10.0,40.42 150.0,35.46 290.0,51.26 430.0,12.59 570.0,67.43 710.0,107.41" fill="none" stroke="#1f77b4" stroke-width="1.2"/><circle cx="10.0" cy="40.42" r="2" fill="#1f77b4"/><polygon points="10.0,27.423864822844422 5.0,37.42386482284442 15.0,37.42386482284442" fill="#2ca02c" stroke="black" stroke-width="0.5"/><circle cx="150.0" cy="35.46" r="2" fill="#1f77b4"/><polygon points="150.0,22.45867585842143 155.0,27.45867585842143 150.0,32.45867585842143 145.0,27.45867585842143" fill="#dca100" stroke="black" stroke-width="0.5"/><circle cx="290.0" cy="51.26" r="2" fill="#1f77b4"/><circle cx="430.0" cy="12.59" r="2" fill="#1f77b4"/><polygon points="430.0,-0.4137931034482847 435.0,4.586206896551715 430.0,9.586206896551715 425.0,4.586206896551715" fill="#dca100" stroke="black" stroke-width="0.5"/><circle cx="570.0" cy="67.43" r="2" fill="#1f77b4"/><polygon points="570.0,54.42897591267831 575.0,59.42897591267831 570.0,64.42897591267831 565.0,59.42897591267831" fill="#dca100" stroke="black" stroke-width="0.5"/><circle cx="710.0" cy="107.41" r="2" fill="#1f77b4"/><polygon points="710.0,94.41379310344827 715.0,99.41379310344827 710.0,104.41379310344827 705.0,99.41379310344827" fill="#dca100" stroke="black" stroke-width="0.5"/><text x="716" y="12" font-size="9" text-anchor="end" fill="#1f77b4" font-family="sans-serif">perf-stat.cache-misses:u (lower=better)</text></g><g transform="translate(40,304)"><rect x="0" y="0" width="720" height="120" fill="white" stroke="#888" stroke-width="0.5"/><text x="4" y="-4" font-size="11" font-family="sans-serif">cycles:u</text><text x="2" y="10" font-size="8" fill="#444" font-family="sans-serif">9.21e+07</text><text x="2" y="118" font-size="8" fill="#444" font-family="sans-serif">5.83e+07</text><line x1="10.0" y1="0" x2="10.0" y2="120" stroke="#2ca02c" stroke-width="0.7" stroke-dasharray="3,2"/><polyline points="10.0,75.34 150.0,68.44 290.0,107.41 430.0,12.59 570.0,83.83 710.0,59.57" fill="none" stroke="#1f77b4" stroke-width="1.2"/><circle cx="10.0" cy="75.34" r="2" fill="#1f77b4"/><polygon points="10.0,62.3433254430949 5.0,72.3433254430949 15.0,72.3433254430949" fill="#2ca02c" stroke="black" stroke-width="0.5"/><circle cx="150.0" cy="68.44" r="2" fill="#1f77b4"/><polygon points="150.0,55.44431633409623 155.0,60.44431633409623 150.0,65.44431633409623 145.0,60.44431633409623" fill="#dca100" stroke="black" stroke-width="0.5"/><circle cx="290.0" cy="107.41" r="2" fill="#1f77b4"/><circle cx="430.0" cy="12.59" r="2" fill="#1f77b4"/><polygon points="430.0,-0.4137931034482989 435.0,4.586206896551701 430.0,9.586206896551701 425.0,4.586206896551701" fill="#dca100" stroke="black" stroke-width="0.5"/><circle cx="570.0" cy="83.83" r="2" fill="#1f77b4"/><polygon points="570.0,70.83139003733305 575.0,75.83139003733305 570.0,80.83139003733305 565.0,75.83139003733305" fill="#dca100" stroke="black" stroke-width="0.5"/><circle cx="710.0" cy="59.57" r="2" fill="#1f77b4"/><polygon points="710.0,46.57302701188229 715.0,51.57302701188229 710.0,56.57302701188229 705.0,51.57302701188229" fill="#dca100" stroke="black" stroke-width="0.5"/><text x="716" y="12" font-size="9" text-anchor="end" fill="#1f77b4" font-family="sans-serif">perf-stat.cycles:u (lower=better)</text></g><g transform="translate(40,442)"><rect x="0" y="0" width="720" height="120" fill="white" stroke="#888" stroke-width="0.5"/><text x="4" y="-4" font-size="11" font-family="sans-serif">instructions:u</text><text x="2" y="10" font-size="8" fill="#444" font-family="sans-serif">1.05e+08</text><text x="2" y="118" font-size="8" fill="#444" font-family="sans-serif">8.36e+07</text><line x1="10.0" y1="0" x2="10.0" y2="120" stroke="#2ca02c" stroke-width="0.7" stroke-dasharray="3,2"/><polyline points="10.0,91.33 150.0,65.49 290.0,12.59 430.0,107.41 570.0,87.41 710.0,86.23" fill="none" stroke="#1f77b4" stroke-width="1.2"/><circle cx="10.0" cy="91.33" r="2" fill="#1f77b4"/><polygon points="10.0,78.33353718571666 5.0,88.33353718571666 15.0,88.33353718571666" fill="#2ca02c" stroke="black" stroke-width="0.5"/><circle cx="150.0" cy="65.49" r="2" fill="#1f77b4"/><polygon points="150.0,52.494657267217775 155.0,57.494657267217775 150.0,62.494657267217775 145.0,57.494657267217775" fill="#dca100" stroke="black" stroke-width="0.5"/><circle cx="290.0" cy="12.59" r="2" fill="#1f77b4"/><circle cx="430.0" cy="107.41" r="2" fill="#1f77b4"/><polygon points="430.0,94.41379310344828 435.0,99.41379310344828 430.0,104.41379310344828 425.0,99.41379310344828" fill="#dca100" stroke="black" stroke-width="0.5"/><circle cx="570.0" cy="87.41" r="2" fill="#1f77b4"/><polygon points="570.0,74.41062109934711 575.0,79.41062109934711 570.0,84.41062109934711 565.0,79.41062109934711" fill="#dca100" stroke="black" stroke-width="0.5"/><circle cx="710.0" cy="86.23" r="2" fill="#1f77b4"/><polygon points="710.0,73.23443486837704 715.0,78.23443486837704 710.0,83.23443486837704 705.0,78.23443486837704" fill="#dca100" stroke="black" stroke-width="0.5"/><text x="716" y="12" font-size="9" text-anchor="end" fill="#1f77b4" font-family="sans-serif">perf-stat.instructions:u (lower=better)</text></g><g transform="translate(40,580)"><rect x="0" y="0" width="720" height="120" fill="white" stroke="#888" stroke-width="0.5"/><text x="4" y="-4" font-size="11" font-family="sans-serif">max_rss_kb</text><text x="2" y="10" font-size="8" fill="#444" font-family="sans-serif">8.14e+03</text><text x="2" y="118" font-size="8" fill="#444" font-family="sans-serif">7.78e+03</text><line x1="10.0" y1="0" x2="10.0" y2="120" stroke="#2ca02c" stroke-width="0.7" stroke-dasharray="3,2"/><polyline points="10.0,100.12 150.0,90.39 290.0,34.47 430.0,89.18 570.0,12.59 710.0,107.41" fill="none" stroke="#1f77b4" stroke-width="1.2"/><circle cx="10.0" cy="100.12" r="2" fill="#1f77b4"/><polygon points="10.0,87.11936339522546 5.0,97.11936339522546 15.0,97.11936339522546" fill="#2ca02c" stroke="black" stroke-width="0.5"/><circle cx="150.0" cy="90.39" r="2" fill="#1f77b4"/><polygon points="150.0,77.39345711759505 155.0,82.39345711759505 150.0,87.39345711759505 145.0,82.39345711759505" fill="#dca100" stroke="black" stroke-width="0.5"/><circle cx="290.0" cy="34.47" r="2" fill="#1f77b4"/><circle cx="430.0" cy="89.18" r="2" fill="#1f77b4"/><polygon points="430.0,76.17771883289124 435.0,81.17771883289124 430.0,86.17771883289124 425.0,81.17771883289124" fill="#dca100" stroke="black" stroke-width="0.5"/><circle cx="570.0" cy="12.59" r="2" fill="#1f77b4"/><polygon points="570.0,-0.41379310344825626 575.0,4.586206896551744 570.0,9.586206896551744 565.0,4.586206896551744" fill="#dca100" stroke="black" stroke-width="0.5"/><circle cx="710.0" cy="107.41" r="2" fill="#1f77b4"/><polygon points="710.0,94.41379310344827 715.0,99.41379310344827 710.0,104.41379310344827 705.0,99.41379310344827" fill="#dca100" stroke="black" stroke-width="0.5"/><text x="716" y="12" font-size="9" text-anchor="end" fill="#1f77b4" font-family="sans-serif">rusage.default.max_rss_kb (lower=better)</text><polyline points="10.0,100.12 150.0,90.39 290.0,34.47 430.0,89.18 570.0,12.59 710.0,107.41" fill="none" stroke="#ff7f0e" stroke-width="1.2"/><circle cx="10.0" cy="100.12" r="2" fill="#ff7f0e"/><polygon points="10.0,87.11936339522546 5.0,97.11936339522546 15.0,97.11936339522546" fill="#2ca02c" stroke="black" stroke-width="0.5"/><circle cx="150.0" cy="90.39" r="2" fill="#ff7f0e"/><polygon points="150.0,77.39345711759505 155.0,82.39345711759505 150.0,87.39345711759505 145.0,82.39345711759505" fill="#dca100" stroke="black" stroke-width="0.5"/><circle cx="290.0" cy="34.47" r="2" fill="#ff7f0e"/><circle cx="430.0" cy="89.18" r="2" fill="#ff7f0e"/><polygon points="430.0,76.17771883289124 435.0,81.17771883289124 430.0,86.17771883289124 425.0,81.17771883289124" fill="#dca100" stroke="black" stroke-width="0.5"/><circle cx="570.0" cy="12.59" r="2" fill="#ff7f0e"/><polygon points="570.0,-0.41379310344825626 575.0,4.586206896551744 570.0,9.586206896551744 565.0,4.586206896551744" fill="#dca100" stroke="black" stroke-width="0.5"/><circle cx="710.0" cy="107.41" r="2" fill="#ff7f0e"/><polygon points="710.0,94.41379310344827 715.0,99.41379310344827 710.0,104.41379310344827 705.0,99.41379310344827" fill="#dca100" stroke="black" stroke-width="0.5"/><text x="716" y="23" font-size="9" text-anchor="end" fill="#ff7f0e" font-family="sans-serif">rusage.max_rss_kb (lower=better)</text></g><g transform="translate(40,718)"><rect x="0" y="0" width="720" height="120" fill="white" stroke="#888" stroke-width="0.5"/><text x="4" y="-4" font-size="11" font-family="sans-serif">wall_s</text><text x="2" y="10" font-size="8" fill="#444" font-family="sans-serif">0.123</text><text x="2" y="118" font-size="8" fill="#444" font-family="sans-serif">0.0768</text><line x1="10.0" y1="0" x2="10.0" y2="120" stroke="#2ca02c" stroke-width="0.7" stroke-dasharray="3,2"/><polyline points="10.0,83.71 150.0,107.41 290.0,36.29 430.0,83.71 570.0,12.59 710.0,36.29" fill="none" stroke="#1f77b4" stroke-width="1.2"/><circle cx="10.0" cy="83.71" r="2" fill="#1f77b4"/><polygon points="10.0,70.70689655172416 5.0,80.70689655172416 15.0,80.70689655172416" fill="#2ca02c" stroke="black" stroke-width="0.5"/><circle cx="150.0" cy="107.41" r="2" fill="#1f77b4"/><polygon points="150.0,94.41379310344828 155.0,99.41379310344828 150.0,104.41379310344828 145.0,99.41379310344828" fill="#dca100" stroke="black" stroke-width="0.5"/><circle cx="290.0" cy="36.29" r="2" fill="#1f77b4"/><circle cx="430.0" cy="83.71" r="2" fill="#1f77b4"/><polygon points="430.0,70.70689655172416 435.0,75.70689655172416 430.0,80.70689655172416 425.0,75.70689655172416" fill="#dca100" stroke="black" stroke-width="0.5"/><circle cx="570.0" cy="12.59" r="2" fill="#1f77b4"/><polygon points="570.0,-0.4137931034482847 575.0,4.586206896551715 570.0,9.586206896551715 565.0,4.586206896551715" fill="#dca100" stroke="black" stroke-width="0.5"/><circle cx="710.0" cy="36.29" r="2" fill="#1f77b4"/><polygon points="710.0,23.293103448275843 715.0,28.293103448275843 710.0,33.29310344827584 705.0,28.293103448275843" fill="#dca100" stroke="black" stroke-width="0.5"/><text x="716" y="12" font-size="9" text-anchor="end" fill="#1f77b4" font-family="sans-serif">rusage.default.wall_s (lower=better)</text><polyline points="10.0,83.71 150.0,107.41 290.0,36.29 430.0,83.71 570.0,12.59 710.0,36.29" fill="none" stroke="#ff7f0e" stroke-width="1.2"/><circle cx="10.0" cy="83.71" r="2" fill="#ff7f0e"/><polygon points="10.0,70.70689655172416 5.0,80.70689655172416 15.0,80.70689655172416" fill="#2ca02c" stroke="black" stroke-width="0.5"/><circle cx="150.0" cy="107.41" r="2" fill="#ff7f0e"/><polygon points="150.0,94.41379310344828 155.0,99.41379310344828 150.0,104.41379310344828 145.0,99.41379310344828" fill="#dca100" stroke="black" stroke-width="0.5"/><circle cx="290.0" cy="36.29" r="2" fill="#ff7f0e"/><circle cx="430.0" cy="83.71" r="2" fill="#ff7f0e"/><polygon points="430.0,70.70689655172416 435.0,75.70689655172416 430.0,80.70689655172416 425.0,75.70689655172416" fill="#dca100" stroke="black" stroke-width="0.5"/><circle cx="570.0" cy="12.59" r="2" fill="#ff7f0e"/><polygon points="570.0,-0.4137931034482847 575.0,4.586206896551715 570.0,9.586206896551715 565.0,4.586206896551715" fill="#dca100" stroke="black" stroke-width="0.5"/><circle cx="710.0" cy="36.29" r="2" fill="#ff7f0e"/><polygon points="710.0,23.293103448275843 715.0,28.293103448275843 710.0,33.29310344827584 705.0,28.293103448275843" fill="#dca100" stroke="black" stroke-width="0.5"/><text x="716" y="23" font-size="9" text-anchor="end" fill="#ff7f0e" font-family="sans-serif">rusage.wall_s (lower=better)</text></g><g transform="translate(40,856)"><text x="10.0" y="10" font-size="8" fill="#2ca02c" text-anchor="middle" font-family="monospace" transform="rotate(45 10.0 10)">3d5154e</text><text x="150.0" y="10" font-size="8" fill="#222" text-anchor="middle" font-family="monospace" transform="rotate(45 150.0 10)">3d5154e</text><text x="290.0" y="10" font-size="8" fill="#222" text-anchor="middle" font-family="monospace" transform="rotate(45 290.0 10)">3d5154e</text><text x="430.0" y="10" font-size="8" fill="#222" text-anchor="middle" font-family="monospace" transform="rotate(45 430.0 10)">3d5154e</text><text x="570.0" y="10" font-size="8" fill="#222" text-anchor="middle" font-family="monospace" transform="rotate(45 570.0 10)">3d5154e</text><text x="710.0" y="10" font-size="8" fill="#222" text-anchor="middle" font-family="monospace" transform="rotate(45 710.0 10)">3d5154e</text></g><g transform="translate(540,892)"><text x="0" y="0" font-size="9" font-family="sans-serif">decisions:</text><polygon points="60,-9 55,1 65,1" fill="#2ca02c" stroke="black" stroke-width="0.5"/><text x="68" y="0" font-size="9" font-family="sans-serif">KEEP</text><polygon points="125,1 120,-9 130,-9" fill="#d62728" stroke="black" stroke-width="0.5"/><text x="133" y="0" font-size="9" font-family="sans-serif">DISCARD</text><polygon points="190,-9 195,-4 190,1 185,-4" fill="#dca100" stroke="black" stroke-width="0.5"/><text x="198" y="0" font-size="9" font-family="sans-serif">ESCALATE</text></g></svg>
