<?xml version="1.0" encoding="UTF-8"?>
<svg xmlns="http://www.w3.org/2000/svg" version="1.1" width="780" height="906" viewBox="0 0 780 906"><text x="40" y="18" font-size="13" font-family="sans-serif" font-weight="bold">benchmarkserversave -- x86-lxc/pentium-m (intel-r-pentium-r-m-processor-1-70ghz, i686, n=3)</text><g transform="translate(40,28)"><rect x="0" y="0" width="720" height="120" fill="white" stroke="#888" stroke-width="0.5"/><text x="4" y="-4" font-size="11" font-family="sans-serif">branch-misses:u</text><text x="2" y="10" font-size="8" fill="#444" font-family="sans-serif">4.36e+05</text><text x="2" y="118" font-size="8" fill="#444" font-family="sans-serif">2.83e+05</text><line x1="10.0" y1="0" x2="10.0" y2="120" stroke="#2ca02c" stroke-width="0.7" stroke-dasharray="3,2"/><polyline points="10.0,107.41 360.0,66.68 710.0,12.59" fill="none" stroke="#1f77b4" stroke-width="1.2"/><circle cx="10.0" cy="107.41" r="2" fill="#1f77b4"/><polygon points="10.0,94.41379310344827 5.0,104.41379310344827 15.0,104.41379310344827" fill="#2ca02c" stroke="black" stroke-width="0.5"/><circle cx="360.0" cy="66.68" r="2" fill="#1f77b4"/><polygon points="360.0,53.675016449832896 365.0,58.675016449832896 360.0,63.675016449832896 355.0,58.675016449832896" fill="#dca100" stroke="black" stroke-width="0.5"/><circle cx="710.0" cy="12.59" r="2" fill="#1f77b4"/><polygon points="710.0,-0.41379310344827047 715.0,4.5862068965517295 710.0,9.58620689655173 705.0,4.5862068965517295" fill="#dca100" stroke="black" stroke-width="0.5"/><text x="716" y="12" font-size="9" text-anchor="end" fill="#1f77b4" font-family="sans-serif">perf-stat.branch-misses:u (lower=better)</text></g><g transform="translate(40,166)"><rect x="0" y="0" width="720" height="120" fill="white" stroke="#888" stroke-width="0.5"/><text x="4" y="-4" font-size="11" font-family="sans-serif">cache-misses:u</text><text x="2" y="10" font-size="8" fill="#444" font-family="sans-serif">4.12e+04</text><text x="2" y="118" font-size="8" fill="#444" font-family="sans-serif">2.11e+04</text><line x1="10.0" y1="0" x2="10.0" y2="120" stroke="#2ca02c" stroke-width="0.7" stroke-dasharray="3,2"/><polyline points="10.0,70.95 360.0,107.41 710.0,12.59" fill="none" stroke="#1f77b4" stroke-width="1.2"/><circle cx="10.0" cy="70.95" r="2" fill="#1f77b4"/><polygon points="10.0,57.948365216217184 5.0,67.94836521621718 15.0,67.94836521621718" fill="#2ca02c" stroke="black" stroke-width="0.5"/><circle cx="360.0" cy="107.41" r="2" fill="#1f77b4"/><polygon points="360.0,94.41379310344828 365.0,99.41379310344828 360.0,104.41379310344828 355.0,99.41379310344828" fill="#dca100" stroke="black" stroke-width="0.5"/><circle cx="710.0" cy="12.59" r="2" fill="#1f77b4"/><polygon points="710.0,-0.4137931034482847 715.0,4.586206896551715 710.0,9.586206896551715 705.0,4.586206896551715" fill="#dca100" stroke="black" stroke-width="0.5"/><text x="716" y="12" font-size="9" text-anchor="end" fill="#1f77b4" font-family="sans-serif">perf-stat.cache-misses:u (lower=better)</text></g><g transform="translate(40,304)"><rect x="0" y="0" width="720" height="120" fill="white" stroke="#888" stroke-width="0.5"/><text x="4" y="-4" font-size="11" font-family="sans-serif">cycles:u</text><text x="2" y="10" font-size="8" fill="#444" font-family="sans-serif">8.48e+07</text><text x="2" y="118" font-size="8" fill="#444" font-family="sans-serif">6.17e+07</text><line x1="10.0" y1="0" x2="10.0" y2="120" stroke="#2ca02c" stroke-width="0.7" stroke-dasharray="3,2"/><polyline points="10.0,107.41 360.0,16.73 710.0,12.59" fill="none" stroke="#1f77b4" stroke-width="1.2"/><circle cx="10.0" cy="107.41" r="2" fill="#1f77b4"/><polygon points="10.0,94.41379310344826 5.0,104.41379310344826 15.0,104.41379310344826" fill="#2ca02c" stroke="black" stroke-width="0.5"/><circle cx="360.0" cy="16.73" r="2" fill="#1f77b4"/><polygon points="360.0,3.7263076810459808 365.0,8.72630768104598 360.0,13.72630768104598 355.0,8.72630768104598" fill="#dca100" stroke="black" stroke-width="0.5"/><circle cx="710.0" cy="12.59" r="2" fill="#1f77b4"/><polygon points="710.0,-0.41379310344825626 715.0,4.586206896551744 710.0,9.586206896551744 705.0,4.586206896551744" fill="#dca100" stroke="black" stroke-width="0.5"/><text x="716" y="12" font-size="9" text-anchor="end" fill="#1f77b4" font-family="sans-serif">perf-stat.cycles:u (lower=better)</text></g><g transform="translate(40,442)"><rect x="0" y="0" width="720" height="120" fill="white" stroke="#888" stroke-width="0.5"/><text x="4" y="-4" font-size="11" font-family="sans-serif">instructions:u</text><text x="2" y="10" font-size="8" fill="#444" font-family="sans-serif">1.23e+08</text><text x="2" y="118" font-size="8" fill="#444" font-family="sans-serif">8.52e+07</text><line x1="10.0" y1="0" x2="10.0" y2="120" stroke="#2ca02c" stroke-width="0.7" stroke-dasharray="3,2"/><polyline points="10.0,12.59 360.0,99.96 710.0,107.41" fill="none" stroke="#1f77b4" stroke-width="1.2"/><circle cx="10.0" cy="12.59" r="2" fill="#1f77b4"/><polygon points="10.0,-0.4137931034482847 5.0,9.586206896551715 15.0,9.586206896551715" fill="#2ca02c" stroke="black" stroke-width="0.5"/><circle cx="360.0" cy="99.96" r="2" fill="#1f77b4"/><polygon points="360.0,86.96048834465535 365.0,91.96048834465535 360.0,96.96048834465535 355.0,91.96048834465535" fill="#dca100" stroke="black" stroke-width="0.5"/><circle cx="710.0" cy="107.41" r="2" fill="#1f77b4"/><polygon points="710.0,94.41379310344828 715.0,99.41379310344828 710.0,104.41379310344828 705.0,99.41379310344828" fill="#dca100" stroke="black" stroke-width="0.5"/><text x="716" y="12" font-size="9" text-anchor="end" fill="#1f77b4" font-family="sans-serif">perf-stat.instructions:u (lower=better)</text></g><g transform="translate(40,580)"><rect x="0" y="0" width="720" height="120" fill="white" stroke="#888" stroke-width="0.5"/><text x="4" y="-4" font-size="11" font-family="sans-serif">max_rss_kb</text><text x="2" y="10" font-size="8" fill="#444" font-family="sans-serif">7.93e+03</text><text x="2" y="118" font-size="8" fill="#444" font-family="sans-serif">7.71e+03</text><line x1="10.0" y1="0" x2="10.0" y2="120" stroke="#2ca02c" stroke-width="0.7" stroke-dasharray="3,2"/><polyline points="10.0,51.75 360.0,12.59 710.0,107.41" fill="none" stroke="#1f77b4" stroke-width="1.2"/><circle cx="10.0" cy="51.75" r="2" fill="#1f77b4"/><polygon points="10.0,38.75412293853075 5.0,48.75412293853075 15.0,48.75412293853075" fill="#2ca02c" stroke="black" stroke-width="0.5"/><circle cx="360.0" cy="12.59" r="2" fill="#1f77b4"/><polygon points="360.0,-0.4137931034481568 365.0,4.586206896551843 360.0,9.586206896551843 355.0,4.586206896551843" fill="#dca100" stroke="black" stroke-width="0.5"/><circle cx="710.0" cy="107.41" r="2" fill="#1f77b4"/><polygon points="710.0,94.41379310344816 715.0,99.41379310344816 710.0,104.41379310344816 705.0,99.41379310344816" fill="#dca100" stroke="black" stroke-width="0.5"/><text x="716" y="12" font-size="9" text-anchor="end" fill="#1f77b4" font-family="sans-serif">rusage.default.max_rss_kb (lower=better)</text><polyline points="10.0,51.75 360.0,12.59 710.0,107.41" fill="none" stroke="#ff7f0e" stroke-width="1.2"/><circle cx="10.0" cy="51.75" r="2" fill="#ff7f0e"/><polygon points="10.0,38.75412293853075 5.0,48.75412293853075 15.0,48.75412293853075" fill="#2ca02c" stroke="black" stroke-width="0.5"/><circle cx="360.0" cy="12.59" r="2" fill="#ff7f0e"/><polygon points="360.0,-0.4137931034481568 365.0,4.586206896551843 360.0,9.586206896551843 355.0,4.586206896551843" fill="#dca100" stroke="black" stroke-width="0.5"/><circle cx="710.0" cy="107.41" r="2" fill="#ff7f0e"/><polygon points="710.0,94.41379310344816 715.0,99.41379310344816 710.0,104.41379310344816 705.0,99.41379310344816" fill="#dca100" stroke="black" stroke-width="0.5"/><text x="716" y="23" font-size="9" text-anchor="end" fill="#ff7f0e" font-family="sans-serif">rusage.max_rss_kb (lower=better)</text></g><g transform="translate(40,718)"><rect x="0" y="0" width="720" height="120" fill="white" stroke="#888" stroke-width="0.5"/><text x="4" y="-4" font-size="11" font-family="sans-serif">wall_s</text><text x="2" y="10" font-size="8" fill="#444" font-family="sans-serif">1.25</text><text x="2" y="118" font-size="8" fill="#444" font-family="sans-serif">-1.07</text><line x1="10.0" y1="0" x2="10.0" y2="120" stroke="#2ca02c" stroke-width="0.7" stroke-dasharray="3,2"/><polyline points="10.0,60.00 360.0,60.00 710.0,60.00" fill="none" stroke="#1f77b4" stroke-width="1.2"/><circle cx="10.0" cy="60.00" r="2" fill="#1f77b4"/><polygon points="10.0,47.0 5.0,57.0 15.0,57.0" fill="#2ca02c" stroke="black" stroke-width="0.5"/><circle cx="360.0" cy="60.00" r="2" fill="#1f77b4"/><polygon points="360.0,47.0 365.0,52.0 360.0,57.0 355.0,52.0" fill="#dca100" stroke="black" stroke-width="0.5"/><circle cx="710.0" cy="60.00" r="2" fill="#1f77b4"/><polygon points="710.0,47.0 715.0,52.0 710.0,57.0 705.0,52.0" fill="#dca100" stroke="black" stroke-width="0.5"/><text x="716" y="12" font-size="9" text-anchor="end" fill="#1f77b4" font-family="sans-serif">rusage.default.wall_s (lower=better)</text><polyline points="10.0,60.00 360.0,60.00 710.0,60.00" fill="none" stroke="#ff7f0e" stroke-width="1.2"/><circle cx="10.0" cy="60.00" r="2" fill="#ff7f0e"/><polygon points="10.0,47.0 5.0,57.0 15.0,57.0" fill="#2ca02c" stroke="black" stroke-width="0.5"/><circle cx="360.0" cy="60.00" r="2" fill="#ff7f0e"/><polygon points="360.0,47.0 365.0,52.0 360.0,57.0 355.0,52.0" fill="#dca100" stroke="black" stroke-width="0.5"/><circle cx="710.0" cy="60.00" r="2" fill="#ff7f0e"/><polygon points="710.0,47.0 715.0,52.0 710.0,57.0 705.0,52.0" fill="#dca100" stroke="black" stroke-width="0.5"/><text x="716" y="23" font-size="9" text-anchor="end" fill="#ff7f0e" font-family="sans-serif">rusage.wall_s (lower=better)</text></g><g transform="translate(40,856)"><text x="10.0" y="10" font-size="8" fill="#2ca02c" text-anchor="middle" font-family="monospace" transform="rotate(45 10.0 10)">edca85f</text><text x="360.0" y="10" font-size="8" fill="#222" text-anchor="middle" font-family="monospace" transform="rotate(45 360.0 10)">90ce69c</text><text x="710.0" y="10" font-size="8" fill="#222" text-anchor="middle" font-family="monospace" transform="rotate(45 710.0 10)">90ce69c</text></g><g transform="translate(540,892)"><text x="0" y="0" font-size="9" font-family="sans-serif">decisions:</text><polygon points="60,-9 55,1 65,1" fill="#2ca02c" stroke="black" stroke-width="0.5"/><text x="68" y="0" font-size="9" font-family="sans-serif">KEEP</text><polygon points="125,1 120,-9 130,-9" fill="#d62728" stroke="black" stroke-width="0.5"/><text x="133" y="0" font-size="9" font-family="sans-serif">DISCARD</text><polygon points="190,-9 195,-4 190,1 185,-4" fill="#dca100" stroke="black" stroke-width="0.5"/><text x="198" y="0" font-size="9" font-family="sans-serif">ESCALATE</text></g></svg>
