<?xml version="1.0" encoding="UTF-8"?>
<svg xmlns="http://www.w3.org/2000/svg" version="1.1" width="780" height="906" viewBox="0 0 780 906"><text x="40" y="18" font-size="13" font-family="sans-serif" font-weight="bold">benchmarkserversave -- x86-lxc/pentium-m (intel-r-pentium-r-m-processor-1-70ghz, i686, n=9)</text><g transform="translate(40,28)"><rect x="0" y="0" width="720" height="120" fill="white" stroke="#888" stroke-width="0.5"/><text x="4" y="-4" font-size="11" font-family="sans-serif">branch-misses:u</text><text x="2" y="10" font-size="8" fill="#444" font-family="sans-serif">4.42e+05</text><text x="2" y="118" font-size="8" fill="#444" font-family="sans-serif">2.06e+05</text><line x1="10.0" y1="0" x2="10.0" y2="120" stroke="#2ca02c" stroke-width="0.7" stroke-dasharray="3,2"/><polyline points="10.0,74.44 97.5,47.87 185.0,12.59 272.5,36.65 360.0,107.41 447.5,12.92 535.0,70.85 622.5,51.12 710.0,18.54" fill="none" stroke="#1f77b4" stroke-width="1.2"/><circle cx="10.0" cy="74.44" r="2" fill="#1f77b4"/><polygon points="10.0,61.43953193957273 5.0,71.43953193957273 15.0,71.43953193957273" fill="#2ca02c" stroke="black" stroke-width="0.5"/><circle cx="97.5" cy="47.87" r="2" fill="#1f77b4"/><polygon points="97.5,34.86679192789195 102.5,39.86679192789195 97.5,44.86679192789195 92.5,39.86679192789195" fill="#dca100" stroke="black" stroke-width="0.5"/><circle cx="185.0" cy="12.59" r="2" fill="#1f77b4"/><polygon points="185.0,-0.41379310344827047 190.0,4.5862068965517295 185.0,9.58620689655173 180.0,4.5862068965517295" fill="#dca100" stroke="black" stroke-width="0.5"/><circle cx="272.5" cy="36.65" r="2" fill="#1f77b4"/><polygon points="272.5,23.653028332335012 277.5,28.653028332335012 272.5,33.65302833233501 267.5,28.653028332335012" fill="#dca100" stroke="black" stroke-width="0.5"/><circle cx="360.0" cy="107.41" r="2" fill="#1f77b4"/><polygon points="360.0,94.41379310344827 365.0,99.41379310344827 360.0,104.41379310344827 355.0,99.41379310344827" fill="#dca100" stroke="black" stroke-width="0.5"/><circle cx="447.5" cy="12.92" r="2" fill="#1f77b4"/><polygon points="447.5,-0.08004457459342973 452.5,4.91995542540657 447.5,9.91995542540657 442.5,4.91995542540657" fill="#dca100" stroke="black" stroke-width="0.5"/><circle cx="535.0" cy="70.85" r="2" fill="#1f77b4"/><polygon points="535.0,57.845892317953655 540.0,62.845892317953655 535.0,67.84589231795366 530.0,62.845892317953655" fill="#dca100" stroke="black" stroke-width="0.5"/><circle cx="622.5" cy="51.12" r="2" fill="#1f77b4"/><polygon points="622.5,38.115932017625866 627.5,43.115932017625866 622.5,48.115932017625866 617.5,43.115932017625866" fill="#dca100" stroke="black" stroke-width="0.5"/><circle cx="710.0" cy="18.54" r="2" fill="#1f77b4"/><polygon points="710.0,5.543197445187744 715.0,10.543197445187744 710.0,15.543197445187744 705.0,10.543197445187744" fill="#dca100" stroke="black" stroke-width="0.5"/><text x="716" y="12" font-size="9" text-anchor="end" fill="#1f77b4" font-family="sans-serif">perf-stat.branch-misses:u (lower=better)</text></g><g transform="translate(40,166)"><rect x="0" y="0" width="720" height="120" fill="white" stroke="#888" stroke-width="0.5"/><text x="4" y="-4" font-size="11" font-family="sans-serif">cache-misses:u</text><text x="2" y="10" font-size="8" fill="#444" font-family="sans-serif">5.42e+04</text><text x="2" y="118" font-size="8" fill="#444" font-family="sans-serif">2.01e+04</text><line x1="10.0" y1="0" x2="10.0" y2="120" stroke="#2ca02c" stroke-width="0.7" stroke-dasharray="3,2"/><polyline points="10.0,85.88 97.5,107.41 185.0,51.41 272.5,97.02 360.0,36.80 447.5,59.38 535.0,12.59 622.5,36.62 710.0,46.15" fill="none" stroke="#1f77b4" stroke-width="1.2"/><circle cx="10.0" cy="85.88" r="2" fill="#1f77b4"/><polygon points="10.0,72.87951144637154 5.0,82.87951144637154 15.0,82.87951144637154" fill="#2ca02c" stroke="black" stroke-width="0.5"/><circle cx="97.5" cy="107.41" r="2" fill="#1f77b4"/><polygon points="97.5,94.41379310344827 102.5,99.41379310344827 97.5,104.41379310344827 92.5,99.41379310344827" fill="#dca100" stroke="black" stroke-width="0.5"/><circle cx="185.0" cy="51.41" r="2" fill="#1f77b4"/><polygon points="185.0,38.414341882005566 190.0,43.414341882005566 185.0,48.414341882005566 180.0,43.414341882005566" fill="#dca100" stroke="black" stroke-width="0.5"/><circle cx="272.5" cy="97.02" r="2" fill="#1f77b4"/><polygon points="272.5,84.02393753305276 277.5,89.02393753305276 272.5,94.02393753305276 267.5,89.02393753305276" fill="#dca100" stroke="black" stroke-width="0.5"/><circle cx="360.0" cy="36.80" r="2" fill="#1f77b4"/><polygon points="360.0,23.796956624214488 365.0,28.796956624214488 360.0,33.79695662421449 355.0,28.796956624214488" fill="#dca100" stroke="black" stroke-width="0.5"/><circle cx="447.5" cy="59.38" r="2" fill="#1f77b4"/><polygon points="447.5,46.38247754756959 452.5,51.38247754756959 447.5,56.38247754756959 442.5,51.38247754756959" fill="#dca100" stroke="black" stroke-width="0.5"/><circle cx="535.0" cy="12.59" r="2" fill="#1f77b4"/><polygon points="535.0,-0.4137931034482989 540.0,4.586206896551701 535.0,9.586206896551701 530.0,4.586206896551701" fill="#dca100" stroke="black" stroke-width="0.5"/><circle cx="622.5" cy="36.62" r="2" fill="#1f77b4"/><polygon points="622.5,23.622824966610082 627.5,28.622824966610082 622.5,33.62282496661008 617.5,28.622824966610082" fill="#dca100" stroke="black" stroke-width="0.5"/><circle cx="710.0" cy="46.15" r="2" fill="#1f77b4"/><polygon points="710.0,33.154920890287656 715.0,38.154920890287656 710.0,43.154920890287656 705.0,38.154920890287656" fill="#dca100" stroke="black" stroke-width="0.5"/><text x="716" y="12" font-size="9" text-anchor="end" fill="#1f77b4" font-family="sans-serif">perf-stat.cache-misses:u (lower=better)</text></g><g transform="translate(40,304)"><rect x="0" y="0" width="720" height="120" fill="white" stroke="#888" stroke-width="0.5"/><text x="4" y="-4" font-size="11" font-family="sans-serif">cycles:u</text><text x="2" y="10" font-size="8" fill="#444" font-family="sans-serif">8.72e+07</text><text x="2" y="118" font-size="8" fill="#444" font-family="sans-serif">6.15e+07</text><line x1="10.0" y1="0" x2="10.0" y2="120" stroke="#2ca02c" stroke-width="0.7" stroke-dasharray="3,2"/><polyline points="10.0,107.41 97.5,25.60 185.0,21.87 272.5,64.15 360.0,66.07 447.5,29.05 535.0,28.68 622.5,12.59 710.0,57.47" fill="none" stroke="#1f77b4" stroke-width="1.2"/><circle cx="10.0" cy="107.41" r="2" fill="#1f77b4"/><polygon points="10.0,94.41379310344827 5.0,104.41379310344827 15.0,104.41379310344827" fill="#2ca02c" stroke="black" stroke-width="0.5"/><circle cx="97.5" cy="25.60" r="2" fill="#1f77b4"/><polygon points="97.5,12.600103271661624 102.5,17.600103271661624 97.5,22.600103271661624 92.5,17.600103271661624" fill="#dca100" stroke="black" stroke-width="0.5"/><circle cx="185.0" cy="21.87" r="2" fill="#1f77b4"/><polygon points="185.0,8.865112496724151 190.0,13.865112496724151 185.0,18.86511249672415 180.0,13.865112496724151" fill="#dca100" stroke="black" stroke-width="0.5"/><circle cx="272.5" cy="64.15" r="2" fill="#1f77b4"/><polygon points="272.5,51.14547219493787 277.5,56.14547219493787 272.5,61.14547219493787 267.5,56.14547219493787" fill="#dca100" stroke="black" stroke-width="0.5"/><circle cx="360.0" cy="66.07" r="2" fill="#1f77b4"/><polygon points="360.0,53.073831381746714 365.0,58.073831381746714 360.0,63.073831381746714 355.0,58.073831381746714" fill="#dca100" stroke="black" stroke-width="0.5"/><circle cx="447.5" cy="29.05" r="2" fill="#1f77b4"/><polygon points="447.5,16.050108861685516 452.5,21.050108861685516 447.5,26.050108861685516 442.5,21.050108861685516" fill="#dca100" stroke="black" stroke-width="0.5"/><circle cx="535.0" cy="28.68" r="2" fill="#1f77b4"/><polygon points="535.0,15.683224930166233 540.0,20.683224930166233 535.0,25.683224930166233 530.0,20.683224930166233" fill="#dca100" stroke="black" stroke-width="0.5"/><circle cx="622.5" cy="12.59" r="2" fill="#1f77b4"/><polygon points="622.5,-0.41379310344827047 627.5,4.5862068965517295 622.5,9.58620689655173 617.5,4.5862068965517295" fill="#dca100" stroke="black" stroke-width="0.5"/><circle cx="710.0" cy="57.47" r="2" fill="#1f77b4"/><polygon points="710.0,44.467906974841036 715.0,49.467906974841036 710.0,54.467906974841036 705.0,49.467906974841036" fill="#dca100" stroke="black" stroke-width="0.5"/><text x="716" y="12" font-size="9" text-anchor="end" fill="#1f77b4" font-family="sans-serif">perf-stat.cycles:u (lower=better)</text></g><g transform="translate(40,442)"><rect x="0" y="0" width="720" height="120" fill="white" stroke="#888" stroke-width="0.5"/><text x="4" y="-4" font-size="11" font-family="sans-serif">instructions:u</text><text x="2" y="10" font-size="8" fill="#444" font-family="sans-serif">1.24e+08</text><text x="2" y="118" font-size="8" fill="#444" font-family="sans-serif">7.66e+07</text><line x1="10.0" y1="0" x2="10.0" y2="120" stroke="#2ca02c" stroke-width="0.7" stroke-dasharray="3,2"/><polyline points="10.0,12.59 97.5,82.84 185.0,88.84 272.5,46.58 360.0,83.81 447.5,107.41 535.0,102.89 622.5,84.44 710.0,70.10" fill="none" stroke="#1f77b4" stroke-width="1.2"/><circle cx="10.0" cy="12.59" r="2" fill="#1f77b4"/><polygon points="10.0,-0.4137931034482847 5.0,9.586206896551715 15.0,9.586206896551715" fill="#2ca02c" stroke="black" stroke-width="0.5"/><circle cx="97.5" cy="82.84" r="2" fill="#1f77b4"/><polygon points="97.5,69.8424744505107 102.5,74.8424744505107 97.5,79.8424744505107 92.5,74.8424744505107" fill="#dca100" stroke="black" stroke-width="0.5"/><circle cx="185.0" cy="88.84" r="2" fill="#1f77b4"/><polygon points="185.0,75.83555805150112 190.0,80.83555805150112 185.0,85.83555805150112 180.0,80.83555805150112" fill="#dca100" stroke="black" stroke-width="0.5"/><circle cx="272.5" cy="46.58" r="2" fill="#1f77b4"/><polygon points="272.5,33.57824192871769 277.5,38.57824192871769 272.5,43.57824192871769 267.5,38.57824192871769" fill="#dca100" stroke="black" stroke-width="0.5"/><circle cx="360.0" cy="83.81" r="2" fill="#1f77b4"/><polygon points="360.0,70.81419112792551 365.0,75.81419112792551 360.0,80.81419112792551 355.0,75.81419112792551" fill="#dca100" stroke="black" stroke-width="0.5"/><circle cx="447.5" cy="107.41" r="2" fill="#1f77b4"/><polygon points="447.5,94.41379310344828 452.5,99.41379310344828 447.5,104.41379310344828 442.5,99.41379310344828" fill="#dca100" stroke="black" stroke-width="0.5"/><circle cx="535.0" cy="102.89" r="2" fill="#1f77b4"/><polygon points="535.0,89.88992979877844 540.0,94.88992979877844 535.0,99.88992979877844 530.0,94.88992979877844" fill="#dca100" stroke="black" stroke-width="0.5"/><circle cx="622.5" cy="84.44" r="2" fill="#1f77b4"/><polygon points="622.5,71.44287628962705 627.5,76.44287628962705 622.5,81.44287628962705 617.5,76.44287628962705" fill="#dca100" stroke="black" stroke-width="0.5"/><circle cx="710.0" cy="70.10" r="2" fill="#1f77b4"/><polygon points="710.0,57.10168706385909 715.0,62.10168706385909 710.0,67.10168706385909 705.0,62.10168706385909" fill="#dca100" stroke="black" stroke-width="0.5"/><text x="716" y="12" font-size="9" text-anchor="end" fill="#1f77b4" font-family="sans-serif">perf-stat.instructions:u (lower=better)</text></g><g transform="translate(40,580)"><rect x="0" y="0" width="720" height="120" fill="white" stroke="#888" stroke-width="0.5"/><text x="4" y="-4" font-size="11" font-family="sans-serif">max_rss_kb</text><text x="2" y="10" font-size="8" fill="#444" font-family="sans-serif">7.95e+03</text><text x="2" y="118" font-size="8" fill="#444" font-family="sans-serif">7.45e+03</text><line x1="10.0" y1="0" x2="10.0" y2="120" stroke="#2ca02c" stroke-width="0.7" stroke-dasharray="3,2"/><polyline points="10.0,29.27 97.5,12.59 185.0,52.98 272.5,85.46 360.0,87.22 447.5,107.41 535.0,72.29 622.5,49.46 710.0,81.95" fill="none" stroke="#1f77b4" stroke-width="1.2"/><circle cx="10.0" cy="29.27" r="2" fill="#1f77b4"/><polygon points="10.0,16.268837803320608 5.0,26.268837803320608 15.0,26.268837803320608" fill="#2ca02c" stroke="black" stroke-width="0.5"/><circle cx="97.5" cy="12.59" r="2" fill="#1f77b4"/><polygon points="97.5,-0.4137931034481994 102.5,4.586206896551801 97.5,9.5862068965518 92.5,4.586206896551801" fill="#dca100" stroke="black" stroke-width="0.5"/><circle cx="185.0" cy="52.98" r="2" fill="#1f77b4"/><polygon points="185.0,39.97573435504471 190.0,44.97573435504471 185.0,49.97573435504471 180.0,44.97573435504471" fill="#dca100" stroke="black" stroke-width="0.5"/><circle cx="272.5" cy="85.46" r="2" fill="#1f77b4"/><polygon points="272.5,72.46296296296292 277.5,77.46296296296292 272.5,82.46296296296292 267.5,77.46296296296292" fill="#dca100" stroke="black" stroke-width="0.5"/><circle cx="360.0" cy="87.22" r="2" fill="#1f77b4"/><polygon points="360.0,74.21902937420174 365.0,79.21902937420174 360.0,84.21902937420174 355.0,79.21902937420174" fill="#dca100" stroke="black" stroke-width="0.5"/><circle cx="447.5" cy="107.41" r="2" fill="#1f77b4"/><polygon points="447.5,94.4137931034482 452.5,99.4137931034482 447.5,104.4137931034482 442.5,99.4137931034482" fill="#dca100" stroke="black" stroke-width="0.5"/><circle cx="535.0" cy="72.29" r="2" fill="#1f77b4"/><polygon points="535.0,59.29246487867175 540.0,64.29246487867175 535.0,69.29246487867175 530.0,64.29246487867175" fill="#dca100" stroke="black" stroke-width="0.5"/><circle cx="622.5" cy="49.46" r="2" fill="#1f77b4"/><polygon points="622.5,36.46360153256707 627.5,41.46360153256707 622.5,46.46360153256707 617.5,41.46360153256707" fill="#dca100" stroke="black" stroke-width="0.5"/><circle cx="710.0" cy="81.95" r="2" fill="#1f77b4"/><polygon points="710.0,68.95083014048527 715.0,73.95083014048527 710.0,78.95083014048527 705.0,73.95083014048527" fill="#dca100" stroke="black" stroke-width="0.5"/><text x="716" y="12" font-size="9" text-anchor="end" fill="#1f77b4" font-family="sans-serif">rusage.default.max_rss_kb (lower=better)</text><polyline points="10.0,29.27 97.5,12.59 185.0,52.98 272.5,85.46 360.0,87.22 447.5,107.41 535.0,72.29 622.5,49.46 710.0,81.95" fill="none" stroke="#ff7f0e" stroke-width="1.2"/><circle cx="10.0" cy="29.27" r="2" fill="#ff7f0e"/><polygon points="10.0,16.268837803320608 5.0,26.268837803320608 15.0,26.268837803320608" fill="#2ca02c" stroke="black" stroke-width="0.5"/><circle cx="97.5" cy="12.59" r="2" fill="#ff7f0e"/><polygon points="97.5,-0.4137931034481994 102.5,4.586206896551801 97.5,9.5862068965518 92.5,4.586206896551801" fill="#dca100" stroke="black" stroke-width="0.5"/><circle cx="185.0" cy="52.98" r="2" fill="#ff7f0e"/><polygon points="185.0,39.97573435504471 190.0,44.97573435504471 185.0,49.97573435504471 180.0,44.97573435504471" fill="#dca100" stroke="black" stroke-width="0.5"/><circle cx="272.5" cy="85.46" r="2" fill="#ff7f0e"/><polygon points="272.5,72.46296296296292 277.5,77.46296296296292 272.5,82.46296296296292 267.5,77.46296296296292" fill="#dca100" stroke="black" stroke-width="0.5"/><circle cx="360.0" cy="87.22" r="2" fill="#ff7f0e"/><polygon points="360.0,74.21902937420174 365.0,79.21902937420174 360.0,84.21902937420174 355.0,79.21902937420174" fill="#dca100" stroke="black" stroke-width="0.5"/><circle cx="447.5" cy="107.41" r="2" fill="#ff7f0e"/><polygon points="447.5,94.4137931034482 452.5,99.4137931034482 447.5,104.4137931034482 442.5,99.4137931034482" fill="#dca100" stroke="black" stroke-width="0.5"/><circle cx="535.0" cy="72.29" r="2" fill="#ff7f0e"/><polygon points="535.0,59.29246487867175 540.0,64.29246487867175 535.0,69.29246487867175 530.0,64.29246487867175" fill="#dca100" stroke="black" stroke-width="0.5"/><circle cx="622.5" cy="49.46" r="2" fill="#ff7f0e"/><polygon points="622.5,36.46360153256707 627.5,41.46360153256707 622.5,46.46360153256707 617.5,41.46360153256707" fill="#dca100" stroke="black" stroke-width="0.5"/><circle cx="710.0" cy="81.95" r="2" fill="#ff7f0e"/><polygon points="710.0,68.95083014048527 715.0,73.95083014048527 710.0,78.95083014048527 705.0,73.95083014048527" fill="#dca100" stroke="black" stroke-width="0.5"/><text x="716" y="23" font-size="9" text-anchor="end" fill="#ff7f0e" font-family="sans-serif">rusage.max_rss_kb (lower=better)</text></g><g transform="translate(40,718)"><rect x="0" y="0" width="720" height="120" fill="white" stroke="#888" stroke-width="0.5"/><text x="4" y="-4" font-size="11" font-family="sans-serif">wall_s</text><text x="2" y="10" font-size="8" fill="#444" font-family="sans-serif">0.122</text><text x="2" y="118" font-size="8" fill="#444" font-family="sans-serif">0.0876</text><line x1="10.0" y1="0" x2="10.0" y2="120" stroke="#2ca02c" stroke-width="0.7" stroke-dasharray="3,2"/><polyline points="10.0,107.41 97.5,107.41 185.0,107.41 272.5,107.41 360.0,107.41 447.5,107.41 535.0,107.41 622.5,107.41 710.0,12.59" fill="none" stroke="#1f77b4" stroke-width="1.2"/><circle cx="10.0" cy="107.41" r="2" fill="#1f77b4"/><polygon points="10.0,94.41379310344828 5.0,104.41379310344828 15.0,104.41379310344828" fill="#2ca02c" stroke="black" stroke-width="0.5"/><circle cx="97.5" cy="107.41" r="2" fill="#1f77b4"/><polygon points="97.5,94.41379310344828 102.5,99.41379310344828 97.5,104.41379310344828 92.5,99.41379310344828" fill="#dca100" stroke="black" stroke-width="0.5"/><circle cx="185.0" cy="107.41" r="2" fill="#1f77b4"/><polygon points="185.0,94.41379310344828 190.0,99.41379310344828 185.0,104.41379310344828 180.0,99.41379310344828" fill="#dca100" stroke="black" stroke-width="0.5"/><circle cx="272.5" cy="107.41" r="2" fill="#1f77b4"/><polygon points="272.5,94.41379310344828 277.5,99.41379310344828 272.5,104.41379310344828 267.5,99.41379310344828" fill="#dca100" stroke="black" stroke-width="0.5"/><circle cx="360.0" cy="107.41" r="2" fill="#1f77b4"/><polygon points="360.0,94.41379310344828 365.0,99.41379310344828 360.0,104.41379310344828 355.0,99.41379310344828" fill="#dca100" stroke="black" stroke-width="0.5"/><circle cx="447.5" cy="107.41" r="2" fill="#1f77b4"/><polygon points="447.5,94.41379310344828 452.5,99.41379310344828 447.5,104.41379310344828 442.5,99.41379310344828" fill="#dca100" stroke="black" stroke-width="0.5"/><circle cx="535.0" cy="107.41" r="2" fill="#1f77b4"/><polygon points="535.0,94.41379310344828 540.0,99.41379310344828 535.0,104.41379310344828 530.0,99.41379310344828" fill="#dca100" stroke="black" stroke-width="0.5"/><circle cx="622.5" cy="107.41" r="2" fill="#1f77b4"/><polygon points="622.5,94.41379310344828 627.5,99.41379310344828 622.5,104.41379310344828 617.5,99.41379310344828" fill="#dca100" stroke="black" stroke-width="0.5"/><circle cx="710.0" cy="12.59" r="2" fill="#1f77b4"/><polygon points="710.0,-0.41379310344827047 715.0,4.5862068965517295 710.0,9.58620689655173 705.0,4.5862068965517295" fill="#dca100" stroke="black" stroke-width="0.5"/><text x="716" y="12" font-size="9" text-anchor="end" fill="#1f77b4" font-family="sans-serif">rusage.default.wall_s (lower=better)</text><polyline points="10.0,107.41 97.5,107.41 185.0,107.41 272.5,107.41 360.0,107.41 447.5,107.41 535.0,107.41 622.5,107.41 710.0,12.59" fill="none" stroke="#ff7f0e" stroke-width="1.2"/><circle cx="10.0" cy="107.41" r="2" fill="#ff7f0e"/><polygon points="10.0,94.41379310344828 5.0,104.41379310344828 15.0,104.41379310344828" fill="#2ca02c" stroke="black" stroke-width="0.5"/><circle cx="97.5" cy="107.41" r="2" fill="#ff7f0e"/><polygon points="97.5,94.41379310344828 102.5,99.41379310344828 97.5,104.41379310344828 92.5,99.41379310344828" fill="#dca100" stroke="black" stroke-width="0.5"/><circle cx="185.0" cy="107.41" r="2" fill="#ff7f0e"/><polygon points="185.0,94.41379310344828 190.0,99.41379310344828 185.0,104.41379310344828 180.0,99.41379310344828" fill="#dca100" stroke="black" stroke-width="0.5"/><circle cx="272.5" cy="107.41" r="2" fill="#ff7f0e"/><polygon points="272.5,94.41379310344828 277.5,99.41379310344828 272.5,104.41379310344828 267.5,99.41379310344828" fill="#dca100" stroke="black" stroke-width="0.5"/><circle cx="360.0" cy="107.41" r="2" fill="#ff7f0e"/><polygon points="360.0,94.41379310344828 365.0,99.41379310344828 360.0,104.41379310344828 355.0,99.41379310344828" fill="#dca100" stroke="black" stroke-width="0.5"/><circle cx="447.5" cy="107.41" r="2" fill="#ff7f0e"/><polygon points="447.5,94.41379310344828 452.5,99.41379310344828 447.5,104.41379310344828 442.5,99.41379310344828" fill="#dca100" stroke="black" stroke-width="0.5"/><circle cx="535.0" cy="107.41" r="2" fill="#ff7f0e"/><polygon points="535.0,94.41379310344828 540.0,99.41379310344828 535.0,104.41379310344828 530.0,99.41379310344828" fill="#dca100" stroke="black" stroke-width="0.5"/><circle cx="622.5" cy="107.41" r="2" fill="#ff7f0e"/><polygon points="622.5,94.41379310344828 627.5,99.41379310344828 622.5,104.41379310344828 617.5,99.41379310344828" fill="#dca100" stroke="black" stroke-width="0.5"/><circle cx="710.0" cy="12.59" r="2" fill="#ff7f0e"/><polygon points="710.0,-0.41379310344827047 715.0,4.5862068965517295 710.0,9.58620689655173 705.0,4.5862068965517295" fill="#dca100" stroke="black" stroke-width="0.5"/><text x="716" y="23" font-size="9" text-anchor="end" fill="#ff7f0e" font-family="sans-serif">rusage.wall_s (lower=better)</text></g><g transform="translate(40,856)"><text x="10.0" y="10" font-size="8" fill="#2ca02c" text-anchor="middle" font-family="monospace" transform="rotate(45 10.0 10)">edca85f</text><text x="97.5" y="10" font-size="8" fill="#222" text-anchor="middle" font-family="monospace" transform="rotate(45 97.5 10)">90ce69c</text><text x="185.0" y="10" font-size="8" fill="#222" text-anchor="middle" font-family="monospace" transform="rotate(45 185.0 10)">90ce69c</text><text x="272.5" y="10" font-size="8" fill="#222" text-anchor="middle" font-family="monospace" transform="rotate(45 272.5 10)">1856b24</text><text x="360.0" y="10" font-size="8" fill="#222" text-anchor="middle" font-family="monospace" transform="rotate(45 360.0 10)">a166d07</text><text x="447.5" y="10" font-size="8" fill="#222" text-anchor="middle" font-family="monospace" transform="rotate(45 447.5 10)">a166d07</text><text x="535.0" y="10" font-size="8" fill="#222" text-anchor="middle" font-family="monospace" transform="rotate(45 535.0 10)">a166d07</text><text x="622.5" y="10" font-size="8" fill="#222" text-anchor="middle" font-family="monospace" transform="rotate(45 622.5 10)">a166d07</text><text x="710.0" y="10" font-size="8" fill="#222" text-anchor="middle" font-family="monospace" transform="rotate(45 710.0 10)">a166d07</text></g><g transform="translate(540,892)"><text x="0" y="0" font-size="9" font-family="sans-serif">decisions:</text><polygon points="60,-9 55,1 65,1" fill="#2ca02c" stroke="black" stroke-width="0.5"/><text x="68" y="0" font-size="9" font-family="sans-serif">KEEP</text><polygon points="125,1 120,-9 130,-9" fill="#d62728" stroke="black" stroke-width="0.5"/><text x="133" y="0" font-size="9" font-family="sans-serif">DISCARD</text><polygon points="190,-9 195,-4 190,1 185,-4" fill="#dca100" stroke="black" stroke-width="0.5"/><text x="198" y="0" font-size="9" font-family="sans-serif">ESCALATE</text></g></svg>
