<?xml version="1.0" encoding="UTF-8"?>
<svg xmlns="http://www.w3.org/2000/svg" version="1.1" width="780" height="5736" viewBox="0 0 780 5736"><text x="40" y="18" font-size="13" font-family="sans-serif" font-weight="bold">benchmarkmapmanager -- rpi-zero-w/rpi-zero-w (armv6-compatible-processor-rev-7-v6l, armv6, n=1)</text><g transform="translate(40,28)"><rect x="0" y="0" width="720" height="120" fill="white" stroke="#888" stroke-width="0.5"/><text x="4" y="-4" font-size="11" font-family="sans-serif">binary_size_bytes</text><text x="2" y="10" font-size="8" fill="#444" font-family="sans-serif">1.74e+06</text><text x="2" y="118" font-size="8" fill="#444" font-family="sans-serif">1.74e+06</text><line x1="360.0" y1="0" x2="360.0" y2="120" stroke="#2ca02c" stroke-width="0.7" stroke-dasharray="3,2"/><polyline points="360.0,60.00" fill="none" stroke="#1f77b4" stroke-width="1.2"/><circle cx="360.0" cy="60.00" r="2" fill="#1f77b4"/><polygon points="360.0,47.0 355.0,57.0 365.0,57.0" fill="#2ca02c" stroke="black" stroke-width="0.5"/><text x="716" y="12" font-size="9" text-anchor="end" fill="#1f77b4" font-family="sans-serif">binary-size.binary_size_bytes (lower=better)</text></g><g transform="translate(40,166)"><rect x="0" y="0" width="720" height="120" fill="white" stroke="#888" stroke-width="0.5"/><text x="4" y="-4" font-size="11" font-family="sans-serif">max_rss_kb</text><text x="2" y="10" font-size="8" fill="#444" font-family="sans-serif">5.07e+03</text><text x="2" y="118" font-size="8" fill="#444" font-family="sans-serif">5.07e+03</text><line x1="360.0" y1="0" x2="360.0" y2="120" stroke="#2ca02c" stroke-width="0.7" stroke-dasharray="3,2"/><polyline points="360.0,60.00" fill="none" stroke="#1f77b4" stroke-width="1.2"/><circle cx="360.0" cy="60.00" r="2" fill="#1f77b4"/><polygon points="360.0,47.0 355.0,57.0 365.0,57.0" fill="#2ca02c" stroke="black" stroke-width="0.5"/><text x="716" y="12" font-size="9" text-anchor="end" fill="#1f77b4" font-family="sans-serif">rusage.max_rss_kb (lower=better)</text></g><g transform="translate(40,304)"><rect x="0" y="0" width="720" height="120" fill="white" stroke="#888" stroke-width="0.5"/><text x="4" y="-4" font-size="11" font-family="sans-serif">p100_bytes_sent</text><text x="2" y="10" font-size="8" fill="#444" font-family="sans-serif">4.65e+05</text><text x="2" y="118" font-size="8" fill="#444" font-family="sans-serif">4.65e+05</text><line x1="360.0" y1="0" x2="360.0" y2="120" stroke="#2ca02c" stroke-width="0.7" stroke-dasharray="3,2"/><polyline points="360.0,60.00" fill="none" stroke="#1f77b4" stroke-width="1.2"/><circle cx="360.0" cy="60.00" r="2" fill="#1f77b4"/><polygon points="360.0,47.0 355.0,57.0 365.0,57.0" fill="#2ca02c" stroke="black" stroke-width="0.5"/><text x="716" y="12" font-size="9" text-anchor="end" fill="#1f77b4" font-family="sans-serif">rusage.p100_bytes_sent (lower=better)</text></g><g transform="translate(40,442)"><rect x="0" y="0" width="720" height="120" fill="white" stroke="#888" stroke-width="0.5"/><text x="4" y="-4" font-size="11" font-family="sans-serif">p100_median_tick_ns</text><text x="2" y="10" font-size="8" fill="#444" font-family="sans-serif">1.82e+08</text><text x="2" y="118" font-size="8" fill="#444" font-family="sans-serif">1.82e+08</text><line x1="360.0" y1="0" x2="360.0" y2="120" stroke="#2ca02c" stroke-width="0.7" stroke-dasharray="3,2"/><polyline points="360.0,60.00" fill="none" stroke="#1f77b4" stroke-width="1.2"/><circle cx="360.0" cy="60.00" r="2" fill="#1f77b4"/><polygon points="360.0,47.0 355.0,57.0 365.0,57.0" fill="#2ca02c" stroke="black" stroke-width="0.5"/><text x="716" y="12" font-size="9" text-anchor="end" fill="#1f77b4" font-family="sans-serif">rusage.p100_median_tick_ns (lower=better)</text></g><g transform="translate(40,580)"><rect x="0" y="0" width="720" height="120" fill="white" stroke="#888" stroke-width="0.5"/><text x="4" y="-4" font-size="11" font-family="sans-serif">p100_p95_tick_ns</text><text x="2" y="10" font-size="8" fill="#444" font-family="sans-serif">1.83e+08</text><text x="2" y="118" font-size="8" fill="#444" font-family="sans-serif">1.83e+08</text><line x1="360.0" y1="0" x2="360.0" y2="120" stroke="#2ca02c" stroke-width="0.7" stroke-dasharray="3,2"/><polyline points="360.0,60.00" fill="none" stroke="#1f77b4" stroke-width="1.2"/><circle cx="360.0" cy="60.00" r="2" fill="#1f77b4"/><polygon points="360.0,47.0 355.0,57.0 365.0,57.0" fill="#2ca02c" stroke="black" stroke-width="0.5"/><text x="716" y="12" font-size="9" text-anchor="end" fill="#1f77b4" font-family="sans-serif">rusage.p100_p95_tick_ns (lower=better)</text></g><g transform="translate(40,718)"><rect x="0" y="0" width="720" height="120" fill="white" stroke="#888" stroke-width="0.5"/><text x="4" y="-4" font-size="11" font-family="sans-serif">p100_ticks</text><text x="2" y="10" font-size="8" fill="#444" font-family="sans-serif">13.2</text><text x="2" y="118" font-size="8" fill="#444" font-family="sans-serif">10.8</text><line x1="360.0" y1="0" x2="360.0" y2="120" stroke="#2ca02c" stroke-width="0.7" stroke-dasharray="3,2"/><polyline points="360.0,60.00" fill="none" stroke="#1f77b4" stroke-width="1.2"/><circle cx="360.0" cy="60.00" r="2" fill="#1f77b4"/><polygon points="360.0,47.0 355.0,57.0 365.0,57.0" fill="#2ca02c" stroke="black" stroke-width="0.5"/><text x="716" y="12" font-size="9" text-anchor="end" fill="#1f77b4" font-family="sans-serif">rusage.p100_ticks (higher=better)</text></g><g transform="translate(40,856)"><rect x="0" y="0" width="720" height="120" fill="white" stroke="#888" stroke-width="0.5"/><text x="4" y="-4" font-size="11" font-family="sans-serif">p100_ticks_per_s</text><text x="2" y="10" font-size="8" fill="#444" font-family="sans-serif">6.88</text><text x="2" y="118" font-size="8" fill="#444" font-family="sans-serif">4.56</text><line x1="360.0" y1="0" x2="360.0" y2="120" stroke="#2ca02c" stroke-width="0.7" stroke-dasharray="3,2"/><polyline points="360.0,60.00" fill="none" stroke="#1f77b4" stroke-width="1.2"/><circle cx="360.0" cy="60.00" r="2" fill="#1f77b4"/><polygon points="360.0,47.0 355.0,57.0 365.0,57.0" fill="#2ca02c" stroke="black" stroke-width="0.5"/><text x="716" y="12" font-size="9" text-anchor="end" fill="#1f77b4" font-family="sans-serif">rusage.p100_ticks_per_s (higher=better)</text></g><g transform="translate(40,994)"><rect x="0" y="0" width="720" height="120" fill="white" stroke="#888" stroke-width="0.5"/><text x="4" y="-4" font-size="11" font-family="sans-serif">p10_bytes_sent</text><text x="2" y="10" font-size="8" fill="#444" font-family="sans-serif">4.62e+05</text><text x="2" y="118" font-size="8" fill="#444" font-family="sans-serif">4.62e+05</text><line x1="360.0" y1="0" x2="360.0" y2="120" stroke="#2ca02c" stroke-width="0.7" stroke-dasharray="3,2"/><polyline points="360.0,60.00" fill="none" stroke="#1f77b4" stroke-width="1.2"/><circle cx="360.0" cy="60.00" r="2" fill="#1f77b4"/><polygon points="360.0,47.0 355.0,57.0 365.0,57.0" fill="#2ca02c" stroke="black" stroke-width="0.5"/><text x="716" y="12" font-size="9" text-anchor="end" fill="#1f77b4" font-family="sans-serif">rusage.p10_bytes_sent (lower=better)</text></g><g transform="translate(40,1132)"><rect x="0" y="0" width="720" height="120" fill="white" stroke="#888" stroke-width="0.5"/><text x="4" y="-4" font-size="11" font-family="sans-serif">p10_median_tick_ns</text><text x="2" y="10" font-size="8" fill="#444" font-family="sans-serif">1.94e+06</text><text x="2" y="118" font-size="8" fill="#444" font-family="sans-serif">1.94e+06</text><line x1="360.0" y1="0" x2="360.0" y2="120" stroke="#2ca02c" stroke-width="0.7" stroke-dasharray="3,2"/><polyline points="360.0,60.00" fill="none" stroke="#1f77b4" stroke-width="1.2"/><circle cx="360.0" cy="60.00" r="2" fill="#1f77b4"/><polygon points="360.0,47.0 355.0,57.0 365.0,57.0" fill="#2ca02c" stroke="black" stroke-width="0.5"/><text x="716" y="12" font-size="9" text-anchor="end" fill="#1f77b4" font-family="sans-serif">rusage.p10_median_tick_ns (lower=better)</text></g><g transform="translate(40,1270)"><rect x="0" y="0" width="720" height="120" fill="white" stroke="#888" stroke-width="0.5"/><text x="4" y="-4" font-size="11" font-family="sans-serif">p10_p95_tick_ns</text><text x="2" y="10" font-size="8" fill="#444" font-family="sans-serif">2.03e+06</text><text x="2" y="118" font-size="8" fill="#444" font-family="sans-serif">2.03e+06</text><line x1="360.0" y1="0" x2="360.0" y2="120" stroke="#2ca02c" stroke-width="0.7" stroke-dasharray="3,2"/><polyline points="360.0,60.00" fill="none" stroke="#1f77b4" stroke-width="1.2"/><circle cx="360.0" cy="60.00" r="2" fill="#1f77b4"/><polygon points="360.0,47.0 355.0,57.0 365.0,57.0" fill="#2ca02c" stroke="black" stroke-width="0.5"/><text x="716" y="12" font-size="9" text-anchor="end" fill="#1f77b4" font-family="sans-serif">rusage.p10_p95_tick_ns (lower=better)</text></g><g transform="translate(40,1408)"><rect x="0" y="0" width="720" height="120" fill="white" stroke="#888" stroke-width="0.5"/><text x="4" y="-4" font-size="11" font-family="sans-serif">p10_ticks</text><text x="2" y="10" font-size="8" fill="#444" font-family="sans-serif">1.27e+03</text><text x="2" y="118" font-size="8" fill="#444" font-family="sans-serif">1.27e+03</text><line x1="360.0" y1="0" x2="360.0" y2="120" stroke="#2ca02c" stroke-width="0.7" stroke-dasharray="3,2"/><polyline points="360.0,60.00" fill="none" stroke="#1f77b4" stroke-width="1.2"/><circle cx="360.0" cy="60.00" r="2" fill="#1f77b4"/><polygon points="360.0,47.0 355.0,57.0 365.0,57.0" fill="#2ca02c" stroke="black" stroke-width="0.5"/><text x="716" y="12" font-size="9" text-anchor="end" fill="#1f77b4" font-family="sans-serif">rusage.p10_ticks (higher=better)</text></g><g transform="translate(40,1546)"><rect x="0" y="0" width="720" height="120" fill="white" stroke="#888" stroke-width="0.5"/><text x="4" y="-4" font-size="11" font-family="sans-serif">p10_ticks_per_s</text><text x="2" y="10" font-size="8" fill="#444" font-family="sans-serif">635</text><text x="2" y="118" font-size="8" fill="#444" font-family="sans-serif">633</text><line x1="360.0" y1="0" x2="360.0" y2="120" stroke="#2ca02c" stroke-width="0.7" stroke-dasharray="3,2"/><polyline points="360.0,60.00" fill="none" stroke="#1f77b4" stroke-width="1.2"/><circle cx="360.0" cy="60.00" r="2" fill="#1f77b4"/><polygon points="360.0,47.0 355.0,57.0 365.0,57.0" fill="#2ca02c" stroke="black" stroke-width="0.5"/><text x="716" y="12" font-size="9" text-anchor="end" fill="#1f77b4" font-family="sans-serif">rusage.p10_ticks_per_s (higher=better)</text></g><g transform="translate(40,1684)"><rect x="0" y="0" width="720" height="120" fill="white" stroke="#888" stroke-width="0.5"/><text x="4" y="-4" font-size="11" font-family="sans-serif">p200_bytes_sent</text><text x="2" y="10" font-size="8" fill="#444" font-family="sans-serif">5.64e+05</text><text x="2" y="118" font-size="8" fill="#444" font-family="sans-serif">5.64e+05</text><line x1="360.0" y1="0" x2="360.0" y2="120" stroke="#2ca02c" stroke-width="0.7" stroke-dasharray="3,2"/><polyline points="360.0,60.00" fill="none" stroke="#1f77b4" stroke-width="1.2"/><circle cx="360.0" cy="60.00" r="2" fill="#1f77b4"/><polygon points="360.0,47.0 355.0,57.0 365.0,57.0" fill="#2ca02c" stroke="black" stroke-width="0.5"/><text x="716" y="12" font-size="9" text-anchor="end" fill="#1f77b4" font-family="sans-serif">rusage.p200_bytes_sent (lower=better)</text></g><g transform="translate(40,1822)"><rect x="0" y="0" width="720" height="120" fill="white" stroke="#888" stroke-width="0.5"/><text x="4" y="-4" font-size="11" font-family="sans-serif">p200_median_tick_ns</text><text x="2" y="10" font-size="8" fill="#444" font-family="sans-serif">1.16</text><text x="2" y="118" font-size="8" fill="#444" font-family="sans-serif">-1.16</text><line x1="360.0" y1="0" x2="360.0" y2="120" stroke="#2ca02c" stroke-width="0.7" stroke-dasharray="3,2"/><polyline points="360.0,60.00" fill="none" stroke="#1f77b4" stroke-width="1.2"/><circle cx="360.0" cy="60.00" r="2" fill="#1f77b4"/><polygon points="360.0,47.0 355.0,57.0 365.0,57.0" fill="#2ca02c" stroke="black" stroke-width="0.5"/><text x="716" y="12" font-size="9" text-anchor="end" fill="#1f77b4" font-family="sans-serif">rusage.p200_median_tick_ns (lower=better)</text></g><g transform="translate(40,1960)"><rect x="0" y="0" width="720" height="120" fill="white" stroke="#888" stroke-width="0.5"/><text x="4" y="-4" font-size="11" font-family="sans-serif">p200_p95_tick_ns</text><text x="2" y="10" font-size="8" fill="#444" font-family="sans-serif">1.16</text><text x="2" y="118" font-size="8" fill="#444" font-family="sans-serif">-1.16</text><line x1="360.0" y1="0" x2="360.0" y2="120" stroke="#2ca02c" stroke-width="0.7" stroke-dasharray="3,2"/><polyline points="360.0,60.00" fill="none" stroke="#1f77b4" stroke-width="1.2"/><circle cx="360.0" cy="60.00" r="2" fill="#1f77b4"/><polygon points="360.0,47.0 355.0,57.0 365.0,57.0" fill="#2ca02c" stroke="black" stroke-width="0.5"/><text x="716" y="12" font-size="9" text-anchor="end" fill="#1f77b4" font-family="sans-serif">rusage.p200_p95_tick_ns (lower=better)</text></g><g transform="translate(40,2098)"><rect x="0" y="0" width="720" height="120" fill="white" stroke="#888" stroke-width="0.5"/><text x="4" y="-4" font-size="11" font-family="sans-serif">p200_ticks</text><text x="2" y="10" font-size="8" fill="#444" font-family="sans-serif">5.16</text><text x="2" y="118" font-size="8" fill="#444" font-family="sans-serif">2.84</text><line x1="360.0" y1="0" x2="360.0" y2="120" stroke="#2ca02c" stroke-width="0.7" stroke-dasharray="3,2"/><polyline points="360.0,60.00" fill="none" stroke="#1f77b4" stroke-width="1.2"/><circle cx="360.0" cy="60.00" r="2" fill="#1f77b4"/><polygon points="360.0,47.0 355.0,57.0 365.0,57.0" fill="#2ca02c" stroke="black" stroke-width="0.5"/><text x="716" y="12" font-size="9" text-anchor="end" fill="#1f77b4" font-family="sans-serif">rusage.p200_ticks (higher=better)</text></g><g transform="translate(40,2236)"><rect x="0" y="0" width="720" height="120" fill="white" stroke="#888" stroke-width="0.5"/><text x="4" y="-4" font-size="11" font-family="sans-serif">p200_ticks_per_s</text><text x="2" y="10" font-size="8" fill="#444" font-family="sans-serif">2.75</text><text x="2" y="118" font-size="8" fill="#444" font-family="sans-serif">0.43</text><line x1="360.0" y1="0" x2="360.0" y2="120" stroke="#2ca02c" stroke-width="0.7" stroke-dasharray="3,2"/><polyline points="360.0,60.00" fill="none" stroke="#1f77b4" stroke-width="1.2"/><circle cx="360.0" cy="60.00" r="2" fill="#1f77b4"/><polygon points="360.0,47.0 355.0,57.0 365.0,57.0" fill="#2ca02c" stroke="black" stroke-width="0.5"/><text x="716" y="12" font-size="9" text-anchor="end" fill="#1f77b4" font-family="sans-serif">rusage.p200_ticks_per_s (higher=better)</text></g><g transform="translate(40,2374)"><rect x="0" y="0" width="720" height="120" fill="white" stroke="#888" stroke-width="0.5"/><text x="4" y="-4" font-size="11" font-family="sans-serif">p20_bytes_sent</text><text x="2" y="10" font-size="8" fill="#444" font-family="sans-serif">4.51e+05</text><text x="2" y="118" font-size="8" fill="#444" font-family="sans-serif">4.51e+05</text><line x1="360.0" y1="0" x2="360.0" y2="120" stroke="#2ca02c" stroke-width="0.7" stroke-dasharray="3,2"/><polyline points="360.0,60.00" fill="none" stroke="#1f77b4" stroke-width="1.2"/><circle cx="360.0" cy="60.00" r="2" fill="#1f77b4"/><polygon points="360.0,47.0 355.0,57.0 365.0,57.0" fill="#2ca02c" stroke="black" stroke-width="0.5"/><text x="716" y="12" font-size="9" text-anchor="end" fill="#1f77b4" font-family="sans-serif">rusage.p20_bytes_sent (lower=better)</text></g><g transform="translate(40,2512)"><rect x="0" y="0" width="720" height="120" fill="white" stroke="#888" stroke-width="0.5"/><text x="4" y="-4" font-size="11" font-family="sans-serif">p20_median_tick_ns</text><text x="2" y="10" font-size="8" fill="#444" font-family="sans-serif">7.57e+06</text><text x="2" y="118" font-size="8" fill="#444" font-family="sans-serif">7.57e+06</text><line x1="360.0" y1="0" x2="360.0" y2="120" stroke="#2ca02c" stroke-width="0.7" stroke-dasharray="3,2"/><polyline points="360.0,60.00" fill="none" stroke="#1f77b4" stroke-width="1.2"/><circle cx="360.0" cy="60.00" r="2" fill="#1f77b4"/><polygon points="360.0,47.0 355.0,57.0 365.0,57.0" fill="#2ca02c" stroke="black" stroke-width="0.5"/><text x="716" y="12" font-size="9" text-anchor="end" fill="#1f77b4" font-family="sans-serif">rusage.p20_median_tick_ns (lower=better)</text></g><g transform="translate(40,2650)"><rect x="0" y="0" width="720" height="120" fill="white" stroke="#888" stroke-width="0.5"/><text x="4" y="-4" font-size="11" font-family="sans-serif">p20_p95_tick_ns</text><text x="2" y="10" font-size="8" fill="#444" font-family="sans-serif">7.72e+06</text><text x="2" y="118" font-size="8" fill="#444" font-family="sans-serif">7.72e+06</text><line x1="360.0" y1="0" x2="360.0" y2="120" stroke="#2ca02c" stroke-width="0.7" stroke-dasharray="3,2"/><polyline points="360.0,60.00" fill="none" stroke="#1f77b4" stroke-width="1.2"/><circle cx="360.0" cy="60.00" r="2" fill="#1f77b4"/><polygon points="360.0,47.0 355.0,57.0 365.0,57.0" fill="#2ca02c" stroke="black" stroke-width="0.5"/><text x="716" y="12" font-size="9" text-anchor="end" fill="#1f77b4" font-family="sans-serif">rusage.p20_p95_tick_ns (lower=better)</text></g><g transform="translate(40,2788)"><rect x="0" y="0" width="720" height="120" fill="white" stroke="#888" stroke-width="0.5"/><text x="4" y="-4" font-size="11" font-family="sans-serif">p20_ticks</text><text x="2" y="10" font-size="8" fill="#444" font-family="sans-serif">290</text><text x="2" y="118" font-size="8" fill="#444" font-family="sans-serif">288</text><line x1="360.0" y1="0" x2="360.0" y2="120" stroke="#2ca02c" stroke-width="0.7" stroke-dasharray="3,2"/><polyline points="360.0,60.00" fill="none" stroke="#1f77b4" stroke-width="1.2"/><circle cx="360.0" cy="60.00" r="2" fill="#1f77b4"/><polygon points="360.0,47.0 355.0,57.0 365.0,57.0" fill="#2ca02c" stroke="black" stroke-width="0.5"/><text x="716" y="12" font-size="9" text-anchor="end" fill="#1f77b4" font-family="sans-serif">rusage.p20_ticks (higher=better)</text></g><g transform="translate(40,2926)"><rect x="0" y="0" width="720" height="120" fill="white" stroke="#888" stroke-width="0.5"/><text x="4" y="-4" font-size="11" font-family="sans-serif">p20_ticks_per_s</text><text x="2" y="10" font-size="8" fill="#444" font-family="sans-serif">145</text><text x="2" y="118" font-size="8" fill="#444" font-family="sans-serif">143</text><line x1="360.0" y1="0" x2="360.0" y2="120" stroke="#2ca02c" stroke-width="0.7" stroke-dasharray="3,2"/><polyline points="360.0,60.00" fill="none" stroke="#1f77b4" stroke-width="1.2"/><circle cx="360.0" cy="60.00" r="2" fill="#1f77b4"/><polygon points="360.0,47.0 355.0,57.0 365.0,57.0" fill="#2ca02c" stroke="black" stroke-width="0.5"/><text x="716" y="12" font-size="9" text-anchor="end" fill="#1f77b4" font-family="sans-serif">rusage.p20_ticks_per_s (higher=better)</text></g><g transform="translate(40,3064)"><rect x="0" y="0" width="720" height="120" fill="white" stroke="#888" stroke-width="0.5"/><text x="4" y="-4" font-size="11" font-family="sans-serif">p300_bytes_sent</text><text x="2" y="10" font-size="8" fill="#444" font-family="sans-serif">1.08e+06</text><text x="2" y="118" font-size="8" fill="#444" font-family="sans-serif">1.08e+06</text><line x1="360.0" y1="0" x2="360.0" y2="120" stroke="#2ca02c" stroke-width="0.7" stroke-dasharray="3,2"/><polyline points="360.0,60.00" fill="none" stroke="#1f77b4" stroke-width="1.2"/><circle cx="360.0" cy="60.00" r="2" fill="#1f77b4"/><polygon points="360.0,47.0 355.0,57.0 365.0,57.0" fill="#2ca02c" stroke="black" stroke-width="0.5"/><text x="716" y="12" font-size="9" text-anchor="end" fill="#1f77b4" font-family="sans-serif">rusage.p300_bytes_sent (lower=better)</text></g><g transform="translate(40,3202)"><rect x="0" y="0" width="720" height="120" fill="white" stroke="#888" stroke-width="0.5"/><text x="4" y="-4" font-size="11" font-family="sans-serif">p300_median_tick_ns</text><text x="2" y="10" font-size="8" fill="#444" font-family="sans-serif">1.16</text><text x="2" y="118" font-size="8" fill="#444" font-family="sans-serif">-1.16</text><line x1="360.0" y1="0" x2="360.0" y2="120" stroke="#2ca02c" stroke-width="0.7" stroke-dasharray="3,2"/><polyline points="360.0,60.00" fill="none" stroke="#1f77b4" stroke-width="1.2"/><circle cx="360.0" cy="60.00" r="2" fill="#1f77b4"/><polygon points="360.0,47.0 355.0,57.0 365.0,57.0" fill="#2ca02c" stroke="black" stroke-width="0.5"/><text x="716" y="12" font-size="9" text-anchor="end" fill="#1f77b4" font-family="sans-serif">rusage.p300_median_tick_ns (lower=better)</text></g><g transform="translate(40,3340)"><rect x="0" y="0" width="720" height="120" fill="white" stroke="#888" stroke-width="0.5"/><text x="4" y="-4" font-size="11" font-family="sans-serif">p300_p95_tick_ns</text><text x="2" y="10" font-size="8" fill="#444" font-family="sans-serif">1.16</text><text x="2" y="118" font-size="8" fill="#444" font-family="sans-serif">-1.16</text><line x1="360.0" y1="0" x2="360.0" y2="120" stroke="#2ca02c" stroke-width="0.7" stroke-dasharray="3,2"/><polyline points="360.0,60.00" fill="none" stroke="#1f77b4" stroke-width="1.2"/><circle cx="360.0" cy="60.00" r="2" fill="#1f77b4"/><polygon points="360.0,47.0 355.0,57.0 365.0,57.0" fill="#2ca02c" stroke="black" stroke-width="0.5"/><text x="716" y="12" font-size="9" text-anchor="end" fill="#1f77b4" font-family="sans-serif">rusage.p300_p95_tick_ns (lower=better)</text></g><g transform="translate(40,3478)"><rect x="0" y="0" width="720" height="120" fill="white" stroke="#888" stroke-width="0.5"/><text x="4" y="-4" font-size="11" font-family="sans-serif">p300_ticks</text><text x="2" y="10" font-size="8" fill="#444" font-family="sans-serif">5.16</text><text x="2" y="118" font-size="8" fill="#444" font-family="sans-serif">2.84</text><line x1="360.0" y1="0" x2="360.0" y2="120" stroke="#2ca02c" stroke-width="0.7" stroke-dasharray="3,2"/><polyline points="360.0,60.00" fill="none" stroke="#1f77b4" stroke-width="1.2"/><circle cx="360.0" cy="60.00" r="2" fill="#1f77b4"/><polygon points="360.0,47.0 355.0,57.0 365.0,57.0" fill="#2ca02c" stroke="black" stroke-width="0.5"/><text x="716" y="12" font-size="9" text-anchor="end" fill="#1f77b4" font-family="sans-serif">rusage.p300_ticks (higher=better)</text></g><g transform="translate(40,3616)"><rect x="0" y="0" width="720" height="120" fill="white" stroke="#888" stroke-width="0.5"/><text x="4" y="-4" font-size="11" font-family="sans-serif">p300_ticks_per_s</text><text x="2" y="10" font-size="8" fill="#444" font-family="sans-serif">1.98</text><text x="2" y="118" font-size="8" fill="#444" font-family="sans-serif">-0.339</text><line x1="360.0" y1="0" x2="360.0" y2="120" stroke="#2ca02c" stroke-width="0.7" stroke-dasharray="3,2"/><polyline points="360.0,60.00" fill="none" stroke="#1f77b4" stroke-width="1.2"/><circle cx="360.0" cy="60.00" r="2" fill="#1f77b4"/><polygon points="360.0,46.999999999999986 355.0,56.999999999999986 365.0,56.999999999999986" fill="#2ca02c" stroke="black" stroke-width="0.5"/><text x="716" y="12" font-size="9" text-anchor="end" fill="#1f77b4" font-family="sans-serif">rusage.p300_ticks_per_s (higher=better)</text></g><g transform="translate(40,3754)"><rect x="0" y="0" width="720" height="120" fill="white" stroke="#888" stroke-width="0.5"/><text x="4" y="-4" font-size="11" font-family="sans-serif">p50_bytes_sent</text><text x="2" y="10" font-size="8" fill="#444" font-family="sans-serif">4.44e+05</text><text x="2" y="118" font-size="8" fill="#444" font-family="sans-serif">4.44e+05</text><line x1="360.0" y1="0" x2="360.0" y2="120" stroke="#2ca02c" stroke-width="0.7" stroke-dasharray="3,2"/><polyline points="360.0,60.00" fill="none" stroke="#1f77b4" stroke-width="1.2"/><circle cx="360.0" cy="60.00" r="2" fill="#1f77b4"/><polygon points="360.0,47.0 355.0,57.0 365.0,57.0" fill="#2ca02c" stroke="black" stroke-width="0.5"/><text x="716" y="12" font-size="9" text-anchor="end" fill="#1f77b4" font-family="sans-serif">rusage.p50_bytes_sent (lower=better)</text></g><g transform="translate(40,3892)"><rect x="0" y="0" width="720" height="120" fill="white" stroke="#888" stroke-width="0.5"/><text x="4" y="-4" font-size="11" font-family="sans-serif">p50_median_tick_ns</text><text x="2" y="10" font-size="8" fill="#444" font-family="sans-serif">4.59e+07</text><text x="2" y="118" font-size="8" fill="#444" font-family="sans-serif">4.59e+07</text><line x1="360.0" y1="0" x2="360.0" y2="120" stroke="#2ca02c" stroke-width="0.7" stroke-dasharray="3,2"/><polyline points="360.0,60.00" fill="none" stroke="#1f77b4" stroke-width="1.2"/><circle cx="360.0" cy="60.00" r="2" fill="#1f77b4"/><polygon points="360.0,47.0 355.0,57.0 365.0,57.0" fill="#2ca02c" stroke="black" stroke-width="0.5"/><text x="716" y="12" font-size="9" text-anchor="end" fill="#1f77b4" font-family="sans-serif">rusage.p50_median_tick_ns (lower=better)</text></g><g transform="translate(40,4030)"><rect x="0" y="0" width="720" height="120" fill="white" stroke="#888" stroke-width="0.5"/><text x="4" y="-4" font-size="11" font-family="sans-serif">p50_p95_tick_ns</text><text x="2" y="10" font-size="8" fill="#444" font-family="sans-serif">4.61e+07</text><text x="2" y="118" font-size="8" fill="#444" font-family="sans-serif">4.61e+07</text><line x1="360.0" y1="0" x2="360.0" y2="120" stroke="#2ca02c" stroke-width="0.7" stroke-dasharray="3,2"/><polyline points="360.0,60.00" fill="none" stroke="#1f77b4" stroke-width="1.2"/><circle cx="360.0" cy="60.00" r="2" fill="#1f77b4"/><polygon points="360.0,47.0 355.0,57.0 365.0,57.0" fill="#2ca02c" stroke="black" stroke-width="0.5"/><text x="716" y="12" font-size="9" text-anchor="end" fill="#1f77b4" font-family="sans-serif">rusage.p50_p95_tick_ns (lower=better)</text></g><g transform="translate(40,4168)"><rect x="0" y="0" width="720" height="120" fill="white" stroke="#888" stroke-width="0.5"/><text x="4" y="-4" font-size="11" font-family="sans-serif">p50_ticks</text><text x="2" y="10" font-size="8" fill="#444" font-family="sans-serif">45.2</text><text x="2" y="118" font-size="8" fill="#444" font-family="sans-serif">42.8</text><line x1="360.0" y1="0" x2="360.0" y2="120" stroke="#2ca02c" stroke-width="0.7" stroke-dasharray="3,2"/><polyline points="360.0,60.00" fill="none" stroke="#1f77b4" stroke-width="1.2"/><circle cx="360.0" cy="60.00" r="2" fill="#1f77b4"/><polygon points="360.0,47.0 355.0,57.0 365.0,57.0" fill="#2ca02c" stroke="black" stroke-width="0.5"/><text x="716" y="12" font-size="9" text-anchor="end" fill="#1f77b4" font-family="sans-serif">rusage.p50_ticks (higher=better)</text></g><g transform="translate(40,4306)"><rect x="0" y="0" width="720" height="120" fill="white" stroke="#888" stroke-width="0.5"/><text x="4" y="-4" font-size="11" font-family="sans-serif">p50_ticks_per_s</text><text x="2" y="10" font-size="8" fill="#444" font-family="sans-serif">23.1</text><text x="2" y="118" font-size="8" fill="#444" font-family="sans-serif">20.8</text><line x1="360.0" y1="0" x2="360.0" y2="120" stroke="#2ca02c" stroke-width="0.7" stroke-dasharray="3,2"/><polyline points="360.0,60.00" fill="none" stroke="#1f77b4" stroke-width="1.2"/><circle cx="360.0" cy="60.00" r="2" fill="#1f77b4"/><polygon points="360.0,47.0 355.0,57.0 365.0,57.0" fill="#2ca02c" stroke="black" stroke-width="0.5"/><text x="716" y="12" font-size="9" text-anchor="end" fill="#1f77b4" font-family="sans-serif">rusage.p50_ticks_per_s (higher=better)</text></g><g transform="translate(40,4444)"><rect x="0" y="0" width="720" height="120" fill="white" stroke="#888" stroke-width="0.5"/><text x="4" y="-4" font-size="11" font-family="sans-serif">p5_bytes_sent</text><text x="2" y="10" font-size="8" fill="#444" font-family="sans-serif">4.64e+05</text><text x="2" y="118" font-size="8" fill="#444" font-family="sans-serif">4.64e+05</text><line x1="360.0" y1="0" x2="360.0" y2="120" stroke="#2ca02c" stroke-width="0.7" stroke-dasharray="3,2"/><polyline points="360.0,60.00" fill="none" stroke="#1f77b4" stroke-width="1.2"/><circle cx="360.0" cy="60.00" r="2" fill="#1f77b4"/><polygon points="360.0,47.0 355.0,57.0 365.0,57.0" fill="#2ca02c" stroke="black" stroke-width="0.5"/><text x="716" y="12" font-size="9" text-anchor="end" fill="#1f77b4" font-family="sans-serif">rusage.p5_bytes_sent (lower=better)</text></g><g transform="translate(40,4582)"><rect x="0" y="0" width="720" height="120" fill="white" stroke="#888" stroke-width="0.5"/><text x="4" y="-4" font-size="11" font-family="sans-serif">p5_median_tick_ns</text><text x="2" y="10" font-size="8" fill="#444" font-family="sans-serif">5.26e+05</text><text x="2" y="118" font-size="8" fill="#444" font-family="sans-serif">5.26e+05</text><line x1="360.0" y1="0" x2="360.0" y2="120" stroke="#2ca02c" stroke-width="0.7" stroke-dasharray="3,2"/><polyline points="360.0,60.00" fill="none" stroke="#1f77b4" stroke-width="1.2"/><circle cx="360.0" cy="60.00" r="2" fill="#1f77b4"/><polygon points="360.0,47.0 355.0,57.0 365.0,57.0" fill="#2ca02c" stroke="black" stroke-width="0.5"/><text x="716" y="12" font-size="9" text-anchor="end" fill="#1f77b4" font-family="sans-serif">rusage.p5_median_tick_ns (lower=better)</text></g><g transform="translate(40,4720)"><rect x="0" y="0" width="720" height="120" fill="white" stroke="#888" stroke-width="0.5"/><text x="4" y="-4" font-size="11" font-family="sans-serif">p5_p95_tick_ns</text><text x="2" y="10" font-size="8" fill="#444" font-family="sans-serif">5.56e+05</text><text x="2" y="118" font-size="8" fill="#444" font-family="sans-serif">5.56e+05</text><line x1="360.0" y1="0" x2="360.0" y2="120" stroke="#2ca02c" stroke-width="0.7" stroke-dasharray="3,2"/><polyline points="360.0,60.00" fill="none" stroke="#1f77b4" stroke-width="1.2"/><circle cx="360.0" cy="60.00" r="2" fill="#1f77b4"/><polygon points="360.0,47.0 355.0,57.0 365.0,57.0" fill="#2ca02c" stroke="black" stroke-width="0.5"/><text x="716" y="12" font-size="9" text-anchor="end" fill="#1f77b4" font-family="sans-serif">rusage.p5_p95_tick_ns (lower=better)</text></g><g transform="translate(40,4858)"><rect x="0" y="0" width="720" height="120" fill="white" stroke="#888" stroke-width="0.5"/><text x="4" y="-4" font-size="11" font-family="sans-serif">p5_ticks</text><text x="2" y="10" font-size="8" fill="#444" font-family="sans-serif">5.02e+03</text><text x="2" y="118" font-size="8" fill="#444" font-family="sans-serif">5.02e+03</text><line x1="360.0" y1="0" x2="360.0" y2="120" stroke="#2ca02c" stroke-width="0.7" stroke-dasharray="3,2"/><polyline points="360.0,60.00" fill="none" stroke="#1f77b4" stroke-width="1.2"/><circle cx="360.0" cy="60.00" r="2" fill="#1f77b4"/><polygon points="360.0,47.0 355.0,57.0 365.0,57.0" fill="#2ca02c" stroke="black" stroke-width="0.5"/><text x="716" y="12" font-size="9" text-anchor="end" fill="#1f77b4" font-family="sans-serif">rusage.p5_ticks (higher=better)</text></g><g transform="translate(40,4996)"><rect x="0" y="0" width="720" height="120" fill="white" stroke="#888" stroke-width="0.5"/><text x="4" y="-4" font-size="11" font-family="sans-serif">p5_ticks_per_s</text><text x="2" y="10" font-size="8" fill="#444" font-family="sans-serif">2.51e+03</text><text x="2" y="118" font-size="8" fill="#444" font-family="sans-serif">2.5e+03</text><line x1="360.0" y1="0" x2="360.0" y2="120" stroke="#2ca02c" stroke-width="0.7" stroke-dasharray="3,2"/><polyline points="360.0,60.00" fill="none" stroke="#1f77b4" stroke-width="1.2"/><circle cx="360.0" cy="60.00" r="2" fill="#1f77b4"/><polygon points="360.0,47.0 355.0,57.0 365.0,57.0" fill="#2ca02c" stroke="black" stroke-width="0.5"/><text x="716" y="12" font-size="9" text-anchor="end" fill="#1f77b4" font-family="sans-serif">rusage.p5_ticks_per_s (higher=better)</text></g><g transform="translate(40,5134)"><rect x="0" y="0" width="720" height="120" fill="white" stroke="#888" stroke-width="0.5"/><text x="4" y="-4" font-size="11" font-family="sans-serif">perf_branch-misses</text><text x="2" y="10" font-size="8" fill="#444" font-family="sans-serif">5.58e+07</text><text x="2" y="118" font-size="8" fill="#444" font-family="sans-serif">5.58e+07</text><line x1="360.0" y1="0" x2="360.0" y2="120" stroke="#2ca02c" stroke-width="0.7" stroke-dasharray="3,2"/><polyline points="360.0,60.00" fill="none" stroke="#1f77b4" stroke-width="1.2"/><circle cx="360.0" cy="60.00" r="2" fill="#1f77b4"/><polygon points="360.0,47.0 355.0,57.0 365.0,57.0" fill="#2ca02c" stroke="black" stroke-width="0.5"/><text x="716" y="12" font-size="9" text-anchor="end" fill="#1f77b4" font-family="sans-serif">perf-stat.perf_branch-misses (lower=better)</text></g><g transform="translate(40,5272)"><rect x="0" y="0" width="720" height="120" fill="white" stroke="#888" stroke-width="0.5"/><text x="4" y="-4" font-size="11" font-family="sans-serif">perf_cycles</text><text x="2" y="10" font-size="8" fill="#444" font-family="sans-serif">1.97e+10</text><text x="2" y="118" font-size="8" fill="#444" font-family="sans-serif">1.97e+10</text><line x1="360.0" y1="0" x2="360.0" y2="120" stroke="#2ca02c" stroke-width="0.7" stroke-dasharray="3,2"/><polyline points="360.0,60.00" fill="none" stroke="#1f77b4" stroke-width="1.2"/><circle cx="360.0" cy="60.00" r="2" fill="#1f77b4"/><polygon points="360.0,47.0 355.0,57.0 365.0,57.0" fill="#2ca02c" stroke="black" stroke-width="0.5"/><text x="716" y="12" font-size="9" text-anchor="end" fill="#1f77b4" font-family="sans-serif">perf-stat.perf_cycles (lower=better)</text></g><g transform="translate(40,5410)"><rect x="0" y="0" width="720" height="120" fill="white" stroke="#888" stroke-width="0.5"/><text x="4" y="-4" font-size="11" font-family="sans-serif">perf_instructions</text><text x="2" y="10" font-size="8" fill="#444" font-family="sans-serif">4e+09</text><text x="2" y="118" font-size="8" fill="#444" font-family="sans-serif">4e+09</text><line x1="360.0" y1="0" x2="360.0" y2="120" stroke="#2ca02c" stroke-width="0.7" stroke-dasharray="3,2"/><polyline points="360.0,60.00" fill="none" stroke="#1f77b4" stroke-width="1.2"/><circle cx="360.0" cy="60.00" r="2" fill="#1f77b4"/><polygon points="360.0,47.0 355.0,57.0 365.0,57.0" fill="#2ca02c" stroke="black" stroke-width="0.5"/><text x="716" y="12" font-size="9" text-anchor="end" fill="#1f77b4" font-family="sans-serif">perf-stat.perf_instructions (lower=better)</text></g><g transform="translate(40,5548)"><rect x="0" y="0" width="720" height="120" fill="white" stroke="#888" stroke-width="0.5"/><text x="4" y="-4" font-size="11" font-family="sans-serif">wall_s</text><text x="2" y="10" font-size="8" fill="#444" font-family="sans-serif">18.9</text><text x="2" y="118" font-size="8" fill="#444" font-family="sans-serif">16.6</text><line x1="360.0" y1="0" x2="360.0" y2="120" stroke="#2ca02c" stroke-width="0.7" stroke-dasharray="3,2"/><polyline points="360.0,60.00" fill="none" stroke="#1f77b4" stroke-width="1.2"/><circle cx="360.0" cy="60.00" r="2" fill="#1f77b4"/><polygon points="360.0,47.0 355.0,57.0 365.0,57.0" fill="#2ca02c" stroke="black" stroke-width="0.5"/><text x="716" y="12" font-size="9" text-anchor="end" fill="#1f77b4" font-family="sans-serif">rusage.wall_s (lower=better)</text></g><g transform="translate(40,5686)"><text x="360.0" y="10" font-size="8" fill="#2ca02c" text-anchor="middle" font-family="monospace" transform="rotate(45 360.0 10)">3d5154e</text></g><g transform="translate(540,5722)"><text x="0" y="0" font-size="9" font-family="sans-serif">decisions:</text><polygon points="60,-9 55,1 65,1" fill="#2ca02c" stroke="black" stroke-width="0.5"/><text x="68" y="0" font-size="9" font-family="sans-serif">KEEP</text><polygon points="125,1 120,-9 130,-9" fill="#d62728" stroke="black" stroke-width="0.5"/><text x="133" y="0" font-size="9" font-family="sans-serif">DISCARD</text><polygon points="190,-9 195,-4 190,1 185,-4" fill="#dca100" stroke="black" stroke-width="0.5"/><text x="198" y="0" font-size="9" font-family="sans-serif">ESCALATE</text></g></svg>
