<?xml version="1.0" encoding="UTF-8"?>
<svg xmlns="http://www.w3.org/2000/svg" version="1.1" width="780" height="1596" viewBox="0 0 780 1596"><text x="40" y="18" font-size="13" font-family="sans-serif" font-weight="bold">benchmarkserversave -- local/local (amd-ryzen-9-7950x3d-16-core-processor, amd64, n=3)</text><g transform="translate(40,28)"><rect x="0" y="0" width="720" height="120" fill="white" stroke="#888" stroke-width="0.5"/><text x="4" y="-4" font-size="11" font-family="sans-serif">cpu_percent</text><text x="2" y="10" font-size="8" fill="#444" font-family="sans-serif">106</text><text x="2" y="118" font-size="8" fill="#444" font-family="sans-serif">0</text><line x1="0" y1="21.60" x2="720" y2="21.60" stroke="#d62728" stroke-width="0.7" stroke-dasharray="4,3" opacity="0.7"/><text x="716" y="19.60" font-size="8" fill="#d62728" text-anchor="end" font-family="sans-serif">90% saturation</text><line x1="10.0" y1="0" x2="10.0" y2="120" stroke="#2ca02c" stroke-width="0.7" stroke-dasharray="3,2"/><polyline points="10.0,11.23 360.0,63.11 710.0,63.11" fill="none" stroke="#1f77b4" stroke-width="1.2"/><circle cx="10.0" cy="11.23" r="5" fill="none" stroke="#d62728" stroke-width="1.5"/><circle cx="10.0" cy="11.23" r="2" fill="#1f77b4"/><polygon points="10.0,-1.7735849056603854 5.0,8.226415094339615 15.0,8.226415094339615" fill="#2ca02c" stroke="black" stroke-width="0.5"/><circle cx="360.0" cy="63.11" r="2" fill="#1f77b4"/><polygon points="360.0,50.11320754716981 365.0,55.11320754716981 360.0,60.11320754716981 355.0,55.11320754716981" fill="#dca100" stroke="black" stroke-width="0.5"/><circle cx="710.0" cy="63.11" r="2" fill="#1f77b4"/><polygon points="710.0,50.11320754716981 715.0,55.11320754716981 710.0,60.11320754716981 705.0,55.11320754716981" fill="#dca100" stroke="black" stroke-width="0.5"/><text x="716" y="12" font-size="9" text-anchor="end" fill="#1f77b4" font-family="sans-serif">rusage.cpu_percent (lower=better)</text><polyline points="10.0,11.23 360.0,63.11 710.0,63.11" fill="none" stroke="#ff7f0e" stroke-width="1.2"/><circle cx="10.0" cy="11.23" r="5" fill="none" stroke="#d62728" stroke-width="1.5"/><circle cx="10.0" cy="11.23" r="2" fill="#ff7f0e"/><polygon points="10.0,-1.7735849056603854 5.0,8.226415094339615 15.0,8.226415094339615" fill="#2ca02c" stroke="black" stroke-width="0.5"/><circle cx="360.0" cy="63.11" r="2" fill="#ff7f0e"/><polygon points="360.0,50.11320754716981 365.0,55.11320754716981 360.0,60.11320754716981 355.0,55.11320754716981" fill="#dca100" stroke="black" stroke-width="0.5"/><circle cx="710.0" cy="63.11" r="2" fill="#ff7f0e"/><polygon points="710.0,50.11320754716981 715.0,55.11320754716981 710.0,60.11320754716981 705.0,55.11320754716981" fill="#dca100" stroke="black" stroke-width="0.5"/><text x="716" y="23" font-size="9" text-anchor="end" fill="#ff7f0e" font-family="sans-serif">rusage.default.cpu_percent (lower=better)</text></g><g transform="translate(40,166)"><rect x="0" y="0" width="720" height="120" fill="white" stroke="#888" stroke-width="0.5"/><text x="4" y="-4" font-size="11" font-family="sans-serif">binary_size_bytes</text><text x="2" y="10" font-size="8" fill="#444" font-family="sans-serif">2.86e+06</text><text x="2" y="118" font-size="8" fill="#444" font-family="sans-serif">2.86e+06</text><line x1="10.0" y1="0" x2="10.0" y2="120" stroke="#2ca02c" stroke-width="0.7" stroke-dasharray="3,2"/><polyline points="10.0,12.59 360.0,107.41 710.0,107.41" fill="none" stroke="#1f77b4" stroke-width="1.2"/><circle cx="10.0" cy="12.59" r="2" fill="#1f77b4"/><polygon points="10.0,-0.41379310344972 5.0,9.58620689655028 15.0,9.58620689655028" fill="#2ca02c" stroke="black" stroke-width="0.5"/><circle cx="360.0" cy="107.41" r="2" fill="#1f77b4"/><polygon points="360.0,94.41379310344972 365.0,99.41379310344972 360.0,104.41379310344972 355.0,99.41379310344972" fill="#dca100" stroke="black" stroke-width="0.5"/><circle cx="710.0" cy="107.41" r="2" fill="#1f77b4"/><polygon points="710.0,94.41379310344972 715.0,99.41379310344972 710.0,104.41379310344972 705.0,99.41379310344972" fill="#dca100" stroke="black" stroke-width="0.5"/><text x="716" y="12" font-size="9" text-anchor="end" fill="#1f77b4" font-family="sans-serif">binary-size.binary_size_bytes (lower=better)</text></g><g transform="translate(40,304)"><rect x="0" y="0" width="720" height="120" fill="white" stroke="#888" stroke-width="0.5"/><text x="4" y="-4" font-size="11" font-family="sans-serif">cache_bytes</text><text x="2" y="10" font-size="8" fill="#444" font-family="sans-serif">5.13e+04</text><text x="2" y="118" font-size="8" fill="#444" font-family="sans-serif">5.12e+04</text><line x1="10.0" y1="0" x2="10.0" y2="120" stroke="#2ca02c" stroke-width="0.7" stroke-dasharray="3,2"/><polyline points="10.0,12.59 360.0,61.44 710.0,107.41" fill="none" stroke="#1f77b4" stroke-width="1.2"/><circle cx="10.0" cy="12.59" r="2" fill="#1f77b4"/><polygon points="10.0,-0.41379310344972 5.0,9.58620689655028 15.0,9.58620689655028" fill="#2ca02c" stroke="black" stroke-width="0.5"/><circle cx="360.0" cy="61.44" r="2" fill="#1f77b4"/><polygon points="360.0,48.436781609195435 365.0,53.436781609195435 360.0,58.436781609195435 355.0,53.436781609195435" fill="#dca100" stroke="black" stroke-width="0.5"/><circle cx="710.0" cy="107.41" r="2" fill="#1f77b4"/><polygon points="710.0,94.41379310344972 715.0,99.41379310344972 710.0,104.41379310344972 705.0,99.41379310344972" fill="#dca100" stroke="black" stroke-width="0.5"/><text x="716" y="12" font-size="9" text-anchor="end" fill="#1f77b4" font-family="sans-serif">rusage.cache_bytes (lower=better)</text><polyline points="10.0,12.59 360.0,61.44 710.0,107.41" fill="none" stroke="#ff7f0e" stroke-width="1.2"/><circle cx="10.0" cy="12.59" r="2" fill="#ff7f0e"/><polygon points="10.0,-0.41379310344972 5.0,9.58620689655028 15.0,9.58620689655028" fill="#2ca02c" stroke="black" stroke-width="0.5"/><circle cx="360.0" cy="61.44" r="2" fill="#ff7f0e"/><polygon points="360.0,48.436781609195435 365.0,53.436781609195435 360.0,58.436781609195435 355.0,53.436781609195435" fill="#dca100" stroke="black" stroke-width="0.5"/><circle cx="710.0" cy="107.41" r="2" fill="#ff7f0e"/><polygon points="710.0,94.41379310344972 715.0,99.41379310344972 710.0,104.41379310344972 705.0,99.41379310344972" fill="#dca100" stroke="black" stroke-width="0.5"/><text x="716" y="23" font-size="9" text-anchor="end" fill="#ff7f0e" font-family="sans-serif">rusage.default.cache_bytes (lower=better)</text></g><g transform="translate(40,442)"><rect x="0" y="0" width="720" height="120" fill="white" stroke="#888" stroke-width="0.5"/><text x="4" y="-4" font-size="11" font-family="sans-serif">max_rss_kb</text><text x="2" y="10" font-size="8" fill="#444" font-family="sans-serif">8.32e+03</text><text x="2" y="118" font-size="8" fill="#444" font-family="sans-serif">8.23e+03</text><line x1="10.0" y1="0" x2="10.0" y2="120" stroke="#2ca02c" stroke-width="0.7" stroke-dasharray="3,2"/><polyline points="10.0,12.59 360.0,67.49 710.0,107.41" fill="none" stroke="#1f77b4" stroke-width="1.2"/><circle cx="10.0" cy="12.59" r="2" fill="#1f77b4"/><polygon points="10.0,-0.41379310344835574 5.0,9.586206896551644 15.0,9.586206896551644" fill="#2ca02c" stroke="black" stroke-width="0.5"/><circle cx="360.0" cy="67.49" r="2" fill="#1f77b4"/><polygon points="360.0,54.486388384755 365.0,59.486388384755 360.0,64.486388384755 355.0,59.486388384755" fill="#dca100" stroke="black" stroke-width="0.5"/><circle cx="710.0" cy="107.41" r="2" fill="#1f77b4"/><polygon points="710.0,94.41379310344836 715.0,99.41379310344836 710.0,104.41379310344836 705.0,99.41379310344836" fill="#dca100" stroke="black" stroke-width="0.5"/><text x="716" y="12" font-size="9" text-anchor="end" fill="#1f77b4" font-family="sans-serif">rusage.default.max_rss_kb (lower=better)</text><polyline points="10.0,12.59 360.0,67.49 710.0,107.41" fill="none" stroke="#ff7f0e" stroke-width="1.2"/><circle cx="10.0" cy="12.59" r="2" fill="#ff7f0e"/><polygon points="10.0,-0.41379310344835574 5.0,9.586206896551644 15.0,9.586206896551644" fill="#2ca02c" stroke="black" stroke-width="0.5"/><circle cx="360.0" cy="67.49" r="2" fill="#ff7f0e"/><polygon points="360.0,54.486388384755 365.0,59.486388384755 360.0,64.486388384755 355.0,59.486388384755" fill="#dca100" stroke="black" stroke-width="0.5"/><circle cx="710.0" cy="107.41" r="2" fill="#ff7f0e"/><polygon points="710.0,94.41379310344836 715.0,99.41379310344836 710.0,104.41379310344836 705.0,99.41379310344836" fill="#dca100" stroke="black" stroke-width="0.5"/><text x="716" y="23" font-size="9" text-anchor="end" fill="#ff7f0e" font-family="sans-serif">rusage.max_rss_kb (lower=better)</text></g><g transform="translate(40,580)"><rect x="0" y="0" width="720" height="120" fill="white" stroke="#888" stroke-width="0.5"/><text x="4" y="-4" font-size="11" font-family="sans-serif">perf_branch-misses:u</text><text x="2" y="10" font-size="8" fill="#444" font-family="sans-serif">1.67e+05</text><text x="2" y="118" font-size="8" fill="#444" font-family="sans-serif">1.66e+05</text><line x1="10.0" y1="0" x2="10.0" y2="120" stroke="#2ca02c" stroke-width="0.7" stroke-dasharray="3,2"/><polyline points="10.0,107.41 360.0,89.96 710.0,12.59" fill="none" stroke="#1f77b4" stroke-width="1.2"/><circle cx="10.0" cy="107.41" r="2" fill="#1f77b4"/><polygon points="10.0,94.41379310344838 5.0,104.41379310344838 15.0,104.41379310344838" fill="#2ca02c" stroke="black" stroke-width="0.5"/><circle cx="360.0" cy="89.96" r="2" fill="#1f77b4"/><polygon points="360.0,76.9595572584079 365.0,81.9595572584079 360.0,86.9595572584079 355.0,81.9595572584079" fill="#dca100" stroke="black" stroke-width="0.5"/><circle cx="710.0" cy="12.59" r="2" fill="#1f77b4"/><polygon points="710.0,-0.41379310344838416 715.0,4.586206896551616 710.0,9.586206896551616 705.0,4.586206896551616" fill="#dca100" stroke="black" stroke-width="0.5"/><text x="716" y="12" font-size="9" text-anchor="end" fill="#1f77b4" font-family="sans-serif">perf-stat.perf_branch-misses:u (lower=better)</text></g><g transform="translate(40,718)"><rect x="0" y="0" width="720" height="120" fill="white" stroke="#888" stroke-width="0.5"/><text x="4" y="-4" font-size="11" font-family="sans-serif">perf_cache-misses:u</text><text x="2" y="10" font-size="8" fill="#444" font-family="sans-serif">7.37e+04</text><text x="2" y="118" font-size="8" fill="#444" font-family="sans-serif">6.85e+04</text><line x1="10.0" y1="0" x2="10.0" y2="120" stroke="#2ca02c" stroke-width="0.7" stroke-dasharray="3,2"/><polyline points="10.0,12.59 360.0,107.41 710.0,98.15" fill="none" stroke="#1f77b4" stroke-width="1.2"/><circle cx="10.0" cy="12.59" r="2" fill="#1f77b4"/><polygon points="10.0,-0.4137931034481568 5.0,9.586206896551843 15.0,9.586206896551843" fill="#2ca02c" stroke="black" stroke-width="0.5"/><circle cx="360.0" cy="107.41" r="2" fill="#1f77b4"/><polygon points="360.0,94.41379310344814 365.0,99.41379310344814 360.0,104.41379310344814 355.0,99.41379310344814" fill="#dca100" stroke="black" stroke-width="0.5"/><circle cx="710.0" cy="98.15" r="2" fill="#1f77b4"/><polygon points="710.0,85.14999693758794 715.0,90.14999693758794 710.0,95.14999693758794 705.0,90.14999693758794" fill="#dca100" stroke="black" stroke-width="0.5"/><text x="716" y="12" font-size="9" text-anchor="end" fill="#1f77b4" font-family="sans-serif">perf-stat.perf_cache-misses:u (lower=better)</text></g><g transform="translate(40,856)"><rect x="0" y="0" width="720" height="120" fill="white" stroke="#888" stroke-width="0.5"/><text x="4" y="-4" font-size="11" font-family="sans-serif">perf_cycles:u</text><text x="2" y="10" font-size="8" fill="#444" font-family="sans-serif">2.36e+07</text><text x="2" y="118" font-size="8" fill="#444" font-family="sans-serif">2.33e+07</text><line x1="10.0" y1="0" x2="10.0" y2="120" stroke="#2ca02c" stroke-width="0.7" stroke-dasharray="3,2"/><polyline points="10.0,107.41 360.0,27.01 710.0,12.59" fill="none" stroke="#1f77b4" stroke-width="1.2"/><circle cx="10.0" cy="107.41" r="2" fill="#1f77b4"/><polygon points="10.0,94.41379310344837 5.0,104.41379310344837 15.0,104.41379310344837" fill="#2ca02c" stroke="black" stroke-width="0.5"/><circle cx="360.0" cy="27.01" r="2" fill="#1f77b4"/><polygon points="360.0,14.005680398652274 365.0,19.005680398652274 360.0,24.005680398652274 355.0,19.005680398652274" fill="#dca100" stroke="black" stroke-width="0.5"/><circle cx="710.0" cy="12.59" r="2" fill="#1f77b4"/><polygon points="710.0,-0.41379310344836995 715.0,4.58620689655163 710.0,9.58620689655163 705.0,4.58620689655163" fill="#dca100" stroke="black" stroke-width="0.5"/><text x="716" y="12" font-size="9" text-anchor="end" fill="#1f77b4" font-family="sans-serif">perf-stat.perf_cycles:u (lower=better)</text></g><g transform="translate(40,994)"><rect x="0" y="0" width="720" height="120" fill="white" stroke="#888" stroke-width="0.5"/><text x="4" y="-4" font-size="11" font-family="sans-serif">perf_instructions:u</text><text x="2" y="10" font-size="8" fill="#444" font-family="sans-serif">5e+07</text><text x="2" y="118" font-size="8" fill="#444" font-family="sans-serif">5e+07</text><line x1="10.0" y1="0" x2="10.0" y2="120" stroke="#2ca02c" stroke-width="0.7" stroke-dasharray="3,2"/><polyline points="10.0,107.41 360.0,35.42 710.0,12.59" fill="none" stroke="#1f77b4" stroke-width="1.2"/><circle cx="10.0" cy="107.41" r="2" fill="#1f77b4"/><polygon points="10.0,94.41379310342646 5.0,104.41379310342646 15.0,104.41379310342646" fill="#2ca02c" stroke="black" stroke-width="0.5"/><circle cx="360.0" cy="35.42" r="2" fill="#1f77b4"/><polygon points="360.0,22.416171224743778 365.0,27.416171224743778 360.0,32.41617122474378 355.0,27.416171224743778" fill="#dca100" stroke="black" stroke-width="0.5"/><circle cx="710.0" cy="12.59" r="2" fill="#1f77b4"/><polygon points="710.0,-0.4137931034264426 715.0,4.586206896573557 710.0,9.586206896573557 705.0,4.586206896573557" fill="#dca100" stroke="black" stroke-width="0.5"/><text x="716" y="12" font-size="9" text-anchor="end" fill="#1f77b4" font-family="sans-serif">perf-stat.perf_instructions:u (lower=better)</text></g><g transform="translate(40,1132)"><rect x="0" y="0" width="720" height="120" fill="white" stroke="#888" stroke-width="0.5"/><text x="4" y="-4" font-size="11" font-family="sans-serif">sys_s</text><text x="2" y="10" font-size="8" fill="#444" font-family="sans-serif">1.16</text><text x="2" y="118" font-size="8" fill="#444" font-family="sans-serif">-1.16</text><line x1="10.0" y1="0" x2="10.0" y2="120" stroke="#2ca02c" stroke-width="0.7" stroke-dasharray="3,2"/><polyline points="10.0,60.00 360.0,60.00 710.0,60.00" fill="none" stroke="#1f77b4" stroke-width="1.2"/><circle cx="10.0" cy="60.00" r="2" fill="#1f77b4"/><polygon points="10.0,47.0 5.0,57.0 15.0,57.0" fill="#2ca02c" stroke="black" stroke-width="0.5"/><circle cx="360.0" cy="60.00" r="2" fill="#1f77b4"/><polygon points="360.0,47.0 365.0,52.0 360.0,57.0 355.0,52.0" fill="#dca100" stroke="black" stroke-width="0.5"/><circle cx="710.0" cy="60.00" r="2" fill="#1f77b4"/><polygon points="710.0,47.0 715.0,52.0 710.0,57.0 705.0,52.0" fill="#dca100" stroke="black" stroke-width="0.5"/><text x="716" y="12" font-size="9" text-anchor="end" fill="#1f77b4" font-family="sans-serif">rusage.default.sys_s (lower=better)</text><polyline points="10.0,60.00 360.0,60.00 710.0,60.00" fill="none" stroke="#ff7f0e" stroke-width="1.2"/><circle cx="10.0" cy="60.00" r="2" fill="#ff7f0e"/><polygon points="10.0,47.0 5.0,57.0 15.0,57.0" fill="#2ca02c" stroke="black" stroke-width="0.5"/><circle cx="360.0" cy="60.00" r="2" fill="#ff7f0e"/><polygon points="360.0,47.0 365.0,52.0 360.0,57.0 355.0,52.0" fill="#dca100" stroke="black" stroke-width="0.5"/><circle cx="710.0" cy="60.00" r="2" fill="#ff7f0e"/><polygon points="710.0,47.0 715.0,52.0 710.0,57.0 705.0,52.0" fill="#dca100" stroke="black" stroke-width="0.5"/><text x="716" y="23" font-size="9" text-anchor="end" fill="#ff7f0e" font-family="sans-serif">rusage.sys_s (lower=better)</text></g><g transform="translate(40,1270)"><rect x="0" y="0" width="720" height="120" fill="white" stroke="#888" stroke-width="0.5"/><text x="4" y="-4" font-size="11" font-family="sans-serif">user_s</text><text x="2" y="10" font-size="8" fill="#444" font-family="sans-serif">0.0054</text><text x="2" y="118" font-size="8" fill="#444" font-family="sans-serif">-0.0004</text><line x1="10.0" y1="0" x2="10.0" y2="120" stroke="#2ca02c" stroke-width="0.7" stroke-dasharray="3,2"/><polyline points="10.0,12.59 360.0,107.41 710.0,107.41" fill="none" stroke="#1f77b4" stroke-width="1.2"/><circle cx="10.0" cy="12.59" r="2" fill="#1f77b4"/><polygon points="10.0,-0.41379310344827047 5.0,9.58620689655173 15.0,9.58620689655173" fill="#2ca02c" stroke="black" stroke-width="0.5"/><circle cx="360.0" cy="107.41" r="2" fill="#1f77b4"/><polygon points="360.0,94.41379310344827 365.0,99.41379310344827 360.0,104.41379310344827 355.0,99.41379310344827" fill="#dca100" stroke="black" stroke-width="0.5"/><circle cx="710.0" cy="107.41" r="2" fill="#1f77b4"/><polygon points="710.0,94.41379310344827 715.0,99.41379310344827 710.0,104.41379310344827 705.0,99.41379310344827" fill="#dca100" stroke="black" stroke-width="0.5"/><text x="716" y="12" font-size="9" text-anchor="end" fill="#1f77b4" font-family="sans-serif">rusage.default.user_s (lower=better)</text><polyline points="10.0,12.59 360.0,107.41 710.0,107.41" fill="none" stroke="#ff7f0e" stroke-width="1.2"/><circle cx="10.0" cy="12.59" r="2" fill="#ff7f0e"/><polygon points="10.0,-0.41379310344827047 5.0,9.58620689655173 15.0,9.58620689655173" fill="#2ca02c" stroke="black" stroke-width="0.5"/><circle cx="360.0" cy="107.41" r="2" fill="#ff7f0e"/><polygon points="360.0,94.41379310344827 365.0,99.41379310344827 360.0,104.41379310344827 355.0,99.41379310344827" fill="#dca100" stroke="black" stroke-width="0.5"/><circle cx="710.0" cy="107.41" r="2" fill="#ff7f0e"/><polygon points="710.0,94.41379310344827 715.0,99.41379310344827 710.0,104.41379310344827 705.0,99.41379310344827" fill="#dca100" stroke="black" stroke-width="0.5"/><text x="716" y="23" font-size="9" text-anchor="end" fill="#ff7f0e" font-family="sans-serif">rusage.user_s (lower=better)</text></g><g transform="translate(40,1408)"><rect x="0" y="0" width="720" height="120" fill="white" stroke="#888" stroke-width="0.5"/><text x="4" y="-4" font-size="11" font-family="sans-serif">wall_s</text><text x="2" y="10" font-size="8" fill="#444" font-family="sans-serif">1.17</text><text x="2" y="118" font-size="8" fill="#444" font-family="sans-serif">-1.15</text><line x1="10.0" y1="0" x2="10.0" y2="120" stroke="#2ca02c" stroke-width="0.7" stroke-dasharray="3,2"/><polyline points="10.0,60.00 360.0,60.00 710.0,60.00" fill="none" stroke="#1f77b4" stroke-width="1.2"/><circle cx="10.0" cy="60.00" r="2" fill="#1f77b4"/><polygon points="10.0,47.0 5.0,57.0 15.0,57.0" fill="#2ca02c" stroke="black" stroke-width="0.5"/><circle cx="360.0" cy="60.00" r="2" fill="#1f77b4"/><polygon points="360.0,47.0 365.0,52.0 360.0,57.0 355.0,52.0" fill="#dca100" stroke="black" stroke-width="0.5"/><circle cx="710.0" cy="60.00" r="2" fill="#1f77b4"/><polygon points="710.0,47.0 715.0,52.0 710.0,57.0 705.0,52.0" fill="#dca100" stroke="black" stroke-width="0.5"/><text x="716" y="12" font-size="9" text-anchor="end" fill="#1f77b4" font-family="sans-serif">rusage.default.wall_s (lower=better)</text><polyline points="10.0,60.00 360.0,60.00 710.0,60.00" fill="none" stroke="#ff7f0e" stroke-width="1.2"/><circle cx="10.0" cy="60.00" r="2" fill="#ff7f0e"/><polygon points="10.0,47.0 5.0,57.0 15.0,57.0" fill="#2ca02c" stroke="black" stroke-width="0.5"/><circle cx="360.0" cy="60.00" r="2" fill="#ff7f0e"/><polygon points="360.0,47.0 365.0,52.0 360.0,57.0 355.0,52.0" fill="#dca100" stroke="black" stroke-width="0.5"/><circle cx="710.0" cy="60.00" r="2" fill="#ff7f0e"/><polygon points="710.0,47.0 715.0,52.0 710.0,57.0 705.0,52.0" fill="#dca100" stroke="black" stroke-width="0.5"/><text x="716" y="23" font-size="9" text-anchor="end" fill="#ff7f0e" font-family="sans-serif">rusage.wall_s (lower=better)</text></g><g transform="translate(40,1546)"><text x="10.0" y="10" font-size="8" fill="#2ca02c" text-anchor="middle" font-family="monospace" transform="rotate(45 10.0 10)">edca85f</text><text x="360.0" y="10" font-size="8" fill="#222" text-anchor="middle" font-family="monospace" transform="rotate(45 360.0 10)">90ce69c</text><text x="710.0" y="10" font-size="8" fill="#222" text-anchor="middle" font-family="monospace" transform="rotate(45 710.0 10)">90ce69c</text></g><g transform="translate(540,1582)"><text x="0" y="0" font-size="9" font-family="sans-serif">decisions:</text><polygon points="60,-9 55,1 65,1" fill="#2ca02c" stroke="black" stroke-width="0.5"/><text x="68" y="0" font-size="9" font-family="sans-serif">KEEP</text><polygon points="125,1 120,-9 130,-9" fill="#d62728" stroke="black" stroke-width="0.5"/><text x="133" y="0" font-size="9" font-family="sans-serif">DISCARD</text><polygon points="190,-9 195,-4 190,1 185,-4" fill="#dca100" stroke="black" stroke-width="0.5"/><text x="198" y="0" font-size="9" font-family="sans-serif">ESCALATE</text></g></svg>
