<?xml version="1.0" encoding="UTF-8"?>
<svg xmlns="http://www.w3.org/2000/svg" version="1.1" width="780" height="1596" viewBox="0 0 780 1596"><text x="40" y="18" font-size="13" font-family="sans-serif" font-weight="bold">benchmarkserversave -- local/local (amd-ryzen-9-7950x3d-16-core-processor, amd64, n=9)</text><g transform="translate(40,28)"><rect x="0" y="0" width="720" height="120" fill="white" stroke="#888" stroke-width="0.5"/><text x="4" y="-4" font-size="11" font-family="sans-serif">cpu_percent</text><text x="2" y="10" font-size="8" fill="#444" font-family="sans-serif">106</text><text x="2" y="118" font-size="8" fill="#444" font-family="sans-serif">0</text><line x1="0" y1="21.60" x2="720" y2="21.60" stroke="#d62728" stroke-width="0.7" stroke-dasharray="4,3" opacity="0.7"/><text x="716" y="19.60" font-size="8" fill="#d62728" text-anchor="end" font-family="sans-serif">90% saturation</text><line x1="10.0" y1="0" x2="10.0" y2="120" stroke="#2ca02c" stroke-width="0.7" stroke-dasharray="3,2"/><polyline points="10.0,11.23 97.5,63.11 185.0,63.11 272.5,63.11 360.0,11.23 447.5,19.87 535.0,11.23 622.5,63.11 710.0,11.23" fill="none" stroke="#1f77b4" stroke-width="1.2"/><circle cx="10.0" cy="11.23" r="5" fill="none" stroke="#d62728" stroke-width="1.5"/><circle cx="10.0" cy="11.23" r="2" fill="#1f77b4"/><polygon points="10.0,-1.7735849056603854 5.0,8.226415094339615 15.0,8.226415094339615" fill="#2ca02c" stroke="black" stroke-width="0.5"/><circle cx="97.5" cy="63.11" r="2" fill="#1f77b4"/><polygon points="97.5,50.11320754716981 102.5,55.11320754716981 97.5,60.11320754716981 92.5,55.11320754716981" fill="#dca100" stroke="black" stroke-width="0.5"/><circle cx="185.0" cy="63.11" r="2" fill="#1f77b4"/><polygon points="185.0,50.11320754716981 190.0,55.11320754716981 185.0,60.11320754716981 180.0,55.11320754716981" fill="#dca100" stroke="black" stroke-width="0.5"/><circle cx="272.5" cy="63.11" r="2" fill="#1f77b4"/><polygon points="272.5,50.11320754716981 277.5,55.11320754716981 272.5,60.11320754716981 267.5,55.11320754716981" fill="#dca100" stroke="black" stroke-width="0.5"/><circle cx="360.0" cy="11.23" r="5" fill="none" stroke="#d62728" stroke-width="1.5"/><circle cx="360.0" cy="11.23" r="2" fill="#1f77b4"/><polygon points="360.0,-1.7735849056603854 365.0,3.2264150943396146 360.0,8.226415094339615 355.0,3.2264150943396146" fill="#dca100" stroke="black" stroke-width="0.5"/><circle cx="447.5" cy="19.87" r="5" fill="none" stroke="#d62728" stroke-width="1.5"/><circle cx="447.5" cy="19.87" r="2" fill="#1f77b4"/><polygon points="447.5,6.874213836477978 452.5,11.874213836477978 447.5,16.874213836477978 442.5,11.874213836477978" fill="#dca100" stroke="black" stroke-width="0.5"/><circle cx="535.0" cy="11.23" r="5" fill="none" stroke="#d62728" stroke-width="1.5"/><circle cx="535.0" cy="11.23" r="2" fill="#1f77b4"/><polygon points="535.0,-1.7735849056603854 540.0,3.2264150943396146 535.0,8.226415094339615 530.0,3.2264150943396146" fill="#dca100" stroke="black" stroke-width="0.5"/><circle cx="622.5" cy="63.11" r="2" fill="#1f77b4"/><polygon points="622.5,50.11320754716981 627.5,55.11320754716981 622.5,60.11320754716981 617.5,55.11320754716981" fill="#dca100" stroke="black" stroke-width="0.5"/><circle cx="710.0" cy="11.23" r="5" fill="none" stroke="#d62728" stroke-width="1.5"/><circle cx="710.0" cy="11.23" r="2" fill="#1f77b4"/><polygon points="710.0,-1.7735849056603854 715.0,3.2264150943396146 710.0,8.226415094339615 705.0,3.2264150943396146" fill="#dca100" stroke="black" stroke-width="0.5"/><text x="716" y="12" font-size="9" text-anchor="end" fill="#1f77b4" font-family="sans-serif">rusage.cpu_percent (lower=better)</text><polyline points="10.0,11.23 97.5,63.11 185.0,63.11 272.5,63.11 360.0,11.23 447.5,19.87 535.0,11.23 622.5,63.11 710.0,11.23" fill="none" stroke="#ff7f0e" stroke-width="1.2"/><circle cx="10.0" cy="11.23" r="5" fill="none" stroke="#d62728" stroke-width="1.5"/><circle cx="10.0" cy="11.23" r="2" fill="#ff7f0e"/><polygon points="10.0,-1.7735849056603854 5.0,8.226415094339615 15.0,8.226415094339615" fill="#2ca02c" stroke="black" stroke-width="0.5"/><circle cx="97.5" cy="63.11" r="2" fill="#ff7f0e"/><polygon points="97.5,50.11320754716981 102.5,55.11320754716981 97.5,60.11320754716981 92.5,55.11320754716981" fill="#dca100" stroke="black" stroke-width="0.5"/><circle cx="185.0" cy="63.11" r="2" fill="#ff7f0e"/><polygon points="185.0,50.11320754716981 190.0,55.11320754716981 185.0,60.11320754716981 180.0,55.11320754716981" fill="#dca100" stroke="black" stroke-width="0.5"/><circle cx="272.5" cy="63.11" r="2" fill="#ff7f0e"/><polygon points="272.5,50.11320754716981 277.5,55.11320754716981 272.5,60.11320754716981 267.5,55.11320754716981" fill="#dca100" stroke="black" stroke-width="0.5"/><circle cx="360.0" cy="11.23" r="5" fill="none" stroke="#d62728" stroke-width="1.5"/><circle cx="360.0" cy="11.23" r="2" fill="#ff7f0e"/><polygon points="360.0,-1.7735849056603854 365.0,3.2264150943396146 360.0,8.226415094339615 355.0,3.2264150943396146" fill="#dca100" stroke="black" stroke-width="0.5"/><circle cx="447.5" cy="19.87" r="5" fill="none" stroke="#d62728" stroke-width="1.5"/><circle cx="447.5" cy="19.87" r="2" fill="#ff7f0e"/><polygon points="447.5,6.874213836477978 452.5,11.874213836477978 447.5,16.874213836477978 442.5,11.874213836477978" fill="#dca100" stroke="black" stroke-width="0.5"/><circle cx="535.0" cy="11.23" r="5" fill="none" stroke="#d62728" stroke-width="1.5"/><circle cx="535.0" cy="11.23" r="2" fill="#ff7f0e"/><polygon points="535.0,-1.7735849056603854 540.0,3.2264150943396146 535.0,8.226415094339615 530.0,3.2264150943396146" fill="#dca100" stroke="black" stroke-width="0.5"/><circle cx="622.5" cy="63.11" r="2" fill="#ff7f0e"/><polygon points="622.5,50.11320754716981 627.5,55.11320754716981 622.5,60.11320754716981 617.5,55.11320754716981" fill="#dca100" stroke="black" stroke-width="0.5"/><circle cx="710.0" cy="11.23" r="5" fill="none" stroke="#d62728" stroke-width="1.5"/><circle cx="710.0" cy="11.23" r="2" fill="#ff7f0e"/><polygon points="710.0,-1.7735849056603854 715.0,3.2264150943396146 710.0,8.226415094339615 705.0,3.2264150943396146" fill="#dca100" stroke="black" stroke-width="0.5"/><text x="716" y="23" font-size="9" text-anchor="end" fill="#ff7f0e" font-family="sans-serif">rusage.default.cpu_percent (lower=better)</text></g><g transform="translate(40,166)"><rect x="0" y="0" width="720" height="120" fill="white" stroke="#888" stroke-width="0.5"/><text x="4" y="-4" font-size="11" font-family="sans-serif">binary_size_bytes</text><text x="2" y="10" font-size="8" fill="#444" font-family="sans-serif">2.86e+06</text><text x="2" y="118" font-size="8" fill="#444" font-family="sans-serif">2.86e+06</text><line x1="10.0" y1="0" x2="10.0" y2="120" stroke="#2ca02c" stroke-width="0.7" stroke-dasharray="3,2"/><polyline points="10.0,12.59 97.5,107.41 185.0,107.41 272.5,107.41 360.0,107.41 447.5,107.41 535.0,107.41 622.5,107.41 710.0,107.41" fill="none" stroke="#1f77b4" stroke-width="1.2"/><circle cx="10.0" cy="12.59" r="2" fill="#1f77b4"/><polygon points="10.0,-0.41379310344972 5.0,9.58620689655028 15.0,9.58620689655028" fill="#2ca02c" stroke="black" stroke-width="0.5"/><circle cx="97.5" cy="107.41" r="2" fill="#1f77b4"/><polygon points="97.5,94.41379310344972 102.5,99.41379310344972 97.5,104.41379310344972 92.5,99.41379310344972" fill="#dca100" stroke="black" stroke-width="0.5"/><circle cx="185.0" cy="107.41" r="2" fill="#1f77b4"/><polygon points="185.0,94.41379310344972 190.0,99.41379310344972 185.0,104.41379310344972 180.0,99.41379310344972" fill="#dca100" stroke="black" stroke-width="0.5"/><circle cx="272.5" cy="107.41" r="2" fill="#1f77b4"/><polygon points="272.5,94.41379310344972 277.5,99.41379310344972 272.5,104.41379310344972 267.5,99.41379310344972" fill="#dca100" stroke="black" stroke-width="0.5"/><circle cx="360.0" cy="107.41" r="2" fill="#1f77b4"/><polygon points="360.0,94.41379310344972 365.0,99.41379310344972 360.0,104.41379310344972 355.0,99.41379310344972" fill="#dca100" stroke="black" stroke-width="0.5"/><circle cx="447.5" cy="107.41" r="2" fill="#1f77b4"/><polygon points="447.5,94.41379310344972 452.5,99.41379310344972 447.5,104.41379310344972 442.5,99.41379310344972" fill="#dca100" stroke="black" stroke-width="0.5"/><circle cx="535.0" cy="107.41" r="2" fill="#1f77b4"/><polygon points="535.0,94.41379310344972 540.0,99.41379310344972 535.0,104.41379310344972 530.0,99.41379310344972" fill="#dca100" stroke="black" stroke-width="0.5"/><circle cx="622.5" cy="107.41" r="2" fill="#1f77b4"/><polygon points="622.5,94.41379310344972 627.5,99.41379310344972 622.5,104.41379310344972 617.5,99.41379310344972" fill="#dca100" stroke="black" stroke-width="0.5"/><circle cx="710.0" cy="107.41" r="2" fill="#1f77b4"/><polygon points="710.0,94.41379310344972 715.0,99.41379310344972 710.0,104.41379310344972 705.0,99.41379310344972" fill="#dca100" stroke="black" stroke-width="0.5"/><text x="716" y="12" font-size="9" text-anchor="end" fill="#1f77b4" font-family="sans-serif">binary-size.binary_size_bytes (lower=better)</text></g><g transform="translate(40,304)"><rect x="0" y="0" width="720" height="120" fill="white" stroke="#888" stroke-width="0.5"/><text x="4" y="-4" font-size="11" font-family="sans-serif">cache_bytes</text><text x="2" y="10" font-size="8" fill="#444" font-family="sans-serif">5.13e+04</text><text x="2" y="118" font-size="8" fill="#444" font-family="sans-serif">5.12e+04</text><line x1="10.0" y1="0" x2="10.0" y2="120" stroke="#2ca02c" stroke-width="0.7" stroke-dasharray="3,2"/><polyline points="10.0,62.06 97.5,85.42 185.0,107.41 272.5,12.59 360.0,92.30 447.5,90.92 535.0,24.96 622.5,97.79 710.0,106.04" fill="none" stroke="#1f77b4" stroke-width="1.2"/><circle cx="10.0" cy="62.06" r="2" fill="#1f77b4"/><polygon points="10.0,49.06146926536749 5.0,59.06146926536749 15.0,59.06146926536749" fill="#2ca02c" stroke="black" stroke-width="0.5"/><circle cx="97.5" cy="85.42" r="2" fill="#1f77b4"/><polygon points="97.5,72.42478760619893 102.5,77.42478760619893 97.5,82.42478760619893 92.5,77.42478760619893" fill="#dca100" stroke="black" stroke-width="0.5"/><circle cx="185.0" cy="107.41" r="2" fill="#1f77b4"/><polygon points="185.0,94.41379310345206 190.0,99.41379310345206 185.0,104.41379310345206 180.0,99.41379310345206" fill="#dca100" stroke="black" stroke-width="0.5"/><circle cx="272.5" cy="12.59" r="2" fill="#1f77b4"/><polygon points="272.5,-0.41379310345206477 277.5,4.586206896547935 272.5,9.586206896547935 267.5,4.586206896547935" fill="#dca100" stroke="black" stroke-width="0.5"/><circle cx="360.0" cy="92.30" r="2" fill="#1f77b4"/><polygon points="360.0,79.29635182409054 365.0,84.29635182409054 360.0,89.29635182409054 355.0,84.29635182409054" fill="#dca100" stroke="black" stroke-width="0.5"/><circle cx="447.5" cy="90.92" r="2" fill="#1f77b4"/><polygon points="447.5,77.92203898051221 452.5,82.92203898051221 447.5,87.92203898051221 442.5,82.92203898051221" fill="#dca100" stroke="black" stroke-width="0.5"/><circle cx="535.0" cy="24.96" r="2" fill="#1f77b4"/><polygon points="535.0,11.955022488752817 540.0,16.955022488752817 535.0,21.955022488752817 530.0,16.955022488752817" fill="#dca100" stroke="black" stroke-width="0.5"/><circle cx="622.5" cy="97.79" r="2" fill="#1f77b4"/><polygon points="622.5,84.79360319840382 627.5,89.79360319840382 622.5,94.79360319840382 617.5,89.79360319840382" fill="#dca100" stroke="black" stroke-width="0.5"/><circle cx="710.0" cy="106.04" r="2" fill="#1f77b4"/><polygon points="710.0,93.03948025987376 715.0,98.03948025987376 710.0,103.03948025987376 705.0,98.03948025987376" fill="#dca100" stroke="black" stroke-width="0.5"/><text x="716" y="12" font-size="9" text-anchor="end" fill="#1f77b4" font-family="sans-serif">rusage.cache_bytes (lower=better)</text><polyline points="10.0,62.06 97.5,85.42 185.0,107.41 272.5,12.59 360.0,92.30 447.5,90.92 535.0,24.96 622.5,97.79 710.0,106.04" fill="none" stroke="#ff7f0e" stroke-width="1.2"/><circle cx="10.0" cy="62.06" r="2" fill="#ff7f0e"/><polygon points="10.0,49.06146926536749 5.0,59.06146926536749 15.0,59.06146926536749" fill="#2ca02c" stroke="black" stroke-width="0.5"/><circle cx="97.5" cy="85.42" r="2" fill="#ff7f0e"/><polygon points="97.5,72.42478760619893 102.5,77.42478760619893 97.5,82.42478760619893 92.5,77.42478760619893" fill="#dca100" stroke="black" stroke-width="0.5"/><circle cx="185.0" cy="107.41" r="2" fill="#ff7f0e"/><polygon points="185.0,94.41379310345206 190.0,99.41379310345206 185.0,104.41379310345206 180.0,99.41379310345206" fill="#dca100" stroke="black" stroke-width="0.5"/><circle cx="272.5" cy="12.59" r="2" fill="#ff7f0e"/><polygon points="272.5,-0.41379310345206477 277.5,4.586206896547935 272.5,9.586206896547935 267.5,4.586206896547935" fill="#dca100" stroke="black" stroke-width="0.5"/><circle cx="360.0" cy="92.30" r="2" fill="#ff7f0e"/><polygon points="360.0,79.29635182409054 365.0,84.29635182409054 360.0,89.29635182409054 355.0,84.29635182409054" fill="#dca100" stroke="black" stroke-width="0.5"/><circle cx="447.5" cy="90.92" r="2" fill="#ff7f0e"/><polygon points="447.5,77.92203898051221 452.5,82.92203898051221 447.5,87.92203898051221 442.5,82.92203898051221" fill="#dca100" stroke="black" stroke-width="0.5"/><circle cx="535.0" cy="24.96" r="2" fill="#ff7f0e"/><polygon points="535.0,11.955022488752817 540.0,16.955022488752817 535.0,21.955022488752817 530.0,16.955022488752817" fill="#dca100" stroke="black" stroke-width="0.5"/><circle cx="622.5" cy="97.79" r="2" fill="#ff7f0e"/><polygon points="622.5,84.79360319840382 627.5,89.79360319840382 622.5,94.79360319840382 617.5,89.79360319840382" fill="#dca100" stroke="black" stroke-width="0.5"/><circle cx="710.0" cy="106.04" r="2" fill="#ff7f0e"/><polygon points="710.0,93.03948025987376 715.0,98.03948025987376 710.0,103.03948025987376 705.0,98.03948025987376" fill="#dca100" stroke="black" stroke-width="0.5"/><text x="716" y="23" font-size="9" text-anchor="end" fill="#ff7f0e" font-family="sans-serif">rusage.default.cache_bytes (lower=better)</text></g><g transform="translate(40,442)"><rect x="0" y="0" width="720" height="120" fill="white" stroke="#888" stroke-width="0.5"/><text x="4" y="-4" font-size="11" font-family="sans-serif">max_rss_kb</text><text x="2" y="10" font-size="8" fill="#444" font-family="sans-serif">8.34e+03</text><text x="2" y="118" font-size="8" fill="#444" font-family="sans-serif">7.99e+03</text><line x1="10.0" y1="0" x2="10.0" y2="120" stroke="#2ca02c" stroke-width="0.7" stroke-dasharray="3,2"/><polyline points="10.0,12.59 97.5,26.59 185.0,36.77 272.5,90.87 360.0,107.41 447.5,35.50 535.0,12.59 622.5,48.23 710.0,32.95" fill="none" stroke="#1f77b4" stroke-width="1.2"/><circle cx="10.0" cy="12.59" r="2" fill="#1f77b4"/><polygon points="10.0,-0.41379310344824205 5.0,9.586206896551758 15.0,9.586206896551758" fill="#2ca02c" stroke="black" stroke-width="0.5"/><circle cx="97.5" cy="26.59" r="2" fill="#1f77b4"/><polygon points="97.5,13.587595464012992 102.5,18.587595464012992 97.5,23.587595464012992 92.5,18.587595464012992" fill="#dca100" stroke="black" stroke-width="0.5"/><circle cx="185.0" cy="36.77" r="2" fill="#1f77b4"/><polygon points="185.0,23.7704235130757 190.0,28.7704235130757 185.0,33.7704235130757 180.0,28.7704235130757" fill="#dca100" stroke="black" stroke-width="0.5"/><circle cx="272.5" cy="90.87" r="2" fill="#1f77b4"/><polygon points="272.5,77.86669752372134 277.5,82.86669752372134 272.5,87.86669752372134 267.5,82.86669752372134" fill="#dca100" stroke="black" stroke-width="0.5"/><circle cx="360.0" cy="107.41" r="2" fill="#1f77b4"/><polygon points="360.0,94.41379310344824 365.0,99.41379310344824 360.0,104.41379310344824 355.0,99.41379310344824" fill="#dca100" stroke="black" stroke-width="0.5"/><circle cx="447.5" cy="35.50" r="2" fill="#1f77b4"/><polygon points="447.5,22.497570006942865 452.5,27.497570006942865 447.5,32.497570006942865 442.5,27.497570006942865" fill="#dca100" stroke="black" stroke-width="0.5"/><circle cx="535.0" cy="12.59" r="2" fill="#1f77b4"/><polygon points="535.0,-0.41379310344824205 540.0,4.586206896551758 535.0,9.586206896551758 530.0,4.586206896551758" fill="#dca100" stroke="black" stroke-width="0.5"/><circle cx="622.5" cy="48.23" r="2" fill="#1f77b4"/><polygon points="622.5,35.22610506827125 627.5,40.22610506827125 622.5,45.22610506827125 617.5,40.22610506827125" fill="#dca100" stroke="black" stroke-width="0.5"/><circle cx="710.0" cy="32.95" r="2" fill="#1f77b4"/><polygon points="710.0,19.95186299467717 715.0,24.95186299467717 710.0,29.95186299467717 705.0,24.95186299467717" fill="#dca100" stroke="black" stroke-width="0.5"/><text x="716" y="12" font-size="9" text-anchor="end" fill="#1f77b4" font-family="sans-serif">rusage.default.max_rss_kb (lower=better)</text><polyline points="10.0,12.59 97.5,26.59 185.0,36.77 272.5,90.87 360.0,107.41 447.5,35.50 535.0,12.59 622.5,48.23 710.0,32.95" fill="none" stroke="#ff7f0e" stroke-width="1.2"/><circle cx="10.0" cy="12.59" r="2" fill="#ff7f0e"/><polygon points="10.0,-0.41379310344824205 5.0,9.586206896551758 15.0,9.586206896551758" fill="#2ca02c" stroke="black" stroke-width="0.5"/><circle cx="97.5" cy="26.59" r="2" fill="#ff7f0e"/><polygon points="97.5,13.587595464012992 102.5,18.587595464012992 97.5,23.587595464012992 92.5,18.587595464012992" fill="#dca100" stroke="black" stroke-width="0.5"/><circle cx="185.0" cy="36.77" r="2" fill="#ff7f0e"/><polygon points="185.0,23.7704235130757 190.0,28.7704235130757 185.0,33.7704235130757 180.0,28.7704235130757" fill="#dca100" stroke="black" stroke-width="0.5"/><circle cx="272.5" cy="90.87" r="2" fill="#ff7f0e"/><polygon points="272.5,77.86669752372134 277.5,82.86669752372134 272.5,87.86669752372134 267.5,82.86669752372134" fill="#dca100" stroke="black" stroke-width="0.5"/><circle cx="360.0" cy="107.41" r="2" fill="#ff7f0e"/><polygon points="360.0,94.41379310344824 365.0,99.41379310344824 360.0,104.41379310344824 355.0,99.41379310344824" fill="#dca100" stroke="black" stroke-width="0.5"/><circle cx="447.5" cy="35.50" r="2" fill="#ff7f0e"/><polygon points="447.5,22.497570006942865 452.5,27.497570006942865 447.5,32.497570006942865 442.5,27.497570006942865" fill="#dca100" stroke="black" stroke-width="0.5"/><circle cx="535.0" cy="12.59" r="2" fill="#ff7f0e"/><polygon points="535.0,-0.41379310344824205 540.0,4.586206896551758 535.0,9.586206896551758 530.0,4.586206896551758" fill="#dca100" stroke="black" stroke-width="0.5"/><circle cx="622.5" cy="48.23" r="2" fill="#ff7f0e"/><polygon points="622.5,35.22610506827125 627.5,40.22610506827125 622.5,45.22610506827125 617.5,40.22610506827125" fill="#dca100" stroke="black" stroke-width="0.5"/><circle cx="710.0" cy="32.95" r="2" fill="#ff7f0e"/><polygon points="710.0,19.95186299467717 715.0,24.95186299467717 710.0,29.95186299467717 705.0,24.95186299467717" fill="#dca100" stroke="black" stroke-width="0.5"/><text x="716" y="23" font-size="9" text-anchor="end" fill="#ff7f0e" font-family="sans-serif">rusage.max_rss_kb (lower=better)</text></g><g transform="translate(40,580)"><rect x="0" y="0" width="720" height="120" fill="white" stroke="#888" stroke-width="0.5"/><text x="4" y="-4" font-size="11" font-family="sans-serif">perf_branch-misses:u</text><text x="2" y="10" font-size="8" fill="#444" font-family="sans-serif">1.71e+05</text><text x="2" y="118" font-size="8" fill="#444" font-family="sans-serif">1.64e+05</text><line x1="10.0" y1="0" x2="10.0" y2="120" stroke="#2ca02c" stroke-width="0.7" stroke-dasharray="3,2"/><polyline points="10.0,91.30 97.5,88.76 185.0,77.48 272.5,80.68 360.0,98.12 447.5,36.31 535.0,107.41 622.5,12.59 710.0,40.24" fill="none" stroke="#1f77b4" stroke-width="1.2"/><circle cx="10.0" cy="91.30" r="2" fill="#1f77b4"/><polygon points="10.0,78.30163250345382 5.0,88.30163250345382 15.0,88.30163250345382" fill="#2ca02c" stroke="black" stroke-width="0.5"/><circle cx="97.5" cy="88.76" r="2" fill="#1f77b4"/><polygon points="97.5,75.75842332308898 102.5,80.75842332308898 97.5,85.75842332308898 92.5,80.75842332308898" fill="#dca100" stroke="black" stroke-width="0.5"/><circle cx="185.0" cy="77.48" r="2" fill="#1f77b4"/><polygon points="185.0,64.48456311500826 190.0,69.48456311500826 185.0,74.48456311500826 180.0,69.48456311500826" fill="#dca100" stroke="black" stroke-width="0.5"/><circle cx="272.5" cy="80.68" r="2" fill="#1f77b4"/><polygon points="272.5,67.6790819635153 277.5,72.6790819635153 272.5,77.6790819635153 267.5,72.6790819635153" fill="#dca100" stroke="black" stroke-width="0.5"/><circle cx="360.0" cy="98.12" r="2" fill="#1f77b4"/><polygon points="360.0,85.12487664589605 365.0,90.12487664589605 360.0,95.12487664589605 355.0,90.12487664589605" fill="#dca100" stroke="black" stroke-width="0.5"/><circle cx="447.5" cy="36.31" r="2" fill="#1f77b4"/><polygon points="447.5,23.312487664589696 452.5,28.312487664589696 447.5,33.312487664589696 442.5,28.312487664589696" fill="#dca100" stroke="black" stroke-width="0.5"/><circle cx="535.0" cy="107.41" r="2" fill="#1f77b4"/><polygon points="535.0,94.41379310344811 540.0,99.41379310344811 535.0,104.41379310344811 530.0,99.41379310344811" fill="#dca100" stroke="black" stroke-width="0.5"/><circle cx="622.5" cy="12.59" r="2" fill="#1f77b4"/><polygon points="622.5,-0.41379310344811415 627.5,4.586206896551886 622.5,9.586206896551886 617.5,4.586206896551886" fill="#dca100" stroke="black" stroke-width="0.5"/><circle cx="710.0" cy="40.24" r="2" fill="#1f77b4"/><polygon points="710.0,27.235853046493986 715.0,32.235853046493986 710.0,37.235853046493986 705.0,32.235853046493986" fill="#dca100" stroke="black" stroke-width="0.5"/><text x="716" y="12" font-size="9" text-anchor="end" fill="#1f77b4" font-family="sans-serif">perf-stat.perf_branch-misses:u (lower=better)</text></g><g transform="translate(40,718)"><rect x="0" y="0" width="720" height="120" fill="white" stroke="#888" stroke-width="0.5"/><text x="4" y="-4" font-size="11" font-family="sans-serif">perf_cache-misses:u</text><text x="2" y="10" font-size="8" fill="#444" font-family="sans-serif">1.52e+05</text><text x="2" y="118" font-size="8" fill="#444" font-family="sans-serif">6.27e+04</text><line x1="10.0" y1="0" x2="10.0" y2="120" stroke="#2ca02c" stroke-width="0.7" stroke-dasharray="3,2"/><polyline points="10.0,101.88 97.5,107.41 185.0,106.87 272.5,104.00 360.0,102.14 447.5,92.47 535.0,12.59 622.5,94.30 710.0,93.98" fill="none" stroke="#1f77b4" stroke-width="1.2"/><circle cx="10.0" cy="101.88" r="2" fill="#1f77b4"/><polygon points="10.0,88.8792142739049 5.0,98.8792142739049 15.0,98.8792142739049" fill="#2ca02c" stroke="black" stroke-width="0.5"/><circle cx="97.5" cy="107.41" r="2" fill="#1f77b4"/><polygon points="97.5,94.41379310344828 102.5,99.41379310344828 97.5,104.41379310344828 92.5,99.41379310344828" fill="#dca100" stroke="black" stroke-width="0.5"/><circle cx="185.0" cy="106.87" r="2" fill="#1f77b4"/><polygon points="185.0,93.87311488741828 190.0,98.87311488741828 185.0,103.87311488741828 180.0,98.87311488741828" fill="#dca100" stroke="black" stroke-width="0.5"/><circle cx="272.5" cy="104.00" r="2" fill="#1f77b4"/><polygon points="272.5,91.00383390007731 277.5,96.00383390007731 272.5,101.00383390007731 267.5,96.00383390007731" fill="#dca100" stroke="black" stroke-width="0.5"/><circle cx="360.0" cy="102.14" r="2" fill="#1f77b4"/><polygon points="360.0,89.13972286890117 365.0,94.13972286890117 360.0,99.13972286890117 355.0,94.13972286890117" fill="#dca100" stroke="black" stroke-width="0.5"/><circle cx="447.5" cy="92.47" r="2" fill="#1f77b4"/><polygon points="447.5,79.47387094323773 452.5,84.47387094323773 447.5,89.47387094323773 442.5,84.47387094323773" fill="#dca100" stroke="black" stroke-width="0.5"/><circle cx="535.0" cy="12.59" r="2" fill="#1f77b4"/><polygon points="535.0,-0.41379310344827047 540.0,4.5862068965517295 535.0,9.58620689655173 530.0,4.5862068965517295" fill="#dca100" stroke="black" stroke-width="0.5"/><circle cx="622.5" cy="94.30" r="2" fill="#1f77b4"/><polygon points="622.5,81.30480399297565 627.5,86.30480399297565 622.5,91.30480399297565 617.5,86.30480399297565" fill="#dca100" stroke="black" stroke-width="0.5"/><circle cx="710.0" cy="93.98" r="2" fill="#1f77b4"/><polygon points="710.0,80.981625877485 715.0,85.981625877485 710.0,90.981625877485 705.0,85.981625877485" fill="#dca100" stroke="black" stroke-width="0.5"/><text x="716" y="12" font-size="9" text-anchor="end" fill="#1f77b4" font-family="sans-serif">perf-stat.perf_cache-misses:u (lower=better)</text></g><g transform="translate(40,856)"><rect x="0" y="0" width="720" height="120" fill="white" stroke="#888" stroke-width="0.5"/><text x="4" y="-4" font-size="11" font-family="sans-serif">perf_cycles:u</text><text x="2" y="10" font-size="8" fill="#444" font-family="sans-serif">3.77e+07</text><text x="2" y="118" font-size="8" fill="#444" font-family="sans-serif">2.12e+07</text><line x1="10.0" y1="0" x2="10.0" y2="120" stroke="#2ca02c" stroke-width="0.7" stroke-dasharray="3,2"/><polyline points="10.0,100.79 97.5,99.30 185.0,99.04 272.5,98.90 360.0,107.41 447.5,17.57 535.0,12.59 622.5,98.11 710.0,96.70" fill="none" stroke="#1f77b4" stroke-width="1.2"/><circle cx="10.0" cy="100.79" r="2" fill="#1f77b4"/><polygon points="10.0,87.79142071355028 5.0,97.79142071355028 15.0,97.79142071355028" fill="#2ca02c" stroke="black" stroke-width="0.5"/><circle cx="97.5" cy="99.30" r="2" fill="#1f77b4"/><polygon points="97.5,86.30435135533935 102.5,91.30435135533935 97.5,96.30435135533935 92.5,91.30435135533935" fill="#dca100" stroke="black" stroke-width="0.5"/><circle cx="185.0" cy="99.04" r="2" fill="#1f77b4"/><polygon points="185.0,86.03767730361486 190.0,91.03767730361486 185.0,96.03767730361486 180.0,91.03767730361486" fill="#dca100" stroke="black" stroke-width="0.5"/><circle cx="272.5" cy="98.90" r="2" fill="#1f77b4"/><polygon points="272.5,85.89520924338584 277.5,90.89520924338584 272.5,95.89520924338584 267.5,90.89520924338584" fill="#dca100" stroke="black" stroke-width="0.5"/><circle cx="360.0" cy="107.41" r="2" fill="#1f77b4"/><polygon points="360.0,94.41379310344827 365.0,99.41379310344827 360.0,104.41379310344827 355.0,99.41379310344827" fill="#dca100" stroke="black" stroke-width="0.5"/><circle cx="447.5" cy="17.57" r="2" fill="#1f77b4"/><polygon points="447.5,4.573957995163639 452.5,9.573957995163639 447.5,14.573957995163639 442.5,9.573957995163639" fill="#dca100" stroke="black" stroke-width="0.5"/><circle cx="535.0" cy="12.59" r="2" fill="#1f77b4"/><polygon points="535.0,-0.4137931034482989 540.0,4.586206896551701 535.0,9.586206896551701 530.0,4.586206896551701" fill="#dca100" stroke="black" stroke-width="0.5"/><circle cx="622.5" cy="98.11" r="2" fill="#1f77b4"/><polygon points="622.5,85.11355548631258 627.5,90.11355548631258 622.5,95.11355548631258 617.5,90.11355548631258" fill="#dca100" stroke="black" stroke-width="0.5"/><circle cx="710.0" cy="96.70" r="2" fill="#1f77b4"/><polygon points="710.0,83.70374105860647 715.0,88.70374105860647 710.0,93.70374105860647 705.0,88.70374105860647" fill="#dca100" stroke="black" stroke-width="0.5"/><text x="716" y="12" font-size="9" text-anchor="end" fill="#1f77b4" font-family="sans-serif">perf-stat.perf_cycles:u (lower=better)</text></g><g transform="translate(40,994)"><rect x="0" y="0" width="720" height="120" fill="white" stroke="#888" stroke-width="0.5"/><text x="4" y="-4" font-size="11" font-family="sans-serif">perf_instructions:u</text><text x="2" y="10" font-size="8" fill="#444" font-family="sans-serif">5e+07</text><text x="2" y="118" font-size="8" fill="#444" font-family="sans-serif">5e+07</text><line x1="10.0" y1="0" x2="10.0" y2="120" stroke="#2ca02c" stroke-width="0.7" stroke-dasharray="3,2"/><polyline points="10.0,107.41 97.5,43.88 185.0,23.73 272.5,12.59 360.0,54.03 447.5,41.10 535.0,28.80 622.5,51.27 710.0,54.12" fill="none" stroke="#1f77b4" stroke-width="1.2"/><circle cx="10.0" cy="107.41" r="2" fill="#1f77b4"/><polygon points="10.0,94.41379310347138 5.0,104.41379310347138 15.0,104.41379310347138" fill="#2ca02c" stroke="black" stroke-width="0.5"/><circle cx="97.5" cy="43.88" r="2" fill="#1f77b4"/><polygon points="97.5,30.878111134118413 102.5,35.87811113411841 97.5,40.87811113411841 92.5,35.87811113411841" fill="#dca100" stroke="black" stroke-width="0.5"/><circle cx="185.0" cy="23.73" r="2" fill="#1f77b4"/><polygon points="185.0,10.731371351928871 190.0,15.731371351928871 185.0,20.73137135192887 180.0,15.731371351928871" fill="#dca100" stroke="black" stroke-width="0.5"/><circle cx="272.5" cy="12.59" r="2" fill="#1f77b4"/><polygon points="272.5,-0.4137931034713773 277.5,4.586206896528623 272.5,9.586206896528623 267.5,4.586206896528623" fill="#dca100" stroke="black" stroke-width="0.5"/><circle cx="360.0" cy="54.03" r="2" fill="#1f77b4"/><polygon points="360.0,41.02643169404573 365.0,46.02643169404573 360.0,51.02643169404573 355.0,46.02643169404573" fill="#dca100" stroke="black" stroke-width="0.5"/><circle cx="447.5" cy="41.10" r="2" fill="#1f77b4"/><polygon points="447.5,28.09744132043079 452.5,33.09744132043079 447.5,38.09744132043079 442.5,33.09744132043079" fill="#dca100" stroke="black" stroke-width="0.5"/><circle cx="535.0" cy="28.80" r="2" fill="#1f77b4"/><polygon points="535.0,15.79803656500927 540.0,20.79803656500927 535.0,25.79803656500927 530.0,20.79803656500927" fill="#dca100" stroke="black" stroke-width="0.5"/><circle cx="622.5" cy="51.27" r="2" fill="#1f77b4"/><polygon points="622.5,38.26824708100788 627.5,43.26824708100788 622.5,48.26824708100788 617.5,43.26824708100788" fill="#dca100" stroke="black" stroke-width="0.5"/><circle cx="710.0" cy="54.12" r="2" fill="#1f77b4"/><polygon points="710.0,41.12386756352805 715.0,46.12386756352805 710.0,51.12386756352805 705.0,46.12386756352805" fill="#dca100" stroke="black" stroke-width="0.5"/><text x="716" y="12" font-size="9" text-anchor="end" fill="#1f77b4" font-family="sans-serif">perf-stat.perf_instructions:u (lower=better)</text></g><g transform="translate(40,1132)"><rect x="0" y="0" width="720" height="120" fill="white" stroke="#888" stroke-width="0.5"/><text x="4" y="-4" font-size="11" font-family="sans-serif">sys_s</text><text x="2" y="10" font-size="8" fill="#444" font-family="sans-serif">0.0216</text><text x="2" y="118" font-size="8" fill="#444" font-family="sans-serif">-0.0016</text><line x1="10.0" y1="0" x2="10.0" y2="120" stroke="#2ca02c" stroke-width="0.7" stroke-dasharray="3,2"/><polyline points="10.0,83.71 97.5,83.71 185.0,83.71 272.5,107.41 360.0,107.41 447.5,12.59 535.0,83.71 622.5,107.41 710.0,107.41" fill="none" stroke="#1f77b4" stroke-width="1.2"/><circle cx="10.0" cy="83.71" r="2" fill="#1f77b4"/><polygon points="10.0,70.70689655172414 5.0,80.70689655172414 15.0,80.70689655172414" fill="#2ca02c" stroke="black" stroke-width="0.5"/><circle cx="97.5" cy="83.71" r="2" fill="#1f77b4"/><polygon points="97.5,70.70689655172414 102.5,75.70689655172414 97.5,80.70689655172414 92.5,75.70689655172414" fill="#dca100" stroke="black" stroke-width="0.5"/><circle cx="185.0" cy="83.71" r="2" fill="#1f77b4"/><polygon points="185.0,70.70689655172414 190.0,75.70689655172414 185.0,80.70689655172414 180.0,75.70689655172414" fill="#dca100" stroke="black" stroke-width="0.5"/><circle cx="272.5" cy="107.41" r="2" fill="#1f77b4"/><polygon points="272.5,94.41379310344827 277.5,99.41379310344827 272.5,104.41379310344827 267.5,99.41379310344827" fill="#dca100" stroke="black" stroke-width="0.5"/><circle cx="360.0" cy="107.41" r="2" fill="#1f77b4"/><polygon points="360.0,94.41379310344827 365.0,99.41379310344827 360.0,104.41379310344827 355.0,99.41379310344827" fill="#dca100" stroke="black" stroke-width="0.5"/><circle cx="447.5" cy="12.59" r="2" fill="#1f77b4"/><polygon points="447.5,-0.41379310344827047 452.5,4.5862068965517295 447.5,9.58620689655173 442.5,4.5862068965517295" fill="#dca100" stroke="black" stroke-width="0.5"/><circle cx="535.0" cy="83.71" r="2" fill="#1f77b4"/><polygon points="535.0,70.70689655172414 540.0,75.70689655172414 535.0,80.70689655172414 530.0,75.70689655172414" fill="#dca100" stroke="black" stroke-width="0.5"/><circle cx="622.5" cy="107.41" r="2" fill="#1f77b4"/><polygon points="622.5,94.41379310344827 627.5,99.41379310344827 622.5,104.41379310344827 617.5,99.41379310344827" fill="#dca100" stroke="black" stroke-width="0.5"/><circle cx="710.0" cy="107.41" r="2" fill="#1f77b4"/><polygon points="710.0,94.41379310344827 715.0,99.41379310344827 710.0,104.41379310344827 705.0,99.41379310344827" fill="#dca100" stroke="black" stroke-width="0.5"/><text x="716" y="12" font-size="9" text-anchor="end" fill="#1f77b4" font-family="sans-serif">rusage.default.sys_s (lower=better)</text><polyline points="10.0,83.71 97.5,83.71 185.0,83.71 272.5,107.41 360.0,107.41 447.5,12.59 535.0,83.71 622.5,107.41 710.0,107.41" fill="none" stroke="#ff7f0e" stroke-width="1.2"/><circle cx="10.0" cy="83.71" r="2" fill="#ff7f0e"/><polygon points="10.0,70.70689655172414 5.0,80.70689655172414 15.0,80.70689655172414" fill="#2ca02c" stroke="black" stroke-width="0.5"/><circle cx="97.5" cy="83.71" r="2" fill="#ff7f0e"/><polygon points="97.5,70.70689655172414 102.5,75.70689655172414 97.5,80.70689655172414 92.5,75.70689655172414" fill="#dca100" stroke="black" stroke-width="0.5"/><circle cx="185.0" cy="83.71" r="2" fill="#ff7f0e"/><polygon points="185.0,70.70689655172414 190.0,75.70689655172414 185.0,80.70689655172414 180.0,75.70689655172414" fill="#dca100" stroke="black" stroke-width="0.5"/><circle cx="272.5" cy="107.41" r="2" fill="#ff7f0e"/><polygon points="272.5,94.41379310344827 277.5,99.41379310344827 272.5,104.41379310344827 267.5,99.41379310344827" fill="#dca100" stroke="black" stroke-width="0.5"/><circle cx="360.0" cy="107.41" r="2" fill="#ff7f0e"/><polygon points="360.0,94.41379310344827 365.0,99.41379310344827 360.0,104.41379310344827 355.0,99.41379310344827" fill="#dca100" stroke="black" stroke-width="0.5"/><circle cx="447.5" cy="12.59" r="2" fill="#ff7f0e"/><polygon points="447.5,-0.41379310344827047 452.5,4.5862068965517295 447.5,9.58620689655173 442.5,4.5862068965517295" fill="#dca100" stroke="black" stroke-width="0.5"/><circle cx="535.0" cy="83.71" r="2" fill="#ff7f0e"/><polygon points="535.0,70.70689655172414 540.0,75.70689655172414 535.0,80.70689655172414 530.0,75.70689655172414" fill="#dca100" stroke="black" stroke-width="0.5"/><circle cx="622.5" cy="107.41" r="2" fill="#ff7f0e"/><polygon points="622.5,94.41379310344827 627.5,99.41379310344827 622.5,104.41379310344827 617.5,99.41379310344827" fill="#dca100" stroke="black" stroke-width="0.5"/><circle cx="710.0" cy="107.41" r="2" fill="#ff7f0e"/><polygon points="710.0,94.41379310344827 715.0,99.41379310344827 710.0,104.41379310344827 705.0,99.41379310344827" fill="#dca100" stroke="black" stroke-width="0.5"/><text x="716" y="23" font-size="9" text-anchor="end" fill="#ff7f0e" font-family="sans-serif">rusage.sys_s (lower=better)</text></g><g transform="translate(40,1270)"><rect x="0" y="0" width="720" height="120" fill="white" stroke="#888" stroke-width="0.5"/><text x="4" y="-4" font-size="11" font-family="sans-serif">user_s</text><text x="2" y="10" font-size="8" fill="#444" font-family="sans-serif">0.0216</text><text x="2" y="118" font-size="8" fill="#444" font-family="sans-serif">-0.0016</text><line x1="10.0" y1="0" x2="10.0" y2="120" stroke="#2ca02c" stroke-width="0.7" stroke-dasharray="3,2"/><polyline points="10.0,83.71 97.5,107.41 185.0,107.41 272.5,107.41 360.0,83.71 447.5,12.59 535.0,107.41 622.5,107.41 710.0,83.71" fill="none" stroke="#1f77b4" stroke-width="1.2"/><circle cx="10.0" cy="83.71" r="2" fill="#1f77b4"/><polygon points="10.0,70.70689655172414 5.0,80.70689655172414 15.0,80.70689655172414" fill="#2ca02c" stroke="black" stroke-width="0.5"/><circle cx="97.5" cy="107.41" r="2" fill="#1f77b4"/><polygon points="97.5,94.41379310344827 102.5,99.41379310344827 97.5,104.41379310344827 92.5,99.41379310344827" fill="#dca100" stroke="black" stroke-width="0.5"/><circle cx="185.0" cy="107.41" r="2" fill="#1f77b4"/><polygon points="185.0,94.41379310344827 190.0,99.41379310344827 185.0,104.41379310344827 180.0,99.41379310344827" fill="#dca100" stroke="black" stroke-width="0.5"/><circle cx="272.5" cy="107.41" r="2" fill="#1f77b4"/><polygon points="272.5,94.41379310344827 277.5,99.41379310344827 272.5,104.41379310344827 267.5,99.41379310344827" fill="#dca100" stroke="black" stroke-width="0.5"/><circle cx="360.0" cy="83.71" r="2" fill="#1f77b4"/><polygon points="360.0,70.70689655172414 365.0,75.70689655172414 360.0,80.70689655172414 355.0,75.70689655172414" fill="#dca100" stroke="black" stroke-width="0.5"/><circle cx="447.5" cy="12.59" r="2" fill="#1f77b4"/><polygon points="447.5,-0.41379310344827047 452.5,4.5862068965517295 447.5,9.58620689655173 442.5,4.5862068965517295" fill="#dca100" stroke="black" stroke-width="0.5"/><circle cx="535.0" cy="107.41" r="2" fill="#1f77b4"/><polygon points="535.0,94.41379310344827 540.0,99.41379310344827 535.0,104.41379310344827 530.0,99.41379310344827" fill="#dca100" stroke="black" stroke-width="0.5"/><circle cx="622.5" cy="107.41" r="2" fill="#1f77b4"/><polygon points="622.5,94.41379310344827 627.5,99.41379310344827 622.5,104.41379310344827 617.5,99.41379310344827" fill="#dca100" stroke="black" stroke-width="0.5"/><circle cx="710.0" cy="83.71" r="2" fill="#1f77b4"/><polygon points="710.0,70.70689655172414 715.0,75.70689655172414 710.0,80.70689655172414 705.0,75.70689655172414" fill="#dca100" stroke="black" stroke-width="0.5"/><text x="716" y="12" font-size="9" text-anchor="end" fill="#1f77b4" font-family="sans-serif">rusage.default.user_s (lower=better)</text><polyline points="10.0,83.71 97.5,107.41 185.0,107.41 272.5,107.41 360.0,83.71 447.5,12.59 535.0,107.41 622.5,107.41 710.0,83.71" fill="none" stroke="#ff7f0e" stroke-width="1.2"/><circle cx="10.0" cy="83.71" r="2" fill="#ff7f0e"/><polygon points="10.0,70.70689655172414 5.0,80.70689655172414 15.0,80.70689655172414" fill="#2ca02c" stroke="black" stroke-width="0.5"/><circle cx="97.5" cy="107.41" r="2" fill="#ff7f0e"/><polygon points="97.5,94.41379310344827 102.5,99.41379310344827 97.5,104.41379310344827 92.5,99.41379310344827" fill="#dca100" stroke="black" stroke-width="0.5"/><circle cx="185.0" cy="107.41" r="2" fill="#ff7f0e"/><polygon points="185.0,94.41379310344827 190.0,99.41379310344827 185.0,104.41379310344827 180.0,99.41379310344827" fill="#dca100" stroke="black" stroke-width="0.5"/><circle cx="272.5" cy="107.41" r="2" fill="#ff7f0e"/><polygon points="272.5,94.41379310344827 277.5,99.41379310344827 272.5,104.41379310344827 267.5,99.41379310344827" fill="#dca100" stroke="black" stroke-width="0.5"/><circle cx="360.0" cy="83.71" r="2" fill="#ff7f0e"/><polygon points="360.0,70.70689655172414 365.0,75.70689655172414 360.0,80.70689655172414 355.0,75.70689655172414" fill="#dca100" stroke="black" stroke-width="0.5"/><circle cx="447.5" cy="12.59" r="2" fill="#ff7f0e"/><polygon points="447.5,-0.41379310344827047 452.5,4.5862068965517295 447.5,9.58620689655173 442.5,4.5862068965517295" fill="#dca100" stroke="black" stroke-width="0.5"/><circle cx="535.0" cy="107.41" r="2" fill="#ff7f0e"/><polygon points="535.0,94.41379310344827 540.0,99.41379310344827 535.0,104.41379310344827 530.0,99.41379310344827" fill="#dca100" stroke="black" stroke-width="0.5"/><circle cx="622.5" cy="107.41" r="2" fill="#ff7f0e"/><polygon points="622.5,94.41379310344827 627.5,99.41379310344827 622.5,104.41379310344827 617.5,99.41379310344827" fill="#dca100" stroke="black" stroke-width="0.5"/><circle cx="710.0" cy="83.71" r="2" fill="#ff7f0e"/><polygon points="710.0,70.70689655172414 715.0,75.70689655172414 710.0,80.70689655172414 705.0,75.70689655172414" fill="#dca100" stroke="black" stroke-width="0.5"/><text x="716" y="23" font-size="9" text-anchor="end" fill="#ff7f0e" font-family="sans-serif">rusage.user_s (lower=better)</text></g><g transform="translate(40,1408)"><rect x="0" y="0" width="720" height="120" fill="white" stroke="#888" stroke-width="0.5"/><text x="4" y="-4" font-size="11" font-family="sans-serif">wall_s</text><text x="2" y="10" font-size="8" fill="#444" font-family="sans-serif">0.0478</text><text x="2" y="118" font-size="8" fill="#444" font-family="sans-serif">0.0072</text><line x1="10.0" y1="0" x2="10.0" y2="120" stroke="#2ca02c" stroke-width="0.7" stroke-dasharray="3,2"/><polyline points="10.0,107.41 97.5,107.41 185.0,107.41 272.5,107.41 360.0,107.41 447.5,12.59 535.0,107.41 622.5,107.41 710.0,107.41" fill="none" stroke="#1f77b4" stroke-width="1.2"/><circle cx="10.0" cy="107.41" r="2" fill="#1f77b4"/><polygon points="10.0,94.41379310344827 5.0,104.41379310344827 15.0,104.41379310344827" fill="#2ca02c" stroke="black" stroke-width="0.5"/><circle cx="97.5" cy="107.41" r="2" fill="#1f77b4"/><polygon points="97.5,94.41379310344827 102.5,99.41379310344827 97.5,104.41379310344827 92.5,99.41379310344827" fill="#dca100" stroke="black" stroke-width="0.5"/><circle cx="185.0" cy="107.41" r="2" fill="#1f77b4"/><polygon points="185.0,94.41379310344827 190.0,99.41379310344827 185.0,104.41379310344827 180.0,99.41379310344827" fill="#dca100" stroke="black" stroke-width="0.5"/><circle cx="272.5" cy="107.41" r="2" fill="#1f77b4"/><polygon points="272.5,94.41379310344827 277.5,99.41379310344827 272.5,104.41379310344827 267.5,99.41379310344827" fill="#dca100" stroke="black" stroke-width="0.5"/><circle cx="360.0" cy="107.41" r="2" fill="#1f77b4"/><polygon points="360.0,94.41379310344827 365.0,99.41379310344827 360.0,104.41379310344827 355.0,99.41379310344827" fill="#dca100" stroke="black" stroke-width="0.5"/><circle cx="447.5" cy="12.59" r="2" fill="#1f77b4"/><polygon points="447.5,-0.4137931034482847 452.5,4.586206896551715 447.5,9.586206896551715 442.5,4.586206896551715" fill="#dca100" stroke="black" stroke-width="0.5"/><circle cx="535.0" cy="107.41" r="2" fill="#1f77b4"/><polygon points="535.0,94.41379310344827 540.0,99.41379310344827 535.0,104.41379310344827 530.0,99.41379310344827" fill="#dca100" stroke="black" stroke-width="0.5"/><circle cx="622.5" cy="107.41" r="2" fill="#1f77b4"/><polygon points="622.5,94.41379310344827 627.5,99.41379310344827 622.5,104.41379310344827 617.5,99.41379310344827" fill="#dca100" stroke="black" stroke-width="0.5"/><circle cx="710.0" cy="107.41" r="2" fill="#1f77b4"/><polygon points="710.0,94.41379310344827 715.0,99.41379310344827 710.0,104.41379310344827 705.0,99.41379310344827" fill="#dca100" stroke="black" stroke-width="0.5"/><text x="716" y="12" font-size="9" text-anchor="end" fill="#1f77b4" font-family="sans-serif">rusage.default.wall_s (lower=better)</text><polyline points="10.0,107.41 97.5,107.41 185.0,107.41 272.5,107.41 360.0,107.41 447.5,12.59 535.0,107.41 622.5,107.41 710.0,107.41" fill="none" stroke="#ff7f0e" stroke-width="1.2"/><circle cx="10.0" cy="107.41" r="2" fill="#ff7f0e"/><polygon points="10.0,94.41379310344827 5.0,104.41379310344827 15.0,104.41379310344827" fill="#2ca02c" stroke="black" stroke-width="0.5"/><circle cx="97.5" cy="107.41" r="2" fill="#ff7f0e"/><polygon points="97.5,94.41379310344827 102.5,99.41379310344827 97.5,104.41379310344827 92.5,99.41379310344827" fill="#dca100" stroke="black" stroke-width="0.5"/><circle cx="185.0" cy="107.41" r="2" fill="#ff7f0e"/><polygon points="185.0,94.41379310344827 190.0,99.41379310344827 185.0,104.41379310344827 180.0,99.41379310344827" fill="#dca100" stroke="black" stroke-width="0.5"/><circle cx="272.5" cy="107.41" r="2" fill="#ff7f0e"/><polygon points="272.5,94.41379310344827 277.5,99.41379310344827 272.5,104.41379310344827 267.5,99.41379310344827" fill="#dca100" stroke="black" stroke-width="0.5"/><circle cx="360.0" cy="107.41" r="2" fill="#ff7f0e"/><polygon points="360.0,94.41379310344827 365.0,99.41379310344827 360.0,104.41379310344827 355.0,99.41379310344827" fill="#dca100" stroke="black" stroke-width="0.5"/><circle cx="447.5" cy="12.59" r="2" fill="#ff7f0e"/><polygon points="447.5,-0.4137931034482847 452.5,4.586206896551715 447.5,9.586206896551715 442.5,4.586206896551715" fill="#dca100" stroke="black" stroke-width="0.5"/><circle cx="535.0" cy="107.41" r="2" fill="#ff7f0e"/><polygon points="535.0,94.41379310344827 540.0,99.41379310344827 535.0,104.41379310344827 530.0,99.41379310344827" fill="#dca100" stroke="black" stroke-width="0.5"/><circle cx="622.5" cy="107.41" r="2" fill="#ff7f0e"/><polygon points="622.5,94.41379310344827 627.5,99.41379310344827 622.5,104.41379310344827 617.5,99.41379310344827" fill="#dca100" stroke="black" stroke-width="0.5"/><circle cx="710.0" cy="107.41" r="2" fill="#ff7f0e"/><polygon points="710.0,94.41379310344827 715.0,99.41379310344827 710.0,104.41379310344827 705.0,99.41379310344827" fill="#dca100" stroke="black" stroke-width="0.5"/><text x="716" y="23" font-size="9" text-anchor="end" fill="#ff7f0e" font-family="sans-serif">rusage.wall_s (lower=better)</text></g><g transform="translate(40,1546)"><text x="10.0" y="10" font-size="8" fill="#2ca02c" text-anchor="middle" font-family="monospace" transform="rotate(45 10.0 10)">edca85f</text><text x="97.5" y="10" font-size="8" fill="#222" text-anchor="middle" font-family="monospace" transform="rotate(45 97.5 10)">90ce69c</text><text x="185.0" y="10" font-size="8" fill="#222" text-anchor="middle" font-family="monospace" transform="rotate(45 185.0 10)">90ce69c</text><text x="272.5" y="10" font-size="8" fill="#222" text-anchor="middle" font-family="monospace" transform="rotate(45 272.5 10)">1856b24</text><text x="360.0" y="10" font-size="8" fill="#222" text-anchor="middle" font-family="monospace" transform="rotate(45 360.0 10)">a166d07</text><text x="447.5" y="10" font-size="8" fill="#222" text-anchor="middle" font-family="monospace" transform="rotate(45 447.5 10)">a166d07</text><text x="535.0" y="10" font-size="8" fill="#222" text-anchor="middle" font-family="monospace" transform="rotate(45 535.0 10)">a166d07</text><text x="622.5" y="10" font-size="8" fill="#222" text-anchor="middle" font-family="monospace" transform="rotate(45 622.5 10)">a166d07</text><text x="710.0" y="10" font-size="8" fill="#222" text-anchor="middle" font-family="monospace" transform="rotate(45 710.0 10)">a166d07</text></g><g transform="translate(540,1582)"><text x="0" y="0" font-size="9" font-family="sans-serif">decisions:</text><polygon points="60,-9 55,1 65,1" fill="#2ca02c" stroke="black" stroke-width="0.5"/><text x="68" y="0" font-size="9" font-family="sans-serif">KEEP</text><polygon points="125,1 120,-9 130,-9" fill="#d62728" stroke="black" stroke-width="0.5"/><text x="133" y="0" font-size="9" font-family="sans-serif">DISCARD</text><polygon points="190,-9 195,-4 190,1 185,-4" fill="#dca100" stroke="black" stroke-width="0.5"/><text x="198" y="0" font-size="9" font-family="sans-serif">ESCALATE</text></g></svg>
