<?xml version="1.0" encoding="UTF-8"?>
<svg xmlns="http://www.w3.org/2000/svg" version="1.1" width="780" height="1596" viewBox="0 0 780 1596"><text x="40" y="18" font-size="13" font-family="sans-serif" font-weight="bold">benchmarkserversave -- local/local (amd-ryzen-9-7950x3d-16-core-processor, amd64, n=7)</text><g transform="translate(40,28)"><rect x="0" y="0" width="720" height="120" fill="white" stroke="#888" stroke-width="0.5"/><text x="4" y="-4" font-size="11" font-family="sans-serif">cpu_percent</text><text x="2" y="10" font-size="8" fill="#444" font-family="sans-serif">110</text><text x="2" y="118" font-size="8" fill="#444" font-family="sans-serif">-8</text><line x1="0" y1="23.64" x2="720" y2="23.64" stroke="#d62728" stroke-width="0.7" stroke-dasharray="4,3" opacity="0.7"/><text x="716" y="21.64" font-size="8" fill="#d62728" text-anchor="end" font-family="sans-serif">90% saturation</text><line x1="10.0" y1="0" x2="10.0" y2="120" stroke="#2ca02c" stroke-width="0.7" stroke-dasharray="3,2"/><polyline points="10.0,60.93 126.7,60.93 243.3,68.70 360.0,14.32 476.7,37.63 593.3,60.93 710.0,107.54" fill="none" stroke="#1f77b4" stroke-width="1.2"/><circle cx="10.0" cy="60.93" r="2" fill="#1f77b4"/><circle cx="126.7" cy="60.93" r="2" fill="#1f77b4"/><polygon points="126.66666666666666,47.932203389830505 121.66666666666666,57.932203389830505 131.66666666666666,57.932203389830505" fill="#2ca02c" stroke="black" stroke-width="0.5"/><circle cx="243.3" cy="68.70" r="2" fill="#1f77b4"/><polygon points="243.33333333333331,55.700564971751405 248.33333333333331,60.700564971751405 243.33333333333331,65.7005649717514 238.33333333333331,60.700564971751405" fill="#dca100" stroke="black" stroke-width="0.5"/><circle cx="360.0" cy="14.32" r="5" fill="none" stroke="#d62728" stroke-width="1.5"/><circle cx="360.0" cy="14.32" r="2" fill="#1f77b4"/><circle cx="476.7" cy="37.63" r="2" fill="#1f77b4"/><polygon points="476.66666666666663,24.627118644067792 481.66666666666663,29.627118644067792 476.66666666666663,34.62711864406779 471.66666666666663,29.627118644067792" fill="#dca100" stroke="black" stroke-width="0.5"/><circle cx="593.3" cy="60.93" r="2" fill="#1f77b4"/><polygon points="593.3333333333334,47.932203389830505 598.3333333333334,52.932203389830505 593.3333333333334,57.932203389830505 588.3333333333334,52.932203389830505" fill="#dca100" stroke="black" stroke-width="0.5"/><circle cx="710.0" cy="107.54" r="2" fill="#1f77b4"/><polygon points="710.0,94.54237288135593 715.0,99.54237288135593 710.0,104.54237288135593 705.0,99.54237288135593" fill="#dca100" stroke="black" stroke-width="0.5"/><text x="716" y="12" font-size="9" text-anchor="end" fill="#1f77b4" font-family="sans-serif">rusage.cpu_percent (lower=better)</text><polyline points="10.0,60.93 126.7,60.93 243.3,68.70 360.0,14.32 476.7,37.63 593.3,60.93 710.0,107.54" fill="none" stroke="#ff7f0e" stroke-width="1.2"/><circle cx="10.0" cy="60.93" r="2" fill="#ff7f0e"/><circle cx="126.7" cy="60.93" r="2" fill="#ff7f0e"/><polygon points="126.66666666666666,47.932203389830505 121.66666666666666,57.932203389830505 131.66666666666666,57.932203389830505" fill="#2ca02c" stroke="black" stroke-width="0.5"/><circle cx="243.3" cy="68.70" r="2" fill="#ff7f0e"/><polygon points="243.33333333333331,55.700564971751405 248.33333333333331,60.700564971751405 243.33333333333331,65.7005649717514 238.33333333333331,60.700564971751405" fill="#dca100" stroke="black" stroke-width="0.5"/><circle cx="360.0" cy="14.32" r="5" fill="none" stroke="#d62728" stroke-width="1.5"/><circle cx="360.0" cy="14.32" r="2" fill="#ff7f0e"/><circle cx="476.7" cy="37.63" r="2" fill="#ff7f0e"/><polygon points="476.66666666666663,24.627118644067792 481.66666666666663,29.627118644067792 476.66666666666663,34.62711864406779 471.66666666666663,29.627118644067792" fill="#dca100" stroke="black" stroke-width="0.5"/><circle cx="593.3" cy="60.93" r="2" fill="#ff7f0e"/><polygon points="593.3333333333334,47.932203389830505 598.3333333333334,52.932203389830505 593.3333333333334,57.932203389830505 588.3333333333334,52.932203389830505" fill="#dca100" stroke="black" stroke-width="0.5"/><circle cx="710.0" cy="107.54" r="2" fill="#ff7f0e"/><polygon points="710.0,94.54237288135593 715.0,99.54237288135593 710.0,104.54237288135593 705.0,99.54237288135593" fill="#dca100" stroke="black" stroke-width="0.5"/><text x="716" y="23" font-size="9" text-anchor="end" fill="#ff7f0e" font-family="sans-serif">rusage.default.cpu_percent (lower=better)</text></g><g transform="translate(40,166)"><rect x="0" y="0" width="720" height="120" fill="white" stroke="#888" stroke-width="0.5"/><text x="4" y="-4" font-size="11" font-family="sans-serif">binary_size_bytes</text><text x="2" y="10" font-size="8" fill="#444" font-family="sans-serif">3.17e+06</text><text x="2" y="118" font-size="8" fill="#444" font-family="sans-serif">3.17e+06</text><line x1="10.0" y1="0" x2="10.0" y2="120" stroke="#2ca02c" stroke-width="0.7" stroke-dasharray="3,2"/><polyline points="10.0,60.00 126.7,60.00 243.3,60.00 360.0,60.00 476.7,60.00 593.3,60.00 710.0,60.00" fill="none" stroke="#1f77b4" stroke-width="1.2"/><circle cx="10.0" cy="60.00" r="2" fill="#1f77b4"/><circle cx="126.7" cy="60.00" r="2" fill="#1f77b4"/><polygon points="126.66666666666666,47.0 121.66666666666666,57.0 131.66666666666666,57.0" fill="#2ca02c" stroke="black" stroke-width="0.5"/><circle cx="243.3" cy="60.00" r="2" fill="#1f77b4"/><polygon points="243.33333333333331,47.0 248.33333333333331,52.0 243.33333333333331,57.0 238.33333333333331,52.0" fill="#dca100" stroke="black" stroke-width="0.5"/><circle cx="360.0" cy="60.00" r="2" fill="#1f77b4"/><circle cx="476.7" cy="60.00" r="2" fill="#1f77b4"/><polygon points="476.66666666666663,47.0 481.66666666666663,52.0 476.66666666666663,57.0 471.66666666666663,52.0" fill="#dca100" stroke="black" stroke-width="0.5"/><circle cx="593.3" cy="60.00" r="2" fill="#1f77b4"/><polygon points="593.3333333333334,47.0 598.3333333333334,52.0 593.3333333333334,57.0 588.3333333333334,52.0" fill="#dca100" stroke="black" stroke-width="0.5"/><circle cx="710.0" cy="60.00" r="2" fill="#1f77b4"/><polygon points="710.0,47.0 715.0,52.0 710.0,57.0 705.0,52.0" fill="#dca100" stroke="black" stroke-width="0.5"/><text x="716" y="12" font-size="9" text-anchor="end" fill="#1f77b4" font-family="sans-serif">binary-size.binary_size_bytes (lower=better)</text></g><g transform="translate(40,304)"><rect x="0" y="0" width="720" height="120" fill="white" stroke="#888" stroke-width="0.5"/><text x="4" y="-4" font-size="11" font-family="sans-serif">cache_bytes</text><text x="2" y="10" font-size="8" fill="#444" font-family="sans-serif">5.13e+04</text><text x="2" y="118" font-size="8" fill="#444" font-family="sans-serif">5.12e+04</text><line x1="10.0" y1="0" x2="10.0" y2="120" stroke="#2ca02c" stroke-width="0.7" stroke-dasharray="3,2"/><polyline points="10.0,61.16 126.7,29.55 243.3,107.41 360.0,64.24 476.7,12.59 593.3,68.10 710.0,71.18" fill="none" stroke="#1f77b4" stroke-width="1.2"/><circle cx="10.0" cy="61.16" r="2" fill="#1f77b4"/><circle cx="126.7" cy="29.55" r="2" fill="#1f77b4"/><polygon points="126.66666666666666,16.547238575832537 121.66666666666666,26.547238575832537 131.66666666666666,26.547238575832537" fill="#2ca02c" stroke="black" stroke-width="0.5"/><circle cx="243.3" cy="107.41" r="2" fill="#1f77b4"/><polygon points="243.33333333333331,94.4137931034506 248.33333333333331,99.4137931034506 243.33333333333331,104.4137931034506 238.33333333333331,99.4137931034506" fill="#dca100" stroke="black" stroke-width="0.5"/><circle cx="360.0" cy="64.24" r="2" fill="#1f77b4"/><circle cx="476.7" cy="12.59" r="2" fill="#1f77b4"/><polygon points="476.66666666666663,-0.41379310345058684 481.66666666666663,4.586206896549413 476.66666666666663,9.586206896549413 471.66666666666663,4.586206896549413" fill="#dca100" stroke="black" stroke-width="0.5"/><circle cx="593.3" cy="68.10" r="2" fill="#1f77b4"/><polygon points="593.3333333333334,55.09503784693058 598.3333333333334,60.09503784693058 593.3333333333334,65.09503784693058 588.3333333333334,60.09503784693058" fill="#dca100" stroke="black" stroke-width="0.5"/><circle cx="710.0" cy="71.18" r="2" fill="#1f77b4"/><polygon points="710.0,58.178861788618434 715.0,63.178861788618434 710.0,68.17886178861843 705.0,63.178861788618434" fill="#dca100" stroke="black" stroke-width="0.5"/><text x="716" y="12" font-size="9" text-anchor="end" fill="#1f77b4" font-family="sans-serif">rusage.cache_bytes (lower=better)</text><polyline points="10.0,61.16 126.7,29.55 243.3,107.41 360.0,64.24 476.7,12.59 593.3,68.10 710.0,71.18" fill="none" stroke="#ff7f0e" stroke-width="1.2"/><circle cx="10.0" cy="61.16" r="2" fill="#ff7f0e"/><circle cx="126.7" cy="29.55" r="2" fill="#ff7f0e"/><polygon points="126.66666666666666,16.547238575832537 121.66666666666666,26.547238575832537 131.66666666666666,26.547238575832537" fill="#2ca02c" stroke="black" stroke-width="0.5"/><circle cx="243.3" cy="107.41" r="2" fill="#ff7f0e"/><polygon points="243.33333333333331,94.4137931034506 248.33333333333331,99.4137931034506 243.33333333333331,104.4137931034506 238.33333333333331,99.4137931034506" fill="#dca100" stroke="black" stroke-width="0.5"/><circle cx="360.0" cy="64.24" r="2" fill="#ff7f0e"/><circle cx="476.7" cy="12.59" r="2" fill="#ff7f0e"/><polygon points="476.66666666666663,-0.41379310345058684 481.66666666666663,4.586206896549413 476.66666666666663,9.586206896549413 471.66666666666663,4.586206896549413" fill="#dca100" stroke="black" stroke-width="0.5"/><circle cx="593.3" cy="68.10" r="2" fill="#ff7f0e"/><polygon points="593.3333333333334,55.09503784693058 598.3333333333334,60.09503784693058 593.3333333333334,65.09503784693058 588.3333333333334,60.09503784693058" fill="#dca100" stroke="black" stroke-width="0.5"/><circle cx="710.0" cy="71.18" r="2" fill="#ff7f0e"/><polygon points="710.0,58.178861788618434 715.0,63.178861788618434 710.0,68.17886178861843 705.0,63.178861788618434" fill="#dca100" stroke="black" stroke-width="0.5"/><text x="716" y="23" font-size="9" text-anchor="end" fill="#ff7f0e" font-family="sans-serif">rusage.default.cache_bytes (lower=better)</text></g><g transform="translate(40,442)"><rect x="0" y="0" width="720" height="120" fill="white" stroke="#888" stroke-width="0.5"/><text x="4" y="-4" font-size="11" font-family="sans-serif">max_rss_kb</text><text x="2" y="10" font-size="8" fill="#444" font-family="sans-serif">8.51e+03</text><text x="2" y="118" font-size="8" fill="#444" font-family="sans-serif">8.02e+03</text><line x1="10.0" y1="0" x2="10.0" y2="120" stroke="#2ca02c" stroke-width="0.7" stroke-dasharray="3,2"/><polyline points="10.0,54.83 126.7,75.06 243.3,20.23 360.0,86.29 476.7,12.59 593.3,17.53 710.0,107.41" fill="none" stroke="#1f77b4" stroke-width="1.2"/><circle cx="10.0" cy="54.83" r="2" fill="#1f77b4"/><circle cx="126.7" cy="75.06" r="2" fill="#1f77b4"/><polygon points="126.66666666666666,62.05556463474423 121.66666666666666,72.05556463474423 131.66666666666666,72.05556463474423" fill="#2ca02c" stroke="black" stroke-width="0.5"/><circle cx="243.3" cy="20.23" r="2" fill="#1f77b4"/><polygon points="243.33333333333331,7.226344173884655 248.33333333333331,12.226344173884655 243.33333333333331,17.226344173884655 238.33333333333331,12.226344173884655" fill="#dca100" stroke="black" stroke-width="0.5"/><circle cx="360.0" cy="86.29" r="2" fill="#1f77b4"/><circle cx="476.7" cy="12.59" r="2" fill="#1f77b4"/><polygon points="476.66666666666663,-0.41379310344824205 481.66666666666663,4.586206896551758 476.66666666666663,9.586206896551758 471.66666666666663,4.586206896551758" fill="#dca100" stroke="black" stroke-width="0.5"/><circle cx="593.3" cy="17.53" r="2" fill="#1f77b4"/><polygon points="593.3333333333334,4.529825134825984 598.3333333333334,9.529825134825984 593.3333333333334,14.529825134825984 588.3333333333334,9.529825134825984" fill="#dca100" stroke="black" stroke-width="0.5"/><circle cx="710.0" cy="107.41" r="2" fill="#1f77b4"/><polygon points="710.0,94.41379310344823 715.0,99.41379310344823 710.0,104.41379310344823 705.0,99.41379310344823" fill="#dca100" stroke="black" stroke-width="0.5"/><text x="716" y="12" font-size="9" text-anchor="end" fill="#1f77b4" font-family="sans-serif">rusage.default.max_rss_kb (lower=better)</text><polyline points="10.0,54.83 126.7,75.06 243.3,20.23 360.0,86.29 476.7,12.59 593.3,17.53 710.0,107.41" fill="none" stroke="#ff7f0e" stroke-width="1.2"/><circle cx="10.0" cy="54.83" r="2" fill="#ff7f0e"/><circle cx="126.7" cy="75.06" r="2" fill="#ff7f0e"/><polygon points="126.66666666666666,62.05556463474423 121.66666666666666,72.05556463474423 131.66666666666666,72.05556463474423" fill="#2ca02c" stroke="black" stroke-width="0.5"/><circle cx="243.3" cy="20.23" r="2" fill="#ff7f0e"/><polygon points="243.33333333333331,7.226344173884655 248.33333333333331,12.226344173884655 243.33333333333331,17.226344173884655 238.33333333333331,12.226344173884655" fill="#dca100" stroke="black" stroke-width="0.5"/><circle cx="360.0" cy="86.29" r="2" fill="#ff7f0e"/><circle cx="476.7" cy="12.59" r="2" fill="#ff7f0e"/><polygon points="476.66666666666663,-0.41379310344824205 481.66666666666663,4.586206896551758 476.66666666666663,9.586206896551758 471.66666666666663,4.586206896551758" fill="#dca100" stroke="black" stroke-width="0.5"/><circle cx="593.3" cy="17.53" r="2" fill="#ff7f0e"/><polygon points="593.3333333333334,4.529825134825984 598.3333333333334,9.529825134825984 593.3333333333334,14.529825134825984 588.3333333333334,9.529825134825984" fill="#dca100" stroke="black" stroke-width="0.5"/><circle cx="710.0" cy="107.41" r="2" fill="#ff7f0e"/><polygon points="710.0,94.41379310344823 715.0,99.41379310344823 710.0,104.41379310344823 705.0,99.41379310344823" fill="#dca100" stroke="black" stroke-width="0.5"/><text x="716" y="23" font-size="9" text-anchor="end" fill="#ff7f0e" font-family="sans-serif">rusage.max_rss_kb (lower=better)</text></g><g transform="translate(40,580)"><rect x="0" y="0" width="720" height="120" fill="white" stroke="#888" stroke-width="0.5"/><text x="4" y="-4" font-size="11" font-family="sans-serif">perf_branch-misses:u</text><text x="2" y="10" font-size="8" fill="#444" font-family="sans-serif">1.93e+05</text><text x="2" y="118" font-size="8" fill="#444" font-family="sans-serif">1.59e+05</text><line x1="10.0" y1="0" x2="10.0" y2="120" stroke="#2ca02c" stroke-width="0.7" stroke-dasharray="3,2"/><polyline points="10.0,107.41 126.7,107.31 243.3,22.32 360.0,91.56 476.7,19.65 593.3,12.59 710.0,95.65" fill="none" stroke="#1f77b4" stroke-width="1.2"/><circle cx="10.0" cy="107.41" r="2" fill="#1f77b4"/><circle cx="126.7" cy="107.31" r="2" fill="#1f77b4"/><polygon points="126.66666666666666,94.30825855789223 121.66666666666666,104.30825855789223 131.66666666666666,104.30825855789223" fill="#2ca02c" stroke="black" stroke-width="0.5"/><circle cx="243.3" cy="22.32" r="2" fill="#1f77b4"/><polygon points="243.33333333333331,9.317771203431064 248.33333333333331,14.317771203431064 243.33333333333331,19.317771203431064 238.33333333333331,14.317771203431064" fill="#dca100" stroke="black" stroke-width="0.5"/><circle cx="360.0" cy="91.56" r="2" fill="#1f77b4"/><circle cx="476.7" cy="19.65" r="2" fill="#1f77b4"/><polygon points="476.66666666666663,6.647427399210159 481.66666666666663,11.647427399210159 476.66666666666663,16.64742739921016 471.66666666666663,11.647427399210159" fill="#dca100" stroke="black" stroke-width="0.5"/><circle cx="593.3" cy="12.59" r="2" fill="#1f77b4"/><polygon points="593.3333333333334,-0.41379310344825626 598.3333333333334,4.586206896551744 593.3333333333334,9.586206896551744 588.3333333333334,4.586206896551744" fill="#dca100" stroke="black" stroke-width="0.5"/><circle cx="710.0" cy="95.65" r="2" fill="#1f77b4"/><polygon points="710.0,82.64509226568423 715.0,87.64509226568423 710.0,92.64509226568423 705.0,87.64509226568423" fill="#dca100" stroke="black" stroke-width="0.5"/><text x="716" y="12" font-size="9" text-anchor="end" fill="#1f77b4" font-family="sans-serif">perf-stat.perf_branch-misses:u (lower=better)</text></g><g transform="translate(40,718)"><rect x="0" y="0" width="720" height="120" fill="white" stroke="#888" stroke-width="0.5"/><text x="4" y="-4" font-size="11" font-family="sans-serif">perf_cache-misses:u</text><text x="2" y="10" font-size="8" fill="#444" font-family="sans-serif">1.72e+05</text><text x="2" y="118" font-size="8" fill="#444" font-family="sans-serif">6.15e+04</text><line x1="10.0" y1="0" x2="10.0" y2="120" stroke="#2ca02c" stroke-width="0.7" stroke-dasharray="3,2"/><polyline points="10.0,107.41 126.7,107.25 243.3,40.14 360.0,96.64 476.7,12.59 593.3,16.71 710.0,92.50" fill="none" stroke="#1f77b4" stroke-width="1.2"/><circle cx="10.0" cy="107.41" r="2" fill="#1f77b4"/><circle cx="126.7" cy="107.25" r="2" fill="#1f77b4"/><polygon points="126.66666666666666,94.24593190939565 121.66666666666666,104.24593190939565 131.66666666666666,104.24593190939565" fill="#2ca02c" stroke="black" stroke-width="0.5"/><circle cx="243.3" cy="40.14" r="2" fill="#1f77b4"/><polygon points="243.33333333333331,27.143419586857988 248.33333333333331,32.14341958685799 243.33333333333331,37.14341958685799 238.33333333333331,32.14341958685799" fill="#dca100" stroke="black" stroke-width="0.5"/><circle cx="360.0" cy="96.64" r="2" fill="#1f77b4"/><circle cx="476.7" cy="12.59" r="2" fill="#1f77b4"/><polygon points="476.66666666666663,-0.41379310344827047 481.66666666666663,4.5862068965517295 476.66666666666663,9.58620689655173 471.66666666666663,4.5862068965517295" fill="#dca100" stroke="black" stroke-width="0.5"/><circle cx="593.3" cy="16.71" r="2" fill="#1f77b4"/><polygon points="593.3333333333334,3.705800367259954 598.3333333333334,8.705800367259954 593.3333333333334,13.705800367259954 588.3333333333334,8.705800367259954" fill="#dca100" stroke="black" stroke-width="0.5"/><circle cx="710.0" cy="92.50" r="2" fill="#1f77b4"/><polygon points="710.0,79.50412204598815 715.0,84.50412204598815 710.0,89.50412204598815 705.0,84.50412204598815" fill="#dca100" stroke="black" stroke-width="0.5"/><text x="716" y="12" font-size="9" text-anchor="end" fill="#1f77b4" font-family="sans-serif">perf-stat.perf_cache-misses:u (lower=better)</text></g><g transform="translate(40,856)"><rect x="0" y="0" width="720" height="120" fill="white" stroke="#888" stroke-width="0.5"/><text x="4" y="-4" font-size="11" font-family="sans-serif">perf_cycles:u</text><text x="2" y="10" font-size="8" fill="#444" font-family="sans-serif">3.6e+07</text><text x="2" y="118" font-size="8" fill="#444" font-family="sans-serif">2.11e+07</text><line x1="10.0" y1="0" x2="10.0" y2="120" stroke="#2ca02c" stroke-width="0.7" stroke-dasharray="3,2"/><polyline points="10.0,98.82 126.7,98.28 243.3,14.77 360.0,107.41 476.7,12.59 593.3,13.93 710.0,102.46" fill="none" stroke="#1f77b4" stroke-width="1.2"/><circle cx="10.0" cy="98.82" r="2" fill="#1f77b4"/><circle cx="126.7" cy="98.28" r="2" fill="#1f77b4"/><polygon points="126.66666666666666,85.27843991446625 121.66666666666666,95.27843991446625 131.66666666666666,95.27843991446625" fill="#2ca02c" stroke="black" stroke-width="0.5"/><circle cx="243.3" cy="14.77" r="2" fill="#1f77b4"/><polygon points="243.33333333333331,1.7678045458605425 248.33333333333331,6.7678045458605425 243.33333333333331,11.767804545860542 238.33333333333331,6.7678045458605425" fill="#dca100" stroke="black" stroke-width="0.5"/><circle cx="360.0" cy="107.41" r="2" fill="#1f77b4"/><circle cx="476.7" cy="12.59" r="2" fill="#1f77b4"/><polygon points="476.66666666666663,-0.4137931034482847 481.66666666666663,4.586206896551715 476.66666666666663,9.586206896551715 471.66666666666663,4.586206896551715" fill="#dca100" stroke="black" stroke-width="0.5"/><circle cx="593.3" cy="13.93" r="2" fill="#1f77b4"/><polygon points="593.3333333333334,0.9329828197721781 598.3333333333334,5.932982819772178 593.3333333333334,10.932982819772178 588.3333333333334,5.932982819772178" fill="#dca100" stroke="black" stroke-width="0.5"/><circle cx="710.0" cy="102.46" r="2" fill="#1f77b4"/><polygon points="710.0,89.45955011876761 715.0,94.45955011876761 710.0,99.45955011876761 705.0,94.45955011876761" fill="#dca100" stroke="black" stroke-width="0.5"/><text x="716" y="12" font-size="9" text-anchor="end" fill="#1f77b4" font-family="sans-serif">perf-stat.perf_cycles:u (lower=better)</text></g><g transform="translate(40,994)"><rect x="0" y="0" width="720" height="120" fill="white" stroke="#888" stroke-width="0.5"/><text x="4" y="-4" font-size="11" font-family="sans-serif">perf_instructions:u</text><text x="2" y="10" font-size="8" fill="#444" font-family="sans-serif">4.97e+07</text><text x="2" y="118" font-size="8" fill="#444" font-family="sans-serif">4.96e+07</text><line x1="10.0" y1="0" x2="10.0" y2="120" stroke="#2ca02c" stroke-width="0.7" stroke-dasharray="3,2"/><polyline points="10.0,52.38 126.7,84.99 243.3,107.41 360.0,90.12 476.7,85.07 593.3,12.59 710.0,65.26" fill="none" stroke="#1f77b4" stroke-width="1.2"/><circle cx="10.0" cy="52.38" r="2" fill="#1f77b4"/><circle cx="126.7" cy="84.99" r="2" fill="#1f77b4"/><polygon points="126.66666666666666,71.99029285705842 121.66666666666666,81.99029285705842 131.66666666666666,81.99029285705842" fill="#2ca02c" stroke="black" stroke-width="0.5"/><circle cx="243.3" cy="107.41" r="2" fill="#1f77b4"/><polygon points="243.33333333333331,94.41379310349048 248.33333333333331,99.41379310349048 243.33333333333331,104.41379310349048 238.33333333333331,99.41379310349048" fill="#dca100" stroke="black" stroke-width="0.5"/><circle cx="360.0" cy="90.12" r="2" fill="#1f77b4"/><circle cx="476.7" cy="85.07" r="2" fill="#1f77b4"/><polygon points="476.66666666666663,72.07243022059848 481.66666666666663,77.07243022059848 476.66666666666663,82.07243022059848 471.66666666666663,77.07243022059848" fill="#dca100" stroke="black" stroke-width="0.5"/><circle cx="593.3" cy="12.59" r="2" fill="#1f77b4"/><polygon points="593.3333333333334,-0.4137931034904767 598.3333333333334,4.586206896509523 593.3333333333334,9.586206896509523 588.3333333333334,4.586206896509523" fill="#dca100" stroke="black" stroke-width="0.5"/><circle cx="710.0" cy="65.26" r="2" fill="#1f77b4"/><polygon points="710.0,52.263636046857826 715.0,57.263636046857826 710.0,62.263636046857826 705.0,57.263636046857826" fill="#dca100" stroke="black" stroke-width="0.5"/><text x="716" y="12" font-size="9" text-anchor="end" fill="#1f77b4" font-family="sans-serif">perf-stat.perf_instructions:u (lower=better)</text></g><g transform="translate(40,1132)"><rect x="0" y="0" width="720" height="120" fill="white" stroke="#888" stroke-width="0.5"/><text x="4" y="-4" font-size="11" font-family="sans-serif">sys_s</text><text x="2" y="10" font-size="8" fill="#444" font-family="sans-serif">0.0108</text><text x="2" y="118" font-size="8" fill="#444" font-family="sans-serif">-0.0008</text><line x1="10.0" y1="0" x2="10.0" y2="120" stroke="#2ca02c" stroke-width="0.7" stroke-dasharray="3,2"/><polyline points="10.0,107.41 126.7,107.41 243.3,60.00 360.0,60.00 476.7,12.59 593.3,12.59 710.0,107.41" fill="none" stroke="#1f77b4" stroke-width="1.2"/><circle cx="10.0" cy="107.41" r="2" fill="#1f77b4"/><circle cx="126.7" cy="107.41" r="2" fill="#1f77b4"/><polygon points="126.66666666666666,94.41379310344827 121.66666666666666,104.41379310344827 131.66666666666666,104.41379310344827" fill="#2ca02c" stroke="black" stroke-width="0.5"/><circle cx="243.3" cy="60.00" r="2" fill="#1f77b4"/><polygon points="243.33333333333331,47.0 248.33333333333331,52.0 243.33333333333331,57.0 238.33333333333331,52.0" fill="#dca100" stroke="black" stroke-width="0.5"/><circle cx="360.0" cy="60.00" r="2" fill="#1f77b4"/><circle cx="476.7" cy="12.59" r="2" fill="#1f77b4"/><polygon points="476.66666666666663,-0.41379310344827047 481.66666666666663,4.5862068965517295 476.66666666666663,9.58620689655173 471.66666666666663,4.5862068965517295" fill="#dca100" stroke="black" stroke-width="0.5"/><circle cx="593.3" cy="12.59" r="2" fill="#1f77b4"/><polygon points="593.3333333333334,-0.41379310344827047 598.3333333333334,4.5862068965517295 593.3333333333334,9.58620689655173 588.3333333333334,4.5862068965517295" fill="#dca100" stroke="black" stroke-width="0.5"/><circle cx="710.0" cy="107.41" r="2" fill="#1f77b4"/><polygon points="710.0,94.41379310344827 715.0,99.41379310344827 710.0,104.41379310344827 705.0,99.41379310344827" fill="#dca100" stroke="black" stroke-width="0.5"/><text x="716" y="12" font-size="9" text-anchor="end" fill="#1f77b4" font-family="sans-serif">rusage.default.sys_s (lower=better)</text><polyline points="10.0,107.41 126.7,107.41 243.3,60.00 360.0,60.00 476.7,12.59 593.3,12.59 710.0,107.41" fill="none" stroke="#ff7f0e" stroke-width="1.2"/><circle cx="10.0" cy="107.41" r="2" fill="#ff7f0e"/><circle cx="126.7" cy="107.41" r="2" fill="#ff7f0e"/><polygon points="126.66666666666666,94.41379310344827 121.66666666666666,104.41379310344827 131.66666666666666,104.41379310344827" fill="#2ca02c" stroke="black" stroke-width="0.5"/><circle cx="243.3" cy="60.00" r="2" fill="#ff7f0e"/><polygon points="243.33333333333331,47.0 248.33333333333331,52.0 243.33333333333331,57.0 238.33333333333331,52.0" fill="#dca100" stroke="black" stroke-width="0.5"/><circle cx="360.0" cy="60.00" r="2" fill="#ff7f0e"/><circle cx="476.7" cy="12.59" r="2" fill="#ff7f0e"/><polygon points="476.66666666666663,-0.41379310344827047 481.66666666666663,4.5862068965517295 476.66666666666663,9.58620689655173 471.66666666666663,4.5862068965517295" fill="#dca100" stroke="black" stroke-width="0.5"/><circle cx="593.3" cy="12.59" r="2" fill="#ff7f0e"/><polygon points="593.3333333333334,-0.41379310344827047 598.3333333333334,4.5862068965517295 593.3333333333334,9.58620689655173 588.3333333333334,4.5862068965517295" fill="#dca100" stroke="black" stroke-width="0.5"/><circle cx="710.0" cy="107.41" r="2" fill="#ff7f0e"/><polygon points="710.0,94.41379310344827 715.0,99.41379310344827 710.0,104.41379310344827 705.0,99.41379310344827" fill="#dca100" stroke="black" stroke-width="0.5"/><text x="716" y="23" font-size="9" text-anchor="end" fill="#ff7f0e" font-family="sans-serif">rusage.sys_s (lower=better)</text></g><g transform="translate(40,1270)"><rect x="0" y="0" width="720" height="120" fill="white" stroke="#888" stroke-width="0.5"/><text x="4" y="-4" font-size="11" font-family="sans-serif">user_s</text><text x="2" y="10" font-size="8" fill="#444" font-family="sans-serif">0.0108</text><text x="2" y="118" font-size="8" fill="#444" font-family="sans-serif">-0.0008</text><line x1="10.0" y1="0" x2="10.0" y2="120" stroke="#2ca02c" stroke-width="0.7" stroke-dasharray="3,2"/><polyline points="10.0,107.41 126.7,107.41 243.3,12.59 360.0,60.00 476.7,12.59 593.3,107.41 710.0,107.41" fill="none" stroke="#1f77b4" stroke-width="1.2"/><circle cx="10.0" cy="107.41" r="2" fill="#1f77b4"/><circle cx="126.7" cy="107.41" r="2" fill="#1f77b4"/><polygon points="126.66666666666666,94.41379310344827 121.66666666666666,104.41379310344827 131.66666666666666,104.41379310344827" fill="#2ca02c" stroke="black" stroke-width="0.5"/><circle cx="243.3" cy="12.59" r="2" fill="#1f77b4"/><polygon points="243.33333333333331,-0.41379310344827047 248.33333333333331,4.5862068965517295 243.33333333333331,9.58620689655173 238.33333333333331,4.5862068965517295" fill="#dca100" stroke="black" stroke-width="0.5"/><circle cx="360.0" cy="60.00" r="2" fill="#1f77b4"/><circle cx="476.7" cy="12.59" r="2" fill="#1f77b4"/><polygon points="476.66666666666663,-0.41379310344827047 481.66666666666663,4.5862068965517295 476.66666666666663,9.58620689655173 471.66666666666663,4.5862068965517295" fill="#dca100" stroke="black" stroke-width="0.5"/><circle cx="593.3" cy="107.41" r="2" fill="#1f77b4"/><polygon points="593.3333333333334,94.41379310344827 598.3333333333334,99.41379310344827 593.3333333333334,104.41379310344827 588.3333333333334,99.41379310344827" fill="#dca100" stroke="black" stroke-width="0.5"/><circle cx="710.0" cy="107.41" r="2" fill="#1f77b4"/><polygon points="710.0,94.41379310344827 715.0,99.41379310344827 710.0,104.41379310344827 705.0,99.41379310344827" fill="#dca100" stroke="black" stroke-width="0.5"/><text x="716" y="12" font-size="9" text-anchor="end" fill="#1f77b4" font-family="sans-serif">rusage.default.user_s (lower=better)</text><polyline points="10.0,107.41 126.7,107.41 243.3,12.59 360.0,60.00 476.7,12.59 593.3,107.41 710.0,107.41" fill="none" stroke="#ff7f0e" stroke-width="1.2"/><circle cx="10.0" cy="107.41" r="2" fill="#ff7f0e"/><circle cx="126.7" cy="107.41" r="2" fill="#ff7f0e"/><polygon points="126.66666666666666,94.41379310344827 121.66666666666666,104.41379310344827 131.66666666666666,104.41379310344827" fill="#2ca02c" stroke="black" stroke-width="0.5"/><circle cx="243.3" cy="12.59" r="2" fill="#ff7f0e"/><polygon points="243.33333333333331,-0.41379310344827047 248.33333333333331,4.5862068965517295 243.33333333333331,9.58620689655173 238.33333333333331,4.5862068965517295" fill="#dca100" stroke="black" stroke-width="0.5"/><circle cx="360.0" cy="60.00" r="2" fill="#ff7f0e"/><circle cx="476.7" cy="12.59" r="2" fill="#ff7f0e"/><polygon points="476.66666666666663,-0.41379310344827047 481.66666666666663,4.5862068965517295 476.66666666666663,9.58620689655173 471.66666666666663,4.5862068965517295" fill="#dca100" stroke="black" stroke-width="0.5"/><circle cx="593.3" cy="107.41" r="2" fill="#ff7f0e"/><polygon points="593.3333333333334,94.41379310344827 598.3333333333334,99.41379310344827 593.3333333333334,104.41379310344827 588.3333333333334,99.41379310344827" fill="#dca100" stroke="black" stroke-width="0.5"/><circle cx="710.0" cy="107.41" r="2" fill="#ff7f0e"/><polygon points="710.0,94.41379310344827 715.0,99.41379310344827 710.0,104.41379310344827 705.0,99.41379310344827" fill="#dca100" stroke="black" stroke-width="0.5"/><text x="716" y="23" font-size="9" text-anchor="end" fill="#ff7f0e" font-family="sans-serif">rusage.user_s (lower=better)</text></g><g transform="translate(40,1408)"><rect x="0" y="0" width="720" height="120" fill="white" stroke="#888" stroke-width="0.5"/><text x="4" y="-4" font-size="11" font-family="sans-serif">wall_s</text><text x="2" y="10" font-size="8" fill="#444" font-family="sans-serif">0.0262</text><text x="2" y="118" font-size="8" fill="#444" font-family="sans-serif">0.0088</text><line x1="10.0" y1="0" x2="10.0" y2="120" stroke="#2ca02c" stroke-width="0.7" stroke-dasharray="3,2"/><polyline points="10.0,107.41 126.7,107.41 243.3,12.59 360.0,107.41 476.7,44.20 593.3,44.20 710.0,107.41" fill="none" stroke="#1f77b4" stroke-width="1.2"/><circle cx="10.0" cy="107.41" r="2" fill="#1f77b4"/><circle cx="126.7" cy="107.41" r="2" fill="#1f77b4"/><polygon points="126.66666666666666,94.41379310344828 121.66666666666666,104.41379310344828 131.66666666666666,104.41379310344828" fill="#2ca02c" stroke="black" stroke-width="0.5"/><circle cx="243.3" cy="12.59" r="2" fill="#1f77b4"/><polygon points="243.33333333333331,-0.41379310344827047 248.33333333333331,4.5862068965517295 243.33333333333331,9.58620689655173 238.33333333333331,4.5862068965517295" fill="#dca100" stroke="black" stroke-width="0.5"/><circle cx="360.0" cy="107.41" r="2" fill="#1f77b4"/><circle cx="476.7" cy="44.20" r="2" fill="#1f77b4"/><polygon points="476.66666666666663,31.19540229885058 481.66666666666663,36.19540229885058 476.66666666666663,41.19540229885058 471.66666666666663,36.19540229885058" fill="#dca100" stroke="black" stroke-width="0.5"/><circle cx="593.3" cy="44.20" r="2" fill="#1f77b4"/><polygon points="593.3333333333334,31.19540229885058 598.3333333333334,36.19540229885058 593.3333333333334,41.19540229885058 588.3333333333334,36.19540229885058" fill="#dca100" stroke="black" stroke-width="0.5"/><circle cx="710.0" cy="107.41" r="2" fill="#1f77b4"/><polygon points="710.0,94.41379310344828 715.0,99.41379310344828 710.0,104.41379310344828 705.0,99.41379310344828" fill="#dca100" stroke="black" stroke-width="0.5"/><text x="716" y="12" font-size="9" text-anchor="end" fill="#1f77b4" font-family="sans-serif">rusage.default.wall_s (lower=better)</text><polyline points="10.0,107.41 126.7,107.41 243.3,12.59 360.0,107.41 476.7,44.20 593.3,44.20 710.0,107.41" fill="none" stroke="#ff7f0e" stroke-width="1.2"/><circle cx="10.0" cy="107.41" r="2" fill="#ff7f0e"/><circle cx="126.7" cy="107.41" r="2" fill="#ff7f0e"/><polygon points="126.66666666666666,94.41379310344828 121.66666666666666,104.41379310344828 131.66666666666666,104.41379310344828" fill="#2ca02c" stroke="black" stroke-width="0.5"/><circle cx="243.3" cy="12.59" r="2" fill="#ff7f0e"/><polygon points="243.33333333333331,-0.41379310344827047 248.33333333333331,4.5862068965517295 243.33333333333331,9.58620689655173 238.33333333333331,4.5862068965517295" fill="#dca100" stroke="black" stroke-width="0.5"/><circle cx="360.0" cy="107.41" r="2" fill="#ff7f0e"/><circle cx="476.7" cy="44.20" r="2" fill="#ff7f0e"/><polygon points="476.66666666666663,31.19540229885058 481.66666666666663,36.19540229885058 476.66666666666663,41.19540229885058 471.66666666666663,36.19540229885058" fill="#dca100" stroke="black" stroke-width="0.5"/><circle cx="593.3" cy="44.20" r="2" fill="#ff7f0e"/><polygon points="593.3333333333334,31.19540229885058 598.3333333333334,36.19540229885058 593.3333333333334,41.19540229885058 588.3333333333334,36.19540229885058" fill="#dca100" stroke="black" stroke-width="0.5"/><circle cx="710.0" cy="107.41" r="2" fill="#ff7f0e"/><polygon points="710.0,94.41379310344828 715.0,99.41379310344828 710.0,104.41379310344828 705.0,99.41379310344828" fill="#dca100" stroke="black" stroke-width="0.5"/><text x="716" y="23" font-size="9" text-anchor="end" fill="#ff7f0e" font-family="sans-serif">rusage.wall_s (lower=better)</text></g><g transform="translate(40,1546)"><text x="10.0" y="10" font-size="8" fill="#2ca02c" text-anchor="middle" font-family="monospace" transform="rotate(45 10.0 10)">3d5154e</text><text x="126.7" y="10" font-size="8" fill="#222" text-anchor="middle" font-family="monospace" transform="rotate(45 126.7 10)">3d5154e</text><text x="243.3" y="10" font-size="8" fill="#222" text-anchor="middle" font-family="monospace" transform="rotate(45 243.3 10)">3d5154e</text><text x="360.0" y="10" font-size="8" fill="#222" text-anchor="middle" font-family="monospace" transform="rotate(45 360.0 10)">3d5154e</text><text x="476.7" y="10" font-size="8" fill="#222" text-anchor="middle" font-family="monospace" transform="rotate(45 476.7 10)">3d5154e</text><text x="593.3" y="10" font-size="8" fill="#222" text-anchor="middle" font-family="monospace" transform="rotate(45 593.3 10)">3d5154e</text><text x="710.0" y="10" font-size="8" fill="#222" text-anchor="middle" font-family="monospace" transform="rotate(45 710.0 10)">3d5154e</text></g><g transform="translate(540,1582)"><text x="0" y="0" font-size="9" font-family="sans-serif">decisions:</text><polygon points="60,-9 55,1 65,1" fill="#2ca02c" stroke="black" stroke-width="0.5"/><text x="68" y="0" font-size="9" font-family="sans-serif">KEEP</text><polygon points="125,1 120,-9 130,-9" fill="#d62728" stroke="black" stroke-width="0.5"/><text x="133" y="0" font-size="9" font-family="sans-serif">DISCARD</text><polygon points="190,-9 195,-4 190,1 185,-4" fill="#dca100" stroke="black" stroke-width="0.5"/><text x="198" y="0" font-size="9" font-family="sans-serif">ESCALATE</text></g></svg>
