<?xml version="1.0" encoding="UTF-8"?>
<svg xmlns="http://www.w3.org/2000/svg" version="1.1" width="780" height="5184" viewBox="0 0 780 5184"><text x="40" y="18" font-size="13" font-family="sans-serif" font-weight="bold">benchmarkmapmanager -- lxc-geode/geode (unknown-cpu, i686, n=4)</text><g transform="translate(40,28)"><rect x="0" y="0" width="720" height="120" fill="white" stroke="#888" stroke-width="0.5"/><text x="4" y="-4" font-size="11" font-family="sans-serif">binary_size_bytes</text><text x="2" y="10" font-size="8" fill="#444" font-family="sans-serif">1.45e+06</text><text x="2" y="118" font-size="8" fill="#444" font-family="sans-serif">1.45e+06</text><line x1="10.0" y1="0" x2="10.0" y2="120" stroke="#2ca02c" stroke-width="0.7" stroke-dasharray="3,2"/><polyline points="710.0,60.00" fill="none" stroke="#1f77b4" stroke-width="1.2"/><circle cx="710.0" cy="60.00" r="2" fill="#1f77b4"/><polygon points="710.0,47.0 715.0,52.0 710.0,57.0 705.0,52.0" fill="#dca100" stroke="black" stroke-width="0.5"/><text x="716" y="12" font-size="9" text-anchor="end" fill="#1f77b4" font-family="sans-serif">binary-size.binary_size_bytes (lower=better)</text></g><g transform="translate(40,166)"><rect x="0" y="0" width="720" height="120" fill="white" stroke="#888" stroke-width="0.5"/><text x="4" y="-4" font-size="11" font-family="sans-serif">p100_bytes_sent</text><text x="2" y="10" font-size="8" fill="#444" font-family="sans-serif">3.84e+05</text><text x="2" y="118" font-size="8" fill="#444" font-family="sans-serif">3.84e+05</text><line x1="10.0" y1="0" x2="10.0" y2="120" stroke="#2ca02c" stroke-width="0.7" stroke-dasharray="3,2"/><polyline points="710.0,60.00" fill="none" stroke="#1f77b4" stroke-width="1.2"/><circle cx="710.0" cy="60.00" r="2" fill="#1f77b4"/><polygon points="710.0,47.0 715.0,52.0 710.0,57.0 705.0,52.0" fill="#dca100" stroke="black" stroke-width="0.5"/><text x="716" y="12" font-size="9" text-anchor="end" fill="#1f77b4" font-family="sans-serif">rusage.p100_bytes_sent (lower=better)</text></g><g transform="translate(40,304)"><rect x="0" y="0" width="720" height="120" fill="white" stroke="#888" stroke-width="0.5"/><text x="4" y="-4" font-size="11" font-family="sans-serif">p100_median_tick_ns</text><text x="2" y="10" font-size="8" fill="#444" font-family="sans-serif">2.25e+08</text><text x="2" y="118" font-size="8" fill="#444" font-family="sans-serif">2.25e+08</text><line x1="10.0" y1="0" x2="10.0" y2="120" stroke="#2ca02c" stroke-width="0.7" stroke-dasharray="3,2"/><polyline points="710.0,60.00" fill="none" stroke="#1f77b4" stroke-width="1.2"/><circle cx="710.0" cy="60.00" r="2" fill="#1f77b4"/><polygon points="710.0,47.0 715.0,52.0 710.0,57.0 705.0,52.0" fill="#dca100" stroke="black" stroke-width="0.5"/><text x="716" y="12" font-size="9" text-anchor="end" fill="#1f77b4" font-family="sans-serif">rusage.p100_median_tick_ns (lower=better)</text></g><g transform="translate(40,442)"><rect x="0" y="0" width="720" height="120" fill="white" stroke="#888" stroke-width="0.5"/><text x="4" y="-4" font-size="11" font-family="sans-serif">p100_p95_tick_ns</text><text x="2" y="10" font-size="8" fill="#444" font-family="sans-serif">2.26e+08</text><text x="2" y="118" font-size="8" fill="#444" font-family="sans-serif">2.26e+08</text><line x1="10.0" y1="0" x2="10.0" y2="120" stroke="#2ca02c" stroke-width="0.7" stroke-dasharray="3,2"/><polyline points="710.0,60.00" fill="none" stroke="#1f77b4" stroke-width="1.2"/><circle cx="710.0" cy="60.00" r="2" fill="#1f77b4"/><polygon points="710.0,47.0 715.0,52.0 710.0,57.0 705.0,52.0" fill="#dca100" stroke="black" stroke-width="0.5"/><text x="716" y="12" font-size="9" text-anchor="end" fill="#1f77b4" font-family="sans-serif">rusage.p100_p95_tick_ns (lower=better)</text></g><g transform="translate(40,580)"><rect x="0" y="0" width="720" height="120" fill="white" stroke="#888" stroke-width="0.5"/><text x="4" y="-4" font-size="11" font-family="sans-serif">p100_ticks</text><text x="2" y="10" font-size="8" fill="#444" font-family="sans-serif">11.2</text><text x="2" y="118" font-size="8" fill="#444" font-family="sans-serif">8.84</text><line x1="10.0" y1="0" x2="10.0" y2="120" stroke="#2ca02c" stroke-width="0.7" stroke-dasharray="3,2"/><polyline points="710.0,60.00" fill="none" stroke="#1f77b4" stroke-width="1.2"/><circle cx="710.0" cy="60.00" r="2" fill="#1f77b4"/><polygon points="710.0,47.0 715.0,52.0 710.0,57.0 705.0,52.0" fill="#dca100" stroke="black" stroke-width="0.5"/><text x="716" y="12" font-size="9" text-anchor="end" fill="#1f77b4" font-family="sans-serif">rusage.p100_ticks (higher=better)</text></g><g transform="translate(40,718)"><rect x="0" y="0" width="720" height="120" fill="white" stroke="#888" stroke-width="0.5"/><text x="4" y="-4" font-size="11" font-family="sans-serif">p100_ticks_per_s</text><text x="2" y="10" font-size="8" fill="#444" font-family="sans-serif">5.82</text><text x="2" y="118" font-size="8" fill="#444" font-family="sans-serif">3.5</text><line x1="10.0" y1="0" x2="10.0" y2="120" stroke="#2ca02c" stroke-width="0.7" stroke-dasharray="3,2"/><polyline points="710.0,60.00" fill="none" stroke="#1f77b4" stroke-width="1.2"/><circle cx="710.0" cy="60.00" r="2" fill="#1f77b4"/><polygon points="710.0,47.0 715.0,52.0 710.0,57.0 705.0,52.0" fill="#dca100" stroke="black" stroke-width="0.5"/><text x="716" y="12" font-size="9" text-anchor="end" fill="#1f77b4" font-family="sans-serif">rusage.p100_ticks_per_s (higher=better)</text></g><g transform="translate(40,856)"><rect x="0" y="0" width="720" height="120" fill="white" stroke="#888" stroke-width="0.5"/><text x="4" y="-4" font-size="11" font-family="sans-serif">p10_bytes_sent</text><text x="2" y="10" font-size="8" fill="#444" font-family="sans-serif">3.72e+05</text><text x="2" y="118" font-size="8" fill="#444" font-family="sans-serif">3.72e+05</text><line x1="10.0" y1="0" x2="10.0" y2="120" stroke="#2ca02c" stroke-width="0.7" stroke-dasharray="3,2"/><polyline points="710.0,60.00" fill="none" stroke="#1f77b4" stroke-width="1.2"/><circle cx="710.0" cy="60.00" r="2" fill="#1f77b4"/><polygon points="710.0,47.0 715.0,52.0 710.0,57.0 705.0,52.0" fill="#dca100" stroke="black" stroke-width="0.5"/><text x="716" y="12" font-size="9" text-anchor="end" fill="#1f77b4" font-family="sans-serif">rusage.p10_bytes_sent (lower=better)</text></g><g transform="translate(40,994)"><rect x="0" y="0" width="720" height="120" fill="white" stroke="#888" stroke-width="0.5"/><text x="4" y="-4" font-size="11" font-family="sans-serif">p10_median_tick_ns</text><text x="2" y="10" font-size="8" fill="#444" font-family="sans-serif">2.39e+06</text><text x="2" y="118" font-size="8" fill="#444" font-family="sans-serif">2.39e+06</text><line x1="10.0" y1="0" x2="10.0" y2="120" stroke="#2ca02c" stroke-width="0.7" stroke-dasharray="3,2"/><polyline points="710.0,60.00" fill="none" stroke="#1f77b4" stroke-width="1.2"/><circle cx="710.0" cy="60.00" r="2" fill="#1f77b4"/><polygon points="710.0,47.0 715.0,52.0 710.0,57.0 705.0,52.0" fill="#dca100" stroke="black" stroke-width="0.5"/><text x="716" y="12" font-size="9" text-anchor="end" fill="#1f77b4" font-family="sans-serif">rusage.p10_median_tick_ns (lower=better)</text></g><g transform="translate(40,1132)"><rect x="0" y="0" width="720" height="120" fill="white" stroke="#888" stroke-width="0.5"/><text x="4" y="-4" font-size="11" font-family="sans-serif">p10_p95_tick_ns</text><text x="2" y="10" font-size="8" fill="#444" font-family="sans-serif">2.64e+06</text><text x="2" y="118" font-size="8" fill="#444" font-family="sans-serif">2.64e+06</text><line x1="10.0" y1="0" x2="10.0" y2="120" stroke="#2ca02c" stroke-width="0.7" stroke-dasharray="3,2"/><polyline points="710.0,60.00" fill="none" stroke="#1f77b4" stroke-width="1.2"/><circle cx="710.0" cy="60.00" r="2" fill="#1f77b4"/><polygon points="710.0,47.0 715.0,52.0 710.0,57.0 705.0,52.0" fill="#dca100" stroke="black" stroke-width="0.5"/><text x="716" y="12" font-size="9" text-anchor="end" fill="#1f77b4" font-family="sans-serif">rusage.p10_p95_tick_ns (lower=better)</text></g><g transform="translate(40,1270)"><rect x="0" y="0" width="720" height="120" fill="white" stroke="#888" stroke-width="0.5"/><text x="4" y="-4" font-size="11" font-family="sans-serif">p10_ticks</text><text x="2" y="10" font-size="8" fill="#444" font-family="sans-serif">987</text><text x="2" y="118" font-size="8" fill="#444" font-family="sans-serif">985</text><line x1="10.0" y1="0" x2="10.0" y2="120" stroke="#2ca02c" stroke-width="0.7" stroke-dasharray="3,2"/><polyline points="710.0,60.00" fill="none" stroke="#1f77b4" stroke-width="1.2"/><circle cx="710.0" cy="60.00" r="2" fill="#1f77b4"/><polygon points="710.0,47.0 715.0,52.0 710.0,57.0 705.0,52.0" fill="#dca100" stroke="black" stroke-width="0.5"/><text x="716" y="12" font-size="9" text-anchor="end" fill="#1f77b4" font-family="sans-serif">rusage.p10_ticks (higher=better)</text></g><g transform="translate(40,1408)"><rect x="0" y="0" width="720" height="120" fill="white" stroke="#888" stroke-width="0.5"/><text x="4" y="-4" font-size="11" font-family="sans-serif">p10_ticks_per_s</text><text x="2" y="10" font-size="8" fill="#444" font-family="sans-serif">494</text><text x="2" y="118" font-size="8" fill="#444" font-family="sans-serif">492</text><line x1="10.0" y1="0" x2="10.0" y2="120" stroke="#2ca02c" stroke-width="0.7" stroke-dasharray="3,2"/><polyline points="710.0,60.00" fill="none" stroke="#1f77b4" stroke-width="1.2"/><circle cx="710.0" cy="60.00" r="2" fill="#1f77b4"/><polygon points="710.0,47.0 715.0,52.0 710.0,57.0 705.0,52.0" fill="#dca100" stroke="black" stroke-width="0.5"/><text x="716" y="12" font-size="9" text-anchor="end" fill="#1f77b4" font-family="sans-serif">rusage.p10_ticks_per_s (higher=better)</text></g><g transform="translate(40,1546)"><rect x="0" y="0" width="720" height="120" fill="white" stroke="#888" stroke-width="0.5"/><text x="4" y="-4" font-size="11" font-family="sans-serif">p200_bytes_sent</text><text x="2" y="10" font-size="8" fill="#444" font-family="sans-serif">5.64e+05</text><text x="2" y="118" font-size="8" fill="#444" font-family="sans-serif">5.64e+05</text><line x1="10.0" y1="0" x2="10.0" y2="120" stroke="#2ca02c" stroke-width="0.7" stroke-dasharray="3,2"/><polyline points="710.0,60.00" fill="none" stroke="#1f77b4" stroke-width="1.2"/><circle cx="710.0" cy="60.00" r="2" fill="#1f77b4"/><polygon points="710.0,47.0 715.0,52.0 710.0,57.0 705.0,52.0" fill="#dca100" stroke="black" stroke-width="0.5"/><text x="716" y="12" font-size="9" text-anchor="end" fill="#1f77b4" font-family="sans-serif">rusage.p200_bytes_sent (lower=better)</text></g><g transform="translate(40,1684)"><rect x="0" y="0" width="720" height="120" fill="white" stroke="#888" stroke-width="0.5"/><text x="4" y="-4" font-size="11" font-family="sans-serif">p200_median_tick_ns</text><text x="2" y="10" font-size="8" fill="#444" font-family="sans-serif">1.16</text><text x="2" y="118" font-size="8" fill="#444" font-family="sans-serif">-1.16</text><line x1="10.0" y1="0" x2="10.0" y2="120" stroke="#2ca02c" stroke-width="0.7" stroke-dasharray="3,2"/><polyline points="710.0,60.00" fill="none" stroke="#1f77b4" stroke-width="1.2"/><circle cx="710.0" cy="60.00" r="2" fill="#1f77b4"/><polygon points="710.0,47.0 715.0,52.0 710.0,57.0 705.0,52.0" fill="#dca100" stroke="black" stroke-width="0.5"/><text x="716" y="12" font-size="9" text-anchor="end" fill="#1f77b4" font-family="sans-serif">rusage.p200_median_tick_ns (lower=better)</text></g><g transform="translate(40,1822)"><rect x="0" y="0" width="720" height="120" fill="white" stroke="#888" stroke-width="0.5"/><text x="4" y="-4" font-size="11" font-family="sans-serif">p200_p95_tick_ns</text><text x="2" y="10" font-size="8" fill="#444" font-family="sans-serif">1.16</text><text x="2" y="118" font-size="8" fill="#444" font-family="sans-serif">-1.16</text><line x1="10.0" y1="0" x2="10.0" y2="120" stroke="#2ca02c" stroke-width="0.7" stroke-dasharray="3,2"/><polyline points="710.0,60.00" fill="none" stroke="#1f77b4" stroke-width="1.2"/><circle cx="710.0" cy="60.00" r="2" fill="#1f77b4"/><polygon points="710.0,47.0 715.0,52.0 710.0,57.0 705.0,52.0" fill="#dca100" stroke="black" stroke-width="0.5"/><text x="716" y="12" font-size="9" text-anchor="end" fill="#1f77b4" font-family="sans-serif">rusage.p200_p95_tick_ns (lower=better)</text></g><g transform="translate(40,1960)"><rect x="0" y="0" width="720" height="120" fill="white" stroke="#888" stroke-width="0.5"/><text x="4" y="-4" font-size="11" font-family="sans-serif">p200_ticks</text><text x="2" y="10" font-size="8" fill="#444" font-family="sans-serif">5.16</text><text x="2" y="118" font-size="8" fill="#444" font-family="sans-serif">2.84</text><line x1="10.0" y1="0" x2="10.0" y2="120" stroke="#2ca02c" stroke-width="0.7" stroke-dasharray="3,2"/><polyline points="710.0,60.00" fill="none" stroke="#1f77b4" stroke-width="1.2"/><circle cx="710.0" cy="60.00" r="2" fill="#1f77b4"/><polygon points="710.0,47.0 715.0,52.0 710.0,57.0 705.0,52.0" fill="#dca100" stroke="black" stroke-width="0.5"/><text x="716" y="12" font-size="9" text-anchor="end" fill="#1f77b4" font-family="sans-serif">rusage.p200_ticks (higher=better)</text></g><g transform="translate(40,2098)"><rect x="0" y="0" width="720" height="120" fill="white" stroke="#888" stroke-width="0.5"/><text x="4" y="-4" font-size="11" font-family="sans-serif">p200_ticks_per_s</text><text x="2" y="10" font-size="8" fill="#444" font-family="sans-serif">2.43</text><text x="2" y="118" font-size="8" fill="#444" font-family="sans-serif">0.105</text><line x1="10.0" y1="0" x2="10.0" y2="120" stroke="#2ca02c" stroke-width="0.7" stroke-dasharray="3,2"/><polyline points="710.0,60.00" fill="none" stroke="#1f77b4" stroke-width="1.2"/><circle cx="710.0" cy="60.00" r="2" fill="#1f77b4"/><polygon points="710.0,47.0 715.0,52.0 710.0,57.0 705.0,52.0" fill="#dca100" stroke="black" stroke-width="0.5"/><text x="716" y="12" font-size="9" text-anchor="end" fill="#1f77b4" font-family="sans-serif">rusage.p200_ticks_per_s (higher=better)</text></g><g transform="translate(40,2236)"><rect x="0" y="0" width="720" height="120" fill="white" stroke="#888" stroke-width="0.5"/><text x="4" y="-4" font-size="11" font-family="sans-serif">p20_bytes_sent</text><text x="2" y="10" font-size="8" fill="#444" font-family="sans-serif">3.69e+05</text><text x="2" y="118" font-size="8" fill="#444" font-family="sans-serif">3.69e+05</text><line x1="10.0" y1="0" x2="10.0" y2="120" stroke="#2ca02c" stroke-width="0.7" stroke-dasharray="3,2"/><polyline points="710.0,60.00" fill="none" stroke="#1f77b4" stroke-width="1.2"/><circle cx="710.0" cy="60.00" r="2" fill="#1f77b4"/><polygon points="710.0,47.0 715.0,52.0 710.0,57.0 705.0,52.0" fill="#dca100" stroke="black" stroke-width="0.5"/><text x="716" y="12" font-size="9" text-anchor="end" fill="#1f77b4" font-family="sans-serif">rusage.p20_bytes_sent (lower=better)</text></g><g transform="translate(40,2374)"><rect x="0" y="0" width="720" height="120" fill="white" stroke="#888" stroke-width="0.5"/><text x="4" y="-4" font-size="11" font-family="sans-serif">p20_median_tick_ns</text><text x="2" y="10" font-size="8" fill="#444" font-family="sans-serif">9.27e+06</text><text x="2" y="118" font-size="8" fill="#444" font-family="sans-serif">9.27e+06</text><line x1="10.0" y1="0" x2="10.0" y2="120" stroke="#2ca02c" stroke-width="0.7" stroke-dasharray="3,2"/><polyline points="710.0,60.00" fill="none" stroke="#1f77b4" stroke-width="1.2"/><circle cx="710.0" cy="60.00" r="2" fill="#1f77b4"/><polygon points="710.0,47.0 715.0,52.0 710.0,57.0 705.0,52.0" fill="#dca100" stroke="black" stroke-width="0.5"/><text x="716" y="12" font-size="9" text-anchor="end" fill="#1f77b4" font-family="sans-serif">rusage.p20_median_tick_ns (lower=better)</text></g><g transform="translate(40,2512)"><rect x="0" y="0" width="720" height="120" fill="white" stroke="#888" stroke-width="0.5"/><text x="4" y="-4" font-size="11" font-family="sans-serif">p20_p95_tick_ns</text><text x="2" y="10" font-size="8" fill="#444" font-family="sans-serif">9.69e+06</text><text x="2" y="118" font-size="8" fill="#444" font-family="sans-serif">9.69e+06</text><line x1="10.0" y1="0" x2="10.0" y2="120" stroke="#2ca02c" stroke-width="0.7" stroke-dasharray="3,2"/><polyline points="710.0,60.00" fill="none" stroke="#1f77b4" stroke-width="1.2"/><circle cx="710.0" cy="60.00" r="2" fill="#1f77b4"/><polygon points="710.0,47.0 715.0,52.0 710.0,57.0 705.0,52.0" fill="#dca100" stroke="black" stroke-width="0.5"/><text x="716" y="12" font-size="9" text-anchor="end" fill="#1f77b4" font-family="sans-serif">rusage.p20_p95_tick_ns (lower=better)</text></g><g transform="translate(40,2650)"><rect x="0" y="0" width="720" height="120" fill="white" stroke="#888" stroke-width="0.5"/><text x="4" y="-4" font-size="11" font-family="sans-serif">p20_ticks</text><text x="2" y="10" font-size="8" fill="#444" font-family="sans-serif">241</text><text x="2" y="118" font-size="8" fill="#444" font-family="sans-serif">239</text><line x1="10.0" y1="0" x2="10.0" y2="120" stroke="#2ca02c" stroke-width="0.7" stroke-dasharray="3,2"/><polyline points="710.0,60.00" fill="none" stroke="#1f77b4" stroke-width="1.2"/><circle cx="710.0" cy="60.00" r="2" fill="#1f77b4"/><polygon points="710.0,47.0 715.0,52.0 710.0,57.0 705.0,52.0" fill="#dca100" stroke="black" stroke-width="0.5"/><text x="716" y="12" font-size="9" text-anchor="end" fill="#1f77b4" font-family="sans-serif">rusage.p20_ticks (higher=better)</text></g><g transform="translate(40,2788)"><rect x="0" y="0" width="720" height="120" fill="white" stroke="#888" stroke-width="0.5"/><text x="4" y="-4" font-size="11" font-family="sans-serif">p20_ticks_per_s</text><text x="2" y="10" font-size="8" fill="#444" font-family="sans-serif">121</text><text x="2" y="118" font-size="8" fill="#444" font-family="sans-serif">119</text><line x1="10.0" y1="0" x2="10.0" y2="120" stroke="#2ca02c" stroke-width="0.7" stroke-dasharray="3,2"/><polyline points="710.0,60.00" fill="none" stroke="#1f77b4" stroke-width="1.2"/><circle cx="710.0" cy="60.00" r="2" fill="#1f77b4"/><polygon points="710.0,47.0 715.0,52.0 710.0,57.0 705.0,52.0" fill="#dca100" stroke="black" stroke-width="0.5"/><text x="716" y="12" font-size="9" text-anchor="end" fill="#1f77b4" font-family="sans-serif">rusage.p20_ticks_per_s (higher=better)</text></g><g transform="translate(40,2926)"><rect x="0" y="0" width="720" height="120" fill="white" stroke="#888" stroke-width="0.5"/><text x="4" y="-4" font-size="11" font-family="sans-serif">p300_bytes_sent</text><text x="2" y="10" font-size="8" fill="#444" font-family="sans-serif">1.08e+06</text><text x="2" y="118" font-size="8" fill="#444" font-family="sans-serif">1.08e+06</text><line x1="10.0" y1="0" x2="10.0" y2="120" stroke="#2ca02c" stroke-width="0.7" stroke-dasharray="3,2"/><polyline points="710.0,60.00" fill="none" stroke="#1f77b4" stroke-width="1.2"/><circle cx="710.0" cy="60.00" r="2" fill="#1f77b4"/><polygon points="710.0,47.0 715.0,52.0 710.0,57.0 705.0,52.0" fill="#dca100" stroke="black" stroke-width="0.5"/><text x="716" y="12" font-size="9" text-anchor="end" fill="#1f77b4" font-family="sans-serif">rusage.p300_bytes_sent (lower=better)</text></g><g transform="translate(40,3064)"><rect x="0" y="0" width="720" height="120" fill="white" stroke="#888" stroke-width="0.5"/><text x="4" y="-4" font-size="11" font-family="sans-serif">p300_median_tick_ns</text><text x="2" y="10" font-size="8" fill="#444" font-family="sans-serif">1.16</text><text x="2" y="118" font-size="8" fill="#444" font-family="sans-serif">-1.16</text><line x1="10.0" y1="0" x2="10.0" y2="120" stroke="#2ca02c" stroke-width="0.7" stroke-dasharray="3,2"/><polyline points="710.0,60.00" fill="none" stroke="#1f77b4" stroke-width="1.2"/><circle cx="710.0" cy="60.00" r="2" fill="#1f77b4"/><polygon points="710.0,47.0 715.0,52.0 710.0,57.0 705.0,52.0" fill="#dca100" stroke="black" stroke-width="0.5"/><text x="716" y="12" font-size="9" text-anchor="end" fill="#1f77b4" font-family="sans-serif">rusage.p300_median_tick_ns (lower=better)</text></g><g transform="translate(40,3202)"><rect x="0" y="0" width="720" height="120" fill="white" stroke="#888" stroke-width="0.5"/><text x="4" y="-4" font-size="11" font-family="sans-serif">p300_p95_tick_ns</text><text x="2" y="10" font-size="8" fill="#444" font-family="sans-serif">1.16</text><text x="2" y="118" font-size="8" fill="#444" font-family="sans-serif">-1.16</text><line x1="10.0" y1="0" x2="10.0" y2="120" stroke="#2ca02c" stroke-width="0.7" stroke-dasharray="3,2"/><polyline points="710.0,60.00" fill="none" stroke="#1f77b4" stroke-width="1.2"/><circle cx="710.0" cy="60.00" r="2" fill="#1f77b4"/><polygon points="710.0,47.0 715.0,52.0 710.0,57.0 705.0,52.0" fill="#dca100" stroke="black" stroke-width="0.5"/><text x="716" y="12" font-size="9" text-anchor="end" fill="#1f77b4" font-family="sans-serif">rusage.p300_p95_tick_ns (lower=better)</text></g><g transform="translate(40,3340)"><rect x="0" y="0" width="720" height="120" fill="white" stroke="#888" stroke-width="0.5"/><text x="4" y="-4" font-size="11" font-family="sans-serif">p300_ticks</text><text x="2" y="10" font-size="8" fill="#444" font-family="sans-serif">5.16</text><text x="2" y="118" font-size="8" fill="#444" font-family="sans-serif">2.84</text><line x1="10.0" y1="0" x2="10.0" y2="120" stroke="#2ca02c" stroke-width="0.7" stroke-dasharray="3,2"/><polyline points="710.0,60.00" fill="none" stroke="#1f77b4" stroke-width="1.2"/><circle cx="710.0" cy="60.00" r="2" fill="#1f77b4"/><polygon points="710.0,47.0 715.0,52.0 710.0,57.0 705.0,52.0" fill="#dca100" stroke="black" stroke-width="0.5"/><text x="716" y="12" font-size="9" text-anchor="end" fill="#1f77b4" font-family="sans-serif">rusage.p300_ticks (higher=better)</text></g><g transform="translate(40,3478)"><rect x="0" y="0" width="720" height="120" fill="white" stroke="#888" stroke-width="0.5"/><text x="4" y="-4" font-size="11" font-family="sans-serif">p300_ticks_per_s</text><text x="2" y="10" font-size="8" fill="#444" font-family="sans-serif">1.82</text><text x="2" y="118" font-size="8" fill="#444" font-family="sans-serif">-0.499</text><line x1="10.0" y1="0" x2="10.0" y2="120" stroke="#2ca02c" stroke-width="0.7" stroke-dasharray="3,2"/><polyline points="710.0,60.00" fill="none" stroke="#1f77b4" stroke-width="1.2"/><circle cx="710.0" cy="60.00" r="2" fill="#1f77b4"/><polygon points="710.0,46.999999999999986 715.0,51.999999999999986 710.0,56.999999999999986 705.0,51.999999999999986" fill="#dca100" stroke="black" stroke-width="0.5"/><text x="716" y="12" font-size="9" text-anchor="end" fill="#1f77b4" font-family="sans-serif">rusage.p300_ticks_per_s (higher=better)</text></g><g transform="translate(40,3616)"><rect x="0" y="0" width="720" height="120" fill="white" stroke="#888" stroke-width="0.5"/><text x="4" y="-4" font-size="11" font-family="sans-serif">p50_bytes_sent</text><text x="2" y="10" font-size="8" fill="#444" font-family="sans-serif">3.62e+05</text><text x="2" y="118" font-size="8" fill="#444" font-family="sans-serif">3.62e+05</text><line x1="10.0" y1="0" x2="10.0" y2="120" stroke="#2ca02c" stroke-width="0.7" stroke-dasharray="3,2"/><polyline points="710.0,60.00" fill="none" stroke="#1f77b4" stroke-width="1.2"/><circle cx="710.0" cy="60.00" r="2" fill="#1f77b4"/><polygon points="710.0,47.0 715.0,52.0 710.0,57.0 705.0,52.0" fill="#dca100" stroke="black" stroke-width="0.5"/><text x="716" y="12" font-size="9" text-anchor="end" fill="#1f77b4" font-family="sans-serif">rusage.p50_bytes_sent (lower=better)</text></g><g transform="translate(40,3754)"><rect x="0" y="0" width="720" height="120" fill="white" stroke="#888" stroke-width="0.5"/><text x="4" y="-4" font-size="11" font-family="sans-serif">p50_median_tick_ns</text><text x="2" y="10" font-size="8" fill="#444" font-family="sans-serif">5.67e+07</text><text x="2" y="118" font-size="8" fill="#444" font-family="sans-serif">5.67e+07</text><line x1="10.0" y1="0" x2="10.0" y2="120" stroke="#2ca02c" stroke-width="0.7" stroke-dasharray="3,2"/><polyline points="710.0,60.00" fill="none" stroke="#1f77b4" stroke-width="1.2"/><circle cx="710.0" cy="60.00" r="2" fill="#1f77b4"/><polygon points="710.0,47.0 715.0,52.0 710.0,57.0 705.0,52.0" fill="#dca100" stroke="black" stroke-width="0.5"/><text x="716" y="12" font-size="9" text-anchor="end" fill="#1f77b4" font-family="sans-serif">rusage.p50_median_tick_ns (lower=better)</text></g><g transform="translate(40,3892)"><rect x="0" y="0" width="720" height="120" fill="white" stroke="#888" stroke-width="0.5"/><text x="4" y="-4" font-size="11" font-family="sans-serif">p50_p95_tick_ns</text><text x="2" y="10" font-size="8" fill="#444" font-family="sans-serif">5.73e+07</text><text x="2" y="118" font-size="8" fill="#444" font-family="sans-serif">5.73e+07</text><line x1="10.0" y1="0" x2="10.0" y2="120" stroke="#2ca02c" stroke-width="0.7" stroke-dasharray="3,2"/><polyline points="710.0,60.00" fill="none" stroke="#1f77b4" stroke-width="1.2"/><circle cx="710.0" cy="60.00" r="2" fill="#1f77b4"/><polygon points="710.0,47.0 715.0,52.0 710.0,57.0 705.0,52.0" fill="#dca100" stroke="black" stroke-width="0.5"/><text x="716" y="12" font-size="9" text-anchor="end" fill="#1f77b4" font-family="sans-serif">rusage.p50_p95_tick_ns (lower=better)</text></g><g transform="translate(40,4030)"><rect x="0" y="0" width="720" height="120" fill="white" stroke="#888" stroke-width="0.5"/><text x="4" y="-4" font-size="11" font-family="sans-serif">p50_ticks</text><text x="2" y="10" font-size="8" fill="#444" font-family="sans-serif">37.2</text><text x="2" y="118" font-size="8" fill="#444" font-family="sans-serif">34.8</text><line x1="10.0" y1="0" x2="10.0" y2="120" stroke="#2ca02c" stroke-width="0.7" stroke-dasharray="3,2"/><polyline points="710.0,60.00" fill="none" stroke="#1f77b4" stroke-width="1.2"/><circle cx="710.0" cy="60.00" r="2" fill="#1f77b4"/><polygon points="710.0,47.0 715.0,52.0 710.0,57.0 705.0,52.0" fill="#dca100" stroke="black" stroke-width="0.5"/><text x="716" y="12" font-size="9" text-anchor="end" fill="#1f77b4" font-family="sans-serif">rusage.p50_ticks (higher=better)</text></g><g transform="translate(40,4168)"><rect x="0" y="0" width="720" height="120" fill="white" stroke="#888" stroke-width="0.5"/><text x="4" y="-4" font-size="11" font-family="sans-serif">p50_ticks_per_s</text><text x="2" y="10" font-size="8" fill="#444" font-family="sans-serif">19</text><text x="2" y="118" font-size="8" fill="#444" font-family="sans-serif">16.7</text><line x1="10.0" y1="0" x2="10.0" y2="120" stroke="#2ca02c" stroke-width="0.7" stroke-dasharray="3,2"/><polyline points="710.0,60.00" fill="none" stroke="#1f77b4" stroke-width="1.2"/><circle cx="710.0" cy="60.00" r="2" fill="#1f77b4"/><polygon points="710.0,47.0 715.0,52.0 710.0,57.0 705.0,52.0" fill="#dca100" stroke="black" stroke-width="0.5"/><text x="716" y="12" font-size="9" text-anchor="end" fill="#1f77b4" font-family="sans-serif">rusage.p50_ticks_per_s (higher=better)</text></g><g transform="translate(40,4306)"><rect x="0" y="0" width="720" height="120" fill="white" stroke="#888" stroke-width="0.5"/><text x="4" y="-4" font-size="11" font-family="sans-serif">p5_bytes_sent</text><text x="2" y="10" font-size="8" fill="#444" font-family="sans-serif">3.74e+05</text><text x="2" y="118" font-size="8" fill="#444" font-family="sans-serif">3.74e+05</text><line x1="10.0" y1="0" x2="10.0" y2="120" stroke="#2ca02c" stroke-width="0.7" stroke-dasharray="3,2"/><polyline points="710.0,60.00" fill="none" stroke="#1f77b4" stroke-width="1.2"/><circle cx="710.0" cy="60.00" r="2" fill="#1f77b4"/><polygon points="710.0,47.0 715.0,52.0 710.0,57.0 705.0,52.0" fill="#dca100" stroke="black" stroke-width="0.5"/><text x="716" y="12" font-size="9" text-anchor="end" fill="#1f77b4" font-family="sans-serif">rusage.p5_bytes_sent (lower=better)</text></g><g transform="translate(40,4444)"><rect x="0" y="0" width="720" height="120" fill="white" stroke="#888" stroke-width="0.5"/><text x="4" y="-4" font-size="11" font-family="sans-serif">p5_median_tick_ns</text><text x="2" y="10" font-size="8" fill="#444" font-family="sans-serif">6.46e+05</text><text x="2" y="118" font-size="8" fill="#444" font-family="sans-serif">6.46e+05</text><line x1="10.0" y1="0" x2="10.0" y2="120" stroke="#2ca02c" stroke-width="0.7" stroke-dasharray="3,2"/><polyline points="710.0,60.00" fill="none" stroke="#1f77b4" stroke-width="1.2"/><circle cx="710.0" cy="60.00" r="2" fill="#1f77b4"/><polygon points="710.0,47.0 715.0,52.0 710.0,57.0 705.0,52.0" fill="#dca100" stroke="black" stroke-width="0.5"/><text x="716" y="12" font-size="9" text-anchor="end" fill="#1f77b4" font-family="sans-serif">rusage.p5_median_tick_ns (lower=better)</text></g><g transform="translate(40,4582)"><rect x="0" y="0" width="720" height="120" fill="white" stroke="#888" stroke-width="0.5"/><text x="4" y="-4" font-size="11" font-family="sans-serif">p5_p95_tick_ns</text><text x="2" y="10" font-size="8" fill="#444" font-family="sans-serif">7.51e+05</text><text x="2" y="118" font-size="8" fill="#444" font-family="sans-serif">7.51e+05</text><line x1="10.0" y1="0" x2="10.0" y2="120" stroke="#2ca02c" stroke-width="0.7" stroke-dasharray="3,2"/><polyline points="710.0,60.00" fill="none" stroke="#1f77b4" stroke-width="1.2"/><circle cx="710.0" cy="60.00" r="2" fill="#1f77b4"/><polygon points="710.0,47.0 715.0,52.0 710.0,57.0 705.0,52.0" fill="#dca100" stroke="black" stroke-width="0.5"/><text x="716" y="12" font-size="9" text-anchor="end" fill="#1f77b4" font-family="sans-serif">rusage.p5_p95_tick_ns (lower=better)</text></g><g transform="translate(40,4720)"><rect x="0" y="0" width="720" height="120" fill="white" stroke="#888" stroke-width="0.5"/><text x="4" y="-4" font-size="11" font-family="sans-serif">p5_ticks</text><text x="2" y="10" font-size="8" fill="#444" font-family="sans-serif">4.07e+03</text><text x="2" y="118" font-size="8" fill="#444" font-family="sans-serif">4.07e+03</text><line x1="10.0" y1="0" x2="10.0" y2="120" stroke="#2ca02c" stroke-width="0.7" stroke-dasharray="3,2"/><polyline points="710.0,60.00" fill="none" stroke="#1f77b4" stroke-width="1.2"/><circle cx="710.0" cy="60.00" r="2" fill="#1f77b4"/><polygon points="710.0,47.0 715.0,52.0 710.0,57.0 705.0,52.0" fill="#dca100" stroke="black" stroke-width="0.5"/><text x="716" y="12" font-size="9" text-anchor="end" fill="#1f77b4" font-family="sans-serif">rusage.p5_ticks (higher=better)</text></g><g transform="translate(40,4858)"><rect x="0" y="0" width="720" height="120" fill="white" stroke="#888" stroke-width="0.5"/><text x="4" y="-4" font-size="11" font-family="sans-serif">p5_ticks_per_s</text><text x="2" y="10" font-size="8" fill="#444" font-family="sans-serif">2.04e+03</text><text x="2" y="118" font-size="8" fill="#444" font-family="sans-serif">2.03e+03</text><line x1="10.0" y1="0" x2="10.0" y2="120" stroke="#2ca02c" stroke-width="0.7" stroke-dasharray="3,2"/><polyline points="710.0,60.00" fill="none" stroke="#1f77b4" stroke-width="1.2"/><circle cx="710.0" cy="60.00" r="2" fill="#1f77b4"/><polygon points="710.0,47.0 715.0,52.0 710.0,57.0 705.0,52.0" fill="#dca100" stroke="black" stroke-width="0.5"/><text x="716" y="12" font-size="9" text-anchor="end" fill="#1f77b4" font-family="sans-serif">rusage.p5_ticks_per_s (higher=better)</text></g><g transform="translate(40,4996)"><rect x="0" y="0" width="720" height="120" fill="white" stroke="#888" stroke-width="0.5"/><text x="4" y="-4" font-size="11" font-family="sans-serif">wall_s</text><text x="2" y="10" font-size="8" fill="#444" font-family="sans-serif">20.7</text><text x="2" y="118" font-size="8" fill="#444" font-family="sans-serif">18.4</text><line x1="10.0" y1="0" x2="10.0" y2="120" stroke="#2ca02c" stroke-width="0.7" stroke-dasharray="3,2"/><polyline points="710.0,60.00" fill="none" stroke="#1f77b4" stroke-width="1.2"/><circle cx="710.0" cy="60.00" r="2" fill="#1f77b4"/><polygon points="710.0,47.0 715.0,52.0 710.0,57.0 705.0,52.0" fill="#dca100" stroke="black" stroke-width="0.5"/><text x="716" y="12" font-size="9" text-anchor="end" fill="#1f77b4" font-family="sans-serif">rusage.wall_s (lower=better)</text></g><g transform="translate(40,5134)"><text x="10.0" y="10" font-size="8" fill="#2ca02c" text-anchor="middle" font-family="monospace" transform="rotate(45 10.0 10)">3d5154e</text><text x="243.3" y="10" font-size="8" fill="#222" text-anchor="middle" font-family="monospace" transform="rotate(45 243.3 10)">3d5154e</text><text x="476.7" y="10" font-size="8" fill="#222" text-anchor="middle" font-family="monospace" transform="rotate(45 476.7 10)">3d5154e</text><text x="710.0" y="10" font-size="8" fill="#222" text-anchor="middle" font-family="monospace" transform="rotate(45 710.0 10)">3d5154e</text></g><g transform="translate(540,5170)"><text x="0" y="0" font-size="9" font-family="sans-serif">decisions:</text><polygon points="60,-9 55,1 65,1" fill="#2ca02c" stroke="black" stroke-width="0.5"/><text x="68" y="0" font-size="9" font-family="sans-serif">KEEP</text><polygon points="125,1 120,-9 130,-9" fill="#d62728" stroke="black" stroke-width="0.5"/><text x="133" y="0" font-size="9" font-family="sans-serif">DISCARD</text><polygon points="190,-9 195,-4 190,1 185,-4" fill="#dca100" stroke="black" stroke-width="0.5"/><text x="198" y="0" font-size="9" font-family="sans-serif">ESCALATE</text></g></svg>
