<?xml version="1.0" encoding="UTF-8"?>
<svg xmlns="http://www.w3.org/2000/svg" version="1.1" width="780" height="354" viewBox="0 0 780 354"><text x="40" y="18" font-size="13" font-family="sans-serif" font-weight="bold">benchmarkserversave -- amd64-lxc/atom-n455 (intel-r-atom-tm-cpu-n455-1-66ghz, x86_64, n=5)</text><g transform="translate(40,28)"><rect x="0" y="0" width="720" height="120" fill="white" stroke="#888" stroke-width="0.5"/><text x="4" y="-4" font-size="11" font-family="sans-serif">max_rss_kb</text><text x="2" y="10" font-size="8" fill="#444" font-family="sans-serif">8.24e+03</text><text x="2" y="118" font-size="8" fill="#444" font-family="sans-serif">7.97e+03</text><line x1="10.0" y1="0" x2="10.0" y2="120" stroke="#2ca02c" stroke-width="0.7" stroke-dasharray="3,2"/><polyline points="10.0,88.13 185.0,12.59 360.0,107.41 535.0,92.95 710.0,100.98" fill="none" stroke="#1f77b4" stroke-width="1.2"/><circle cx="10.0" cy="88.13" r="2" fill="#1f77b4"/><polygon points="10.0,75.12682641729971 5.0,85.12682641729971 15.0,85.12682641729971" fill="#2ca02c" stroke="black" stroke-width="0.5"/><circle cx="185.0" cy="12.59" r="2" fill="#1f77b4"/><polygon points="185.0,-0.4137931034485831 190.0,4.586206896551417 185.0,9.586206896551417 180.0,4.586206896551417" fill="#dca100" stroke="black" stroke-width="0.5"/><circle cx="360.0" cy="107.41" r="2" fill="#1f77b4"/><polygon points="360.0,94.41379310344821 365.0,99.41379310344821 360.0,104.41379310344821 355.0,99.41379310344821" fill="#dca100" stroke="black" stroke-width="0.5"/><circle cx="535.0" cy="92.95" r="2" fill="#1f77b4"/><polygon points="535.0,79.94856808883684 540.0,84.94856808883684 535.0,89.94856808883684 530.0,84.94856808883684" fill="#dca100" stroke="black" stroke-width="0.5"/><circle cx="710.0" cy="100.98" r="2" fill="#1f77b4"/><polygon points="710.0,87.98480420806538 715.0,92.98480420806538 710.0,97.98480420806538 705.0,92.98480420806538" fill="#dca100" stroke="black" stroke-width="0.5"/><text x="716" y="12" font-size="9" text-anchor="end" fill="#1f77b4" font-family="sans-serif">rusage.default.max_rss_kb (lower=better)</text><polyline points="10.0,88.13 185.0,12.59 360.0,107.41 535.0,92.95 710.0,100.98" fill="none" stroke="#ff7f0e" stroke-width="1.2"/><circle cx="10.0" cy="88.13" r="2" fill="#ff7f0e"/><polygon points="10.0,75.12682641729971 5.0,85.12682641729971 15.0,85.12682641729971" fill="#2ca02c" stroke="black" stroke-width="0.5"/><circle cx="185.0" cy="12.59" r="2" fill="#ff7f0e"/><polygon points="185.0,-0.4137931034485831 190.0,4.586206896551417 185.0,9.586206896551417 180.0,4.586206896551417" fill="#dca100" stroke="black" stroke-width="0.5"/><circle cx="360.0" cy="107.41" r="2" fill="#ff7f0e"/><polygon points="360.0,94.41379310344821 365.0,99.41379310344821 360.0,104.41379310344821 355.0,99.41379310344821" fill="#dca100" stroke="black" stroke-width="0.5"/><circle cx="535.0" cy="92.95" r="2" fill="#ff7f0e"/><polygon points="535.0,79.94856808883684 540.0,84.94856808883684 535.0,89.94856808883684 530.0,84.94856808883684" fill="#dca100" stroke="black" stroke-width="0.5"/><circle cx="710.0" cy="100.98" r="2" fill="#ff7f0e"/><polygon points="710.0,87.98480420806538 715.0,92.98480420806538 710.0,97.98480420806538 705.0,92.98480420806538" fill="#dca100" stroke="black" stroke-width="0.5"/><text x="716" y="23" font-size="9" text-anchor="end" fill="#ff7f0e" font-family="sans-serif">rusage.max_rss_kb (lower=better)</text></g><g transform="translate(40,166)"><rect x="0" y="0" width="720" height="120" fill="white" stroke="#888" stroke-width="0.5"/><text x="4" y="-4" font-size="11" font-family="sans-serif">wall_s</text><text x="2" y="10" font-size="8" fill="#444" font-family="sans-serif">1.32</text><text x="2" y="118" font-size="8" fill="#444" font-family="sans-serif">-1</text><line x1="10.0" y1="0" x2="10.0" y2="120" stroke="#2ca02c" stroke-width="0.7" stroke-dasharray="3,2"/><polyline points="10.0,60.00 185.0,60.00 360.0,60.00 535.0,60.00 710.0,60.00" fill="none" stroke="#1f77b4" stroke-width="1.2"/><circle cx="10.0" cy="60.00" r="2" fill="#1f77b4"/><polygon points="10.0,47.0 5.0,57.0 15.0,57.0" fill="#2ca02c" stroke="black" stroke-width="0.5"/><circle cx="185.0" cy="60.00" r="2" fill="#1f77b4"/><polygon points="185.0,47.0 190.0,52.0 185.0,57.0 180.0,52.0" fill="#dca100" stroke="black" stroke-width="0.5"/><circle cx="360.0" cy="60.00" r="2" fill="#1f77b4"/><polygon points="360.0,47.0 365.0,52.0 360.0,57.0 355.0,52.0" fill="#dca100" stroke="black" stroke-width="0.5"/><circle cx="535.0" cy="60.00" r="2" fill="#1f77b4"/><polygon points="535.0,47.0 540.0,52.0 535.0,57.0 530.0,52.0" fill="#dca100" stroke="black" stroke-width="0.5"/><circle cx="710.0" cy="60.00" r="2" fill="#1f77b4"/><polygon points="710.0,47.0 715.0,52.0 710.0,57.0 705.0,52.0" fill="#dca100" stroke="black" stroke-width="0.5"/><text x="716" y="12" font-size="9" text-anchor="end" fill="#1f77b4" font-family="sans-serif">rusage.default.wall_s (lower=better)</text><polyline points="10.0,60.00 185.0,60.00 360.0,60.00 535.0,60.00 710.0,60.00" fill="none" stroke="#ff7f0e" stroke-width="1.2"/><circle cx="10.0" cy="60.00" r="2" fill="#ff7f0e"/><polygon points="10.0,47.0 5.0,57.0 15.0,57.0" fill="#2ca02c" stroke="black" stroke-width="0.5"/><circle cx="185.0" cy="60.00" r="2" fill="#ff7f0e"/><polygon points="185.0,47.0 190.0,52.0 185.0,57.0 180.0,52.0" fill="#dca100" stroke="black" stroke-width="0.5"/><circle cx="360.0" cy="60.00" r="2" fill="#ff7f0e"/><polygon points="360.0,47.0 365.0,52.0 360.0,57.0 355.0,52.0" fill="#dca100" stroke="black" stroke-width="0.5"/><circle cx="535.0" cy="60.00" r="2" fill="#ff7f0e"/><polygon points="535.0,47.0 540.0,52.0 535.0,57.0 530.0,52.0" fill="#dca100" stroke="black" stroke-width="0.5"/><circle cx="710.0" cy="60.00" r="2" fill="#ff7f0e"/><polygon points="710.0,47.0 715.0,52.0 710.0,57.0 705.0,52.0" fill="#dca100" stroke="black" stroke-width="0.5"/><text x="716" y="23" font-size="9" text-anchor="end" fill="#ff7f0e" font-family="sans-serif">rusage.wall_s (lower=better)</text></g><g transform="translate(40,304)"><text x="10.0" y="10" font-size="8" fill="#2ca02c" text-anchor="middle" font-family="monospace" transform="rotate(45 10.0 10)">3d5154e</text><text x="185.0" y="10" font-size="8" fill="#222" text-anchor="middle" font-family="monospace" transform="rotate(45 185.0 10)">3d5154e</text><text x="360.0" y="10" font-size="8" fill="#222" text-anchor="middle" font-family="monospace" transform="rotate(45 360.0 10)">3d5154e</text><text x="535.0" y="10" font-size="8" fill="#222" text-anchor="middle" font-family="monospace" transform="rotate(45 535.0 10)">3d5154e</text><text x="710.0" y="10" font-size="8" fill="#222" text-anchor="middle" font-family="monospace" transform="rotate(45 710.0 10)">3d5154e</text></g><g transform="translate(540,340)"><text x="0" y="0" font-size="9" font-family="sans-serif">decisions:</text><polygon points="60,-9 55,1 65,1" fill="#2ca02c" stroke="black" stroke-width="0.5"/><text x="68" y="0" font-size="9" font-family="sans-serif">KEEP</text><polygon points="125,1 120,-9 130,-9" fill="#d62728" stroke="black" stroke-width="0.5"/><text x="133" y="0" font-size="9" font-family="sans-serif">DISCARD</text><polygon points="190,-9 195,-4 190,1 185,-4" fill="#dca100" stroke="black" stroke-width="0.5"/><text x="198" y="0" font-size="9" font-family="sans-serif">ESCALATE</text></g></svg>
