<?xml version="1.0" encoding="UTF-8"?>
<svg xmlns="http://www.w3.org/2000/svg" version="1.1" width="780" height="354" viewBox="0 0 780 354"><text x="40" y="18" font-size="13" font-family="sans-serif" font-weight="bold">benchmarkserversave -- amd64-lxc/atom-n455 (intel-r-atom-tm-cpu-n455-1-66ghz, x86_64, n=9)</text><g transform="translate(40,28)"><rect x="0" y="0" width="720" height="120" fill="white" stroke="#888" stroke-width="0.5"/><text x="4" y="-4" font-size="11" font-family="sans-serif">max_rss_kb</text><text x="2" y="10" font-size="8" fill="#444" font-family="sans-serif">8.29e+03</text><text x="2" y="118" font-size="8" fill="#444" font-family="sans-serif">7.88e+03</text><line x1="10.0" y1="0" x2="10.0" y2="120" stroke="#2ca02c" stroke-width="0.7" stroke-dasharray="3,2"/><polyline points="10.0,85.61 97.5,82.34 185.0,107.41 272.5,74.71 360.0,72.53 447.5,52.92 535.0,72.53 622.5,68.17 710.0,12.59" fill="none" stroke="#1f77b4" stroke-width="1.2"/><circle cx="10.0" cy="85.61" r="2" fill="#1f77b4"/><polygon points="10.0,72.61434799841456 5.0,82.61434799841456 15.0,82.61434799841456" fill="#2ca02c" stroke="black" stroke-width="0.5"/><circle cx="97.5" cy="82.34" r="2" fill="#1f77b4"/><polygon points="97.5,69.34443123265952 102.5,74.34443123265952 97.5,79.34443123265952 92.5,74.34443123265952" fill="#dca100" stroke="black" stroke-width="0.5"/><circle cx="185.0" cy="107.41" r="2" fill="#1f77b4"/><polygon points="185.0,94.41379310344824 190.0,99.41379310344824 185.0,104.41379310344824 180.0,99.41379310344824" fill="#dca100" stroke="black" stroke-width="0.5"/><circle cx="272.5" cy="74.71" r="2" fill="#1f77b4"/><polygon points="272.5,61.714625445897724 277.5,66.71462544589772 272.5,71.71462544589772 267.5,66.71462544589772" fill="#dca100" stroke="black" stroke-width="0.5"/><circle cx="360.0" cy="72.53" r="2" fill="#1f77b4"/><polygon points="360.0,59.53468093539436 365.0,64.53468093539436 360.0,69.53468093539436 355.0,64.53468093539436" fill="#dca100" stroke="black" stroke-width="0.5"/><circle cx="447.5" cy="52.92" r="2" fill="#1f77b4"/><polygon points="447.5,39.91518034086406 452.5,44.91518034086406 447.5,49.91518034086406 442.5,44.91518034086406" fill="#dca100" stroke="black" stroke-width="0.5"/><circle cx="535.0" cy="72.53" r="2" fill="#1f77b4"/><polygon points="535.0,59.53468093539436 540.0,64.53468093539436 535.0,69.53468093539436 530.0,64.53468093539436" fill="#dca100" stroke="black" stroke-width="0.5"/><circle cx="622.5" cy="68.17" r="2" fill="#1f77b4"/><polygon points="622.5,55.174791914387626 627.5,60.174791914387626 622.5,65.17479191438763 617.5,60.174791914387626" fill="#dca100" stroke="black" stroke-width="0.5"/><circle cx="710.0" cy="12.59" r="2" fill="#1f77b4"/><polygon points="710.0,-0.41379310344824205 715.0,4.586206896551758 710.0,9.586206896551758 705.0,4.586206896551758" fill="#dca100" stroke="black" stroke-width="0.5"/><text x="716" y="12" font-size="9" text-anchor="end" fill="#1f77b4" font-family="sans-serif">rusage.default.max_rss_kb (lower=better)</text><polyline points="10.0,85.61 97.5,82.34 185.0,107.41 272.5,74.71 360.0,72.53 447.5,52.92 535.0,72.53 622.5,68.17 710.0,12.59" fill="none" stroke="#ff7f0e" stroke-width="1.2"/><circle cx="10.0" cy="85.61" r="2" fill="#ff7f0e"/><polygon points="10.0,72.61434799841456 5.0,82.61434799841456 15.0,82.61434799841456" fill="#2ca02c" stroke="black" stroke-width="0.5"/><circle cx="97.5" cy="82.34" r="2" fill="#ff7f0e"/><polygon points="97.5,69.34443123265952 102.5,74.34443123265952 97.5,79.34443123265952 92.5,74.34443123265952" fill="#dca100" stroke="black" stroke-width="0.5"/><circle cx="185.0" cy="107.41" r="2" fill="#ff7f0e"/><polygon points="185.0,94.41379310344824 190.0,99.41379310344824 185.0,104.41379310344824 180.0,99.41379310344824" fill="#dca100" stroke="black" stroke-width="0.5"/><circle cx="272.5" cy="74.71" r="2" fill="#ff7f0e"/><polygon points="272.5,61.714625445897724 277.5,66.71462544589772 272.5,71.71462544589772 267.5,66.71462544589772" fill="#dca100" stroke="black" stroke-width="0.5"/><circle cx="360.0" cy="72.53" r="2" fill="#ff7f0e"/><polygon points="360.0,59.53468093539436 365.0,64.53468093539436 360.0,69.53468093539436 355.0,64.53468093539436" fill="#dca100" stroke="black" stroke-width="0.5"/><circle cx="447.5" cy="52.92" r="2" fill="#ff7f0e"/><polygon points="447.5,39.91518034086406 452.5,44.91518034086406 447.5,49.91518034086406 442.5,44.91518034086406" fill="#dca100" stroke="black" stroke-width="0.5"/><circle cx="535.0" cy="72.53" r="2" fill="#ff7f0e"/><polygon points="535.0,59.53468093539436 540.0,64.53468093539436 535.0,69.53468093539436 530.0,64.53468093539436" fill="#dca100" stroke="black" stroke-width="0.5"/><circle cx="622.5" cy="68.17" r="2" fill="#ff7f0e"/><polygon points="622.5,55.174791914387626 627.5,60.174791914387626 622.5,65.17479191438763 617.5,60.174791914387626" fill="#dca100" stroke="black" stroke-width="0.5"/><circle cx="710.0" cy="12.59" r="2" fill="#ff7f0e"/><polygon points="710.0,-0.41379310344824205 715.0,4.586206896551758 710.0,9.586206896551758 705.0,4.586206896551758" fill="#dca100" stroke="black" stroke-width="0.5"/><text x="716" y="23" font-size="9" text-anchor="end" fill="#ff7f0e" font-family="sans-serif">rusage.max_rss_kb (lower=better)</text></g><g transform="translate(40,166)"><rect x="0" y="0" width="720" height="120" fill="white" stroke="#888" stroke-width="0.5"/><text x="4" y="-4" font-size="11" font-family="sans-serif">wall_s</text><text x="2" y="10" font-size="8" fill="#444" font-family="sans-serif">0.161</text><text x="2" y="118" font-size="8" fill="#444" font-family="sans-serif">0.149</text><line x1="10.0" y1="0" x2="10.0" y2="120" stroke="#2ca02c" stroke-width="0.7" stroke-dasharray="3,2"/><polyline points="10.0,12.59 97.5,12.59 185.0,12.59 272.5,12.59 360.0,107.41 447.5,107.41 535.0,107.41 622.5,107.41 710.0,107.41" fill="none" stroke="#1f77b4" stroke-width="1.2"/><circle cx="10.0" cy="12.59" r="2" fill="#1f77b4"/><polygon points="10.0,-0.4137931034483273 5.0,9.586206896551673 15.0,9.586206896551673" fill="#2ca02c" stroke="black" stroke-width="0.5"/><circle cx="97.5" cy="12.59" r="2" fill="#1f77b4"/><polygon points="97.5,-0.4137931034483273 102.5,4.586206896551673 97.5,9.586206896551673 92.5,4.586206896551673" fill="#dca100" stroke="black" stroke-width="0.5"/><circle cx="185.0" cy="12.59" r="2" fill="#1f77b4"/><polygon points="185.0,-0.4137931034483273 190.0,4.586206896551673 185.0,9.586206896551673 180.0,4.586206896551673" fill="#dca100" stroke="black" stroke-width="0.5"/><circle cx="272.5" cy="12.59" r="2" fill="#1f77b4"/><polygon points="272.5,-0.4137931034483273 277.5,4.586206896551673 272.5,9.586206896551673 267.5,4.586206896551673" fill="#dca100" stroke="black" stroke-width="0.5"/><circle cx="360.0" cy="107.41" r="2" fill="#1f77b4"/><polygon points="360.0,94.41379310344833 365.0,99.41379310344833 360.0,104.41379310344833 355.0,99.41379310344833" fill="#dca100" stroke="black" stroke-width="0.5"/><circle cx="447.5" cy="107.41" r="2" fill="#1f77b4"/><polygon points="447.5,94.41379310344833 452.5,99.41379310344833 447.5,104.41379310344833 442.5,99.41379310344833" fill="#dca100" stroke="black" stroke-width="0.5"/><circle cx="535.0" cy="107.41" r="2" fill="#1f77b4"/><polygon points="535.0,94.41379310344833 540.0,99.41379310344833 535.0,104.41379310344833 530.0,99.41379310344833" fill="#dca100" stroke="black" stroke-width="0.5"/><circle cx="622.5" cy="107.41" r="2" fill="#1f77b4"/><polygon points="622.5,94.41379310344833 627.5,99.41379310344833 622.5,104.41379310344833 617.5,99.41379310344833" fill="#dca100" stroke="black" stroke-width="0.5"/><circle cx="710.0" cy="107.41" r="2" fill="#1f77b4"/><polygon points="710.0,94.41379310344833 715.0,99.41379310344833 710.0,104.41379310344833 705.0,99.41379310344833" fill="#dca100" stroke="black" stroke-width="0.5"/><text x="716" y="12" font-size="9" text-anchor="end" fill="#1f77b4" font-family="sans-serif">rusage.default.wall_s (lower=better)</text><polyline points="10.0,12.59 97.5,12.59 185.0,12.59 272.5,12.59 360.0,107.41 447.5,107.41 535.0,107.41 622.5,107.41 710.0,107.41" fill="none" stroke="#ff7f0e" stroke-width="1.2"/><circle cx="10.0" cy="12.59" r="2" fill="#ff7f0e"/><polygon points="10.0,-0.4137931034483273 5.0,9.586206896551673 15.0,9.586206896551673" fill="#2ca02c" stroke="black" stroke-width="0.5"/><circle cx="97.5" cy="12.59" r="2" fill="#ff7f0e"/><polygon points="97.5,-0.4137931034483273 102.5,4.586206896551673 97.5,9.586206896551673 92.5,4.586206896551673" fill="#dca100" stroke="black" stroke-width="0.5"/><circle cx="185.0" cy="12.59" r="2" fill="#ff7f0e"/><polygon points="185.0,-0.4137931034483273 190.0,4.586206896551673 185.0,9.586206896551673 180.0,4.586206896551673" fill="#dca100" stroke="black" stroke-width="0.5"/><circle cx="272.5" cy="12.59" r="2" fill="#ff7f0e"/><polygon points="272.5,-0.4137931034483273 277.5,4.586206896551673 272.5,9.586206896551673 267.5,4.586206896551673" fill="#dca100" stroke="black" stroke-width="0.5"/><circle cx="360.0" cy="107.41" r="2" fill="#ff7f0e"/><polygon points="360.0,94.41379310344833 365.0,99.41379310344833 360.0,104.41379310344833 355.0,99.41379310344833" fill="#dca100" stroke="black" stroke-width="0.5"/><circle cx="447.5" cy="107.41" r="2" fill="#ff7f0e"/><polygon points="447.5,94.41379310344833 452.5,99.41379310344833 447.5,104.41379310344833 442.5,99.41379310344833" fill="#dca100" stroke="black" stroke-width="0.5"/><circle cx="535.0" cy="107.41" r="2" fill="#ff7f0e"/><polygon points="535.0,94.41379310344833 540.0,99.41379310344833 535.0,104.41379310344833 530.0,99.41379310344833" fill="#dca100" stroke="black" stroke-width="0.5"/><circle cx="622.5" cy="107.41" r="2" fill="#ff7f0e"/><polygon points="622.5,94.41379310344833 627.5,99.41379310344833 622.5,104.41379310344833 617.5,99.41379310344833" fill="#dca100" stroke="black" stroke-width="0.5"/><circle cx="710.0" cy="107.41" r="2" fill="#ff7f0e"/><polygon points="710.0,94.41379310344833 715.0,99.41379310344833 710.0,104.41379310344833 705.0,99.41379310344833" fill="#dca100" stroke="black" stroke-width="0.5"/><text x="716" y="23" font-size="9" text-anchor="end" fill="#ff7f0e" font-family="sans-serif">rusage.wall_s (lower=better)</text></g><g transform="translate(40,304)"><text x="10.0" y="10" font-size="8" fill="#2ca02c" text-anchor="middle" font-family="monospace" transform="rotate(45 10.0 10)">edca85f</text><text x="97.5" y="10" font-size="8" fill="#222" text-anchor="middle" font-family="monospace" transform="rotate(45 97.5 10)">90ce69c</text><text x="185.0" y="10" font-size="8" fill="#222" text-anchor="middle" font-family="monospace" transform="rotate(45 185.0 10)">90ce69c</text><text x="272.5" y="10" font-size="8" fill="#222" text-anchor="middle" font-family="monospace" transform="rotate(45 272.5 10)">1856b24</text><text x="360.0" y="10" font-size="8" fill="#222" text-anchor="middle" font-family="monospace" transform="rotate(45 360.0 10)">a166d07</text><text x="447.5" y="10" font-size="8" fill="#222" text-anchor="middle" font-family="monospace" transform="rotate(45 447.5 10)">a166d07</text><text x="535.0" y="10" font-size="8" fill="#222" text-anchor="middle" font-family="monospace" transform="rotate(45 535.0 10)">a166d07</text><text x="622.5" y="10" font-size="8" fill="#222" text-anchor="middle" font-family="monospace" transform="rotate(45 622.5 10)">a166d07</text><text x="710.0" y="10" font-size="8" fill="#222" text-anchor="middle" font-family="monospace" transform="rotate(45 710.0 10)">a166d07</text></g><g transform="translate(540,340)"><text x="0" y="0" font-size="9" font-family="sans-serif">decisions:</text><polygon points="60,-9 55,1 65,1" fill="#2ca02c" stroke="black" stroke-width="0.5"/><text x="68" y="0" font-size="9" font-family="sans-serif">KEEP</text><polygon points="125,1 120,-9 130,-9" fill="#d62728" stroke="black" stroke-width="0.5"/><text x="133" y="0" font-size="9" font-family="sans-serif">DISCARD</text><polygon points="190,-9 195,-4 190,1 185,-4" fill="#dca100" stroke="black" stroke-width="0.5"/><text x="198" y="0" font-size="9" font-family="sans-serif">ESCALATE</text></g></svg>
