<?xml version="1.0" encoding="UTF-8"?>
<svg xmlns="http://www.w3.org/2000/svg" version="1.1" width="780" height="216" viewBox="0 0 780 216"><text x="40" y="18" font-size="13" font-family="sans-serif" font-weight="bold">benchmarkmapmanager -- mips-lxc/rtl9607c (unknown-cpu, mips2r2, n=9)</text><g transform="translate(40,28)"><rect x="0" y="0" width="720" height="120" fill="white" stroke="#888" stroke-width="0.5"/><text x="4" y="-4" font-size="11" font-family="sans-serif">binary_size_bytes</text><text x="2" y="10" font-size="8" fill="#444" font-family="sans-serif">1.44e+06</text><text x="2" y="118" font-size="8" fill="#444" font-family="sans-serif">1.44e+06</text><line x1="10.0" y1="0" x2="10.0" y2="120" stroke="#2ca02c" stroke-width="0.7" stroke-dasharray="3,2"/><polyline points="535.0,60.00" fill="none" stroke="#1f77b4" stroke-width="1.2"/><circle cx="535.0" cy="60.00" r="2" fill="#1f77b4"/><polygon points="535.0,47.0 540.0,52.0 535.0,57.0 530.0,52.0" fill="#dca100" stroke="black" stroke-width="0.5"/><text x="716" y="12" font-size="9" text-anchor="end" fill="#1f77b4" font-family="sans-serif">binary-size.binary_size_bytes (lower=better)</text></g><g transform="translate(40,166)"><text x="10.0" y="10" font-size="8" fill="#2ca02c" text-anchor="middle" font-family="monospace" transform="rotate(45 10.0 10)">3d5154e</text><text x="97.5" y="10" font-size="8" fill="#222" text-anchor="middle" font-family="monospace" transform="rotate(45 97.5 10)">3d5154e</text><text x="185.0" y="10" font-size="8" fill="#222" text-anchor="middle" font-family="monospace" transform="rotate(45 185.0 10)">3d5154e</text><text x="272.5" y="10" font-size="8" fill="#222" text-anchor="middle" font-family="monospace" transform="rotate(45 272.5 10)">3d5154e</text><text x="360.0" y="10" font-size="8" fill="#222" text-anchor="middle" font-family="monospace" transform="rotate(45 360.0 10)">3d5154e</text><text x="447.5" y="10" font-size="8" fill="#222" text-anchor="middle" font-family="monospace" transform="rotate(45 447.5 10)">3d5154e</text><text x="535.0" y="10" font-size="8" fill="#222" text-anchor="middle" font-family="monospace" transform="rotate(45 535.0 10)">3d5154e</text><text x="622.5" y="10" font-size="8" fill="#222" text-anchor="middle" font-family="monospace" transform="rotate(45 622.5 10)">3d5154e</text><text x="710.0" y="10" font-size="8" fill="#222" text-anchor="middle" font-family="monospace" transform="rotate(45 710.0 10)">3d5154e</text></g><g transform="translate(540,202)"><text x="0" y="0" font-size="9" font-family="sans-serif">decisions:</text><polygon points="60,-9 55,1 65,1" fill="#2ca02c" stroke="black" stroke-width="0.5"/><text x="68" y="0" font-size="9" font-family="sans-serif">KEEP</text><polygon points="125,1 120,-9 130,-9" fill="#d62728" stroke="black" stroke-width="0.5"/><text x="133" y="0" font-size="9" font-family="sans-serif">DISCARD</text><polygon points="190,-9 195,-4 190,1 185,-4" fill="#dca100" stroke="black" stroke-width="0.5"/><text x="198" y="0" font-size="9" font-family="sans-serif">ESCALATE</text></g></svg>
