<?xml version="1.0" encoding="UTF-8"?>
<svg xmlns="http://www.w3.org/2000/svg" version="1.1" width="780" height="354" viewBox="0 0 780 354"><text x="40" y="18" font-size="13" font-family="sans-serif" font-weight="bold">benchmarkserversave -- lxc-geode/geode (geode-tm-integrated-processor-by-amd-pcs, i686, n=4)</text><g transform="translate(40,28)"><rect x="0" y="0" width="720" height="120" fill="white" stroke="#888" stroke-width="0.5"/><text x="4" y="-4" font-size="11" font-family="sans-serif">max_rss_kb</text><text x="2" y="10" font-size="8" fill="#444" font-family="sans-serif">7.85e+03</text><text x="2" y="118" font-size="8" fill="#444" font-family="sans-serif">7.74e+03</text><polyline points="10.0,103.46 243.3,103.46 476.7,12.59 710.0,107.41" fill="none" stroke="#1f77b4" stroke-width="1.2"/><circle cx="10.0" cy="103.46" r="2" fill="#1f77b4"/><polygon points="10.0,90.46264367816069 15.0,95.46264367816069 10.0,100.46264367816069 5.0,95.46264367816069" fill="#dca100" stroke="black" stroke-width="0.5"/><circle cx="243.3" cy="103.46" r="2" fill="#1f77b4"/><polygon points="243.33333333333331,90.46264367816069 248.33333333333331,95.46264367816069 243.33333333333331,100.46264367816069 238.33333333333331,95.46264367816069" fill="#dca100" stroke="black" stroke-width="0.5"/><circle cx="476.7" cy="12.59" r="2" fill="#1f77b4"/><polygon points="476.66666666666663,-0.4137931034480289 481.66666666666663,4.586206896551971 476.66666666666663,9.586206896551971 471.66666666666663,4.586206896551971" fill="#dca100" stroke="black" stroke-width="0.5"/><circle cx="710.0" cy="107.41" r="2" fill="#1f77b4"/><polygon points="710.0,94.41379310344803 715.0,99.41379310344803 710.0,104.41379310344803 705.0,99.41379310344803" fill="#dca100" stroke="black" stroke-width="0.5"/><text x="716" y="12" font-size="9" text-anchor="end" fill="#1f77b4" font-family="sans-serif">rusage.default.max_rss_kb (lower=better)</text><polyline points="10.0,103.46 243.3,103.46 476.7,12.59 710.0,107.41" fill="none" stroke="#ff7f0e" stroke-width="1.2"/><circle cx="10.0" cy="103.46" r="2" fill="#ff7f0e"/><polygon points="10.0,90.46264367816069 15.0,95.46264367816069 10.0,100.46264367816069 5.0,95.46264367816069" fill="#dca100" stroke="black" stroke-width="0.5"/><circle cx="243.3" cy="103.46" r="2" fill="#ff7f0e"/><polygon points="243.33333333333331,90.46264367816069 248.33333333333331,95.46264367816069 243.33333333333331,100.46264367816069 238.33333333333331,95.46264367816069" fill="#dca100" stroke="black" stroke-width="0.5"/><circle cx="476.7" cy="12.59" r="2" fill="#ff7f0e"/><polygon points="476.66666666666663,-0.4137931034480289 481.66666666666663,4.586206896551971 476.66666666666663,9.586206896551971 471.66666666666663,4.586206896551971" fill="#dca100" stroke="black" stroke-width="0.5"/><circle cx="710.0" cy="107.41" r="2" fill="#ff7f0e"/><polygon points="710.0,94.41379310344803 715.0,99.41379310344803 710.0,104.41379310344803 705.0,99.41379310344803" fill="#dca100" stroke="black" stroke-width="0.5"/><text x="716" y="23" font-size="9" text-anchor="end" fill="#ff7f0e" font-family="sans-serif">rusage.max_rss_kb (lower=better)</text></g><g transform="translate(40,166)"><rect x="0" y="0" width="720" height="120" fill="white" stroke="#888" stroke-width="0.5"/><text x="4" y="-4" font-size="11" font-family="sans-serif">wall_s</text><text x="2" y="10" font-size="8" fill="#444" font-family="sans-serif">2.19</text><text x="2" y="118" font-size="8" fill="#444" font-family="sans-serif">1.04</text><polyline points="10.0,12.59 243.3,44.20 476.7,107.41 710.0,97.84" fill="none" stroke="#1f77b4" stroke-width="1.2"/><circle cx="10.0" cy="12.59" r="2" fill="#1f77b4"/><polygon points="10.0,-0.41379310344825626 15.0,4.586206896551744 10.0,9.586206896551744 5.0,4.586206896551744" fill="#dca100" stroke="black" stroke-width="0.5"/><circle cx="243.3" cy="44.20" r="2" fill="#1f77b4"/><polygon points="243.33333333333331,31.19540229885058 248.33333333333331,36.19540229885058 243.33333333333331,41.19540229885058 238.33333333333331,36.19540229885058" fill="#dca100" stroke="black" stroke-width="0.5"/><circle cx="476.7" cy="107.41" r="2" fill="#1f77b4"/><polygon points="476.66666666666663,94.41379310344828 481.66666666666663,99.41379310344828 476.66666666666663,104.41379310344828 471.66666666666663,99.41379310344828" fill="#dca100" stroke="black" stroke-width="0.5"/><circle cx="710.0" cy="97.84" r="2" fill="#1f77b4"/><polygon points="710.0,84.8352490421456 715.0,89.8352490421456 710.0,94.8352490421456 705.0,89.8352490421456" fill="#dca100" stroke="black" stroke-width="0.5"/><text x="716" y="12" font-size="9" text-anchor="end" fill="#1f77b4" font-family="sans-serif">rusage.default.wall_s (lower=better)</text><polyline points="10.0,12.59 243.3,44.20 476.7,107.41 710.0,97.84" fill="none" stroke="#ff7f0e" stroke-width="1.2"/><circle cx="10.0" cy="12.59" r="2" fill="#ff7f0e"/><polygon points="10.0,-0.41379310344825626 15.0,4.586206896551744 10.0,9.586206896551744 5.0,4.586206896551744" fill="#dca100" stroke="black" stroke-width="0.5"/><circle cx="243.3" cy="44.20" r="2" fill="#ff7f0e"/><polygon points="243.33333333333331,31.19540229885058 248.33333333333331,36.19540229885058 243.33333333333331,41.19540229885058 238.33333333333331,36.19540229885058" fill="#dca100" stroke="black" stroke-width="0.5"/><circle cx="476.7" cy="107.41" r="2" fill="#ff7f0e"/><polygon points="476.66666666666663,94.41379310344828 481.66666666666663,99.41379310344828 476.66666666666663,104.41379310344828 471.66666666666663,99.41379310344828" fill="#dca100" stroke="black" stroke-width="0.5"/><circle cx="710.0" cy="97.84" r="2" fill="#ff7f0e"/><polygon points="710.0,84.8352490421456 715.0,89.8352490421456 710.0,94.8352490421456 705.0,89.8352490421456" fill="#dca100" stroke="black" stroke-width="0.5"/><text x="716" y="23" font-size="9" text-anchor="end" fill="#ff7f0e" font-family="sans-serif">rusage.wall_s (lower=better)</text></g><g transform="translate(40,304)"><text x="10.0" y="10" font-size="8" fill="#222" text-anchor="middle" font-family="monospace" transform="rotate(45 10.0 10)">a166d07</text><text x="243.3" y="10" font-size="8" fill="#222" text-anchor="middle" font-family="monospace" transform="rotate(45 243.3 10)">a166d07</text><text x="476.7" y="10" font-size="8" fill="#222" text-anchor="middle" font-family="monospace" transform="rotate(45 476.7 10)">a166d07</text><text x="710.0" y="10" font-size="8" fill="#222" text-anchor="middle" font-family="monospace" transform="rotate(45 710.0 10)">a166d07</text></g><g transform="translate(540,340)"><text x="0" y="0" font-size="9" font-family="sans-serif">decisions:</text><polygon points="60,-9 55,1 65,1" fill="#2ca02c" stroke="black" stroke-width="0.5"/><text x="68" y="0" font-size="9" font-family="sans-serif">KEEP</text><polygon points="125,1 120,-9 130,-9" fill="#d62728" stroke="black" stroke-width="0.5"/><text x="133" y="0" font-size="9" font-family="sans-serif">DISCARD</text><polygon points="190,-9 195,-4 190,1 185,-4" fill="#dca100" stroke="black" stroke-width="0.5"/><text x="198" y="0" font-size="9" font-family="sans-serif">ESCALATE</text></g></svg>
