<?xml version="1.0" encoding="UTF-8"?>
<svg xmlns="http://www.w3.org/2000/svg" version="1.1" width="780" height="906" viewBox="0 0 780 906"><text x="40" y="18" font-size="13" font-family="sans-serif" font-weight="bold">benchmarkserversave -- LXC armv8-debian-13-armv8/odroid-c2 (armv8-processor-rev-4-v8l, aarch64, n=5)</text><g transform="translate(40,28)"><rect x="0" y="0" width="720" height="120" fill="white" stroke="#888" stroke-width="0.5"/><text x="4" y="-4" font-size="11" font-family="sans-serif">branch-misses</text><text x="2" y="10" font-size="8" fill="#444" font-family="sans-serif">8.79e+05</text><text x="2" y="118" font-size="8" fill="#444" font-family="sans-serif">8.14e+05</text><line x1="10.0" y1="0" x2="10.0" y2="120" stroke="#2ca02c" stroke-width="0.7" stroke-dasharray="3,2"/><polyline points="10.0,106.50 185.0,12.59 360.0,106.95 535.0,107.41 710.0,101.91" fill="none" stroke="#1f77b4" stroke-width="1.2"/><circle cx="10.0" cy="106.50" r="2" fill="#1f77b4"/><polygon points="10.0,93.50111505315638 5.0,103.50111505315638 15.0,103.50111505315638" fill="#2ca02c" stroke="black" stroke-width="0.5"/><circle cx="185.0" cy="12.59" r="2" fill="#1f77b4"/><polygon points="185.0,-0.4137931034482847 190.0,4.586206896551715 185.0,9.586206896551715 180.0,4.586206896551715" fill="#dca100" stroke="black" stroke-width="0.5"/><circle cx="360.0" cy="106.95" r="2" fill="#1f77b4"/><polygon points="360.0,93.95071844693487 365.0,98.95071844693487 360.0,103.95071844693487 355.0,98.95071844693487" fill="#dca100" stroke="black" stroke-width="0.5"/><circle cx="535.0" cy="107.41" r="2" fill="#1f77b4"/><polygon points="535.0,94.41379310344828 540.0,99.41379310344828 535.0,104.41379310344828 530.0,99.41379310344828" fill="#dca100" stroke="black" stroke-width="0.5"/><circle cx="710.0" cy="101.91" r="2" fill="#1f77b4"/><polygon points="710.0,88.91415009191076 715.0,93.91415009191076 710.0,98.91415009191076 705.0,93.91415009191076" fill="#dca100" stroke="black" stroke-width="0.5"/><text x="716" y="12" font-size="9" text-anchor="end" fill="#1f77b4" font-family="sans-serif">perf-stat.branch-misses (lower=better)</text></g><g transform="translate(40,166)"><rect x="0" y="0" width="720" height="120" fill="white" stroke="#888" stroke-width="0.5"/><text x="4" y="-4" font-size="11" font-family="sans-serif">cache-misses</text><text x="2" y="10" font-size="8" fill="#444" font-family="sans-serif">4.24e+05</text><text x="2" y="118" font-size="8" fill="#444" font-family="sans-serif">3.45e+05</text><line x1="10.0" y1="0" x2="10.0" y2="120" stroke="#2ca02c" stroke-width="0.7" stroke-dasharray="3,2"/><polyline points="10.0,105.17 185.0,12.59 360.0,104.89 535.0,107.41 710.0,102.02" fill="none" stroke="#1f77b4" stroke-width="1.2"/><circle cx="10.0" cy="105.17" r="2" fill="#1f77b4"/><polygon points="10.0,92.17283407516055 5.0,102.17283407516055 15.0,102.17283407516055" fill="#2ca02c" stroke="black" stroke-width="0.5"/><circle cx="185.0" cy="12.59" r="2" fill="#1f77b4"/><polygon points="185.0,-0.4137931034483131 190.0,4.586206896551687 185.0,9.586206896551687 180.0,4.586206896551687" fill="#dca100" stroke="black" stroke-width="0.5"/><circle cx="360.0" cy="104.89" r="2" fill="#1f77b4"/><polygon points="360.0,91.89046493262151 365.0,96.89046493262151 360.0,101.89046493262151 355.0,96.89046493262151" fill="#dca100" stroke="black" stroke-width="0.5"/><circle cx="535.0" cy="107.41" r="2" fill="#1f77b4"/><polygon points="535.0,94.41379310344831 540.0,99.41379310344831 535.0,104.41379310344831 530.0,99.41379310344831" fill="#dca100" stroke="black" stroke-width="0.5"/><circle cx="710.0" cy="102.02" r="2" fill="#1f77b4"/><polygon points="710.0,89.01694365854779 715.0,94.01694365854779 710.0,99.01694365854779 705.0,94.01694365854779" fill="#dca100" stroke="black" stroke-width="0.5"/><text x="716" y="12" font-size="9" text-anchor="end" fill="#1f77b4" font-family="sans-serif">perf-stat.cache-misses (lower=better)</text></g><g transform="translate(40,304)"><rect x="0" y="0" width="720" height="120" fill="white" stroke="#888" stroke-width="0.5"/><text x="4" y="-4" font-size="11" font-family="sans-serif">cycles</text><text x="2" y="10" font-size="8" fill="#444" font-family="sans-serif">1.55e+08</text><text x="2" y="118" font-size="8" fill="#444" font-family="sans-serif">1.45e+08</text><line x1="10.0" y1="0" x2="10.0" y2="120" stroke="#2ca02c" stroke-width="0.7" stroke-dasharray="3,2"/><polyline points="10.0,107.41 185.0,12.59 360.0,105.48 535.0,98.55 710.0,100.63" fill="none" stroke="#1f77b4" stroke-width="1.2"/><circle cx="10.0" cy="107.41" r="2" fill="#1f77b4"/><polygon points="10.0,94.41379310344841 5.0,104.41379310344841 15.0,104.41379310344841" fill="#2ca02c" stroke="black" stroke-width="0.5"/><circle cx="185.0" cy="12.59" r="2" fill="#1f77b4"/><polygon points="185.0,-0.4137931034484126 190.0,4.586206896551587 185.0,9.586206896551587 180.0,4.586206896551587" fill="#dca100" stroke="black" stroke-width="0.5"/><circle cx="360.0" cy="105.48" r="2" fill="#1f77b4"/><polygon points="360.0,92.4782422576827 365.0,97.4782422576827 360.0,102.4782422576827 355.0,97.4782422576827" fill="#dca100" stroke="black" stroke-width="0.5"/><circle cx="535.0" cy="98.55" r="2" fill="#1f77b4"/><polygon points="535.0,85.54532919373887 540.0,90.54532919373887 535.0,95.54532919373887 530.0,90.54532919373887" fill="#dca100" stroke="black" stroke-width="0.5"/><circle cx="710.0" cy="100.63" r="2" fill="#1f77b4"/><polygon points="710.0,87.62803573908657 715.0,92.62803573908657 710.0,97.62803573908657 705.0,92.62803573908657" fill="#dca100" stroke="black" stroke-width="0.5"/><text x="716" y="12" font-size="9" text-anchor="end" fill="#1f77b4" font-family="sans-serif">perf-stat.cycles (lower=better)</text></g><g transform="translate(40,442)"><rect x="0" y="0" width="720" height="120" fill="white" stroke="#888" stroke-width="0.5"/><text x="4" y="-4" font-size="11" font-family="sans-serif">instructions</text><text x="2" y="10" font-size="8" fill="#444" font-family="sans-serif">9.77e+07</text><text x="2" y="118" font-size="8" fill="#444" font-family="sans-serif">9.61e+07</text><line x1="10.0" y1="0" x2="10.0" y2="120" stroke="#2ca02c" stroke-width="0.7" stroke-dasharray="3,2"/><polyline points="10.0,102.60 185.0,12.59 360.0,107.41 535.0,103.79 710.0,98.31" fill="none" stroke="#1f77b4" stroke-width="1.2"/><circle cx="10.0" cy="102.60" r="2" fill="#1f77b4"/><polygon points="10.0,89.60245949914778 5.0,99.60245949914778 15.0,99.60245949914778" fill="#2ca02c" stroke="black" stroke-width="0.5"/><circle cx="185.0" cy="12.59" r="2" fill="#1f77b4"/><polygon points="185.0,-0.4137931034480715 190.0,4.5862068965519285 185.0,9.586206896551928 180.0,4.5862068965519285" fill="#dca100" stroke="black" stroke-width="0.5"/><circle cx="360.0" cy="107.41" r="2" fill="#1f77b4"/><polygon points="360.0,94.41379310344807 365.0,99.41379310344807 360.0,104.41379310344807 355.0,99.41379310344807" fill="#dca100" stroke="black" stroke-width="0.5"/><circle cx="535.0" cy="103.79" r="2" fill="#1f77b4"/><polygon points="535.0,90.7939875660277 540.0,95.7939875660277 535.0,100.7939875660277 530.0,95.7939875660277" fill="#dca100" stroke="black" stroke-width="0.5"/><circle cx="710.0" cy="98.31" r="2" fill="#1f77b4"/><polygon points="710.0,85.30683868466008 715.0,90.30683868466008 710.0,95.30683868466008 705.0,90.30683868466008" fill="#dca100" stroke="black" stroke-width="0.5"/><text x="716" y="12" font-size="9" text-anchor="end" fill="#1f77b4" font-family="sans-serif">perf-stat.instructions (lower=better)</text></g><g transform="translate(40,580)"><rect x="0" y="0" width="720" height="120" fill="white" stroke="#888" stroke-width="0.5"/><text x="4" y="-4" font-size="11" font-family="sans-serif">max_rss_kb</text><text x="2" y="10" font-size="8" fill="#444" font-family="sans-serif">7.81e+03</text><text x="2" y="118" font-size="8" fill="#444" font-family="sans-serif">7.58e+03</text><line x1="10.0" y1="0" x2="10.0" y2="120" stroke="#2ca02c" stroke-width="0.7" stroke-dasharray="3,2"/><polyline points="10.0,37.74 185.0,18.39 360.0,14.52 535.0,107.41 710.0,12.59" fill="none" stroke="#1f77b4" stroke-width="1.2"/><circle cx="10.0" cy="37.74" r="2" fill="#1f77b4"/><polygon points="10.0,24.74454609429985 5.0,34.74454609429985 15.0,34.74454609429985" fill="#2ca02c" stroke="black" stroke-width="0.5"/><circle cx="185.0" cy="18.39" r="2" fill="#1f77b4"/><polygon points="185.0,5.39197748064754 190.0,10.39197748064754 185.0,15.39197748064754 180.0,10.39197748064754" fill="#dca100" stroke="black" stroke-width="0.5"/><circle cx="360.0" cy="14.52" r="2" fill="#1f77b4"/><polygon points="360.0,1.5214637579170756 365.0,6.5214637579170756 360.0,11.521463757917076 355.0,6.5214637579170756" fill="#dca100" stroke="black" stroke-width="0.5"/><circle cx="535.0" cy="107.41" r="2" fill="#1f77b4"/><polygon points="535.0,94.41379310344816 540.0,99.41379310344816 535.0,104.41379310344816 530.0,99.41379310344816" fill="#dca100" stroke="black" stroke-width="0.5"/><circle cx="710.0" cy="12.59" r="2" fill="#1f77b4"/><polygon points="710.0,-0.4137931034481568 715.0,4.586206896551843 710.0,9.586206896551843 705.0,4.586206896551843" fill="#dca100" stroke="black" stroke-width="0.5"/><text x="716" y="12" font-size="9" text-anchor="end" fill="#1f77b4" font-family="sans-serif">rusage.default.max_rss_kb (lower=better)</text><polyline points="10.0,37.74 185.0,18.39 360.0,14.52 535.0,107.41 710.0,12.59" fill="none" stroke="#ff7f0e" stroke-width="1.2"/><circle cx="10.0" cy="37.74" r="2" fill="#ff7f0e"/><polygon points="10.0,24.74454609429985 5.0,34.74454609429985 15.0,34.74454609429985" fill="#2ca02c" stroke="black" stroke-width="0.5"/><circle cx="185.0" cy="18.39" r="2" fill="#ff7f0e"/><polygon points="185.0,5.39197748064754 190.0,10.39197748064754 185.0,15.39197748064754 180.0,10.39197748064754" fill="#dca100" stroke="black" stroke-width="0.5"/><circle cx="360.0" cy="14.52" r="2" fill="#ff7f0e"/><polygon points="360.0,1.5214637579170756 365.0,6.5214637579170756 360.0,11.521463757917076 355.0,6.5214637579170756" fill="#dca100" stroke="black" stroke-width="0.5"/><circle cx="535.0" cy="107.41" r="2" fill="#ff7f0e"/><polygon points="535.0,94.41379310344816 540.0,99.41379310344816 535.0,104.41379310344816 530.0,99.41379310344816" fill="#dca100" stroke="black" stroke-width="0.5"/><circle cx="710.0" cy="12.59" r="2" fill="#ff7f0e"/><polygon points="710.0,-0.4137931034481568 715.0,4.586206896551843 710.0,9.586206896551843 705.0,4.586206896551843" fill="#dca100" stroke="black" stroke-width="0.5"/><text x="716" y="23" font-size="9" text-anchor="end" fill="#ff7f0e" font-family="sans-serif">rusage.max_rss_kb (lower=better)</text></g><g transform="translate(40,718)"><rect x="0" y="0" width="720" height="120" fill="white" stroke="#888" stroke-width="0.5"/><text x="4" y="-4" font-size="11" font-family="sans-serif">wall_s</text><text x="2" y="10" font-size="8" fill="#444" font-family="sans-serif">0.111</text><text x="2" y="118" font-size="8" fill="#444" font-family="sans-serif">0.0992</text><line x1="10.0" y1="0" x2="10.0" y2="120" stroke="#2ca02c" stroke-width="0.7" stroke-dasharray="3,2"/><polyline points="10.0,12.59 185.0,107.41 360.0,107.41 535.0,107.41 710.0,107.41" fill="none" stroke="#1f77b4" stroke-width="1.2"/><circle cx="10.0" cy="12.59" r="2" fill="#1f77b4"/><polygon points="10.0,-0.4137931034483131 5.0,9.586206896551687 15.0,9.586206896551687" fill="#2ca02c" stroke="black" stroke-width="0.5"/><circle cx="185.0" cy="107.41" r="2" fill="#1f77b4"/><polygon points="185.0,94.41379310344831 190.0,99.41379310344831 185.0,104.41379310344831 180.0,99.41379310344831" fill="#dca100" stroke="black" stroke-width="0.5"/><circle cx="360.0" cy="107.41" r="2" fill="#1f77b4"/><polygon points="360.0,94.41379310344831 365.0,99.41379310344831 360.0,104.41379310344831 355.0,99.41379310344831" fill="#dca100" stroke="black" stroke-width="0.5"/><circle cx="535.0" cy="107.41" r="2" fill="#1f77b4"/><polygon points="535.0,94.41379310344831 540.0,99.41379310344831 535.0,104.41379310344831 530.0,99.41379310344831" fill="#dca100" stroke="black" stroke-width="0.5"/><circle cx="710.0" cy="107.41" r="2" fill="#1f77b4"/><polygon points="710.0,94.41379310344831 715.0,99.41379310344831 710.0,104.41379310344831 705.0,99.41379310344831" fill="#dca100" stroke="black" stroke-width="0.5"/><text x="716" y="12" font-size="9" text-anchor="end" fill="#1f77b4" font-family="sans-serif">rusage.default.wall_s (lower=better)</text><polyline points="10.0,12.59 185.0,107.41 360.0,107.41 535.0,107.41 710.0,107.41" fill="none" stroke="#ff7f0e" stroke-width="1.2"/><circle cx="10.0" cy="12.59" r="2" fill="#ff7f0e"/><polygon points="10.0,-0.4137931034483131 5.0,9.586206896551687 15.0,9.586206896551687" fill="#2ca02c" stroke="black" stroke-width="0.5"/><circle cx="185.0" cy="107.41" r="2" fill="#ff7f0e"/><polygon points="185.0,94.41379310344831 190.0,99.41379310344831 185.0,104.41379310344831 180.0,99.41379310344831" fill="#dca100" stroke="black" stroke-width="0.5"/><circle cx="360.0" cy="107.41" r="2" fill="#ff7f0e"/><polygon points="360.0,94.41379310344831 365.0,99.41379310344831 360.0,104.41379310344831 355.0,99.41379310344831" fill="#dca100" stroke="black" stroke-width="0.5"/><circle cx="535.0" cy="107.41" r="2" fill="#ff7f0e"/><polygon points="535.0,94.41379310344831 540.0,99.41379310344831 535.0,104.41379310344831 530.0,99.41379310344831" fill="#dca100" stroke="black" stroke-width="0.5"/><circle cx="710.0" cy="107.41" r="2" fill="#ff7f0e"/><polygon points="710.0,94.41379310344831 715.0,99.41379310344831 710.0,104.41379310344831 705.0,99.41379310344831" fill="#dca100" stroke="black" stroke-width="0.5"/><text x="716" y="23" font-size="9" text-anchor="end" fill="#ff7f0e" font-family="sans-serif">rusage.wall_s (lower=better)</text></g><g transform="translate(40,856)"><text x="10.0" y="10" font-size="8" fill="#2ca02c" text-anchor="middle" font-family="monospace" transform="rotate(45 10.0 10)">3d5154e</text><text x="185.0" y="10" font-size="8" fill="#222" text-anchor="middle" font-family="monospace" transform="rotate(45 185.0 10)">3d5154e</text><text x="360.0" y="10" font-size="8" fill="#222" text-anchor="middle" font-family="monospace" transform="rotate(45 360.0 10)">3d5154e</text><text x="535.0" y="10" font-size="8" fill="#222" text-anchor="middle" font-family="monospace" transform="rotate(45 535.0 10)">3d5154e</text><text x="710.0" y="10" font-size="8" fill="#222" text-anchor="middle" font-family="monospace" transform="rotate(45 710.0 10)">3d5154e</text></g><g transform="translate(540,892)"><text x="0" y="0" font-size="9" font-family="sans-serif">decisions:</text><polygon points="60,-9 55,1 65,1" fill="#2ca02c" stroke="black" stroke-width="0.5"/><text x="68" y="0" font-size="9" font-family="sans-serif">KEEP</text><polygon points="125,1 120,-9 130,-9" fill="#d62728" stroke="black" stroke-width="0.5"/><text x="133" y="0" font-size="9" font-family="sans-serif">DISCARD</text><polygon points="190,-9 195,-4 190,1 185,-4" fill="#dca100" stroke="black" stroke-width="0.5"/><text x="198" y="0" font-size="9" font-family="sans-serif">ESCALATE</text></g></svg>
