<?xml version="1.0" encoding="UTF-8"?>
<svg xmlns="http://www.w3.org/2000/svg" version="1.1" width="780" height="906" viewBox="0 0 780 906"><text x="40" y="18" font-size="13" font-family="sans-serif" font-weight="bold">benchmarkserversave -- LXC armv8-debian-13-armv8/odroid-c2 (armv8-processor-rev-4-v8l, aarch64, n=9)</text><g transform="translate(40,28)"><rect x="0" y="0" width="720" height="120" fill="white" stroke="#888" stroke-width="0.5"/><text x="4" y="-4" font-size="11" font-family="sans-serif">branch-misses</text><text x="2" y="10" font-size="8" fill="#444" font-family="sans-serif">9.56e+05</text><text x="2" y="118" font-size="8" fill="#444" font-family="sans-serif">8.88e+05</text><line x1="10.0" y1="0" x2="10.0" y2="120" stroke="#2ca02c" stroke-width="0.7" stroke-dasharray="3,2"/><polyline points="10.0,12.59 97.5,107.41 185.0,105.81 272.5,99.97 360.0,100.42 447.5,99.74 535.0,100.49 622.5,102.79 710.0,105.87" fill="none" stroke="#1f77b4" stroke-width="1.2"/><circle cx="10.0" cy="12.59" r="2" fill="#1f77b4"/><polygon points="10.0,-0.4137931034483415 5.0,9.586206896551658 15.0,9.586206896551658" fill="#2ca02c" stroke="black" stroke-width="0.5"/><circle cx="97.5" cy="107.41" r="2" fill="#1f77b4"/><polygon points="97.5,94.41379310344834 102.5,99.41379310344834 97.5,104.41379310344834 92.5,99.41379310344834" fill="#dca100" stroke="black" stroke-width="0.5"/><circle cx="185.0" cy="105.81" r="2" fill="#1f77b4"/><polygon points="185.0,92.81159496665326 190.0,97.81159496665326 185.0,102.81159496665326 180.0,97.81159496665326" fill="#dca100" stroke="black" stroke-width="0.5"/><circle cx="272.5" cy="99.97" r="2" fill="#1f77b4"/><polygon points="272.5,86.96638970377272 277.5,91.96638970377272 272.5,96.96638970377272 267.5,91.96638970377272" fill="#dca100" stroke="black" stroke-width="0.5"/><circle cx="360.0" cy="100.42" r="2" fill="#1f77b4"/><polygon points="360.0,87.41725953121255 365.0,92.41725953121255 360.0,97.41725953121255 355.0,92.41725953121255" fill="#dca100" stroke="black" stroke-width="0.5"/><circle cx="447.5" cy="99.74" r="2" fill="#1f77b4"/><polygon points="447.5,86.73773429128538 452.5,91.73773429128538 447.5,96.73773429128538 442.5,91.73773429128538" fill="#dca100" stroke="black" stroke-width="0.5"/><circle cx="535.0" cy="100.49" r="2" fill="#1f77b4"/><polygon points="535.0,87.48811050409594 540.0,92.48811050409594 535.0,97.48811050409594 530.0,92.48811050409594" fill="#dca100" stroke="black" stroke-width="0.5"/><circle cx="622.5" cy="102.79" r="2" fill="#1f77b4"/><polygon points="622.5,89.78915687342274 627.5,94.78915687342274 622.5,99.78915687342274 617.5,94.78915687342274" fill="#dca100" stroke="black" stroke-width="0.5"/><circle cx="710.0" cy="105.87" r="2" fill="#1f77b4"/><polygon points="710.0,92.86956394446696 715.0,97.86956394446696 710.0,102.86956394446696 705.0,97.86956394446696" fill="#dca100" stroke="black" stroke-width="0.5"/><text x="716" y="12" font-size="9" text-anchor="end" fill="#1f77b4" font-family="sans-serif">perf-stat.branch-misses (lower=better)</text></g><g transform="translate(40,166)"><rect x="0" y="0" width="720" height="120" fill="white" stroke="#888" stroke-width="0.5"/><text x="4" y="-4" font-size="11" font-family="sans-serif">cache-misses</text><text x="2" y="10" font-size="8" fill="#444" font-family="sans-serif">4.85e+05</text><text x="2" y="118" font-size="8" fill="#444" font-family="sans-serif">3.66e+05</text><line x1="10.0" y1="0" x2="10.0" y2="120" stroke="#2ca02c" stroke-width="0.7" stroke-dasharray="3,2"/><polyline points="10.0,12.59 97.5,107.41 185.0,98.48 272.5,87.75 360.0,86.53 447.5,77.30 535.0,95.22 622.5,85.56 710.0,84.14" fill="none" stroke="#1f77b4" stroke-width="1.2"/><circle cx="10.0" cy="12.59" r="2" fill="#1f77b4"/><polygon points="10.0,-0.4137931034482847 5.0,9.586206896551715 15.0,9.586206896551715" fill="#2ca02c" stroke="black" stroke-width="0.5"/><circle cx="97.5" cy="107.41" r="2" fill="#1f77b4"/><polygon points="97.5,94.41379310344828 102.5,99.41379310344828 97.5,104.41379310344828 92.5,99.41379310344828" fill="#dca100" stroke="black" stroke-width="0.5"/><circle cx="185.0" cy="98.48" r="2" fill="#1f77b4"/><polygon points="185.0,85.47925240309618 190.0,90.47925240309618 185.0,95.47925240309618 180.0,90.47925240309618" fill="#dca100" stroke="black" stroke-width="0.5"/><circle cx="272.5" cy="87.75" r="2" fill="#1f77b4"/><polygon points="272.5,74.74703234337161 277.5,79.74703234337161 272.5,84.74703234337161 267.5,79.74703234337161" fill="#dca100" stroke="black" stroke-width="0.5"/><circle cx="360.0" cy="86.53" r="2" fill="#1f77b4"/><polygon points="360.0,73.52598463801276 365.0,78.52598463801276 360.0,83.52598463801276 355.0,78.52598463801276" fill="#dca100" stroke="black" stroke-width="0.5"/><circle cx="447.5" cy="77.30" r="2" fill="#1f77b4"/><polygon points="447.5,64.29894962040738 452.5,69.29894962040738 447.5,74.29894962040738 442.5,69.29894962040738" fill="#dca100" stroke="black" stroke-width="0.5"/><circle cx="535.0" cy="95.22" r="2" fill="#1f77b4"/><polygon points="535.0,82.2200300108455 540.0,87.2200300108455 535.0,92.2200300108455 530.0,87.2200300108455" fill="#dca100" stroke="black" stroke-width="0.5"/><circle cx="622.5" cy="85.56" r="2" fill="#1f77b4"/><polygon points="622.5,72.56493188132346 627.5,77.56493188132346 622.5,82.56493188132346 617.5,77.56493188132346" fill="#dca100" stroke="black" stroke-width="0.5"/><circle cx="710.0" cy="84.14" r="2" fill="#1f77b4"/><polygon points="710.0,71.14331664413378 715.0,76.14331664413378 710.0,81.14331664413378 705.0,76.14331664413378" fill="#dca100" stroke="black" stroke-width="0.5"/><text x="716" y="12" font-size="9" text-anchor="end" fill="#1f77b4" font-family="sans-serif">perf-stat.cache-misses (lower=better)</text></g><g transform="translate(40,304)"><rect x="0" y="0" width="720" height="120" fill="white" stroke="#888" stroke-width="0.5"/><text x="4" y="-4" font-size="11" font-family="sans-serif">cycles</text><text x="2" y="10" font-size="8" fill="#444" font-family="sans-serif">1.68e+08</text><text x="2" y="118" font-size="8" fill="#444" font-family="sans-serif">1.56e+08</text><line x1="10.0" y1="0" x2="10.0" y2="120" stroke="#2ca02c" stroke-width="0.7" stroke-dasharray="3,2"/><polyline points="10.0,12.59 97.5,107.41 185.0,104.57 272.5,106.10 360.0,102.67 447.5,102.17 535.0,102.82 622.5,105.50 710.0,97.34" fill="none" stroke="#1f77b4" stroke-width="1.2"/><circle cx="10.0" cy="12.59" r="2" fill="#1f77b4"/><polygon points="10.0,-0.41379310344835574 5.0,9.586206896551644 15.0,9.586206896551644" fill="#2ca02c" stroke="black" stroke-width="0.5"/><circle cx="97.5" cy="107.41" r="2" fill="#1f77b4"/><polygon points="97.5,94.41379310344836 102.5,99.41379310344836 97.5,104.41379310344836 92.5,99.41379310344836" fill="#dca100" stroke="black" stroke-width="0.5"/><circle cx="185.0" cy="104.57" r="2" fill="#1f77b4"/><polygon points="185.0,91.56549168290837 190.0,96.56549168290837 185.0,101.56549168290837 180.0,96.56549168290837" fill="#dca100" stroke="black" stroke-width="0.5"/><circle cx="272.5" cy="106.10" r="2" fill="#1f77b4"/><polygon points="272.5,93.10334973846776 277.5,98.10334973846776 272.5,103.10334973846776 267.5,98.10334973846776" fill="#dca100" stroke="black" stroke-width="0.5"/><circle cx="360.0" cy="102.67" r="2" fill="#1f77b4"/><polygon points="360.0,89.66965822656489 365.0,94.66965822656489 360.0,99.66965822656489 355.0,94.66965822656489" fill="#dca100" stroke="black" stroke-width="0.5"/><circle cx="447.5" cy="102.17" r="2" fill="#1f77b4"/><polygon points="447.5,89.16501349837267 452.5,94.16501349837267 447.5,99.16501349837267 442.5,94.16501349837267" fill="#dca100" stroke="black" stroke-width="0.5"/><circle cx="535.0" cy="102.82" r="2" fill="#1f77b4"/><polygon points="535.0,89.81807449305323 540.0,94.81807449305323 535.0,99.81807449305323 530.0,94.81807449305323" fill="#dca100" stroke="black" stroke-width="0.5"/><circle cx="622.5" cy="105.50" r="2" fill="#1f77b4"/><polygon points="622.5,92.50307388725822 627.5,97.50307388725822 622.5,102.50307388725822 617.5,97.50307388725822" fill="#dca100" stroke="black" stroke-width="0.5"/><circle cx="710.0" cy="97.34" r="2" fill="#1f77b4"/><polygon points="710.0,84.33974709283767 715.0,89.33974709283767 710.0,94.33974709283767 705.0,89.33974709283767" fill="#dca100" stroke="black" stroke-width="0.5"/><text x="716" y="12" font-size="9" text-anchor="end" fill="#1f77b4" font-family="sans-serif">perf-stat.cycles (lower=better)</text></g><g transform="translate(40,442)"><rect x="0" y="0" width="720" height="120" fill="white" stroke="#888" stroke-width="0.5"/><text x="4" y="-4" font-size="11" font-family="sans-serif">instructions</text><text x="2" y="10" font-size="8" fill="#444" font-family="sans-serif">1.03e+08</text><text x="2" y="118" font-size="8" fill="#444" font-family="sans-serif">1.01e+08</text><line x1="10.0" y1="0" x2="10.0" y2="120" stroke="#2ca02c" stroke-width="0.7" stroke-dasharray="3,2"/><polyline points="10.0,12.59 97.5,101.94 185.0,100.28 272.5,95.85 360.0,106.05 447.5,107.41 535.0,99.53 622.5,101.94 710.0,103.35" fill="none" stroke="#1f77b4" stroke-width="1.2"/><circle cx="10.0" cy="12.59" r="2" fill="#1f77b4"/><polygon points="10.0,-0.41379310344862574 5.0,9.586206896551374 15.0,9.586206896551374" fill="#2ca02c" stroke="black" stroke-width="0.5"/><circle cx="97.5" cy="101.94" r="2" fill="#1f77b4"/><polygon points="97.5,88.93776076008906 102.5,93.93776076008906 97.5,98.93776076008906 92.5,93.93776076008906" fill="#dca100" stroke="black" stroke-width="0.5"/><circle cx="185.0" cy="100.28" r="2" fill="#1f77b4"/><polygon points="185.0,87.27794012270046 190.0,92.27794012270046 185.0,97.27794012270046 180.0,92.27794012270046" fill="#dca100" stroke="black" stroke-width="0.5"/><circle cx="272.5" cy="95.85" r="2" fill="#1f77b4"/><polygon points="272.5,82.85064287871681 277.5,87.85064287871681 272.5,92.85064287871681 267.5,87.85064287871681" fill="#dca100" stroke="black" stroke-width="0.5"/><circle cx="360.0" cy="106.05" r="2" fill="#1f77b4"/><polygon points="360.0,93.05207259887725 365.0,98.05207259887725 360.0,103.05207259887725 355.0,98.05207259887725" fill="#dca100" stroke="black" stroke-width="0.5"/><circle cx="447.5" cy="107.41" r="2" fill="#1f77b4"/><polygon points="447.5,94.41379310344863 452.5,99.41379310344863 447.5,104.41379310344863 442.5,99.41379310344863" fill="#dca100" stroke="black" stroke-width="0.5"/><circle cx="535.0" cy="99.53" r="2" fill="#1f77b4"/><polygon points="535.0,86.52832006107666 540.0,91.52832006107666 535.0,96.52832006107666 530.0,91.52832006107666" fill="#dca100" stroke="black" stroke-width="0.5"/><circle cx="622.5" cy="101.94" r="2" fill="#1f77b4"/><polygon points="622.5,88.94227144868853 627.5,93.94227144868853 622.5,98.94227144868853 617.5,93.94227144868853" fill="#dca100" stroke="black" stroke-width="0.5"/><circle cx="710.0" cy="103.35" r="2" fill="#1f77b4"/><polygon points="710.0,90.34622327527241 715.0,95.34622327527241 710.0,100.34622327527241 705.0,95.34622327527241" fill="#dca100" stroke="black" stroke-width="0.5"/><text x="716" y="12" font-size="9" text-anchor="end" fill="#1f77b4" font-family="sans-serif">perf-stat.instructions (lower=better)</text></g><g transform="translate(40,580)"><rect x="0" y="0" width="720" height="120" fill="white" stroke="#888" stroke-width="0.5"/><text x="4" y="-4" font-size="11" font-family="sans-serif">max_rss_kb</text><text x="2" y="10" font-size="8" fill="#444" font-family="sans-serif">7.55e+03</text><text x="2" y="118" font-size="8" fill="#444" font-family="sans-serif">7.38e+03</text><line x1="10.0" y1="0" x2="10.0" y2="120" stroke="#2ca02c" stroke-width="0.7" stroke-dasharray="3,2"/><polyline points="10.0,12.59 97.5,12.59 185.0,12.59 272.5,56.16 360.0,107.41 447.5,97.16 535.0,97.16 622.5,97.16 710.0,35.65" fill="none" stroke="#1f77b4" stroke-width="1.2"/><circle cx="10.0" cy="12.59" r="2" fill="#1f77b4"/><polygon points="10.0,-0.4137931034481994 5.0,9.5862068965518 15.0,9.5862068965518" fill="#2ca02c" stroke="black" stroke-width="0.5"/><circle cx="97.5" cy="12.59" r="2" fill="#1f77b4"/><polygon points="97.5,-0.4137931034481994 102.5,4.586206896551801 97.5,9.5862068965518 92.5,4.586206896551801" fill="#dca100" stroke="black" stroke-width="0.5"/><circle cx="185.0" cy="12.59" r="2" fill="#1f77b4"/><polygon points="185.0,-0.4137931034481994 190.0,4.586206896551801 185.0,9.5862068965518 180.0,4.586206896551801" fill="#dca100" stroke="black" stroke-width="0.5"/><circle cx="272.5" cy="56.16" r="2" fill="#1f77b4"/><polygon points="272.5,43.15563839701771 277.5,48.15563839701771 272.5,53.15563839701771 267.5,48.15563839701771" fill="#dca100" stroke="black" stroke-width="0.5"/><circle cx="360.0" cy="107.41" r="2" fill="#1f77b4"/><polygon points="360.0,94.4137931034482 365.0,99.4137931034482 360.0,104.4137931034482 355.0,99.4137931034482" fill="#dca100" stroke="black" stroke-width="0.5"/><circle cx="447.5" cy="97.16" r="2" fill="#1f77b4"/><polygon points="447.5,84.1621621621621 452.5,89.1621621621621 447.5,94.1621621621621 442.5,89.1621621621621" fill="#dca100" stroke="black" stroke-width="0.5"/><circle cx="535.0" cy="97.16" r="2" fill="#1f77b4"/><polygon points="535.0,84.1621621621621 540.0,89.1621621621621 535.0,94.1621621621621 530.0,89.1621621621621" fill="#dca100" stroke="black" stroke-width="0.5"/><circle cx="622.5" cy="97.16" r="2" fill="#1f77b4"/><polygon points="622.5,84.1621621621621 627.5,89.1621621621621 622.5,94.1621621621621 617.5,89.1621621621621" fill="#dca100" stroke="black" stroke-width="0.5"/><circle cx="710.0" cy="35.65" r="2" fill="#1f77b4"/><polygon points="710.0,22.65237651444552 715.0,27.65237651444552 710.0,32.65237651444552 705.0,27.65237651444552" fill="#dca100" stroke="black" stroke-width="0.5"/><text x="716" y="12" font-size="9" text-anchor="end" fill="#1f77b4" font-family="sans-serif">rusage.default.max_rss_kb (lower=better)</text><polyline points="10.0,12.59 97.5,12.59 185.0,12.59 272.5,56.16 360.0,107.41 447.5,97.16 535.0,97.16 622.5,97.16 710.0,35.65" fill="none" stroke="#ff7f0e" stroke-width="1.2"/><circle cx="10.0" cy="12.59" r="2" fill="#ff7f0e"/><polygon points="10.0,-0.4137931034481994 5.0,9.5862068965518 15.0,9.5862068965518" fill="#2ca02c" stroke="black" stroke-width="0.5"/><circle cx="97.5" cy="12.59" r="2" fill="#ff7f0e"/><polygon points="97.5,-0.4137931034481994 102.5,4.586206896551801 97.5,9.5862068965518 92.5,4.586206896551801" fill="#dca100" stroke="black" stroke-width="0.5"/><circle cx="185.0" cy="12.59" r="2" fill="#ff7f0e"/><polygon points="185.0,-0.4137931034481994 190.0,4.586206896551801 185.0,9.5862068965518 180.0,4.586206896551801" fill="#dca100" stroke="black" stroke-width="0.5"/><circle cx="272.5" cy="56.16" r="2" fill="#ff7f0e"/><polygon points="272.5,43.15563839701771 277.5,48.15563839701771 272.5,53.15563839701771 267.5,48.15563839701771" fill="#dca100" stroke="black" stroke-width="0.5"/><circle cx="360.0" cy="107.41" r="2" fill="#ff7f0e"/><polygon points="360.0,94.4137931034482 365.0,99.4137931034482 360.0,104.4137931034482 355.0,99.4137931034482" fill="#dca100" stroke="black" stroke-width="0.5"/><circle cx="447.5" cy="97.16" r="2" fill="#ff7f0e"/><polygon points="447.5,84.1621621621621 452.5,89.1621621621621 447.5,94.1621621621621 442.5,89.1621621621621" fill="#dca100" stroke="black" stroke-width="0.5"/><circle cx="535.0" cy="97.16" r="2" fill="#ff7f0e"/><polygon points="535.0,84.1621621621621 540.0,89.1621621621621 535.0,94.1621621621621 530.0,89.1621621621621" fill="#dca100" stroke="black" stroke-width="0.5"/><circle cx="622.5" cy="97.16" r="2" fill="#ff7f0e"/><polygon points="622.5,84.1621621621621 627.5,89.1621621621621 622.5,94.1621621621621 617.5,89.1621621621621" fill="#dca100" stroke="black" stroke-width="0.5"/><circle cx="710.0" cy="35.65" r="2" fill="#ff7f0e"/><polygon points="710.0,22.65237651444552 715.0,27.65237651444552 710.0,32.65237651444552 705.0,27.65237651444552" fill="#dca100" stroke="black" stroke-width="0.5"/><text x="716" y="23" font-size="9" text-anchor="end" fill="#ff7f0e" font-family="sans-serif">rusage.max_rss_kb (lower=better)</text></g><g transform="translate(40,718)"><rect x="0" y="0" width="720" height="120" fill="white" stroke="#888" stroke-width="0.5"/><text x="4" y="-4" font-size="11" font-family="sans-serif">wall_s</text><text x="2" y="10" font-size="8" fill="#444" font-family="sans-serif">0.348</text><text x="2" y="118" font-size="8" fill="#444" font-family="sans-serif">0.0924</text><line x1="10.0" y1="0" x2="10.0" y2="120" stroke="#2ca02c" stroke-width="0.7" stroke-dasharray="3,2"/><polyline points="10.0,103.10 97.5,107.41 185.0,72.93 272.5,103.10 360.0,107.41 447.5,12.59 535.0,107.41 622.5,107.41 710.0,55.69" fill="none" stroke="#1f77b4" stroke-width="1.2"/><circle cx="10.0" cy="103.10" r="2" fill="#1f77b4"/><polygon points="10.0,90.10344827586206 5.0,100.10344827586206 15.0,100.10344827586206" fill="#2ca02c" stroke="black" stroke-width="0.5"/><circle cx="97.5" cy="107.41" r="2" fill="#1f77b4"/><polygon points="97.5,94.41379310344827 102.5,99.41379310344827 97.5,104.41379310344827 92.5,99.41379310344827" fill="#dca100" stroke="black" stroke-width="0.5"/><circle cx="185.0" cy="72.93" r="2" fill="#1f77b4"/><polygon points="185.0,59.93103448275863 190.0,64.93103448275863 185.0,69.93103448275863 180.0,64.93103448275863" fill="#dca100" stroke="black" stroke-width="0.5"/><circle cx="272.5" cy="103.10" r="2" fill="#1f77b4"/><polygon points="272.5,90.10344827586206 277.5,95.10344827586206 272.5,100.10344827586206 267.5,95.10344827586206" fill="#dca100" stroke="black" stroke-width="0.5"/><circle cx="360.0" cy="107.41" r="2" fill="#1f77b4"/><polygon points="360.0,94.41379310344827 365.0,99.41379310344827 360.0,104.41379310344827 355.0,99.41379310344827" fill="#dca100" stroke="black" stroke-width="0.5"/><circle cx="447.5" cy="12.59" r="2" fill="#1f77b4"/><polygon points="447.5,-0.41379310344827047 452.5,4.5862068965517295 447.5,9.58620689655173 442.5,4.5862068965517295" fill="#dca100" stroke="black" stroke-width="0.5"/><circle cx="535.0" cy="107.41" r="2" fill="#1f77b4"/><polygon points="535.0,94.41379310344827 540.0,99.41379310344827 535.0,104.41379310344827 530.0,99.41379310344827" fill="#dca100" stroke="black" stroke-width="0.5"/><circle cx="622.5" cy="107.41" r="2" fill="#1f77b4"/><polygon points="622.5,94.41379310344827 627.5,99.41379310344827 622.5,104.41379310344827 617.5,99.41379310344827" fill="#dca100" stroke="black" stroke-width="0.5"/><circle cx="710.0" cy="55.69" r="2" fill="#1f77b4"/><polygon points="710.0,42.6896551724138 715.0,47.6896551724138 710.0,52.6896551724138 705.0,47.6896551724138" fill="#dca100" stroke="black" stroke-width="0.5"/><text x="716" y="12" font-size="9" text-anchor="end" fill="#1f77b4" font-family="sans-serif">rusage.default.wall_s (lower=better)</text><polyline points="10.0,103.10 97.5,107.41 185.0,72.93 272.5,103.10 360.0,107.41 447.5,12.59 535.0,107.41 622.5,107.41 710.0,55.69" fill="none" stroke="#ff7f0e" stroke-width="1.2"/><circle cx="10.0" cy="103.10" r="2" fill="#ff7f0e"/><polygon points="10.0,90.10344827586206 5.0,100.10344827586206 15.0,100.10344827586206" fill="#2ca02c" stroke="black" stroke-width="0.5"/><circle cx="97.5" cy="107.41" r="2" fill="#ff7f0e"/><polygon points="97.5,94.41379310344827 102.5,99.41379310344827 97.5,104.41379310344827 92.5,99.41379310344827" fill="#dca100" stroke="black" stroke-width="0.5"/><circle cx="185.0" cy="72.93" r="2" fill="#ff7f0e"/><polygon points="185.0,59.93103448275863 190.0,64.93103448275863 185.0,69.93103448275863 180.0,64.93103448275863" fill="#dca100" stroke="black" stroke-width="0.5"/><circle cx="272.5" cy="103.10" r="2" fill="#ff7f0e"/><polygon points="272.5,90.10344827586206 277.5,95.10344827586206 272.5,100.10344827586206 267.5,95.10344827586206" fill="#dca100" stroke="black" stroke-width="0.5"/><circle cx="360.0" cy="107.41" r="2" fill="#ff7f0e"/><polygon points="360.0,94.41379310344827 365.0,99.41379310344827 360.0,104.41379310344827 355.0,99.41379310344827" fill="#dca100" stroke="black" stroke-width="0.5"/><circle cx="447.5" cy="12.59" r="2" fill="#ff7f0e"/><polygon points="447.5,-0.41379310344827047 452.5,4.5862068965517295 447.5,9.58620689655173 442.5,4.5862068965517295" fill="#dca100" stroke="black" stroke-width="0.5"/><circle cx="535.0" cy="107.41" r="2" fill="#ff7f0e"/><polygon points="535.0,94.41379310344827 540.0,99.41379310344827 535.0,104.41379310344827 530.0,99.41379310344827" fill="#dca100" stroke="black" stroke-width="0.5"/><circle cx="622.5" cy="107.41" r="2" fill="#ff7f0e"/><polygon points="622.5,94.41379310344827 627.5,99.41379310344827 622.5,104.41379310344827 617.5,99.41379310344827" fill="#dca100" stroke="black" stroke-width="0.5"/><circle cx="710.0" cy="55.69" r="2" fill="#ff7f0e"/><polygon points="710.0,42.6896551724138 715.0,47.6896551724138 710.0,52.6896551724138 705.0,47.6896551724138" fill="#dca100" stroke="black" stroke-width="0.5"/><text x="716" y="23" font-size="9" text-anchor="end" fill="#ff7f0e" font-family="sans-serif">rusage.wall_s (lower=better)</text></g><g transform="translate(40,856)"><text x="10.0" y="10" font-size="8" fill="#2ca02c" text-anchor="middle" font-family="monospace" transform="rotate(45 10.0 10)">edca85f</text><text x="97.5" y="10" font-size="8" fill="#222" text-anchor="middle" font-family="monospace" transform="rotate(45 97.5 10)">90ce69c</text><text x="185.0" y="10" font-size="8" fill="#222" text-anchor="middle" font-family="monospace" transform="rotate(45 185.0 10)">90ce69c</text><text x="272.5" y="10" font-size="8" fill="#222" text-anchor="middle" font-family="monospace" transform="rotate(45 272.5 10)">1856b24</text><text x="360.0" y="10" font-size="8" fill="#222" text-anchor="middle" font-family="monospace" transform="rotate(45 360.0 10)">a166d07</text><text x="447.5" y="10" font-size="8" fill="#222" text-anchor="middle" font-family="monospace" transform="rotate(45 447.5 10)">a166d07</text><text x="535.0" y="10" font-size="8" fill="#222" text-anchor="middle" font-family="monospace" transform="rotate(45 535.0 10)">a166d07</text><text x="622.5" y="10" font-size="8" fill="#222" text-anchor="middle" font-family="monospace" transform="rotate(45 622.5 10)">a166d07</text><text x="710.0" y="10" font-size="8" fill="#222" text-anchor="middle" font-family="monospace" transform="rotate(45 710.0 10)">a166d07</text></g><g transform="translate(540,892)"><text x="0" y="0" font-size="9" font-family="sans-serif">decisions:</text><polygon points="60,-9 55,1 65,1" fill="#2ca02c" stroke="black" stroke-width="0.5"/><text x="68" y="0" font-size="9" font-family="sans-serif">KEEP</text><polygon points="125,1 120,-9 130,-9" fill="#d62728" stroke="black" stroke-width="0.5"/><text x="133" y="0" font-size="9" font-family="sans-serif">DISCARD</text><polygon points="190,-9 195,-4 190,1 185,-4" fill="#dca100" stroke="black" stroke-width="0.5"/><text x="198" y="0" font-size="9" font-family="sans-serif">ESCALATE</text></g></svg>
